<svg width="1529" height="278" viewBox="0 0 1529 278" fill="none" xmlns="http://www.w3.org/2000/svg">
<path fill-rule="evenodd" clip-rule="evenodd" d="M607.304 180.173C623.964 180.173 635.293 186.042 635.293 201.638C635.293 222.935 606.971 236.351 564.321 237.022C556.824 237.022 552.992 242.891 552.992 249.096C552.992 255.804 557.657 262.679 566.82 262.679C611.303 262.679 662.116 245.574 661.949 200.464C661.949 169.608 639.458 156.192 605.971 156.192C584.813 156.192 555.158 161.559 544.662 163.571C537.332 164.912 534 170.614 534 176.484C534 183.359 538.665 190.402 546.662 190.402C547.828 190.402 548.827 190.235 550.16 189.899C586.479 181.514 593.643 180.173 607.304 180.173ZM634.627 147.64C642.957 147.64 647.455 141.267 647.455 134.727C647.455 129.026 643.623 123.156 634.96 122.318C615.634 120.976 600.14 120.138 582.981 120.138C577.249 120.138 571.084 120.283 564.488 120.438C563.991 120.45 563.491 120.461 562.988 120.473C554.325 120.641 550.327 127.181 550.327 133.218C550.327 139.255 554.325 145.292 561.489 145.292H562.322C570.486 144.789 578.149 144.454 585.646 144.454C601.14 144.454 615.967 145.627 632.794 147.472C633.026 147.472 633.294 147.508 633.581 147.547C633.912 147.592 634.27 147.64 634.627 147.64ZM710.872 250.432V214.37H744.827C779.117 214.37 793 194.808 793 169.974C793 145.309 778.448 126.768 744.493 126.768H703.512C689.964 126.768 683.607 134.422 683.607 147.01V250.432C683.607 258.767 690.465 262.679 697.323 262.679C704.181 262.679 710.872 258.767 710.872 250.432ZM766.07 170.144C766.07 179.839 759.547 188.174 744.827 188.174H710.872V157.046C710.872 154.664 712.377 152.963 714.719 152.963H744.827C759.379 152.963 766.07 160.448 766.07 170.144Z" fill="#DDDDDD"/>
<path fill-rule="evenodd" clip-rule="evenodd" d="M218.596 6.8854C215.682 9.75433 214.396 14.0814 217.256 18.1511L238.318 49.0569C247 60.5924 248.811 63.2084 247.937 64.0691C247.548 64.4516 246.491 64.1543 245.246 63.0847C244.977 62.8892 243.582 61.7072 241.779 60.1796C239.09 57.9008 235.493 54.8527 233.371 53.1631C231.36 51.5093 209.896 35.346 208.075 34.0792C201.748 29.5973 194.505 31.5656 189.843 36.1559C185.182 40.7461 183.101 48.1512 187.39 54.4485C188.164 55.5982 194.705 64.4991 199.88 71.5399C202.99 75.7721 205.606 79.3321 206.179 80.1325C207.864 82.3006 210.806 85.8801 213.039 88.5973C214.601 90.4974 215.816 91.9759 216.013 92.2551C216.872 93.3218 216.864 94.2855 216.573 94.5724C216.185 94.9549 215.318 94.8519 214.265 93.9764L202.193 84.6316C200.566 83.2664 186.123 72.8094 177.838 66.81C174.907 64.6881 172.746 63.1238 172.195 62.7166C168.267 59.6988 163.921 60.9184 161.008 63.7873C157.512 67.23 156.118 73.0019 160.039 76.9834C162.047 79.0227 207.127 107.318 209.909 108.978C215.951 112.783 222.906 110.716 227.373 106.317C232.035 101.727 234.015 94.8027 230.205 88.9908C229.402 87.7976 221.866 77.2363 216.275 69.4006C213.241 65.1496 210.78 61.7008 210.277 60.9851L209.765 60.3142C202.267 50.494 200.273 47.8827 200.938 47.2279C201.327 46.8454 202.096 47.0441 203.245 48.0167L214.262 56.6787C216.177 58.2355 240.233 75.8643 242.054 77.1311C247.998 81.2246 255.144 79.3519 259.805 74.7616C264.175 70.4582 266.155 63.727 262.35 57.1443L233.044 7.96007C232.664 7.18615 232.09 6.60349 231.612 6.11794C227.787 2.23352 222.092 3.44268 218.596 6.8854ZM140.345 93.8909C137.485 89.8211 138.771 85.4941 141.684 82.6252C145.18 79.1824 150.876 77.9733 154.701 81.8577C155.179 82.3432 155.753 82.9259 156.132 83.6998L185.439 132.884C189.243 139.467 187.264 146.198 182.894 150.501C178.233 155.092 171.087 156.964 165.143 152.871C163.321 151.604 139.266 133.975 137.351 132.418L126.334 123.756C125.185 122.784 124.415 122.585 124.027 122.968C123.362 123.622 125.356 126.234 132.854 136.054L133.366 136.725C133.869 137.441 136.33 140.89 139.364 145.141L139.365 145.142C144.956 152.978 152.491 163.537 153.294 164.731C157.104 170.542 155.124 177.466 150.462 182.057C145.995 186.456 139.04 188.523 132.998 184.717C130.216 183.058 85.1358 154.762 83.1276 152.723C79.2067 148.742 80.6003 142.97 84.0963 139.527C87.0096 136.658 91.3559 135.439 95.2842 138.456C97.2968 139.917 122.887 158.522 125.186 160.274L137.258 169.619C138.311 170.495 139.178 170.598 139.566 170.215C139.858 169.928 139.865 168.964 139.006 167.898C138.81 167.619 137.596 166.142 136.035 164.243L136.032 164.24L136.032 164.24C133.799 161.523 130.857 157.943 129.172 155.775C128.599 154.975 125.984 151.416 122.875 147.185L122.873 147.183C117.699 140.142 111.157 131.241 110.383 130.091C106.094 123.794 108.175 116.389 112.837 111.798C117.498 107.208 124.741 105.24 131.068 109.722C132.889 110.989 154.353 127.152 156.364 128.806C158.486 130.495 162.083 133.543 164.772 135.822L164.774 135.823C166.576 137.35 167.97 138.532 168.239 138.727C169.484 139.797 170.541 140.094 170.93 139.712C171.804 138.851 169.993 136.235 161.311 124.7L140.345 93.8909ZM63.4336 169.631C60.5736 165.561 61.8597 161.234 64.773 158.365C68.269 154.922 73.9644 153.713 77.7897 157.597C78.2678 158.083 78.8416 158.666 79.2212 159.44L108.528 208.624C112.332 215.207 110.353 221.938 105.983 226.241C101.322 230.831 94.1754 232.704 88.2314 228.611C86.41 227.344 62.3549 209.715 60.4393 208.158L49.4225 199.496C48.2735 198.524 47.504 198.325 47.1156 198.707C46.4507 199.362 48.4445 201.973 55.9421 211.793L56.4548 212.465C56.9579 213.18 59.4196 216.63 62.4537 220.882L62.4545 220.883C68.0455 228.719 75.5795 239.277 76.3825 240.47C80.1929 246.282 78.2123 253.206 73.551 257.796C69.0839 262.195 62.1289 264.262 56.0864 260.457C53.2086 258.7 8.12895 230.405 6.12071 228.366C2.19984 224.384 3.59342 218.612 7.08939 215.17C10.0027 212.301 14.349 211.081 18.2773 214.099C19.0122 214.642 22.6008 217.257 27.0615 220.507C35.3966 226.58 46.7769 234.872 48.2748 236.014L60.3465 245.359C61.3999 246.234 62.2665 246.337 62.655 245.955C62.9463 245.668 62.9537 244.704 62.0945 243.637C61.8983 243.358 60.6831 241.88 59.1212 239.98C56.8878 237.262 53.9456 233.683 52.2608 231.515C51.6881 230.715 49.0723 227.155 45.9625 222.924L45.9611 222.922L45.9607 222.921C40.7865 215.881 34.2455 206.981 33.4718 205.831C29.1832 199.534 31.264 192.129 35.9253 187.538C40.5866 182.948 47.8299 180.98 54.1563 185.462C55.9778 186.728 77.442 202.892 79.4532 204.546C81.575 206.235 85.1715 209.283 87.8606 211.562L87.8612 211.562C89.6638 213.09 91.0585 214.272 91.3277 214.467C92.5724 215.537 93.6302 215.834 94.0187 215.451C94.8927 214.591 93.0816 211.975 84.3999 200.439L63.4336 169.631Z" fill="#DDDDDD"/>
<path fill-rule="evenodd" clip-rule="evenodd" d="M256.538 214.267L256.163 249.92C256.163 258.364 263.098 262.68 270.407 262.68C277.717 262.68 284.839 258.551 284.839 250.295V249.92L284.089 202.82C298.521 194.751 315.39 183.868 327.385 171.108C331.508 166.604 333.757 161.35 333.757 156.096C333.757 146.151 325.885 137.144 310.142 137.144H215.304C206.682 137.144 202.371 143.524 202.371 149.904C202.371 156.284 206.682 162.664 214.929 162.664H215.491L297.584 161.35H297.771C298.521 161.35 299.083 161.726 299.083 162.476C299.083 166.041 263.098 191.186 203.308 203.383C196.186 204.697 193 209.951 193 215.393C193 222.336 198.623 230.029 207.244 230.029C213.429 230.029 239.482 221.022 256.538 214.267ZM242.106 127.386C258.224 129.075 275.843 131.514 290.274 135.267L290.275 135.267C291.774 135.455 293.273 135.643 294.398 135.83C302.457 135.83 307.518 129.263 307.518 122.695C307.518 117.066 304.144 111.624 296.085 110.123C276.405 106.37 248.291 103.18 243.98 103.18C235.358 103.18 230.11 109.56 230.11 115.94C230.11 121.194 233.859 126.636 242.106 127.386ZM300.77 217.457C311.828 221.585 322.137 226.464 330.946 231.343C333.195 232.656 335.444 233.219 337.506 233.031C344.815 233.031 350.438 226.089 350.438 219.146C350.438 214.83 348.002 210.326 342.754 207.699C334.32 203.571 311.266 193.813 305.268 193.813C297.584 193.813 292.523 200.193 292.523 206.386C292.523 210.701 295.147 215.205 300.77 217.457ZM451.461 251.233V235.283H492.133C503.753 235.283 512 228.152 512 214.829V138.832C512 125.134 503.191 118.379 491.758 118.379H451.649V115.001C451.649 108.433 444.714 105.243 437.966 105.243C431.032 105.243 424.284 108.246 424.284 115.001V118.379H383.988C371.805 118.379 364.308 126.635 364.308 138.457V215.017C364.308 227.027 371.055 235.283 383.988 235.283H424.284V251.233C424.284 257.988 431.219 261.554 437.966 261.554C444.714 261.554 451.461 257.988 451.461 251.233ZM392.984 142.397H424.284V164.727H390.36V145.212C390.36 143.336 391.11 142.397 392.984 142.397ZM390.36 187.433H424.284V211.264H392.984C391.11 211.264 390.36 210.326 390.36 208.449V187.433ZM482.761 142.397C485.76 142.397 485.948 143.711 485.948 145.963V164.727H451.649V142.397H482.761ZM451.649 187.433H485.948V208.449C485.948 210.514 484.448 211.264 483.136 211.264H451.649V187.433Z" fill="#DDDDDD"/>
<path fill-rule="evenodd" clip-rule="evenodd" d="M1169.15 220.639C1169.15 245.962 1147.07 262.68 1113.33 262.68C1079.6 262.68 1057.76 245.962 1057.76 220.639C1057.76 208.592 1064.07 196.053 1075.72 189.17C1067.22 183.269 1062.37 173.435 1062.37 162.863C1062.37 139.507 1083 123.035 1113.09 123.035C1143.18 123.035 1163.81 139.507 1163.81 162.863C1163.81 173.189 1159.2 183.269 1150.71 189.17C1163.08 196.053 1169.15 208.592 1169.15 220.639ZM1113.58 201.954C1092.7 201.954 1085.18 211.05 1085.18 220.393C1085.18 229.735 1092.95 238.832 1113.58 238.832C1134.2 238.832 1142.21 229.735 1142.21 220.393C1142.21 211.05 1134.2 201.954 1113.58 201.954ZM1113.58 147.129C1095.13 147.129 1089.06 154.996 1089.06 163.355C1089.06 171.714 1095.86 179.581 1113.58 179.581C1131.53 179.581 1138.09 171.714 1138.09 163.355C1138.09 154.996 1132.02 147.129 1113.58 147.129ZM864.333 262.68C898.067 262.68 920.152 245.961 920.152 220.639C920.152 208.592 914.084 196.053 902.193 189.415C910.687 183.515 915.298 173.435 915.298 163.109C915.298 139.753 894.669 123.281 864.576 123.281C834.482 123.281 813.854 139.753 813.854 163.109C813.854 173.435 818.465 183.269 826.959 189.169C815.31 196.053 809 208.592 809 220.639C809 245.961 830.842 262.68 864.333 262.68ZM836.181 220.393C836.181 211.05 843.705 201.954 864.576 201.954C885.204 201.954 893.213 211.05 893.213 220.393C893.213 229.735 885.204 238.832 864.576 238.832C843.947 238.832 836.181 229.735 836.181 220.393ZM840.064 163.355C840.064 154.996 846.131 147.128 864.576 147.128C883.02 147.128 889.087 154.996 889.087 163.355C889.087 171.714 882.535 179.581 864.576 179.581C846.859 179.581 840.064 171.714 840.064 163.355ZM988.832 262.68C1022.57 262.68 1044.65 245.961 1044.65 220.639C1044.65 208.592 1038.58 196.053 1026.69 189.415C1035.19 183.515 1039.8 173.435 1039.8 163.109C1039.8 139.753 1019.17 123.281 989.075 123.281C958.981 123.281 938.353 139.753 937.867 162.863C937.867 173.435 942.721 183.269 951.215 189.169C939.566 196.053 933.256 208.592 933.256 220.639C933.256 245.961 955.098 262.68 988.832 262.68ZM960.68 220.393C960.68 211.05 968.203 201.954 989.075 201.954C1009.7 201.954 1017.71 211.05 1017.71 220.393C1017.71 229.735 1009.7 238.832 989.075 238.832C968.446 238.832 960.68 229.735 960.68 220.393ZM964.563 163.355C964.563 154.996 970.63 147.128 989.075 147.128C1007.52 147.128 1013.59 154.996 1013.59 163.355C1013.59 171.714 1007.03 179.581 989.075 179.581C971.358 179.581 964.563 171.714 964.563 163.355ZM1239.53 262.68C1273.26 262.68 1295.35 245.962 1295.35 220.639C1295.35 208.592 1289.04 196.053 1276.9 189.17C1285.4 183.269 1290.01 173.189 1290.01 162.863C1290.01 139.507 1269.38 123.035 1239.29 123.035C1209.19 123.035 1188.57 139.507 1188.57 162.863C1188.57 173.435 1193.42 183.269 1201.91 189.17C1190.26 196.053 1183.95 208.592 1183.95 220.639C1183.95 245.962 1205.8 262.68 1239.53 262.68ZM1211.14 220.393C1211.14 211.05 1218.66 201.954 1239.53 201.954C1260.4 201.954 1268.17 211.05 1268.17 220.393C1268.17 229.735 1260.16 238.832 1239.53 238.832C1218.9 238.832 1211.14 229.735 1211.14 220.393ZM1215.02 163.355C1215.02 154.996 1221.09 147.129 1239.53 147.129C1257.97 147.129 1264.04 154.996 1264.04 163.355C1264.04 171.714 1257.49 179.581 1239.53 179.581C1221.81 179.581 1215.02 171.714 1215.02 163.355Z" fill="#DDDDDD"/>
<path d="M1104.4 110.299C1095.7 106.682 1093.24 98.4514 1096.48 90.668L1113.35 50.112C1117.35 40.485 1123.26 38.9778 1131.24 42.2972L1140.86 46.2974C1141.57 46.5953 1142.01 46.4157 1142.35 45.5964L1151.55 23.475C1154.62 16.1012 1160.06 14.2787 1167.12 17.2151L1200.27 31.0032C1207.02 33.8119 1209.97 39.1238 1206.9 46.4976L1197.7 68.6191C1197.36 69.4384 1197.44 69.8308 1198.26 70.1712L1207.97 74.214C1215.85 77.4908 1219.01 82.8879 1215.05 92.4124L1198.22 132.866C1194.56 141.674 1186.35 144.386 1178.57 141.152L1104.4 110.299ZM1194.94 89.6935C1195.32 88.7718 1194.99 88.3967 1194.18 88.0563L1180.98 82.5666C1175.15 80.1409 1173.4 75.6894 1175.7 70.159L1185.92 45.5796C1186.26 44.7603 1185.94 44.3853 1185.22 44.0874L1168.14 36.9806C1167.42 36.6827 1166.94 36.9647 1166.64 37.6816L1156.51 62.0561C1153.99 68.0986 1149.67 69.5445 1143.84 67.1188L1130.95 61.7568C1130.13 61.4164 1129.75 61.7409 1129.41 62.5602L1116.42 93.7965C1116.08 94.6158 1116.16 95.0082 1117.08 95.3912L1180.2 121.648C1181.02 121.989 1181.56 121.852 1181.9 121.032L1194.94 89.6935Z" fill="#DDDDDD"/>
<path d="M1344.45 97.3877C1333.85 97.3877 1328.66 88.6383 1328.66 79.8889C1328.66 70.6665 1334.08 61.6807 1344.45 61.6807H1489.64C1503.07 61.6807 1509.91 71.1395 1509.91 81.3077C1509.91 88.1654 1506.61 95.496 1499.77 100.225C1450.75 134.041 1396.54 169.275 1370.14 198.124C1364.72 203.799 1362.6 208.765 1362.6 212.785C1362.6 223.19 1372.5 226.501 1432.13 226.501C1442.74 226.501 1452.64 226.264 1460.41 226.028C1482.8 225.082 1486.34 219.407 1490.35 182.754C1491.29 174.241 1499.3 169.748 1507.55 169.748C1517.92 169.748 1529 176.132 1529 188.665C1529 189.611 1528.76 190.321 1528.76 191.267C1520.99 261.262 1504.02 262.681 1426 262.681C1401.26 262.681 1374.15 261.498 1353.88 257.478C1329.61 252.749 1319 237.378 1319 219.407C1319 207.583 1323.95 194.577 1332.67 183.463C1355.53 154.614 1386.41 135.223 1440.38 98.8065C1440.85 98.3336 1441.09 98.0971 1441.09 97.8607C1441.09 97.3877 1440.62 97.1513 1439.91 97.1513H1344.45V97.3877Z" fill="#DDDDDD"/>
</svg>
