<svg width="220" height="424" viewBox="0 0 220 424" fill="none" xmlns="http://www.w3.org/2000/svg">
<g opacity="0.3">
<mask id="mask0" mask-type="alpha" maskUnits="userSpaceOnUse" x="0" y="0" width="220" height="424">
<rect width="220" height="424" fill="#C4C4C4"/>
</mask>
<g mask="url(#mask0)">
<path d="M18.8406 310.231C12.737 304.128 12.737 291.921 18.8406 282.765L104.291 197.315C110.394 191.211 122.602 191.211 131.757 197.315C137.861 203.419 137.861 215.626 131.757 224.781L46.3067 310.231C37.1514 316.335 27.996 316.335 18.8406 310.231Z" fill="#FFD75F"/>
<path d="M-149.008 218.677C-161.215 206.47 -161.215 182.056 -149.008 169.849L9.6851 11.1554C21.8923 -1.05179 46.3066 -1.05179 58.5138 11.1554C70.721 23.3625 70.721 47.7769 58.5138 59.9841L-100.179 218.677C-115.438 230.884 -136.801 230.884 -149.008 218.677Z" fill="#FFD75F"/>
<path d="M-484.705 719.175C-496.912 706.967 -496.912 682.553 -484.705 670.346L79.8765 105.764C92.0837 93.5571 116.498 93.5571 128.705 105.764C140.912 117.971 140.912 142.386 128.705 154.593L-435.876 719.175C-448.084 734.434 -469.446 734.434 -484.705 719.175Z" fill="#FFB800"/>
<path d="M-97.1274 117.968C-106.283 111.864 -106.283 99.6573 -97.1274 93.5537L-17.7808 14.2071C-11.6772 8.1035 0.530022 8.1035 6.63361 14.2071C12.7372 20.3107 12.7372 32.5178 6.63361 38.6214L-72.713 117.968C-78.8166 124.072 -91.0238 124.072 -97.1274 117.968Z" fill="#FFB800"/>
<path d="M165.327 322.439C183.867 322.439 198.896 307.41 198.896 288.87C198.896 270.329 183.867 255.3 165.327 255.3C146.787 255.3 131.757 270.329 131.757 288.87C131.757 307.41 146.787 322.439 165.327 322.439Z" fill="#FFB800"/>
<path d="M171.43 99.6575C189.97 99.6575 205 84.6278 205 66.0878C205 47.5477 189.97 32.5181 171.43 32.5181C152.89 32.5181 137.861 47.5477 137.861 66.0878C137.861 84.6278 152.89 99.6575 171.43 99.6575Z" fill="#FFD75F"/>
<path d="M122.602 169.847C129.343 169.847 134.809 164.382 134.809 157.64C134.809 150.898 129.343 145.433 122.602 145.433C115.86 145.433 110.394 150.898 110.394 157.64C110.394 164.382 115.86 169.847 122.602 169.847Z" fill="#FFE8A4"/>
<path d="M-164.267 533.013C-176.474 520.806 -176.474 502.495 -164.267 490.288L-29.988 356.009C-17.7808 343.802 0.529953 343.802 12.7371 356.009C24.9443 368.216 24.9443 386.527 12.7371 398.734L-121.542 533.013C-133.749 545.22 -152.06 545.22 -164.267 533.013Z" fill="#CBB970"/>
<path d="M15.7887 264.456C9.68516 258.352 9.68516 249.197 15.7887 243.093L82.9282 175.954C89.0318 169.85 98.1871 169.85 104.291 175.954C110.394 182.057 110.394 191.213 104.291 197.316L37.1513 264.456C31.0477 270.559 21.8923 270.559 15.7887 264.456Z" fill="#FFE8A4"/>
<path d="M-5.57362 319.389C-11.6772 313.286 -11.6772 304.13 -5.57362 298.027L61.5658 230.887C67.6694 224.784 76.8248 224.784 82.9284 230.887C89.032 236.991 89.032 246.146 82.9284 252.25L15.789 319.389C9.68537 325.493 0.529968 325.493 -5.57362 319.389Z" fill="#FFE8A4"/>
<path d="M-48.2988 502.495C-60.506 490.288 -60.506 471.977 -48.2988 459.77L85.9801 325.491C98.1873 313.284 116.498 313.284 128.705 325.491C140.912 337.698 140.912 356.009 128.705 368.216L-5.5737 502.495C-17.7809 514.702 -36.0916 514.702 -48.2988 502.495Z" fill="#CBB970"/>
<path d="M-561 713.068L27.996 124.072" stroke="white" stroke-width="0.1107" stroke-miterlimit="10" stroke-linecap="round" stroke-linejoin="round"/>
<path d="M-29.988 481.131L98.1873 352.956" stroke="#FCD842" stroke-width="0.1107" stroke-miterlimit="10"/>
<path d="M-75.7649 313.282L89.0319 145.433" stroke="#FFD75F" stroke-width="0.1107" stroke-miterlimit="10" stroke-linecap="round" stroke-linejoin="round"/>
</g>
</g>
</svg>
