<svg width="130" height="90" viewBox="0 0 130 90" fill="none" xmlns="http://www.w3.org/2000/svg">
<g opacity="0.3">
<mask id="mask0" mask-type="alpha" maskUnits="userSpaceOnUse" x="0" y="0" width="130" height="90">
<rect width="130" height="90" fill="#C4C4C4"/>
</mask>
<g mask="url(#mask0)">
<path d="M58.765 37.2476C56.4622 34.9448 56.4622 30.3393 58.765 26.8851L91.004 -5.35396C93.3068 -7.65675 97.9124 -7.65675 101.367 -5.35396C103.669 -3.05117 103.669 1.5544 101.367 5.00859L69.1275 37.2476C65.6733 39.5504 62.2192 39.5504 58.765 37.2476Z" fill="#FFD75F"/>
<path d="M-32.1951 47.6094C-36.8007 43.0038 -36.8007 33.7926 -32.1951 29.187L27.6774 -30.6855C32.283 -35.291 41.4941 -35.291 46.0997 -30.6855C50.7053 -26.0799 50.7053 -16.8687 46.0997 -12.2632L-13.7728 47.6094C-18.3784 53.3663 -27.5895 53.3663 -32.1951 47.6094Z" fill="#FFD75F"/>
<path d="M-4.56196 2.70602C-9.16754 -1.89955 -9.16754 -11.1107 -4.56196 -15.7163L55.3105 -75.5888C59.9161 -80.1944 69.1273 -80.1944 73.7328 -75.5888C78.3384 -70.9832 78.3384 -61.7721 73.7328 -57.1665L13.8603 2.70602C8.10337 7.3116 0.0436163 7.3116 -4.56196 2.70602Z" fill="#FFD75F"/>
<path d="M-131.215 191.537C-135.821 186.931 -135.821 177.72 -131.215 173.114L81.7928 -39.8935C86.3984 -44.4991 95.6096 -44.4991 100.215 -39.8935C104.821 -35.2879 104.821 -26.0767 100.215 -21.4712L-112.793 191.537C-117.398 197.294 -125.458 197.294 -131.215 191.537Z" fill="#FFB800"/>
<path d="M114.032 41.8551C121.027 41.8551 126.697 36.1846 126.697 29.1897C126.697 22.1949 121.027 16.5244 114.032 16.5244C107.037 16.5244 101.366 22.1949 101.366 29.1897C101.366 36.1846 107.037 41.8551 114.032 41.8551Z" fill="#FFB800"/>
<path d="M-10.3188 121.299C-14.9243 116.694 -14.9243 109.786 -10.3188 105.18L40.3426 54.5186C44.9482 49.9131 51.8565 49.9131 56.4621 54.5186C61.0677 59.1242 61.0677 66.0326 56.4621 70.6382L5.80077 121.299C1.19519 125.905 -5.71317 125.905 -10.3188 121.299Z" fill="#CBB970"/>
<path d="M57.6134 19.9769C55.3106 17.6741 55.3106 14.2199 57.6134 11.9171L82.9441 -13.4135C85.2469 -15.7163 88.7011 -15.7163 91.0039 -13.4135C93.3067 -11.1107 93.3067 -7.65656 91.0039 -5.35377L65.6732 19.9769C63.3704 22.2797 59.9162 22.2797 57.6134 19.9769Z" fill="#FFE8A4"/>
<path d="M49.5538 40.7025C47.251 38.3997 47.251 34.9455 49.5538 32.6427L74.8845 7.31205C77.1873 5.00926 80.6415 5.00926 82.9442 7.31205C85.247 9.61484 85.247 13.069 82.9442 15.3718L57.6136 40.7025C55.3108 43.0053 51.8566 43.0053 49.5538 40.7025Z" fill="#FFE8A4"/>
<path d="M33.4343 109.786C28.8287 105.18 28.8287 98.2719 33.4343 93.6663L84.0957 43.005C88.7012 38.3994 95.6096 38.3994 100.215 43.005C104.821 47.6105 104.821 54.5189 100.215 59.1245L49.5538 109.786C44.9483 114.391 38.0399 114.391 33.4343 109.786Z" fill="#CBB970"/>
<path d="M-160 189.232L62.2191 -32.9873" stroke="white" stroke-width="0.0291845" stroke-miterlimit="10" stroke-linecap="round" stroke-linejoin="round"/>
<path d="M-111.642 173.112L12.709 47.6104" stroke="#FFD75F" stroke-width="0.0291845" stroke-miterlimit="10" stroke-linecap="round" stroke-linejoin="round"/>
<path d="M40.3426 101.726L88.7012 53.3672" stroke="#FCD842" stroke-width="0.0291845" stroke-miterlimit="10"/>
<path d="M23.0718 38.399L85.2471 -24.9277" stroke="#FFD75F" stroke-width="0.0291845" stroke-miterlimit="10" stroke-linecap="round" stroke-linejoin="round"/>
</g>
</g>
</svg>
