<svg width="130" height="90" viewBox="0 0 130 90" fill="none" xmlns="http://www.w3.org/2000/svg">
<g opacity="0.3">
<mask id="mask0" mask-type="alpha" maskUnits="userSpaceOnUse" x="0" y="0" width="130" height="90">
<rect x="130" y="90" width="130" height="90" transform="rotate(-180 130 90)" fill="#C4C4C4"/>
</mask>
<g mask="url(#mask0)">
<path d="M71.2351 42.7524C73.5379 45.0552 73.5379 49.6607 71.2351 53.1149L38.996 85.354C36.6932 87.6567 32.0877 87.6567 28.6335 85.354C26.3307 83.0512 26.3307 78.4456 28.6335 74.9914L60.8725 42.7524C64.3267 40.4496 67.7809 40.4496 71.2351 42.7524Z" fill="#FFD75F"/>
<path d="M162.195 32.3906C166.801 36.9962 166.801 46.2074 162.195 50.813L102.323 110.685C97.717 115.291 88.5059 115.291 83.9003 110.685C79.2947 106.08 79.2947 96.8687 83.9003 92.2631L143.773 32.3906C148.378 26.6337 157.59 26.6337 162.195 32.3906Z" fill="#FFD75F"/>
<path d="M134.562 77.294C139.168 81.8996 139.168 91.1107 134.562 95.7163L74.6894 155.589C70.0839 160.194 60.8727 160.194 56.2671 155.589C51.6616 150.983 51.6616 141.772 56.2671 137.166L116.14 77.294C121.897 72.6884 129.956 72.6884 134.562 77.294Z" fill="#FFD75F"/>
<path d="M261.215 -111.537C265.821 -106.931 265.821 -97.72 261.215 -93.1144L48.2072 119.893C43.6016 124.499 34.3905 124.499 29.7849 119.893C25.1793 115.288 25.1793 106.077 29.7849 101.471L242.793 -111.537C247.398 -117.294 255.458 -117.294 261.215 -111.537Z" fill="#FFB800"/>
<path d="M15.9682 38.1449C8.97333 38.1449 3.30286 43.8154 3.30286 50.8103C3.30286 57.8051 8.97333 63.4756 15.9682 63.4756C22.9631 63.4756 28.6335 57.8051 28.6335 50.8103C28.6335 43.8154 22.9631 38.1449 15.9682 38.1449Z" fill="#FFB800"/>
<path d="M140.319 -41.2995C144.924 -36.6939 144.924 -29.7856 140.319 -25.18L89.6574 25.4814C85.0518 30.0869 78.1435 30.0869 73.5379 25.4814C68.9323 20.8758 68.9323 13.9674 73.5379 9.36184L124.199 -41.2995C128.805 -45.9051 135.713 -45.9051 140.319 -41.2995Z" fill="#CBB970"/>
<path d="M72.3866 60.0231C74.6893 62.3259 74.6893 65.7801 72.3866 68.0829L47.0559 93.4135C44.7531 95.7163 41.2989 95.7163 38.9961 93.4135C36.6933 91.1107 36.6933 87.6566 38.9961 85.3538L64.3268 60.0231C66.6296 57.7203 70.0838 57.7203 72.3866 60.0231Z" fill="#FFE8A4"/>
<path d="M80.4463 39.2975C82.749 41.6003 82.749 45.0545 80.4463 47.3573L55.1156 72.6879C52.8128 74.9907 49.3586 74.9907 47.0558 72.6879C44.753 70.3852 44.753 66.931 47.0558 64.6282L72.3865 39.2975C74.6893 36.9947 78.1435 36.9947 80.4463 39.2975Z" fill="#FFE8A4"/>
<path d="M96.5657 -29.7858C101.171 -25.1803 101.171 -18.2719 96.5657 -13.6663L45.9044 36.995C41.2988 41.6006 34.3904 41.6006 29.7848 36.995C25.1793 32.3895 25.1793 25.4811 29.7848 20.8755L80.4462 -29.7858C85.0518 -34.3914 91.9601 -34.3914 96.5657 -29.7858Z" fill="#CBB970"/>
<path d="M290 -109.232L67.7809 112.987" stroke="white" stroke-width="0.0291845" stroke-miterlimit="10" stroke-linecap="round" stroke-linejoin="round"/>
<path d="M241.642 -93.1123L117.291 32.3896" stroke="#FFD75F" stroke-width="0.0291845" stroke-miterlimit="10" stroke-linecap="round" stroke-linejoin="round"/>
<path d="M89.6575 -21.7257L41.2989 26.6328" stroke="#FCD842" stroke-width="0.0291845" stroke-miterlimit="10"/>
<path d="M106.928 41.601L44.7529 104.928" stroke="#FFD75F" stroke-width="0.0291845" stroke-miterlimit="10" stroke-linecap="round" stroke-linejoin="round"/>
</g>
</g>
</svg>
