<svg width="220" height="424" viewBox="0 0 220 424" fill="none" xmlns="http://www.w3.org/2000/svg">
<g opacity="0.3">
<mask id="mask0" mask-type="alpha" maskUnits="userSpaceOnUse" x="0" y="0" width="220" height="424">
<rect x="220" y="424" width="220" height="424" transform="rotate(-180 220 424)" fill="#C4C4C4"/>
</mask>
<g mask="url(#mask0)">
<path d="M201.159 113.769C207.263 119.872 207.263 132.079 201.159 141.235L115.709 226.685C109.606 232.789 97.3985 232.789 88.2431 226.685C82.1395 220.581 82.1395 208.374 88.2431 199.219L173.693 113.769C182.849 107.665 192.004 107.665 201.159 113.769Z" fill="#FFD75F"/>
<path d="M369.008 205.323C381.215 217.53 381.215 241.944 369.008 254.151L210.315 412.845C198.108 425.052 173.693 425.052 161.486 412.845C149.279 400.637 149.279 376.223 161.486 364.016L320.18 205.323C335.439 193.116 356.801 193.116 369.008 205.323Z" fill="#FFD75F"/>
<path d="M704.705 -295.175C716.912 -282.967 716.912 -258.553 704.705 -246.346L140.123 318.236C127.916 330.443 103.502 330.443 91.2946 318.236C79.0875 306.029 79.0875 281.614 91.2946 269.407L655.876 -295.175C668.084 -310.434 689.446 -310.434 704.705 -295.175Z" fill="#FFB800"/>
<path d="M317.127 306.032C326.283 312.136 326.283 324.343 317.127 330.446L237.781 409.793C231.677 415.896 219.47 415.896 213.366 409.793C207.263 403.689 207.263 391.482 213.366 385.379L292.713 306.032C298.817 299.928 311.024 299.928 317.127 306.032Z" fill="#FFB800"/>
<path d="M54.6734 101.56C36.1334 101.56 21.1037 116.59 21.1037 135.13C21.1037 153.67 36.1334 168.7 54.6734 168.7C73.2135 168.7 88.2432 153.67 88.2432 135.13C88.2432 116.59 73.2135 101.56 54.6734 101.56Z" fill="#FFB800"/>
<path d="M48.5697 324.342C30.0296 324.342 15 339.372 14.9999 357.912C14.9999 376.452 30.0296 391.482 48.5697 391.482C67.1097 391.482 82.1394 376.452 82.1394 357.912C82.1394 339.372 67.1097 324.342 48.5697 324.342Z" fill="#FFD75F"/>
<path d="M97.3986 254.153C90.6567 254.153 85.1914 259.618 85.1914 266.36C85.1914 273.102 90.6567 278.567 97.3986 278.567C104.14 278.567 109.606 273.102 109.606 266.36C109.606 259.618 104.14 254.153 97.3986 254.153Z" fill="#FFE8A4"/>
<path d="M384.267 -109.013C396.474 -96.8062 396.474 -78.4954 384.267 -66.2883L249.988 67.9906C237.781 80.1978 219.47 80.1978 207.263 67.9906C195.056 55.7834 195.056 37.4727 207.263 25.2655L341.542 -109.013C353.749 -121.221 372.06 -121.221 384.267 -109.013Z" fill="#CBB970"/>
<path d="M204.211 159.544C210.315 165.648 210.315 174.803 204.211 180.907L137.072 248.046C130.968 254.15 121.813 254.15 115.709 248.046C109.606 241.943 109.606 232.787 115.709 226.684L182.849 159.544C188.952 153.441 198.108 153.441 204.211 159.544Z" fill="#FFE8A4"/>
<path d="M225.574 104.611C231.677 110.714 231.677 119.87 225.574 125.973L158.434 193.113C152.331 199.216 143.175 199.216 137.072 193.113C130.968 187.009 130.968 177.854 137.072 171.75L204.211 104.611C210.315 98.5072 219.47 98.5072 225.574 104.611Z" fill="#FFE8A4"/>
<path d="M268.299 -78.4953C280.506 -66.2881 280.506 -47.9774 268.299 -35.7702L134.02 98.5087C121.813 110.716 103.502 110.716 91.2947 98.5087C79.0875 86.3015 79.0875 67.9908 91.2947 55.7836L225.574 -78.4953C237.781 -90.7025 256.092 -90.7025 268.299 -78.4953Z" fill="#CBB970"/>
<path d="M781 -289.068L192.004 299.928" stroke="white" stroke-width="0.1107" stroke-miterlimit="10" stroke-linecap="round" stroke-linejoin="round"/>
<path d="M249.988 -57.1314L121.813 71.0439" stroke="#FCD842" stroke-width="0.1107" stroke-miterlimit="10"/>
<path d="M295.765 110.718L130.968 278.567" stroke="#FFD75F" stroke-width="0.1107" stroke-miterlimit="10" stroke-linecap="round" stroke-linejoin="round"/>
</g>
</g>
</svg>
