<svg width="47" height="71" viewBox="0 0 47 71" fill="none" xmlns="http://www.w3.org/2000/svg">
<path d="M17.1361 13.8118L20.9148 12.4839L10.289 2.10282L6.3843 13.2922L2.07419 14.9956L7.86724 20.8804L9.50158 16.6197L12.4489 15.5869" fill="#FCD842"/>
<path d="M17.1361 13.8118L20.9148 12.4839L10.289 2.10282L6.3843 13.2922L2.07419 14.9956L7.86724 20.8804L9.50158 16.6197L12.4489 15.5869" stroke="#5C4500" stroke-width="3.16497" stroke-linecap="round" stroke-linejoin="round"/>
<path d="M38.292 39.8549C39.4402 38.0995 39.2741 35.959 37.921 35.0739C36.5679 34.1888 34.5402 34.8944 33.392 36.6497C32.2438 38.4051 32.4099 40.5456 33.763 41.4307C35.1161 42.3158 37.1438 41.6103 38.292 39.8549Z" fill="white"/>
<path d="M39.4728 26.9181C36.511 24.508 31.1745 26.5956 31.1745 26.5956L36.443 34.2965C36.443 34.2965 31.8756 36.5091 32.5219 40.1464C33.0512 42.9509 38.3848 43.0359 39.1066 37.7406" stroke="#5C4500" stroke-width="3.16497" stroke-miterlimit="10" stroke-linecap="round" stroke-linejoin="round"/>
<path d="M19.5469 64.4604L16.3835 65.4817L14.4194 62.8127C11.6918 59.0167 10.2554 56.2901 11.273 53.5451C12.1532 51.171 14.7697 50.0314 17.1438 50.9115C18.6276 51.4616 19.6605 52.7728 19.9623 54.2348C21.0976 53.2212 22.6147 52.7709 24.1535 53.1726C26.5359 53.8027 27.9806 56.2792 27.4247 58.6891C26.913 60.5247 25.621 61.7334 23.5321 62.8155" fill="#EE4949"/>
<path d="M19.5469 64.4604L16.3835 65.4817L14.4194 62.8127C11.6918 59.0167 10.2554 56.2901 11.273 53.5451C12.1532 51.171 14.7697 50.0314 17.1438 50.9115C18.6276 51.4616 19.6605 52.7728 19.9623 54.2348C21.0976 53.2212 22.6147 52.7709 24.1535 53.1726C26.5359 53.8027 27.9806 56.2792 27.4247 58.6891C26.913 60.5247 25.621 61.7334 23.5321 62.8155" stroke="#5C4500" stroke-width="3.16497" stroke-linecap="round" stroke-linejoin="round"/>
</svg>
