<svg width="39" height="50" viewBox="0 0 39 50" fill="none" xmlns="http://www.w3.org/2000/svg">
<path d="M21.4005 13.4566C23.9639 13.6586 26.2058 11.7444 26.4079 9.18094C26.61 6.6175 24.6957 4.3756 22.1323 4.17352C19.5688 3.97144 17.3269 5.8857 17.1248 8.44914C16.9227 11.0126 18.837 13.2545 21.4005 13.4566Z" fill="white"/>
<path d="M33.5459 23.387L5.75342 17.1914L0.65896 40.0445L28.4514 46.24L33.5459 23.387Z" fill="white"/>
<path d="M15.1204 33.8762L11.8246 36.1885C11.3945 36.493 11.5432 37.1816 12.0761 37.2913L17.7303 38.5493C18.2631 38.6589 18.6472 38.08 18.4099 37.6552L16.3826 34.1788C16.0834 33.6814 15.5505 33.5717 15.1204 33.8762Z" fill="#252525"/>
<path d="M22.2647 29.9732C21.9515 31.3699 22.8545 32.7948 24.2512 33.108C25.648 33.4212 27.0729 32.5182 27.386 31.1215C27.6992 29.7247 26.7962 28.2998 25.3995 27.9867C24.0028 27.6735 22.5779 28.5765 22.2647 29.9732Z" fill="#252525"/>
<path d="M5.57678 28.7243C5.26362 30.1211 6.16658 31.546 7.5633 31.8591C8.96003 32.1723 10.3849 31.2693 10.6981 29.8726C11.0112 28.4759 10.1083 27.051 8.71156 26.7378C7.32014 26.3574 5.89525 27.2604 5.57678 28.7243Z" fill="#252525"/>
<path d="M0.492176 40.8466C0.163102 42.4452 1.2006 43.8807 2.79383 44.277L21.0186 48.3535C27.6039 49.8202 34.1814 44.5177 35.9772 36.3339C37.773 28.15 34.1078 20.5509 27.5225 19.0842L22.2666 17.9253L22.5957 16.3268C25.6705 15.96 28.2831 13.7292 29.0085 10.5375C29.9374 6.48183 27.3418 2.48677 23.3481 1.63045C19.2925 0.701558 15.2974 3.29714 14.4411 7.29081C13.7157 10.4826 15.1588 13.6422 17.8054 15.2723L17.4816 16.8035L9.29775 15.0077C7.69922 14.6787 6.0725 15.5657 5.73812 17.2315C5.40375 18.8973 6.44124 20.3328 8.03977 20.6619L26.5336 24.7596C29.7926 25.4903 31.5846 30.2342 30.5248 35.0918C29.465 39.9494 25.7214 43.6477 22.5297 42.9223L4.03589 38.8247C2.3754 38.423 0.826554 39.1808 0.492176 40.8466ZM24.5545 9.50949C24.2308 11.0408 22.7333 12.0057 21.2073 11.6146C19.676 11.2909 18.7111 9.79339 19.1021 8.26743C19.4259 6.73617 20.9234 5.77124 22.4494 6.16228C23.9134 6.48075 24.8783 7.97823 24.5545 9.50949Z" fill="#252525"/>
</svg>
