<svg width="890" height="195" viewBox="0 0 890 195" fill="none" xmlns="http://www.w3.org/2000/svg">
<path d="M44.5834 16.1667C46.5624 16.1667 48.1667 14.5624 48.1667 12.5834C48.1667 10.6043 46.5624 9 44.5834 9C42.6044 9 41 10.6043 41 12.5834C41 14.5624 42.6044 16.1667 44.5834 16.1667Z" fill="#CC9900"/>
<path d="M58.9168 16.1667C60.8958 16.1667 62.5002 14.5624 62.5002 12.5834C62.5002 10.6043 60.8958 9 58.9168 9C56.9378 9 55.3334 10.6043 55.3334 12.5834C55.3334 14.5624 56.9378 16.1667 58.9168 16.1667Z" fill="#CC9900"/>
<path d="M73.3739 16.1667C75.3529 16.1667 76.9572 14.5624 76.9572 12.5834C76.9572 10.6043 75.3529 9 73.3739 9C71.3949 9 69.7905 10.6043 69.7905 12.5834C69.7905 14.5624 71.3949 16.1667 73.3739 16.1667Z" fill="#CC9900"/>
<path d="M87.7072 16.1667C89.6862 16.1667 91.2906 14.5624 91.2906 12.5834C91.2906 10.6043 89.6862 9 87.7072 9C85.7282 9 84.1239 10.6043 84.1239 12.5834C84.1239 14.5624 85.7282 16.1667 87.7072 16.1667Z" fill="#CC9900"/>
<path d="M102.041 16.1667C104.02 16.1667 105.624 14.5624 105.624 12.5834C105.624 10.6043 104.02 9 102.041 9C100.062 9 98.4573 10.6043 98.4573 12.5834C98.4573 14.5624 100.062 16.1667 102.041 16.1667Z" fill="#CC9900"/>
<path d="M116.498 16.1667C118.477 16.1667 120.081 14.5624 120.081 12.5834C120.081 10.6043 118.477 9 116.498 9C114.518 9 112.914 10.6043 112.914 12.5834C112.914 14.5624 114.518 16.1667 116.498 16.1667Z" fill="#CC9900"/>
<path d="M44.5834 29.2639C46.5624 29.2639 48.1667 27.6596 48.1667 25.6805C48.1667 23.7015 46.5624 22.0972 44.5834 22.0972C42.6044 22.0972 41 23.7015 41 25.6805C41 27.6596 42.6044 29.2639 44.5834 29.2639Z" fill="#CC9900"/>
<path d="M58.9168 29.2639C60.8958 29.2639 62.5002 27.6596 62.5002 25.6805C62.5002 23.7015 60.8958 22.0972 58.9168 22.0972C56.9378 22.0972 55.3334 23.7015 55.3334 25.6805C55.3334 27.6596 56.9378 29.2639 58.9168 29.2639Z" fill="#CC9900"/>
<path d="M73.3739 29.2639C75.3529 29.2639 76.9572 27.6596 76.9572 25.6805C76.9572 23.7015 75.3529 22.0972 73.3739 22.0972C71.3949 22.0972 69.7905 23.7015 69.7905 25.6805C69.7905 27.6596 71.3949 29.2639 73.3739 29.2639Z" fill="#CC9900"/>
<path d="M87.7072 29.2639C89.6862 29.2639 91.2906 27.6596 91.2906 25.6805C91.2906 23.7015 89.6862 22.0972 87.7072 22.0972C85.7282 22.0972 84.1239 23.7015 84.1239 25.6805C84.1239 27.6596 85.7282 29.2639 87.7072 29.2639Z" fill="#CC9900"/>
<path d="M102.041 29.2639C104.02 29.2639 105.624 27.6596 105.624 25.6805C105.624 23.7015 104.02 22.0972 102.041 22.0972C100.062 22.0972 98.4573 23.7015 98.4573 25.6805C98.4573 27.6596 100.062 29.2639 102.041 29.2639Z" fill="#CC9900"/>
<path d="M116.498 29.2639C118.477 29.2639 120.081 27.6596 120.081 25.6805C120.081 23.7015 118.477 22.0972 116.498 22.0972C114.518 22.0972 112.914 23.7015 112.914 25.6805C112.914 27.6596 114.518 29.2639 116.498 29.2639Z" fill="#CC9900"/>
<path d="M44.5834 42.238C46.5624 42.238 48.1667 40.6337 48.1667 38.6546C48.1667 36.6756 46.5624 35.0713 44.5834 35.0713C42.6044 35.0713 41 36.6756 41 38.6546C41 40.6337 42.6044 42.238 44.5834 42.238Z" fill="#CC9900"/>
<path d="M58.9168 42.238C60.8958 42.238 62.5002 40.6337 62.5002 38.6546C62.5002 36.6756 60.8958 35.0713 58.9168 35.0713C56.9378 35.0713 55.3334 36.6756 55.3334 38.6546C55.3334 40.6337 56.9378 42.238 58.9168 42.238Z" fill="#CC9900"/>
<path d="M73.3739 42.238C75.3529 42.238 76.9572 40.6337 76.9572 38.6546C76.9572 36.6756 75.3529 35.0713 73.3739 35.0713C71.3949 35.0713 69.7905 36.6756 69.7905 38.6546C69.7905 40.6337 71.3949 42.238 73.3739 42.238Z" fill="#CC9900"/>
<path d="M87.7072 42.238C89.6862 42.238 91.2906 40.6337 91.2906 38.6546C91.2906 36.6756 89.6862 35.0713 87.7072 35.0713C85.7282 35.0713 84.1239 36.6756 84.1239 38.6546C84.1239 40.6337 85.7282 42.238 87.7072 42.238Z" fill="#CC9900"/>
<path d="M102.041 42.238C104.02 42.238 105.624 40.6337 105.624 38.6546C105.624 36.6756 104.02 35.0713 102.041 35.0713C100.062 35.0713 98.4573 36.6756 98.4573 38.6546C98.4573 40.6337 100.062 42.238 102.041 42.238Z" fill="#CC9900"/>
<path d="M116.498 42.238C118.477 42.238 120.081 40.6337 120.081 38.6546C120.081 36.6756 118.477 35.0713 116.498 35.0713C114.518 35.0713 112.914 36.6756 112.914 38.6546C112.914 40.6337 114.518 42.238 116.498 42.238Z" fill="#CC9900"/>
<path d="M723.583 14.1667C725.562 14.1667 727.167 12.5624 727.167 10.5834C727.167 8.60432 725.562 7 723.583 7C721.604 7 720 8.60432 720 10.5834C720 12.5624 721.604 14.1667 723.583 14.1667Z" fill="#CC9900"/>
<path d="M737.917 14.1667C739.896 14.1667 741.5 12.5624 741.5 10.5834C741.5 8.60432 739.896 7 737.917 7C735.938 7 734.333 8.60432 734.333 10.5834C734.333 12.5624 735.938 14.1667 737.917 14.1667Z" fill="#CC9900"/>
<path d="M752.374 14.1667C754.353 14.1667 755.957 12.5624 755.957 10.5834C755.957 8.60432 754.353 7 752.374 7C750.395 7 748.791 8.60432 748.791 10.5834C748.791 12.5624 750.395 14.1667 752.374 14.1667Z" fill="#CC9900"/>
<path d="M766.707 14.1667C768.686 14.1667 770.29 12.5624 770.29 10.5834C770.29 8.60432 768.686 7 766.707 7C764.728 7 763.124 8.60432 763.124 10.5834C763.124 12.5624 764.728 14.1667 766.707 14.1667Z" fill="#CC9900"/>
<path d="M781.041 14.1667C783.02 14.1667 784.624 12.5624 784.624 10.5834C784.624 8.60432 783.02 7 781.041 7C779.062 7 777.457 8.60432 777.457 10.5834C777.457 12.5624 779.062 14.1667 781.041 14.1667Z" fill="#CC9900"/>
<path d="M795.497 14.1667C797.477 14.1667 799.081 12.5624 799.081 10.5834C799.081 8.60432 797.477 7 795.497 7C793.518 7 791.914 8.60432 791.914 10.5834C791.914 12.5624 793.518 14.1667 795.497 14.1667Z" fill="#CC9900"/>
<path d="M723.583 27.2639C725.562 27.2639 727.167 25.6596 727.167 23.6805C727.167 21.7015 725.562 20.0972 723.583 20.0972C721.604 20.0972 720 21.7015 720 23.6805C720 25.6596 721.604 27.2639 723.583 27.2639Z" fill="#CC9900"/>
<path d="M737.917 27.2639C739.896 27.2639 741.5 25.6596 741.5 23.6805C741.5 21.7015 739.896 20.0972 737.917 20.0972C735.938 20.0972 734.333 21.7015 734.333 23.6805C734.333 25.6596 735.938 27.2639 737.917 27.2639Z" fill="#CC9900"/>
<path d="M752.374 27.2639C754.353 27.2639 755.957 25.6596 755.957 23.6805C755.957 21.7015 754.353 20.0972 752.374 20.0972C750.395 20.0972 748.791 21.7015 748.791 23.6805C748.791 25.6596 750.395 27.2639 752.374 27.2639Z" fill="#CC9900"/>
<path d="M766.707 27.2639C768.686 27.2639 770.29 25.6596 770.29 23.6805C770.29 21.7015 768.686 20.0972 766.707 20.0972C764.728 20.0972 763.124 21.7015 763.124 23.6805C763.124 25.6596 764.728 27.2639 766.707 27.2639Z" fill="#CC9900"/>
<path d="M781.041 27.2639C783.02 27.2639 784.624 25.6596 784.624 23.6805C784.624 21.7015 783.02 20.0972 781.041 20.0972C779.062 20.0972 777.457 21.7015 777.457 23.6805C777.457 25.6596 779.062 27.2639 781.041 27.2639Z" fill="#CC9900"/>
<path d="M795.497 27.2639C797.477 27.2639 799.081 25.6596 799.081 23.6805C799.081 21.7015 797.477 20.0972 795.497 20.0972C793.518 20.0972 791.914 21.7015 791.914 23.6805C791.914 25.6596 793.518 27.2639 795.497 27.2639Z" fill="#CC9900"/>
<path d="M723.583 40.238C725.562 40.238 727.167 38.6337 727.167 36.6546C727.167 34.6756 725.562 33.0713 723.583 33.0713C721.604 33.0713 720 34.6756 720 36.6546C720 38.6337 721.604 40.238 723.583 40.238Z" fill="#CC9900"/>
<path d="M737.917 40.238C739.896 40.238 741.5 38.6337 741.5 36.6546C741.5 34.6756 739.896 33.0713 737.917 33.0713C735.938 33.0713 734.333 34.6756 734.333 36.6546C734.333 38.6337 735.938 40.238 737.917 40.238Z" fill="#CC9900"/>
<path d="M752.374 40.238C754.353 40.238 755.957 38.6337 755.957 36.6546C755.957 34.6756 754.353 33.0713 752.374 33.0713C750.395 33.0713 748.791 34.6756 748.791 36.6546C748.791 38.6337 750.395 40.238 752.374 40.238Z" fill="#CC9900"/>
<path d="M766.707 40.238C768.686 40.238 770.29 38.6337 770.29 36.6546C770.29 34.6756 768.686 33.0713 766.707 33.0713C764.728 33.0713 763.124 34.6756 763.124 36.6546C763.124 38.6337 764.728 40.238 766.707 40.238Z" fill="#CC9900"/>
<path d="M781.041 40.238C783.02 40.238 784.624 38.6337 784.624 36.6546C784.624 34.6756 783.02 33.0713 781.041 33.0713C779.062 33.0713 777.457 34.6756 777.457 36.6546C777.457 38.6337 779.062 40.238 781.041 40.238Z" fill="#CC9900"/>
<path d="M795.497 40.238C797.477 40.238 799.081 38.6337 799.081 36.6546C799.081 34.6756 797.477 33.0713 795.497 33.0713C793.518 33.0713 791.914 34.6756 791.914 36.6546C791.914 38.6337 793.518 40.238 795.497 40.238Z" fill="#CC9900"/>
<path d="M663 158C669.9 158 669.9 166 676.8 166C683.7 166 683.7 158 690.6 158C697.5 158 697.5 166 704.4 166C711.3 166 711.3 158 718.2 158C725.1 158 725.1 166 732 166" stroke="#CC9900" stroke-width="5.5" stroke-miterlimit="10" stroke-linecap="round" stroke-linejoin="round"/>
<path d="M663 175.1C669.9 175.1 669.9 183.1 676.8 183.1C683.7 183.1 683.7 175.1 690.6 175.1C697.5 175.1 697.5 183.1 704.4 183.1C711.3 183.1 711.3 175.1 718.2 175.1C725.1 175.1 725.1 183.1 732 183.1" stroke="#CC9900" stroke-width="5.5" stroke-miterlimit="10" stroke-linecap="round" stroke-linejoin="round"/>
<path d="M103 161C109.9 161 109.9 169 116.8 169C123.7 169 123.7 161 130.6 161C137.5 161 137.5 169 144.4 169C151.3 169 151.3 161 158.2 161C165.1 161 165.1 169 172 169" stroke="#CC9900" stroke-width="5.5" stroke-miterlimit="10" stroke-linecap="round" stroke-linejoin="round"/>
<path d="M103 178.1C109.9 178.1 109.9 186.1 116.8 186.1C123.7 186.1 123.7 178.1 130.6 178.1C137.5 178.1 137.5 186.1 144.4 186.1C151.3 186.1 151.3 178.1 158.2 178.1C165.1 178.1 165.1 186.1 172 186.1" stroke="#CC9900" stroke-width="5.5" stroke-miterlimit="10" stroke-linecap="round" stroke-linejoin="round"/>
<path d="M610.59 109.866C615.481 109.866 619.445 105.902 619.445 101.012C619.445 96.1215 615.481 92.1572 610.59 92.1572C605.7 92.1572 601.736 96.1215 601.736 101.012C601.736 105.902 605.7 109.866 610.59 109.866Z" fill="white"/>
<path d="M635.1 126.877L581.483 119.285L575.24 163.373L628.857 170.966L635.1 126.877Z" fill="white"/>
<path d="M601.736 149.518L595.833 154.395C595.063 155.036 595.448 156.319 596.474 156.448L607.382 157.988C608.409 158.116 609.05 156.961 608.537 156.191L604.174 149.903C603.532 149.005 602.506 148.877 601.736 149.518Z" fill="#252525"/>
<path d="M614.697 141.049C614.312 143.744 616.237 146.311 618.932 146.696C621.626 147.081 624.193 145.156 624.578 142.461C624.963 139.766 623.038 137.2 620.343 136.815C617.648 136.43 615.082 138.355 614.697 141.049Z" fill="#252525"/>
<path d="M582.872 141.177C582.487 143.872 584.412 146.438 587.107 146.823C589.802 147.208 592.368 145.284 592.753 142.589C593.138 139.894 591.213 137.327 588.518 136.942C585.824 136.429 583.257 138.354 582.872 141.177Z" fill="#252525"/>
<path d="M575.044 164.918C574.659 167.998 576.841 170.565 579.92 171.078L615.082 176.083C627.786 177.879 639.464 166.843 641.645 151.059C643.827 135.275 635.742 121.416 623.038 119.619L612.9 118.208L613.285 115.128C619.06 113.973 623.68 109.353 624.578 103.194C625.733 95.3658 620.215 88.1796 612.515 87.153C604.687 85.998 597.501 91.516 596.474 99.2156C595.576 105.375 598.784 111.15 604.046 113.845L603.661 116.796L587.877 114.615C584.797 114.23 581.845 116.155 581.46 119.363C581.075 122.571 583.257 125.137 586.337 125.522L622.011 130.527C628.299 131.425 632.406 140.152 631.122 149.519C629.839 158.887 623.295 166.458 617.135 165.56L581.46 160.555C578.252 160.042 575.429 161.71 575.044 164.918ZM615.98 101.91C615.595 104.862 612.9 106.915 609.949 106.402C606.997 106.017 604.944 103.322 605.457 100.371C605.842 97.419 608.537 95.3658 611.489 95.8791C614.312 96.2641 616.365 98.959 615.98 101.91Z" fill="#252525"/>
<path d="M237.803 81.2628C236.522 81.3791 234.777 79.1679 234.078 78.1205L240.479 77.1895C240.014 78.4696 239.083 81.1464 237.803 81.2628Z" fill="white"/>
<path d="M274.928 76.0255C273.648 76.1418 271.902 73.9306 271.204 72.8832L277.605 71.9521C277.139 73.2323 276.208 75.9091 274.928 76.0255Z" fill="white"/>
<path d="M290.174 64.5042C290.407 65.9008 289.359 67.1809 288.079 67.2973L222.906 76.4914C221.509 76.7241 220.229 75.6767 220.113 74.3965L213.828 30.8703C213.596 29.3573 214.759 28.1935 215.923 28.0771L281.213 18.8831C282.376 18.7667 283.773 19.465 284.006 20.9779L290.174 64.5042Z" fill="white"/>
<path d="M233.613 53.7965C235.941 53.4474 237.453 51.3525 237.221 49.0249C236.872 46.6973 234.777 45.1844 232.449 45.4171C230.121 45.7663 228.609 47.8611 228.841 50.1887C229.19 52.5163 231.285 54.1456 233.613 53.7965Z" fill="#252525"/>
<path d="M280.863 13.879L256.54 17.2541L265.967 4.80136C267.014 3.4048 266.665 1.54271 265.385 0.49529C263.755 -0.435754 261.893 0.0297679 260.962 1.19357L247.928 18.5343L230.587 5.49965C229.19 4.45222 227.328 4.68498 226.281 6.08155C225.35 7.47811 225.583 9.3402 226.863 10.3876L239.316 19.6981L214.876 23.1895C211.035 23.7714 208.591 27.1464 209.057 30.8706L215.458 75.677C215.923 79.4012 219.415 81.9616 223.139 81.4961L229.772 80.565C229.772 80.565 233.729 86.7332 238.501 86.1513C243.156 85.453 245.367 78.4702 245.367 78.4702L266.898 75.4443C266.898 75.4443 270.855 81.6124 275.626 81.0305C280.398 80.3323 282.493 73.3494 282.493 73.3494L289.126 72.4184C292.851 71.9529 295.411 68.4614 294.945 64.7373L288.661 19.8144C287.963 15.9739 284.471 13.4135 280.863 13.879ZM237.803 81.2633C236.522 81.3797 234.777 79.1684 234.078 78.121L240.479 77.19C240.014 78.4702 239.083 81.1469 237.803 81.2633ZM274.928 76.0262C273.648 76.1426 271.902 73.9313 271.204 72.8839L277.605 71.9529C277.139 73.233 276.208 75.9098 274.928 76.0262ZM290.174 64.5045C290.407 65.9011 289.359 67.1813 288.079 67.2976L222.906 76.4917C221.509 76.7245 220.229 75.677 220.113 74.3969L213.828 30.8706C213.595 29.3576 214.759 28.1938 215.923 28.0774L281.213 18.8834C282.376 18.767 283.773 19.4653 284.006 20.9782L290.174 64.5045Z" fill="#252525"/>
<path d="M270.273 41.1119C272.6 40.7628 274.113 38.6679 273.881 36.3403C273.531 34.0127 271.437 32.4998 269.109 32.7325C266.781 33.0817 265.268 35.1765 265.501 37.5041C265.967 39.8317 268.062 41.4611 270.273 41.1119Z" fill="#252525"/>
<path d="M259.799 58.9176L254.329 54.6115C253.863 54.2624 253.398 54.146 252.932 54.2624C252.467 54.3788 252.001 54.6115 251.652 54.9607L247.579 60.5469C246.88 61.478 247.579 62.409 248.742 62.2926L259.217 60.7797C260.264 60.6633 260.73 59.6159 259.799 58.9176Z" fill="#252525"/>
<path d="M278.07 23.305L220.113 31.4516C218.949 31.568 218.134 32.7318 218.251 33.8956L223.371 70.2063C223.488 71.3701 224.652 72.1848 225.815 72.0684L283.656 63.9218C284.82 63.8054 285.635 62.6416 285.519 61.4778L280.514 25.1671C280.398 24.0033 279.234 23.1886 278.07 23.305ZM283.773 61.7105C283.773 61.8269 283.657 62.0597 283.54 62.0597L225.699 70.2063C225.583 70.2063 225.35 70.0899 225.35 69.9735L220.113 33.6629C220.113 33.5465 220.229 33.3137 220.346 33.3137L278.303 25.1671C278.419 25.1671 278.652 25.2835 278.652 25.3998L283.773 61.7105Z" fill="#252525"/>
<g clip-path="url(#clip0)">
<path d="M326 154.5C325.4 154.5 325 154.1 325 153.5V21.5C325 20.9 325.4 20.5 326 20.5H543C543.6 20.5 544 20.9 544 21.5V153.5C544 154.1 543.6 154.5 543 154.5H326Z" fill="#FFF3CF"/>
<path d="M537 27.5V147.5H332V27.5H537ZM543 13.5H326C321.6 13.5 318 17.1 318 21.5V153.5C318 157.9 321.6 161.5 326 161.5H543C547.4 161.5 551 157.9 551 153.5V21.5C551 17.1 547.4 13.5 543 13.5Z" fill="white"/>
<path d="M543 161.5H326C321.6 161.5 318 157.9 318 153.5V21.5C318 17.1 321.6 13.5 326 13.5H543C547.4 13.5 551 17.1 551 21.5V153.5C551 157.9 547.4 161.5 543 161.5Z" stroke="#252525" stroke-width="11" stroke-miterlimit="10"/>
<path d="M327.3 157.9L351.3 133.8" stroke="white" stroke-width="10" stroke-miterlimit="10" stroke-linecap="round" stroke-linejoin="round"/>
<path d="M359.6 148.6L381.6 126.6" stroke="white" stroke-width="10" stroke-miterlimit="10" stroke-linecap="round" stroke-linejoin="round"/>
<path d="M505.5 28.1001L484.1 49.5001" stroke="white" stroke-width="10" stroke-miterlimit="10" stroke-linecap="round" stroke-linejoin="round"/>
<path d="M513.4 40.9998L537.6 16.7998" stroke="white" stroke-width="10" stroke-miterlimit="10" stroke-linecap="round" stroke-linejoin="round"/>
<path d="M446 157H423V185.5H446V157Z" fill="#252525"/>
<path d="M477.5 186.9C477.5 191.2 474 194.8 469.6 194.8H399.4C395.1 194.8 391.5 191.3 391.5 186.9C391.5 182.6 395 179 399.4 179H469.7C474 179 477.5 182.5 477.5 186.9Z" fill="#252525"/>
<path d="M486.7 114.6C486.7 113.5 486.9 112.4 487.4 111.5C487.9 110.6 488.6 109.7 489.4 109.1C490.3 108.4 491.3 107.9 492.5 107.5C493.7 107.1 495 106.9 496.4 106.9C497.8 106.9 499.1 107.1 500.3 107.4C501.5 107.7 502.5 108.2 503.4 108.9C504.3 109.5 504.9 110.3 505.4 111.2C505.9 112.1 506.1 113.1 506.1 114.3C506.1 115.6 505.8 116.7 505.3 117.6C504.8 118.5 504.1 119.3 503.2 120C504.3 120.7 505.2 121.6 505.9 122.6C506.6 123.6 506.9 125 506.9 126.7C506.9 127.8 506.7 128.9 506.2 129.8C505.7 130.7 505 131.6 504.1 132.2C503.2 132.9 502.1 133.4 500.8 133.8C499.5 134.2 498.1 134.4 496.5 134.4C494.9 134.4 493.5 134.2 492.2 133.8C490.9 133.4 489.8 132.9 488.9 132.2C488 131.5 487.3 130.7 486.8 129.8C486.3 128.9 486 127.8 486 126.7C486 125.2 486.3 123.9 487 122.8C487.7 121.8 488.5 121 489.4 120.4C488.6 119.8 488 119 487.4 118.1C487 117.3 486.7 116.1 486.7 114.6ZM493.5 126C493.5 126.9 493.8 127.6 494.4 128.1C495 128.6 495.7 128.9 496.6 128.9C497.5 128.9 498.3 128.6 498.8 128.1C499.3 127.6 499.7 126.9 499.7 126C499.7 125.2 499.5 124.5 498.9 123.9C498.4 123.3 497.7 122.9 496.9 122.6C495.6 122.9 494.7 123.3 494.2 123.9C493.7 124.5 493.5 125.2 493.5 126ZM499.1 114.9C499.1 114.1 498.9 113.5 498.4 113.1C497.9 112.6 497.3 112.4 496.5 112.4C495.7 112.4 495 112.6 494.6 113.1C494.1 113.6 493.9 114.2 493.9 114.9C493.9 115.6 494.1 116.2 494.6 116.7C495.1 117.2 495.6 117.5 496.3 117.8C497.3 117.6 498 117.2 498.5 116.7C498.9 116.1 499.1 115.5 499.1 114.9Z" stroke="white" stroke-width="6"/>
<path d="M510.7 114.6C510.7 113.5 510.9 112.4 511.4 111.5C511.9 110.6 512.6 109.7 513.4 109.1C514.3 108.4 515.3 107.9 516.5 107.5C517.7 107.1 519 106.9 520.4 106.9C521.8 106.9 523.1 107.1 524.3 107.4C525.5 107.7 526.5 108.2 527.4 108.9C528.3 109.5 528.9 110.3 529.4 111.2C529.9 112.1 530.1 113.1 530.1 114.3C530.1 115.6 529.8 116.7 529.3 117.6C528.8 118.5 528.1 119.3 527.2 120C528.3 120.7 529.2 121.6 529.9 122.6C530.6 123.6 530.9 125 530.9 126.7C530.9 127.8 530.7 128.9 530.2 129.8C529.7 130.7 529 131.6 528.1 132.2C527.2 132.9 526.1 133.4 524.8 133.8C523.5 134.2 522.1 134.4 520.5 134.4C518.9 134.4 517.5 134.2 516.2 133.8C514.9 133.4 513.8 132.9 512.9 132.2C512 131.5 511.3 130.7 510.8 129.8C510.3 128.9 510 127.8 510 126.7C510 125.2 510.3 123.9 511 122.8C511.7 121.8 512.5 121 513.4 120.4C512.6 119.8 512 119 511.4 118.1C511 117.3 510.7 116.1 510.7 114.6ZM517.5 126C517.5 126.9 517.8 127.6 518.4 128.1C519 128.6 519.7 128.9 520.6 128.9C521.5 128.9 522.3 128.6 522.8 128.1C523.3 127.6 523.7 126.9 523.7 126C523.7 125.2 523.5 124.5 522.9 123.9C522.4 123.3 521.7 122.9 520.9 122.6C519.6 122.9 518.7 123.3 518.2 123.9C517.7 124.5 517.5 125.2 517.5 126ZM523.1 114.9C523.1 114.1 522.9 113.5 522.4 113.1C521.9 112.6 521.3 112.4 520.5 112.4C519.7 112.4 519 112.6 518.6 113.1C518.1 113.6 517.9 114.2 517.9 114.9C517.9 115.6 518.1 116.2 518.6 116.7C519.1 117.2 519.6 117.5 520.3 117.8C521.3 117.6 522 117.2 522.5 116.7C522.9 116.1 523.1 115.5 523.1 114.9Z" stroke="white" stroke-width="6"/>
<path d="M534.7 114.6C534.7 113.5 534.9 112.4 535.4 111.5C535.9 110.6 536.6 109.7 537.4 109.1C538.3 108.4 539.3 107.9 540.5 107.5C541.7 107.1 543 106.9 544.4 106.9C545.8 106.9 547.1 107.1 548.3 107.4C549.5 107.7 550.5 108.2 551.4 108.9C552.3 109.5 552.9 110.3 553.4 111.2C553.9 112.1 554.1 113.1 554.1 114.3C554.1 115.6 553.8 116.7 553.3 117.6C552.8 118.5 552.1 119.3 551.2 120C552.3 120.7 553.2 121.6 553.9 122.6C554.6 123.6 554.9 125 554.9 126.7C554.9 127.8 554.7 128.9 554.2 129.8C553.7 130.7 553 131.6 552.1 132.2C551.2 132.9 550.1 133.4 548.8 133.8C547.5 134.2 546.1 134.4 544.5 134.4C542.9 134.4 541.5 134.2 540.2 133.8C538.9 133.4 537.8 132.9 536.9 132.2C536 131.5 535.3 130.7 534.8 129.8C534.3 128.9 534 127.8 534 126.7C534 125.2 534.3 123.9 535 122.8C535.7 121.8 536.5 121 537.4 120.4C536.6 119.8 536 119 535.4 118.1C535 117.3 534.7 116.1 534.7 114.6ZM541.5 126C541.5 126.9 541.8 127.6 542.4 128.1C543 128.6 543.7 128.9 544.6 128.9C545.5 128.9 546.3 128.6 546.8 128.1C547.3 127.6 547.7 126.9 547.7 126C547.7 125.2 547.5 124.5 546.9 123.9C546.4 123.3 545.7 122.9 544.9 122.6C543.6 122.9 542.7 123.3 542.2 123.9C541.7 124.5 541.5 125.2 541.5 126ZM547.1 114.9C547.1 114.1 546.9 113.5 546.4 113.1C545.9 112.6 545.3 112.4 544.5 112.4C543.7 112.4 543 112.6 542.6 113.1C542.1 113.6 541.9 114.2 541.9 114.9C541.9 115.6 542.1 116.2 542.6 116.7C543.1 117.2 543.6 117.5 544.3 117.8C545.3 117.6 546 117.2 546.5 116.7C546.9 116.1 547.1 115.5 547.1 114.9Z" stroke="white" stroke-width="6"/>
<path d="M486.7 114.6C486.7 113.5 486.9 112.4 487.4 111.5C487.9 110.6 488.6 109.7 489.4 109.1C490.3 108.4 491.3 107.9 492.5 107.5C493.7 107.1 495 106.9 496.4 106.9C497.8 106.9 499.1 107.1 500.3 107.4C501.5 107.7 502.5 108.2 503.4 108.9C504.3 109.5 504.9 110.3 505.4 111.2C505.9 112.1 506.1 113.1 506.1 114.3C506.1 115.6 505.8 116.7 505.3 117.6C504.8 118.5 504.1 119.3 503.2 120C504.3 120.7 505.2 121.6 505.9 122.6C506.6 123.6 506.9 125 506.9 126.7C506.9 127.8 506.7 128.9 506.2 129.8C505.7 130.7 505 131.6 504.1 132.2C503.2 132.9 502.1 133.4 500.8 133.8C499.5 134.2 498.1 134.4 496.5 134.4C494.9 134.4 493.5 134.2 492.2 133.8C490.9 133.4 489.8 132.9 488.9 132.2C488 131.5 487.3 130.7 486.8 129.8C486.3 128.9 486 127.8 486 126.7C486 125.2 486.3 123.9 487 122.8C487.7 121.8 488.5 121 489.4 120.4C488.6 119.8 488 119 487.4 118.1C487 117.3 486.7 116.1 486.7 114.6ZM493.5 126C493.5 126.9 493.8 127.6 494.4 128.1C495 128.6 495.7 128.9 496.6 128.9C497.5 128.9 498.3 128.6 498.8 128.1C499.3 127.6 499.7 126.9 499.7 126C499.7 125.2 499.5 124.5 498.9 123.9C498.4 123.3 497.7 122.9 496.9 122.6C495.6 122.9 494.7 123.3 494.2 123.9C493.7 124.5 493.5 125.2 493.5 126ZM499.1 114.9C499.1 114.1 498.9 113.5 498.4 113.1C497.9 112.6 497.3 112.4 496.5 112.4C495.7 112.4 495 112.6 494.6 113.1C494.1 113.6 493.9 114.2 493.9 114.9C493.9 115.6 494.1 116.2 494.6 116.7C495.1 117.2 495.6 117.5 496.3 117.8C497.3 117.6 498 117.2 498.5 116.7C498.9 116.1 499.1 115.5 499.1 114.9Z" fill="#D9A300"/>
<path d="M510.7 114.6C510.7 113.5 510.9 112.4 511.4 111.5C511.9 110.6 512.6 109.7 513.4 109.1C514.3 108.4 515.3 107.9 516.5 107.5C517.7 107.1 519 106.9 520.4 106.9C521.8 106.9 523.1 107.1 524.3 107.4C525.5 107.7 526.5 108.2 527.4 108.9C528.3 109.5 528.9 110.3 529.4 111.2C529.9 112.1 530.1 113.1 530.1 114.3C530.1 115.6 529.8 116.7 529.3 117.6C528.8 118.5 528.1 119.3 527.2 120C528.3 120.7 529.2 121.6 529.9 122.6C530.6 123.6 530.9 125 530.9 126.7C530.9 127.8 530.7 128.9 530.2 129.8C529.7 130.7 529 131.6 528.1 132.2C527.2 132.9 526.1 133.4 524.8 133.8C523.5 134.2 522.1 134.4 520.5 134.4C518.9 134.4 517.5 134.2 516.2 133.8C514.9 133.4 513.8 132.9 512.9 132.2C512 131.5 511.3 130.7 510.8 129.8C510.3 128.9 510 127.8 510 126.7C510 125.2 510.3 123.9 511 122.8C511.7 121.8 512.5 121 513.4 120.4C512.6 119.8 512 119 511.4 118.1C511 117.3 510.7 116.1 510.7 114.6ZM517.5 126C517.5 126.9 517.8 127.6 518.4 128.1C519 128.6 519.7 128.9 520.6 128.9C521.5 128.9 522.3 128.6 522.8 128.1C523.3 127.6 523.7 126.9 523.7 126C523.7 125.2 523.5 124.5 522.9 123.9C522.4 123.3 521.7 122.9 520.9 122.6C519.6 122.9 518.7 123.3 518.2 123.9C517.7 124.5 517.5 125.2 517.5 126ZM523.1 114.9C523.1 114.1 522.9 113.5 522.4 113.1C521.9 112.6 521.3 112.4 520.5 112.4C519.7 112.4 519 112.6 518.6 113.1C518.1 113.6 517.9 114.2 517.9 114.9C517.9 115.6 518.1 116.2 518.6 116.7C519.1 117.2 519.6 117.5 520.3 117.8C521.3 117.6 522 117.2 522.5 116.7C522.9 116.1 523.1 115.5 523.1 114.9Z" fill="#D9A300"/>
<path d="M534.7 114.6C534.7 113.5 534.9 112.4 535.4 111.5C535.9 110.6 536.6 109.7 537.4 109.1C538.3 108.4 539.3 107.9 540.5 107.5C541.7 107.1 543 106.9 544.4 106.9C545.8 106.9 547.1 107.1 548.3 107.4C549.5 107.7 550.5 108.2 551.4 108.9C552.3 109.5 552.9 110.3 553.4 111.2C553.9 112.1 554.1 113.1 554.1 114.3C554.1 115.6 553.8 116.7 553.3 117.6C552.8 118.5 552.1 119.3 551.2 120C552.3 120.7 553.2 121.6 553.9 122.6C554.6 123.6 554.9 125 554.9 126.7C554.9 127.8 554.7 128.9 554.2 129.8C553.7 130.7 553 131.6 552.1 132.2C551.2 132.9 550.1 133.4 548.8 133.8C547.5 134.2 546.1 134.4 544.5 134.4C542.9 134.4 541.5 134.2 540.2 133.8C538.9 133.4 537.8 132.9 536.9 132.2C536 131.5 535.3 130.7 534.8 129.8C534.3 128.9 534 127.8 534 126.7C534 125.2 534.3 123.9 535 122.8C535.7 121.8 536.5 121 537.4 120.4C536.6 119.8 536 119 535.4 118.1C535 117.3 534.7 116.1 534.7 114.6ZM541.5 126C541.5 126.9 541.8 127.6 542.4 128.1C543 128.6 543.7 128.9 544.6 128.9C545.5 128.9 546.3 128.6 546.8 128.1C547.3 127.6 547.7 126.9 547.7 126C547.7 125.2 547.5 124.5 546.9 123.9C546.4 123.3 545.7 122.9 544.9 122.6C543.6 122.9 542.7 123.3 542.2 123.9C541.7 124.5 541.5 125.2 541.5 126ZM547.1 114.9C547.1 114.1 546.9 113.5 546.4 113.1C545.9 112.6 545.3 112.4 544.5 112.4C543.7 112.4 543 112.6 542.6 113.1C542.1 113.6 541.9 114.2 541.9 114.9C541.9 115.6 542.1 116.2 542.6 116.7C543.1 117.2 543.6 117.5 544.3 117.8C545.3 117.6 546 117.2 546.5 116.7C546.9 116.1 547.1 115.5 547.1 114.9Z" fill="#D9A300"/>
<path d="M315.6 53.8001C315.6 52.7001 315.8 51.6001 316.3 50.7001C316.8 49.8001 317.5 48.9001 318.3 48.3001C319.2 47.6001 320.2 47.1001 321.4 46.7001C322.6 46.3001 323.9 46.1001 325.3 46.1001C326.7 46.1001 328 46.3001 329.2 46.6001C330.4 46.9001 331.4 47.4001 332.3 48.1001C333.2 48.7001 333.8 49.5001 334.3 50.4001C334.8 51.3001 335 52.3001 335 53.5001C335 54.8001 334.7 55.9001 334.2 56.8001C333.7 57.7001 333 58.5001 332.1 59.2001C333.2 59.9001 334.1 60.8001 334.8 61.8001C335.5 62.8001 335.8 64.2001 335.8 65.9001C335.8 67.0001 335.6 68.1001 335.1 69.0001C334.6 69.9001 333.9 70.8001 333 71.4001C332.1 72.1001 331 72.6001 329.7 73.0001C328.4 73.4001 327 73.6001 325.4 73.6001C323.8 73.6001 322.4 73.4001 321.1 73.0001C319.8 72.6001 318.7 72.1001 317.8 71.4001C317 70.8001 316.2 70.0001 315.8 69.0001C315.2 68.1001 315 67.0001 315 65.9001C315 64.4001 315.3 63.1001 316 62.0001C316.7 60.9001 317.5 60.2001 318.4 59.6001C317.6 59.0001 317 58.2001 316.4 57.3001C315.9 56.5001 315.6 55.3001 315.6 53.8001ZM322.3 65.2001C322.3 66.1001 322.6 66.8001 323.2 67.3001C323.8 67.8001 324.5 68.1001 325.5 68.1001C326.4 68.1001 327.2 67.8001 327.8 67.3001C328.4 66.8001 328.7 66.1001 328.7 65.2001C328.7 64.4001 328.4 63.7001 327.9 63.1001C327.4 62.5001 326.7 62.1001 325.9 61.8001C324.6 62.1001 323.7 62.5001 323.2 63.1001C322.6 63.7001 322.3 64.4001 322.3 65.2001ZM328 54.1001C328 53.3001 327.8 52.7001 327.3 52.3001C326.8 51.8001 326.2 51.6001 325.4 51.6001C324.6 51.6001 323.9 51.8001 323.5 52.3001C323 52.8001 322.8 53.4001 322.8 54.1001C322.8 54.8001 323 55.4001 323.5 55.9001C324 56.4001 324.5 56.7001 325.2 57.0001C326.2 56.8001 326.9 56.4001 327.4 55.9001C327.8 55.3001 328 54.8001 328 54.1001Z" stroke="white" stroke-width="6"/>
<path d="M339.6 53.8001C339.6 52.7001 339.8 51.6001 340.3 50.7001C340.8 49.8001 341.5 48.9001 342.3 48.3001C343.2 47.6001 344.2 47.1001 345.4 46.7001C346.6 46.3001 347.9 46.1001 349.3 46.1001C350.7 46.1001 352 46.3001 353.2 46.6001C354.4 46.9001 355.4 47.4001 356.3 48.1001C357.2 48.7001 357.8 49.5001 358.3 50.4001C358.8 51.3001 359 52.3001 359 53.5001C359 54.8001 358.7 55.9001 358.2 56.8001C357.7 57.7001 357 58.5001 356.1 59.2001C357.2 59.9001 358.1 60.8001 358.8 61.8001C359.5 62.8001 359.8 64.2001 359.8 65.9001C359.8 67.0001 359.6 68.1001 359.1 69.0001C358.6 69.9001 357.9 70.8001 357 71.4001C356.1 72.1001 355 72.6001 353.7 73.0001C352.4 73.4001 351 73.6001 349.4 73.6001C347.8 73.6001 346.4 73.4001 345.1 73.0001C343.8 72.6001 342.7 72.1001 341.8 71.4001C341 70.8001 340.3 70.0001 339.8 69.0001C339.3 68.1001 339 67.0001 339 65.9001C339 64.4001 339.3 63.1001 340 62.0001C340.7 60.9001 341.5 60.2001 342.4 59.6001C341.6 59.0001 341 58.2001 340.4 57.3001C339.9 56.5001 339.6 55.3001 339.6 53.8001ZM346.3 65.2001C346.3 66.1001 346.6 66.8001 347.2 67.3001C347.8 67.8001 348.5 68.1001 349.5 68.1001C350.4 68.1001 351.2 67.8001 351.8 67.3001C352.4 66.8001 352.7 66.1001 352.7 65.2001C352.7 64.4001 352.4 63.7001 351.9 63.1001C351.4 62.5001 350.7 62.1001 349.9 61.8001C348.6 62.1001 347.7 62.5001 347.2 63.1001C346.6 63.7001 346.3 64.4001 346.3 65.2001ZM352 54.1001C352 53.3001 351.8 52.7001 351.3 52.3001C350.8 51.8001 350.2 51.6001 349.4 51.6001C348.6 51.6001 347.9 51.8001 347.5 52.3001C347 52.8001 346.8 53.4001 346.8 54.1001C346.8 54.8001 347 55.4001 347.5 55.9001C348 56.4001 348.5 56.7001 349.2 57.0001C350.2 56.8001 350.9 56.4001 351.4 55.9001C351.8 55.3001 352 54.8001 352 54.1001Z" stroke="white" stroke-width="6"/>
<path d="M363.6 53.8001C363.6 52.7001 363.8 51.6001 364.3 50.7001C364.8 49.8001 365.5 48.9001 366.3 48.3001C367.2 47.6001 368.2 47.1001 369.4 46.7001C370.6 46.3001 371.9 46.1001 373.3 46.1001C374.7 46.1001 376 46.3001 377.2 46.6001C378.4 46.9001 379.4 47.4001 380.3 48.1001C381.2 48.7001 381.8 49.5001 382.3 50.4001C382.8 51.3001 383 52.3001 383 53.5001C383 54.8001 382.7 55.9001 382.2 56.8001C381.7 57.7001 381 58.5001 380.1 59.2001C381.2 59.9001 382.1 60.8001 382.8 61.8001C383.5 62.8001 383.8 64.2001 383.8 65.9001C383.8 67.0001 383.6 68.1001 383.1 69.0001C382.6 69.9001 381.9 70.8001 381 71.4001C380.1 72.1001 379 72.6001 377.7 73.0001C376.4 73.4001 375 73.6001 373.4 73.6001C371.8 73.6001 370.4 73.4001 369.1 73.0001C367.8 72.6001 366.7 72.1001 365.8 71.4001C365 70.8001 364.3 70.0001 363.8 69.0001C363.3 68.1001 363 67.0001 363 65.9001C363 64.4001 363.3 63.1001 364 62.0001C364.7 60.9001 365.5 60.2001 366.4 59.6001C365.6 59.0001 365 58.2001 364.4 57.3001C363.9 56.5001 363.6 55.3001 363.6 53.8001ZM370.3 65.2001C370.3 66.1001 370.6 66.8001 371.2 67.3001C371.8 67.8001 372.5 68.1001 373.5 68.1001C374.4 68.1001 375.2 67.8001 375.8 67.3001C376.4 66.8001 376.7 66.1001 376.7 65.2001C376.7 64.4001 376.4 63.7001 375.9 63.1001C375.4 62.5001 374.7 62.1001 373.9 61.8001C372.6 62.1001 371.7 62.5001 371.2 63.1001C370.6 63.7001 370.3 64.4001 370.3 65.2001ZM376 54.1001C376 53.3001 375.8 52.7001 375.3 52.3001C374.8 51.8001 374.2 51.6001 373.4 51.6001C372.6 51.6001 371.9 51.8001 371.5 52.3001C371 52.8001 370.8 53.4001 370.8 54.1001C370.8 54.8001 371 55.4001 371.5 55.9001C372 56.4001 372.5 56.7001 373.2 57.0001C374.2 56.8001 374.9 56.4001 375.4 55.9001C375.8 55.3001 376 54.8001 376 54.1001Z" stroke="white" stroke-width="6"/>
<path d="M315.6 53.8001C315.6 52.7001 315.8 51.6001 316.3 50.7001C316.8 49.8001 317.5 48.9001 318.3 48.3001C319.2 47.6001 320.2 47.1001 321.4 46.7001C322.6 46.3001 323.9 46.1001 325.3 46.1001C326.7 46.1001 328 46.3001 329.2 46.6001C330.4 46.9001 331.4 47.4001 332.3 48.1001C333.2 48.7001 333.8 49.5001 334.3 50.4001C334.8 51.3001 335 52.3001 335 53.5001C335 54.8001 334.7 55.9001 334.2 56.8001C333.7 57.7001 333 58.5001 332.1 59.2001C333.2 59.9001 334.1 60.8001 334.8 61.8001C335.5 62.8001 335.8 64.2001 335.8 65.9001C335.8 67.0001 335.6 68.1001 335.1 69.0001C334.6 69.9001 333.9 70.8001 333 71.4001C332.1 72.1001 331 72.6001 329.7 73.0001C328.4 73.4001 327 73.6001 325.4 73.6001C323.8 73.6001 322.4 73.4001 321.1 73.0001C319.8 72.6001 318.7 72.1001 317.8 71.4001C317 70.8001 316.2 70.0001 315.8 69.0001C315.2 68.1001 315 67.0001 315 65.9001C315 64.4001 315.3 63.1001 316 62.0001C316.7 60.9001 317.5 60.2001 318.4 59.6001C317.6 59.0001 317 58.2001 316.4 57.3001C315.9 56.5001 315.6 55.3001 315.6 53.8001ZM322.3 65.2001C322.3 66.1001 322.6 66.8001 323.2 67.3001C323.8 67.8001 324.5 68.1001 325.5 68.1001C326.4 68.1001 327.2 67.8001 327.8 67.3001C328.4 66.8001 328.7 66.1001 328.7 65.2001C328.7 64.4001 328.4 63.7001 327.9 63.1001C327.4 62.5001 326.7 62.1001 325.9 61.8001C324.6 62.1001 323.7 62.5001 323.2 63.1001C322.6 63.7001 322.3 64.4001 322.3 65.2001ZM328 54.1001C328 53.3001 327.8 52.7001 327.3 52.3001C326.8 51.8001 326.2 51.6001 325.4 51.6001C324.6 51.6001 323.9 51.8001 323.5 52.3001C323 52.8001 322.8 53.4001 322.8 54.1001C322.8 54.8001 323 55.4001 323.5 55.9001C324 56.4001 324.5 56.7001 325.2 57.0001C326.2 56.8001 326.9 56.4001 327.4 55.9001C327.8 55.3001 328 54.8001 328 54.1001Z" fill="#D9A300"/>
<path d="M339.6 53.8001C339.6 52.7001 339.8 51.6001 340.3 50.7001C340.8 49.8001 341.5 48.9001 342.3 48.3001C343.2 47.6001 344.2 47.1001 345.4 46.7001C346.6 46.3001 347.9 46.1001 349.3 46.1001C350.7 46.1001 352 46.3001 353.2 46.6001C354.4 46.9001 355.4 47.4001 356.3 48.1001C357.2 48.7001 357.8 49.5001 358.3 50.4001C358.8 51.3001 359 52.3001 359 53.5001C359 54.8001 358.7 55.9001 358.2 56.8001C357.7 57.7001 357 58.5001 356.1 59.2001C357.2 59.9001 358.1 60.8001 358.8 61.8001C359.5 62.8001 359.8 64.2001 359.8 65.9001C359.8 67.0001 359.6 68.1001 359.1 69.0001C358.6 69.9001 357.9 70.8001 357 71.4001C356.1 72.1001 355 72.6001 353.7 73.0001C352.4 73.4001 351 73.6001 349.4 73.6001C347.8 73.6001 346.4 73.4001 345.1 73.0001C343.8 72.6001 342.7 72.1001 341.8 71.4001C341 70.8001 340.3 70.0001 339.8 69.0001C339.3 68.1001 339 67.0001 339 65.9001C339 64.4001 339.3 63.1001 340 62.0001C340.7 60.9001 341.5 60.2001 342.4 59.6001C341.6 59.0001 341 58.2001 340.4 57.3001C339.9 56.5001 339.6 55.3001 339.6 53.8001ZM346.3 65.2001C346.3 66.1001 346.6 66.8001 347.2 67.3001C347.8 67.8001 348.5 68.1001 349.5 68.1001C350.4 68.1001 351.2 67.8001 351.8 67.3001C352.4 66.8001 352.7 66.1001 352.7 65.2001C352.7 64.4001 352.4 63.7001 351.9 63.1001C351.4 62.5001 350.7 62.1001 349.9 61.8001C348.6 62.1001 347.7 62.5001 347.2 63.1001C346.6 63.7001 346.3 64.4001 346.3 65.2001ZM352 54.1001C352 53.3001 351.8 52.7001 351.3 52.3001C350.8 51.8001 350.2 51.6001 349.4 51.6001C348.6 51.6001 347.9 51.8001 347.5 52.3001C347 52.8001 346.8 53.4001 346.8 54.1001C346.8 54.8001 347 55.4001 347.5 55.9001C348 56.4001 348.5 56.7001 349.2 57.0001C350.2 56.8001 350.9 56.4001 351.4 55.9001C351.8 55.3001 352 54.8001 352 54.1001Z" fill="#D9A300"/>
<path d="M363.6 53.8001C363.6 52.7001 363.8 51.6001 364.3 50.7001C364.8 49.8001 365.5 48.9001 366.3 48.3001C367.2 47.6001 368.2 47.1001 369.4 46.7001C370.6 46.3001 371.9 46.1001 373.3 46.1001C374.7 46.1001 376 46.3001 377.2 46.6001C378.4 46.9001 379.4 47.4001 380.3 48.1001C381.2 48.7001 381.8 49.5001 382.3 50.4001C382.8 51.3001 383 52.3001 383 53.5001C383 54.8001 382.7 55.9001 382.2 56.8001C381.7 57.7001 381 58.5001 380.1 59.2001C381.2 59.9001 382.1 60.8001 382.8 61.8001C383.5 62.8001 383.8 64.2001 383.8 65.9001C383.8 67.0001 383.6 68.1001 383.1 69.0001C382.6 69.9001 381.9 70.8001 381 71.4001C380.1 72.1001 379 72.6001 377.7 73.0001C376.4 73.4001 375 73.6001 373.4 73.6001C371.8 73.6001 370.4 73.4001 369.1 73.0001C367.8 72.6001 366.7 72.1001 365.8 71.4001C365 70.8001 364.3 70.0001 363.8 69.0001C363.3 68.1001 363 67.0001 363 65.9001C363 64.4001 363.3 63.1001 364 62.0001C364.7 60.9001 365.5 60.2001 366.4 59.6001C365.6 59.0001 365 58.2001 364.4 57.3001C363.9 56.5001 363.6 55.3001 363.6 53.8001ZM370.3 65.2001C370.3 66.1001 370.6 66.8001 371.2 67.3001C371.8 67.8001 372.5 68.1001 373.5 68.1001C374.4 68.1001 375.2 67.8001 375.8 67.3001C376.4 66.8001 376.7 66.1001 376.7 65.2001C376.7 64.4001 376.4 63.7001 375.9 63.1001C375.4 62.5001 374.7 62.1001 373.9 61.8001C372.6 62.1001 371.7 62.5001 371.2 63.1001C370.6 63.7001 370.3 64.4001 370.3 65.2001ZM376 54.1001C376 53.3001 375.8 52.7001 375.3 52.3001C374.8 51.8001 374.2 51.6001 373.4 51.6001C372.6 51.6001 371.9 51.8001 371.5 52.3001C371 52.8001 370.8 53.4001 370.8 54.1001C370.8 54.8001 371 55.4001 371.5 55.9001C372 56.4001 372.5 56.7001 373.2 57.0001C374.2 56.8001 374.9 56.4001 375.4 55.9001C375.8 55.3001 376 54.8001 376 54.1001Z" fill="#D9A300"/>
<path d="M361.2 106.7H366.9" stroke="#CC9900" stroke-width="6" stroke-miterlimit="10" stroke-linecap="round" stroke-linejoin="round"/>
<path d="M377.5 106.7H383.2" stroke="#CC9900" stroke-width="6" stroke-miterlimit="10" stroke-linecap="round" stroke-linejoin="round"/>
<path d="M372.2 117.7V112" stroke="#CC9900" stroke-width="6" stroke-miterlimit="10" stroke-linecap="round" stroke-linejoin="round"/>
<path d="M372.2 101.4V95.7002" stroke="#CC9900" stroke-width="6" stroke-miterlimit="10" stroke-linecap="round" stroke-linejoin="round"/>
<path d="M488.2 66.7002H493.9" stroke="#CC9900" stroke-width="6" stroke-miterlimit="10" stroke-linecap="round" stroke-linejoin="round"/>
<path d="M504.5 66.7002H510.2" stroke="#CC9900" stroke-width="6" stroke-miterlimit="10" stroke-linecap="round" stroke-linejoin="round"/>
<path d="M499.2 77.7V72" stroke="#CC9900" stroke-width="6" stroke-miterlimit="10" stroke-linecap="round" stroke-linejoin="round"/>
<path d="M499.2 61.4002V55.7002" stroke="#CC9900" stroke-width="6" stroke-miterlimit="10" stroke-linecap="round" stroke-linejoin="round"/>
<path d="M543 161.5H326C321.6 161.5 318 157.9 318 153.5V21.5C318 17.1 321.6 13.5 326 13.5H543C547.4 13.5 551 17.1 551 21.5V153.5C551 157.9 547.4 161.5 543 161.5Z" stroke="#252525" stroke-width="11" stroke-miterlimit="10"/>
<path d="M470 124.7L434.5 112.8L399 124.7V53.4C399 52 400 51 401.3 51H467.6C468.9 51 470 52.1 470 53.4V124.7Z" fill="#CC9900"/>
<path d="M438.5 81.2999C440.8 81.2999 443.6 81.2999 443.6 77.6999C443.6 73.9999 441 73.9999 438.5 73.9999H433.2C432.3 73.9999 432 74.1999 432 75.0999V81.1999H438.5V81.2999ZM432 95.6999C432 97.5999 431.1 98.5999 428.8 98.5999C426.8 98.5999 425.5 97.8999 425.5 95.6999V73.4999C425.5 71.5999 425.5 68.3999 430.7 68.3999H438.8C440.8 68.3999 443.8 68.3999 446.5 70.4999C448.8 72.2999 449.9 75.0999 449.9 77.9999C449.9 79.6999 449.5 83.0999 446.5 85.1999C444.1 86.8999 441.7 87.1999 438.7 87.1999H432V95.6999Z" fill="white"/>
</g>
<path d="M111.033 86H27.1615V142.02H111.033V86Z" fill="white"/>
<path d="M64.3499 115.118C65.3112 115.118 66.0906 114.338 66.0906 113.377C66.0906 112.416 65.3112 111.636 64.3499 111.636C63.3885 111.636 62.6091 112.416 62.6091 113.377C62.6091 114.338 63.3885 115.118 64.3499 115.118Z" fill="#5C4500"/>
<path d="M72.9745 115.118C73.9359 115.118 74.7152 114.338 74.7152 113.377C74.7152 112.416 73.9359 111.636 72.9745 111.636C72.0131 111.636 71.2337 112.416 71.2337 113.377C71.2337 114.338 72.0131 115.118 72.9745 115.118Z" fill="#5C4500"/>
<path d="M55.5671 107.996L51.9274 113.377L47.9712 114.326L46.7052 115.909L40.0588 111.24L43.1446 106.73C43.1446 106.73 46.2305 96.7606 47.8921 95.9693C49.6328 95.1781 51.2153 95.0198 53.0351 96.2858C54.855 97.5518 58.4156 95.7319 61.1058 93.9121C63.796 92.0922 70.4424 89.402 76.0603 92.8044C81.6781 96.2067 83.8144 98.0266 83.8144 98.0266C83.8144 98.0266 88.641 94.7825 91.5686 95.3363C94.4171 95.8902 96.6325 99.2925 96.7908 100.717C96.949 102.141 99.8766 110.607 101.301 110.528C98.215 113.851 93.7049 114.01 90.4608 112.032C87.2168 110.053 87.375 112.585 87.375 112.585C87.375 112.585 85.0013 121.21 83.2606 122.476C81.4407 123.742 79.3044 125.008 79.3044 125.008L81.6781 107.68L55.5671 107.996Z" fill="#FFF3CF"/>
<path d="M84.0518 135.769C84.0518 135.769 80.4121 132.13 76.8515 130.151C73.2118 128.173 69.2556 128.569 67.8314 129.598C66.4072 130.705 61.7388 127.224 60.2355 128.173C58.8112 129.044 53.9055 140.279 53.9055 140.279L81.2825 142.099L84.0518 135.769Z" fill="#FFF3CF"/>
<path d="M111.033 86H27.1615V142.02H111.033V86Z" stroke="#5C4500" stroke-width="3.16497" stroke-miterlimit="10" stroke-linecap="round" stroke-linejoin="round"/>
<path d="M74.3987 123.03C70.6008 125.404 63.1631 125.166 60.3147 120.577C57.4662 115.988 58.1783 111.636 58.1783 111.636" stroke="#5C4500" stroke-width="3.16497" stroke-miterlimit="10" stroke-linecap="round" stroke-linejoin="round"/>
<path d="M60.631 100.797C60.631 100.797 59.8398 104.99 63.6378 107.443" stroke="#5C4500" stroke-width="3.16497" stroke-miterlimit="10" stroke-linecap="round" stroke-linejoin="round"/>
<path d="M66.6445 100.243C66.6445 100.243 67.2775 107.047 72.658 108.076" stroke="#5C4500" stroke-width="3.16497" stroke-miterlimit="10" stroke-linecap="round" stroke-linejoin="round"/>
<path d="M73.6865 100.243C73.6865 100.243 74.3195 107.047 79.6999 108.076" stroke="#5C4500" stroke-width="3.16497" stroke-miterlimit="10" stroke-linecap="round" stroke-linejoin="round"/>
<path d="M80.3329 104.041C80.3329 104.041 83.7353 120.34 78.0383 126.987" stroke="#5C4500" stroke-width="3.16497" stroke-miterlimit="10" stroke-linecap="round" stroke-linejoin="round"/>
<path d="M86.2672 117.253C88.9575 112.031 87.6915 98.3425 79.2252 93.5159C73.0535 89.9553 64.1125 91.5378 61.3431 93.2786C58.4947 95.0984 53.0351 100.241 54.4593 108.708" stroke="#5C4500" stroke-width="3.16497" stroke-miterlimit="10" stroke-linecap="round" stroke-linejoin="round"/>
<path d="M85.0804 97.7901C85.0804 97.7901 89.1157 93.3591 93.7049 95.9702C98.2941 98.5813 97.8985 111.399 101.38 110.608C97.3446 117.255 91.0938 112.586 91.0938 112.586" stroke="#5C4500" stroke-width="3.16497" stroke-miterlimit="10" stroke-linecap="round" stroke-linejoin="round"/>
<path d="M56.5957 97.7901C56.5957 97.7901 52.5604 93.3591 47.9712 95.9702C43.382 98.5813 43.7776 111.399 40.2961 110.608C41.0082 111.795 41.7995 112.586 42.5907 113.14" stroke="#5C4500" stroke-width="3.16497" stroke-miterlimit="10" stroke-linecap="round" stroke-linejoin="round"/>
<path d="M51.8482 126.195L48.9998 126.036C44.9644 125.799 42.4325 125.245 41.2456 123.03C40.217 121.131 40.85 118.836 42.6698 117.728C43.8567 117.016 45.2809 117.095 46.3887 117.649C46.3095 116.383 46.8634 115.117 47.9712 114.326C49.7119 113.06 52.1647 113.456 53.3516 115.196C54.7758 117.254 54.222 119.785 52.7977 123.504L51.8482 126.195Z" stroke="#5C4500" stroke-width="3.16497" stroke-linecap="round" stroke-linejoin="round"/>
<path d="M52.1648 125.957L58.9695 132.524" stroke="#5C4500" stroke-width="3.16497" stroke-linecap="round" stroke-linejoin="round"/>
<path d="M82.1528 124.771C82.1528 124.771 85.3178 127.698 85.0804 132.366C85.0013 134.345 84.2101 135.769 83.4979 136.797" stroke="#5C4500" stroke-width="3.16497" stroke-linecap="round" stroke-linejoin="round"/>
<path d="M85.3177 126.669C85.3177 126.669 92.518 118.361 95.8412 118.915C99.1644 119.469 95.8412 124.612 95.8412 124.612C95.8412 124.612 97.3446 124.453 98.2149 125.878C99.1644 127.381 96.5533 130.862 94.3378 131.575C92.1224 132.287 88.7992 132.287 88.7992 132.287" stroke="#5C4500" stroke-width="3.16497" stroke-linecap="round" stroke-linejoin="round"/>
<path d="M60.9475 128.648C62.2135 128.094 63.7168 128.252 65.3784 129.756C67.04 131.259 69.8094 127.382 73.5282 128.49C77.2471 129.597 77.8009 131.813 77.8009 131.813" stroke="#5C4500" stroke-width="3.16497" stroke-linecap="round" stroke-linejoin="round"/>
<path d="M115.306 126.827L112.695 128.884L109.925 127.064C106.048 124.453 103.754 122.396 103.754 119.468C103.754 116.936 105.811 114.958 108.343 114.958C109.925 114.958 111.35 115.828 112.141 117.094C112.853 115.749 114.119 114.8 115.701 114.641C118.154 114.404 120.37 116.224 120.686 118.677C120.844 120.576 120.053 122.158 118.471 123.899" fill="#EE4949"/>
<path d="M115.306 126.827L112.695 128.884L109.925 127.064C106.048 124.453 103.754 122.396 103.754 119.468C103.754 116.936 105.811 114.958 108.343 114.958C109.925 114.958 111.35 115.828 112.141 117.094C112.853 115.749 114.119 114.8 115.701 114.641C118.154 114.404 120.37 116.224 120.686 118.677C120.844 120.576 120.053 122.158 118.471 123.899" stroke="#5C4500" stroke-width="3.16497" stroke-linecap="round" stroke-linejoin="round"/>
<path d="M26.3702 106.968C28.9813 105.939 30.8012 103.407 30.8012 100.321C30.8012 96.3653 26.6867 90.5892 20.8315 93.3586C19.8821 90.6684 17.1127 89.3232 14.106 89.3232C10.2289 89.3232 7.14307 92.4882 7.14307 96.4444C7.14307 96.84 6.66832 96.84 6.74745 97.1565C3.74073 97.9478 2 101.034 2 104.357C2 108.313 4.76935 112.19 8.64643 112.19C9.51679 112.19 10.3872 112.032 11.0993 111.715C11.9696 114.564 14.9764 115.909 18.0622 115.909C21.2272 115.909 23.9174 113.693 24.7877 110.766C26.3702 111.003 28.1901 111.32 30.4847 111.003C29.2978 111.162 27.7153 108.867 26.3702 106.968Z" fill="white" stroke="#5C4500" stroke-width="3.16497" stroke-miterlimit="10" stroke-linecap="round" stroke-linejoin="round"/>
<path d="M16.5588 97.6309V103.328" stroke="#5C4500" stroke-width="3.16497" stroke-miterlimit="10" stroke-linecap="round" stroke-linejoin="round"/>
<path d="M16.638 109.183C17.512 109.183 18.2205 108.474 18.2205 107.6C18.2205 106.726 17.512 106.018 16.638 106.018C15.764 106.018 15.0555 106.726 15.0555 107.6C15.0555 108.474 15.764 109.183 16.638 109.183Z" fill="#5C4500"/>
<path d="M36.6564 128.806L29.8517 127.936C27.3197 124.375 22.9679 122.714 18.2996 123.584C11.8905 124.692 7.61784 130.784 8.72557 137.194C9.83331 143.603 15.9259 147.875 22.3349 146.768C28.3484 145.739 32.5419 140.754 32.1463 134.741L36.6564 128.806Z" fill="#FCD842" stroke="#5C4500" stroke-width="3.16497" stroke-miterlimit="10" stroke-linecap="round" stroke-linejoin="round"/>
<path d="M17.1128 131.893C17.1128 131.893 17.5875 129.599 20.5942 129.678C23.2844 129.757 24.2339 130.311 24.2339 132.764C24.2339 135.137 20.7525 135.216 20.7525 135.216V136.166" stroke="#5C4500" stroke-width="3.16497" stroke-miterlimit="10" stroke-linecap="round" stroke-linejoin="round"/>
<path d="M20.7523 141.783C21.6263 141.783 22.3348 141.074 22.3348 140.2C22.3348 139.326 21.6263 138.618 20.7523 138.618C19.8783 138.618 19.1698 139.326 19.1698 140.2C19.1698 141.074 19.8783 141.783 20.7523 141.783Z" fill="#5C4500"/>
<path d="M162.055 20H78.1832V76.0199H162.055V20Z" fill="white"/>
<path d="M161.897 66.4453H78.4206V76.2567H161.897V66.4453Z" fill="#FFF3CF"/>
<path d="M162.055 20H78.1832V76.0199H162.055V20Z" stroke="#5C4500" stroke-width="3.16497" stroke-miterlimit="10" stroke-linecap="round" stroke-linejoin="round"/>
<path d="M153.747 66.4453H161.897" stroke="#5C4500" stroke-width="3.16497" stroke-miterlimit="10" stroke-linecap="round" stroke-linejoin="round"/>
<path d="M147.101 66.4453H148.92" stroke="#5C4500" stroke-width="3.16497" stroke-miterlimit="10" stroke-linecap="round" stroke-linejoin="round"/>
<path d="M79.2119 66.4453H142.195" stroke="#5C4500" stroke-width="3.16497" stroke-miterlimit="10" stroke-linecap="round" stroke-linejoin="round"/>
<path d="M134.045 65.6542V58.2957C131.592 58.2957 127.478 57.5044 129.139 52.5987C130.801 47.693 141.404 46.9018 143.856 51.8075C146.784 57.7418 139.742 58.3748 139.742 58.3748V62.4892" stroke="#5C4500" stroke-width="3.16497" stroke-miterlimit="10" stroke-linecap="round" stroke-linejoin="round"/>
<path d="M78.8952 48.6419C82.5349 47.9298 85.9373 48.8002 87.3615 51.7278C90.2891 57.6621 83.247 58.2951 83.247 58.2951V62.4095" stroke="#5C4500" stroke-width="3.16497" stroke-miterlimit="10" stroke-linecap="round" stroke-linejoin="round"/>
<path d="M156.121 65.6537V58.2951C153.668 58.2951 149.553 57.5039 151.215 52.5982C152.402 49.1167 157.703 47.2177 161.897 48.5628" stroke="#5C4500" stroke-width="3.16497" stroke-miterlimit="10" stroke-linecap="round" stroke-linejoin="round"/>
<path d="M127.478 28.7817L129.931 31.2346L132.383 28.7817" stroke="#5C4500" stroke-width="4.74745" stroke-miterlimit="10" stroke-linecap="round" stroke-linejoin="round"/>
<path d="M138.951 28.7817L141.404 31.2346L143.856 28.7817" stroke="#5C4500" stroke-width="4.74745" stroke-miterlimit="10" stroke-linecap="round" stroke-linejoin="round"/>
<path d="M150.424 28.7817L152.877 31.2346L155.329 28.7817" stroke="#5C4500" stroke-width="4.74745" stroke-miterlimit="10" stroke-linecap="round" stroke-linejoin="round"/>
<path d="M84.9881 27.2007H102.949" stroke="#5C4500" stroke-width="3.16497" stroke-miterlimit="10" stroke-linecap="round" stroke-linejoin="round"/>
<path d="M84.9881 32.1055H93.9291" stroke="#5C4500" stroke-width="3.16497" stroke-miterlimit="10" stroke-linecap="round" stroke-linejoin="round"/>
<path d="M111.574 37.0106C113.147 37.0106 114.422 35.1685 114.422 32.8962C114.422 30.6238 113.147 28.7817 111.574 28.7817C110.001 28.7817 108.725 30.6238 108.725 32.8962C108.725 35.1685 110.001 37.0106 111.574 37.0106Z" fill="#FFF3CF" stroke="#5C4500" stroke-width="3.16497" stroke-miterlimit="10" stroke-linecap="round" stroke-linejoin="round"/>
<path d="M102.949 48.4051C102.949 48.4051 103.74 44.2906 106.193 42.7081C108.646 41.0465 115.213 41.0465 116.796 44.3697C118.457 47.6138 117.587 58.2956 117.587 58.2956C117.587 58.2956 115.925 60.7484 113.473 59.9572C111.02 59.166 111.02 58.2956 111.02 58.2956C111.02 58.2956 110.228 60.7484 107.776 60.7484C105.323 60.7484 105.323 58.2956 105.323 58.2956C105.323 58.2956 103.661 59.9572 102.079 59.9572C100.417 59.9572 98.8346 59.166 98.8346 56.7131C98.8346 54.8932 101.287 54.2603 102.079 53.469" fill="#FFF3CF"/>
<path d="M102.949 48.4051C102.949 48.4051 103.74 44.2906 106.193 42.7081C108.646 41.0465 115.213 41.0465 116.796 44.3697C118.457 47.6138 117.587 58.2956 117.587 58.2956C117.587 58.2956 115.925 60.7484 113.473 59.9572C111.02 59.166 111.02 58.2956 111.02 58.2956C111.02 58.2956 110.228 60.7484 107.776 60.7484C105.323 60.7484 105.323 58.2956 105.323 58.2956C105.323 58.2956 103.661 59.9572 102.079 59.9572C100.417 59.9572 98.8346 59.166 98.8346 56.7131C98.8346 54.8932 101.287 54.2602 102.079 53.469" stroke="#5C4500" stroke-width="3.16497" stroke-miterlimit="10" stroke-linecap="round" stroke-linejoin="round"/>
<path d="M107.776 50.8583C108.65 50.8583 109.358 50.1498 109.358 49.2758C109.358 48.4019 108.65 47.6934 107.776 47.6934C106.902 47.6934 106.193 48.4019 106.193 49.2758C106.193 50.1498 106.902 50.8583 107.776 50.8583Z" fill="#5C4500"/>
<path d="M112.76 50.8583C113.634 50.8583 114.343 50.1498 114.343 49.2758C114.343 48.4019 113.634 47.6934 112.76 47.6934C111.886 47.6934 111.178 48.4019 111.178 49.2758C111.178 50.1498 111.886 50.8583 112.76 50.8583Z" fill="#5C4500"/>
<path d="M167.613 61.6523C165.872 65.1338 168.009 69.723 171.886 70.0395C178.136 70.4351 179.798 67.5075 184.071 67.5075C188.343 67.5075 189.293 69.8812 195.781 70.0395C202.269 70.1977 201.478 58.0917 196.731 54.8477C190.48 50.5749 177.345 51.5244 173.705 53.7399" fill="#FCD842"/>
<path d="M167.613 61.6523C165.872 65.1338 168.009 69.723 171.886 70.0395C178.136 70.4351 179.798 67.5075 184.071 67.5075C188.343 67.5075 189.293 69.8812 195.781 70.0395C202.269 70.1977 201.478 58.0917 196.731 54.8477C190.48 50.5749 177.345 51.5244 173.705 53.7399" stroke="#5C4500" stroke-width="3.16497" stroke-miterlimit="10" stroke-linecap="round" stroke-linejoin="round"/>
<path d="M172.835 61.4136H178.453" stroke="#5C4500" stroke-width="3.16497" stroke-miterlimit="10" stroke-linecap="round" stroke-linejoin="round"/>
<path d="M175.604 64.1837V58.645" stroke="#5C4500" stroke-width="3.16497" stroke-miterlimit="10" stroke-linecap="round" stroke-linejoin="round"/>
<path d="M189.768 61.8104C190.991 61.8104 191.983 60.8184 191.983 59.5949C191.983 58.3713 190.991 57.3794 189.768 57.3794C188.544 57.3794 187.552 58.3713 187.552 59.5949C187.552 60.8184 188.544 61.8104 189.768 61.8104Z" fill="#5C4500"/>
<path d="M194.199 65.5281C195.422 65.5281 196.414 64.5362 196.414 63.3126C196.414 62.0891 195.422 61.0972 194.199 61.0972C192.975 61.0972 191.983 62.0891 191.983 63.3126C191.983 64.5362 192.975 65.5281 194.199 65.5281Z" fill="#5C4500"/>
<path d="M183.992 50.7323C183.992 50.7323 184.071 48.042 184.071 46.6969C184.071 45.3518 187.157 44.4815 188.422 46.2222C189.688 47.9629 192.933 47.4091 192.933 45.0353C192.933 42.6616 192.933 41 192.933 41" stroke="#5C4500" stroke-width="3.16497" stroke-miterlimit="10" stroke-linecap="round" stroke-linejoin="round"/>
<path d="M169.195 57.3792L170.066 56.4297" stroke="#5C4500" stroke-width="3.16497" stroke-miterlimit="10" stroke-linecap="round" stroke-linejoin="round"/>
<path d="M77.3433 52.9545C76.0774 53.7457 74.6531 54.1413 73.0706 54.1413C68.6397 54.1413 65 50.5016 65 46.0707C65 41.6397 68.6397 38 73.0706 38C77.5016 38 81.1413 41.6397 81.1413 46.0707C81.1413 46.7037 81.0622 47.3367 80.9039 47.9696" fill="#EE4949"/>
<path d="M77.3433 52.9545C76.0774 53.7457 74.6531 54.1413 73.0706 54.1413C68.6397 54.1413 65 50.5016 65 46.0707C65 41.6397 68.6397 38 73.0706 38C77.5016 38 81.1413 41.6397 81.1413 46.0707C81.1413 46.7037 81.0622 47.3367 80.9039 47.9696" stroke="#5C4500" stroke-width="3.16497" stroke-linecap="round" stroke-linejoin="round"/>
<path d="M72.0908 62.0147H66.7895V56.7134H60.3804V62.0147H55V68.5029H60.3804V73.8042H66.7895V68.5029H72.0908V62.0147Z" fill="white" stroke="#5C4500" stroke-width="3.16497" stroke-miterlimit="10" stroke-linecap="round" stroke-linejoin="round"/>
<path d="M773.41 86H689.539V142.02H773.41V86Z" fill="white"/>
<path d="M741.206 131.417L738.041 122.397L746.745 99.1346L741.76 97.5521L738.2 103.645L737.408 99.372L737.171 99.2137C737.171 97.8686 736.934 93.5959 734.56 93.1211C731.791 92.5673 726.648 93.5959 725.54 94.5454C724.432 95.574 721.742 100.163 721.742 100.163L724.907 100.084L724.195 103.961L726.648 108.709C726.648 108.709 727.676 110.133 727.755 110.608H722.691L718.419 106.335L714.858 108.155L717.469 115.751L724.511 116.542L721.505 130.626L724.986 133.87C724.986 136.956 725.065 140.517 725.302 140.596C725.777 140.675 742.947 141.149 742.947 141.149L738.2 133.712C739.703 132.288 741.206 131.417 741.206 131.417Z" fill="#FFF3CF"/>
<path d="M728.072 103.169C728.946 103.169 729.654 102.46 729.654 101.586C729.654 100.712 728.946 100.004 728.072 100.004C727.198 100.004 726.489 100.712 726.489 101.586C726.489 102.46 727.198 103.169 728.072 103.169Z" fill="#5C4500"/>
<path d="M732.819 103.169C733.693 103.169 734.402 102.46 734.402 101.586C734.402 100.712 733.693 100.004 732.819 100.004C731.945 100.004 731.237 100.712 731.237 101.586C731.237 102.46 731.945 103.169 732.819 103.169Z" fill="#5C4500"/>
<path d="M700.537 119.785L701.328 134.66L706.788 133.473L706.313 119.468L700.537 119.785Z" fill="#FFF3CF"/>
<path d="M713.118 121.446L709.715 133.948L715.887 136.005L719.685 122.712L713.118 121.446Z" fill="#FFF3CF"/>
<path d="M744.292 122.791L749.514 121.525L753.629 133.79L753.312 134.897L748.328 136.005L744.292 122.791Z" fill="#FFF3CF"/>
<path d="M760.671 119.232L756.873 133L762.491 135.374L766.685 120.736L760.671 119.232Z" fill="#FFF3CF"/>
<path d="M708.133 141.464L713.434 120.734L719.447 122.316L714.621 141.227" stroke="#5C4500" stroke-width="3.16497" stroke-miterlimit="10" stroke-linecap="round" stroke-linejoin="round"/>
<path d="M710.19 134.818L715.966 136.322" stroke="#5C4500" stroke-width="2.37372" stroke-miterlimit="10" stroke-linecap="round" stroke-linejoin="round"/>
<path d="M706.432 118.786L700.188 119.072L701.212 141.442L707.456 141.156L706.432 118.786Z" stroke="#5C4500" stroke-width="3.16497" stroke-miterlimit="10" stroke-linecap="round" stroke-linejoin="round"/>
<path d="M701.091 134.343L706.55 134.105" stroke="#5C4500" stroke-width="2.37372" stroke-miterlimit="10" stroke-linecap="round" stroke-linejoin="round"/>
<path d="M749.198 141.385L743.976 122.395L749.989 120.734L755.607 141.148" stroke="#5C4500" stroke-width="3.16497" stroke-miterlimit="10" stroke-linecap="round" stroke-linejoin="round"/>
<path d="M747.932 136.242L753.708 134.66" stroke="#5C4500" stroke-width="2.37372" stroke-miterlimit="10" stroke-linecap="round" stroke-linejoin="round"/>
<path d="M766.675 119.974L760.623 118.411L755.022 140.091L761.075 141.654L766.675 119.974Z" stroke="#5C4500" stroke-width="3.16497" stroke-miterlimit="10" stroke-linecap="round" stroke-linejoin="round"/>
<path d="M757.348 132.84L763.203 134.343" stroke="#5C4500" stroke-width="2.37372" stroke-miterlimit="10" stroke-linecap="round" stroke-linejoin="round"/>
<path d="M724.116 101.111C724.116 101.111 723.958 108.074 728.626 108.233L728.23 109.973L726.252 113.217C723.72 118.044 723.72 122.791 723.72 122.791L721.03 131.97C721.03 131.97 723.166 133.394 724.828 133.552C725.224 134.976 725.54 139.882 725.54 139.882" stroke="#5C4500" stroke-width="3.16497" stroke-miterlimit="10" stroke-linecap="round" stroke-linejoin="round"/>
<path d="M735.114 109.262L742.314 96.6812L747.141 98.1054L741.919 111.082L740.099 115.434C740.099 115.434 737.725 123.346 738.121 123.9C738.516 124.454 740.653 131.258 740.653 131.258C740.653 131.258 739.07 133.395 737.408 133.632C738.833 135.61 744.055 140.832 744.055 140.832" stroke="#5C4500" stroke-width="3.16497" stroke-miterlimit="10" stroke-linecap="round" stroke-linejoin="round"/>
<path d="M721.821 99.133C721.821 99.133 724.116 92.4074 730.446 92.6448C736.38 92.8031 737.092 94.3064 738.516 99.5286" stroke="#5C4500" stroke-width="3.16497" stroke-miterlimit="10" stroke-linecap="round" stroke-linejoin="round"/>
<path d="M742.551 95.5737C742.551 95.5737 741.998 91.934 742.947 91.6175C743.817 91.2219 745.796 91.4593 745.796 91.4593C745.796 91.4593 752.442 90.5889 752.442 92.567C752.442 94.5451 747.22 97.3936 747.22 97.3936L742.551 95.5737Z" fill="#FFF3CF" stroke="#5C4500" stroke-width="3.16497" stroke-miterlimit="10" stroke-linecap="round" stroke-linejoin="round"/>
<path d="M744.292 106.571C744.292 106.571 744.846 109.261 747.932 107.679" stroke="#5C4500" stroke-width="3.16497" stroke-miterlimit="10" stroke-linecap="round" stroke-linejoin="round"/>
<path d="M726.252 110.844L721.742 110.29L718.656 106.413L714.621 108.708L718.102 115.196L724.353 116.066" stroke="#5C4500" stroke-width="3.16497" stroke-miterlimit="10" stroke-linecap="round" stroke-linejoin="round"/>
<path d="M718.498 106.413C718.498 106.413 717.944 103.96 717.39 103.407C716.836 102.853 714.7 102.22 713.75 103.96C712.801 105.701 715.254 108.391 715.254 108.391L718.498 106.413Z" fill="#FFF3CF" stroke="#5C4500" stroke-width="3.16497" stroke-miterlimit="10" stroke-linecap="round" stroke-linejoin="round"/>
<path d="M773.41 86H689.539V142.02H773.41V86Z" stroke="#5C4500" stroke-width="3.16497" stroke-miterlimit="10" stroke-linecap="round" stroke-linejoin="round"/>
<path d="M668.438 98.9057H679.99V94H668.438V98.9057Z" fill="#EE4949"/>
<path d="M667.168 110.116C669.154 109.593 670.412 107.833 669.978 106.185C669.544 104.537 667.582 103.625 665.596 104.148C663.61 104.671 662.352 106.431 662.786 108.079C663.22 109.727 665.182 110.639 667.168 110.116Z" fill="#EE4949"/>
<path d="M680.222 110.106C682.208 109.583 683.466 107.823 683.032 106.175C682.598 104.527 680.636 103.615 678.65 104.138C676.664 104.661 675.406 106.421 675.84 108.069C676.274 109.717 678.236 110.629 680.222 110.106Z" fill="#EE4949"/>
<path d="M668.674 108.954C667.883 110.616 662.107 111.407 662.107 107.293C662.107 103.178 667.804 103.178 667.804 103.178V94.1582H680.068V103.97C680.068 103.97 675.163 103.178 675.163 107.214C675.163 111.328 680.86 111.328 682.521 108.875" stroke="#5C4500" stroke-width="3.16497" stroke-miterlimit="10" stroke-linecap="round" stroke-linejoin="round"/>
<path d="M668.675 99.0625H674.372" stroke="#5C4500" stroke-width="3.16497" stroke-miterlimit="10" stroke-linecap="round" stroke-linejoin="round"/>
<path d="M788.186 138.397L786.478 144.113L781.781 142.849L785.104 131.661C782.676 129.76 781.527 126.477 782.531 123.129C783.835 118.801 788.214 116.216 792.364 117.312C796.514 118.409 798.79 122.765 797.485 127.093C796.581 130.114 794.052 132.386 791.227 133.019" fill="#FCD842"/>
<path d="M788.186 138.397L786.478 144.113L781.781 142.849L785.104 131.661C782.676 129.76 781.527 126.477 782.531 123.129C783.835 118.801 788.214 116.216 792.364 117.312C796.514 118.409 798.79 122.765 797.485 127.093C796.581 130.114 794.052 132.386 791.227 133.019" stroke="#5C4500" stroke-width="3.16497" stroke-miterlimit="10" stroke-linecap="round" stroke-linejoin="round"/>
<path d="M782.465 124.427L792.255 125.493" stroke="#5C4500" stroke-width="3.16497" stroke-miterlimit="10" stroke-linecap="round" stroke-linejoin="round"/>
<path d="M790.079 108.215C792.177 108.215 793.877 106.904 793.877 105.287C793.877 103.67 792.177 102.359 790.079 102.359C787.982 102.359 786.281 103.67 786.281 105.287C786.281 106.904 787.982 108.215 790.079 108.215Z" fill="white"/>
<path d="M801.552 102.121C801.948 98.3232 797.28 95 797.28 95L793.719 103.625C793.719 103.625 789.367 101.013 786.677 103.545C784.62 105.524 787.468 110.034 792.295 107.739" stroke="#5C4500" stroke-width="3.16497" stroke-miterlimit="10" stroke-linecap="round" stroke-linejoin="round"/>
<path d="M850.747 21H766.875V77.0199H850.747V21Z" fill="white"/>
<path d="M804.617 48.2983C805.491 48.2983 806.2 47.5898 806.2 46.7158C806.2 45.8418 805.491 45.1333 804.617 45.1333C803.743 45.1333 803.035 45.8418 803.035 46.7158C803.035 47.5898 803.743 48.2983 804.617 48.2983Z" fill="#5C4500"/>
<path d="M810.314 48.2983C811.188 48.2983 811.897 47.5898 811.897 46.7158C811.897 45.8418 811.188 45.1333 810.314 45.1333C809.44 45.1333 808.732 45.8418 808.732 46.7158C808.732 47.5898 809.44 48.2983 810.314 48.2983Z" fill="#5C4500"/>
<path d="M811.343 64.2017L812.134 68.237V76.4659" stroke="#FFF3CF" stroke-width="1.58248" stroke-linecap="round" stroke-linejoin="round"/>
<path d="M815.378 61.7495L816.249 66.3387V75.5962" stroke="#FFF3CF" stroke-width="1.58248" stroke-linecap="round" stroke-linejoin="round"/>
<path d="M819.492 56.8433L820.284 63.0941V75.5957" stroke="#FFF3CF" stroke-width="1.58248" stroke-linecap="round" stroke-linejoin="round"/>
<path d="M808.89 59.2966L816.248 55.1821" stroke="#FFF3CF" stroke-width="1.58248" stroke-linecap="round" stroke-linejoin="round"/>
<path d="M812.134 40.4645C814.587 46.1614 815.774 53.5991 822.42 50.1176C826.851 47.823 825.19 38.0117 823.211 35.7962C821.233 33.5807 817.831 29.7827 815.141 28.9915C812.451 28.2003 806.358 28.9124 802.56 31.5235C798.762 34.1346 798.999 42.047 798.999 42.047" fill="#FFF3CF"/>
<path d="M850.747 21H766.875V77.0199H850.747V21Z" stroke="#5C4500" stroke-width="3.16497" stroke-miterlimit="10" stroke-linecap="round" stroke-linejoin="round"/>
<path d="M795.993 42.4419L813.796 40.622C813.796 40.622 812.846 52.6489 820.284 50.829C827.722 49.0092 824.873 41.5715 824.003 37.8527C823.053 34.1338 819.414 29.5446 814.745 28.5952C810.077 27.6457 801.848 28.9908 799.079 36.3493" stroke="#5C4500" stroke-width="3.16497" stroke-linecap="round" stroke-linejoin="round"/>
<path d="M819.492 43.709L820.125 45.1332" stroke="#5C4500" stroke-width="3.16497" stroke-miterlimit="10" stroke-linecap="round" stroke-linejoin="round"/>
<path d="M800.819 42.4434C800.819 42.4434 798.05 52.6504 803.589 54.4702C809.127 56.2901 812.846 53.5207 812.846 53.5207" stroke="#5C4500" stroke-width="3.16497" stroke-linecap="round" stroke-linejoin="round"/>
<path d="M807.228 55.9727C807.228 55.9727 803.114 59.2167 799.87 59.2167C796.626 59.2167 794.173 60.8784 794.964 63.3312C795.755 65.784 797.417 67.4457 804.775 65.784C812.134 64.1224 816.248 59.2167 816.248 59.2167" stroke="#5C4500" stroke-width="3.16497" stroke-miterlimit="10" stroke-linecap="round" stroke-linejoin="round"/>
<path d="M799.87 60.0874L801.531 65.7843" stroke="#5C4500" stroke-width="3.16497" stroke-miterlimit="10" stroke-linecap="round" stroke-linejoin="round"/>
<path d="M817.831 54.3101C822.737 55.9717 823.528 60.007 823.528 64.1214C823.528 68.2359 823.528 76.3857 823.528 76.3857" stroke="#5C4500" stroke-width="3.16497" stroke-miterlimit="10" stroke-linecap="round" stroke-linejoin="round"/>
<path d="M804.775 66.6538C804.775 66.6538 806.437 67.445 807.228 68.3154C808.019 69.1067 808.019 75.674 808.019 75.674" stroke="#5C4500" stroke-width="3.16497" stroke-miterlimit="10" stroke-linecap="round" stroke-linejoin="round"/>
<path d="M790.691 54.4698L789.03 50.5927C788.792 50.0388 788.476 49.6432 788.08 49.2476C787.21 48.5355 786.26 47.0321 785.865 46.0826L778.981 31.2864C778.19 29.4665 778.506 26.7763 779.93 26.1433L782.225 25.1938C783.728 24.5608 785.786 26.2224 786.577 28.0423L792.432 43.3133C792.828 44.2627 793.302 46.0035 793.144 47.0321C793.065 47.586 793.223 48.1398 793.381 48.6146L795.043 52.4917" fill="#FFF3CF"/>
<path d="M790.691 54.4698L789.03 50.5927C788.792 50.0388 788.476 49.6432 788.08 49.2476C787.21 48.5355 786.26 47.0321 785.865 46.0826L778.981 31.2864C778.19 29.4665 778.506 26.7763 779.93 26.1433L782.225 25.1938C783.728 24.5608 785.786 26.2224 786.577 28.0423L792.432 43.3133C792.828 44.2627 793.302 46.0035 793.144 47.0321C793.065 47.586 793.223 48.1398 793.381 48.6146L795.043 52.4917" stroke="#5C4500" stroke-width="3.16497" stroke-miterlimit="10" stroke-linecap="round" stroke-linejoin="round"/>
<path d="M767.112 49.4058C767.112 49.4058 773.68 58.4259 785.944 60.0084" stroke="#5C4500" stroke-width="3.16497" stroke-miterlimit="10" stroke-linecap="round" stroke-linejoin="round"/>
<path d="M828.513 60.8782C828.513 60.8782 844.891 57.6341 850.588 47.8228" stroke="#5C4500" stroke-width="3.16497" stroke-miterlimit="10" stroke-linecap="round" stroke-linejoin="round"/>
<path d="M806.675 56.9219L811.343 63.3309" stroke="#5C4500" stroke-width="3.16497" stroke-miterlimit="10" stroke-linecap="round" stroke-linejoin="round"/>
<path d="M790.058 55.814C790.691 54.5481 792.907 51.7787 796.626 53.9151C799.079 55.3393 798.683 57.5548 797.1 59.1373C795.518 60.6406 789.346 60.3241 790.058 55.814Z" stroke="#5C4500" stroke-width="3.16497" stroke-miterlimit="10" stroke-linecap="round" stroke-linejoin="round"/>
<path d="M756.467 64.928L761.078 63.3078L748.113 50.6421L743.349 64.294L738.091 66.3723L745.159 73.5522L747.153 68.3538L750.749 67.0937" fill="#EE4949"/>
<path d="M756.467 64.928L761.078 63.3078L748.113 50.6421L743.349 64.294L738.091 66.3723L745.159 73.5522L747.153 68.3538L750.749 67.0937" stroke="#5C4500" stroke-width="3.16497" stroke-linecap="round" stroke-linejoin="round"/>
<path d="M878.257 64.515C883.37 64.515 887.515 60.3703 887.515 55.2575C887.515 50.1447 883.37 46 878.257 46C873.144 46 869 50.1447 869 55.2575C869 60.3703 873.144 64.515 878.257 64.515Z" fill="#FCD842" stroke="#5C4500" stroke-width="3.16497" stroke-miterlimit="10" stroke-linecap="round" stroke-linejoin="round"/>
<path d="M873.431 47.6611C873.431 47.6611 876.042 49.7975 874.776 54.4658C873.51 59.1341 870.187 59.3715 870.187 59.3715" stroke="#5C4500" stroke-width="3.16497" stroke-miterlimit="10" stroke-linecap="round" stroke-linejoin="round"/>
<path d="M886.328 51.1426C886.328 51.1426 882.926 51.6964 881.66 56.3648C880.394 61.0331 883.084 62.8529 883.084 62.8529" stroke="#5C4500" stroke-width="3.16497" stroke-miterlimit="10" stroke-linecap="round" stroke-linejoin="round"/>
<path d="M856.739 85.1615C863.687 85.1615 869.319 79.5289 869.319 72.5807C869.319 65.6326 863.687 60 856.739 60C849.791 60 844.158 65.6326 844.158 72.5807C844.158 79.5289 849.791 85.1615 856.739 85.1615Z" fill="white" stroke="#5C4500" stroke-width="3.16497" stroke-miterlimit="10" stroke-linecap="round" stroke-linejoin="round"/>
<path d="M859.984 71.7897L856.739 69.416L856.423 69.5743V70.2864V69.5743L853.416 71.7897L854.682 75.5877H857.768H858.718L859.984 71.7897Z" fill="#5C4500" stroke="#5C4500" stroke-width="3.16497" stroke-miterlimit="10" stroke-linecap="round" stroke-linejoin="round"/>
<path d="M856.739 64.9062L859.984 62.5324L859.271 60.317C858.48 60.1587 857.61 60.0796 856.739 60.0796C855.869 60.0796 854.999 60.1587 854.207 60.317L853.495 62.5324L856.739 64.9062Z" fill="#5C4500" stroke="#5C4500" stroke-width="3.16497" stroke-miterlimit="10" stroke-linecap="round" stroke-linejoin="round"/>
<path d="M864.177 71.4741L866.155 71.2368L864.177 71.4741L866.788 74.56L869.162 73.5314C869.162 73.2149 869.241 72.8984 869.241 72.5819C869.241 71.1576 869.004 69.8125 868.529 68.5465L866.235 67.9927L864.177 71.4741Z" fill="#5C4500"/>
<path d="M864.177 71.4741L866.155 71.2368L864.177 71.4741ZM864.177 71.4741L866.788 74.56L869.162 73.5314C869.162 73.2149 869.241 72.8984 869.241 72.5819C869.241 71.1576 869.004 69.8125 868.529 68.5465L866.235 67.9927L864.177 71.4741Z" stroke="#5C4500" stroke-width="3.16497" stroke-miterlimit="10" stroke-linecap="round" stroke-linejoin="round"/>
<path d="M848.906 71.8688L846.295 71.7105L848.906 71.8688L849.223 71.5523L847.166 68.0708L844.792 68.5455C844.396 69.8115 844.08 71.1566 844.08 72.5809C844.08 72.8974 844.08 73.2139 844.159 73.5304L846.533 74.559L848.906 71.8688Z" fill="#5C4500"/>
<path d="M848.906 71.8688L846.295 71.7105L848.906 71.8688ZM848.906 71.8688L849.223 71.5523L847.166 68.0708L844.792 68.5455C844.396 69.8115 844.08 71.1566 844.08 72.5809C844.08 72.8974 844.08 73.2139 844.159 73.5304L846.533 74.559L848.906 71.8688Z" stroke="#5C4500" stroke-width="3.16497" stroke-miterlimit="10" stroke-linecap="round" stroke-linejoin="round"/>
<path d="M851.201 80.0183L850.805 79.9392L850.568 80.2557L850.805 79.9392L847.245 79.1479L846.612 80.1766C847.878 81.8382 849.539 83.1833 851.438 84.0536H851.517L851.201 80.0183Z" fill="#5C4500" stroke="#5C4500" stroke-width="3.16497" stroke-miterlimit="10" stroke-linecap="round" stroke-linejoin="round"/>
<path d="M862.595 79.9392L863.07 80.3348L862.595 79.9392L862.199 80.0183L861.883 84.0536H861.962C863.861 83.1833 865.522 81.8382 866.788 80.1766L866.155 79.1479L862.595 79.9392Z" fill="#5C4500"/>
<path d="M862.595 79.9392L863.07 80.3348L862.595 79.9392ZM862.595 79.9392L862.199 80.0183L861.883 84.0536H861.962C863.861 83.1833 865.522 81.8382 866.788 80.1766L866.155 79.1479L862.595 79.9392Z" stroke="#5C4500" stroke-width="3.16497" stroke-miterlimit="10" stroke-linecap="round" stroke-linejoin="round"/>
<defs>
<clipPath id="clip0">
<rect width="246.1" height="186.8" fill="white" transform="translate(312 8)"/>
</clipPath>
</defs>
</svg>
