<svg width="67" height="67" viewBox="0 0 67 67" fill="none" xmlns="http://www.w3.org/2000/svg">
<path d="M22.7357 59.5888C21.8409 59.6572 20.6444 58.0961 20.1674 57.3579L24.6451 56.7721C24.3073 57.6611 23.6306 59.5203 22.7357 59.5888Z" fill="white"/>
<path d="M48.7045 56.3046C47.8097 56.373 46.6132 54.8119 46.1362 54.0738L50.6138 53.4879C50.276 54.3769 49.5993 56.2361 48.7045 56.3046Z" fill="white"/>
<path d="M59.4625 48.4139C59.611 49.3911 58.867 50.2743 57.9722 50.3427L12.3846 56.1086C11.4074 56.2571 10.5242 55.5131 10.4558 54.6183L6.50434 24.1709C6.35699 23.1124 7.18106 22.3116 7.99465 22.242L53.6635 16.4773C54.477 16.4077 55.445 16.9092 55.5923 17.9676L59.4625 48.4139Z" fill="white"/>
<path d="M20.086 40.3738C21.7144 40.1534 22.7915 38.7062 22.6523 37.079C22.4319 35.4507 20.9846 34.3736 19.3575 34.5127C17.7291 34.7332 16.652 36.1804 16.7912 37.8076C17.0116 39.4359 18.4577 40.5943 20.086 40.3738Z" fill="#252525"/>
<path d="M53.4699 12.981L36.4565 15.0936L43.1617 6.49507C43.9069 5.53065 43.6818 4.22728 42.7986 3.48329C41.6706 2.81705 40.366 3.12338 39.7044 3.92648L30.4318 15.9011L18.4572 6.62844C17.4927 5.88329 16.1905 6.02713 15.4454 6.99156C14.7815 7.95714 14.9253 9.25935 15.8085 10.0033L24.4082 16.6273L7.31245 18.82C4.62564 19.1878 2.88578 21.5193 3.17347 24.1237L7.19337 55.466C7.48106 58.0704 9.8927 59.8927 12.4971 59.605L17.1372 59.0214C17.1372 59.0214 19.8377 63.3668 23.1745 63.0084C26.4311 62.5675 28.0446 57.7151 28.0446 57.7151L43.1047 55.8183C43.1047 55.8183 45.8052 60.1637 49.1419 59.8053C52.4798 59.3656 54.0121 54.512 54.0121 54.512L58.6522 53.9285C61.2566 53.6408 63.0789 51.2292 62.7912 48.6247L58.8537 17.2024C58.4047 14.5144 55.993 12.6922 53.4699 12.981ZM22.7359 59.5892C21.8411 59.6577 20.6446 58.0966 20.1676 57.3584L24.6453 56.7726C24.3075 57.6616 23.6308 59.5208 22.7359 59.5892ZM48.7046 56.3049C47.8097 56.3733 46.6132 54.8122 46.1363 54.0741L50.6139 53.4882C50.2761 54.3772 49.5994 56.2365 48.7046 56.3049ZM59.4626 48.4145C59.6111 49.3917 58.8671 50.2749 57.9723 50.3434L12.3847 56.1092C11.4075 56.2577 10.5243 55.5137 10.4559 54.6189L6.5044 24.1715C6.35706 23.113 7.18112 22.3122 7.99471 22.2426L53.6635 16.4779C54.4771 16.4083 55.445 16.9098 55.5924 17.9682L59.4626 48.4145Z" fill="#252525"/>
<path d="M45.8043 31.8855C47.4326 31.6651 48.5097 30.2179 48.3705 28.5907C48.1501 26.9624 46.7029 25.8853 45.0757 26.0245C43.4474 26.2449 42.3703 27.6921 42.5095 29.3193C42.8111 30.9488 44.2572 32.1071 45.8043 31.8855Z" fill="#252525"/>
<path d="M38.3141 44.2109L34.5388 41.1502C34.2174 40.9018 33.8935 40.8159 33.5674 40.8925C33.2413 40.9691 32.914 41.1269 32.6668 41.3671L29.7674 45.226C29.2706 45.8689 29.7487 46.5259 30.5623 46.4563L37.8893 45.5049C38.6216 45.4342 38.9571 44.7077 38.3141 44.2109Z" fill="#252525"/>
<path d="M50.9828 19.2754L10.4427 24.3824C9.62916 24.4519 9.04882 25.2562 9.11841 26.0698L12.3297 51.4686C12.3993 52.2822 13.2035 52.8625 14.0171 52.7929L54.4759 47.6848C55.2895 47.6152 55.8699 46.811 55.8003 45.9974L52.6703 20.5998C52.6007 19.7862 51.7964 19.2059 50.9828 19.2754ZM54.5793 46.1424C54.5782 46.2236 54.4946 46.385 54.4133 46.3838L13.9545 51.4919C13.8733 51.4907 13.7119 51.4071 13.7131 51.3259L10.4206 25.926C10.4218 25.8447 10.5054 25.6834 10.5866 25.6846L51.1267 20.5776C51.2079 20.5788 51.3692 20.6624 51.3681 20.7436L54.5793 46.1424Z" fill="#252525"/>
</svg>
