<svg width="141" height="43" viewBox="0 0 141 43" fill="none" xmlns="http://www.w3.org/2000/svg">
<path d="M94.6307 15.275C96.2396 15.4019 97.6467 14.2004 97.7735 12.5915C97.9003 10.9826 96.6989 9.57548 95.09 9.44865C93.481 9.32181 92.0739 10.5233 91.9471 12.1322C91.8203 13.7411 93.0217 15.1482 94.6307 15.275Z" fill="white"/>
<path d="M102.255 21.5078L84.8115 17.6193L81.614 31.9627L99.0577 35.8513L102.255 21.5078Z" fill="white"/>
<path d="M90.6895 28.0915L88.6209 29.5427C88.3509 29.7339 88.4443 30.1661 88.7787 30.2349L92.3275 31.0245C92.6619 31.0933 92.903 30.73 92.7541 30.4633L91.4817 28.2814C91.2939 27.9692 90.9594 27.9003 90.6895 28.0915Z" fill="#252525"/>
<path d="M95.1746 25.6414C94.978 26.518 95.5447 27.4124 96.4214 27.6089C97.298 27.8055 98.1924 27.2387 98.3889 26.3621C98.5855 25.4855 98.0187 24.5911 97.1421 24.3946C96.2654 24.198 95.3711 24.7648 95.1746 25.6414Z" fill="#252525"/>
<path d="M84.7001 24.8577C84.5035 25.7344 85.0702 26.6287 85.9469 26.8253C86.8235 27.0218 87.7178 26.4551 87.9144 25.5784C88.1109 24.7018 87.5442 23.8075 86.6676 23.6109C85.7942 23.3721 84.8999 23.9389 84.7001 24.8577Z" fill="#252525"/>
<path d="M81.5092 32.466C81.3027 33.4693 81.9538 34.3703 82.9538 34.6191L94.3923 37.1776C98.5255 38.0982 102.654 34.7701 103.781 29.6336C104.908 24.4971 102.608 19.7276 98.4745 18.8071L95.1757 18.0797L95.3822 17.0764C97.3121 16.8462 98.9518 15.4461 99.4071 13.4428C99.9901 10.8973 98.361 8.38989 95.8545 7.85243C93.309 7.26943 90.8015 8.89851 90.2641 11.4051C89.8088 13.4084 90.7145 15.3915 92.3756 16.4146L92.1724 17.3756L87.0359 16.2485C86.0326 16.042 85.0116 16.5987 84.8018 17.6443C84.5919 18.6898 85.2431 19.5908 86.2464 19.7973L97.8538 22.3692C99.8993 22.8278 101.024 25.8053 100.359 28.8541C99.6937 31.9028 97.3441 34.2241 95.3408 33.7688L83.7334 31.1969C82.6912 30.9448 81.7191 31.4205 81.5092 32.466ZM96.6116 12.7976C96.4084 13.7587 95.4686 14.3643 94.5108 14.1189C93.5497 13.9157 92.9441 12.9758 93.1895 12.0181C93.3927 11.057 94.3326 10.4513 95.2904 10.6968C96.2092 10.8967 96.8149 11.8365 96.6116 12.7976Z" fill="#252525"/>
<path d="M49.7702 38.3253C49.2085 38.3682 48.4576 37.3884 48.1582 36.9251L50.9685 36.5574C50.7565 37.1154 50.3318 38.2823 49.7702 38.3253Z" fill="white"/>
<path d="M66.069 36.264C65.5074 36.3069 64.7564 35.3272 64.457 34.8639L67.2674 34.4961C67.0554 35.0541 66.6306 36.221 66.069 36.264Z" fill="white"/>
<path d="M72.8209 31.3118C72.9141 31.9251 72.4471 32.4795 71.8855 32.5224L43.273 36.1413C42.6596 36.2345 42.1053 35.7675 42.0624 35.2059L39.5823 16.0959C39.4898 15.4316 40.007 14.929 40.5177 14.8853L69.1811 11.2672C69.6918 11.2235 70.2993 11.5382 70.3918 12.2026L72.8209 31.3118Z" fill="white"/>
<path d="M48.1077 26.2652C49.1297 26.1269 49.8058 25.2186 49.7184 24.1973C49.5801 23.1753 48.6717 22.4992 47.6505 22.5866C46.6284 22.725 45.9524 23.6333 46.0398 24.6546C46.1781 25.6766 47.0857 26.4036 48.1077 26.2652Z" fill="#252525"/>
<path d="M69.06 9.07261L58.3818 10.3986L62.5902 5.00177C63.0579 4.39646 62.9166 3.57842 62.3623 3.11146C61.6543 2.6933 60.8355 2.88557 60.4203 3.38963L54.6004 10.9054L47.0847 5.08548C46.4794 4.61779 45.6621 4.70808 45.1944 5.31339C44.7777 5.91942 44.868 6.73674 45.4223 7.20369L50.8198 11.3612L40.0898 12.7374C38.4035 12.9682 37.3115 14.4316 37.492 16.0662L40.0151 35.7378C40.1957 37.3724 41.7093 38.5161 43.3439 38.3356L46.2562 37.9693C46.2562 37.9693 47.9512 40.6967 50.0454 40.4717C52.0894 40.195 53.1021 37.1494 53.1021 37.1494L62.5544 35.9589C62.5544 35.9589 64.2493 38.6863 66.3436 38.4613C68.4386 38.1853 69.4003 35.139 69.4003 35.139L72.3126 34.7728C73.9472 34.5922 75.091 33.0786 74.9104 31.444L72.4391 11.7221C72.1573 10.035 70.6436 8.89131 69.06 9.07261ZM49.7702 38.3257C49.2086 38.3686 48.4576 37.3889 48.1582 36.9256L50.9686 36.5578C50.7566 37.1158 50.3318 38.2827 49.7702 38.3257ZM66.0691 36.2643C65.5075 36.3073 64.7565 35.3275 64.4571 34.8642L67.2675 34.4965C67.0555 35.0544 66.6307 36.2214 66.0691 36.2643ZM72.8212 31.312C72.9145 31.9254 72.4475 32.4797 71.8859 32.5226L43.2734 36.1415C42.66 36.2347 42.1057 35.7678 42.0628 35.2061L39.5827 16.0962C39.4902 15.4318 40.0074 14.9292 40.518 14.8856L69.1815 11.2674C69.6922 11.2237 70.2997 11.5384 70.3921 12.2028L72.8212 31.312Z" fill="#252525"/>
<path d="M64.2484 20.9378C65.2704 20.7995 65.9464 19.8912 65.859 18.8699C65.7207 17.8479 64.8124 17.1718 63.7911 17.2592C62.7691 17.3976 62.093 18.3059 62.1804 19.3272C62.3697 20.3499 63.2773 21.0769 64.2484 20.9378Z" fill="#252525"/>
<path d="M59.5481 28.6734L57.1786 26.7524C56.9768 26.5965 56.7736 26.5426 56.5689 26.5906C56.3642 26.6387 56.1588 26.7378 56.0036 26.8885L54.1839 29.3105C53.8721 29.714 54.1722 30.1263 54.6828 30.0827L59.2815 29.4856C59.7411 29.4412 59.9517 28.9852 59.5481 28.6734Z" fill="#252525"/>
<path d="M67.4981 13.0229L42.0536 16.2282C41.543 16.2718 41.1788 16.7766 41.2224 17.2873L43.2379 33.2285C43.2816 33.7391 43.7864 34.1034 44.297 34.0597L69.6906 30.8537C70.2012 30.81 70.5654 30.3052 70.5218 29.7946L68.5572 13.8541C68.5136 13.3434 68.0088 12.9792 67.4981 13.0229ZM69.7554 29.8856C69.7547 29.9366 69.7022 30.0378 69.6513 30.0371L44.2577 33.2431C44.2068 33.2424 44.1055 33.1899 44.1062 33.139L42.0397 17.197C42.0405 17.146 42.0929 17.0447 42.1439 17.0455L67.5884 13.8402C67.6394 13.8409 67.7407 13.8934 67.7399 13.9444L69.7554 29.8856Z" fill="#252525"/>
<path fill-rule="evenodd" clip-rule="evenodd" d="M115.896 8.35408C115.653 8.11669 115.306 8.01995 114.975 8.09761C114.644 8.17527 114.376 8.41656 114.264 8.73729L111.963 15.3308L109.681 16.2329C109.371 16.3553 109.143 16.625 109.074 16.951C109.005 17.277 109.104 17.6159 109.338 17.8533L112.974 21.5468C113.211 21.7875 113.554 21.8913 113.885 21.8224C114.215 21.7534 114.488 21.5211 114.609 21.2058L115.47 18.9611L116.886 18.465C117.404 18.2836 117.676 17.7169 117.495 17.1992C117.492 17.1914 117.489 17.1836 117.486 17.1759L118.571 16.7653C118.761 17.2682 119.319 17.5298 119.829 17.3506L122.2 16.5171C122.524 16.4032 122.767 16.1301 122.841 15.7948C122.915 15.4595 122.811 15.1096 122.565 14.8696L115.896 8.35408ZM135.111 25.455C134.992 25.1693 134.803 24.9275 134.545 24.7586C134.529 24.7486 134.514 24.7389 134.498 24.7296C134.532 24.6653 134.559 24.597 134.578 24.5257C134.652 24.2463 134.601 23.9483 134.437 23.7097L131.916 20.0246C132.053 19.9988 132.197 19.9753 132.345 19.9561C133.344 19.8269 134.291 19.9207 134.892 20.41C135.318 20.7562 135.943 20.6919 136.29 20.2665C136.636 19.841 136.572 19.2154 136.146 18.8692C134.888 17.8457 133.231 17.8384 132.09 17.9861C131.492 18.0635 130.964 18.1929 130.587 18.3019C130.398 18.3568 130.243 18.4073 130.134 18.445C130.08 18.4639 130.036 18.4796 130.005 18.4911L129.967 18.5052L129.956 18.5096L129.952 18.5111L129.949 18.5122C129.667 18.6225 129.451 18.8554 129.362 19.1447C129.273 19.434 129.32 19.7481 129.491 19.998L132.214 23.9778C132.004 24.1319 131.776 24.3163 131.551 24.5301C130.79 25.2532 129.889 26.4874 130.179 28.1159L130.181 28.1264C130.481 29.7169 132.078 30.3196 133.368 30.0685C134.775 29.7944 135.998 28.5912 136.274 26.5664C136.348 26.0228 135.967 25.5222 135.424 25.4481C135.317 25.4335 135.211 25.4365 135.111 25.455ZM129.949 18.5122L130.311 19.4372L129.994 18.6281L129.993 18.6242C129.949 18.5123 129.949 18.5123 129.949 18.5122ZM118.931 35.8236C118.941 35.8476 118.95 35.8722 118.958 35.8974C119.127 36.4194 118.84 36.9792 118.318 37.1477L116.333 37.7887C115.926 37.92 115.481 37.7764 115.228 37.4322L113.988 35.748C113.128 34.5504 112.407 33.4377 111.998 32.3672C111.576 31.2622 111.466 30.1485 111.889 29.0064C112.64 26.981 114.867 26.0322 116.85 26.7674C117.667 27.0701 118.316 27.6362 118.744 28.3268C119.479 28.0194 120.311 27.9364 121.155 28.1569L121.158 28.1577C123.189 28.6948 124.391 30.786 123.925 32.8035C123.922 32.818 123.918 32.8325 123.914 32.8469C123.488 34.3753 122.402 35.3109 120.971 36.052C120.484 36.3044 119.885 36.1141 119.633 35.627C119.619 35.6013 119.607 35.5753 119.596 35.5491L118.931 35.8236Z" fill="#5C4500"/>
<path d="M114.975 8.09761L115.318 9.55789L115.318 9.55789L114.975 8.09761ZM115.896 8.35408L116.944 7.28113L116.944 7.28113L115.896 8.35408ZM114.264 8.73729L112.848 8.24307L112.848 8.24307L114.264 8.73729ZM111.963 15.3308L112.515 16.7258C112.92 16.5656 113.236 16.2368 113.379 15.825L111.963 15.3308ZM109.681 16.2329L110.232 17.6279L110.232 17.6279L109.681 16.2329ZM109.074 16.951L110.542 17.2614L110.542 17.2614L109.074 16.951ZM109.338 17.8533L108.269 18.9056L108.269 18.9056L109.338 17.8533ZM112.974 21.5468L111.905 22.5991L112.974 21.5468ZM113.885 21.8224L113.578 20.354L113.578 20.354L113.885 21.8224ZM114.609 21.2058L116.01 21.743L116.01 21.743L114.609 21.2058ZM115.47 18.9611L114.974 17.5455C114.558 17.6912 114.228 18.0124 114.07 18.4239L115.47 18.9611ZM116.886 18.465L116.39 17.0494L116.39 17.0494L116.886 18.465ZM117.495 17.1992L116.079 17.6952L116.079 17.6952L117.495 17.1992ZM117.486 17.1759L116.955 15.7731C116.181 16.0664 115.79 16.9318 116.083 17.7064L117.486 17.1759ZM118.571 16.7653L119.974 16.2347C119.833 15.8625 119.55 15.5615 119.187 15.3979C118.824 15.2343 118.411 15.2216 118.039 15.3625L118.571 16.7653ZM119.829 17.3506L119.331 15.9354L119.331 15.9354L119.829 17.3506ZM122.2 16.5171L122.698 17.9323L122.698 17.9323L122.2 16.5171ZM122.841 15.7948L124.305 16.119L124.305 16.119L122.841 15.7948ZM122.565 14.8696L123.613 13.7967L123.613 13.7967L122.565 14.8696ZM134.545 24.7586L133.724 26.0139L133.724 26.0139L134.545 24.7586ZM135.111 25.455L133.725 26.0286C133.995 26.6819 134.685 27.0577 135.38 26.9305L135.111 25.455ZM134.498 24.7296L133.168 24.0363C132.802 24.7394 133.046 25.6064 133.725 26.015L134.498 24.7296ZM134.578 24.5257L136.027 24.9111L136.027 24.9111L134.578 24.5257ZM134.437 23.7097L135.675 22.8627L135.675 22.8627L134.437 23.7097ZM131.916 20.0246L131.638 18.5507C131.14 18.6446 130.724 18.9834 130.53 19.4514C130.337 19.9195 130.392 20.4536 130.678 20.8716L131.916 20.0246ZM132.345 19.9561L132.538 21.4437L132.538 21.4437L132.345 19.9561ZM134.892 20.41L133.946 21.5734L133.946 21.5734L134.892 20.41ZM136.29 20.2665L135.126 19.3197L135.126 19.3197L136.29 20.2665ZM136.146 18.8692L137.093 17.7057L137.093 17.7057L136.146 18.8692ZM132.09 17.9861L131.898 16.4985L131.898 16.4985L132.09 17.9861ZM130.587 18.3019L130.171 16.861L130.171 16.861L130.587 18.3019ZM130.134 18.445L130.624 19.8629L130.624 19.8629L130.134 18.445ZM130.005 18.4911L129.485 17.084L129.479 17.0864L130.005 18.4911ZM129.967 18.5052L129.441 17.1004L129.431 17.1044L129.967 18.5052ZM129.956 18.5096L129.419 17.1088L129.414 17.1108L129.956 18.5096ZM129.952 18.5111L129.41 17.1123L129.407 17.1135L129.952 18.5111ZM129.362 19.1447L127.928 18.7029L127.928 18.7029L129.362 19.1447ZM129.491 19.998L130.729 19.151L130.729 19.151L129.491 19.998ZM132.214 23.9778L133.102 25.1869C133.754 24.7081 133.909 23.7985 133.452 23.1308L132.214 23.9778ZM131.551 24.5301L130.518 23.4425L130.518 23.4425L131.551 24.5301ZM130.179 28.1159L128.702 28.3784C128.703 28.3836 128.704 28.3888 128.705 28.394L130.179 28.1159ZM130.181 28.1264L128.707 28.4045L128.707 28.4046L130.181 28.1264ZM133.368 30.0685L133.654 31.5408L133.654 31.5408L133.368 30.0685ZM136.274 26.5664L134.787 26.3638L134.787 26.3638L136.274 26.5664ZM135.424 25.4481L135.221 26.9343L135.221 26.9343L135.424 25.4481ZM130.311 19.4372L128.914 19.9838C129.216 20.7553 130.086 21.1359 130.857 20.8341C131.629 20.5322 132.01 19.6622 131.708 18.8907L130.311 19.4372ZM129.994 18.6281L128.597 19.1742L128.597 19.1747L129.994 18.6281ZM129.993 18.6242L131.39 18.078L131.389 18.0773L129.993 18.6242ZM118.931 35.8236L118.359 34.437C117.594 34.7529 117.229 35.6288 117.544 36.3943L118.931 35.8236ZM118.958 35.8974L120.386 35.4365L120.386 35.4365L118.958 35.8974ZM118.318 37.1477L117.858 35.7202L117.858 35.7202L118.318 37.1477ZM116.333 37.7887L116.794 39.2162L116.794 39.2162L116.333 37.7887ZM115.228 37.4322L114.02 38.3212L114.02 38.3212L115.228 37.4322ZM113.988 35.748L112.77 36.6233C112.774 36.6279 112.777 36.6324 112.78 36.637L113.988 35.748ZM111.998 32.3672L110.597 32.9025L110.597 32.9025L111.998 32.3672ZM111.889 29.0064L110.482 28.485L110.482 28.485L111.889 29.0064ZM116.85 26.7674L116.329 28.1739L116.329 28.1739L116.85 26.7674ZM118.744 28.3268L117.469 29.1171C117.858 29.7434 118.643 29.9949 119.323 29.7106L118.744 28.3268ZM121.155 28.1569L121.536 26.706L121.534 26.7055L121.155 28.1569ZM121.158 28.1577L121.542 26.7075L121.539 26.7068L121.158 28.1577ZM123.925 32.8035L125.387 33.1406L125.387 33.1406L123.925 32.8035ZM123.914 32.8469L122.469 32.4441L122.469 32.4441L123.914 32.8469ZM120.971 36.052L120.281 34.7201L120.281 34.7201L120.971 36.052ZM119.633 35.627L118.301 36.3169L118.301 36.3169L119.633 35.627ZM119.596 35.5491L120.982 34.9752C120.666 34.2105 119.789 33.8468 119.024 34.1626L119.596 35.5491ZM115.318 9.55789C115.149 9.59751 114.972 9.54815 114.848 9.42703L116.944 7.28113C116.334 6.68523 115.462 6.44239 114.632 6.63733L115.318 9.55789ZM115.68 9.23151C115.623 9.39515 115.486 9.51826 115.318 9.55789L114.632 6.63733C113.802 6.83228 113.129 7.43796 112.848 8.24307L115.68 9.23151ZM113.379 15.825L115.68 9.23151L112.848 8.24307L110.547 14.8366L113.379 15.825ZM110.232 17.6279L112.515 16.7258L111.412 13.9358L109.13 14.8379L110.232 17.6279ZM110.542 17.2614C110.507 17.4278 110.39 17.5654 110.232 17.6279L109.13 14.8379C108.352 15.1453 107.78 15.8223 107.607 16.6406L110.542 17.2614ZM110.407 16.801C110.526 16.9222 110.577 17.0951 110.542 17.2614L107.607 16.6406C107.434 17.459 107.682 18.3096 108.269 18.9056L110.407 16.801ZM114.043 20.4945L110.407 16.801L108.269 18.9056L111.905 22.5991L114.043 20.4945ZM113.578 20.354C113.747 20.3188 113.922 20.3717 114.043 20.4945L111.905 22.5991C112.5 23.2034 113.361 23.4639 114.191 23.2908L113.578 20.354ZM113.209 20.6686C113.27 20.5077 113.41 20.3892 113.578 20.354L114.191 23.2908C115.021 23.1176 115.706 22.5346 116.01 21.743L113.209 20.6686ZM114.07 18.4239L113.209 20.6686L116.01 21.743L116.871 19.4983L114.07 18.4239ZM116.39 17.0494L114.974 17.5455L115.966 20.3767L117.382 19.8806L116.39 17.0494ZM116.079 17.6952C115.987 17.4311 116.126 17.142 116.39 17.0494L117.382 19.8806C118.682 19.4253 119.366 18.0027 118.911 16.7032L116.079 17.6952ZM116.083 17.7064C116.082 17.7028 116.081 17.699 116.079 17.6952L118.911 16.7032C118.904 16.6837 118.897 16.6645 118.889 16.6454L116.083 17.7064ZM118.039 15.3625L116.955 15.7731L118.018 18.5787L119.102 18.1681L118.039 15.3625ZM119.331 15.9354C119.592 15.8439 119.876 15.9774 119.974 16.2347L117.168 17.2959C117.645 18.559 119.046 19.2157 120.326 18.7657L119.331 15.9354ZM121.703 15.102L119.331 15.9354L120.326 18.7657L122.698 17.9323L121.703 15.102ZM121.376 15.4705C121.414 15.2994 121.538 15.1601 121.703 15.102L122.698 17.9323C123.511 17.6464 124.119 16.9607 124.305 16.119L121.376 15.4705ZM121.517 15.9426C121.392 15.8201 121.338 15.6416 121.376 15.4705L124.305 16.119C124.492 15.2773 124.23 14.3991 123.613 13.7967L121.517 15.9426ZM114.848 9.42703L121.517 15.9426L123.613 13.7967L116.944 7.28113L114.848 9.42703ZM133.724 26.0139C133.721 26.0123 133.718 26.0102 133.716 26.0079C133.713 26.0057 133.712 26.004 133.712 26.0036C133.711 26.0025 133.717 26.0092 133.725 26.0286L136.497 24.8813C136.274 24.3449 135.901 23.8533 135.366 23.5033L133.724 26.0139ZM133.725 26.015C133.725 26.0147 133.724 26.0143 133.724 26.0139L135.366 23.5034C135.335 23.4829 135.303 23.4632 135.271 23.4441L133.725 26.015ZM133.128 24.1403C133.138 24.104 133.151 24.0691 133.168 24.0363L135.829 25.4229C135.913 25.2615 135.98 25.09 136.027 24.9111L133.128 24.1403ZM133.199 24.5567C133.116 24.4349 133.09 24.2829 133.128 24.1403L136.027 24.9111C136.214 24.2096 136.085 23.4618 135.675 22.8627L133.199 24.5567ZM130.678 20.8716L133.199 24.5567L135.675 22.8627L133.154 19.1777L130.678 20.8716ZM132.153 18.4685C131.973 18.4918 131.801 18.52 131.638 18.5507L132.194 21.4986C132.306 21.4776 132.421 21.4589 132.538 21.4437L132.153 18.4685ZM135.839 19.2465C134.743 18.3544 133.26 18.3252 132.153 18.4685L132.538 21.4437C133.428 21.3286 133.84 21.4871 133.946 21.5734L135.839 19.2465ZM135.126 19.3197C135.303 19.1026 135.622 19.0698 135.839 19.2465L133.946 21.5734C135.014 22.4425 136.584 22.2812 137.453 21.2132L135.126 19.3197ZM135.199 20.0326C134.982 19.856 134.95 19.5368 135.126 19.3197L137.453 21.2132C138.322 20.1451 138.161 18.5748 137.093 17.7057L135.199 20.0326ZM132.283 19.4737C133.317 19.3398 134.438 19.4129 135.199 20.0326L137.093 17.7057C135.339 16.2785 133.145 16.337 131.898 16.4985L132.283 19.4737ZM131.004 19.7429C131.33 19.6487 131.78 19.5388 132.283 19.4737L131.898 16.4985C131.204 16.5883 130.599 16.7371 130.171 16.861L131.004 19.7429ZM130.624 19.8629C130.712 19.8324 130.842 19.7898 131.004 19.7429L130.171 16.861C129.954 16.9237 129.775 16.9821 129.645 17.0271L130.624 19.8629ZM130.525 19.8982C130.546 19.8902 130.58 19.8781 130.624 19.8629L129.645 17.0271C129.579 17.0497 129.526 17.069 129.485 17.084L130.525 19.8982ZM130.493 19.9099L130.531 19.8958L129.479 17.0864L129.441 17.1004L130.493 19.9099ZM130.492 19.9104L130.504 19.9059L129.431 17.1044L129.419 17.1089L130.492 19.9104ZM130.493 19.91L130.497 19.9084L129.414 17.1108L129.41 17.1123L130.493 19.91ZM130.494 19.9099L130.496 19.9088L129.407 17.1135L129.404 17.1146L130.494 19.9099ZM130.795 19.5864C130.75 19.734 130.639 19.8529 130.496 19.9091L129.403 17.1153C128.695 17.3922 128.152 17.9767 127.928 18.7029L130.795 19.5864ZM130.729 19.151C130.816 19.2785 130.841 19.4388 130.795 19.5864L127.928 18.7029C127.704 19.4291 127.824 20.2178 128.253 20.845L130.729 19.151ZM133.452 23.1308L130.729 19.151L128.253 20.845L130.976 24.8247L133.452 23.1308ZM132.584 25.6177C132.756 25.4546 132.933 25.3104 133.102 25.1869L131.326 22.7686C131.075 22.9534 130.797 23.1779 130.518 23.4425L132.584 25.6177ZM131.656 27.8535C131.497 26.9638 131.963 26.2077 132.584 25.6177L130.518 23.4425C129.616 24.2988 128.281 26.011 128.702 28.3784L131.656 27.8535ZM131.655 27.8483L131.653 27.8379L128.705 28.394L128.707 28.4045L131.655 27.8483ZM133.081 28.5962C132.748 28.6609 132.38 28.6086 132.107 28.4638C131.87 28.3376 131.712 28.1522 131.655 27.8482L128.707 28.4046C129.214 31.0946 131.862 31.8899 133.654 31.5408L133.081 28.5962ZM134.787 26.3638C134.585 27.8442 133.771 28.4617 133.081 28.5962L133.654 31.5408C135.779 31.1272 137.41 29.3383 137.76 26.7689L134.787 26.3638ZM135.221 26.9343C134.944 26.8965 134.749 26.6411 134.787 26.3638L137.76 26.7689C137.946 25.4046 136.991 24.1478 135.626 23.9618L135.221 26.9343ZM135.38 26.9305C135.327 26.9402 135.273 26.9414 135.221 26.9343L135.626 23.9618C135.36 23.9256 135.095 23.9329 134.841 23.9794L135.38 26.9305ZM131.708 18.8907L131.346 17.9657L128.552 19.0587L128.914 19.9836L131.708 18.8907ZM128.597 19.1747L128.914 19.9838L131.708 18.8905L131.391 18.0814L128.597 19.1747ZM128.596 19.1704L128.597 19.1742L131.391 18.0819L131.39 18.078L128.596 19.1704ZM129.408 17.1132C129.408 17.1132 129.406 17.114 129.404 17.1148C129.402 17.1156 129.395 17.1181 129.391 17.1198C129.38 17.1241 129.363 17.1314 129.341 17.1411C129.297 17.1603 129.228 17.1936 129.147 17.2447C128.967 17.3587 128.781 17.5305 128.644 17.7723C128.407 18.1901 128.449 18.5829 128.456 18.652C128.467 18.7722 128.491 18.8637 128.497 18.8899C128.507 18.9278 128.516 18.9572 128.521 18.9711C128.53 18.9992 128.538 19.021 128.54 19.0262C128.543 19.0347 128.545 19.0415 128.547 19.0448C128.551 19.0552 128.555 19.0664 128.557 19.0714C128.563 19.0865 128.574 19.1158 128.596 19.1711L131.389 18.0773C131.367 18.0206 131.357 17.994 131.352 17.9811C131.348 17.9721 131.35 17.9763 131.353 17.9832C131.353 17.9856 131.356 17.9917 131.359 17.9997C131.36 18.0045 131.368 18.0259 131.377 18.0538C131.382 18.0676 131.391 18.0969 131.401 18.1348C131.408 18.1609 131.431 18.2524 131.443 18.3725C131.449 18.4416 131.491 18.8343 131.254 19.2521C131.117 19.4939 130.931 19.6657 130.751 19.7797C130.67 19.8308 130.601 19.8641 130.557 19.8833C130.536 19.893 130.518 19.9003 130.507 19.9046C130.503 19.9063 130.496 19.9088 130.494 19.9096C130.492 19.9104 130.49 19.9113 130.49 19.9113L129.408 17.1132ZM117.544 36.3943C117.539 36.3823 117.535 36.3702 117.531 36.3582L120.386 35.4365C120.366 35.3742 120.343 35.3129 120.319 35.2528L117.544 36.3943ZM117.531 36.3582C117.445 36.0919 117.591 35.8062 117.858 35.7202L118.779 38.5751C120.09 38.1521 120.809 36.7469 120.386 35.4365L117.531 36.3582ZM117.858 35.7202L115.872 36.3613L116.794 39.2162L118.779 38.5751L117.858 35.7202ZM115.872 36.3613C116.08 36.2943 116.307 36.3675 116.436 36.5432L114.02 38.3212C114.655 39.1853 115.773 39.5458 116.794 39.2162L115.872 36.3613ZM116.436 36.5432L115.197 34.8589L112.78 36.637L114.02 38.3212L116.436 36.5432ZM115.207 34.8727C114.353 33.6852 113.734 32.707 113.4 31.8318L110.597 32.9025C111.081 34.1683 111.902 35.4156 112.77 36.6233L115.207 34.8727ZM113.4 31.8318C113.072 30.9735 113.029 30.2454 113.295 29.5278L110.482 28.485C109.902 30.0515 110.081 31.5509 110.597 32.9025L113.4 31.8318ZM113.295 29.5278C113.746 28.3134 115.088 27.7138 116.329 28.1739L117.372 25.361C114.646 24.3507 111.534 25.6486 110.482 28.485L113.295 29.5278ZM116.329 28.1739C116.812 28.353 117.205 28.6905 117.469 29.1171L120.019 27.5364C119.427 26.5819 118.522 25.7873 117.372 25.361L116.329 28.1739ZM119.323 29.7106C119.769 29.524 120.265 29.4747 120.776 29.6082L121.534 26.7055C120.357 26.3981 119.189 26.5149 118.165 26.943L119.323 29.7106ZM120.775 29.6078L120.778 29.6086L121.539 26.7068L121.536 26.706L120.775 29.6078ZM120.775 29.6078C121.995 29.9305 122.754 31.2095 122.464 32.4663L125.387 33.1406C126.028 30.3625 124.384 27.4591 121.542 26.7075L120.775 29.6078ZM122.464 32.4663C122.466 32.4589 122.467 32.4515 122.469 32.4441L125.359 33.2498C125.369 33.2136 125.379 33.1772 125.387 33.1406L122.464 32.4663ZM122.469 32.4441C122.202 33.4031 121.533 34.0718 120.281 34.7201L121.661 37.3839C123.271 36.5501 124.774 35.3474 125.359 33.2498L122.469 32.4441ZM120.281 34.7201C120.53 34.5914 120.836 34.6885 120.964 34.937L118.301 36.3169C118.934 37.5396 120.439 38.0173 121.661 37.3839L120.281 34.7201ZM120.964 34.937C120.971 34.9493 120.977 34.962 120.982 34.9752L118.21 36.123C118.238 36.1886 118.268 36.2534 118.301 36.3169L120.964 34.937ZM119.504 37.2101L120.169 36.9356L119.024 34.1626L118.359 34.437L119.504 37.2101Z" fill="#FAFAFA" fill-opacity="0.8"/>
<path d="M119.5 16.4135L121.871 15.5801L115.202 9.06454L112.751 16.0874L110.046 17.1566L113.682 20.8501L114.708 18.1759L116.558 17.5277" fill="#FCD842"/>
<path fill-rule="evenodd" clip-rule="evenodd" d="M114.975 8.0976C115.306 8.01994 115.653 8.11668 115.896 8.35407L122.565 14.8696C122.811 15.1096 122.915 15.4595 122.841 15.7948C122.767 16.1301 122.525 16.4032 122.201 16.5171L119.829 17.3506C119.311 17.5325 118.744 17.2604 118.563 16.7429C118.381 16.2253 118.653 15.6584 119.17 15.4765L120.033 15.1732L115.625 10.8665L113.689 16.4146C113.594 16.6872 113.385 16.905 113.116 17.0111L111.806 17.5288L113.307 19.0536L113.781 17.8201C113.885 17.5477 114.104 17.335 114.379 17.2385L116.229 16.5903C116.747 16.4089 117.314 16.6815 117.495 17.1992C117.677 17.7169 117.404 18.2836 116.886 18.465L115.47 18.9611L114.609 21.2058C114.489 21.5211 114.216 21.7534 113.885 21.8224C113.554 21.8913 113.211 21.7875 112.974 21.5468L109.338 17.8533C109.105 17.6159 109.005 17.277 109.074 16.951C109.143 16.625 109.371 16.3553 109.681 16.2328L111.963 15.3308L114.264 8.73728C114.376 8.41655 114.644 8.17526 114.975 8.0976Z" fill="#5C4500"/>
<path d="M134.778 27.7593C135.498 26.6576 135.394 25.3141 134.545 24.7586C133.696 24.2031 132.423 24.6459 131.702 25.7477C130.982 26.8494 131.086 28.1929 131.935 28.7484C132.784 29.3039 134.057 28.8611 134.778 27.7593Z" fill="white"/>
<path fill-rule="evenodd" clip-rule="evenodd" d="M129.949 18.5122L130.311 19.4372C129.949 18.5122 129.949 18.5123 129.949 18.5122L129.952 18.5111L129.956 18.5096L129.968 18.5052L130.005 18.4911C130.036 18.4796 130.08 18.4638 130.135 18.445C130.244 18.4073 130.398 18.3568 130.588 18.3019C130.965 18.1929 131.493 18.0635 132.091 17.9861C133.232 17.8384 134.889 17.8457 136.146 18.8692C136.572 19.2154 136.636 19.841 136.29 20.2664C135.944 20.6919 135.318 20.7562 134.893 20.41C134.291 19.9207 133.344 19.8269 132.346 19.9561C132.197 19.9753 132.053 19.9988 131.916 20.0246L134.438 23.7097C134.601 23.9483 134.652 24.2463 134.578 24.5257C134.503 24.8049 134.311 25.0379 134.051 25.1641C134.051 25.1641 134.052 25.1641 134.051 25.1641M134.051 25.1641L134.053 25.1634L134.054 25.163C134.054 25.1628 134.054 25.1629 134.053 25.1634L134.039 25.1702C134.026 25.1773 134.003 25.1893 133.972 25.2061C133.91 25.2398 133.818 25.2924 133.707 25.3627C133.482 25.5051 133.192 25.7113 132.919 25.9704C132.351 26.5105 132.021 27.1099 132.134 27.7618C132.168 27.9321 132.412 28.2309 132.988 28.1187C133.451 28.0286 134.128 27.5967 134.305 26.2981C134.38 25.7545 134.88 25.374 135.424 25.4481C135.967 25.5222 136.348 26.0228 136.274 26.5663C135.998 28.5912 134.775 29.7944 133.368 30.0685C132.078 30.3196 130.481 29.7169 130.181 28.1264L130.179 28.1159C129.889 26.4874 130.79 25.2532 131.551 24.5301C131.776 24.3163 132.004 24.1319 132.214 23.9778L129.491 19.998C129.32 19.7481 129.273 19.434 129.362 19.1447C129.451 18.8553 129.667 18.6225 129.949 18.5122" fill="#5C4500"/>
<path d="M118.013 36.2025L116.028 36.8436L114.795 35.1684C113.083 32.7859 112.182 31.0746 112.82 29.3517C113.373 27.8616 115.015 27.1464 116.505 27.6988C117.436 28.044 118.085 28.867 118.274 29.7846C118.987 29.1484 119.939 28.8658 120.905 29.1179C122.4 29.5134 123.307 31.0677 122.958 32.5803C122.637 33.7323 121.826 34.491 120.515 35.1702" fill="#EE4949"/>
<path fill-rule="evenodd" clip-rule="evenodd" d="M120.652 30.0785C120.04 29.9193 119.425 30.0884 118.936 30.5254C118.671 30.762 118.3 30.8391 117.962 30.7276C117.625 30.6162 117.373 30.3332 117.301 29.9854C117.176 29.3786 116.747 28.8478 116.16 28.63C115.163 28.2604 114.106 28.7422 113.752 29.6969C113.536 30.2778 113.557 30.8811 113.854 31.6581C114.164 32.4686 114.749 33.4015 115.599 34.5842L116.404 35.6785L117.708 35.2573C118.23 35.0888 118.79 35.3753 118.959 35.8973C119.127 36.4194 118.841 36.9792 118.319 37.1477L116.333 37.7887C115.926 37.92 115.481 37.7764 115.228 37.4322L113.989 35.748C113.128 34.5504 112.408 33.4376 111.999 32.3672C111.576 31.2622 111.466 30.1484 111.889 29.0064C112.64 26.981 114.867 26.0322 116.85 26.7674C117.667 27.0701 118.316 27.6362 118.744 28.3268C119.479 28.0194 120.311 27.9364 121.156 28.1569L121.159 28.1577C123.19 28.6948 124.391 30.786 123.926 32.8035C123.922 32.818 123.919 32.8325 123.915 32.8469C123.489 34.3753 122.402 35.3109 120.972 36.052C120.484 36.3044 119.885 36.114 119.633 35.627C119.38 35.1399 119.571 34.5405 120.058 34.2882C121.238 33.6769 121.775 33.1004 121.995 32.3356C122.214 31.3356 121.604 30.3312 120.652 30.0785Z" fill="#5C4500"/>
<path d="M26.9473 27.2838L26.4175 25.8805C26.0213 26.0301 25.7068 26.3402 25.5517 26.7342C25.3965 27.1282 25.4151 27.5694 25.6029 27.949L26.9473 27.2838ZM23.4812 29.7598L22.9514 28.3565C22.1763 28.6491 21.7853 29.5146 22.0779 30.2896L23.4812 29.7598ZM23.913 32.1877L22.7051 31.2984C22.3971 31.7168 22.3275 32.2647 22.5211 32.7468C22.7148 33.2289 23.1441 33.5765 23.6559 33.6655L23.913 32.1877ZM25.0561 32.8814L23.834 33.7512L23.834 33.7512L25.0561 32.8814ZM25.3628 33.9151L23.8632 33.8795C23.8496 34.4518 24.163 34.9819 24.6709 35.246L25.3628 33.9151ZM25.8946 34.8795L24.3999 34.7545L24.3999 34.7545L25.8946 34.8795ZM24.986 36.4451L25.973 37.5746L25.973 37.5746L24.986 36.4451ZM23.3832 37.3261L23.8131 38.7632L23.8131 38.7632L23.3832 37.3261ZM21.3698 37.3156L21.8862 35.9073L21.8862 35.9073L21.3698 37.3156ZM19.7549 33.3106L21.1454 33.8731L21.1454 33.8731L19.7549 33.3106ZM20.9091 31.7769L19.9341 30.6369L19.9341 30.6369L20.9091 31.7769ZM21.8662 31.106L22.6168 32.4047C23.2527 32.0372 23.5289 31.2633 23.2695 30.5762L21.8662 31.106ZM29.2443 23.2317L30.6476 22.7019L29.2443 23.2317ZM31.4195 28.9927L30.0162 29.5226L31.4195 28.9927ZM31.4811 29.2735L29.9848 29.3793C30.0352 30.0926 30.5823 30.6712 31.2917 30.7615L31.4811 29.2735ZM32.7191 29.9815L33.9412 29.1117L33.9412 29.1117L32.7191 29.9815ZM33.0046 30.6869L31.5227 30.9197C31.6385 31.6566 32.2782 32.1965 33.0241 32.1868L33.0046 30.6869ZM33.2489 30.7142L32.9005 32.1732L32.9005 32.1732L33.2489 30.7142ZM33.9843 31.911L32.5253 31.5626L32.5253 31.5626L33.9843 31.911ZM31.0845 34.5584L30.736 33.0995L30.736 33.0995L31.0845 34.5584ZM28.9932 34.4195L28.4003 35.7973L28.4003 35.7973L28.9932 34.4195ZM27.3704 30.4918L25.9827 29.9224L25.9827 29.9224L27.3704 30.4918ZM28.5085 29.1349L27.6541 27.902L27.6541 27.902L28.5085 29.1349ZM29.2014 28.7417L29.8318 30.1028C30.5451 29.7725 30.8824 28.9473 30.6047 28.2118L29.2014 28.7417ZM28.4384 26.7208L29.8417 26.191C29.549 25.4159 28.6835 25.0249 27.9085 25.3175L28.4384 26.7208ZM25.6029 27.949C25.5956 27.9342 25.5891 27.9193 25.5835 27.9043L28.3901 26.8446C28.3609 26.7673 28.3281 26.6919 28.2918 26.6186L25.6029 27.949ZM25.5835 27.9043C25.4846 27.6425 25.6167 27.3501 25.8786 27.2512L26.9383 30.0578C28.2265 29.5714 28.8765 28.1328 28.3901 26.8446L25.5835 27.9043ZM25.8786 27.2512L22.9514 28.3565L24.0111 31.1631L26.9383 30.0578L25.8786 27.2512ZM22.0779 30.2896L22.6395 31.777L25.4461 30.7173L24.8845 29.2299L22.0779 30.2896ZM22.6395 31.777C22.576 31.6087 22.6094 31.4284 22.7051 31.2984L25.121 33.077C25.6025 32.423 25.7567 31.5398 25.4461 30.7173L22.6395 31.777ZM26.2781 32.0116C25.7496 31.269 24.9698 30.849 24.1701 30.7099L23.6559 33.6655C23.7206 33.6768 23.7631 33.6955 23.7879 33.7103C23.8111 33.7241 23.8243 33.7375 23.834 33.7512L26.2781 32.0116ZM26.8623 33.9506C26.878 33.2878 26.7002 32.6045 26.2781 32.0116L23.834 33.7512C23.8423 33.7629 23.8488 33.7757 23.8538 33.7929C23.859 33.8109 23.8641 33.8392 23.8632 33.8795L26.8623 33.9506ZM24.6709 35.246C24.4978 35.156 24.3821 34.9668 24.3999 34.7545L27.3894 35.0044C27.476 33.9693 26.9172 33.0326 26.0546 32.5842L24.6709 35.246ZM24.3999 34.7545C24.3972 34.7868 24.3814 34.8577 24.308 34.9711C24.2334 35.0865 24.1242 35.2062 23.999 35.3155L25.973 37.5746C26.4669 37.1431 27.284 36.2656 27.3894 35.0044L24.3999 34.7545ZM23.999 35.3155C23.7233 35.5565 23.3477 35.7711 22.9534 35.889L23.8131 38.7632C24.626 38.52 25.3801 38.0927 25.973 37.5746L23.999 35.3155ZM22.9534 35.889C22.5558 36.008 22.1833 36.0163 21.8862 35.9073L20.8534 38.724C21.9419 39.1231 23.0125 39.0027 23.8131 38.7632L22.9534 35.889ZM21.8862 35.9073C21.6086 35.8055 21.3366 35.5805 21.1544 35.0981L18.3478 36.1578C18.8035 37.3646 19.6701 38.2901 20.8534 38.724L21.8862 35.9073ZM21.1544 35.0981C20.9725 34.6161 21.0067 34.216 21.1454 33.8731L18.3643 32.7481C17.9494 33.7738 17.8933 34.954 18.3478 36.1578L21.1544 35.0981ZM21.1454 33.8731C21.2898 33.5163 21.5592 33.1947 21.8841 32.9168L19.9341 30.6369C19.3945 31.0985 18.7512 31.7918 18.3643 32.7481L21.1454 33.8731ZM21.8841 32.9168C22.1232 32.7122 22.3817 32.5406 22.6168 32.4047L21.1156 29.8074C20.7659 30.0095 20.347 30.2838 19.9341 30.6369L21.8841 32.9168ZM23.2695 30.5762L21.5879 26.1226L18.7813 27.1823L20.4629 31.6359L23.2695 30.5762ZM21.5879 26.1226C21.6868 26.3844 21.5547 26.6768 21.2928 26.7757L20.2331 23.9691C18.9449 24.4555 18.2949 25.8941 18.7813 27.1823L21.5879 26.1226ZM21.2928 26.7757L28.4941 24.0567L27.4344 21.2501L20.2331 23.9691L21.2928 26.7757ZM28.4941 24.0567C28.2323 24.1555 27.9399 24.0234 27.841 23.7616L30.6476 22.7019C30.1612 21.4137 28.7226 20.7637 27.4344 21.2501L28.4941 24.0567ZM27.841 23.7616L30.0162 29.5226L32.8228 28.4629L30.6476 22.7019L27.841 23.7616ZM30.0162 29.5226C29.9987 29.4762 29.9883 29.4279 29.9848 29.3793L32.9774 29.1678C32.9605 28.929 32.9091 28.6914 32.8228 28.4629L30.0162 29.5226ZM31.2917 30.7615C31.3668 30.7711 31.4167 30.791 31.4457 30.8073C31.4726 30.8224 31.4869 30.837 31.4971 30.8513L33.9412 29.1117C33.3757 28.3172 32.5258 27.8944 31.6705 27.7855L31.2917 30.7615ZM31.4971 30.8513C31.5033 30.86 31.508 30.8687 31.5118 30.8783C31.5158 30.8881 31.5199 30.9015 31.5227 30.9197L34.4864 30.4541C34.4126 29.9846 34.2348 29.5241 33.9412 29.1117L31.4971 30.8513ZM33.0241 32.1868C32.9817 32.1873 32.9401 32.1826 32.9005 32.1732L33.5972 29.2552C33.3939 29.2067 33.1884 29.1844 32.985 29.187L33.0241 32.1868ZM32.9005 32.1732C32.6283 32.1082 32.4603 31.8348 32.5253 31.5626L35.4433 32.2593C35.7631 30.92 34.9366 29.575 33.5972 29.2552L32.9005 32.1732ZM32.5253 31.5626C32.3676 32.2231 31.6207 32.8882 30.736 33.0995L31.4329 36.0174C33.0482 35.6316 34.9451 34.3457 35.4433 32.2593L32.5253 31.5626ZM30.736 33.0995C30.3122 33.2007 29.9111 33.1815 29.5862 33.0416L28.4003 35.7973C29.4553 36.2513 30.5421 36.2302 31.4329 36.0174L30.736 33.0995ZM29.5862 33.0416C29.2735 32.9071 28.9864 32.6424 28.8032 32.157L25.9966 33.2168C26.4458 34.4066 27.285 35.3174 28.4003 35.7973L29.5862 33.0416ZM28.8032 32.157C28.6185 31.668 28.6525 31.3187 28.7582 31.0612L25.9827 29.9224C25.5524 30.9712 25.5797 32.1127 25.9966 33.2168L28.8032 32.157ZM28.7582 31.0612C28.8693 30.7903 29.0854 30.5601 29.3629 30.3678L27.6541 27.902C27.0868 28.2952 26.3864 28.9385 25.9827 29.9224L28.7582 31.0612ZM29.3629 30.3678C29.5113 30.2649 29.6721 30.1768 29.8318 30.1028L28.5711 27.3806C28.2883 27.5115 27.9716 27.682 27.6541 27.902L29.3629 30.3678ZM30.6047 28.2118L29.8417 26.191L27.0351 27.2507L27.7981 29.2716L30.6047 28.2118ZM27.4772 28.6871L28.9682 28.1241L27.9085 25.3175L26.4175 25.8805L27.4772 28.6871Z" fill="#FAFAFA" fill-opacity="0.8"/>
<path d="M21.4995 7.18329L22.1097 5.81299L22.1083 5.81236L21.4995 7.18329ZM21.098 8.08789L19.7269 7.47951C19.3909 8.2367 19.7324 9.1229 20.4895 9.45894C21.2467 9.79497 22.1329 9.45361 22.469 8.69646L21.098 8.08789ZM21.5022 7.18448L22.1156 5.81564L22.1124 5.81418L21.5022 7.18448ZM21.5061 7.18622L22.1244 5.81957L22.1195 5.81738L21.5061 7.18622ZM21.5174 7.19134L22.1459 5.82931L22.1357 5.8247L21.5174 7.19134ZM21.5538 7.20813L22.1885 5.849L22.1823 5.84614L21.5538 7.20813ZM21.6776 7.26769L21.0141 8.61295L21.0141 8.61296L21.6776 7.26769ZM22.098 7.48912L22.8291 6.17939L22.8291 6.17939L22.098 7.48912ZM23.3797 8.33538L22.4578 9.51861L22.4578 9.51861L23.3797 8.33538ZM25.6048 11.8393L27.0977 11.6939L27.0977 11.6939L25.6048 11.8393ZM24.7125 12.9242L24.5671 11.4312L24.5671 11.4312L24.7125 12.9242ZM23.6277 12.0319L22.1347 12.1773L22.1347 12.1773L23.6277 12.0319ZM22.1588 9.90234L21.2369 11.0856L21.2369 11.0856L22.1588 9.90234ZM21.8082 9.6454L22.6602 8.41088C22.2434 8.12318 21.7095 8.06527 21.2406 8.25691C20.7718 8.44855 20.4313 8.86385 20.3353 9.36117L21.8082 9.6454ZM20.9621 14.0295L22.4349 14.3137L22.4349 14.3137L20.9621 14.0295ZM20.4807 14.703L19.7349 13.4015L19.7349 13.4015L20.4807 14.703ZM20.2805 14.7901L19.8371 13.3571C19.0796 13.5915 18.6354 14.375 18.8232 15.1454L20.2805 14.7901ZM20.2925 14.844L18.8227 15.1432L18.8227 15.1433L20.2925 14.844ZM20.1956 15.7359L18.8129 15.1542C18.5389 15.8056 18.7567 16.5599 19.3358 16.965L20.1956 15.7359ZM20.4201 15.9532L19.2212 16.8546L19.2212 16.8546L20.4201 15.9532ZM20.2231 17.344L19.3217 16.145L19.3217 16.145L20.2231 17.344ZM15.6897 17.7417L16.5346 16.5023L16.5346 16.5023L15.6897 17.7417ZM14.8286 14.1103L13.5941 13.2582L13.5941 13.2583L14.8286 14.1103ZM14.8346 14.1016L13.6093 13.2364C13.6062 13.2408 13.6032 13.2451 13.6001 13.2495L14.8346 14.1016ZM18.3487 12.5548L18.3952 11.0556L18.3952 11.0556L18.3487 12.5548ZM19.2076 12.6376L18.9725 14.119C19.7716 14.2458 20.5272 13.7161 20.6805 12.9218L19.2076 12.6376ZM20.1213 7.9029L18.6485 7.61866L18.6485 7.61867L20.1213 7.9029ZM20.6369 7.21067L21.3311 8.54033L21.3311 8.54033L20.6369 7.21067ZM21.4491 7.29664L20.0779 6.68845C20.0654 6.71667 20.0538 6.74527 20.043 6.77421L21.4491 7.29664ZM21.4491 7.29666L20.043 6.77423C20.0399 6.78247 20.037 6.79073 20.034 6.79902L21.4491 7.29666ZM21.4491 7.29669L22.8202 7.90507C22.8363 7.86876 22.8509 7.83181 22.8641 7.79433L21.4491 7.29669ZM6.54623 26.2104L5.96018 27.5912C6.71703 27.9124 7.59143 27.5645 7.9207 26.8111L6.54623 26.2104ZM7.83959 25.6938L8.42162 24.3113L8.42162 24.3113L7.83959 25.6938ZM11.1554 27.0898L10.5733 28.4722L10.5734 28.4722L11.1554 27.0898ZM11.7547 27.8815L13.2433 27.6966L13.2433 27.6965L11.7547 27.8815ZM11.3673 28.7958L12.2699 29.9938L12.2699 29.9938L11.3673 28.7958ZM4.72589 33.7994L3.82329 32.6013L3.82328 32.6013L4.72589 33.7994ZM3.74168 33.9202L3.15555 35.3009L3.15556 35.3009L3.74168 33.9202ZM3.1449 33.1283L4.63371 32.9454L4.63371 32.9454L3.1449 33.1283ZM2.13104 24.8755L0.642232 25.0584L0.642232 25.0584L2.13104 24.8755ZM2.51847 23.9626L3.42124 25.1605L3.42125 25.1605L2.51847 23.9626ZM3.50276 23.8417L2.9167 25.2225L2.9167 25.2225L3.50276 23.8417ZM5.41658 24.654L6.00263 23.2732L6.00263 23.2732L5.41658 24.654ZM5.94211 25.954L4.56114 25.3684C4.2378 26.1309 4.59365 27.0111 5.35605 27.3347L5.94211 25.954ZM20.1285 6.57472L19.727 7.47933L22.469 8.69646L22.8705 7.79186L20.1285 6.57472ZM22.1124 5.81418L22.1097 5.81299L20.8894 8.55359L20.8921 8.55478L22.1124 5.81418ZM22.1195 5.81738L22.1156 5.81565L20.8888 8.55331L20.8927 8.55505L22.1195 5.81738ZM22.1357 5.8247L22.1244 5.81958L20.8878 8.55286L20.8991 8.55798L22.1357 5.8247ZM22.1823 5.84614L22.1459 5.82935L20.8889 8.55332L20.9253 8.57012L22.1823 5.84614ZM22.3412 5.92242C22.2792 5.89187 22.2277 5.86736 22.1885 5.84901L20.9191 8.56725C20.9402 8.57708 20.9724 8.59236 21.0141 8.61295L22.3412 5.92242ZM22.8291 6.17939C22.6319 6.0693 22.4647 5.98338 22.3411 5.92242L21.0141 8.61296C21.0977 8.65418 21.2193 8.71651 21.3668 8.79886L22.8291 6.17939ZM24.3017 7.15214C23.7499 6.72226 23.2186 6.39681 22.8291 6.17939L21.3668 8.79886C21.6628 8.96411 22.058 9.20712 22.4578 9.51861L24.3017 7.15214ZM27.0977 11.6939C26.8785 9.44337 25.2939 7.92529 24.3017 7.15214L22.4578 9.51861C23.2805 10.1596 24.0166 11.0075 24.1118 11.9848L27.0977 11.6939ZM24.8579 14.4171C26.2284 14.2836 27.2312 13.0644 27.0977 11.6939L24.1118 11.9848C24.0847 11.7062 24.2885 11.4584 24.5671 11.4312L24.8579 14.4171ZM22.1347 12.1773C22.2682 13.5478 23.4874 14.5506 24.8579 14.4171L24.5671 11.4312C24.8456 11.4041 25.0935 11.6079 25.1206 11.8865L22.1347 12.1773ZM21.2369 11.0856C21.9444 11.6368 22.1215 12.0412 22.1347 12.1773L25.1206 11.8865C24.9836 10.4797 23.9617 9.40551 23.0807 8.7191L21.2369 11.0856ZM20.9561 10.8799C21.0495 10.9444 21.1438 11.0131 21.2369 11.0856L23.0807 8.7191C22.9377 8.60769 22.7964 8.50488 22.6602 8.41088L20.9561 10.8799ZM22.4349 14.3137L23.281 9.92963L20.3353 9.36117L19.4893 13.7452L22.4349 14.3137ZM21.2264 16.0045C21.8562 15.6437 22.2974 15.0263 22.4349 14.3137L19.4893 13.7452C19.5173 13.6004 19.6069 13.4749 19.7349 13.4015L21.2264 16.0045ZM20.7238 16.2231C20.8975 16.1694 21.0661 16.0964 21.2264 16.0045L19.7349 13.4015C19.7674 13.3829 19.8018 13.3681 19.8371 13.3571L20.7238 16.2231ZM21.7624 14.5447C21.7548 14.5076 21.7466 14.471 21.7378 14.4348L18.8232 15.1454C18.823 15.1449 18.8229 15.1442 18.8227 15.1432L21.7624 14.5447ZM21.5782 16.3176C21.8033 15.7824 21.89 15.1712 21.7624 14.5447L18.8227 15.1433C18.8221 15.1403 18.8217 15.1369 18.8215 15.1336C18.8214 15.1302 18.8216 15.1281 18.8216 15.1275C18.8218 15.1261 18.8211 15.1349 18.8129 15.1542L21.5782 16.3176ZM21.6191 15.0518C21.4581 14.8377 21.2671 14.6549 21.0554 14.5068L19.3358 16.965C19.2915 16.934 19.2527 16.8965 19.2212 16.8546L21.6191 15.0518ZM21.1245 18.5429C22.2251 17.7154 22.4466 16.1524 21.6191 15.0518L19.2212 16.8546C19.053 16.6309 19.098 16.3132 19.3217 16.145L21.1245 18.5429ZM14.8448 18.9811C16.6332 20.2002 19.0518 20.1012 21.1245 18.5429L19.3217 16.145C18.1275 17.0429 17.1159 16.8985 16.5346 16.5023L14.8448 18.9811ZM13.5941 13.2583C12.039 15.5113 13.3359 17.9525 14.8448 18.9811L16.5346 16.5023C16.2546 16.3114 16.0327 16.0127 15.9441 15.7173C15.867 15.46 15.8873 15.217 16.0631 14.9624L13.5941 13.2583ZM13.6001 13.2495L13.5941 13.2582L16.063 14.9625L16.0691 14.9537L13.6001 13.2495ZM18.3952 11.0556C17.1524 11.0171 14.9961 11.2723 13.6093 13.2364L16.0599 14.9668C16.5811 14.2286 17.446 14.0276 18.3023 14.0541L18.3952 11.0556ZM19.4427 11.1561C19.1344 11.1072 18.7792 11.0675 18.3952 11.0556L18.3023 14.0541C18.5389 14.0615 18.7665 14.0863 18.9725 14.119L19.4427 11.1561ZM18.6485 7.61867L17.7348 12.3533L20.6805 12.9218L21.5942 8.18713L18.6485 7.61867ZM19.9426 5.881C19.269 6.23274 18.7925 6.8725 18.6485 7.61866L21.5942 8.18713C21.5649 8.33879 21.4681 8.46883 21.3311 8.54033L19.9426 5.881ZM22.1081 5.81229C21.4135 5.50397 20.6162 5.52927 19.9426 5.88101L21.3311 8.54033C21.1942 8.61182 21.0322 8.61696 20.891 8.55429L22.1081 5.81229ZM22.8203 7.90483C22.8457 7.84746 22.8577 7.82037 22.8635 7.80731C22.8675 7.79831 22.8659 7.80215 22.8629 7.80857C22.8619 7.8108 22.8592 7.81661 22.8557 7.82414C22.8536 7.82862 22.8441 7.8488 22.8309 7.87419C22.8244 7.88668 22.8104 7.91332 22.791 7.9462C22.7776 7.96885 22.7306 8.04842 22.6553 8.13938C22.6141 8.18926 22.3689 8.49525 21.9106 8.62586C21.6425 8.70226 21.3873 8.69491 21.1743 8.64762C21.0792 8.6265 21.0047 8.60014 20.9596 8.58275C20.9368 8.57395 20.9186 8.56629 20.9078 8.56162C20.9035 8.55979 20.8971 8.55701 20.895 8.55608C20.8929 8.55515 20.8908 8.55422 20.8908 8.55422L22.1083 5.81236C22.1083 5.81236 22.1062 5.81143 22.1041 5.8105C22.1019 5.80957 22.0956 5.80679 22.0913 5.80496C22.0804 5.80029 22.0623 5.79263 22.0394 5.78383C21.9944 5.76643 21.9198 5.74008 21.8247 5.71896C21.6118 5.67167 21.3566 5.66431 21.0884 5.74072C20.6301 5.87133 20.385 6.17733 20.3437 6.22723C20.2684 6.31821 20.2213 6.39783 20.2079 6.42053C20.1885 6.45347 20.1744 6.48019 20.1679 6.49279C20.1546 6.5184 20.1449 6.53891 20.1426 6.54388C20.1388 6.5519 20.1358 6.55837 20.1344 6.56148C20.1299 6.57143 20.125 6.58234 20.1227 6.58751C20.1159 6.60279 20.1028 6.6324 20.0779 6.68845L22.8203 7.90483ZM22.8552 7.8191L22.8552 7.81907L20.043 6.77421L20.043 6.77423L22.8552 7.8191ZM22.8641 7.79433L22.8641 7.7943L20.034 6.79902L20.034 6.79905L22.8641 7.79433ZM22.4691 8.69627L22.8202 7.90507L20.078 6.68831L19.7269 7.47951L22.4691 8.69627ZM7.9207 26.8111C7.80938 27.0658 7.51425 27.1843 7.25756 27.0763L8.42162 24.3113C7.16381 23.7818 5.71672 24.3628 5.17177 25.6097L7.9207 26.8111ZM7.25756 27.0763L10.5733 28.4722L11.7374 25.7073L8.42162 24.3113L7.25756 27.0763ZM10.5734 28.4722C10.4057 28.4017 10.2886 28.2469 10.2661 28.0664L13.2433 27.6965C13.1333 26.8118 12.5591 26.0532 11.7374 25.7073L10.5734 28.4722ZM10.2661 28.0664C10.2437 27.8859 10.3194 27.7072 10.4647 27.5977L12.2699 29.9938C12.982 29.4573 13.3532 28.5813 13.2433 27.6966L10.2661 28.0664ZM10.4647 27.5977L3.82329 32.6013L5.62849 34.9974L12.2699 29.9938L10.4647 27.5977ZM3.82328 32.6013C3.96833 32.4921 4.16064 32.4685 4.32779 32.5394L3.15556 35.3009C3.9749 35.6487 4.91756 35.533 5.62849 34.9974L3.82328 32.6013ZM4.3278 32.5394C4.49495 32.6104 4.61156 32.7651 4.63371 32.9454L1.65609 33.3112C1.76463 34.1946 2.33621 34.9531 3.15555 35.3009L4.3278 32.5394ZM4.63371 32.9454L3.61985 24.6926L0.642232 25.0584L1.65609 33.3112L4.63371 32.9454ZM3.61985 24.6926C3.64199 24.8728 3.56629 25.0512 3.42124 25.1605L1.61569 22.7647C0.904766 23.3004 0.533687 24.1748 0.642232 25.0584L3.61985 24.6926ZM3.42125 25.1605C3.27622 25.2698 3.08388 25.2934 2.9167 25.2225L4.08881 22.4609C3.26936 22.1131 2.32661 22.2289 1.61569 22.7647L3.42125 25.1605ZM2.9167 25.2225L4.83052 26.0348L6.00263 23.2732L4.08881 22.4609L2.9167 25.2225ZM4.83052 26.0348C4.57215 25.9251 4.45156 25.6268 4.56114 25.3684L7.32308 26.5396C7.86016 25.273 7.2691 23.8107 6.00263 23.2732L4.83052 26.0348ZM5.35605 27.3347L5.96018 27.5912L7.13229 24.8296L6.52816 24.5732L5.35605 27.3347Z" fill="#FAFAFA" fill-opacity="0.8"/>
<path d="M22.5378 28.9487L29.321 26.3876L28.2333 23.5071L21.4502 26.0682L22.5378 28.9487Z" fill="#EE4949"/>
<path d="M24.2776 35.8127C25.3278 35.0652 25.6763 33.7528 25.0561 32.8814C24.4358 32.0099 23.0816 31.9094 22.0314 32.6569C20.9812 33.4044 20.6327 34.7168 21.253 35.5883C21.8732 36.4597 23.2274 36.5602 24.2776 35.8127Z" fill="#EE4949"/>
<path d="M31.9407 32.9128C32.9909 32.1653 33.3394 30.8529 32.7191 29.9815C32.0989 29.11 30.7447 29.0095 29.6945 29.757C28.6443 30.5045 28.2958 31.8169 28.916 32.6884C29.5363 33.5598 30.8905 33.6603 31.9407 32.9128Z" fill="#EE4949"/>
<path d="M24.9051 34.7967C24.8089 35.9478 21.5928 37.6929 20.6806 35.277C19.7684 32.8611 23.1135 31.5981 23.1135 31.5981L21.1137 26.3017L28.3149 23.5826L30.4902 29.3436C30.4902 29.3436 27.4342 29.9666 28.3289 32.3361C29.2411 34.752 32.5862 33.489 33.0181 31.6803" stroke="#5C4500" stroke-width="1.98645" stroke-miterlimit="10" stroke-linecap="round" stroke-linejoin="round"/>
<path d="M22.7129 28.9884L26.058 27.7254" stroke="#5C4500" stroke-width="1.98645" stroke-miterlimit="10" stroke-linecap="round" stroke-linejoin="round"/>
<path d="M18.323 17.1201C19.613 16.8574 20.4947 15.8384 20.2922 14.844C20.0897 13.8496 18.8797 13.2564 17.5897 13.5191C16.2997 13.7818 15.4181 14.8009 15.6206 15.7953C15.8231 16.7897 17.033 17.3828 18.323 17.1201Z" fill="white"/>
<path d="M24.6159 11.9355C24.3836 9.55019 21.0963 8.09102 21.0963 8.09102L19.9866 13.8412C19.9866 13.8412 16.9831 12.7803 15.6457 14.6744C14.6282 16.1487 16.9449 18.5657 19.626 16.55" stroke="#5C4500" stroke-width="1.98645" stroke-miterlimit="10" stroke-linecap="round" stroke-linejoin="round"/>
<path d="M3.11523 24.7543L4.12909 33.0071L10.7705 28.0035L3.11523 24.7543Z" fill="#CC9900"/>
<path d="M3.11523 24.7545L3.50268 23.8417C3.17655 23.7032 2.80134 23.7493 2.5184 23.9626C2.23545 24.1758 2.08777 24.5238 2.13097 24.8754L3.11523 24.7545ZM4.12909 33.0073L3.14483 33.1282C3.18802 33.4799 3.41551 33.7817 3.7416 33.9202C4.0677 34.0586 4.44287 34.0125 4.72582 33.7994L4.12909 33.0073ZM10.7705 28.0037L11.3672 28.7957C11.6506 28.5822 11.7984 28.2336 11.7546 27.8815C11.7109 27.5293 11.4823 27.2274 11.1553 27.0897L10.7705 28.0037ZM7.83951 25.6938C7.33474 25.4813 6.75327 25.7182 6.54076 26.223C6.32824 26.7277 6.56517 27.3092 7.06994 27.5217L7.83951 25.6938ZM4.64161 26.4797C5.14576 26.6936 5.72792 26.4584 5.9419 25.9543C6.15588 25.4501 5.92065 24.8679 5.4165 24.654L4.64161 26.4797ZM2.13097 24.8754L3.14483 33.1282L5.11336 32.8864L4.0995 24.6336L2.13097 24.8754ZM4.72582 33.7994L11.3672 28.7957L10.1738 27.2117L3.53237 32.2153L4.72582 33.7994ZM11.1553 27.0897L7.83951 25.6938L7.06994 27.5217L10.3857 28.9177L11.1553 27.0897ZM5.4165 24.654L3.50268 23.8417L2.72779 25.6674L4.64161 26.4797L5.4165 24.654Z" fill="#5C4500"/>
</svg>
