<svg width="97" height="40" viewBox="0 0 97 40" fill="none" xmlns="http://www.w3.org/2000/svg">
<g filter="url(#filter0_d)">
<path fill-rule="evenodd" clip-rule="evenodd" d="M78.8511 4C86.0308 4 91.8511 9.8203 91.8511 17C91.8511 24.1797 86.0308 30 78.8511 30H55.8927C50.246 32.5926 45.8513 34.7493 45.8513 34.7493C45.8513 34.7493 46.7889 32.4112 47.0827 30H17.8514C10.6717 30 4.8514 24.1797 4.8514 17C4.8514 9.8203 10.6717 4 17.8514 4L78.8511 4Z" fill="white"/>
<path d="M20.5127 18.4562C20.5127 19.1235 20.4044 19.6262 20.1877 19.9642C19.971 20.3022 19.6287 20.5188 19.1607 20.6142C18.9527 20.6488 18.762 20.6012 18.5887 20.4712C18.4154 20.3412 18.3027 20.1678 18.2507 19.9512L18.1337 19.4702C18.125 19.4702 18.1164 19.4745 18.1077 19.4832V22.1352C18.1077 22.3345 18.034 22.5078 17.8867 22.6552C17.7394 22.8025 17.566 22.8762 17.3667 22.8762H16.7687C16.5694 22.8762 16.396 22.8025 16.2487 22.6552C16.1014 22.5078 16.0277 22.3345 16.0277 22.1352V11.9172C16.0277 11.7178 16.1014 11.5445 16.2487 11.3972C16.396 11.2498 16.5694 11.1762 16.7687 11.1762H19.7067C19.906 11.1762 20.0794 11.2498 20.2267 11.3972C20.374 11.5445 20.4477 11.7178 20.4477 11.9172V12.5802C20.4477 13.0482 20.387 13.5335 20.2657 14.0362C20.0664 14.8248 19.9234 15.3708 19.8367 15.6742C19.8107 15.7522 19.815 15.8215 19.8497 15.8822C20.2917 16.6362 20.5127 17.4942 20.5127 18.4562ZM18.2247 18.8332C18.3547 18.8072 18.4414 18.7378 18.4847 18.6252C18.5367 18.5038 18.5627 18.2958 18.5627 18.0012C18.5627 17.5072 18.4327 17.0565 18.1727 16.6492C18.164 16.6318 18.151 16.6275 18.1337 16.6362C18.1164 16.6448 18.1077 16.6578 18.1077 16.6752V18.7292C18.1077 18.8158 18.1467 18.8505 18.2247 18.8332ZM18.6407 13.0482C18.658 12.9702 18.6277 12.9312 18.5497 12.9312H18.2247C18.1467 12.9312 18.1077 12.9702 18.1077 13.0482V14.8682C18.1077 14.8768 18.112 14.8812 18.1207 14.8812C18.138 14.8812 18.1467 14.8768 18.1467 14.8682C18.32 14.3222 18.4847 13.7155 18.6407 13.0482ZM27.3767 20.5232C27.55 20.6445 27.6627 20.8048 27.7147 21.0042C27.7754 21.2035 27.7667 21.4028 27.6887 21.6022L27.4417 22.2002C27.3637 22.3822 27.2294 22.5122 27.0387 22.5902C26.848 22.6682 26.666 22.6552 26.4927 22.5512C25.7994 22.1265 25.2057 21.5155 24.7117 20.7182C24.703 20.7008 24.69 20.6922 24.6727 20.6922C24.6554 20.6922 24.6467 20.7008 24.6467 20.7182L24.6857 21.3552C24.6944 21.5718 24.6337 21.7625 24.5037 21.9272C24.3824 22.1005 24.2177 22.2088 24.0097 22.2522C22.7877 22.5035 21.6437 22.6725 20.5777 22.7592C20.3784 22.7765 20.205 22.7158 20.0577 22.5772C19.9104 22.4472 19.828 22.2782 19.8107 22.0702L19.7717 21.6022C19.763 21.4028 19.8237 21.2252 19.9537 21.0692C20.0924 20.9132 20.2614 20.8265 20.4607 20.8092C20.478 20.8092 20.4997 20.8092 20.5257 20.8092C20.5604 20.8005 20.5864 20.7962 20.6037 20.7962C20.673 20.7962 20.7077 20.7572 20.7077 20.6792V11.9172C20.7077 11.7178 20.7814 11.5445 20.9287 11.3972C21.076 11.2498 21.2494 11.1762 21.4487 11.1762H26.6617C26.861 11.1762 27.0344 11.2498 27.1817 11.3972C27.329 11.5445 27.4027 11.7178 27.4027 11.9172V17.1952C27.4027 17.3945 27.329 17.5678 27.1817 17.7152C27.0344 17.8625 26.861 17.9362 26.6617 17.9362H25.7387C25.6694 17.9362 25.6434 17.9752 25.6607 18.0532C25.7127 18.2265 25.7864 18.4215 25.8817 18.6382C25.9077 18.6988 25.951 18.7075 26.0117 18.6642C26.0377 18.6468 26.0854 18.6122 26.1547 18.5602C26.224 18.5082 26.2717 18.4735 26.2977 18.4562C26.4624 18.3348 26.6444 18.2872 26.8437 18.3132C27.043 18.3392 27.199 18.4345 27.3117 18.5992L27.4937 18.8332C27.615 19.0065 27.6627 19.1928 27.6367 19.3922C27.6107 19.5915 27.5154 19.7562 27.3507 19.8862C27.316 19.9122 27.264 19.9512 27.1947 20.0032C27.134 20.0552 27.0864 20.0942 27.0517 20.1202C26.9997 20.1635 26.9997 20.2112 27.0517 20.2632C27.1904 20.3845 27.2987 20.4712 27.3767 20.5232ZM24.3347 20.2632C24.3954 20.2458 24.4127 20.2112 24.3867 20.1592C24.0747 19.5612 23.8234 18.8548 23.6327 18.0402C23.6154 17.9708 23.572 17.9362 23.5027 17.9362H23.0867C23.0174 17.9362 22.9827 17.9708 22.9827 18.0402V20.3932C22.9827 20.4798 23.0217 20.5145 23.0997 20.4972C23.1864 20.4798 23.598 20.4018 24.3347 20.2632ZM25.0627 15.9992V15.4402C25.0627 15.3708 25.0237 15.3362 24.9457 15.3362H23.0867C23.0174 15.3362 22.9827 15.3708 22.9827 15.4402V15.9992C22.9827 16.0772 23.0174 16.1162 23.0867 16.1162H24.9457C25.0237 16.1162 25.0627 16.0772 25.0627 15.9992ZM25.0627 13.7242V13.1782C25.0627 13.1002 25.0237 13.0612 24.9457 13.0612H23.0867C23.0174 13.0612 22.9827 13.1002 22.9827 13.1782V13.7242C22.9827 13.8022 23.0174 13.8412 23.0867 13.8412H24.9457C25.0237 13.8412 25.0627 13.8022 25.0627 13.7242ZM40.1037 20.7962C40.303 20.7962 40.472 20.8698 40.6107 21.0172C40.7494 21.1645 40.81 21.3378 40.7927 21.5372L40.7667 22.0702C40.758 22.2782 40.6757 22.4515 40.5197 22.5902C40.3637 22.7375 40.1817 22.8112 39.9737 22.8112H39.8697C37.5817 22.8112 35.8267 22.6595 34.6047 22.3562C33.3827 22.0528 32.399 21.5025 31.6537 20.7052C31.6017 20.6532 31.567 20.6618 31.5497 20.7312C31.359 21.2772 31.1554 21.8102 30.9387 22.3302C30.8607 22.5208 30.722 22.6552 30.5227 22.7332C30.332 22.8112 30.1414 22.8112 29.9507 22.7332L29.2487 22.4342C29.058 22.3562 28.9237 22.2262 28.8457 22.0442C28.7677 21.8622 28.7677 21.6758 28.8457 21.4852C29.3224 20.2805 29.734 18.9848 30.0807 17.5982C30.124 17.4075 30.2324 17.2558 30.4057 17.1432C30.5877 17.0305 30.7784 16.9958 30.9777 17.0392L31.7317 17.2082C31.931 17.2515 32.087 17.3555 32.1997 17.5202C32.3124 17.6848 32.347 17.8668 32.3037 18.0662C32.3037 18.0922 32.295 18.1355 32.2777 18.1962C32.2604 18.2482 32.2517 18.2872 32.2517 18.3132C32.2344 18.3738 32.2474 18.4388 32.2907 18.5082C32.7067 19.1842 33.1877 19.6695 33.7337 19.9642C33.751 19.9815 33.7684 19.9858 33.7857 19.9772C33.8117 19.9598 33.8247 19.9382 33.8247 19.9122V16.4802C33.8247 16.4108 33.7857 16.3762 33.7077 16.3762H31.2507C31.0514 16.3762 30.878 16.3025 30.7307 16.1552C30.5834 16.0078 30.5097 15.8345 30.5097 15.6352V15.5702C30.5097 15.5008 30.475 15.4662 30.4057 15.4662H29.8207C29.6214 15.4662 29.448 15.3925 29.3007 15.2452C29.1534 15.0978 29.0797 14.9245 29.0797 14.7252V12.6322C29.0797 12.4328 29.1534 12.2595 29.3007 12.1122C29.448 11.9648 29.6214 11.8912 29.8207 11.8912H33.4477C33.5257 11.8912 33.5647 11.8522 33.5647 11.7742V11.5272C33.5647 11.3278 33.6384 11.1545 33.7857 11.0072C33.933 10.8598 34.1064 10.7862 34.3057 10.7862H35.2937C35.493 10.7862 35.6664 10.8598 35.8137 11.0072C35.961 11.1545 36.0347 11.3278 36.0347 11.5272V11.7742C36.0347 11.8522 36.0737 11.8912 36.1517 11.8912L39.7787 11.8912C39.978 11.8912 40.1514 11.9648 40.2987 12.1122C40.446 12.2595 40.5197 12.4328 40.5197 12.6322V14.7252C40.5197 14.9245 40.446 15.0978 40.2987 15.2452C40.1514 15.3925 39.978 15.4662 39.7787 15.4662H39.2067C39.1287 15.4662 39.0897 15.5008 39.0897 15.5702V15.6352C39.0897 15.8345 39.016 16.0078 38.8687 16.1552C38.7214 16.3025 38.548 16.3762 38.3487 16.3762H36.4117C36.3337 16.3762 36.2947 16.4108 36.2947 16.4802V17.2992C36.2947 17.3772 36.3337 17.4162 36.4117 17.4162H38.9987C39.198 17.4162 39.3714 17.4898 39.5187 17.6372C39.666 17.7845 39.7397 17.9578 39.7397 18.1572V18.5602C39.7397 18.7595 39.666 18.9328 39.5187 19.0802C39.3714 19.2275 39.198 19.3012 38.9987 19.3012H36.4117C36.3337 19.3012 36.2947 19.3402 36.2947 19.4182V20.5362C36.2947 20.6228 36.3337 20.6662 36.4117 20.6662C37.287 20.7528 38.4397 20.7962 39.8697 20.7962H40.1037ZM31.4067 14.4912H38.2057C38.275 14.4912 38.3097 14.4522 38.3097 14.3742V13.8802C38.3097 13.8108 38.275 13.7762 38.2057 13.7762H31.4067C31.3287 13.7762 31.2897 13.8108 31.2897 13.8802V14.3742C31.2897 14.4522 31.3287 14.4912 31.4067 14.4912ZM53.0127 13.4512C53.212 13.4512 53.3854 13.5248 53.5327 13.6722C53.68 13.8195 53.7537 13.9928 53.7537 14.1922V14.8812C53.7537 18.2958 53.6714 20.4365 53.5067 21.3032C53.3767 21.9965 53.1297 22.4168 52.7657 22.5642C52.5837 22.6422 52.263 22.6812 51.8037 22.6812C51.5784 22.6812 51.2144 22.6595 50.7117 22.6162C50.5037 22.5988 50.326 22.5122 50.1787 22.3562C50.04 22.2002 49.9664 22.0182 49.9577 21.8102L49.9447 21.1212C49.9447 21.1125 49.936 21.1082 49.9187 21.1082C49.91 21.1082 49.9014 21.1125 49.8927 21.1212C49.7454 21.4938 49.5547 21.8925 49.3207 22.3172C49.2254 22.4905 49.078 22.5945 48.8787 22.6292C48.688 22.6638 48.5147 22.6205 48.3587 22.4992L48.1637 22.3432C48.103 22.2998 48.0424 22.2998 47.9817 22.3432C47.869 22.4298 47.7434 22.4775 47.6047 22.4862C46.2354 22.5902 44.5194 22.6898 42.4567 22.7852C42.2487 22.7938 42.071 22.7288 41.9237 22.5902C41.7764 22.4515 41.694 22.2825 41.6767 22.0832L41.6507 21.8622C41.6334 21.6628 41.6897 21.4895 41.8197 21.3422C41.9584 21.1862 42.1274 21.1038 42.3267 21.0952C43.0547 21.0778 43.6007 21.0605 43.9647 21.0432C44.034 21.0432 44.0687 21.0042 44.0687 20.9262V20.7182C44.0687 20.6402 44.0297 20.6012 43.9517 20.6012H42.5087C42.318 20.6012 42.149 20.5318 42.0017 20.3932C41.863 20.2458 41.7937 20.0768 41.7937 19.8862C41.7937 19.6955 41.863 19.5308 42.0017 19.3922C42.149 19.2448 42.318 19.1712 42.5087 19.1712H43.9517C44.0297 19.1712 44.0687 19.1365 44.0687 19.0672V18.8982C44.0687 18.8202 44.0297 18.7812 43.9517 18.7812H43.6787H42.7297C42.5304 18.7812 42.357 18.7075 42.2097 18.5602C42.0624 18.4128 41.9887 18.2395 41.9887 18.0402V15.7522C41.9887 15.5528 42.0624 15.3795 42.2097 15.2322C42.357 15.0848 42.5304 15.0112 42.7297 15.0112H43.9517C44.0297 15.0112 44.0687 14.9765 44.0687 14.9072V14.7382C44.0687 14.6602 44.0297 14.6212 43.9517 14.6212H42.4437C42.2444 14.6212 42.0754 14.5518 41.9367 14.4132C41.798 14.2658 41.7287 14.0968 41.7287 13.9062C41.7287 13.7155 41.798 13.5508 41.9367 13.4122C42.0754 13.2648 42.2444 13.1912 42.4437 13.1912H43.9517C44.0297 13.1912 44.0687 13.1522 44.0687 13.0742V12.8792C44.0687 12.8098 44.034 12.7752 43.9647 12.7752C43.384 12.8098 42.9724 12.8315 42.7297 12.8402C42.5217 12.8488 42.3397 12.7882 42.1837 12.6582C42.0277 12.5195 41.941 12.3462 41.9237 12.1382V12.1122C41.9064 11.9128 41.9627 11.7395 42.0927 11.5922C42.2227 11.4362 42.3874 11.3495 42.5867 11.3322C44.1207 11.2542 45.7327 11.1242 47.4227 10.9422C47.622 10.9248 47.804 10.9768 47.9687 11.0982C48.1334 11.2195 48.2287 11.3798 48.2547 11.5792L48.2677 11.6832C48.2937 11.8825 48.2417 12.0645 48.1117 12.2292C47.9817 12.3852 47.817 12.4718 47.6177 12.4892C47.479 12.5065 47.2797 12.5282 47.0197 12.5542C46.7597 12.5715 46.569 12.5845 46.4477 12.5932C46.3784 12.5932 46.3437 12.6322 46.3437 12.7102V13.0742C46.3437 13.1522 46.3827 13.1912 46.4607 13.1912H47.5787C47.8474 13.1912 48.051 13.3038 48.1897 13.5292C48.2157 13.5812 48.259 13.5898 48.3197 13.5552C48.441 13.4858 48.571 13.4512 48.7097 13.4512H48.9957C49.0737 13.4512 49.1127 13.4165 49.1127 13.3472C49.13 12.6192 49.1387 12.0342 49.1387 11.5922C49.1387 11.3928 49.2124 11.2195 49.3597 11.0722C49.507 10.9248 49.6804 10.8512 49.8797 10.8512H50.3477C50.547 10.8512 50.7204 10.9248 50.8677 11.0722C51.015 11.2195 51.0887 11.3928 51.0887 11.5922C51.0887 12.0255 51.08 12.6062 51.0627 13.3342C51.0627 13.4122 51.0974 13.4512 51.1667 13.4512H53.0127ZM46.2137 16.1682V16.4022C46.2137 16.4715 46.2527 16.5062 46.3307 16.5062H46.6167C46.6947 16.5062 46.7337 16.4715 46.7337 16.4022V16.1682C46.7337 16.0902 46.6947 16.0512 46.6167 16.0512H46.3307C46.2527 16.0512 46.2137 16.0902 46.2137 16.1682ZM44.1987 17.6242V17.3902C44.1987 17.3208 44.1597 17.2862 44.0817 17.2862H43.7827C43.7134 17.2862 43.6787 17.3208 43.6787 17.3902V17.6242C43.6787 17.7022 43.7134 17.7412 43.7827 17.7412H44.0817C44.1597 17.7412 44.1987 17.7022 44.1987 17.6242ZM44.1987 16.4022V16.1682C44.1987 16.0902 44.1597 16.0512 44.0817 16.0512H43.7827C43.7134 16.0512 43.6787 16.0902 43.6787 16.1682V16.4022C43.6787 16.4715 43.7134 16.5062 43.7827 16.5062H44.0817C44.1597 16.5062 44.1987 16.4715 44.1987 16.4022ZM46.2137 17.6242C46.2137 17.7022 46.2527 17.7412 46.3307 17.7412H46.6167C46.6947 17.7412 46.7337 17.7022 46.7337 17.6242V17.3902C46.7337 17.3208 46.6947 17.2862 46.6167 17.2862H46.3307C46.2527 17.2862 46.2137 17.3208 46.2137 17.3902V17.6242ZM47.8257 20.8482C48.4497 19.6262 48.844 17.8495 49.0087 15.5182C49.0087 15.4402 48.974 15.4012 48.9047 15.4012H48.7097C48.5104 15.4012 48.337 15.3275 48.1897 15.1802C48.0424 15.0328 47.9687 14.8595 47.9687 14.6602V14.6212C47.9687 14.5952 47.9557 14.5778 47.9297 14.5692C47.9124 14.5518 47.895 14.5475 47.8777 14.5562C47.7737 14.5995 47.674 14.6212 47.5787 14.6212H46.4607C46.3827 14.6212 46.3437 14.6558 46.3437 14.7252V14.8942C46.3437 14.9722 46.3827 15.0112 46.4607 15.0112H47.5527C47.752 15.0112 47.9254 15.0848 48.0727 15.2322C48.22 15.3795 48.2937 15.5528 48.2937 15.7522V18.0402C48.2937 18.2395 48.22 18.4128 48.0727 18.5602C47.9254 18.7075 47.752 18.7812 47.5527 18.7812H46.4607C46.3827 18.7812 46.3437 18.8158 46.3437 18.8852V19.0542C46.3437 19.1322 46.3827 19.1712 46.4607 19.1712H47.3837C47.583 19.1712 47.752 19.2448 47.8907 19.3922C48.0294 19.5308 48.0987 19.6955 48.0987 19.8862C48.0987 20.0768 48.0294 20.2458 47.8907 20.3932C47.752 20.5318 47.583 20.6012 47.3837 20.6012H46.4607C46.3827 20.6012 46.3437 20.6402 46.3437 20.7182V20.8352C46.3437 20.9132 46.3827 20.9522 46.4607 20.9522C46.5907 20.9435 46.7727 20.9348 47.0067 20.9262C47.2407 20.9088 47.4054 20.9002 47.5007 20.9002C47.5787 20.9002 47.635 20.9045 47.6697 20.9132C47.739 20.9305 47.791 20.9088 47.8257 20.8482ZM51.4787 16.6362V15.5182C51.4787 15.4402 51.4397 15.4012 51.3617 15.4012H51.0757C50.9977 15.4012 50.9587 15.4358 50.9587 15.5052C50.82 17.5245 50.5514 19.1538 50.1527 20.3932C50.1354 20.4625 50.1614 20.5058 50.2307 20.5232C50.5774 20.5752 50.8417 20.6012 51.0237 20.6012C51.119 20.6012 51.1884 20.5665 51.2317 20.4972C51.2837 20.4278 51.327 20.2632 51.3617 20.0032C51.405 19.7345 51.4354 19.3358 51.4527 18.8072C51.47 18.2698 51.4787 17.5462 51.4787 16.6362ZM65.9217 11.1762C66.121 11.1762 66.2944 11.2498 66.4417 11.3972C66.589 11.5445 66.6627 11.7178 66.6627 11.9172V12.3852C66.6627 12.5845 66.589 12.7578 66.4417 12.9052C66.2944 13.0525 66.121 13.1262 65.9217 13.1262H61.8397C61.7617 13.1262 61.7227 13.1652 61.7227 13.2432V13.6722C61.7227 13.7415 61.7617 13.7762 61.8397 13.7762H63.1917C63.391 13.7762 63.5644 13.8498 63.7117 13.9972C63.859 14.1445 63.9327 14.3178 63.9327 14.5172V19.2752C63.9327 19.4745 63.859 19.6478 63.7117 19.7952C63.5644 19.9425 63.391 20.0162 63.1917 20.0162H59.1227H58.1737C57.9744 20.0162 57.801 19.9425 57.6537 19.7952C57.5064 19.6478 57.4327 19.4745 57.4327 19.2752V14.5172C57.4327 14.3178 57.5064 14.1445 57.6537 13.9972C57.801 13.8498 57.9744 13.7762 58.1737 13.7762H59.5257C59.6037 13.7762 59.6427 13.7415 59.6427 13.6722V13.2432C59.6427 13.1652 59.6037 13.1262 59.5257 13.1262H55.4437C55.2444 13.1262 55.071 13.0525 54.9237 12.9052C54.7764 12.7578 54.7027 12.5845 54.7027 12.3852V11.9172C54.7027 11.7178 54.7764 11.5445 54.9237 11.3972C55.071 11.2498 55.2444 11.1762 55.4437 11.1762H65.9217ZM59.6427 18.3392V17.6502C59.6427 17.5808 59.6037 17.5462 59.5257 17.5462H59.2267C59.1574 17.5462 59.1227 17.5808 59.1227 17.6502V18.3392C59.1227 18.4172 59.1574 18.4562 59.2267 18.4562H59.5257C59.6037 18.4562 59.6427 18.4172 59.6427 18.3392ZM59.6427 16.1422V15.4532C59.6427 15.3752 59.6037 15.3362 59.5257 15.3362H59.2267C59.1574 15.3362 59.1227 15.3752 59.1227 15.4532V16.1422C59.1227 16.2115 59.1574 16.2462 59.2267 16.2462H59.5257C59.6037 16.2462 59.6427 16.2115 59.6427 16.1422ZM62.2427 18.3392V17.6502C62.2427 17.5808 62.2037 17.5462 62.1257 17.5462H61.8397C61.7617 17.5462 61.7227 17.5808 61.7227 17.6502V18.3392C61.7227 18.4172 61.7617 18.4562 61.8397 18.4562H62.1257C62.2037 18.4562 62.2427 18.4172 62.2427 18.3392ZM61.8397 15.3362C61.7617 15.3362 61.7227 15.3752 61.7227 15.4532V16.1422C61.7227 16.2115 61.7617 16.2462 61.8397 16.2462H62.1257C62.2037 16.2462 62.2427 16.2115 62.2427 16.1422V15.4532C62.2427 15.3752 62.2037 15.3362 62.1257 15.3362H61.8397ZM65.7267 14.1662C65.926 14.1662 66.0994 14.2398 66.2467 14.3872C66.394 14.5345 66.4677 14.7078 66.4677 14.9072V22.0052C66.4677 22.2045 66.394 22.3778 66.2467 22.5252C66.0994 22.6725 65.926 22.7462 65.7267 22.7462H64.7777C64.6564 22.7462 64.548 22.6985 64.4527 22.6032C64.366 22.5165 64.3227 22.4125 64.3227 22.2912C64.3227 22.2478 64.301 22.2262 64.2577 22.2262H57.1077C57.0644 22.2262 57.0427 22.2478 57.0427 22.2912C57.0427 22.4125 56.995 22.5165 56.8997 22.6032C56.813 22.6985 56.709 22.7462 56.5877 22.7462H55.6387C55.4394 22.7462 55.266 22.6725 55.1187 22.5252C54.9714 22.3778 54.8977 22.2045 54.8977 22.0052V14.9072C54.8977 14.7078 54.9714 14.5345 55.1187 14.3872C55.266 14.2398 55.4394 14.1662 55.6387 14.1662H56.3017C56.501 14.1662 56.6744 14.2398 56.8217 14.3872C56.969 14.5345 57.0427 14.7078 57.0427 14.9072V20.3542C57.0427 20.4322 57.0817 20.4712 57.1597 20.4712H64.2187C64.288 20.4712 64.3227 20.4322 64.3227 20.3542V14.9072C64.3227 14.7078 64.3964 14.5345 64.5437 14.3872C64.691 14.2398 64.8644 14.1662 65.0637 14.1662H65.7267ZM76.8716 18.9328C76.9341 19.2936 76.9653 19.585 76.9653 19.807C76.9653 20.6812 76.6912 21.316 76.1431 21.7115C75.602 22.1069 74.6966 22.3047 73.4269 22.3047C72.185 22.3047 71.3177 22.0896 70.8251 21.6594C70.3395 21.2362 70.0967 20.48 70.0967 19.3907C70.0967 19.0091 70.1001 18.7073 70.1071 18.4853C70.1071 18.4298 70.0793 18.402 70.0238 18.402H68.6085C68.4489 18.402 68.3101 18.3431 68.1922 18.2251C68.0742 18.1072 68.0153 17.9684 68.0153 17.8088V17.3301C68.0153 17.1705 68.0742 17.0318 68.1922 16.9138C68.3101 16.7959 68.4489 16.7369 68.6085 16.7369H70.0967C70.1522 16.7369 70.1799 16.7092 70.1799 16.6537C70.1799 16.5912 70.1834 16.4906 70.1903 16.3519C70.2042 16.2131 70.2146 16.109 70.2215 16.0396C70.2215 15.9841 70.1938 15.9564 70.1383 15.9564H68.9207C68.7611 15.9564 68.6223 15.8974 68.5044 15.7795C68.3864 15.6615 68.3275 15.5228 68.3275 15.3632V14.8845C68.3275 14.7249 68.3864 14.5861 68.5044 14.4682C68.6223 14.3502 68.7611 14.2913 68.9207 14.2913H70.2424C70.3048 14.2913 70.336 14.2635 70.336 14.208L70.3672 13.8334C70.3742 13.6668 70.4401 13.5281 70.565 13.4171C70.6899 13.3061 70.8356 13.254 71.0021 13.261L71.793 13.2922C71.9526 13.2991 72.0844 13.3616 72.1885 13.4795C72.2995 13.5975 72.3515 13.7362 72.3446 13.8958L72.3134 14.208C72.3134 14.2635 72.3411 14.2913 72.3966 14.2913H75.0192C75.1787 14.2913 75.3175 14.3502 75.4355 14.4682C75.5534 14.5861 75.6124 14.7249 75.6124 14.8845V15.3632C75.6124 15.5228 75.5534 15.6615 75.4355 15.7795C75.3175 15.8974 75.1787 15.9564 75.0192 15.9564H72.2925C72.2301 15.9564 72.1989 15.9841 72.1989 16.0396C72.1919 16.1784 72.1815 16.3796 72.1677 16.6432C72.1677 16.7057 72.1954 16.7369 72.2509 16.7369H74.1866C74.3462 16.7369 74.4849 16.7959 74.6029 16.9138C74.7208 17.0318 74.7798 17.1705 74.7798 17.3301V17.8088C74.7798 17.9684 74.7208 18.1072 74.6029 18.2251C74.4849 18.3431 74.3462 18.402 74.1866 18.402H72.1781C72.1156 18.402 72.0844 18.4298 72.0844 18.4853C72.0775 18.7073 72.074 19.0091 72.074 19.3907C72.074 19.8902 72.1503 20.2059 72.3029 20.3377C72.4625 20.4696 72.8372 20.5355 73.4269 20.5355C73.9264 20.5355 74.2907 20.5112 74.5196 20.4626C74.7486 20.4071 74.9012 20.3239 74.9775 20.2129C75.0539 20.0949 75.092 19.9076 75.092 19.6509C75.092 19.5884 75.0816 19.4878 75.0608 19.3491C75.0331 19.1826 75.0608 19.0299 75.1441 18.8912C75.2273 18.7524 75.3487 18.6657 75.5083 18.631L76.1848 18.4853C76.3443 18.4506 76.49 18.4784 76.6219 18.5685C76.7606 18.6518 76.8439 18.7732 76.8716 18.9328ZM80.5453 13.9791C80.7049 13.9791 80.8402 14.038 80.9512 14.156C81.0691 14.2739 81.1212 14.4127 81.1073 14.5723L80.8575 18.4853C80.8506 18.6518 80.7847 18.794 80.6598 18.912C80.5418 19.023 80.3996 19.0785 80.2331 19.0785H79.5462C79.3797 19.0785 79.2375 19.023 79.1195 18.912C79.0016 18.794 78.9357 18.6518 78.9218 18.4853L78.672 14.5723C78.6651 14.4127 78.7171 14.2739 78.8281 14.156C78.9391 14.038 79.0744 13.9791 79.234 13.9791H80.5453ZM80.3372 19.911C80.4967 19.911 80.6355 19.97 80.7534 20.088C80.8714 20.2059 80.9304 20.3447 80.9304 20.5042V20.983C80.9304 21.1425 80.8714 21.2813 80.7534 21.3993C80.6355 21.5172 80.4967 21.5762 80.3372 21.5762H79.4422C79.2826 21.5762 79.1438 21.5172 79.0259 21.3993C78.9079 21.2813 78.849 21.1425 78.849 20.983V20.5042C78.849 20.3447 78.9079 20.2059 79.0259 20.088C79.1438 19.97 79.2826 19.911 79.4422 19.911H80.3372Z" fill="#252525"/>
</g>
<defs>
<filter id="filter0_d" x="0.583115" y="0.646363" width="95.5362" height="39.2858" filterUnits="userSpaceOnUse" color-interpolation-filters="sRGB">
<feFlood flood-opacity="0" result="BackgroundImageFix"/>
<feColorMatrix in="SourceAlpha" type="matrix" values="0 0 0 0 0 0 0 0 0 0 0 0 0 0 0 0 0 0 127 0"/>
<feOffset dy="0.914628"/>
<feGaussianBlur stdDeviation="2.13413"/>
<feColorMatrix type="matrix" values="0 0 0 0 0.179167 0 0 0 0 0.119146 0 0 0 0 0.0291146 0 0 0 0.5 0"/>
<feBlend mode="normal" in2="BackgroundImageFix" result="effect1_dropShadow"/>
<feBlend mode="normal" in="SourceGraphic" in2="effect1_dropShadow" result="shape"/>
</filter>
</defs>
</svg>
