<svg width="254" height="68" viewBox="0 0 254 68" fill="none" xmlns="http://www.w3.org/2000/svg">
<path d="M93.9181 11.9248H24.267V58.4465H93.9181V11.9248Z" fill="white"/>
<path d="M55.1505 36.106C55.9489 36.106 56.5961 35.4588 56.5961 34.6604C56.5961 33.8621 55.9489 33.2148 55.1505 33.2148C54.3522 33.2148 53.705 33.8621 53.705 34.6604C53.705 35.4588 54.3522 36.106 55.1505 36.106Z" fill="#5C4500"/>
<path d="M62.3123 36.106C63.1107 36.106 63.7579 35.4588 63.7579 34.6604C63.7579 33.8621 63.1107 33.2148 62.3123 33.2148C61.5139 33.2148 60.8667 33.8621 60.8667 34.6604C60.8667 35.4588 61.5139 36.106 62.3123 36.106Z" fill="#5C4500"/>
<path d="M47.8569 30.192L44.8343 34.6602L41.5489 35.4487L40.4975 36.7629L34.978 32.8861L37.5407 29.1407C37.5407 29.1407 40.1033 20.8614 41.4832 20.2043C42.9288 19.5472 44.2429 19.4158 45.7542 20.4672C47.2655 21.5185 50.2224 20.0072 52.4565 18.4959C54.6906 16.9846 60.2101 14.7505 64.8754 17.576C69.5407 20.4015 71.3149 21.9128 71.3149 21.9128C71.3149 21.9128 75.3231 19.2187 77.7543 19.6787C80.1198 20.1386 81.9597 22.9641 82.0911 24.1468C82.2225 25.3296 84.6537 32.3604 85.8365 32.2947C83.2738 35.0545 79.5284 35.1859 76.8344 33.5432C74.1403 31.9005 74.2718 34.0031 74.2718 34.0031C74.2718 34.0031 72.3005 41.1654 70.8549 42.2167C69.3436 43.268 67.5695 44.3194 67.5695 44.3194L69.5407 29.9292L47.8569 30.192Z" fill="#FFF3CF"/>
<path d="M71.5117 53.2555C71.5117 53.2555 68.4891 50.2329 65.5322 48.5902C62.5096 46.9475 59.2242 47.276 58.0415 48.1302C56.8587 49.0501 52.9819 46.159 51.7334 46.9475C50.5507 47.6703 46.4767 57.0009 46.4767 57.0009L69.2119 58.5122L71.5117 53.2555Z" fill="#FFF3CF"/>
<path d="M93.9181 11.9248H24.267V58.4465H93.9181V11.9248Z" stroke="#5C4500" stroke-width="2.62834" stroke-miterlimit="10" stroke-linecap="round" stroke-linejoin="round"/>
<path d="M63.495 42.6769C60.341 44.6481 54.1644 44.451 51.7989 40.6399C49.4334 36.8288 50.0248 33.2148 50.0248 33.2148" stroke="#5C4500" stroke-width="2.62834" stroke-miterlimit="10" stroke-linecap="round" stroke-linejoin="round"/>
<path d="M52.062 24.2129C52.062 24.2129 51.4049 27.6954 54.5589 29.7324" stroke="#5C4500" stroke-width="2.62834" stroke-miterlimit="10" stroke-linecap="round" stroke-linejoin="round"/>
<path d="M57.0562 23.7529C57.0562 23.7529 57.5818 29.4039 62.05 30.2581" stroke="#5C4500" stroke-width="2.62834" stroke-miterlimit="10" stroke-linecap="round" stroke-linejoin="round"/>
<path d="M62.904 23.7529C62.904 23.7529 63.4297 29.4039 67.8978 30.2581" stroke="#5C4500" stroke-width="2.62834" stroke-miterlimit="10" stroke-linecap="round" stroke-linejoin="round"/>
<path d="M68.4234 26.9062C68.4234 26.9062 71.2488 40.4422 66.5178 45.9617" stroke="#5C4500" stroke-width="2.62834" stroke-miterlimit="10" stroke-linecap="round" stroke-linejoin="round"/>
<path d="M73.3519 37.8793C75.5859 33.5425 74.5346 22.1749 67.5038 18.1667C62.3785 15.2098 54.9535 16.524 52.6537 17.9696C50.2881 19.4809 45.7543 23.7519 46.937 30.7827" stroke="#5C4500" stroke-width="2.62834" stroke-miterlimit="10" stroke-linecap="round" stroke-linejoin="round"/>
<path d="M72.3657 21.7159C72.3657 21.7159 75.7168 18.0362 79.5279 20.2046C83.339 22.373 83.0105 33.0178 85.9016 32.3607C82.5505 37.8802 77.3595 34.0034 77.3595 34.0034" stroke="#5C4500" stroke-width="2.62834" stroke-miterlimit="10" stroke-linecap="round" stroke-linejoin="round"/>
<path d="M48.7108 21.7159C48.7108 21.7159 45.3597 18.0362 41.5486 20.2046C37.7375 22.373 38.066 33.0178 35.1749 32.3607C35.7662 33.3463 36.4233 34.0034 37.0804 34.4634" stroke="#5C4500" stroke-width="2.62834" stroke-miterlimit="10" stroke-linecap="round" stroke-linejoin="round"/>
<path d="M44.7683 45.3035L42.4028 45.1721C39.0517 44.9749 36.949 44.515 35.9634 42.6751C35.1092 41.0981 35.6349 39.1926 37.1462 38.2727C38.1318 37.6813 39.3145 37.747 40.2345 38.207C40.1688 37.1556 40.6287 36.1043 41.5486 35.4472C42.9942 34.3959 45.0312 34.7244 46.0168 36.17C47.1996 37.8784 46.7396 39.9811 45.5569 43.0694L44.7683 45.3035Z" stroke="#5C4500" stroke-width="2.62834" stroke-linecap="round" stroke-linejoin="round"/>
<path d="M45.0312 45.1074L50.6822 50.5612" stroke="#5C4500" stroke-width="2.62834" stroke-linecap="round" stroke-linejoin="round"/>
<path d="M69.9346 44.1221C69.9346 44.1221 72.563 46.5533 72.3658 50.4301C72.3001 52.0728 71.6431 53.2556 71.0517 54.1098" stroke="#5C4500" stroke-width="2.62834" stroke-linecap="round" stroke-linejoin="round"/>
<path d="M52.3248 47.3422C53.3761 46.8823 54.6246 47.0137 56.0045 48.2621C57.3843 49.5106 59.6841 46.2909 62.7724 47.2108C65.8607 48.1307 66.3207 49.9706 66.3207 49.9706" stroke="#5C4500" stroke-width="2.62834" stroke-linecap="round" stroke-linejoin="round"/>
<path d="M99.4089 51.4567L97.2405 53.1651L94.9407 51.6539C91.721 49.4855 89.8154 47.777 89.8154 45.3458C89.8154 43.2432 91.5239 41.6004 93.6265 41.6004C94.9407 41.6004 96.1235 42.3232 96.7805 43.3746C97.3719 42.2575 98.4233 41.469 99.7374 41.3376C101.774 41.1405 103.614 42.6518 103.877 44.6887C104.008 46.2657 103.351 47.5799 102.037 49.0255" fill="#EE4949"/>
<path d="M99.4089 51.4567L97.2405 53.1651L94.9407 51.6539C91.721 49.4855 89.8154 47.777 89.8154 45.3458C89.8154 43.2432 91.5239 41.6004 93.6265 41.6004C94.9407 41.6004 96.1235 42.3232 96.7805 43.3746C97.3719 42.2575 98.4233 41.469 99.7374 41.3376C101.774 41.1405 103.614 42.6518 103.877 44.6887C104.008 46.2657 103.351 47.5799 102.037 49.0255" stroke="#5C4500" stroke-width="2.62834" stroke-linecap="round" stroke-linejoin="round"/>
<path d="M30.0183 16.6559C32.1867 15.8017 33.698 13.6991 33.698 11.1364C33.698 7.85099 30.2811 3.05427 25.4187 5.35407C24.6302 3.11998 22.3304 2.00293 19.8334 2.00293C16.6137 2.00293 14.0511 4.63127 14.0511 7.9167C14.0511 8.24524 13.6568 8.24524 13.7225 8.50808C11.2256 9.16516 9.78003 11.7278 9.78003 14.4876C9.78003 17.773 12.0798 20.9927 15.2996 20.9927C16.0223 20.9927 16.7451 20.8613 17.3365 20.5985C18.0593 22.964 20.5562 24.081 23.1189 24.081C25.7472 24.081 27.9813 22.2412 28.7041 19.81C30.0183 20.0071 31.5296 20.2699 33.4351 20.0071C32.4495 20.1385 31.1353 18.2329 30.0183 16.6559Z" fill="white" stroke="#5C4500" stroke-width="2.62834" stroke-miterlimit="10" stroke-linecap="round" stroke-linejoin="round"/>
<path d="M21.8699 8.90137V13.6324" stroke="#5C4500" stroke-width="2.62834" stroke-miterlimit="10" stroke-linecap="round" stroke-linejoin="round"/>
<path d="M21.9359 18.4946C22.6617 18.4946 23.25 17.9062 23.25 17.1804C23.25 16.4546 22.6617 15.8662 21.9359 15.8662C21.2101 15.8662 20.6217 16.4546 20.6217 17.1804C20.6217 17.9062 21.2101 18.4946 21.9359 18.4946Z" fill="#5C4500"/>
<path d="M223.265 11H153.614V57.5217H223.265V11Z" fill="white"/>
<path d="M184.957 33.6694C185.683 33.6694 186.271 33.081 186.271 32.3552C186.271 31.6294 185.683 31.041 184.957 31.041C184.231 31.041 183.643 31.6294 183.643 32.3552C183.643 33.081 184.231 33.6694 184.957 33.6694Z" fill="#5C4500"/>
<path d="M189.688 33.6694C190.414 33.6694 191.002 33.081 191.002 32.3552C191.002 31.6294 190.414 31.041 189.688 31.041C188.962 31.041 188.374 31.6294 188.374 32.3552C188.374 33.081 188.962 33.6694 189.688 33.6694Z" fill="#5C4500"/>
<path d="M190.542 46.877L191.199 50.2281V57.0618" stroke="#FFF3CF" stroke-width="1.31417" stroke-linecap="round" stroke-linejoin="round"/>
<path d="M193.893 44.8408L194.616 48.6519V56.3398" stroke="#FFF3CF" stroke-width="1.31417" stroke-linecap="round" stroke-linejoin="round"/>
<path d="M197.31 40.7656L197.967 45.9566V56.3386" stroke="#FFF3CF" stroke-width="1.31417" stroke-linecap="round" stroke-linejoin="round"/>
<path d="M188.505 42.8026L194.616 39.3857" stroke="#FFF3CF" stroke-width="1.31417" stroke-linecap="round" stroke-linejoin="round"/>
<path d="M191.199 27.1642C193.236 31.8953 194.222 38.0719 199.741 35.1807C203.421 33.2751 202.041 25.1273 200.398 23.2874C198.756 21.4476 195.93 18.2936 193.696 17.6365C191.462 16.9794 186.402 17.5708 183.248 19.7392C180.094 21.9076 180.291 28.4784 180.291 28.4784" fill="#FFF3CF"/>
<path d="M223.265 11H153.614V57.5217H223.265V11Z" stroke="#5C4500" stroke-width="2.62834" stroke-miterlimit="10" stroke-linecap="round" stroke-linejoin="round"/>
<path d="M177.795 28.8065L192.58 27.2952C192.58 27.2952 191.791 37.2829 197.968 35.7716C204.144 34.2603 201.779 28.0837 201.056 24.9954C200.268 21.9071 197.245 18.096 193.368 17.3075C189.491 16.519 182.658 17.6361 180.358 23.747" stroke="#5C4500" stroke-width="2.62834" stroke-linecap="round" stroke-linejoin="round"/>
<path d="M197.31 29.8584L197.836 31.0412" stroke="#5C4500" stroke-width="2.62834" stroke-miterlimit="10" stroke-linecap="round" stroke-linejoin="round"/>
<path d="M181.803 28.8066C181.803 28.8066 179.503 37.283 184.103 38.7943C188.702 40.3056 191.791 38.0058 191.791 38.0058" stroke="#5C4500" stroke-width="2.62834" stroke-linecap="round" stroke-linejoin="round"/>
<path d="M187.125 40.0439C187.125 40.0439 183.709 42.738 181.015 42.738C178.32 42.738 176.283 44.1179 176.941 46.1548C177.598 48.1918 178.978 49.5717 185.088 48.1918C191.199 46.8119 194.616 42.738 194.616 42.738" stroke="#5C4500" stroke-width="2.62834" stroke-miterlimit="10" stroke-linecap="round" stroke-linejoin="round"/>
<path d="M181.015 43.46L182.394 48.191" stroke="#5C4500" stroke-width="2.62834" stroke-miterlimit="10" stroke-linecap="round" stroke-linejoin="round"/>
<path d="M195.93 38.6631C200.004 40.043 200.661 43.3941 200.661 46.8109C200.661 50.2278 200.661 56.9958 200.661 56.9958" stroke="#5C4500" stroke-width="2.62834" stroke-miterlimit="10" stroke-linecap="round" stroke-linejoin="round"/>
<path d="M185.088 48.9141C185.088 48.9141 186.468 49.5711 187.125 50.2939C187.783 50.951 187.783 56.4048 187.783 56.4048" stroke="#5C4500" stroke-width="2.62834" stroke-miterlimit="10" stroke-linecap="round" stroke-linejoin="round"/>
<path d="M173.392 38.7943L172.013 35.5745C171.815 35.1146 171.553 34.786 171.224 34.4575C170.501 33.8661 169.713 32.6177 169.384 31.8292L163.668 19.5417C163.01 18.0304 163.273 15.7963 164.456 15.2706L166.362 14.4821C167.61 13.9564 169.318 15.3363 169.976 16.8476L174.838 29.5294C175.167 30.3179 175.561 31.7634 175.429 32.6177C175.364 33.0776 175.495 33.5376 175.627 33.9318L177.006 37.1516" fill="#FFF3CF"/>
<path d="M173.392 38.7943L172.013 35.5745C171.815 35.1146 171.553 34.786 171.224 34.4575C170.501 33.8661 169.713 32.6177 169.384 31.8292L163.668 19.5417C163.01 18.0304 163.273 15.7963 164.456 15.2706L166.362 14.4821C167.61 13.9564 169.318 15.3363 169.976 16.8476L174.838 29.5294C175.167 30.3179 175.561 31.7634 175.429 32.6177C175.364 33.0776 175.495 33.5376 175.627 33.9318L177.006 37.1516" stroke="#5C4500" stroke-width="2.62834" stroke-miterlimit="10" stroke-linecap="round" stroke-linejoin="round"/>
<path d="M204.801 44.1163C204.801 44.1163 218.403 41.4223 223.134 33.2744" stroke="#5C4500" stroke-width="2.62834" stroke-miterlimit="10" stroke-linecap="round" stroke-linejoin="round"/>
<path d="M169.83 45.1548C169.83 45.1548 158.204 42.8521 154.16 35.8877" stroke="#5C4500" stroke-width="2.62701" stroke-miterlimit="10" stroke-linecap="round" stroke-linejoin="round"/>
<path d="M186.665 40.832L190.542 46.1544" stroke="#5C4500" stroke-width="2.62834" stroke-miterlimit="10" stroke-linecap="round" stroke-linejoin="round"/>
<path d="M172.867 39.9118C173.392 38.8605 175.232 36.5607 178.32 38.3348C180.357 39.5176 180.029 41.3574 178.715 42.6716C177.401 43.9201 172.275 43.6572 172.867 39.9118Z" stroke="#5C4500" stroke-width="2.62834" stroke-miterlimit="10" stroke-linecap="round" stroke-linejoin="round"/>
<path d="M228.439 42.8374L227.471 38.8966L215.96 48.5944L226.861 53.6292L228.156 58.1428L234.659 52.8777L230.522 50.8118L229.77 47.7383" fill="#EE4949"/>
<path d="M228.439 42.8374L227.471 38.8966L215.96 48.5944L226.861 53.6292L228.156 58.1428L234.659 52.8777L230.522 50.8118L229.77 47.7383" stroke="#5C4500" stroke-width="2.62834" stroke-linecap="round" stroke-linejoin="round"/>
<path d="M244.899 49.4451C249.145 49.4451 252.587 46.0032 252.587 41.7572C252.587 37.5113 249.145 34.0693 244.899 34.0693C240.653 34.0693 237.211 37.5113 237.211 41.7572C237.211 46.0032 240.653 49.4451 244.899 49.4451Z" fill="#FCD842" stroke="#5C4500" stroke-width="2.62834" stroke-miterlimit="10" stroke-linecap="round" stroke-linejoin="round"/>
<path d="M240.891 35.4502C240.891 35.4502 243.059 37.2243 242.008 41.1011C240.956 44.9779 238.196 45.1751 238.196 45.1751" stroke="#5C4500" stroke-width="2.62834" stroke-miterlimit="10" stroke-linecap="round" stroke-linejoin="round"/>
<path d="M251.601 38.3418C251.601 38.3418 248.775 38.8018 247.724 42.6786C246.673 46.5554 248.907 48.0667 248.907 48.0667" stroke="#5C4500" stroke-width="2.62834" stroke-miterlimit="10" stroke-linecap="round" stroke-linejoin="round"/>
<path d="M12.6018 62.4335C12.0876 62.4961 11.3573 61.6271 11.0631 61.2138L13.6296 60.76C13.4579 61.2813 13.1159 62.3708 12.6018 62.4335Z" fill="white"/>
<path d="M27.4899 59.8661C26.9757 59.9288 26.2454 59.0597 25.9512 58.6465L28.5177 58.1926C28.346 58.7139 28.004 59.8034 27.4899 59.8661Z" fill="white"/>
<path d="M33.4882 55.038C33.5992 55.5976 33.1931 56.1261 32.679 56.1887L6.54392 60.695C5.98433 60.806 5.45582 60.3999 5.39317 59.8858L2.32552 42.4331C2.21312 41.8266 2.6675 41.3435 3.13478 41.2823L29.3167 36.7746C29.784 36.7134 30.3551 36.9774 30.4675 37.5838L33.4882 55.038Z" fill="white"/>
<path d="M10.5763 51.4228C11.5095 51.2535 12.093 50.3912 11.9705 49.4566C11.8012 48.5235 10.9389 47.9399 10.0043 48.0624C9.07118 48.2317 8.48767 49.094 8.6101 50.0286C8.77941 50.9617 9.6432 51.5921 10.5763 51.4228Z" fill="#252525"/>
<path d="M29.114 34.7635L19.3593 36.4226L23.0025 31.2911C23.4071 30.7157 23.2435 29.97 22.715 29.564C22.0473 29.2091 21.3031 29.4195 20.9425 29.8997L15.9066 37.0444L8.76196 32.0084C8.18658 31.6038 7.4395 31.7205 7.03486 32.2959C6.6771 32.8698 6.7938 33.6169 7.3223 34.023L12.4524 37.6192L2.65229 39.3267C1.11268 39.6084 0.169972 40.9978 0.40337 42.492L3.53368 60.4588C3.76707 61.953 5.2048 62.9411 6.69897 62.7078L9.3592 62.251C9.3592 62.251 11.0289 64.6864 12.9435 64.3933C14.8097 64.0546 15.6142 61.2151 15.6142 61.2151L24.2483 59.731C24.2483 59.731 25.918 62.1664 27.8326 61.8732C29.7457 61.5332 30.5033 58.695 30.5033 58.695L33.1636 58.2383C34.6577 58.0049 35.6459 56.5672 35.4125 55.073L32.3276 37.0578C31.999 35.5196 30.5613 34.5315 29.114 34.7635ZM12.602 62.4332C12.0878 62.4959 11.3575 61.6268 11.0633 61.2136L13.6298 60.7597C13.4581 61.2811 13.1161 62.3706 12.602 62.4332ZM27.4896 59.8663C26.9755 59.929 26.2451 59.0599 25.951 58.6467L28.5175 58.1928C28.3458 58.7142 28.0038 59.8037 27.4896 59.8663ZM33.4878 55.0381C33.5988 55.5977 33.1927 56.1262 32.6786 56.1888L6.54353 60.6951C5.98394 60.8061 5.45543 60.4 5.39278 59.8859L2.32513 42.4332C2.21273 41.8267 2.66711 41.3436 3.13439 41.2824L29.3163 36.7747C29.7836 36.7134 30.3547 36.9775 30.4671 37.5839L33.4878 55.0381Z" fill="#252525"/>
<path d="M25.1845 45.8613C26.1177 45.692 26.7012 44.8296 26.5788 43.8951C26.4095 42.9619 25.5471 42.3784 24.6125 42.5009C23.6794 42.6702 23.0959 43.5325 23.2183 44.4671C23.4345 45.3988 24.2983 46.0292 25.1845 45.8613Z" fill="#252525"/>
<path d="M21.1852 53.1622L18.9291 51.4954C18.7373 51.3605 18.5484 51.3194 18.3624 51.372C18.1763 51.4246 17.9917 51.5241 17.8554 51.669L16.2837 53.9691C16.014 54.3526 16.3067 54.719 16.774 54.6578L20.9738 53.9193C21.3942 53.8596 21.5688 53.432 21.1852 53.1622Z" fill="#252525"/>
<path d="M28.1052 38.5941L4.86333 42.5896C4.39604 42.6508 4.08229 43.1295 4.1435 43.5968L6.65349 58.1578C6.71471 58.6251 7.19347 58.9389 7.66076 58.8776L30.8558 54.8836C31.3231 54.8223 31.6368 54.3436 31.5756 53.8763L29.1125 39.3139C29.0513 38.8466 28.5725 38.5328 28.1052 38.5941ZM30.8754 53.9916C30.8768 54.0384 30.8328 54.1336 30.7859 54.135L7.59093 58.1291C7.54406 58.1305 7.44888 58.0865 7.44744 58.0397L4.89059 43.4801C4.88915 43.4333 4.93316 43.3381 4.98003 43.3366L28.2219 39.3411C28.2688 39.3397 28.364 39.3837 28.3654 39.4306L30.8754 53.9916Z" fill="#252525"/>
<path d="M142.309 37.6453C144.181 37.039 145.207 35.0301 144.601 33.1583C143.994 31.2865 141.985 30.2607 140.114 30.867C138.242 31.4733 137.216 33.4822 137.822 35.354C138.429 37.2258 140.438 38.2516 142.309 37.6453Z" fill="white"/>
<path d="M153.8 41.1185L132.336 44.8604L135.413 62.5096L156.877 58.7678L153.8 41.1185Z" fill="white"/>
<path d="M143.837 53.921L142.182 56.5194C141.967 56.8604 142.273 57.3039 142.682 57.2257L147.048 56.4627C147.457 56.3845 147.559 55.8629 147.267 55.6319L144.818 53.766C144.461 53.5018 144.052 53.5799 143.837 53.921Z" fill="#252525"/>
<path d="M147.748 49.073C147.934 50.1523 148.989 50.896 150.069 50.7092C151.148 50.5224 151.892 49.4674 151.705 48.3882C151.518 47.309 150.463 46.5653 149.384 46.7521C148.305 46.9388 147.561 47.9938 147.748 49.073Z" fill="#252525"/>
<path d="M135.582 53.0684C135.769 54.1476 136.824 54.8913 137.903 54.7046C138.982 54.5178 139.726 53.4628 139.539 52.3836C139.352 51.3044 138.297 50.5607 137.218 50.7475C136.123 50.8851 135.379 51.9401 135.582 53.0684Z" fill="#252525"/>
<path d="M135.529 63.1253C135.764 64.3518 136.917 65.0637 138.159 64.8783L152.238 62.4343C157.324 61.5468 160.425 55.8748 159.303 49.5628C158.181 43.2508 153.368 38.9484 148.283 39.8359L144.227 40.5526L143.993 39.326C146.06 38.168 147.255 35.8269 146.836 33.3579C146.307 30.2185 143.304 28.152 140.23 28.7137C137.09 29.2422 135.024 32.2453 135.585 35.3197C136.005 37.7887 137.949 39.6013 140.297 39.9804L140.516 41.1579L134.204 42.2799C132.977 42.5144 132.086 43.6171 132.337 44.8928C132.587 46.1685 133.74 46.8804 134.967 46.6459L149.242 44.1382C151.76 43.7024 154.414 46.5333 155.084 50.278C155.755 54.0228 154.188 57.7322 151.719 58.1521L137.444 60.6597C136.152 60.861 135.279 61.8496 135.529 63.1253ZM143.386 33.9327C143.604 35.1102 142.827 36.2302 141.634 36.3997C140.456 36.6183 139.336 35.8414 139.167 34.648C138.948 33.4706 139.725 32.3505 140.919 32.1811C142.047 31.9784 143.167 32.7553 143.386 33.9327Z" fill="#252525"/>
</svg>
