<svg width="105" height="40" viewBox="0 0 105 40" fill="none" xmlns="http://www.w3.org/2000/svg">
<g filter="url(#filter0_d)">
<path fill-rule="evenodd" clip-rule="evenodd" d="M86.8513 4C94.031 4 99.8513 9.8203 99.8513 17C99.8513 24.1797 94.031 30 86.8513 30L55.8926 30C50.246 32.5926 45.8512 34.7493 45.8512 34.7493C45.8512 34.7493 46.7888 32.4112 47.0826 30H17.8513C10.6716 30 4.85126 24.1797 4.85126 17C4.85126 9.8203 10.6716 4 17.8513 4L86.8513 4Z" fill="white"/>
<path d="M25.0257 19.8082C25.2337 19.8342 25.4027 19.9252 25.5327 20.0812C25.6627 20.2372 25.7234 20.4192 25.7147 20.6272C25.6887 20.9998 25.6584 21.2945 25.6237 21.5112C25.5977 21.7278 25.537 21.9228 25.4417 22.0962C25.3464 22.2695 25.2554 22.3908 25.1687 22.4602C25.082 22.5382 24.9174 22.5988 24.6747 22.6422C24.4407 22.6942 24.2154 22.7245 23.9987 22.7332C23.7907 22.7418 23.4657 22.7462 23.0237 22.7462H22.6337H22.2437C21.533 22.7462 21.0304 22.7158 20.7357 22.6552C20.4497 22.5945 20.259 22.4905 20.1637 22.3432C20.077 22.2045 20.0337 21.9488 20.0337 21.5762V19.4182C20.0337 19.3402 19.999 19.3012 19.9297 19.3012H19.5137C19.4357 19.3012 19.388 19.3358 19.3707 19.4052C18.9287 21.1645 17.4857 22.2998 15.0417 22.8112C14.8337 22.8545 14.6387 22.8198 14.4567 22.7072C14.2834 22.6032 14.162 22.4472 14.0927 22.2392L13.8847 21.6282C13.824 21.4462 13.8457 21.2772 13.9497 21.1212C14.0624 20.9565 14.214 20.8525 14.4047 20.8092C15.7394 20.5578 16.5584 20.0898 16.8617 19.4052C16.8964 19.3358 16.8747 19.3012 16.7967 19.3012H15.5747C15.3754 19.3012 15.202 19.2275 15.0547 19.0802C14.9074 18.9328 14.8337 18.7595 14.8337 18.5602V11.8522C14.8337 11.6528 14.9074 11.4795 15.0547 11.3322C15.202 11.1848 15.3754 11.1112 15.5747 11.1112H23.9727C24.172 11.1112 24.3454 11.1848 24.4927 11.3322C24.64 11.4795 24.7137 11.6528 24.7137 11.8522V18.5602C24.7137 18.7595 24.64 18.9328 24.4927 19.0802C24.3454 19.2275 24.172 19.3012 23.9727 19.3012H22.5557C22.4777 19.3012 22.4387 19.3402 22.4387 19.4182V20.5362C22.4387 20.7268 22.4517 20.8395 22.4777 20.8742C22.5124 20.9088 22.6294 20.9262 22.8287 20.9262H22.8937H22.9587C23.158 20.9262 23.2837 20.9002 23.3357 20.8482C23.3964 20.7962 23.4354 20.6402 23.4527 20.3802C23.47 20.1808 23.5524 20.0162 23.6997 19.8862C23.847 19.7475 24.016 19.6868 24.2067 19.7042L25.0257 19.8082ZM22.3087 17.4942V17.1302C22.3087 17.0608 22.2697 17.0262 22.1917 17.0262H17.3557C17.2777 17.0262 17.2387 17.0608 17.2387 17.1302V17.4942C17.2387 17.5722 17.2777 17.6112 17.3557 17.6112H22.1917C22.2697 17.6112 22.3087 17.5722 22.3087 17.4942ZM22.3087 15.4792V15.1282C22.3087 15.0502 22.2697 15.0112 22.1917 15.0112H17.3557C17.2777 15.0112 17.2387 15.0502 17.2387 15.1282V15.4792C17.2387 15.5572 17.2777 15.5962 17.3557 15.5962H22.1917C22.2697 15.5962 22.3087 15.5572 22.3087 15.4792ZM22.3087 13.4642V13.1002C22.3087 13.0308 22.2697 12.9962 22.1917 12.9962H17.3557C17.2777 12.9962 17.2387 13.0308 17.2387 13.1002V13.4642C17.2387 13.5422 17.2777 13.5812 17.3557 13.5812H22.1917C22.2697 13.5812 22.3087 13.5422 22.3087 13.4642ZM38.0257 20.8612C38.225 20.8612 38.394 20.9348 38.5327 21.0822C38.6714 21.2295 38.732 21.4028 38.7147 21.6022L38.6887 22.0702C38.68 22.2782 38.5977 22.4515 38.4417 22.5902C38.2857 22.7375 38.1037 22.8112 37.8957 22.8112H35.7117C33.9264 22.8112 32.544 22.7418 31.5647 22.6032C30.594 22.4645 29.8617 22.2175 29.3677 21.8622C29.2984 21.8102 29.2334 21.8102 29.1727 21.8622C28.8607 22.1135 28.54 22.3562 28.2107 22.5902C28.046 22.7115 27.864 22.7505 27.6647 22.7072C27.4654 22.6638 27.3137 22.5555 27.2097 22.3822L26.8587 21.8102C26.7547 21.6368 26.7244 21.4548 26.7677 21.2642C26.811 21.0648 26.9194 20.9088 27.0927 20.7962C27.1534 20.7528 27.253 20.6878 27.3917 20.6012C27.5304 20.5145 27.63 20.4495 27.6907 20.4062C27.7514 20.3715 27.7817 20.3108 27.7817 20.2242V17.7282C27.7817 17.6502 27.7427 17.6112 27.6647 17.6112H27.4827C27.2834 17.6112 27.11 17.5375 26.9627 17.3902C26.8154 17.2428 26.7417 17.0695 26.7417 16.8702V16.4022C26.7417 16.2028 26.8154 16.0295 26.9627 15.8822C27.11 15.7348 27.2834 15.6612 27.4827 15.6612H29.3157C29.515 15.6612 29.6884 15.7348 29.8357 15.8822C29.983 16.0295 30.0567 16.2028 30.0567 16.4022V19.7692C30.0567 19.8385 30.0784 19.9078 30.1217 19.9772C30.295 20.2372 30.529 20.4235 30.8237 20.5362C31.1184 20.6488 31.621 20.7312 32.3317 20.7832C33.0424 20.8352 34.1474 20.8612 35.6467 20.8612H38.0257ZM30.7197 18.8462C31.1617 18.4822 31.4564 18.0748 31.6037 17.6242C31.6124 17.6068 31.608 17.5938 31.5907 17.5852C31.5734 17.5678 31.556 17.5635 31.5387 17.5722C31.4954 17.5895 31.4347 17.6198 31.3567 17.6632C31.2787 17.7065 31.2224 17.7368 31.1877 17.7542C31.0144 17.8408 30.8367 17.8452 30.6547 17.7672C30.4814 17.6805 30.373 17.5418 30.3297 17.3512L30.1737 16.7012C30.1217 16.5018 30.1434 16.3112 30.2387 16.1292C30.334 15.9385 30.4814 15.8042 30.6807 15.7262C31.088 15.5702 31.452 15.4098 31.7727 15.2452C31.842 15.2105 31.8767 15.1585 31.8767 15.0892V14.6342C31.8767 14.6082 31.8637 14.5908 31.8377 14.5822C31.8204 14.5648 31.803 14.5648 31.7857 14.5822L31.5387 14.7122C31.3654 14.8075 31.1834 14.8248 30.9927 14.7642C30.8107 14.7035 30.672 14.5822 30.5767 14.4002C30.516 14.2615 30.4467 14.1228 30.3687 13.9842C30.334 13.9322 30.295 13.9365 30.2517 13.9972C30.2344 14.0232 30.2084 14.0535 30.1737 14.0882L29.7447 14.5042C29.5974 14.6428 29.424 14.7078 29.2247 14.6992C29.0254 14.6905 28.8564 14.6125 28.7177 14.4652C28.4404 14.1618 27.994 13.6938 27.3787 13.0612C27.24 12.9225 27.175 12.7535 27.1837 12.5542C27.1924 12.3548 27.2704 12.1858 27.4177 12.0472L27.8857 11.6052C28.033 11.4665 28.2107 11.4015 28.4187 11.4102C28.6267 11.4188 28.8 11.4968 28.9387 11.6442C29.2767 12.0168 29.5454 12.3072 29.7447 12.5152C29.762 12.5325 29.7837 12.5412 29.8097 12.5412C29.8357 12.5325 29.853 12.5152 29.8617 12.4892C29.9137 12.3332 30.022 12.2075 30.1867 12.1122L30.6417 11.8652C30.815 11.7612 31.0014 11.7395 31.2007 11.8002C31.4087 11.8522 31.556 11.9692 31.6427 12.1512L31.8377 12.5412C31.855 12.5412 31.868 12.5325 31.8767 12.5152V11.7222C31.8767 11.5228 31.9504 11.3495 32.0977 11.2022C32.245 11.0548 32.4184 10.9812 32.6177 10.9812H33.2807C33.48 10.9812 33.6534 11.0548 33.8007 11.2022C33.948 11.3495 34.0217 11.5228 34.0217 11.7222V14.1662C34.0217 15.9082 33.8874 17.2385 33.6187 18.1572C33.3587 19.0758 32.9037 19.8255 32.2537 20.4062C32.0977 20.5448 31.9157 20.6098 31.7077 20.6012C31.4997 20.5838 31.3177 20.4972 31.1617 20.3412L30.6417 19.8212C30.503 19.6825 30.4424 19.5178 30.4597 19.3272C30.4857 19.1278 30.5724 18.9675 30.7197 18.8462ZM35.7507 10.9812C35.95 10.9812 36.1234 11.0548 36.2707 11.2022C36.418 11.3495 36.4917 11.5228 36.4917 11.7222V12.3722C36.4917 12.3895 36.5004 12.3982 36.5177 12.3982C36.535 12.3982 36.548 12.3938 36.5567 12.3852L36.6737 12.1512C36.769 11.9778 36.912 11.8652 37.1027 11.8132C37.302 11.7525 37.4884 11.7698 37.6617 11.8652L38.1167 12.1122C38.29 12.2075 38.407 12.3548 38.4677 12.5542C38.537 12.7535 38.524 12.9398 38.4287 13.1132C38.1774 13.5638 37.9304 13.9755 37.6877 14.3482C37.575 14.5128 37.4147 14.6168 37.2067 14.6602C37.0074 14.6948 36.8254 14.6558 36.6607 14.5432L36.5827 14.4912C36.5654 14.4738 36.5437 14.4738 36.5177 14.4912C36.5004 14.4998 36.4917 14.5172 36.4917 14.5432V14.8682C36.4917 14.9462 36.522 14.9982 36.5827 15.0242C36.938 15.1975 37.432 15.4575 38.0647 15.8042C38.238 15.8995 38.3464 16.0468 38.3897 16.2462C38.433 16.4455 38.3984 16.6275 38.2857 16.7922L37.7657 17.5332C37.7224 17.5938 37.7354 17.6328 37.8047 17.6502L37.9087 17.6632C38.1167 17.7065 38.2857 17.8105 38.4157 17.9752C38.5457 18.1398 38.6064 18.3262 38.5977 18.5342C38.5804 18.8808 38.5587 19.1582 38.5327 19.3662C38.5154 19.5655 38.4677 19.7475 38.3897 19.9122C38.3117 20.0768 38.238 20.1938 38.1687 20.2632C38.0994 20.3325 37.9694 20.3932 37.7787 20.4452C37.588 20.4885 37.4017 20.5145 37.2197 20.5232C37.0464 20.5318 36.782 20.5362 36.4267 20.5362C36.0887 20.5362 35.8157 20.5318 35.6077 20.5232C35.4084 20.5058 35.222 20.4712 35.0487 20.4192C34.884 20.3585 34.7584 20.2935 34.6717 20.2242C34.5937 20.1462 34.5244 20.0248 34.4637 19.8602C34.4117 19.6955 34.377 19.5222 34.3597 19.3402C34.351 19.1495 34.3467 18.8982 34.3467 18.5862V11.7222C34.3467 11.5228 34.4204 11.3495 34.5677 11.2022C34.715 11.0548 34.8884 10.9812 35.0877 10.9812H35.7507ZM36.5827 17.3252C36.5654 17.3078 36.5437 17.3078 36.5177 17.3252C36.5004 17.3338 36.4917 17.3512 36.4917 17.3772V18.3912C36.4917 18.5212 36.5004 18.5992 36.5177 18.6252C36.535 18.6425 36.5914 18.6512 36.6867 18.6512C36.7994 18.6512 36.8687 18.6078 36.8947 18.5212C36.9207 18.4258 36.938 18.1268 36.9467 17.6242C36.9467 17.5548 36.9164 17.5072 36.8557 17.4812L36.5827 17.3252ZM50.4537 17.1562C50.6444 17.2255 50.7787 17.3512 50.8567 17.5332C50.9434 17.7152 50.9477 17.9015 50.8697 18.0922C50.237 19.5828 49.47 20.6662 48.5687 21.3422C47.6674 22.0182 46.6187 22.3562 45.4227 22.3562C44.3567 22.3562 43.5334 22.2045 42.9527 21.9012C42.372 21.5978 41.943 21.0735 41.6657 20.3282C41.397 19.5828 41.2627 18.5255 41.2627 17.1562C41.2627 15.5528 41.3104 13.8932 41.4057 12.1772C41.423 11.9692 41.5054 11.7958 41.6527 11.6572C41.8087 11.5098 41.9907 11.4405 42.1987 11.4492L43.2517 11.4882C43.451 11.4968 43.6157 11.5748 43.7457 11.7222C43.8844 11.8695 43.9494 12.0428 43.9407 12.2422C43.8454 13.8888 43.7977 15.5268 43.7977 17.1562C43.7977 17.9448 43.8497 18.5472 43.9537 18.9632C44.0664 19.3705 44.2354 19.6478 44.4607 19.7952C44.686 19.9425 45.0067 20.0162 45.4227 20.0162C46.0554 20.0162 46.6317 19.8038 47.1517 19.3792C47.6717 18.9545 48.1657 18.2438 48.6337 17.2472C48.729 17.0565 48.8677 16.9222 49.0497 16.8442C49.2404 16.7662 49.431 16.7618 49.6217 16.8312L50.4537 17.1562ZM64.1297 18.7032C64.3377 18.7292 64.5067 18.8202 64.6367 18.9762C64.7754 19.1235 64.8404 19.3012 64.8317 19.5092C64.8057 20.1245 64.7667 20.6228 64.7147 21.0042C64.6627 21.3768 64.602 21.6845 64.5327 21.9272C64.472 22.1785 64.3724 22.3605 64.2337 22.4732C64.095 22.5858 63.952 22.6595 63.8047 22.6942C63.6574 22.7375 63.445 22.7635 63.1677 22.7722C62.3617 22.7982 61.9067 22.8112 61.8027 22.8112C61.4214 22.8112 61.053 22.7982 60.6977 22.7722C60.4897 22.7548 60.3294 22.7375 60.2167 22.7202C60.104 22.7115 59.9914 22.6768 59.8787 22.6162C59.7747 22.5642 59.701 22.5035 59.6577 22.4342C59.6144 22.3648 59.5754 22.2522 59.5407 22.0962C59.506 21.9488 59.4844 21.7842 59.4757 21.6022C59.467 21.4202 59.4627 21.1732 59.4627 20.8612V15.8822C59.4627 15.6828 59.5364 15.5095 59.6837 15.3622C59.831 15.2148 60.0044 15.1412 60.2037 15.1412H62.1537C62.223 15.1412 62.2577 15.1022 62.2577 15.0242V13.3082C62.2577 13.2302 62.223 13.1912 62.1537 13.1912H60.1387C59.9394 13.1912 59.766 13.1175 59.6187 12.9702C59.4714 12.8228 59.3977 12.6495 59.3977 12.4502V11.9172C59.3977 11.7178 59.4714 11.5445 59.6187 11.3972C59.766 11.2498 59.9394 11.1762 60.1387 11.1762H63.8567C64.056 11.1762 64.2294 11.2498 64.3767 11.3972C64.524 11.5445 64.5977 11.7178 64.5977 11.9172V17.1302C64.5977 17.3295 64.524 17.5028 64.3767 17.6502C64.2294 17.7975 64.056 17.8712 63.8567 17.8712H62.8817C62.717 17.8712 62.5697 17.8105 62.4397 17.6892C62.3184 17.5592 62.2577 17.4118 62.2577 17.2472C62.2577 17.1865 62.2274 17.1562 62.1667 17.1562H61.7897C61.7117 17.1562 61.6727 17.1908 61.6727 17.2602V20.4062C61.6727 20.5535 61.6857 20.6445 61.7117 20.6792C61.7377 20.7138 61.8114 20.7312 61.9327 20.7312H62.0627H62.2577C62.3444 20.7312 62.405 20.7095 62.4397 20.6662C62.4744 20.6142 62.5004 20.4842 62.5177 20.2762C62.5437 20.0682 62.561 19.7302 62.5697 19.2622C62.5784 19.0628 62.6564 18.8982 62.8037 18.7682C62.951 18.6382 63.12 18.5818 63.3107 18.5992L64.1297 18.7032ZM58.3317 13.5812C58.531 13.5812 58.7044 13.6548 58.8517 13.8022C58.999 13.9495 59.0727 14.1228 59.0727 14.3222V22.0052C59.0727 22.2045 58.999 22.3778 58.8517 22.5252C58.7044 22.6725 58.531 22.7462 58.3317 22.7462H57.7727C57.66 22.7462 57.5647 22.7072 57.4867 22.6292C57.4174 22.5598 57.3827 22.4688 57.3827 22.3562C57.3827 22.3128 57.361 22.2912 57.3177 22.2912H54.6527C54.6094 22.2912 54.5877 22.3128 54.5877 22.3562C54.5877 22.4688 54.5487 22.5598 54.4707 22.6292C54.4014 22.7072 54.3104 22.7462 54.1977 22.7462H53.5087C53.3094 22.7462 53.136 22.6725 52.9887 22.5252C52.8414 22.3778 52.7677 22.2045 52.7677 22.0052V14.3222C52.7677 14.1228 52.8414 13.9495 52.9887 13.8022C53.136 13.6548 53.3094 13.5812 53.5087 13.5812H54.0807C54.1587 13.5812 54.1977 13.5422 54.1977 13.4642V13.1782C54.1977 13.1002 54.1587 13.0612 54.0807 13.0612H53.3787C53.1794 13.0612 53.006 12.9875 52.8587 12.8402C52.7114 12.6928 52.6377 12.5195 52.6377 12.3202V11.9172C52.6377 11.7178 52.7114 11.5445 52.8587 11.3972C53.006 11.2498 53.1794 11.1762 53.3787 11.1762H58.2667C58.466 11.1762 58.6394 11.2498 58.7867 11.3972C58.934 11.5445 59.0077 11.7178 59.0077 11.9172V12.3202C59.0077 12.5195 58.934 12.6928 58.7867 12.8402C58.6394 12.9875 58.466 13.0612 58.2667 13.0612H57.8247C57.7467 13.0612 57.7077 13.1002 57.7077 13.1782V13.4642C57.7077 13.5422 57.7467 13.5812 57.8247 13.5812H58.3317ZM55.7577 13.1782V13.4642C55.7577 13.5422 55.7967 13.5812 55.8747 13.5812H56.0307C56.1087 13.5812 56.1477 13.5422 56.1477 13.4642V13.1782C56.1477 13.1002 56.1087 13.0612 56.0307 13.0612H55.8747C55.7967 13.0612 55.7577 13.1002 55.7577 13.1782ZM54.5877 15.3882V17.0392C54.5877 17.0478 54.592 17.0522 54.6007 17.0522C54.618 17.0522 54.631 17.0478 54.6397 17.0392C54.7784 16.6665 54.8477 16.1162 54.8477 15.3882C54.8477 15.3102 54.8087 15.2712 54.7307 15.2712H54.7047C54.6267 15.2712 54.5877 15.3102 54.5877 15.3882ZM54.5877 17.8842V18.4042C54.5877 18.4822 54.6267 18.5212 54.7047 18.5212H55.1077C55.125 18.5212 55.138 18.5125 55.1467 18.4952C55.1554 18.4692 55.1554 18.4475 55.1467 18.4302L54.6527 17.8582C54.6354 17.8408 54.618 17.8365 54.6007 17.8452C54.592 17.8538 54.5877 17.8668 54.5877 17.8842ZM57.3827 20.4192V20.1982C57.3827 20.1202 57.3437 20.0812 57.2657 20.0812H54.7047C54.6267 20.0812 54.5877 20.1202 54.5877 20.1982V20.4192C54.5877 20.4972 54.6267 20.5362 54.7047 20.5362H57.2657C57.3437 20.5362 57.3827 20.4972 57.3827 20.4192ZM57.3827 18.4042V18.0532C57.3827 17.9752 57.3437 17.9362 57.2657 17.9362H56.7327C56.438 17.9362 56.256 17.8972 56.1867 17.8192C56.1174 17.7412 56.0827 17.5202 56.0827 17.1562V15.3362C56.0827 15.2928 56.061 15.2712 56.0177 15.2712C55.9744 15.2712 55.9527 15.2972 55.9527 15.3492C55.9527 16.1032 55.9267 16.6882 55.8747 17.1042C55.8227 17.5115 55.7187 17.9448 55.5627 18.4042C55.5454 18.4822 55.5714 18.5212 55.6407 18.5212H57.2657C57.3437 18.5212 57.3827 18.4822 57.3827 18.4042ZM57.3827 16.1942V15.3882C57.3827 15.3102 57.3437 15.2712 57.2657 15.2712H57.2397C57.1617 15.2712 57.1227 15.3102 57.1227 15.3882V16.1162C57.1227 16.2115 57.127 16.2678 57.1357 16.2852C57.153 16.3025 57.2007 16.3112 57.2787 16.3112C57.348 16.3112 57.3827 16.2722 57.3827 16.1942ZM68.8357 11.1112C69.035 11.1458 69.191 11.2498 69.3037 11.4232C69.425 11.5878 69.4684 11.7698 69.4337 11.9692C69.243 12.9572 69.0004 13.8108 68.7057 14.5302C68.671 14.6168 68.6537 14.6905 68.6537 14.7512V22.1352C68.6537 22.3345 68.58 22.5078 68.4327 22.6552C68.2854 22.8025 68.112 22.8762 67.9127 22.8762H67.1197C66.9204 22.8762 66.747 22.8025 66.5997 22.6552C66.4524 22.5078 66.3787 22.3345 66.3787 22.1352V18.1962C66.3787 18.1788 66.37 18.1702 66.3527 18.1702C66.344 18.1615 66.331 18.1658 66.3137 18.1832L66.1967 18.3392C66.11 18.4518 65.9974 18.4908 65.8587 18.4562C65.7287 18.4215 65.655 18.3305 65.6377 18.1832L65.4297 16.6492C65.369 16.1985 65.4774 15.7478 65.7547 15.2972C66.3614 14.3178 66.8424 13.0742 67.1977 11.5662C67.241 11.3668 67.3494 11.2108 67.5227 11.0982C67.696 10.9855 67.8824 10.9465 68.0817 10.9812L68.8357 11.1112ZM70.7597 12.7362C70.5604 12.7362 70.387 12.6625 70.2397 12.5152C70.0924 12.3678 70.0187 12.1945 70.0187 11.9952V11.9172C70.0187 11.7178 70.0924 11.5445 70.2397 11.3972C70.387 11.2498 70.5604 11.1762 70.7597 11.1762L76.6227 11.1762C76.822 11.1762 76.9954 11.2498 77.1427 11.3972C77.29 11.5445 77.3637 11.7178 77.3637 11.9172V11.9952C77.3637 12.1945 77.29 12.3678 77.1427 12.5152C76.9954 12.6625 76.822 12.7362 76.6227 12.7362H70.7597ZM77.2727 13.0612C77.472 13.0612 77.6454 13.1348 77.7927 13.2822C77.94 13.4295 78.0137 13.6028 78.0137 13.8022V14.0752C78.0137 14.2745 77.94 14.4478 77.7927 14.5952C77.6454 14.7425 77.472 14.8162 77.2727 14.8162H69.7847C69.5854 14.8162 69.412 14.7425 69.2647 14.5952C69.1174 14.4478 69.0437 14.2745 69.0437 14.0752V13.8022C69.0437 13.6028 69.1174 13.4295 69.2647 13.2822C69.412 13.1348 69.5854 13.0612 69.7847 13.0612H77.2727ZM70.4347 16.6362C70.2354 16.6362 70.062 16.5625 69.9147 16.4152C69.7674 16.2678 69.6937 16.0945 69.6937 15.8952V15.8822C69.6937 15.6828 69.7674 15.5095 69.9147 15.3622C70.062 15.2148 70.2354 15.1412 70.4347 15.1412H76.4927C76.692 15.1412 76.8654 15.2148 77.0127 15.3622C77.16 15.5095 77.2337 15.6828 77.2337 15.8822V15.8952C77.2337 16.0945 77.16 16.2678 77.0127 16.4152C76.8654 16.5625 76.692 16.6362 76.4927 16.6362H70.4347ZM69.6937 17.7152V17.7022C69.6937 17.5028 69.7674 17.3295 69.9147 17.1822C70.062 17.0348 70.2354 16.9612 70.4347 16.9612H76.4927C76.692 16.9612 76.8654 17.0348 77.0127 17.1822C77.16 17.3295 77.2337 17.5028 77.2337 17.7022V17.7152C77.2337 17.9145 77.16 18.0878 77.0127 18.2352C76.8654 18.3825 76.692 18.4562 76.4927 18.4562H70.4347C70.2354 18.4562 70.062 18.3825 69.9147 18.2352C69.7674 18.0878 69.6937 17.9145 69.6937 17.7152ZM76.6227 18.7812C76.822 18.7812 76.9954 18.8548 77.1427 19.0022C77.29 19.1495 77.3637 19.3228 77.3637 19.5222V22.1352C77.3637 22.3345 77.29 22.5078 77.1427 22.6552C76.9954 22.8025 76.822 22.8762 76.6227 22.8762H75.2967C75.2014 22.8762 75.119 22.8415 75.0497 22.7722C74.989 22.7028 74.9587 22.6248 74.9587 22.5382C74.9587 22.5035 74.9414 22.4862 74.9067 22.4862L71.9557 22.4862C71.921 22.4862 71.9037 22.5035 71.9037 22.5382C71.9037 22.6248 71.869 22.7028 71.7997 22.7722C71.7304 22.8415 71.6524 22.8762 71.5657 22.8762H70.3047C70.1054 22.8762 69.932 22.8025 69.7847 22.6552C69.6374 22.5078 69.5637 22.3345 69.5637 22.1352V19.5222C69.5637 19.3228 69.6374 19.1495 69.7847 19.0022C69.932 18.8548 70.1054 18.7812 70.3047 18.7812L76.6227 18.7812ZM74.9587 20.8742V20.3802C74.9587 20.3108 74.9197 20.2762 74.8417 20.2762L72.0077 20.2762C71.9384 20.2762 71.9037 20.3108 71.9037 20.3802V20.8742C71.9037 20.9522 71.9384 20.9912 72.0077 20.9912L74.8417 20.9912C74.9197 20.9912 74.9587 20.9522 74.9587 20.8742ZM87.8716 18.9328C87.9341 19.2936 87.9653 19.585 87.9653 19.807C87.9653 20.6812 87.6912 21.316 87.1431 21.7115C86.602 22.1069 85.6966 22.3047 84.4269 22.3047C83.185 22.3047 82.3177 22.0896 81.8251 21.6594C81.3395 21.2362 81.0967 20.48 81.0967 19.3907C81.0967 19.0091 81.1001 18.7073 81.1071 18.4853C81.1071 18.4298 81.0793 18.402 81.0238 18.402H79.6085C79.4489 18.402 79.3101 18.3431 79.1922 18.2251C79.0742 18.1072 79.0153 17.9684 79.0153 17.8088V17.3301C79.0153 17.1705 79.0742 17.0318 79.1922 16.9138C79.3101 16.7959 79.4489 16.7369 79.6085 16.7369H81.0967C81.1522 16.7369 81.1799 16.7092 81.1799 16.6537C81.1799 16.5912 81.1834 16.4906 81.1903 16.3519C81.2042 16.2131 81.2146 16.109 81.2215 16.0396C81.2215 15.9841 81.1938 15.9564 81.1383 15.9564H79.9207C79.7611 15.9564 79.6223 15.8974 79.5044 15.7795C79.3864 15.6615 79.3275 15.5228 79.3275 15.3632V14.8845C79.3275 14.7249 79.3864 14.5861 79.5044 14.4682C79.6223 14.3502 79.7611 14.2913 79.9207 14.2913H81.2424C81.3048 14.2913 81.336 14.2635 81.336 14.208L81.3672 13.8334C81.3742 13.6668 81.4401 13.5281 81.565 13.4171C81.6899 13.3061 81.8356 13.254 82.0021 13.261L82.793 13.2922C82.9526 13.2991 83.0844 13.3616 83.1885 13.4795C83.2995 13.5975 83.3515 13.7362 83.3446 13.8958L83.3134 14.208C83.3134 14.2635 83.3411 14.2913 83.3966 14.2913H86.0192C86.1787 14.2913 86.3175 14.3502 86.4355 14.4682C86.5534 14.5861 86.6124 14.7249 86.6124 14.8845V15.3632C86.6124 15.5228 86.5534 15.6615 86.4355 15.7795C86.3175 15.8974 86.1787 15.9564 86.0192 15.9564H83.2925C83.2301 15.9564 83.1989 15.9841 83.1989 16.0396C83.1919 16.1784 83.1815 16.3796 83.1677 16.6432C83.1677 16.7057 83.1954 16.7369 83.2509 16.7369H85.1866C85.3462 16.7369 85.4849 16.7959 85.6029 16.9138C85.7208 17.0318 85.7798 17.1705 85.7798 17.3301V17.8088C85.7798 17.9684 85.7208 18.1072 85.6029 18.2251C85.4849 18.3431 85.3462 18.402 85.1866 18.402H83.1781C83.1156 18.402 83.0844 18.4298 83.0844 18.4853C83.0775 18.7073 83.074 19.0091 83.074 19.3907C83.074 19.8902 83.1503 20.2059 83.3029 20.3377C83.4625 20.4696 83.8372 20.5355 84.4269 20.5355C84.9264 20.5355 85.2907 20.5112 85.5196 20.4626C85.7486 20.4071 85.9012 20.3239 85.9775 20.2129C86.0539 20.0949 86.092 19.9076 86.092 19.6509C86.092 19.5884 86.0816 19.4878 86.0608 19.3491C86.0331 19.1826 86.0608 19.0299 86.1441 18.8912C86.2273 18.7524 86.3487 18.6657 86.5083 18.631L87.1848 18.4853C87.3443 18.4506 87.49 18.4784 87.6219 18.5685C87.7606 18.6518 87.8439 18.7732 87.8716 18.9328ZM91.5453 13.9791C91.7049 13.9791 91.8402 14.038 91.9512 14.156C92.0691 14.2739 92.1212 14.4127 92.1073 14.5723L91.8575 18.4853C91.8506 18.6518 91.7847 18.794 91.6598 18.912C91.5418 19.023 91.3996 19.0785 91.2331 19.0785H90.5462C90.3797 19.0785 90.2375 19.023 90.1195 18.912C90.0016 18.794 89.9357 18.6518 89.9218 18.4853L89.672 14.5723C89.6651 14.4127 89.7171 14.2739 89.8281 14.156C89.9391 14.038 90.0744 13.9791 90.234 13.9791H91.5453ZM91.3372 19.911C91.4967 19.911 91.6355 19.97 91.7534 20.088C91.8714 20.2059 91.9304 20.3447 91.9304 20.5042V20.983C91.9304 21.1425 91.8714 21.2813 91.7534 21.3993C91.6355 21.5172 91.4967 21.5762 91.3372 21.5762H90.4422C90.2826 21.5762 90.1438 21.5172 90.0259 21.3993C89.9079 21.2813 89.849 21.1425 89.849 20.983V20.5042C89.849 20.3447 89.9079 20.2059 90.0259 20.088C90.1438 19.97 90.2826 19.911 90.4422 19.911H91.3372Z" fill="#252525"/>
</g>
<defs>
<filter id="filter0_d" x="0.582993" y="0.646363" width="103.537" height="39.2858" filterUnits="userSpaceOnUse" color-interpolation-filters="sRGB">
<feFlood flood-opacity="0" result="BackgroundImageFix"/>
<feColorMatrix in="SourceAlpha" type="matrix" values="0 0 0 0 0 0 0 0 0 0 0 0 0 0 0 0 0 0 127 0"/>
<feOffset dy="0.914628"/>
<feGaussianBlur stdDeviation="2.13413"/>
<feColorMatrix type="matrix" values="0 0 0 0 0.179167 0 0 0 0 0.119146 0 0 0 0 0.0291146 0 0 0 0.5 0"/>
<feBlend mode="normal" in2="BackgroundImageFix" result="effect1_dropShadow"/>
<feBlend mode="normal" in="SourceGraphic" in2="effect1_dropShadow" result="shape"/>
</filter>
</defs>
</svg>
