<svg width="216" height="83" viewBox="0 0 216 83" fill="none" xmlns="http://www.w3.org/2000/svg">
<g filter="url(#filter0_d)">
<path fill-rule="evenodd" clip-rule="evenodd" d="M181.224 7C195.983 7 207.948 18.965 207.948 33.7247C207.948 48.4843 195.983 60.4493 181.224 60.4493L69.4346 60.4493C56.651 66.8212 46 72.5734 46 72.5734C46 72.5734 48.3181 66.2115 48.5378 60.4493H34.7247C19.965 60.4493 7.99998 48.4843 7.99998 33.7247C7.99998 18.965 19.965 7 34.7247 7L181.224 7Z" fill="white"/>
<path d="M52.6188 40.261C53.0464 40.3144 53.3938 40.5015 53.6611 40.8222C53.9283 41.1429 54.0531 41.517 54.0352 41.9446C53.9818 42.7107 53.9194 43.3165 53.8482 43.7619C53.7947 44.2073 53.67 44.6082 53.474 44.9645C53.278 45.3208 53.091 45.5703 52.9128 45.7128C52.7346 45.8731 52.3961 45.9978 51.8973 46.0869C51.4162 46.1938 50.953 46.2562 50.5076 46.274C50.08 46.2918 49.4119 46.3007 48.5032 46.3007H47.7015H46.8997C45.4388 46.3007 44.4054 46.2384 43.7997 46.1137C43.2117 45.9889 42.8198 45.7751 42.6238 45.4723C42.4456 45.1872 42.3566 44.6616 42.3566 43.8955V39.4592C42.3566 39.2989 42.2853 39.2187 42.1428 39.2187H41.2876C41.1272 39.2187 41.0292 39.29 40.9936 39.4325C40.085 43.0492 37.1185 45.3832 32.0943 46.4344C31.6667 46.5234 31.2658 46.4522 30.8917 46.2206C30.5353 46.0068 30.2859 45.6861 30.1434 45.2585L29.7158 44.0024C29.5911 43.6283 29.6356 43.2808 29.8494 42.9601C30.081 42.6216 30.3928 42.4078 30.7848 42.3188C33.5285 41.8021 35.2122 40.84 35.8357 39.4325C35.907 39.29 35.8625 39.2187 35.7021 39.2187H33.19C32.7802 39.2187 32.4239 39.0673 32.121 38.7644C31.8181 38.4615 31.6667 38.1052 31.6667 37.6954V23.9055C31.6667 23.4957 31.8181 23.1393 32.121 22.8365C32.4239 22.5336 32.7802 22.3821 33.19 22.3821H50.4541C50.8639 22.3821 51.2202 22.5336 51.5231 22.8365C51.826 23.1393 51.9774 23.4957 51.9774 23.9055V37.6954C51.9774 38.1052 51.826 38.4615 51.5231 38.7644C51.2202 39.0673 50.8639 39.2187 50.4541 39.2187H47.5411C47.3808 39.2187 47.3006 39.2989 47.3006 39.4592V41.7575C47.3006 42.1495 47.3273 42.3811 47.3808 42.4524C47.4521 42.5236 47.6926 42.5593 48.1024 42.5593H48.236H48.3696C48.7794 42.5593 49.0377 42.5058 49.1446 42.3989C49.2693 42.292 49.3495 41.9713 49.3851 41.4368C49.4208 41.0271 49.59 40.6885 49.8929 40.4213C50.1958 40.1362 50.5432 40.0115 50.9352 40.0472L52.6188 40.261ZM47.0334 35.504V34.7557C47.0334 34.6131 46.9532 34.5419 46.7928 34.5419H36.8513C36.6909 34.5419 36.6107 34.6131 36.6107 34.7557V35.504C36.6107 35.6643 36.6909 35.7445 36.8513 35.7445H46.7928C46.9532 35.7445 47.0334 35.6643 47.0334 35.504ZM47.0334 31.3616V30.6401C47.0334 30.4797 46.9532 30.3995 46.7928 30.3995H36.8513C36.6909 30.3995 36.6107 30.4797 36.6107 30.6401V31.3616C36.6107 31.522 36.6909 31.6022 36.8513 31.6022H46.7928C46.9532 31.6022 47.0334 31.522 47.0334 31.3616ZM47.0334 27.2193V26.471C47.0334 26.3285 46.9532 26.2572 46.7928 26.2572H36.8513C36.6909 26.2572 36.6107 26.3285 36.6107 26.471V27.2193C36.6107 27.3797 36.6909 27.4598 36.8513 27.4598H46.7928C46.9532 27.4598 47.0334 27.3797 47.0334 27.2193ZM79.3435 42.4257C79.7533 42.4257 80.1007 42.5771 80.3858 42.88C80.6708 43.1828 80.7955 43.5392 80.7599 43.949L80.7065 44.911C80.6886 45.3386 80.5194 45.695 80.1987 45.98C79.878 46.2829 79.5038 46.4344 79.0763 46.4344H74.5865C70.9163 46.4344 68.0746 46.2918 66.0613 46.0068C64.0659 45.7217 62.5604 45.2139 61.5449 44.4835C61.4023 44.3766 61.2687 44.3766 61.144 44.4835C60.5026 45.0001 59.8434 45.499 59.1664 45.98C58.8279 46.2295 58.4537 46.3096 58.0439 46.2206C57.6342 46.1315 57.3224 45.9088 57.1086 45.5524L56.387 44.3766C56.1732 44.0202 56.1109 43.6461 56.1999 43.2541C56.289 42.8443 56.5117 42.5236 56.868 42.292C56.9928 42.2029 57.1977 42.0693 57.4827 41.8912C57.7678 41.713 57.9727 41.5794 58.0974 41.4903C58.2221 41.419 58.2845 41.2943 58.2845 41.1161V35.985C58.2845 35.8247 58.2043 35.7445 58.0439 35.7445H57.6698C57.26 35.7445 56.9037 35.593 56.6008 35.2902C56.2979 34.9873 56.1465 34.631 56.1465 34.2212V33.2591C56.1465 32.8493 56.2979 32.493 56.6008 32.1901C56.9037 31.8872 57.26 31.7358 57.6698 31.7358H61.438C61.8477 31.7358 62.2041 31.8872 62.507 32.1901C62.8098 32.493 62.9613 32.8493 62.9613 33.2591V40.1808C62.9613 40.3233 63.0058 40.4658 63.0949 40.6084C63.4512 41.1429 63.9323 41.5259 64.538 41.7575C65.1438 41.9891 66.1771 42.1584 67.6381 42.2653C69.099 42.3722 71.3706 42.4257 74.4529 42.4257H79.3435ZM64.3242 38.2833C65.2329 37.535 65.8386 36.6977 66.1415 35.7712C66.1593 35.7356 66.1504 35.7088 66.1148 35.691C66.0792 35.6554 66.0435 35.6465 66.0079 35.6643C65.9188 35.6999 65.7941 35.7623 65.6337 35.8514C65.4734 35.9405 65.3576 36.0028 65.2863 36.0385C64.93 36.2166 64.5648 36.2255 64.1906 36.0652C63.8343 35.887 63.6116 35.602 63.5225 35.21L63.2018 33.8738C63.0949 33.464 63.1394 33.072 63.3354 32.6979C63.5314 32.3059 63.8343 32.0298 64.2441 31.8694C65.0814 31.5487 65.8297 31.2191 66.4889 30.8806C66.6315 30.8093 66.7027 30.7024 66.7027 30.5599V29.6245C66.7027 29.5711 66.676 29.5355 66.6226 29.5176C66.5869 29.482 66.5513 29.482 66.5157 29.5176L66.0079 29.7849C65.6516 29.9809 65.2774 30.0165 64.8855 29.8918C64.5113 29.7671 64.2262 29.5176 64.0303 29.1435C63.9055 28.8584 63.763 28.5734 63.6027 28.2883C63.5314 28.1814 63.4512 28.1903 63.3621 28.315C63.3265 28.3685 63.2731 28.4308 63.2018 28.5021L62.3199 29.3573C62.017 29.6424 61.6607 29.776 61.2509 29.7582C60.8411 29.7403 60.4937 29.58 60.2086 29.2771C59.6385 28.6535 58.721 27.6914 57.456 26.3908C57.1709 26.1058 57.0373 25.7584 57.0551 25.3486C57.0729 24.9388 57.2333 24.5914 57.5362 24.3063L58.4983 23.3977C58.8011 23.1126 59.1664 22.979 59.594 22.9968C60.0216 23.0146 60.3779 23.175 60.663 23.4779C61.3578 24.244 61.9101 24.8408 62.3199 25.2684C62.3555 25.304 62.4001 25.3219 62.4535 25.3219C62.507 25.304 62.5426 25.2684 62.5604 25.215C62.6673 24.8943 62.89 24.6359 63.2285 24.4399L64.1639 23.9322C64.5202 23.7184 64.9033 23.6738 65.313 23.7986C65.7406 23.9055 66.0435 24.146 66.2217 24.5201L66.6226 25.3219C66.6582 25.3219 66.6849 25.304 66.7027 25.2684V23.6382C66.7027 23.2284 66.8542 22.8721 67.157 22.5692C67.4599 22.2663 67.8163 22.1149 68.226 22.1149H69.589C69.9988 22.1149 70.3551 22.2663 70.658 22.5692C70.9609 22.8721 71.1123 23.2284 71.1123 23.6382V28.6624C71.1123 32.2436 70.8361 34.9784 70.2838 36.8669C69.7493 38.7555 68.814 40.2966 67.4777 41.4903C67.157 41.7754 66.7829 41.909 66.3553 41.8912C65.9277 41.8555 65.5536 41.6774 65.2329 41.3567L64.1639 40.2877C63.8788 40.0026 63.7541 39.6641 63.7897 39.2721C63.8432 38.8624 64.0214 38.5328 64.3242 38.2833ZM74.6667 22.1149C75.0765 22.1149 75.4328 22.2663 75.7357 22.5692C76.0385 22.8721 76.19 23.2284 76.19 23.6382V24.9744C76.19 25.0101 76.2078 25.0279 76.2434 25.0279C76.2791 25.0279 76.3058 25.019 76.3236 25.0012L76.5641 24.5201C76.7601 24.1638 77.0541 23.9322 77.446 23.8253C77.8558 23.7006 78.2389 23.7362 78.5952 23.9322L79.5306 24.4399C79.8869 24.6359 80.1274 24.9388 80.2521 25.3486C80.3947 25.7584 80.3679 26.1414 80.172 26.4977C79.6553 27.4242 79.1475 28.2705 78.6487 29.0366C78.417 29.3751 78.0874 29.5889 77.6598 29.678C77.2501 29.7492 76.8759 29.6691 76.5374 29.4375L76.3771 29.3306C76.3414 29.2949 76.2969 29.2949 76.2434 29.3306C76.2078 29.3484 76.19 29.384 76.19 29.4375V30.1056C76.19 30.2659 76.2523 30.3728 76.3771 30.4263C77.1075 30.7826 78.1231 31.3171 79.4237 32.0298C79.78 32.2257 80.0027 32.5286 80.0918 32.9384C80.1809 33.3482 80.1096 33.7223 79.878 34.0608L78.809 35.5841C78.7199 35.7088 78.7466 35.789 78.8892 35.8247L79.103 35.8514C79.5306 35.9405 79.878 36.1543 80.1452 36.4928C80.4125 36.8313 80.5372 37.2143 80.5194 37.6419C80.4838 38.3546 80.4392 38.9247 80.3858 39.3523C80.3501 39.7621 80.2521 40.1362 80.0918 40.4747C79.9314 40.8133 79.78 41.0538 79.6375 41.1963C79.4949 41.3388 79.2277 41.4636 78.8357 41.5705C78.4438 41.6595 78.0607 41.713 77.6866 41.7308C77.3302 41.7486 76.7868 41.7575 76.0564 41.7575C75.3615 41.7575 74.8003 41.7486 74.3727 41.7308C73.9629 41.6952 73.5799 41.6239 73.2235 41.517C72.885 41.3923 72.6267 41.2587 72.4485 41.1161C72.2882 40.9558 72.1457 40.7064 72.0209 40.3679C71.914 40.0293 71.8428 39.673 71.8071 39.2989C71.7893 38.9069 71.7804 38.3902 71.7804 37.7488V23.6382C71.7804 23.2284 71.9319 22.8721 72.2347 22.5692C72.5376 22.2663 72.8939 22.1149 73.3037 22.1149H74.6667ZM76.3771 35.1565C76.3414 35.1209 76.2969 35.1209 76.2434 35.1565C76.2078 35.1744 76.19 35.21 76.19 35.2634V37.348C76.19 37.6152 76.2078 37.7756 76.2434 37.829C76.2791 37.8646 76.3949 37.8825 76.5909 37.8825C76.8225 37.8825 76.965 37.7934 77.0185 37.6152C77.0719 37.4192 77.1075 36.8046 77.1254 35.7712C77.1254 35.6287 77.063 35.5307 76.9383 35.4772L76.3771 35.1565ZM104.892 34.8091C105.284 34.9517 105.56 35.21 105.721 35.5841C105.899 35.9583 105.908 36.3413 105.747 36.7333C104.447 39.7977 102.87 42.0248 101.017 43.4145C99.1643 44.8041 97.0085 45.499 94.5498 45.499C92.3584 45.499 90.6658 45.1872 89.4721 44.5636C88.2784 43.94 87.3965 42.8622 86.8264 41.3299C86.2741 39.7977 85.9979 37.6241 85.9979 34.8091C85.9979 31.5131 86.0959 28.1012 86.2919 24.5736C86.3275 24.146 86.4968 23.7896 86.7997 23.5046C87.1204 23.2017 87.4945 23.0592 87.9221 23.077L90.0868 23.1572C90.4966 23.175 90.8351 23.3353 91.1024 23.6382C91.3874 23.9411 91.521 24.2974 91.5032 24.7072C91.3072 28.0923 91.2093 31.4596 91.2093 34.8091C91.2093 36.4304 91.3161 37.6687 91.5299 38.5238C91.7616 39.3612 92.109 39.9313 92.5722 40.2342C93.0354 40.5371 93.6946 40.6885 94.5498 40.6885C95.8504 40.6885 97.0352 40.252 98.1042 39.379C99.1732 38.506 100.189 37.0451 101.151 34.9962C101.347 34.6042 101.632 34.3281 102.006 34.1677C102.398 34.0074 102.79 33.9985 103.182 34.141L104.892 34.8091ZM133.007 37.9894C133.434 38.0428 133.782 38.2299 134.049 38.5506C134.334 38.8535 134.468 39.2187 134.45 39.6463C134.396 40.9113 134.316 41.9357 134.209 42.7196C134.102 43.4857 133.978 44.1182 133.835 44.6171C133.71 45.1338 133.505 45.5079 133.22 45.7395C132.935 45.9711 132.641 46.1226 132.339 46.1938C132.036 46.2829 131.599 46.3364 131.029 46.3542C129.372 46.4076 128.437 46.4344 128.223 46.4344C127.439 46.4344 126.682 46.4076 125.951 46.3542C125.524 46.3185 125.194 46.2829 124.963 46.2473C124.731 46.2295 124.499 46.1582 124.268 46.0335C124.054 45.9266 123.902 45.8019 123.813 45.6593C123.724 45.5168 123.644 45.2852 123.573 44.9645C123.502 44.6616 123.457 44.3231 123.439 43.949C123.421 43.5748 123.412 43.067 123.412 42.4257V32.1901C123.412 31.7803 123.564 31.424 123.867 31.1211C124.17 30.8182 124.526 30.6668 124.936 30.6668H128.944C129.087 30.6668 129.158 30.5866 129.158 30.4263V26.8986C129.158 26.7383 129.087 26.6581 128.944 26.6581H124.802C124.392 26.6581 124.036 26.5067 123.733 26.2038C123.43 25.9009 123.279 25.5446 123.279 25.1348V24.0391C123.279 23.6293 123.43 23.273 123.733 22.9701C124.036 22.6672 124.392 22.5158 124.802 22.5158H132.445C132.855 22.5158 133.212 22.6672 133.514 22.9701C133.817 23.273 133.969 23.6293 133.969 24.0391V34.7557C133.969 35.1654 133.817 35.5218 133.514 35.8247C133.212 36.1275 132.855 36.279 132.445 36.279H130.441C130.103 36.279 129.8 36.1543 129.532 35.9048C129.283 35.6376 129.158 35.3347 129.158 34.9962C129.158 34.8715 129.096 34.8091 128.971 34.8091H128.196C128.036 34.8091 127.956 34.8804 127.956 35.0229V41.4903C127.956 41.7932 127.982 41.9802 128.036 42.0515C128.089 42.1228 128.241 42.1584 128.49 42.1584H128.757H129.158C129.336 42.1584 129.461 42.1139 129.532 42.0248C129.604 41.9179 129.657 41.6506 129.693 41.223C129.746 40.7954 129.782 40.1006 129.8 39.1385C129.817 38.7287 129.978 38.3902 130.281 38.123C130.584 37.8557 130.931 37.7399 131.323 37.7756L133.007 37.9894ZM121.087 27.4598C121.497 27.4598 121.854 27.6113 122.156 27.9142C122.459 28.217 122.611 28.5734 122.611 28.9831V44.7774C122.611 45.1872 122.459 45.5435 122.156 45.8464C121.854 46.1493 121.497 46.3007 121.087 46.3007H119.938C119.707 46.3007 119.511 46.2206 119.35 46.0602C119.208 45.9177 119.137 45.7306 119.137 45.499C119.137 45.4099 119.092 45.3654 119.003 45.3654H113.524C113.435 45.3654 113.391 45.4099 113.391 45.499C113.391 45.7306 113.311 45.9177 113.15 46.0602C113.008 46.2206 112.821 46.3007 112.589 46.3007H111.173C110.763 46.3007 110.406 46.1493 110.104 45.8464C109.801 45.5435 109.649 45.1872 109.649 44.7774V28.9831C109.649 28.5734 109.801 28.217 110.104 27.9142C110.406 27.6113 110.763 27.4598 111.173 27.4598H112.348C112.509 27.4598 112.589 27.3797 112.589 27.2193V26.6314C112.589 26.471 112.509 26.3908 112.348 26.3908H110.905C110.496 26.3908 110.139 26.2394 109.836 25.9365C109.533 25.6336 109.382 25.2773 109.382 24.8675V24.0391C109.382 23.6293 109.533 23.273 109.836 22.9701C110.139 22.6672 110.496 22.5158 110.905 22.5158H120.954C121.364 22.5158 121.72 22.6672 122.023 22.9701C122.326 23.273 122.477 23.6293 122.477 24.0391V24.8675C122.477 25.2773 122.326 25.6336 122.023 25.9365C121.72 26.2394 121.364 26.3908 120.954 26.3908H120.045C119.885 26.3908 119.805 26.471 119.805 26.6314V27.2193C119.805 27.3797 119.885 27.4598 120.045 27.4598H121.087ZM115.796 26.6314V27.2193C115.796 27.3797 115.876 27.4598 116.036 27.4598H116.357C116.518 27.4598 116.598 27.3797 116.598 27.2193V26.6314C116.598 26.471 116.518 26.3908 116.357 26.3908H116.036C115.876 26.3908 115.796 26.471 115.796 26.6314ZM113.391 31.1746V34.5686C113.391 34.5864 113.4 34.5953 113.417 34.5953C113.453 34.5953 113.48 34.5864 113.498 34.5686C113.783 33.8025 113.925 32.6711 113.925 31.1746C113.925 31.0142 113.845 30.934 113.685 30.934H113.631C113.471 30.934 113.391 31.0142 113.391 31.1746ZM113.391 36.3057V37.3747C113.391 37.535 113.471 37.6152 113.631 37.6152H114.46C114.495 37.6152 114.522 37.5974 114.54 37.5618C114.558 37.5083 114.558 37.4638 114.54 37.4281L113.524 36.2523C113.489 36.2166 113.453 36.2077 113.417 36.2255C113.4 36.2433 113.391 36.2701 113.391 36.3057ZM119.137 41.517V41.0627C119.137 40.9023 119.056 40.8222 118.896 40.8222H113.631C113.471 40.8222 113.391 40.9023 113.391 41.0627V41.517C113.391 41.6774 113.471 41.7575 113.631 41.7575H118.896C119.056 41.7575 119.137 41.6774 119.137 41.517ZM119.137 37.3747V36.6531C119.137 36.4928 119.056 36.4126 118.896 36.4126H117.8C117.195 36.4126 116.82 36.3324 116.678 36.1721C116.535 36.0117 116.464 35.5574 116.464 34.8091V31.0677C116.464 30.9786 116.42 30.934 116.33 30.934C116.241 30.934 116.197 30.9875 116.197 31.0944C116.197 32.6444 116.143 33.847 116.036 34.7022C115.93 35.5396 115.716 36.4304 115.395 37.3747C115.359 37.535 115.413 37.6152 115.555 37.6152H118.896C119.056 37.6152 119.137 37.535 119.137 37.3747ZM119.137 32.8315V31.1746C119.137 31.0142 119.056 30.934 118.896 30.934H118.843C118.682 30.934 118.602 31.0142 118.602 31.1746V32.6711C118.602 32.8671 118.611 32.9829 118.629 33.0186C118.664 33.0542 118.762 33.072 118.923 33.072C119.065 33.072 119.137 32.9918 119.137 32.8315ZM142.681 22.3821C143.091 22.4534 143.411 22.6672 143.643 23.0235C143.892 23.3621 143.982 23.7362 143.91 24.146C143.518 26.1771 143.019 27.932 142.414 29.4107C142.342 29.5889 142.307 29.7403 142.307 29.8651V45.0447C142.307 45.4544 142.155 45.8108 141.853 46.1137C141.55 46.4165 141.193 46.568 140.784 46.568H139.153C138.744 46.568 138.387 46.4165 138.084 46.1137C137.781 45.8108 137.63 45.4544 137.63 45.0447V36.9471C137.63 36.9115 137.612 36.8936 137.577 36.8936C137.559 36.8758 137.532 36.8847 137.496 36.9204L137.256 37.2411C137.078 37.4727 136.846 37.5529 136.561 37.4816C136.294 37.4103 136.142 37.2232 136.107 36.9204L135.679 33.7669C135.554 32.8404 135.777 31.9139 136.347 30.9875C137.594 28.9742 138.583 26.4176 139.314 23.3175C139.403 22.9077 139.625 22.587 139.982 22.3554C140.338 22.1238 140.721 22.0436 141.131 22.1149L142.681 22.3821ZM146.636 25.7227C146.226 25.7227 145.87 25.5713 145.567 25.2684C145.264 24.9655 145.113 24.6092 145.113 24.1994V24.0391C145.113 23.6293 145.264 23.273 145.567 22.9701C145.87 22.6672 146.226 22.5158 146.636 22.5158L158.689 22.5158C159.099 22.5158 159.455 22.6672 159.758 22.9701C160.061 23.273 160.212 23.6293 160.212 24.0391V24.1994C160.212 24.6092 160.061 24.9655 159.758 25.2684C159.455 25.5713 159.099 25.7227 158.689 25.7227H146.636ZM160.025 26.3908C160.435 26.3908 160.791 26.5423 161.094 26.8452C161.397 27.148 161.549 27.5044 161.549 27.9142V28.4754C161.549 28.8852 161.397 29.2415 161.094 29.5444C160.791 29.8472 160.435 29.9987 160.025 29.9987H144.632C144.222 29.9987 143.866 29.8472 143.563 29.5444C143.26 29.2415 143.109 28.8852 143.109 28.4754V27.9142C143.109 27.5044 143.26 27.148 143.563 26.8452C143.866 26.5423 144.222 26.3908 144.632 26.3908H160.025ZM145.968 33.7401C145.558 33.7401 145.202 33.5887 144.899 33.2858C144.596 32.9829 144.445 32.6266 144.445 32.2168V32.1901C144.445 31.7803 144.596 31.424 144.899 31.1211C145.202 30.8182 145.558 30.6668 145.968 30.6668H158.422C158.832 30.6668 159.188 30.8182 159.491 31.1211C159.794 31.424 159.945 31.7803 159.945 32.1901V32.2168C159.945 32.6266 159.794 32.9829 159.491 33.2858C159.188 33.5887 158.832 33.7401 158.422 33.7401H145.968ZM144.445 35.9583V35.9316C144.445 35.5218 144.596 35.1654 144.899 34.8626C145.202 34.5597 145.558 34.4082 145.968 34.4082H158.422C158.832 34.4082 159.188 34.5597 159.491 34.8626C159.794 35.1654 159.945 35.5218 159.945 35.9316V35.9583C159.945 36.3681 159.794 36.7244 159.491 37.0273C159.188 37.3301 158.832 37.4816 158.422 37.4816L145.968 37.4816C145.558 37.4816 145.202 37.3301 144.899 37.0273C144.596 36.7244 144.445 36.3681 144.445 35.9583ZM158.689 38.1497C159.099 38.1497 159.455 38.3011 159.758 38.604C160.061 38.9069 160.212 39.2632 160.212 39.673V45.0447C160.212 45.4544 160.061 45.8108 159.758 46.1137C159.455 46.4165 159.099 46.568 158.689 46.568H155.963C155.767 46.568 155.598 46.4967 155.455 46.3542C155.331 46.2116 155.268 46.0513 155.268 45.8731C155.268 45.8019 155.233 45.7662 155.161 45.7662L149.095 45.7662C149.024 45.7662 148.988 45.8019 148.988 45.8731C148.988 46.0513 148.917 46.2116 148.774 46.3542C148.632 46.4967 148.471 46.568 148.293 46.568H145.701C145.291 46.568 144.935 46.4165 144.632 46.1137C144.329 45.8108 144.178 45.4544 144.178 45.0447V39.673C144.178 39.2632 144.329 38.9069 144.632 38.604C144.935 38.3011 145.291 38.1497 145.701 38.1497L158.689 38.1497ZM155.268 42.4524V41.4368C155.268 41.2943 155.188 41.223 155.028 41.223L149.202 41.223C149.059 41.223 148.988 41.2943 148.988 41.4368V42.4524C148.988 42.6127 149.059 42.6929 149.202 42.6929L155.028 42.6929C155.188 42.6929 155.268 42.6127 155.268 42.4524ZM179.668 39.0469C179.782 39.7086 179.84 40.2431 179.84 40.6504C179.84 42.2538 179.337 43.4183 178.332 44.1437C177.339 44.869 175.678 45.2317 173.349 45.2317C171.071 45.2317 169.481 44.8372 168.577 44.0482C167.686 43.2719 167.241 41.8848 167.241 39.8868C167.241 39.1869 167.247 38.6333 167.26 38.2261C167.26 38.1243 167.209 38.0733 167.107 38.0733H164.511C164.218 38.0733 163.964 37.9652 163.748 37.7488C163.531 37.5325 163.423 37.278 163.423 36.9853V36.1072C163.423 35.8145 163.531 35.56 163.748 35.3436C163.964 35.1273 164.218 35.0191 164.511 35.0191H167.241C167.343 35.0191 167.394 34.9682 167.394 34.8664C167.394 34.7519 167.4 34.5673 167.413 34.3128C167.438 34.0583 167.457 33.8674 167.47 33.7401C167.47 33.6383 167.419 33.5874 167.317 33.5874H165.084C164.791 33.5874 164.537 33.4792 164.32 33.2629C164.104 33.0466 163.996 32.792 163.996 32.4993V31.6212C163.996 31.3285 164.104 31.074 164.32 30.8577C164.537 30.6413 164.791 30.5332 165.084 30.5332H167.508C167.623 30.5332 167.68 30.4823 167.68 30.3805L167.737 29.6933C167.75 29.3878 167.871 29.1333 168.1 28.9297C168.329 28.7261 168.596 28.6306 168.902 28.6434L170.352 28.7006C170.645 28.7133 170.887 28.8279 171.078 29.0442C171.281 29.2606 171.377 29.5151 171.364 29.8078L171.307 30.3805C171.307 30.4823 171.358 30.5332 171.46 30.5332H176.27C176.563 30.5332 176.817 30.6413 177.034 30.8577C177.25 31.074 177.358 31.3285 177.358 31.6212V32.4993C177.358 32.792 177.25 33.0466 177.034 33.2629C176.817 33.4792 176.563 33.5874 176.27 33.5874H171.269C171.154 33.5874 171.097 33.6383 171.097 33.7401C171.084 33.9947 171.065 34.3637 171.04 34.8473C171.04 34.9618 171.091 35.0191 171.192 35.0191H174.743C175.036 35.0191 175.29 35.1273 175.506 35.3436C175.723 35.56 175.831 35.8145 175.831 36.1072V36.9853C175.831 37.278 175.723 37.5325 175.506 37.7488C175.29 37.9652 175.036 38.0733 174.743 38.0733H171.059C170.944 38.0733 170.887 38.1243 170.887 38.2261C170.874 38.6333 170.868 39.1869 170.868 39.8868C170.868 40.8031 171.008 41.3821 171.288 41.6239C171.581 41.8657 172.268 41.9866 173.349 41.9866C174.266 41.9866 174.934 41.9421 175.354 41.853C175.774 41.7512 176.054 41.5985 176.194 41.3948C176.334 41.1785 176.404 40.8349 176.404 40.364C176.404 40.2495 176.385 40.065 176.346 39.8105C176.296 39.505 176.346 39.2251 176.499 38.9705C176.652 38.716 176.875 38.5569 177.167 38.4933L178.408 38.2261C178.701 38.1624 178.968 38.2133 179.21 38.3788C179.464 38.5315 179.617 38.7542 179.668 39.0469ZM186.406 29.9605C186.699 29.9605 186.947 30.0687 187.151 30.285C187.367 30.5014 187.463 30.7559 187.437 31.0486L186.979 38.2261C186.966 38.5315 186.845 38.7924 186.616 39.0087C186.4 39.2123 186.139 39.3141 185.834 39.3141H184.574C184.268 39.3141 184.007 39.2123 183.791 39.0087C183.575 38.7924 183.454 38.5315 183.428 38.2261L182.97 31.0486C182.958 30.7559 183.053 30.5014 183.257 30.285C183.46 30.0687 183.708 29.9605 184.001 29.9605H186.406ZM186.025 40.8413C186.317 40.8413 186.572 40.9494 186.788 41.1658C187.004 41.3821 187.113 41.6366 187.113 41.9293V42.8074C187.113 43.1001 187.004 43.3547 186.788 43.571C186.572 43.7873 186.317 43.8955 186.025 43.8955H184.383C184.09 43.8955 183.836 43.7873 183.619 43.571C183.403 43.3547 183.295 43.1001 183.295 42.8074V41.9293C183.295 41.6366 183.403 41.3821 183.619 41.1658C183.836 40.9494 184.09 40.8413 184.383 40.8413H186.025Z" fill="#252525"/>
</g>
<defs>
<filter id="filter0_d" x="0.170941" y="0.848597" width="215.606" height="81.2315" filterUnits="userSpaceOnUse" color-interpolation-filters="sRGB">
<feFlood flood-opacity="0" result="BackgroundImageFix"/>
<feColorMatrix in="SourceAlpha" type="matrix" values="0 0 0 0 0 0 0 0 0 0 0 0 0 0 0 0 0 0 127 0"/>
<feOffset dy="1.67766"/>
<feGaussianBlur stdDeviation="3.91453"/>
<feColorMatrix type="matrix" values="0 0 0 0 0.179167 0 0 0 0 0.119146 0 0 0 0 0.0291146 0 0 0 0.5 0"/>
<feBlend mode="normal" in2="BackgroundImageFix" result="effect1_dropShadow"/>
<feBlend mode="normal" in="SourceGraphic" in2="effect1_dropShadow" result="shape"/>
</filter>
</defs>
</svg>
