<svg width="47" height="68" viewBox="0 0 47 68" fill="none" xmlns="http://www.w3.org/2000/svg">
<path d="M26.7553 52.0221L37.5627 47.9414L35.8299 43.352L25.0225 47.4326L26.7553 52.0221Z" fill="#EE4949"/>
<path d="M29.5279 62.9585C31.2011 61.7676 31.7564 59.6766 30.7682 58.2881C29.78 56.8997 27.6224 56.7396 25.9491 57.9305C24.2759 59.1215 23.7206 61.2125 24.7088 62.6009C25.697 63.9894 27.8546 64.1495 29.5279 62.9585Z" fill="#EE4949"/>
<path d="M41.7363 58.3384C43.4096 57.1475 43.9649 55.0564 42.9767 53.668C41.9885 52.2795 39.8309 52.1194 38.1576 53.3104C36.4844 54.5013 35.929 56.5924 36.9173 57.9808C37.9055 59.3693 40.0631 59.5294 41.7363 58.3384Z" fill="#EE4949"/>
<path d="M30.5268 61.3399C30.3735 63.1739 25.2493 65.9545 23.7959 62.1053C22.3425 58.256 27.6722 56.2437 27.6722 56.2437L24.4859 47.805L35.9595 43.4728L39.4253 52.6517C39.4253 52.6517 34.5563 53.6444 35.9818 57.4195C37.4352 61.2687 42.7648 59.2564 43.4529 56.3747" stroke="#5C4500" stroke-width="3.16497" stroke-miterlimit="10" stroke-linecap="round" stroke-linejoin="round"/>
<path d="M27.0327 52.0859L32.3624 50.0736" stroke="#5C4500" stroke-width="3.16497" stroke-miterlimit="10" stroke-linecap="round" stroke-linejoin="round"/>
<path d="M21.6341 17.2433C23.6894 16.8247 25.0941 15.201 24.7715 13.6167C24.4488 12.0323 22.5211 11.0873 20.4657 11.5058C18.4104 11.9244 17.0057 13.548 17.3283 15.1324C17.6509 16.7167 19.5787 17.6618 21.6341 17.2433Z" fill="white"/>
<path d="M31.6605 8.98305C31.2903 5.18253 26.0527 2.85767 26.0527 2.85767L24.2847 12.0192C24.2847 12.0192 19.4994 10.329 17.3685 13.3469C15.7473 15.6957 19.4385 19.5467 23.7101 16.3351" stroke="#5C4500" stroke-width="3.16497" stroke-miterlimit="10" stroke-linecap="round" stroke-linejoin="round"/>
<path d="M3.77637 31L5.39173 44.149L15.9733 36.1769L3.77637 31Z" fill="#CC9900"/>
<path d="M3.77637 31L4.39368 29.5456C3.87405 29.325 3.27624 29.3985 2.82544 29.7382C2.37463 30.0779 2.13933 30.6324 2.20816 31.1927L3.77637 31ZM5.39173 44.149L3.82351 44.3417C3.89234 44.9019 4.25478 45.3828 4.77434 45.6034C5.2939 45.8239 5.89166 45.7506 6.34247 45.4109L5.39173 44.149ZM15.9733 36.1769L16.9241 37.4388C17.3756 37.0986 17.611 36.5431 17.5413 35.9821C17.4716 35.421 17.1074 34.94 16.5864 34.7206L15.9733 36.1769ZM11.3034 32.4965C10.4992 32.1579 9.57275 32.5354 9.23416 33.3396C8.89557 34.1439 9.27306 35.0703 10.0773 35.4089L11.3034 32.4965ZM6.2083 33.7486C7.01155 34.0896 7.9391 33.7148 8.28003 32.9115C8.62096 32.1083 8.24617 31.1807 7.44292 30.8398L6.2083 33.7486ZM2.20816 31.1927L3.82351 44.3417L6.95994 43.9563L5.34458 30.8073L2.20816 31.1927ZM6.34247 45.4109L16.9241 37.4388L15.0226 34.9149L4.44098 42.8871L6.34247 45.4109ZM16.5864 34.7206L11.3034 32.4965L10.0773 35.4089L15.3603 37.6331L16.5864 34.7206ZM7.44292 30.8398L4.39368 29.5456L3.15906 32.4544L6.2083 33.7486L7.44292 30.8398Z" fill="#5C4500"/>
</svg>
