<svg width="318" height="128" viewBox="0 0 318 128" fill="none" xmlns="http://www.w3.org/2000/svg">
<path d="M213.428 107.121C214.749 107.121 215.82 106.051 215.82 104.73C215.82 103.409 214.749 102.338 213.428 102.338C212.107 102.338 211.036 103.409 211.036 104.73C211.036 106.051 212.107 107.121 213.428 107.121Z" fill="#CC9900"/>
<path d="M222.995 107.121C224.316 107.121 225.387 106.05 225.387 104.729C225.387 103.408 224.316 102.337 222.995 102.337C221.674 102.337 220.603 103.408 220.603 104.729C220.603 106.05 221.674 107.121 222.995 107.121Z" fill="#CC9900"/>
<path d="M232.644 107.121C233.965 107.121 235.036 106.05 235.036 104.729C235.036 103.408 233.965 102.337 232.644 102.337C231.323 102.337 230.252 103.408 230.252 104.729C230.252 106.05 231.323 107.121 232.644 107.121Z" fill="#CC9900"/>
<path d="M242.211 107.121C243.532 107.121 244.603 106.05 244.603 104.729C244.603 103.408 243.532 102.337 242.211 102.337C240.89 102.337 239.82 103.408 239.82 104.729C239.82 106.05 240.89 107.121 242.211 107.121Z" fill="#CC9900"/>
<path d="M251.779 107.121C253.1 107.121 254.17 106.05 254.17 104.729C254.17 103.408 253.1 102.337 251.779 102.337C250.458 102.337 249.387 103.408 249.387 104.729C249.387 106.05 250.458 107.121 251.779 107.121Z" fill="#CC9900"/>
<path d="M261.429 107.121C262.75 107.121 263.82 106.05 263.82 104.729C263.82 103.408 262.75 102.337 261.429 102.337C260.108 102.337 259.037 103.408 259.037 104.729C259.037 106.05 260.108 107.121 261.429 107.121Z" fill="#CC9900"/>
<path d="M213.428 115.864C214.749 115.864 215.82 114.793 215.82 113.472C215.82 112.151 214.749 111.08 213.428 111.08C212.107 111.08 211.036 112.151 211.036 113.472C211.036 114.793 212.107 115.864 213.428 115.864Z" fill="#CC9900"/>
<path d="M222.995 115.864C224.316 115.864 225.387 114.793 225.387 113.472C225.387 112.151 224.316 111.08 222.995 111.08C221.674 111.08 220.603 112.151 220.603 113.472C220.603 114.793 221.674 115.864 222.995 115.864Z" fill="#CC9900"/>
<path d="M232.644 115.864C233.965 115.864 235.036 114.793 235.036 113.472C235.036 112.151 233.965 111.08 232.644 111.08C231.323 111.08 230.252 112.151 230.252 113.472C230.252 114.793 231.323 115.864 232.644 115.864Z" fill="#CC9900"/>
<path d="M242.211 115.864C243.532 115.864 244.603 114.793 244.603 113.472C244.603 112.151 243.532 111.08 242.211 111.08C240.89 111.08 239.82 112.151 239.82 113.472C239.82 114.793 240.89 115.864 242.211 115.864Z" fill="#CC9900"/>
<path d="M251.779 115.864C253.1 115.864 254.17 114.793 254.17 113.472C254.17 112.151 253.1 111.08 251.779 111.08C250.458 111.08 249.387 112.151 249.387 113.472C249.387 114.793 250.458 115.864 251.779 115.864Z" fill="#CC9900"/>
<path d="M261.429 115.864C262.75 115.864 263.82 114.793 263.82 113.472C263.82 112.151 262.75 111.08 261.429 111.08C260.108 111.08 259.037 112.151 259.037 113.472C259.037 114.793 260.108 115.864 261.429 115.864Z" fill="#CC9900"/>
<path d="M213.428 124.523C214.749 124.523 215.82 123.452 215.82 122.132C215.82 120.811 214.749 119.74 213.428 119.74C212.107 119.74 211.036 120.811 211.036 122.132C211.036 123.452 212.107 124.523 213.428 124.523Z" fill="#CC9900"/>
<path d="M222.995 124.523C224.316 124.523 225.387 123.452 225.387 122.132C225.387 120.811 224.316 119.74 222.995 119.74C221.674 119.74 220.603 120.811 220.603 122.132C220.603 123.452 221.674 124.523 222.995 124.523Z" fill="#CC9900"/>
<path d="M232.644 124.523C233.965 124.523 235.036 123.452 235.036 122.132C235.036 120.811 233.965 119.74 232.644 119.74C231.323 119.74 230.252 120.811 230.252 122.132C230.252 123.452 231.323 124.523 232.644 124.523Z" fill="#CC9900"/>
<path d="M242.211 124.523C243.532 124.523 244.603 123.452 244.603 122.132C244.603 120.811 243.532 119.74 242.211 119.74C240.89 119.74 239.82 120.811 239.82 122.132C239.82 123.452 240.89 124.523 242.211 124.523Z" fill="#CC9900"/>
<path d="M251.779 124.523C253.1 124.523 254.17 123.452 254.17 122.132C254.17 120.811 253.1 119.74 251.779 119.74C250.458 119.74 249.387 120.811 249.387 122.132C249.387 123.452 250.458 124.523 251.779 124.523Z" fill="#CC9900"/>
<path d="M261.429 124.523C262.75 124.523 263.82 123.452 263.82 122.132C263.82 120.811 262.75 119.74 261.429 119.74C260.108 119.74 259.037 120.811 259.037 122.132C259.037 123.452 260.108 124.523 261.429 124.523Z" fill="#CC9900"/>
<path d="M67.4018 12.5775C68.7227 12.5775 69.7935 11.5067 69.7935 10.1857C69.7935 8.86478 68.7227 7.79395 67.4018 7.79395C66.0809 7.79395 65.01 8.86478 65.01 10.1857C65.01 11.5067 66.0809 12.5775 67.4018 12.5775Z" fill="#CC9900"/>
<path d="M76.9689 12.5775C78.2899 12.5775 79.3607 11.5067 79.3607 10.1857C79.3607 8.86478 78.2899 7.79395 76.9689 7.79395C75.648 7.79395 74.5771 8.86478 74.5771 10.1857C74.5771 11.5067 75.648 12.5775 76.9689 12.5775Z" fill="#CC9900"/>
<path d="M86.6179 12.5775C87.9388 12.5775 89.0096 11.5067 89.0096 10.1857C89.0096 8.86478 87.9388 7.79395 86.6179 7.79395C85.2969 7.79395 84.2261 8.86478 84.2261 10.1857C84.2261 11.5067 85.2969 12.5775 86.6179 12.5775Z" fill="#CC9900"/>
<path d="M96.1847 12.5775C97.5057 12.5775 98.5765 11.5067 98.5765 10.1857C98.5765 8.86478 97.5057 7.79395 96.1847 7.79395C94.8638 7.79395 93.793 8.86478 93.793 10.1857C93.793 11.5067 94.8638 12.5775 96.1847 12.5775Z" fill="#CC9900"/>
<path d="M105.752 12.5775C107.073 12.5775 108.144 11.5067 108.144 10.1857C108.144 8.86478 107.073 7.79395 105.752 7.79395C104.431 7.79395 103.361 8.86478 103.361 10.1857C103.361 11.5067 104.431 12.5775 105.752 12.5775Z" fill="#CC9900"/>
<path d="M115.402 12.5775C116.723 12.5775 117.794 11.5067 117.794 10.1857C117.794 8.86478 116.723 7.79395 115.402 7.79395C114.081 7.79395 113.01 8.86478 113.01 10.1857C113.01 11.5067 114.081 12.5775 115.402 12.5775Z" fill="#CC9900"/>
<path d="M67.4016 21.3202C68.7225 21.3202 69.7933 20.2493 69.7933 18.9284C69.7933 17.6075 68.7225 16.5366 67.4016 16.5366C66.0806 16.5366 65.0098 17.6075 65.0098 18.9284C65.0098 20.2493 66.0806 21.3202 67.4016 21.3202Z" fill="#CC9900"/>
<path d="M76.9689 21.3202C78.2899 21.3202 79.3607 20.2493 79.3607 18.9284C79.3607 17.6075 78.2899 16.5366 76.9689 16.5366C75.648 16.5366 74.5771 17.6075 74.5771 18.9284C74.5771 20.2493 75.648 21.3202 76.9689 21.3202Z" fill="#CC9900"/>
<path d="M86.6179 21.3202C87.9388 21.3202 89.0096 20.2493 89.0096 18.9284C89.0096 17.6075 87.9388 16.5366 86.6179 16.5366C85.2969 16.5366 84.2261 17.6075 84.2261 18.9284C84.2261 20.2493 85.2969 21.3202 86.6179 21.3202Z" fill="#CC9900"/>
<path d="M96.1847 21.3202C97.5057 21.3202 98.5765 20.2493 98.5765 18.9284C98.5765 17.6075 97.5057 16.5366 96.1847 16.5366C94.8638 16.5366 93.793 17.6075 93.793 18.9284C93.793 20.2493 94.8638 21.3202 96.1847 21.3202Z" fill="#CC9900"/>
<path d="M105.752 21.3202C107.073 21.3202 108.144 20.2493 108.144 18.9284C108.144 17.6075 107.073 16.5366 105.752 16.5366C104.431 16.5366 103.361 17.6075 103.361 18.9284C103.361 20.2493 104.431 21.3202 105.752 21.3202Z" fill="#CC9900"/>
<path d="M115.402 21.3202C116.723 21.3202 117.794 20.2493 117.794 18.9284C117.794 17.6075 116.723 16.5366 115.402 16.5366C114.081 16.5366 113.01 17.6075 113.01 18.9284C113.01 20.2493 114.081 21.3202 115.402 21.3202Z" fill="#CC9900"/>
<path d="M67.4016 29.9798C68.7225 29.9798 69.7933 28.909 69.7933 27.5881C69.7933 26.2671 68.7225 25.1963 67.4016 25.1963C66.0806 25.1963 65.0098 26.2671 65.0098 27.5881C65.0098 28.909 66.0806 29.9798 67.4016 29.9798Z" fill="#CC9900"/>
<path d="M76.9689 29.9798C78.2899 29.9798 79.3607 28.909 79.3607 27.5881C79.3607 26.2671 78.2899 25.1963 76.9689 25.1963C75.648 25.1963 74.5771 26.2671 74.5771 27.5881C74.5771 28.909 75.648 29.9798 76.9689 29.9798Z" fill="#CC9900"/>
<path d="M86.6179 29.9798C87.9388 29.9798 89.0096 28.909 89.0096 27.5881C89.0096 26.2671 87.9388 25.1963 86.6179 25.1963C85.2969 25.1963 84.2261 26.2671 84.2261 27.5881C84.2261 28.909 85.2969 29.9798 86.6179 29.9798Z" fill="#CC9900"/>
<path d="M96.1847 29.9798C97.5057 29.9798 98.5765 28.909 98.5765 27.5881C98.5765 26.2671 97.5057 25.1963 96.1847 25.1963C94.8638 25.1963 93.793 26.2671 93.793 27.5881C93.793 28.909 94.8638 29.9798 96.1847 29.9798Z" fill="#CC9900"/>
<path d="M105.752 29.9798C107.073 29.9798 108.144 28.909 108.144 27.5881C108.144 26.2671 107.073 25.1963 105.752 25.1963C104.431 25.1963 103.361 26.2671 103.361 27.5881C103.361 28.909 104.431 29.9798 105.752 29.9798Z" fill="#CC9900"/>
<path d="M115.402 29.9798C116.723 29.9798 117.794 28.909 117.794 27.5881C117.794 26.2671 116.723 25.1963 115.402 25.1963C114.081 25.1963 113.01 26.2671 113.01 27.5881C113.01 28.909 114.081 29.9798 115.402 29.9798Z" fill="#CC9900"/>
<path fill-rule="evenodd" clip-rule="evenodd" d="M79.5124 19.6201C75.2646 19.6201 71.8018 23.0829 71.8018 27.3307V104.26C71.8018 108.508 75.2646 111.971 79.5124 111.971H248.349C252.597 111.971 256.06 108.508 256.06 104.26V27.3307C256.06 23.0829 252.597 19.6201 248.349 19.6201H79.5124Z" fill="#252525"/>
<path d="M79.512 104.843C79.1623 104.843 78.9292 104.61 78.9292 104.26V27.3308C78.9292 26.9812 79.1623 26.748 79.512 26.748H242.171C242.521 26.748 242.754 26.9812 242.754 27.3308V104.26C242.754 104.61 242.521 104.843 242.171 104.843H79.512Z" fill="#FFF3CF"/>
<path d="M238.675 30.8276V100.764H83.0093V30.8276H238.675ZM242.172 22.6685H79.5125C76.9482 22.6685 74.8501 24.7665 74.8501 27.3309V104.26C74.8501 106.825 76.9482 108.923 79.5125 108.923H242.172C244.736 108.923 246.834 106.825 246.834 104.26V27.3309C246.834 24.7665 244.794 22.6685 242.172 22.6685Z" fill="white"/>
<path d="M242.172 108.923H79.5125C76.9482 108.923 74.8501 106.825 74.8501 104.26V27.3309C74.8501 24.7665 76.9482 22.6685 79.5125 22.6685H242.172C244.736 22.6685 246.834 24.7665 246.834 27.3309V104.26C246.834 106.825 244.794 108.923 242.172 108.923Z" stroke="#252525" stroke-width="6.09647" stroke-miterlimit="10"/>
<path d="M182.434 88.2335L161.745 81.2982L141.056 88.2335V46.68C141.056 45.9223 141.697 45.2812 142.454 45.2812H181.094C181.852 45.2812 182.493 45.9223 182.493 46.68V88.2335H182.434Z" fill="#CC9900"/>
<path d="M164.076 62.94C165.416 62.94 167.048 62.94 167.048 60.8419C167.048 58.6855 165.533 58.6856 164.076 58.6856H160.987C160.462 58.6856 160.287 58.8021 160.287 59.3266V62.8817H164.076V62.94ZM160.287 71.3323C160.287 72.4396 159.763 73.0224 158.422 73.0224C157.257 73.0224 156.499 72.6145 156.499 71.3323V58.3942C156.499 57.2868 156.499 55.4219 159.53 55.4219H164.25C165.416 55.4219 167.164 55.4219 168.738 56.6458C170.078 57.6948 170.72 59.3266 170.72 61.0167C170.72 62.0075 170.486 63.989 168.738 65.2129C167.339 66.2037 165.941 66.3785 164.192 66.3785H160.229V71.3323H160.287Z" fill="white"/>
<path d="M98.3359 106.825L112.381 92.7798" stroke="white" stroke-width="5.54225" stroke-miterlimit="10" stroke-linecap="round" stroke-linejoin="round"/>
<path d="M117.219 101.404L130.041 88.5825" stroke="white" stroke-width="5.54225" stroke-miterlimit="10" stroke-linecap="round" stroke-linejoin="round"/>
<path d="M202.25 31.1777L189.778 43.6496" stroke="white" stroke-width="5.54225" stroke-miterlimit="10" stroke-linecap="round" stroke-linejoin="round"/>
<path d="M206.796 38.6955L220.958 24.5918" stroke="white" stroke-width="5.54225" stroke-miterlimit="10" stroke-linecap="round" stroke-linejoin="round"/>
<path d="M191.292 77.8709C191.292 77.2298 191.409 76.5887 191.7 76.0642C191.992 75.5397 192.4 75.0151 192.866 74.6655C193.391 74.2575 193.973 73.9661 194.673 73.733C195.372 73.4999 196.13 73.3833 196.946 73.3833C197.762 73.3833 198.519 73.4999 199.219 73.6747C199.918 73.8495 200.501 74.1409 201.025 74.5489C201.55 74.8986 201.899 75.3648 202.191 75.8893C202.482 76.4139 202.599 76.9967 202.599 77.696C202.599 78.4537 202.424 79.0947 202.133 79.6193C201.841 80.1438 201.433 80.61 200.909 81.018C201.55 81.4259 202.074 81.9504 202.482 82.5332C202.89 83.116 203.065 83.932 203.065 84.9227C203.065 85.5638 202.948 86.2049 202.657 86.7294C202.366 87.2539 201.958 87.7784 201.433 88.1281C200.909 88.5361 200.268 88.8275 199.51 89.0606C198.752 89.2937 197.936 89.4103 197.004 89.4103C196.071 89.4103 195.256 89.2937 194.498 89.0606C193.74 88.8275 193.099 88.5361 192.575 88.1281C192.05 87.7202 191.642 87.2539 191.351 86.7294C191.059 86.2049 190.885 85.5638 190.885 84.9227C190.885 84.0485 191.059 83.2909 191.467 82.6498C191.875 82.067 192.342 81.6008 192.866 81.2511C192.4 80.9014 192.05 80.4352 191.7 79.9107C191.467 79.4444 191.292 78.7451 191.292 77.8709ZM195.197 84.5148C195.197 85.0393 195.372 85.4472 195.722 85.7386C196.071 86.03 196.479 86.2049 197.004 86.2049C197.528 86.2049 197.995 86.03 198.286 85.7386C198.577 85.4472 198.811 85.0393 198.811 84.5148C198.811 84.0485 198.694 83.6406 198.344 83.2909C198.053 82.9412 197.645 82.7081 197.179 82.5332C196.421 82.7081 195.897 82.9412 195.605 83.2909C195.372 83.6406 195.197 84.0485 195.197 84.5148ZM198.519 78.0457C198.519 77.5795 198.403 77.2298 198.111 76.9967C197.82 76.7053 197.47 76.5887 197.004 76.5887C196.538 76.5887 196.13 76.7053 195.897 76.9967C195.605 77.2881 195.489 77.6377 195.489 78.0457C195.489 78.4537 195.605 78.8033 195.897 79.0947C196.188 79.3861 196.479 79.561 196.887 79.7358C197.47 79.6193 197.878 79.3861 198.17 79.0947C198.403 78.7451 198.519 78.3954 198.519 78.0457Z" stroke="white" stroke-width="3.32535"/>
<path d="M205.28 77.8704C205.28 77.2293 205.397 76.5882 205.688 76.0637C205.98 75.5392 206.388 75.0146 206.854 74.665C207.378 74.257 207.961 73.9656 208.661 73.7325C209.36 73.4994 210.118 73.3828 210.933 73.3828C211.749 73.3828 212.507 73.4994 213.206 73.6742C213.906 73.8491 214.488 74.1405 215.013 74.5484C215.538 74.8981 215.887 75.3643 216.179 75.8888C216.47 76.4134 216.587 76.9962 216.587 77.6955C216.587 78.4532 216.412 79.0942 216.12 79.6188C215.829 80.1433 215.421 80.6095 214.896 81.0175C215.538 81.4254 216.062 81.95 216.47 82.5328C216.878 83.1156 217.053 83.9315 217.053 84.9222C217.053 85.5633 216.936 86.2044 216.645 86.7289C216.353 87.2534 215.945 87.778 215.421 88.1276C214.896 88.5356 214.255 88.827 213.498 89.0601C212.74 89.2932 211.924 89.4098 210.992 89.4098C210.059 89.4098 209.243 89.2932 208.486 89.0601C207.728 88.827 207.087 88.5356 206.562 88.1276C206.038 87.7197 205.63 87.2534 205.339 86.7289C205.047 86.2044 204.872 85.5633 204.872 84.9222C204.872 84.048 205.047 83.2904 205.455 82.6493C205.863 82.0665 206.329 81.6003 206.854 81.2506C206.388 80.9009 206.038 80.4347 205.688 79.9102C205.455 79.4439 205.28 78.7446 205.28 77.8704ZM209.243 84.5143C209.243 85.0388 209.418 85.4468 209.768 85.7382C210.118 86.0296 210.525 86.2044 211.05 86.2044C211.574 86.2044 212.041 86.0296 212.332 85.7382C212.624 85.4468 212.857 85.0388 212.857 84.5143C212.857 84.048 212.74 83.6401 212.39 83.2904C212.099 82.9407 211.691 82.7076 211.225 82.5328C210.467 82.7076 209.943 82.9407 209.651 83.2904C209.36 83.6401 209.243 84.048 209.243 84.5143ZM212.507 78.0452C212.507 77.579 212.39 77.2293 212.099 76.9962C211.808 76.7048 211.458 76.5882 210.992 76.5882C210.525 76.5882 210.118 76.7048 209.884 76.9962C209.593 77.2876 209.476 77.6372 209.476 78.0452C209.476 78.4532 209.593 78.8028 209.884 79.0942C210.176 79.3856 210.467 79.5605 210.875 79.7353C211.458 79.6188 211.866 79.3856 212.157 79.0942C212.39 78.7446 212.507 78.3949 212.507 78.0452Z" stroke="white" stroke-width="3.32535"/>
<path d="M219.267 77.8704C219.267 77.2293 219.383 76.5882 219.675 76.0637C219.966 75.5392 220.374 75.0146 220.84 74.665C221.365 74.257 221.948 73.9656 222.647 73.7325C223.346 73.4994 224.104 73.3828 224.92 73.3828C225.736 73.3828 226.494 73.4994 227.193 73.6742C227.892 73.8491 228.475 74.1405 229 74.5484C229.524 74.8981 229.874 75.3643 230.165 75.8888C230.457 76.4134 230.573 76.9962 230.573 77.6955C230.573 78.4532 230.398 79.0942 230.107 79.6188C229.816 80.1433 229.408 80.6095 228.883 81.0175C229.524 81.4254 230.049 81.95 230.457 82.5328C230.865 83.1156 231.039 83.9315 231.039 84.9222C231.039 85.5633 230.923 86.2044 230.631 86.7289C230.34 87.2534 229.932 87.778 229.408 88.1276C228.883 88.5356 228.242 88.827 227.484 89.0601C226.727 89.2932 225.911 89.4098 224.978 89.4098C224.046 89.4098 223.23 89.2932 222.472 89.0601C221.715 88.827 221.074 88.5356 220.549 88.1276C220.024 87.7197 219.617 87.2534 219.325 86.7289C219.034 86.2044 218.859 85.5633 218.859 84.9222C218.859 84.048 219.034 83.2904 219.442 82.6493C219.85 82.0665 220.316 81.6003 220.84 81.2506C220.374 80.9009 220.024 80.4347 219.675 79.9102C219.442 79.4439 219.267 78.7446 219.267 77.8704ZM223.23 84.5143C223.23 85.0388 223.405 85.4468 223.754 85.7382C224.104 86.0296 224.512 86.2044 225.037 86.2044C225.561 86.2044 226.027 86.0296 226.319 85.7382C226.61 85.4468 226.843 85.0388 226.843 84.5143C226.843 84.048 226.727 83.6401 226.377 83.2904C226.086 82.9407 225.678 82.7076 225.211 82.5328C224.454 82.7076 223.929 82.9407 223.638 83.2904C223.346 83.6401 223.23 84.048 223.23 84.5143ZM226.494 78.0452C226.494 77.579 226.377 77.2293 226.086 76.9962C225.794 76.7048 225.445 76.5882 224.978 76.5882C224.512 76.5882 224.104 76.7048 223.871 76.9962C223.58 77.2876 223.463 77.6372 223.463 78.0452C223.463 78.4532 223.58 78.8028 223.871 79.0942C224.162 79.3856 224.454 79.5605 224.862 79.7353C225.445 79.6188 225.852 79.3856 226.144 79.0942C226.377 78.7446 226.494 78.3949 226.494 78.0452Z" stroke="white" stroke-width="3.32535"/>
<path d="M191.292 77.8709C191.292 77.2298 191.409 76.5887 191.7 76.0642C191.992 75.5397 192.4 75.0151 192.866 74.6655C193.391 74.2575 193.973 73.9661 194.673 73.733C195.372 73.4999 196.13 73.3833 196.946 73.3833C197.762 73.3833 198.519 73.4999 199.219 73.6747C199.918 73.8495 200.501 74.1409 201.025 74.5489C201.55 74.8986 201.899 75.3648 202.191 75.8893C202.482 76.4139 202.599 76.9967 202.599 77.696C202.599 78.4537 202.424 79.0947 202.133 79.6193C201.841 80.1438 201.433 80.61 200.909 81.018C201.55 81.4259 202.074 81.9504 202.482 82.5332C202.89 83.116 203.065 83.932 203.065 84.9227C203.065 85.5638 202.948 86.2049 202.657 86.7294C202.366 87.2539 201.958 87.7784 201.433 88.1281C200.909 88.5361 200.268 88.8275 199.51 89.0606C198.752 89.2937 197.936 89.4103 197.004 89.4103C196.071 89.4103 195.256 89.2937 194.498 89.0606C193.74 88.8275 193.099 88.5361 192.575 88.1281C192.05 87.7202 191.642 87.2539 191.351 86.7294C191.059 86.2049 190.885 85.5638 190.885 84.9227C190.885 84.0485 191.059 83.2909 191.467 82.6498C191.875 82.067 192.342 81.6008 192.866 81.2511C192.4 80.9014 192.05 80.4352 191.7 79.9107C191.467 79.4444 191.292 78.7451 191.292 77.8709ZM195.197 84.5148C195.197 85.0393 195.372 85.4472 195.722 85.7386C196.071 86.03 196.479 86.2049 197.004 86.2049C197.528 86.2049 197.995 86.03 198.286 85.7386C198.577 85.4472 198.811 85.0393 198.811 84.5148C198.811 84.0485 198.694 83.6406 198.344 83.2909C198.053 82.9412 197.645 82.7081 197.179 82.5332C196.421 82.7081 195.897 82.9412 195.605 83.2909C195.372 83.6406 195.197 84.0485 195.197 84.5148ZM198.519 78.0457C198.519 77.5795 198.403 77.2298 198.111 76.9967C197.82 76.7053 197.47 76.5887 197.004 76.5887C196.538 76.5887 196.13 76.7053 195.897 76.9967C195.605 77.2881 195.489 77.6377 195.489 78.0457C195.489 78.4537 195.605 78.8033 195.897 79.0947C196.188 79.3861 196.479 79.561 196.887 79.7358C197.47 79.6193 197.878 79.3861 198.17 79.0947C198.403 78.7451 198.519 78.3954 198.519 78.0457Z" fill="#D9A300"/>
<path d="M205.28 77.8704C205.28 77.2293 205.397 76.5882 205.688 76.0637C205.98 75.5392 206.388 75.0146 206.854 74.665C207.378 74.257 207.961 73.9656 208.661 73.7325C209.36 73.4994 210.118 73.3828 210.933 73.3828C211.749 73.3828 212.507 73.4994 213.206 73.6742C213.906 73.8491 214.488 74.1405 215.013 74.5484C215.538 74.8981 215.887 75.3643 216.179 75.8888C216.47 76.4134 216.587 76.9962 216.587 77.6955C216.587 78.4532 216.412 79.0942 216.12 79.6188C215.829 80.1433 215.421 80.6095 214.896 81.0175C215.538 81.4254 216.062 81.95 216.47 82.5328C216.878 83.1156 217.053 83.9315 217.053 84.9222C217.053 85.5633 216.936 86.2044 216.645 86.7289C216.353 87.2534 215.945 87.778 215.421 88.1276C214.896 88.5356 214.255 88.827 213.498 89.0601C212.74 89.2932 211.924 89.4098 210.992 89.4098C210.059 89.4098 209.243 89.2932 208.486 89.0601C207.728 88.827 207.087 88.5356 206.562 88.1276C206.038 87.7197 205.63 87.2534 205.339 86.7289C205.047 86.2044 204.872 85.5633 204.872 84.9222C204.872 84.048 205.047 83.2904 205.455 82.6493C205.863 82.0665 206.329 81.6003 206.854 81.2506C206.388 80.9009 206.038 80.4347 205.688 79.9102C205.455 79.4439 205.28 78.7446 205.28 77.8704ZM209.243 84.5143C209.243 85.0388 209.418 85.4468 209.768 85.7382C210.118 86.0296 210.525 86.2044 211.05 86.2044C211.575 86.2044 212.041 86.0296 212.332 85.7382C212.624 85.4468 212.857 85.0388 212.857 84.5143C212.857 84.048 212.74 83.6401 212.39 83.2904C212.099 82.9407 211.691 82.7076 211.225 82.5328C210.467 82.7076 209.943 82.9407 209.651 83.2904C209.36 83.6401 209.243 84.048 209.243 84.5143ZM212.507 78.0452C212.507 77.579 212.39 77.2293 212.099 76.9962C211.808 76.7048 211.458 76.5882 210.992 76.5882C210.525 76.5882 210.118 76.7048 209.884 76.9962C209.593 77.2876 209.476 77.6372 209.476 78.0452C209.476 78.4532 209.593 78.8028 209.884 79.0942C210.176 79.3856 210.467 79.5605 210.875 79.7353C211.458 79.6188 211.866 79.3856 212.157 79.0942C212.39 78.7446 212.507 78.3949 212.507 78.0452Z" fill="#D9A300"/>
<path d="M219.267 77.8704C219.267 77.2293 219.383 76.5882 219.675 76.0637C219.966 75.5392 220.374 75.0146 220.84 74.665C221.365 74.257 221.948 73.9656 222.647 73.7325C223.346 73.4994 224.104 73.3828 224.92 73.3828C225.736 73.3828 226.494 73.4994 227.193 73.6742C227.892 73.8491 228.475 74.1405 229 74.5484C229.524 74.8981 229.874 75.3643 230.165 75.8888C230.457 76.4134 230.573 76.9962 230.573 77.6955C230.573 78.4532 230.398 79.0942 230.107 79.6188C229.816 80.1433 229.408 80.6095 228.883 81.0175C229.524 81.4254 230.049 81.95 230.457 82.5328C230.865 83.1156 231.039 83.9315 231.039 84.9222C231.039 85.5633 230.923 86.2044 230.631 86.7289C230.34 87.2534 229.932 87.778 229.408 88.1276C228.883 88.5356 228.242 88.827 227.484 89.0601C226.727 89.2932 225.911 89.4098 224.978 89.4098C224.046 89.4098 223.23 89.2932 222.472 89.0601C221.715 88.827 221.074 88.5356 220.549 88.1276C220.024 87.7197 219.617 87.2534 219.325 86.7289C219.034 86.2044 218.859 85.5633 218.859 84.9222C218.859 84.048 219.034 83.2904 219.442 82.6493C219.85 82.0665 220.316 81.6003 220.84 81.2506C220.374 80.9009 220.024 80.4347 219.675 79.9102C219.442 79.4439 219.267 78.7446 219.267 77.8704ZM223.23 84.5143C223.23 85.0388 223.405 85.4468 223.754 85.7382C224.104 86.0296 224.512 86.2044 225.037 86.2044C225.561 86.2044 226.027 86.0296 226.319 85.7382C226.61 85.4468 226.843 85.0388 226.843 84.5143C226.843 84.048 226.727 83.6401 226.377 83.2904C226.086 82.9407 225.678 82.7076 225.211 82.5328C224.454 82.7076 223.929 82.9407 223.638 83.2904C223.346 83.6401 223.23 84.048 223.23 84.5143ZM226.494 78.0452C226.494 77.579 226.377 77.2293 226.086 76.9962C225.794 76.7048 225.445 76.5882 224.978 76.5882C224.512 76.5882 224.104 76.7048 223.871 76.9962C223.58 77.2876 223.463 77.6372 223.463 78.0452C223.463 78.4532 223.58 78.8028 223.871 79.0942C224.162 79.3856 224.454 79.5605 224.862 79.7353C225.445 79.6188 225.852 79.3856 226.144 79.0942C226.377 78.7446 226.494 78.3949 226.494 78.0452Z" fill="#D9A300"/>
<path d="M91.5757 48.9441C91.5757 48.303 91.6922 47.6619 91.9836 47.1374C92.275 46.6129 92.683 46.0884 93.1492 45.7387C93.6738 45.3307 94.2566 45.0393 94.9559 44.8062C95.6553 44.5731 96.4129 44.4565 97.2288 44.4565C98.0448 44.4565 98.8024 44.5731 99.5018 44.7479C100.201 44.9228 100.784 45.2142 101.308 45.6221C101.833 45.9718 102.183 46.4381 102.474 46.9626C102.765 47.4871 102.882 48.0699 102.882 48.7693C102.882 49.5269 102.707 50.168 102.416 50.6925C102.124 51.217 101.716 51.6833 101.192 52.0912C101.833 52.4992 102.357 53.0237 102.765 53.6065C103.173 54.1893 103.348 55.0052 103.348 55.996C103.348 56.637 103.232 57.2781 102.94 57.8026C102.649 58.3272 102.241 58.8517 101.716 59.2014C101.192 59.6093 100.551 59.9007 99.7932 60.1338C99.0355 60.367 98.2196 60.4835 97.2871 60.4835C96.3546 60.4835 95.5387 60.367 94.7811 60.1338C94.0234 59.9007 93.3824 59.6093 92.8578 59.2014C92.3333 58.7934 91.9254 58.3272 91.634 57.8026C91.3426 57.2781 91.1677 56.637 91.1677 55.996C91.1677 55.1218 91.3426 54.3641 91.7505 53.7231C92.1585 53.082 92.6247 52.674 93.1492 52.3243C92.683 51.9747 92.3333 51.5084 91.9836 50.9839C91.7505 50.5177 91.5757 49.8183 91.5757 48.9441ZM95.4804 55.588C95.4804 56.1125 95.6553 56.5205 96.005 56.8119C96.3546 57.1033 96.7626 57.2781 97.3454 57.2781C97.8699 57.2781 98.3362 57.1033 98.6858 56.8119C99.0355 56.5205 99.2104 56.1125 99.2104 55.588C99.2104 55.1218 99.0355 54.7138 98.7441 54.3641C98.4527 54.0145 98.0448 53.7813 97.5785 53.6065C96.8209 53.7813 96.2964 54.0145 96.005 54.3641C95.6553 54.7138 95.4804 55.1218 95.4804 55.588ZM98.8024 49.1189C98.8024 48.6527 98.6858 48.303 98.3944 48.0699C98.103 47.7785 97.7534 47.6619 97.2871 47.6619C96.8209 47.6619 96.4129 47.7785 96.1798 48.0699C95.8884 48.3613 95.7718 48.711 95.7718 49.1189C95.7718 49.5269 95.8884 49.8766 96.1798 50.168C96.4712 50.4594 96.7626 50.6342 97.1706 50.8091C97.7534 50.6925 98.1613 50.4594 98.4527 50.168C98.6276 49.8183 98.8024 49.5269 98.8024 49.1189Z" stroke="white" stroke-width="3.32535"/>
<path d="M105.563 48.9436C105.563 48.3025 105.68 47.6615 105.971 47.1369C106.262 46.6124 106.67 46.0879 107.137 45.7382C107.661 45.3303 108.244 45.0389 108.943 44.8057C109.643 44.5726 110.4 44.4561 111.216 44.4561C112.032 44.4561 112.79 44.5726 113.489 44.7475C114.188 44.9223 114.771 45.2137 115.296 45.6217C115.82 45.9713 116.17 46.4376 116.461 46.9621C116.753 47.4866 116.869 48.0694 116.869 48.7688C116.869 49.5264 116.694 50.1675 116.403 50.692C116.112 51.2165 115.704 51.6828 115.179 52.0907C115.82 52.4987 116.345 53.0232 116.753 53.606C117.161 54.1888 117.336 55.0047 117.336 55.9955C117.336 56.6366 117.219 57.2776 116.928 57.8022C116.636 58.3267 116.228 58.8512 115.704 59.2009C115.179 59.6088 114.538 59.9002 113.78 60.1334C113.023 60.3665 112.207 60.483 111.274 60.483C110.342 60.483 109.526 60.3665 108.768 60.1334C108.011 59.9002 107.37 59.6088 106.845 59.2009C106.321 58.7929 105.913 58.3267 105.621 57.8022C105.33 57.2776 105.155 56.6366 105.155 55.9955C105.155 55.1213 105.33 54.3636 105.738 53.7226C106.146 53.0815 106.612 52.6735 107.137 52.3238C106.67 51.9742 106.321 51.5079 105.971 50.9834C105.738 50.5172 105.563 49.8178 105.563 48.9436ZM109.468 55.5875C109.468 56.112 109.643 56.52 109.992 56.8114C110.342 57.1028 110.75 57.2776 111.333 57.2776C111.857 57.2776 112.323 57.1028 112.673 56.8114C113.023 56.52 113.198 56.112 113.198 55.5875C113.198 55.1213 113.023 54.7133 112.731 54.3636C112.44 54.014 112.032 53.7808 111.566 53.606C110.808 53.7808 110.284 54.014 109.992 54.3636C109.643 54.7133 109.468 55.1213 109.468 55.5875ZM112.79 49.1184C112.79 48.6522 112.673 48.3025 112.382 48.0694C112.09 47.778 111.741 47.6615 111.274 47.6615C110.808 47.6615 110.4 47.778 110.167 48.0694C109.876 48.3608 109.759 48.7105 109.759 49.1184C109.759 49.5264 109.876 49.8761 110.167 50.1675C110.459 50.4589 110.75 50.6337 111.158 50.8086C111.741 50.692 112.149 50.4589 112.44 50.1675C112.615 49.8178 112.79 49.5264 112.79 49.1184Z" stroke="white" stroke-width="3.32535"/>
<path d="M119.551 48.9436C119.551 48.3025 119.667 47.6615 119.958 47.1369C120.25 46.6124 120.658 46.0879 121.124 45.7382C121.649 45.3303 122.231 45.0389 122.931 44.8057C123.63 44.5726 124.388 44.4561 125.204 44.4561C126.02 44.4561 126.777 44.5726 127.477 44.7475C128.176 44.9223 128.759 45.2137 129.283 45.6217C129.808 45.9713 130.157 46.4376 130.449 46.9621C130.74 47.4866 130.857 48.0694 130.857 48.7688C130.857 49.5264 130.682 50.1675 130.391 50.692C130.099 51.2165 129.691 51.6828 129.167 52.0907C129.808 52.4987 130.332 53.0232 130.74 53.606C131.148 54.1888 131.323 55.0047 131.323 55.9955C131.323 56.6366 131.207 57.2776 130.915 57.8022C130.624 58.3267 130.216 58.8512 129.691 59.2009C129.167 59.6088 128.526 59.9002 127.768 60.1334C127.01 60.3665 126.194 60.483 125.262 60.483C124.329 60.483 123.514 60.3665 122.756 60.1334C121.998 59.9002 121.357 59.6088 120.833 59.2009C120.308 58.7929 119.9 58.3267 119.609 57.8022C119.317 57.2776 119.143 56.6366 119.143 55.9955C119.143 55.1213 119.317 54.3636 119.725 53.7226C120.133 53.0815 120.6 52.6735 121.124 52.3238C120.658 51.9742 120.308 51.5079 119.958 50.9834C119.725 50.5172 119.551 49.8178 119.551 48.9436ZM123.455 55.5875C123.455 56.112 123.63 56.52 123.98 56.8114C124.329 57.1028 124.737 57.2776 125.32 57.2776C125.845 57.2776 126.311 57.1028 126.661 56.8114C127.01 56.52 127.185 56.112 127.185 55.5875C127.185 55.1213 127.01 54.7133 126.719 54.3636C126.428 54.014 126.02 53.7808 125.553 53.606C124.796 53.7808 124.271 54.014 123.98 54.3636C123.63 54.7133 123.455 55.1213 123.455 55.5875ZM126.777 49.1184C126.777 48.6522 126.661 48.3025 126.369 48.0694C126.078 47.778 125.728 47.6615 125.262 47.6615C124.796 47.6615 124.388 47.778 124.155 48.0694C123.863 48.3608 123.747 48.7105 123.747 49.1184C123.747 49.5264 123.863 49.8761 124.155 50.1675C124.446 50.4589 124.737 50.6337 125.145 50.8086C125.728 50.692 126.136 50.4589 126.428 50.1675C126.602 49.8178 126.777 49.5264 126.777 49.1184Z" stroke="white" stroke-width="3.32535"/>
<path d="M91.5757 48.9441C91.5757 48.303 91.6922 47.6619 91.9836 47.1374C92.275 46.6129 92.683 46.0884 93.1492 45.7387C93.6738 45.3307 94.2566 45.0393 94.9559 44.8062C95.6553 44.5731 96.4129 44.4565 97.2288 44.4565C98.0448 44.4565 98.8024 44.5731 99.5018 44.7479C100.201 44.9228 100.784 45.2142 101.308 45.6221C101.833 45.9718 102.183 46.4381 102.474 46.9626C102.765 47.4871 102.882 48.0699 102.882 48.7693C102.882 49.5269 102.707 50.168 102.416 50.6925C102.124 51.217 101.716 51.6833 101.192 52.0912C101.833 52.4992 102.357 53.0237 102.765 53.6065C103.173 54.1893 103.348 55.0052 103.348 55.996C103.348 56.637 103.232 57.2781 102.94 57.8026C102.649 58.3272 102.241 58.8517 101.716 59.2014C101.192 59.6093 100.551 59.9007 99.7932 60.1338C99.0355 60.367 98.2196 60.4835 97.2871 60.4835C96.3546 60.4835 95.5387 60.367 94.7811 60.1338C94.0234 59.9007 93.3824 59.6093 92.8578 59.2014C92.3333 58.7934 91.9254 58.3272 91.634 57.8026C91.3426 57.2781 91.1677 56.637 91.1677 55.996C91.1677 55.1218 91.3426 54.3641 91.7505 53.7231C92.1585 53.082 92.6247 52.674 93.1492 52.3243C92.683 51.9747 92.3333 51.5084 91.9836 50.9839C91.7505 50.5177 91.5757 49.8183 91.5757 48.9441ZM95.4804 55.588C95.4804 56.1125 95.6553 56.5205 96.005 56.8119C96.3546 57.1033 96.7626 57.2781 97.3454 57.2781C97.8699 57.2781 98.3362 57.1033 98.6858 56.8119C99.0355 56.5205 99.2104 56.1125 99.2104 55.588C99.2104 55.1218 99.0355 54.7138 98.7441 54.3641C98.4527 54.0145 98.0448 53.7813 97.5785 53.6065C96.8209 53.7813 96.2964 54.0145 96.005 54.3641C95.6553 54.7138 95.4804 55.1218 95.4804 55.588ZM98.8024 49.1189C98.8024 48.6527 98.6858 48.303 98.3944 48.0699C98.103 47.7785 97.7534 47.6619 97.2871 47.6619C96.8209 47.6619 96.4129 47.7785 96.1798 48.0699C95.8884 48.3613 95.7718 48.711 95.7718 49.1189C95.7718 49.5269 95.8884 49.8766 96.1798 50.168C96.4712 50.4594 96.7626 50.6342 97.1706 50.8091C97.7534 50.6925 98.1613 50.4594 98.4527 50.168C98.6276 49.8183 98.8024 49.5269 98.8024 49.1189Z" fill="#D9A300"/>
<path d="M105.563 48.9436C105.563 48.3025 105.68 47.6615 105.971 47.1369C106.262 46.6124 106.67 46.0879 107.137 45.7382C107.661 45.3303 108.244 45.0389 108.943 44.8057C109.643 44.5726 110.4 44.4561 111.216 44.4561C112.032 44.4561 112.79 44.5726 113.489 44.7475C114.188 44.9223 114.771 45.2137 115.296 45.6217C115.82 45.9713 116.17 46.4376 116.461 46.9621C116.753 47.4866 116.869 48.0694 116.869 48.7688C116.869 49.5264 116.694 50.1675 116.403 50.692C116.112 51.2165 115.704 51.6828 115.179 52.0907C115.82 52.4987 116.345 53.0232 116.753 53.606C117.161 54.1888 117.336 55.0047 117.336 55.9955C117.336 56.6366 117.219 57.2776 116.928 57.8022C116.636 58.3267 116.228 58.8512 115.704 59.2009C115.179 59.6088 114.538 59.9002 113.78 60.1334C113.023 60.3665 112.207 60.483 111.274 60.483C110.342 60.483 109.526 60.3665 108.768 60.1334C108.011 59.9002 107.37 59.6088 106.845 59.2009C106.321 58.7929 105.913 58.3267 105.621 57.8022C105.33 57.2776 105.155 56.6366 105.155 55.9955C105.155 55.1213 105.33 54.3636 105.738 53.7226C106.146 53.0815 106.612 52.6735 107.137 52.3238C106.67 51.9742 106.321 51.5079 105.971 50.9834C105.738 50.5172 105.563 49.8178 105.563 48.9436ZM109.468 55.5875C109.468 56.112 109.643 56.52 109.992 56.8114C110.342 57.1028 110.75 57.2776 111.333 57.2776C111.857 57.2776 112.323 57.1028 112.673 56.8114C113.023 56.52 113.198 56.112 113.198 55.5875C113.198 55.1213 113.023 54.7133 112.731 54.3636C112.44 54.014 112.032 53.7808 111.566 53.606C110.808 53.7808 110.284 54.014 109.992 54.3636C109.643 54.7133 109.468 55.1213 109.468 55.5875ZM112.79 49.1184C112.79 48.6522 112.673 48.3025 112.382 48.0694C112.09 47.778 111.741 47.6615 111.274 47.6615C110.808 47.6615 110.4 47.778 110.167 48.0694C109.876 48.3608 109.759 48.7105 109.759 49.1184C109.759 49.5264 109.876 49.8761 110.167 50.1675C110.459 50.4589 110.75 50.6337 111.158 50.8086C111.741 50.692 112.149 50.4589 112.44 50.1675C112.615 49.8178 112.79 49.5264 112.79 49.1184Z" fill="#D9A300"/>
<path d="M119.551 48.9436C119.551 48.3025 119.667 47.6615 119.958 47.1369C120.25 46.6124 120.658 46.0879 121.124 45.7382C121.649 45.3303 122.231 45.0389 122.931 44.8057C123.63 44.5726 124.388 44.4561 125.204 44.4561C126.02 44.4561 126.777 44.5726 127.477 44.7475C128.176 44.9223 128.759 45.2137 129.283 45.6217C129.808 45.9713 130.157 46.4376 130.449 46.9621C130.74 47.4866 130.857 48.0694 130.857 48.7688C130.857 49.5264 130.682 50.1675 130.391 50.692C130.099 51.2165 129.691 51.6828 129.167 52.0907C129.808 52.4987 130.332 53.0232 130.74 53.606C131.148 54.1888 131.323 55.0047 131.323 55.9955C131.323 56.6366 131.207 57.2776 130.915 57.8022C130.624 58.3267 130.216 58.8512 129.691 59.2009C129.167 59.6088 128.526 59.9002 127.768 60.1334C127.01 60.3665 126.194 60.483 125.262 60.483C124.329 60.483 123.514 60.3665 122.756 60.1334C121.998 59.9002 121.357 59.6088 120.833 59.2009C120.308 58.7929 119.9 58.3267 119.609 57.8022C119.317 57.2776 119.143 56.6366 119.143 55.9955C119.143 55.1213 119.317 54.3636 119.725 53.7226C120.133 53.0815 120.6 52.6735 121.124 52.3238C120.658 51.9742 120.308 51.5079 119.958 50.9834C119.725 50.5172 119.551 49.8178 119.551 48.9436ZM123.455 55.5875C123.455 56.112 123.63 56.52 123.98 56.8114C124.329 57.1028 124.737 57.2776 125.32 57.2776C125.845 57.2776 126.311 57.1028 126.661 56.8114C127.01 56.52 127.185 56.112 127.185 55.5875C127.185 55.1213 127.01 54.7133 126.719 54.3636C126.428 54.014 126.02 53.7808 125.553 53.606C124.796 53.7808 124.271 54.014 123.98 54.3636C123.63 54.7133 123.455 55.1213 123.455 55.5875ZM126.777 49.1184C126.777 48.6522 126.661 48.3025 126.369 48.0694C126.078 47.778 125.728 47.6615 125.262 47.6615C124.796 47.6615 124.388 47.778 124.155 48.0694C123.863 48.3608 123.747 48.7105 123.747 49.1184C123.747 49.5264 123.863 49.8761 124.155 50.1675C124.446 50.4589 124.737 50.6337 125.145 50.8086C125.728 50.692 126.136 50.4589 126.428 50.1675C126.602 49.8178 126.777 49.5264 126.777 49.1184Z" fill="#D9A300"/>
<path d="M112.604 78.4575H116.346" stroke="#CC9900" stroke-width="3.74552" stroke-miterlimit="10" stroke-linecap="round" stroke-linejoin="round"/>
<path d="M123.304 78.4575H127.046" stroke="#CC9900" stroke-width="3.74552" stroke-miterlimit="10" stroke-linecap="round" stroke-linejoin="round"/>
<path d="M119.825 85.6792V81.9375" stroke="#CC9900" stroke-width="3.74552" stroke-miterlimit="10" stroke-linecap="round" stroke-linejoin="round"/>
<path d="M119.825 74.979V71.2373" stroke="#CC9900" stroke-width="3.74552" stroke-miterlimit="10" stroke-linecap="round" stroke-linejoin="round"/>
<path d="M196.036 52.2007H199.778" stroke="#CC9900" stroke-width="3.74552" stroke-miterlimit="10" stroke-linecap="round" stroke-linejoin="round"/>
<path d="M206.736 52.2007H210.477" stroke="#CC9900" stroke-width="3.74552" stroke-miterlimit="10" stroke-linecap="round" stroke-linejoin="round"/>
<path d="M203.257 59.4209V55.6792" stroke="#CC9900" stroke-width="3.74552" stroke-miterlimit="10" stroke-linecap="round" stroke-linejoin="round"/>
<path d="M203.257 48.7217V44.98" stroke="#CC9900" stroke-width="3.74552" stroke-miterlimit="10" stroke-linecap="round" stroke-linejoin="round"/>
<path d="M242.172 108.923H79.5125C76.9482 108.923 74.8501 106.825 74.8501 104.26V27.3309C74.8501 24.7665 76.9482 22.6685 79.5125 22.6685H242.172C244.736 22.6685 246.834 24.7665 246.834 27.3309V104.26C246.834 106.825 244.794 108.923 242.172 108.923Z" stroke="#252525" stroke-width="6.09647" stroke-miterlimit="10"/>
<path d="M249.98 61.3076V70.2827" stroke="white" stroke-width="3.32535" stroke-miterlimit="10" stroke-linecap="round" stroke-linejoin="round"/>
<path d="M34.9125 85.7296C34.1929 85.795 33.2116 84.5521 32.8191 83.9633L36.4172 83.4399C36.1555 84.1596 35.6321 85.6642 34.9125 85.7296Z" fill="white"/>
<path d="M55.7819 82.7848C55.0623 82.8502 54.081 81.6072 53.6885 81.0185L57.2865 80.4951C57.0249 81.2147 56.5015 82.7194 55.7819 82.7848Z" fill="white"/>
<path d="M64.352 76.3087C64.4828 77.0937 63.894 77.8133 63.1744 77.8787L26.5395 83.0469C25.7544 83.1777 25.0348 82.589 24.9694 81.8693L21.4368 57.4024C21.3059 56.552 21.9601 55.8978 22.6143 55.8324L59.3147 50.6642C59.9689 50.5988 60.7539 50.9913 60.8847 51.8418L64.352 76.3087Z" fill="white"/>
<path d="M32.5575 70.2894C33.8659 70.0931 34.7163 68.9156 34.5855 67.6072C34.3893 66.2988 33.2117 65.4483 31.9033 65.5792C30.5949 65.7754 29.7445 66.953 29.8753 68.2614C30.0716 69.5698 31.2491 70.4856 32.5575 70.2894Z" fill="#252525"/>
<path d="M59.1174 47.8524L45.4447 49.7496L50.7437 42.7497C51.3324 41.9647 51.1362 40.918 50.4166 40.3292C49.5007 39.8058 48.454 40.0675 47.9306 40.7217L40.6036 50.4692L30.8561 43.1422C30.0711 42.5535 29.0244 42.6843 28.4356 43.4693C27.9123 44.2544 28.0431 45.3011 28.7627 45.8899L35.7626 51.1234L22.0245 53.086C19.8657 53.4131 18.4919 55.3103 18.7535 57.4037L22.3516 82.5902C22.6133 84.6836 24.5759 86.1228 26.6693 85.8612L30.3982 85.3378C30.3982 85.3378 32.6225 88.805 35.3047 88.4779C37.9214 88.0854 39.1644 84.1603 39.1644 84.1603L51.267 82.4594C51.267 82.4594 53.4913 85.9266 56.1735 85.5995C58.8557 85.207 60.0332 81.2818 60.0332 81.2818L63.7621 80.7584C65.8556 80.4968 67.2948 78.5342 67.0331 76.4408L63.5005 51.1888C63.108 49.03 61.1454 47.5908 59.1174 47.8524ZM34.9121 85.7303C34.1925 85.7957 33.2112 84.5528 32.8187 83.964L36.4168 83.4406C36.1551 84.1603 35.6318 85.6649 34.9121 85.7303ZM55.781 82.7865C55.0614 82.8519 54.0801 81.6089 53.6875 81.0201L57.2856 80.4968C57.0239 81.2164 56.5006 82.721 55.781 82.7865ZM64.3509 76.3099C64.4818 77.095 63.893 77.8146 63.1734 77.88L26.5385 83.0481C25.7534 83.179 25.0338 82.5902 24.9684 81.8706L21.4357 57.4037C21.3049 56.5532 21.9591 55.899 22.6133 55.8336L59.3136 50.6655C59.9678 50.6001 60.7529 50.9926 60.8837 51.843L64.3509 76.3099Z" fill="#252525"/>
<path d="M53.1647 63.1595C54.4731 62.9632 55.3235 61.7857 55.1927 60.4773C54.9964 59.1689 53.8189 58.3184 52.5105 58.4493C51.2021 58.6455 50.3516 59.8231 50.4825 61.1315C50.7442 62.4399 51.9217 63.3557 53.1647 63.1595Z" fill="#252525"/>
<path d="M47.2771 73.1687L44.2024 70.7481C43.9407 70.5519 43.679 70.4865 43.4174 70.5519C43.1557 70.6173 42.894 70.7481 42.6978 70.9444L40.4081 74.0845C40.0156 74.6079 40.4081 75.1312 41.0623 75.0658L46.95 74.2154C47.5388 74.1499 47.8005 73.5612 47.2771 73.1687Z" fill="#252525"/>
<path d="M57.5476 53.1503L24.9687 57.7296C24.3145 57.795 23.8566 58.4492 23.922 59.1034L26.8004 79.5143C26.8659 80.1685 27.5201 80.6265 28.1743 80.561L60.6877 75.9817C61.3419 75.9162 61.7999 75.2621 61.7345 74.6079L58.9214 54.197C58.856 53.5428 58.2018 53.0848 57.5476 53.1503ZM60.7532 74.7387C60.7532 74.8041 60.6877 74.935 60.6223 74.935L28.1088 79.5143C28.0434 79.5143 27.9126 79.4489 27.9126 79.3835L24.9687 58.9726C24.9687 58.9072 25.0341 58.7763 25.0995 58.7763L57.6784 54.197C57.7439 54.197 57.8747 54.2624 57.8747 54.3278L60.7532 74.7387Z" fill="#252525"/>
<path d="M284.382 48.1275C287.028 48.1275 289.173 45.9823 289.173 43.336C289.173 40.6897 287.028 38.5444 284.382 38.5444C281.735 38.5444 279.59 40.6897 279.59 43.336C279.59 45.9823 281.735 48.1275 284.382 48.1275Z" fill="white"/>
<path d="M297.644 57.3327L268.629 53.2241L265.251 77.0822L294.266 81.1907L297.644 57.3327Z" fill="white"/>
<path d="M279.589 69.5852L276.395 72.224C275.978 72.5712 276.187 73.2656 276.742 73.3351L282.645 74.1684C283.2 74.2378 283.548 73.6128 283.27 73.1962L280.909 69.7935C280.562 69.3074 280.006 69.238 279.589 69.5852Z" fill="#252525"/>
<path d="M286.603 65.0017C286.394 66.46 287.436 67.8489 288.894 68.0572C290.353 68.2656 291.741 67.2239 291.95 65.7656C292.158 64.3073 291.116 62.9185 289.658 62.7101C288.2 62.5018 286.811 63.5435 286.603 65.0017Z" fill="#252525"/>
<path d="M269.381 65.0714C269.173 66.5297 270.215 67.9185 271.673 68.1268C273.131 68.3352 274.52 67.2935 274.728 65.8352C274.937 64.3769 273.895 62.9881 272.437 62.7797C270.978 62.502 269.59 63.5436 269.381 65.0714Z" fill="#252525"/>
<path d="M265.145 77.919C264.937 79.5856 266.117 80.9744 267.784 81.2522L286.811 83.9605C293.686 84.9327 300.005 78.9606 301.186 70.4192C302.366 61.8777 297.991 54.3779 291.117 53.4057L285.631 52.6418L285.839 50.9752C288.964 50.3502 291.464 47.8503 291.95 44.517C292.575 40.281 289.589 36.3922 285.422 35.8367C281.186 35.2117 277.297 38.1977 276.742 42.3643C276.256 45.6975 277.992 48.8225 280.839 50.2808L280.631 51.878L272.089 50.6974C270.423 50.4891 268.825 51.5307 268.617 53.2668C268.409 55.0029 269.589 56.3917 271.256 56.6001L290.561 59.3083C293.964 59.7944 296.186 64.5165 295.491 69.5858C294.797 74.6552 291.255 78.7523 287.922 78.2662L268.617 75.5579C266.881 75.2801 265.353 76.1829 265.145 77.919ZM287.297 43.8226C287.089 45.4198 285.631 46.5309 284.033 46.2531C282.436 46.0448 281.325 44.5865 281.603 42.9893C281.811 41.3921 283.269 40.281 284.867 40.5588C286.394 40.7671 287.505 42.2254 287.297 43.8226Z" fill="#252525"/>
<path d="M311.177 89.3896H260.416V123.295H311.177V89.3896Z" fill="white"/>
<path d="M283.258 105.911C283.787 105.911 284.216 105.482 284.216 104.953C284.216 104.424 283.787 103.995 283.258 103.995C282.729 103.995 282.3 104.424 282.3 104.953C282.3 105.482 282.729 105.911 283.258 105.911Z" fill="#5C4500"/>
<path d="M286.706 105.911C287.235 105.911 287.664 105.482 287.664 104.953C287.664 104.424 287.235 103.995 286.706 103.995C286.177 103.995 285.748 104.424 285.748 104.953C285.748 105.482 286.177 105.911 286.706 105.911Z" fill="#5C4500"/>
<path d="M287.329 115.536L287.808 117.978V122.959" stroke="#FFF3CF" stroke-width="0.979682" stroke-linecap="round" stroke-linejoin="round"/>
<path d="M289.771 114.053L290.298 116.831V122.434" stroke="#FFF3CF" stroke-width="0.979682" stroke-linecap="round" stroke-linejoin="round"/>
<path d="M292.261 111.082L292.74 114.865V122.432" stroke="#FFF3CF" stroke-width="0.979682" stroke-linecap="round" stroke-linejoin="round"/>
<path d="M285.844 112.568L290.298 110.078" stroke="#FFF3CF" stroke-width="0.979682" stroke-linecap="round" stroke-linejoin="round"/>
<path d="M287.808 101.17C289.292 104.618 290.011 109.12 294.033 107.013C296.715 105.624 295.71 99.6857 294.512 98.3448C293.315 97.0039 291.256 94.7053 289.628 94.2264C287.999 93.7475 284.312 94.1785 282.013 95.7588C279.715 97.3391 279.858 102.128 279.858 102.128" fill="#FFF3CF"/>
<path d="M311.177 89.3896H260.416V123.295H311.177V89.3896Z" stroke="#5C4500" stroke-width="1.95936" stroke-miterlimit="10" stroke-linecap="round" stroke-linejoin="round"/>
<path d="M278.039 102.367L288.814 101.266C288.814 101.266 288.239 108.545 292.741 107.444C297.242 106.342 295.518 101.841 294.992 99.5899C294.417 97.3391 292.214 94.5616 289.389 93.9869C286.563 93.4123 281.583 94.2264 279.907 98.68" stroke="#5C4500" stroke-width="1.95936" stroke-linecap="round" stroke-linejoin="round"/>
<path d="M292.261 103.134L292.645 103.996" stroke="#5C4500" stroke-width="1.95936" stroke-miterlimit="10" stroke-linecap="round" stroke-linejoin="round"/>
<path d="M280.959 102.367C280.959 102.367 279.283 108.545 282.635 109.646C285.987 110.748 288.238 109.072 288.238 109.072" stroke="#5C4500" stroke-width="1.95936" stroke-linecap="round" stroke-linejoin="round"/>
<path d="M284.838 110.557C284.838 110.557 282.348 112.52 280.385 112.52C278.421 112.52 276.937 113.526 277.415 115.01C277.894 116.495 278.9 117.5 283.354 116.495C287.807 115.489 290.297 112.52 290.297 112.52" stroke="#5C4500" stroke-width="1.95936" stroke-miterlimit="10" stroke-linecap="round" stroke-linejoin="round"/>
<path d="M280.385 113.046L281.391 116.494" stroke="#5C4500" stroke-width="1.95936" stroke-miterlimit="10" stroke-linecap="round" stroke-linejoin="round"/>
<path d="M291.255 109.551C294.224 110.556 294.703 112.999 294.703 115.489C294.703 117.979 294.703 122.912 294.703 122.912" stroke="#5C4500" stroke-width="1.95936" stroke-miterlimit="10" stroke-linecap="round" stroke-linejoin="round"/>
<path d="M283.354 117.022C283.354 117.022 284.36 117.501 284.839 118.028C285.318 118.507 285.318 122.481 285.318 122.481" stroke="#5C4500" stroke-width="1.95936" stroke-miterlimit="10" stroke-linecap="round" stroke-linejoin="round"/>
<path d="M274.83 109.646L273.824 107.3C273.681 106.965 273.489 106.725 273.25 106.486C272.723 106.055 272.148 105.145 271.909 104.57L267.742 95.6152C267.263 94.5137 267.455 92.8855 268.317 92.5024L269.706 91.9278C270.616 91.5447 271.861 92.5503 272.34 93.6517L275.883 102.894C276.123 103.469 276.41 104.522 276.314 105.145C276.267 105.48 276.362 105.815 276.458 106.103L277.464 108.449" fill="#FFF3CF"/>
<path d="M274.83 109.646L273.824 107.3C273.681 106.965 273.489 106.725 273.25 106.486C272.723 106.055 272.148 105.145 271.909 104.57L267.742 95.6152C267.263 94.5137 267.455 92.8855 268.317 92.5024L269.706 91.9278C270.616 91.5447 271.861 92.5503 272.34 93.6517L275.883 102.894C276.123 103.469 276.41 104.522 276.314 105.145C276.267 105.48 276.362 105.815 276.458 106.103L277.464 108.449" stroke="#5C4500" stroke-width="1.95936" stroke-miterlimit="10" stroke-linecap="round" stroke-linejoin="round"/>
<path d="M297.72 113.525C297.72 113.525 307.633 111.562 311.081 105.624" stroke="#5C4500" stroke-width="1.95936" stroke-miterlimit="10" stroke-linecap="round" stroke-linejoin="round"/>
<path d="M272.234 114.281C272.234 114.281 263.761 112.603 260.814 107.527" stroke="#5C4500" stroke-width="1.95837" stroke-miterlimit="10" stroke-linecap="round" stroke-linejoin="round"/>
<path d="M284.504 111.132L287.329 115.011" stroke="#5C4500" stroke-width="1.95936" stroke-miterlimit="10" stroke-linecap="round" stroke-linejoin="round"/>
<path d="M274.447 110.461C274.83 109.695 276.171 108.019 278.422 109.312C279.906 110.174 279.667 111.514 278.709 112.472C277.751 113.382 274.016 113.19 274.447 110.461Z" stroke="#5C4500" stroke-width="1.95936" stroke-miterlimit="10" stroke-linecap="round" stroke-linejoin="round"/>
<path d="M311.412 101.247L310.502 98.4327L302.641 106.083L310.829 109.174L312.006 112.387L316.458 108.221L313.343 106.935L312.635 104.74" fill="#EE4949"/>
<path d="M311.412 101.247L310.502 98.4327L302.641 106.083L310.829 109.174L312.006 112.387L316.458 108.221L313.343 106.935L312.635 104.74" stroke="#5C4500" stroke-width="1.95936" stroke-linecap="round" stroke-linejoin="round"/>
<path d="M308.018 96.3514C311.113 96.3514 313.621 93.8429 313.621 90.7484C313.621 87.654 311.113 85.1455 308.018 85.1455C304.924 85.1455 302.416 87.654 302.416 90.7484C302.416 93.8429 304.924 96.3514 308.018 96.3514Z" fill="#FCD842" stroke="#5C4500" stroke-width="1.95936" stroke-miterlimit="10" stroke-linecap="round" stroke-linejoin="round"/>
<path d="M305.098 86.1514C305.098 86.1514 306.678 87.4444 305.912 90.2698C305.146 93.0952 303.134 93.2388 303.134 93.2388" stroke="#5C4500" stroke-width="1.95936" stroke-miterlimit="10" stroke-linecap="round" stroke-linejoin="round"/>
<path d="M312.903 88.2588C312.903 88.2588 310.844 88.594 310.078 91.4194C309.312 94.2448 310.94 95.3463 310.94 95.3463" stroke="#5C4500" stroke-width="1.95936" stroke-miterlimit="10" stroke-linecap="round" stroke-linejoin="round"/>
<path d="M259.126 126.786C263.331 126.786 266.74 123.377 266.74 119.171C266.74 114.966 263.331 111.557 259.126 111.557C254.921 111.557 251.512 114.966 251.512 119.171C251.512 123.377 254.921 126.786 259.126 126.786Z" fill="white" stroke="#5C4500" stroke-width="1.95936" stroke-miterlimit="10" stroke-linecap="round" stroke-linejoin="round"/>
<path d="M261.089 118.694L259.126 117.258L258.934 117.354V117.785V117.354L257.115 118.694L257.881 120.993H259.748H260.323L261.089 118.694Z" fill="#5C4500" stroke="#5C4500" stroke-width="1.95936" stroke-miterlimit="10" stroke-linecap="round" stroke-linejoin="round"/>
<path d="M259.125 114.528L261.088 113.091L260.657 111.751C260.179 111.655 259.652 111.607 259.125 111.607C258.598 111.607 258.072 111.655 257.593 111.751L257.162 113.091L259.125 114.528Z" fill="#5C4500" stroke="#5C4500" stroke-width="1.95936" stroke-miterlimit="10" stroke-linecap="round" stroke-linejoin="round"/>
<path d="M263.627 118.503L264.824 118.359L263.627 118.503L265.207 120.371L266.644 119.748C266.644 119.557 266.692 119.365 266.692 119.174C266.692 118.312 266.548 117.497 266.261 116.731L264.872 116.396L263.627 118.503Z" fill="#5C4500"/>
<path d="M263.627 118.503L264.824 118.359L263.627 118.503ZM263.627 118.503L265.207 120.371L266.644 119.748C266.644 119.557 266.692 119.365 266.692 119.174C266.692 118.312 266.548 117.497 266.261 116.731L264.872 116.396L263.627 118.503Z" stroke="#5C4500" stroke-width="1.95936" stroke-miterlimit="10" stroke-linecap="round" stroke-linejoin="round"/>
<path d="M254.385 118.742L252.805 118.647L254.385 118.742L254.576 118.551L253.331 116.444L251.895 116.731C251.655 117.497 251.464 118.311 251.464 119.173C251.464 119.365 251.464 119.557 251.512 119.748L252.948 120.371L254.385 118.742Z" fill="#5C4500"/>
<path d="M254.385 118.742L252.805 118.647L254.385 118.742ZM254.385 118.742L254.576 118.551L253.331 116.444L251.895 116.731C251.655 117.497 251.464 118.311 251.464 119.173C251.464 119.365 251.464 119.557 251.512 119.748L252.948 120.371L254.385 118.742Z" stroke="#5C4500" stroke-width="1.95936" stroke-miterlimit="10" stroke-linecap="round" stroke-linejoin="round"/>
<path d="M255.773 123.676L255.533 123.628L255.39 123.819L255.533 123.628L253.378 123.149L252.995 123.771C253.762 124.777 254.767 125.591 255.917 126.118H255.964L255.773 123.676Z" fill="#5C4500" stroke="#5C4500" stroke-width="1.95936" stroke-miterlimit="10" stroke-linecap="round" stroke-linejoin="round"/>
<path d="M262.669 123.628L262.956 123.867L262.669 123.628L262.429 123.676L262.238 126.118H262.286C263.435 125.591 264.441 124.777 265.207 123.771L264.824 123.149L262.669 123.628Z" fill="#5C4500"/>
<path d="M262.669 123.628L262.956 123.867L262.669 123.628ZM262.669 123.628L262.429 123.676L262.238 126.118H262.286C263.435 125.591 264.441 124.777 265.207 123.771L264.824 123.149L262.669 123.628Z" stroke="#5C4500" stroke-width="1.95936" stroke-miterlimit="10" stroke-linecap="round" stroke-linejoin="round"/>
<path d="M65.9162 1.14551H15.1545V35.0505H65.9162V1.14551Z" fill="white"/>
<path d="M37.6619 18.7682C38.2438 18.7682 38.7155 18.2965 38.7155 17.7147C38.7155 17.1328 38.2438 16.6611 37.6619 16.6611C37.0801 16.6611 36.6084 17.1328 36.6084 17.7147C36.6084 18.2965 37.0801 18.7682 37.6619 18.7682Z" fill="#5C4500"/>
<path d="M42.8819 18.7682C43.4638 18.7682 43.9355 18.2965 43.9355 17.7147C43.9355 17.1328 43.4638 16.6611 42.8819 16.6611C42.3001 16.6611 41.8284 17.1328 41.8284 17.7147C41.8284 18.2965 42.3001 18.7682 42.8819 18.7682Z" fill="#5C4500"/>
<path d="M32.3468 14.4587L30.1439 17.7151L27.7495 18.2897L26.9833 19.2475L22.9607 16.4221L24.8283 13.6925C24.8283 13.6925 26.696 7.65852 27.7016 7.17964C28.7552 6.70075 29.713 6.60497 30.8144 7.37119C31.9158 8.1374 34.0708 7.03597 35.699 5.93454C37.3272 4.8331 41.3498 3.2049 44.7499 5.2641C48.15 7.3233 49.443 8.42473 49.443 8.42473C49.443 8.42473 52.3642 6.46131 54.136 6.79653C55.86 7.13175 57.2009 9.19095 57.2967 10.0529C57.3924 10.9149 59.1643 16.039 60.0263 15.9911C58.1586 18.0024 55.429 18.0982 53.4656 16.901C51.5022 15.7038 51.5979 17.2362 51.5979 17.2362C51.5979 17.2362 50.1613 22.456 49.1077 23.2222C48.0063 23.9885 46.7133 24.7547 46.7133 24.7547L48.15 14.2671L32.3468 14.4587Z" fill="#FFF3CF"/>
<path d="M49.5858 31.2671C49.5858 31.2671 47.3829 29.0642 45.228 27.867C43.0251 26.6698 40.6307 26.9093 39.7687 27.5318C38.9067 28.2023 36.0813 26.0952 35.1714 26.6698C34.3094 27.1966 31.3403 33.9968 31.3403 33.9968L47.9097 35.0982L49.5858 31.2671Z" fill="#FFF3CF"/>
<path d="M65.9162 1.14551H15.1545V35.0505H65.9162V1.14551Z" stroke="#5C4500" stroke-width="1.95936" stroke-miterlimit="10" stroke-linecap="round" stroke-linejoin="round"/>
<path d="M43.7437 23.5571C41.445 24.9937 36.9435 24.85 35.2195 22.0725C33.4956 19.295 33.9265 16.6611 33.9265 16.6611" stroke="#5C4500" stroke-width="1.95936" stroke-miterlimit="10" stroke-linecap="round" stroke-linejoin="round"/>
<path d="M35.4113 10.1006C35.4113 10.1006 34.9324 12.6387 37.2311 14.1232" stroke="#5C4500" stroke-width="1.95936" stroke-miterlimit="10" stroke-linecap="round" stroke-linejoin="round"/>
<path d="M39.051 9.76562C39.051 9.76562 39.4341 13.884 42.6905 14.5066" stroke="#5C4500" stroke-width="1.95936" stroke-miterlimit="10" stroke-linecap="round" stroke-linejoin="round"/>
<path d="M43.3135 9.76562C43.3135 9.76562 43.6966 13.884 46.953 14.5066" stroke="#5C4500" stroke-width="1.95936" stroke-miterlimit="10" stroke-linecap="round" stroke-linejoin="round"/>
<path d="M47.3353 12.064C47.3353 12.064 49.3945 21.929 45.9465 25.9516" stroke="#5C4500" stroke-width="1.95936" stroke-miterlimit="10" stroke-linecap="round" stroke-linejoin="round"/>
<path d="M50.9272 20.0611C52.5554 16.9004 51.7892 8.61575 46.6651 5.69456C42.9298 3.53959 37.5185 4.49735 35.8424 5.5509C34.1184 6.65233 30.8141 9.76508 31.6761 14.8891" stroke="#5C4500" stroke-width="1.95936" stroke-miterlimit="10" stroke-linecap="round" stroke-linejoin="round"/>
<path d="M50.2092 8.28163C50.2092 8.28163 52.6515 5.59989 55.4291 7.1802C58.2066 8.76052 57.9671 16.5184 60.0742 16.0395C57.6319 20.0622 53.8487 17.2368 53.8487 17.2368" stroke="#5C4500" stroke-width="1.95936" stroke-miterlimit="10" stroke-linecap="round" stroke-linejoin="round"/>
<path d="M32.969 8.28163C32.969 8.28163 30.5267 5.59989 27.7492 7.1802C24.9716 8.76052 25.2111 16.5184 23.104 16.0396C23.535 16.7579 24.0139 17.2368 24.4928 17.572" stroke="#5C4500" stroke-width="1.95936" stroke-miterlimit="10" stroke-linecap="round" stroke-linejoin="round"/>
<path d="M30.0961 25.4726L28.3721 25.3769C25.9298 25.2332 24.3974 24.898 23.679 23.5571C23.0565 22.4078 23.4396 21.019 24.541 20.3486C25.2594 19.9176 26.1213 19.9655 26.7918 20.3007C26.7439 19.5345 27.0791 18.7683 27.7496 18.2894C28.8031 17.5232 30.2876 17.7626 31.006 18.8162C31.868 20.0613 31.5327 21.5937 30.6707 23.8444L30.0961 25.4726Z" stroke="#5C4500" stroke-width="1.95936" stroke-linecap="round" stroke-linejoin="round"/>
<path d="M30.2876 25.3286L34.406 29.3033" stroke="#5C4500" stroke-width="1.95936" stroke-linecap="round" stroke-linejoin="round"/>
<path d="M48.4375 24.6104C48.4375 24.6104 50.353 26.3822 50.2094 29.2076C50.1615 30.4048 49.6826 31.2668 49.2516 31.8894" stroke="#5C4500" stroke-width="1.95936" stroke-linecap="round" stroke-linejoin="round"/>
<path d="M35.6033 26.9578C36.3695 26.6226 37.2794 26.7184 38.285 27.6283C39.2907 28.5382 40.9668 26.1916 43.2175 26.8621C45.4683 27.5325 45.8035 28.8734 45.8035 28.8734" stroke="#5C4500" stroke-width="1.95936" stroke-linecap="round" stroke-linejoin="round"/>
<path d="M69.1892 11.2204L67.6089 12.4655L65.9328 11.3641C63.5863 9.78377 62.1975 8.53867 62.1975 6.7668C62.1975 5.23437 63.4426 4.03717 64.975 4.03717C65.9328 4.03717 66.7948 4.56394 67.2737 5.33015C67.7047 4.51605 68.4709 3.94139 69.4287 3.84561C70.9132 3.70195 72.2541 4.80338 72.4456 6.28792C72.5414 7.43724 72.0625 8.39501 71.1048 9.44855" fill="#EE4949"/>
<path d="M69.1892 11.2204L67.6089 12.4655L65.9328 11.3641C63.5863 9.78377 62.1975 8.53867 62.1975 6.7668C62.1975 5.23437 63.4426 4.03717 64.975 4.03717C65.9328 4.03717 66.7948 4.56394 67.2737 5.33015C67.7047 4.51605 68.4709 3.94139 69.4287 3.84561C70.9132 3.70195 72.2541 4.80338 72.4456 6.28792C72.5414 7.43724 72.0625 8.39501 71.1048 9.44855" stroke="#5C4500" stroke-width="1.95936" stroke-linecap="round" stroke-linejoin="round"/>
<path d="M15.7496 12.2987C17.3299 11.6762 18.4314 10.1438 18.4314 8.27611C18.4314 5.88169 15.9412 2.38584 12.3974 4.06194C11.8228 2.43373 10.1467 1.61963 8.32692 1.61963C5.98039 1.61963 4.11274 3.53516 4.11274 5.92958C4.11274 6.16902 3.82541 6.16902 3.8733 6.36058C2.05354 6.83946 1 8.70711 1 10.7184C1 13.1128 2.67609 15.4594 5.02262 15.4594C5.5494 15.4594 6.07617 15.3636 6.50716 15.172C7.03393 16.896 8.85369 17.7101 10.7213 17.7101C12.6369 17.7101 14.2651 16.3692 14.7918 14.5974C15.7496 14.741 16.851 14.9326 18.2398 14.741C17.5215 14.8368 16.5637 13.4481 15.7496 12.2987Z" fill="white" stroke="#5C4500" stroke-width="1.95936" stroke-miterlimit="10" stroke-linecap="round" stroke-linejoin="round"/>
<path d="M9.81152 6.64795V10.0959" stroke="#5C4500" stroke-width="1.95936" stroke-miterlimit="10" stroke-linecap="round" stroke-linejoin="round"/>
<path d="M9.85987 13.6401C10.3888 13.6401 10.8176 13.2113 10.8176 12.6824C10.8176 12.1534 10.3888 11.7246 9.85987 11.7246C9.33091 11.7246 8.9021 12.1534 8.9021 12.6824C8.9021 13.2113 9.33091 13.6401 9.85987 13.6401Z" fill="#5C4500"/>
<path d="M22.8456 25.8751L18.7272 25.3483C17.1947 23.1934 14.5609 22.1877 11.7355 22.7145C7.85651 23.3849 5.27054 27.0723 5.94098 30.9513C6.61141 34.8302 10.2988 37.4162 14.1778 36.7458C17.8173 36.1232 20.3554 33.1063 20.1159 29.4667L22.8456 25.8751Z" fill="#FCD842" stroke="#5C4500" stroke-width="1.95936" stroke-miterlimit="10" stroke-linecap="round" stroke-linejoin="round"/>
<path d="M11.0176 27.743C11.0176 27.743 11.3049 26.3542 13.1247 26.4021C14.7529 26.45 15.3275 26.7852 15.3275 28.2697C15.3275 29.7064 13.2204 29.7543 13.2204 29.7543V30.3289" stroke="#5C4500" stroke-width="1.95936" stroke-miterlimit="10" stroke-linecap="round" stroke-linejoin="round"/>
<path d="M13.2195 33.729C13.7484 33.729 14.1773 33.3002 14.1773 32.7712C14.1773 32.2423 13.7484 31.8135 13.2195 31.8135C12.6905 31.8135 12.2617 32.2423 12.2617 32.7712C12.2617 33.3002 12.6905 33.729 13.2195 33.729Z" fill="#5C4500"/>
</svg>
