<svg width="57" height="27" viewBox="0 0 57 27" fill="none" xmlns="http://www.w3.org/2000/svg">
<path d="M8.25209 17.4543C11.2668 19.5214 15.3865 18.7533 17.4537 15.7385C19.5209 12.7238 18.7527 8.60405 15.738 6.53689C12.7232 4.46972 8.60352 5.23788 6.53635 8.25263C4.46918 11.2674 5.23734 15.3871 8.25209 17.4543Z" fill="#EEEEEE"/>
<path d="M18.2489 13.617C19.0484 10.9824 18.0994 8.02471 15.708 6.38493C12.7535 4.35907 8.71612 5.11189 6.69027 8.06638C5.02284 10.4981 5.23782 13.6635 7.01348 15.8371C7.39518 16.3043 7.84898 16.7257 8.37171 17.0841C9.96838 18.1789 11.8813 18.4622 13.6221 18.025C14.2773 17.8605 14.9082 17.5939 15.4886 17.23" stroke="#5C4500" stroke-width="3.16" stroke-linecap="round"/>
<line x1="41.2285" y1="11.5855" x2="43.3462" y2="13.4778" stroke="#5C4500" stroke-width="3.16" stroke-linecap="round"/>
<line x1="47.9399" y1="17.5826" x2="50.0577" y2="19.4748" stroke="#5C4500" stroke-width="3.16" stroke-linecap="round"/>
<line x1="49.5942" y1="11.229" x2="47.7019" y2="13.3467" stroke="#5C4500" stroke-width="3.16" stroke-linecap="round"/>
<line x1="43.5971" y1="17.9399" x2="41.7048" y2="20.0577" stroke="#5C4500" stroke-width="3.16" stroke-linecap="round"/>
</svg>
