<svg width="197" height="82" viewBox="0 0 197 82" fill="none" xmlns="http://www.w3.org/2000/svg">
<g filter="url(#filter0_d)">
<path fill-rule="evenodd" clip-rule="evenodd" d="M154.474 19C153.534 14.2702 156 7 156 7C156 7 145.296 13.1393 133.936 19H34.7247C19.965 19 8 30.965 8 45.7247C8 60.4843 19.965 72.4493 34.7247 72.4493H162.275C177.035 72.4493 189 60.4843 189 45.7247C189 30.965 177.035 19 162.275 19H154.474Z" fill="white"/>
<path d="M44.2336 48.2746C44.2336 49.6464 44.0109 50.6798 43.5654 51.3746C43.12 52.0695 42.4163 52.5149 41.4542 52.7109C41.0266 52.7821 40.6346 52.6841 40.2783 52.4169C39.922 52.1496 39.6904 51.7933 39.5835 51.3479L39.3429 50.3591C39.3251 50.3591 39.3073 50.368 39.2895 50.3858V55.8376C39.2895 56.2474 39.1381 56.6037 38.8352 56.9066C38.5323 57.2095 38.176 57.3609 37.7662 57.3609H36.5369C36.1271 57.3609 35.7707 57.2095 35.4679 56.9066C35.165 56.6037 35.0135 56.2474 35.0135 55.8376V34.832C35.0135 34.4223 35.165 34.0659 35.4679 33.7631C35.7707 33.4602 36.1271 33.3087 36.5369 33.3087H42.5766C42.9864 33.3087 43.3427 33.4602 43.6456 33.7631C43.9485 34.0659 44.0999 34.4223 44.0999 34.832V36.195C44.0999 37.1571 43.9752 38.1548 43.7258 39.1882C43.316 40.8095 43.022 41.9319 42.8439 42.5555C42.7904 42.7158 42.7993 42.8584 42.8706 42.9831C43.7792 44.5331 44.2336 46.2969 44.2336 48.2746ZM39.53 49.0496C39.7973 48.9961 39.9754 48.8536 40.0645 48.622C40.1714 48.3725 40.2249 47.945 40.2249 47.3392C40.2249 46.3237 39.9576 45.3972 39.4231 44.5598C39.4053 44.5242 39.3786 44.5153 39.3429 44.5331C39.3073 44.5509 39.2895 44.5776 39.2895 44.6133V48.8358C39.2895 49.0139 39.3697 49.0852 39.53 49.0496ZM40.3852 37.1571C40.4208 36.9967 40.3585 36.9166 40.1981 36.9166H39.53C39.3697 36.9166 39.2895 36.9967 39.2895 37.1571V40.8985C39.2895 40.9164 39.2984 40.9253 39.3162 40.9253C39.3519 40.9253 39.3697 40.9164 39.3697 40.8985C39.726 39.7761 40.0645 38.529 40.3852 37.1571ZM58.3442 52.5238C58.7005 52.7732 58.9321 53.1028 59.039 53.5126C59.1637 53.9224 59.1459 54.3321 58.9856 54.7419L58.4778 55.9713C58.3175 56.3454 58.0413 56.6127 57.6493 56.773C57.2574 56.9333 56.8832 56.9066 56.5269 56.6928C55.1016 55.8198 53.8812 54.5638 52.8656 52.9246C52.8478 52.889 52.8211 52.8712 52.7855 52.8712C52.7498 52.8712 52.732 52.889 52.732 52.9246L52.8122 54.2342C52.83 54.6796 52.7053 55.0715 52.438 55.41C52.1886 55.7664 51.8501 55.9891 51.4225 56.0782C48.9104 56.5948 46.5586 56.9423 44.3672 57.1204C43.9574 57.1561 43.6011 57.0313 43.2982 56.7463C42.9953 56.479 42.8261 56.1316 42.7904 55.704L42.7103 54.7419C42.6924 54.3321 42.8172 53.9669 43.0844 53.6462C43.3695 53.3255 43.7169 53.1474 44.1267 53.1117C44.1623 53.1117 44.2068 53.1117 44.2603 53.1117C44.3315 53.0939 44.385 53.085 44.4206 53.085C44.5632 53.085 44.6344 53.0048 44.6344 52.8445V34.832C44.6344 34.4223 44.7859 34.0659 45.0887 33.7631C45.3916 33.4602 45.748 33.3087 46.1577 33.3087H56.8743C57.2841 33.3087 57.6404 33.4602 57.9433 33.7631C58.2462 34.0659 58.3976 34.4223 58.3976 34.832V45.6823C58.3976 46.092 58.2462 46.4484 57.9433 46.7512C57.6404 47.0541 57.2841 47.2056 56.8743 47.2056H54.9769C54.8343 47.2056 54.7809 47.2857 54.8165 47.4461C54.9234 47.8024 55.0749 48.2033 55.2708 48.6487C55.3243 48.7734 55.4134 48.7912 55.5381 48.7022C55.5915 48.6665 55.6895 48.5953 55.8321 48.4884C55.9746 48.3815 56.0726 48.3102 56.126 48.2746C56.4645 48.0251 56.8387 47.9271 57.2485 47.9806C57.6583 48.034 57.9789 48.23 58.2106 48.5685L58.5847 49.0496C58.8341 49.4059 58.9321 49.789 58.8787 50.1987C58.8252 50.6085 58.6292 50.947 58.2907 51.2143C58.2195 51.2677 58.1126 51.3479 57.97 51.4548C57.8453 51.5617 57.7473 51.6419 57.6761 51.6953C57.5692 51.7844 57.5692 51.8824 57.6761 51.9893C57.9611 52.2387 58.1838 52.4169 58.3442 52.5238ZM52.0906 51.9893C52.2153 51.9537 52.251 51.8824 52.1975 51.7755C51.5561 50.5462 51.0394 49.0941 50.6475 47.4194C50.6118 47.2768 50.5228 47.2056 50.3802 47.2056H49.525C49.3825 47.2056 49.3112 47.2768 49.3112 47.4194V52.2565C49.3112 52.4347 49.3914 52.506 49.5518 52.4703C49.7299 52.4347 50.5762 52.2743 52.0906 51.9893ZM53.5872 43.2236V42.0744C53.5872 41.9319 53.507 41.8606 53.3467 41.8606H49.525C49.3825 41.8606 49.3112 41.9319 49.3112 42.0744V43.2236C49.3112 43.3839 49.3825 43.4641 49.525 43.4641H53.3467C53.507 43.4641 53.5872 43.3839 53.5872 43.2236ZM53.5872 38.5468V37.4243C53.5872 37.264 53.507 37.1838 53.3467 37.1838H49.525C49.3825 37.1838 49.3112 37.264 49.3112 37.4243V38.5468C49.3112 38.7071 49.3825 38.7873 49.525 38.7873H53.3467C53.507 38.7873 53.5872 38.7071 53.5872 38.5468ZM84.5076 53.085C84.9174 53.085 85.2648 53.2364 85.5499 53.5393C85.835 53.8422 85.9597 54.1985 85.924 54.6083L85.8706 55.704C85.8528 56.1316 85.6835 56.4879 85.3628 56.773C85.0421 57.0759 84.668 57.2273 84.2404 57.2273H84.0266C79.3231 57.2273 75.7152 56.9155 73.2031 56.292C70.691 55.6684 68.6688 54.537 67.1366 52.8979C67.0297 52.791 66.9584 52.8088 66.9228 52.9514C66.5308 54.0738 66.1122 55.1695 65.6667 56.2385C65.5064 56.6305 65.2213 56.9066 64.8116 57.067C64.4196 57.2273 64.0276 57.2273 63.6357 57.067L62.1925 56.4523C61.8006 56.292 61.5244 56.0247 61.3641 55.6506C61.2037 55.2764 61.2037 54.8934 61.3641 54.5014C62.344 52.0249 63.1903 49.3614 63.9029 46.5107C63.992 46.1188 64.2147 45.807 64.571 45.5754C64.9452 45.3437 65.3371 45.2725 65.7469 45.3616L67.2969 45.709C67.7067 45.7981 68.0274 46.0119 68.259 46.3504C68.4907 46.6889 68.5619 47.063 68.4728 47.4728C68.4728 47.5263 68.455 47.6153 68.4194 47.7401C68.3838 47.847 68.3659 47.9271 68.3659 47.9806C68.3303 48.1053 68.357 48.2389 68.4461 48.3815C69.3013 49.7711 70.2901 50.7689 71.4125 51.3746C71.4482 51.4103 71.4838 51.4192 71.5194 51.4013C71.5729 51.3657 71.5996 51.3212 71.5996 51.2677V44.2124C71.5996 44.0699 71.5194 43.9986 71.3591 43.9986H66.3081C65.8984 43.9986 65.542 43.8472 65.2391 43.5443C64.9363 43.2414 64.7848 42.8851 64.7848 42.4753V42.3417C64.7848 42.1991 64.7136 42.1279 64.571 42.1279H63.3684C62.9586 42.1279 62.6023 41.9764 62.2994 41.6736C61.9966 41.3707 61.8451 41.0144 61.8451 40.6046V36.3019C61.8451 35.8921 61.9966 35.5358 62.2994 35.2329C62.6023 34.93 62.9586 34.7786 63.3684 34.7786H70.8246C70.985 34.7786 71.0651 34.6984 71.0651 34.5381V34.0303C71.0651 33.6205 71.2166 33.2642 71.5194 32.9613C71.8223 32.6584 72.1787 32.507 72.5884 32.507H74.6195C75.0293 32.507 75.3856 32.6584 75.6885 32.9613C75.9914 33.2642 76.1428 33.6205 76.1428 34.0303V34.5381C76.1428 34.6984 76.223 34.7786 76.3833 34.7786H83.8395C84.2493 34.7786 84.6056 34.93 84.9085 35.2329C85.2114 35.5358 85.3628 35.8921 85.3628 36.3019V40.6046C85.3628 41.0144 85.2114 41.3707 84.9085 41.6736C84.6056 41.9764 84.2493 42.1279 83.8395 42.1279H82.6636C82.5033 42.1279 82.4231 42.1991 82.4231 42.3417V42.4753C82.4231 42.8851 82.2717 43.2414 81.9688 43.5443C81.6659 43.8472 81.3096 43.9986 80.8998 43.9986H76.9178C76.7575 43.9986 76.6773 44.0699 76.6773 44.2124V45.8961C76.6773 46.0564 76.7575 46.1366 76.9178 46.1366H82.236C82.6458 46.1366 83.0021 46.288 83.305 46.5909C83.6079 46.8938 83.7593 47.2501 83.7593 47.6599V48.4884C83.7593 48.8981 83.6079 49.2545 83.305 49.5573C83.0021 49.8602 82.6458 50.0117 82.236 50.0117H76.9178C76.7575 50.0117 76.6773 50.0918 76.6773 50.2522V52.5505C76.6773 52.7287 76.7575 52.8177 76.9178 52.8177C78.7173 52.9959 81.0869 53.085 84.0266 53.085H84.5076ZM66.6288 40.1235H80.6058C80.7484 40.1235 80.8196 40.0434 80.8196 39.883V38.8675C80.8196 38.7249 80.7484 38.6537 80.6058 38.6537H66.6288C66.4685 38.6537 66.3883 38.7249 66.3883 38.8675V39.883C66.3883 40.0434 66.4685 40.1235 66.6288 40.1235ZM111.045 37.9856C111.455 37.9856 111.811 38.137 112.114 38.4399C112.417 38.7428 112.569 39.0991 112.569 39.5089V40.9253C112.569 47.945 112.399 52.3456 112.061 54.1273C111.794 55.5526 111.286 56.4167 110.537 56.7196C110.163 56.8799 109.504 56.9601 108.56 56.9601C108.097 56.9601 107.348 56.9155 106.315 56.8265C105.887 56.7908 105.522 56.6127 105.219 56.292C104.934 55.9713 104.783 55.5971 104.765 55.1695L104.738 53.7531C104.738 53.7353 104.72 53.7264 104.685 53.7264C104.667 53.7264 104.649 53.7353 104.631 53.7531C104.328 54.5192 103.936 55.3388 103.455 56.2118C103.259 56.5681 102.957 56.7819 102.547 56.8532C102.155 56.9244 101.798 56.8354 101.478 56.5859L101.077 56.2652C100.952 56.1761 100.828 56.1761 100.703 56.2652C100.471 56.4434 100.213 56.5414 99.9278 56.5592C97.1128 56.773 93.5851 56.9779 89.3448 57.1739C88.9172 57.1917 88.552 57.0581 88.2491 56.773C87.9462 56.4879 87.777 56.1405 87.7413 55.7307L87.6879 55.2764C87.6522 54.8666 87.768 54.5103 88.0353 54.2074C88.3204 53.8867 88.6678 53.7175 89.0776 53.6997C90.5741 53.664 91.6966 53.6284 92.4449 53.5928C92.5874 53.5928 92.6587 53.5126 92.6587 53.3522V52.9246C92.6587 52.7643 92.5785 52.6841 92.4181 52.6841H89.4517C89.0597 52.6841 88.7123 52.5416 88.4094 52.2565C88.1244 51.9537 87.9818 51.6062 87.9818 51.2143C87.9818 50.8223 88.1244 50.4838 88.4094 50.1987C88.7123 49.8959 89.0597 49.7444 89.4517 49.7444H92.4181C92.5785 49.7444 92.6587 49.6731 92.6587 49.5306V49.1832C92.6587 49.0228 92.5785 48.9427 92.4181 48.9427H91.8569H89.906C89.4962 48.9427 89.1399 48.7912 88.837 48.4884C88.5342 48.1855 88.3827 47.8291 88.3827 47.4194V42.7158C88.3827 42.306 88.5342 41.9497 88.837 41.6468C89.1399 41.344 89.4962 41.1925 89.906 41.1925H92.4181C92.5785 41.1925 92.6587 41.1213 92.6587 40.9787V40.6313C92.6587 40.471 92.5785 40.3908 92.4181 40.3908H89.3181C88.9083 40.3908 88.5609 40.2482 88.2758 39.9632C87.9908 39.6603 87.8482 39.3129 87.8482 38.9209C87.8482 38.529 87.9908 38.1904 88.2758 37.9054C88.5609 37.6025 88.9083 37.4511 89.3181 37.4511H92.4181C92.5785 37.4511 92.6587 37.3709 92.6587 37.2105V36.8097C92.6587 36.6671 92.5874 36.5959 92.4449 36.5959C91.2512 36.6671 90.4049 36.7117 89.906 36.7295C89.4784 36.7473 89.1043 36.6226 88.7836 36.3554C88.4629 36.0703 88.2847 35.714 88.2491 35.2864V35.2329C88.2135 34.8231 88.3293 34.4668 88.5965 34.1639C88.8638 33.8432 89.2023 33.6651 89.612 33.6294C92.7656 33.4691 96.0794 33.2018 99.5536 32.8277C99.9634 32.7921 100.338 32.899 100.676 33.1484C101.015 33.3978 101.211 33.7274 101.264 34.1372L101.291 34.351C101.344 34.7608 101.237 35.1349 100.97 35.4734C100.703 35.7941 100.364 35.9723 99.9545 36.0079C99.6694 36.0436 99.2597 36.0881 98.7252 36.1416C98.1907 36.1772 97.7987 36.2039 97.5493 36.2217C97.4067 36.2217 97.3355 36.3019 97.3355 36.4623V37.2105C97.3355 37.3709 97.4157 37.4511 97.576 37.4511H99.8743C100.427 37.4511 100.845 37.6827 101.13 38.1459C101.184 38.2528 101.273 38.2706 101.398 38.1994C101.647 38.0568 101.914 37.9856 102.199 37.9856H102.787C102.948 37.9856 103.028 37.9143 103.028 37.7718C103.063 36.2752 103.081 35.0726 103.081 34.1639C103.081 33.7542 103.233 33.3978 103.536 33.0949C103.838 32.7921 104.195 32.6406 104.605 32.6406H105.567C105.976 32.6406 106.333 32.7921 106.636 33.0949C106.939 33.3978 107.09 33.7542 107.09 34.1639C107.09 35.0548 107.072 36.2485 107.037 37.745C107.037 37.9054 107.108 37.9856 107.25 37.9856H111.045ZM97.0682 43.571V44.0521C97.0682 44.1946 97.1484 44.2659 97.3088 44.2659H97.8967C98.057 44.2659 98.1372 44.1946 98.1372 44.0521V43.571C98.1372 43.4107 98.057 43.3305 97.8967 43.3305H97.3088C97.1484 43.3305 97.0682 43.4107 97.0682 43.571ZM92.9259 46.5642V46.0831C92.9259 45.9406 92.8457 45.8693 92.6854 45.8693H92.0707C91.9282 45.8693 91.8569 45.9406 91.8569 46.0831V46.5642C91.8569 46.7245 91.9282 46.8047 92.0707 46.8047H92.6854C92.8457 46.8047 92.9259 46.7245 92.9259 46.5642ZM92.9259 44.0521V43.571C92.9259 43.4107 92.8457 43.3305 92.6854 43.3305H92.0707C91.9282 43.3305 91.8569 43.4107 91.8569 43.571V44.0521C91.8569 44.1946 91.9282 44.2659 92.0707 44.2659H92.6854C92.8457 44.2659 92.9259 44.1946 92.9259 44.0521ZM97.0682 46.5642C97.0682 46.7245 97.1484 46.8047 97.3088 46.8047H97.8967C98.057 46.8047 98.1372 46.7245 98.1372 46.5642V46.0831C98.1372 45.9406 98.057 45.8693 97.8967 45.8693H97.3088C97.1484 45.8693 97.0682 45.9406 97.0682 46.0831V46.5642ZM100.382 53.1919C101.665 50.6798 102.476 47.0274 102.814 42.2348C102.814 42.0744 102.743 41.9943 102.6 41.9943H102.199C101.79 41.9943 101.433 41.8428 101.13 41.5399C100.828 41.2371 100.676 40.8807 100.676 40.471V40.3908C100.676 40.3373 100.649 40.3017 100.596 40.2839C100.56 40.2482 100.525 40.2393 100.489 40.2572C100.275 40.3462 100.07 40.3908 99.8743 40.3908H97.576C97.4157 40.3908 97.3355 40.462 97.3355 40.6046V40.952C97.3355 41.1123 97.4157 41.1925 97.576 41.1925H99.8209C100.231 41.1925 100.587 41.344 100.89 41.6468C101.193 41.9497 101.344 42.306 101.344 42.7158V47.4194C101.344 47.8291 101.193 48.1855 100.89 48.4884C100.587 48.7912 100.231 48.9427 99.8209 48.9427H97.576C97.4157 48.9427 97.3355 49.0139 97.3355 49.1565V49.5039C97.3355 49.6642 97.4157 49.7444 97.576 49.7444H99.4735C99.8832 49.7444 100.231 49.8959 100.516 50.1987C100.801 50.4838 100.943 50.8223 100.943 51.2143C100.943 51.6062 100.801 51.9537 100.516 52.2565C100.231 52.5416 99.8832 52.6841 99.4735 52.6841H97.576C97.4157 52.6841 97.3355 52.7643 97.3355 52.9246V53.1652C97.3355 53.3255 97.4157 53.4057 97.576 53.4057C97.8432 53.3879 98.2174 53.3701 98.6984 53.3522C99.1795 53.3166 99.518 53.2988 99.714 53.2988C99.8743 53.2988 99.9901 53.3077 100.061 53.3255C100.204 53.3612 100.311 53.3166 100.382 53.1919ZM107.892 44.5331V42.2348C107.892 42.0744 107.812 41.9943 107.651 41.9943H107.063C106.903 41.9943 106.823 42.0655 106.823 42.2081C106.538 46.3593 105.985 49.7088 105.166 52.2565C105.13 52.3991 105.184 52.4881 105.326 52.5238C106.039 52.6307 106.582 52.6841 106.956 52.6841C107.152 52.6841 107.295 52.6129 107.384 52.4703C107.491 52.3278 107.58 51.9893 107.651 51.4548C107.74 50.9025 107.803 50.0829 107.838 48.9961C107.874 47.8915 107.892 46.4038 107.892 44.5331ZM137.583 33.3087C137.993 33.3087 138.349 33.4602 138.652 33.7631C138.955 34.0659 139.106 34.4223 139.106 34.832V35.7941C139.106 36.2039 138.955 36.5602 138.652 36.8631C138.349 37.166 137.993 37.3174 137.583 37.3174H129.191C129.031 37.3174 128.951 37.3976 128.951 37.558V38.4399C128.951 38.5824 129.031 38.6537 129.191 38.6537H131.971C132.38 38.6537 132.737 38.8051 133.04 39.108C133.343 39.4109 133.494 39.7672 133.494 40.177V49.9582C133.494 50.368 133.343 50.7243 133.04 51.0272C132.737 51.3301 132.38 51.4815 131.971 51.4815H123.606H121.655C121.245 51.4815 120.889 51.3301 120.586 51.0272C120.283 50.7243 120.132 50.368 120.132 49.9582V40.177C120.132 39.7672 120.283 39.4109 120.586 39.108C120.889 38.8051 121.245 38.6537 121.655 38.6537H124.434C124.595 38.6537 124.675 38.5824 124.675 38.4399V37.558C124.675 37.3976 124.595 37.3174 124.434 37.3174H116.043C115.633 37.3174 115.277 37.166 114.974 36.8631C114.671 36.5602 114.519 36.2039 114.519 35.7941V34.832C114.519 34.4223 114.671 34.0659 114.974 33.7631C115.277 33.4602 115.633 33.3087 116.043 33.3087L137.583 33.3087ZM124.675 48.034V46.6176C124.675 46.4751 124.595 46.4038 124.434 46.4038H123.82C123.677 46.4038 123.606 46.4751 123.606 46.6176V48.034C123.606 48.1944 123.677 48.2746 123.82 48.2746H124.434C124.595 48.2746 124.675 48.1944 124.675 48.034ZM124.675 43.5176V42.1012C124.675 41.9408 124.595 41.8606 124.434 41.8606H123.82C123.677 41.8606 123.606 41.9408 123.606 42.1012V43.5176C123.606 43.6601 123.677 43.7314 123.82 43.7314H124.434C124.595 43.7314 124.675 43.6601 124.675 43.5176ZM130.02 48.034V46.6176C130.02 46.4751 129.94 46.4038 129.779 46.4038H129.191C129.031 46.4038 128.951 46.4751 128.951 46.6176V48.034C128.951 48.1944 129.031 48.2746 129.191 48.2746H129.779C129.94 48.2746 130.02 48.1944 130.02 48.034ZM129.191 41.8606C129.031 41.8606 128.951 41.9408 128.951 42.1012V43.5176C128.951 43.6601 129.031 43.7314 129.191 43.7314H129.779C129.94 43.7314 130.02 43.6601 130.02 43.5176V42.1012C130.02 41.9408 129.94 41.8606 129.779 41.8606H129.191ZM137.182 39.4554C137.592 39.4554 137.948 39.6069 138.251 39.9097C138.554 40.2126 138.705 40.5689 138.705 40.9787V55.5704C138.705 55.9802 138.554 56.3365 138.251 56.6394C137.948 56.9423 137.592 57.0937 137.182 57.0937H135.231C134.982 57.0937 134.759 56.9957 134.563 56.7997C134.385 56.6216 134.296 56.4078 134.296 56.1583C134.296 56.0693 134.251 56.0247 134.162 56.0247H119.464C119.374 56.0247 119.33 56.0693 119.33 56.1583C119.33 56.4078 119.232 56.6216 119.036 56.7997C118.858 56.9957 118.644 57.0937 118.395 57.0937H116.444C116.034 57.0937 115.678 56.9423 115.375 56.6394C115.072 56.3365 114.92 55.9802 114.92 55.5704V40.9787C114.92 40.5689 115.072 40.2126 115.375 39.9097C115.678 39.6069 116.034 39.4554 116.444 39.4554H117.807C118.216 39.4554 118.573 39.6069 118.876 39.9097C119.178 40.2126 119.33 40.5689 119.33 40.9787V52.1764C119.33 52.3367 119.41 52.4169 119.57 52.4169H134.082C134.224 52.4169 134.296 52.3367 134.296 52.1764V40.9787C134.296 40.5689 134.447 40.2126 134.75 39.9097C135.053 39.6069 135.409 39.4554 135.819 39.4554H137.182ZM157.947 49.8399C158.062 50.5016 158.119 51.0361 158.119 51.4433C158.119 53.0468 157.616 54.2113 156.611 54.9366C155.618 55.662 153.957 56.0247 151.629 56.0247C149.351 56.0247 147.76 55.6302 146.856 54.8412C145.965 54.0649 145.52 52.6778 145.52 50.6798C145.52 49.9798 145.526 49.4263 145.539 49.019C145.539 48.9172 145.488 48.8663 145.386 48.8663H142.79C142.498 48.8663 142.243 48.7581 142.027 48.5418C141.81 48.3255 141.702 48.0709 141.702 47.7782V46.9001C141.702 46.6074 141.81 46.3529 142.027 46.1366C142.243 45.9202 142.498 45.8121 142.79 45.8121H145.52C145.622 45.8121 145.673 45.7612 145.673 45.6594C145.673 45.5448 145.679 45.3603 145.692 45.1058C145.717 44.8513 145.736 44.6604 145.749 44.5331C145.749 44.4313 145.698 44.3804 145.596 44.3804H143.363C143.07 44.3804 142.816 44.2722 142.599 44.0559C142.383 43.8395 142.275 43.585 142.275 43.2923V42.4142C142.275 42.1215 142.383 41.867 142.599 41.6507C142.816 41.4343 143.07 41.3261 143.363 41.3261H145.787C145.902 41.3261 145.959 41.2752 145.959 41.1734L146.016 40.4862C146.029 40.1808 146.15 39.9263 146.379 39.7227C146.608 39.519 146.875 39.4236 147.181 39.4363L148.632 39.4936C148.924 39.5063 149.166 39.6209 149.357 39.8372C149.561 40.0535 149.656 40.3081 149.643 40.6008L149.586 41.1734C149.586 41.2752 149.637 41.3261 149.739 41.3261H154.549C154.842 41.3261 155.096 41.4343 155.313 41.6507C155.529 41.867 155.637 42.1215 155.637 42.4142V43.2923C155.637 43.585 155.529 43.8395 155.313 44.0559C155.096 44.2722 154.842 44.3804 154.549 44.3804H149.548C149.433 44.3804 149.376 44.4313 149.376 44.5331C149.363 44.7876 149.344 45.1567 149.319 45.6403C149.319 45.7548 149.37 45.8121 149.471 45.8121H153.022C153.315 45.8121 153.569 45.9202 153.786 46.1366C154.002 46.3529 154.11 46.6074 154.11 46.9001V47.7782C154.11 48.0709 154.002 48.3255 153.786 48.5418C153.569 48.7581 153.315 48.8663 153.022 48.8663H149.338C149.223 48.8663 149.166 48.9172 149.166 49.019C149.153 49.4263 149.147 49.9798 149.147 50.6798C149.147 51.596 149.287 52.1751 149.567 52.4169C149.86 52.6587 150.547 52.7796 151.629 52.7796C152.545 52.7796 153.213 52.735 153.633 52.6459C154.053 52.5441 154.333 52.3914 154.473 52.1878C154.613 51.9715 154.683 51.6279 154.683 51.157C154.683 51.0425 154.664 50.8579 154.626 50.6034C154.575 50.298 154.626 50.018 154.778 49.7635C154.931 49.509 155.154 49.3499 155.446 49.2863L156.687 49.019C156.98 48.9554 157.247 49.0063 157.489 49.1717C157.743 49.3245 157.896 49.5472 157.947 49.8399ZM164.685 40.7535C164.978 40.7535 165.226 40.8616 165.43 41.078C165.646 41.2943 165.742 41.5488 165.716 41.8415L165.258 49.019C165.245 49.3245 165.125 49.5853 164.895 49.8017C164.679 50.0053 164.418 50.1071 164.113 50.1071H162.853C162.547 50.1071 162.287 50.0053 162.07 49.8017C161.854 49.5853 161.733 49.3245 161.708 49.019L161.249 41.8415C161.237 41.5488 161.332 41.2943 161.536 41.078C161.739 40.8616 161.988 40.7535 162.28 40.7535H164.685ZM164.304 51.6342C164.596 51.6342 164.851 51.7424 165.067 51.9587C165.284 52.1751 165.392 52.4296 165.392 52.7223V53.6004C165.392 53.8931 165.284 54.1476 165.067 54.364C164.851 54.5803 164.596 54.6885 164.304 54.6885H162.662C162.369 54.6885 162.115 54.5803 161.898 54.364C161.682 54.1476 161.574 53.8931 161.574 53.6004V52.7223C161.574 52.4296 161.682 52.1751 161.898 51.9587C162.115 51.7424 162.369 51.6342 162.662 51.6342H164.304Z" fill="#252525"/>
</g>
<defs>
<filter id="filter0_d" x="0.170941" y="0.848597" width="196.658" height="81.1075" filterUnits="userSpaceOnUse" color-interpolation-filters="sRGB">
<feFlood flood-opacity="0" result="BackgroundImageFix"/>
<feColorMatrix in="SourceAlpha" type="matrix" values="0 0 0 0 0 0 0 0 0 0 0 0 0 0 0 0 0 0 127 0"/>
<feOffset dy="1.67766"/>
<feGaussianBlur stdDeviation="3.91453"/>
<feColorMatrix type="matrix" values="0 0 0 0 0.179167 0 0 0 0 0.119146 0 0 0 0 0.0291146 0 0 0 0.5 0"/>
<feBlend mode="normal" in2="BackgroundImageFix" result="effect1_dropShadow"/>
<feBlend mode="normal" in="SourceGraphic" in2="effect1_dropShadow" result="shape"/>
</filter>
</defs>
</svg>
