<svg id="レイヤー_1" data-name="レイヤー 1" xmlns="http://www.w3.org/2000/svg" viewBox="0 0 85.04 85.04"><defs><style>.cls-1{fill:none;}.cls-2{fill:#fff;}</style></defs><title>icon-line_Wh</title><g id="icon-bg"><rect class="cls-1" width="85.04" height="85.04"/></g><g id="icon-line_DGr" data-name="icon-line DGr"><path class="cls-2" d="M85,36.51C85,17.49,66,2,42.52,2S0,17.49,0,36.51c0,17.06,15.13,31.34,35.56,34,1.38.3,3.27.92,3.75,2.1a8.78,8.78,0,0,1,.13,3.85s-.5,3-.6,3.64c-.19,1.07-.86,4.2,3.68,2.29S67,68,75.93,57.74h0C82.09,51,85,44.13,85,36.51ZM27.52,46.67a.83.83,0,0,1-.83.83H14.78a.83.83,0,0,1-.58-.23h0A.81.81,0,0,1,14,46.7h0V28.14a.84.84,0,0,1,.83-.82h3a.84.84,0,0,1,.83.82V42.86h8.1a.83.83,0,0,1,.83.83h0Zm7.19,0a.83.83,0,0,1-.83.83h-3a.83.83,0,0,1-.83-.83h0V28.14a.84.84,0,0,1,.83-.82h3a.84.84,0,0,1,.83.82Zm20.53,0a.83.83,0,0,1-.83.83H51.09a.8.8,0,0,1-.21-.2l-8.5-11.48v11a.83.83,0,0,1-.83.83h-3a.83.83,0,0,1-.83-.83h0V28.14a.84.84,0,0,1,.83-.82h3.26v.06h0l.07.08L50.6,39.15v-11a.84.84,0,0,1,.83-.82h3a.84.84,0,0,1,.83.82ZM71.71,31.13a.83.83,0,0,1-.83.83h-8.1v3.13h8.1a.83.83,0,0,1,.83.83h0v3a.83.83,0,0,1-.83.83h-8.1v3.13h8.1a.83.83,0,0,1,.83.83h0v3a.83.83,0,0,1-.83.83H59a.81.81,0,0,1-.57-.23h0a.81.81,0,0,1-.23-.57h0V28.15h0a.81.81,0,0,1,.23-.57h0a.81.81,0,0,1,.57-.23H70.88a.83.83,0,0,1,.83.83h0Z" transform="translate(0 0)"/></g></svg>