<svg width="28" height="30" viewBox="0 0 28 30" fill="none" xmlns="http://www.w3.org/2000/svg">
<g clip-path="url(#clip0)" filter="url(#filter0_d)">
<path fill-rule="evenodd" clip-rule="evenodd" d="M15.9983 21.8081L27.9997 26V0.840097C28.0043 0.62234 27.9227 0.411635 27.7726 0.254157C27.6226 0.0966795 27.4165 0.00528163 27.1995 0H4.79713C4.58054 0.00602931 4.37515 0.0977536 4.22575 0.255149C4.07636 0.412545 3.99507 0.622826 3.9997 0.840097V26L15.9983 21.8081ZM14.6588 15.7864C14.6588 16.4654 14.3404 16.8164 13.5831 16.8164C12.9205 16.8164 12.4846 16.5834 12.476 15.7864V7.92918V7.92914C12.476 7.2674 12.476 6.11663 14.2285 6.11663H16.965C17.642 6.11663 18.666 6.13101 19.5609 6.8474C19.9417 7.17244 20.2442 7.57962 20.4458 8.03849C20.6475 8.49735 20.7431 8.99602 20.7255 9.49718C20.7255 10.0841 20.5878 11.2982 19.5782 12.0549C18.7721 12.6677 17.9517 12.7454 16.9535 12.7454H14.6588V15.7864ZM16.8388 10.7113C17.6133 10.7113 18.5599 10.7113 18.5599 9.4569C18.5599 8.1712 17.6886 8.16228 16.8562 8.15377L16.8388 8.15359H15.0518C14.7564 8.15359 14.6531 8.23127 14.6531 8.55638V10.7113H16.8388Z" fill="white"/>
</g>
<defs>
<filter id="filter0_d" x="0" y="0" width="28" height="30" filterUnits="userSpaceOnUse" color-interpolation-filters="sRGB">
<feFlood flood-opacity="0" result="BackgroundImageFix"/>
<feColorMatrix in="SourceAlpha" type="matrix" values="0 0 0 0 0 0 0 0 0 0 0 0 0 0 0 0 0 0 127 0"/>
<feOffset dx="-2" dy="2"/>
<feGaussianBlur stdDeviation="1"/>
<feColorMatrix type="matrix" values="0 0 0 0 0 0 0 0 0 0 0 0 0 0 0 0 0 0 0.1 0"/>
<feBlend mode="normal" in2="BackgroundImageFix" result="effect1_dropShadow"/>
<feBlend mode="normal" in="SourceGraphic" in2="effect1_dropShadow" result="shape"/>
</filter>
<clipPath id="clip0">
<rect width="24" height="26" fill="white" transform="translate(4)"/>
</clipPath>
</defs>
</svg>
