<svg xmlns="http://www.w3.org/2000/svg" viewBox="0 0 84.4 68.62"><defs><style>.a{fill:#fff;}</style></defs><title>icon-tw_Wh</title><path class="a" d="M26.9,76.8c31.8,0,49.2-26.4,49.2-49.2V25.4a35,35,0,0,0,8.6-9,33.83,33.83,0,0,1-9.9,2.7,17.66,17.66,0,0,0,7.6-9.6,35.81,35.81,0,0,1-11,4.2,17.36,17.36,0,0,0-24.5-.9,17.05,17.05,0,0,0-5,16.7A49.32,49.32,0,0,1,6.2,11.4a17.31,17.31,0,0,0,5.3,23.1,16.68,16.68,0,0,1-7.8-2.2v.2a17.26,17.26,0,0,0,13.9,17,17.11,17.11,0,0,1-7.8.3A17.4,17.4,0,0,0,26,61.8,34.8,34.8,0,0,1,4.5,69.2c-1.4,0-2.8-.1-4.2-.2a49.18,49.18,0,0,0,26.6,7.8" transform="translate(-0.3 -8.18)"/></svg>