<svg width="76" height="69" viewBox="0 0 76 69" fill="none" xmlns="http://www.w3.org/2000/svg">
<rect x="39.2" y="2.93799" width="2" height="23" rx="1" transform="rotate(6.95896 39.2 2.93799)" fill="black"/>
<rect x="41.0641" y="4.17297" width="34" height="13" transform="rotate(6.95896 41.0641 4.17297)" fill="#EE4949"/>
<path d="M45.1509 14.9022C44.9987 14.8836 44.8733 14.8112 44.7745 14.685C44.6757 14.5588 44.6356 14.4195 44.6542 14.2673L45.4005 8.15271C45.4191 8.00051 45.4915 7.87503 45.6178 7.77626C45.744 7.67749 45.8832 7.6374 46.0354 7.65597L46.5218 7.71534C46.899 7.76138 47.1534 7.96034 47.2851 8.31222L48.8886 12.5074C48.8878 12.514 48.8907 12.5177 48.8973 12.5185C48.904 12.5194 48.9077 12.5164 48.9085 12.5098L49.381 8.63856C49.3996 8.48636 49.472 8.36087 49.5982 8.2621C49.7244 8.16334 49.8637 8.12324 50.0159 8.14182L50.5023 8.20119C50.6545 8.21976 50.7799 8.29217 50.8787 8.4184C50.9775 8.54463 51.0176 8.68384 50.999 8.83605L50.2527 14.9507C50.2341 15.1029 50.1617 15.2284 50.0354 15.3271C49.9092 15.4259 49.77 15.466 49.6178 15.4474L49.1314 15.388C48.7542 15.342 48.4998 15.143 48.3681 14.7912L46.7646 10.596C46.7654 10.5894 46.7625 10.5856 46.7559 10.5848C46.7492 10.584 46.7455 10.5869 46.7447 10.5936L46.2722 14.4648C46.2536 14.617 46.1812 14.7425 46.055 14.8413C45.9288 14.94 45.7895 14.9801 45.6373 14.9616L45.1509 14.9022Z" fill="white"/>
<path d="M52.2465 15.7683C52.0943 15.7497 51.9688 15.6773 51.87 15.5511C51.7779 15.4256 51.7411 15.2868 51.7597 15.1346L52.506 9.01999C52.5246 8.86779 52.5937 8.7419 52.7133 8.64232C52.8395 8.54356 52.9787 8.50346 53.1309 8.52204L56.6449 8.95094C56.7971 8.96952 56.9193 9.04152 57.0114 9.16694C57.1102 9.29317 57.1503 9.43238 57.1317 9.58459L57.1038 9.81289C57.0852 9.9651 57.0128 10.0906 56.8866 10.1894C56.767 10.2889 56.6311 10.3294 56.4789 10.3108L54.176 10.0298C54.123 10.0233 54.0933 10.0465 54.0869 10.0995L53.9269 11.4098C53.9197 11.4693 53.9425 11.5023 53.9954 11.5088L56.0998 11.7656C56.252 11.7842 56.3742 11.8562 56.4664 11.9816C56.5651 12.1079 56.6052 12.2471 56.5866 12.3993L56.5685 12.5482C56.5499 12.7004 56.4775 12.8259 56.3513 12.9246C56.2316 13.0242 56.0957 13.0647 55.9435 13.0461L53.8392 12.7893C53.7862 12.7828 53.7565 12.8061 53.7501 12.859L53.5538 14.4671C53.5473 14.52 53.5706 14.5497 53.6235 14.5562L55.9264 14.8373C56.0786 14.8558 56.2008 14.9278 56.2929 15.0533C56.3917 15.1795 56.4318 15.3187 56.4132 15.4709L56.3854 15.6992C56.3668 15.8514 56.2944 15.9769 56.1681 16.0757C56.0485 16.1752 55.9126 16.2157 55.7604 16.1972L52.2465 15.7683Z" fill="white"/>
<path d="M58.6712 15.9883L58.199 9.70478C58.1837 9.55516 58.2292 9.42975 58.3356 9.32856C58.4486 9.22818 58.5778 9.18687 58.7234 9.20464L59.2992 9.27491C59.458 9.2943 59.5938 9.36461 59.7066 9.48583C59.8194 9.60706 59.8761 9.7483 59.8765 9.90954L59.9457 14.9551C59.9449 14.9617 59.9478 14.9654 59.9544 14.9662C59.9611 14.967 59.9648 14.9641 59.9656 14.9575L61.1868 10.0695C61.226 9.91307 61.3117 9.7892 61.4437 9.69786C61.5758 9.60652 61.7212 9.57054 61.88 9.58993L62.8131 9.70381C62.9719 9.7232 63.1044 9.7931 63.2106 9.91352C63.3168 10.0339 63.3701 10.1748 63.3706 10.336L63.3802 15.3743C63.3794 15.3809 63.3823 15.3846 63.3889 15.3854C63.3956 15.3862 63.3993 15.3833 63.4001 15.3767L64.6809 10.4959C64.7201 10.3395 64.809 10.2161 64.9477 10.1255C65.0864 10.035 65.2351 9.99944 65.3939 10.0188L65.9299 10.0843C66.0755 10.102 66.1878 10.1728 66.2667 10.2966C66.3456 10.4204 66.3629 10.5535 66.3187 10.6959L64.349 16.6813C64.2965 16.8361 64.201 16.9587 64.0623 17.0493C63.9237 17.1398 63.7716 17.175 63.6062 17.1548L62.7624 17.0518C62.6036 17.0324 62.4678 16.9621 62.355 16.8409C62.2488 16.7205 62.1955 16.5796 62.195 16.4184L62.1258 11.3728C62.1266 11.3662 62.1237 11.3625 62.1171 11.3617C62.1105 11.3609 62.1068 11.3638 62.1059 11.3704L60.8252 16.2512C60.7859 16.4076 60.697 16.5311 60.5583 16.6216C60.4263 16.7129 60.2809 16.7489 60.122 16.7295L59.2783 16.6265C59.1129 16.6064 58.9704 16.5352 58.851 16.4132C58.7382 16.292 58.6782 16.1503 58.6712 15.9883Z" fill="white"/>
<path d="M67.9507 15.368C67.7919 15.3486 67.6627 15.2791 67.5631 15.1595C67.4709 15.0341 67.4279 14.8912 67.4341 14.7307L67.7032 10.8749C67.7152 10.7219 67.781 10.5956 67.9006 10.496C68.0202 10.3965 68.1561 10.356 68.3083 10.3745L69.2017 10.4836C69.3539 10.5022 69.4761 10.5742 69.5682 10.6996C69.667 10.8258 69.7005 10.9642 69.6686 11.1148L69.0124 14.9234C68.9864 15.0814 68.9069 15.2094 68.7741 15.3073C68.6487 15.3995 68.5066 15.4359 68.3477 15.4165L67.9507 15.368ZM68.3501 16.2227C68.5023 16.2413 68.6278 16.3137 68.7265 16.4399C68.8253 16.5661 68.8654 16.7053 68.8468 16.8576L68.8032 17.2149C68.7846 17.3671 68.7122 17.4926 68.586 17.5914C68.4598 17.6901 68.3205 17.7302 68.1683 17.7116L67.5728 17.6389C67.4205 17.6204 67.2951 17.548 67.1963 17.4217C67.0975 17.2955 67.0574 17.1563 67.076 17.0041L67.1196 16.6467C67.1382 16.4945 67.2106 16.369 67.3368 16.2703C67.4631 16.1715 67.6023 16.1314 67.7545 16.15L68.3501 16.2227Z" fill="white"/>
<g clip-path="url(#clip0)">
<path d="M26.1286 4.42229C26.2684 4.46474 26.4725 4.49615 26.6122 4.53859C28.3739 4.76785 29.6448 5.61235 30.3183 7.22315C31.9819 11.5192 33.6455 15.8152 35.1915 20.1977C35.5503 21.1321 35.4054 22.2193 35.4958 23.1333C36.1393 23.023 36.9116 22.8906 37.6839 22.7583C38.789 22.6353 39.9584 22.5013 41.0636 22.3783C42.3084 22.2978 43.3732 22.7129 44.2469 23.559C45.9833 25.1869 47.1847 27.172 48.386 29.1571C48.8625 30.0049 49.2214 30.9393 49.709 31.8516C49.8065 32.0341 49.9573 32.1411 50.1081 32.248C50.6269 32.9558 51.1989 33.5881 51.589 34.318C51.7951 34.7474 51.7769 35.4144 51.6501 35.8345C51.2809 37.1592 49.3009 38.3617 47.9585 38.2597C46.7448 38.1357 45.9153 37.5476 45.5122 36.3552C45.3926 36.0437 45.262 35.6677 45.2711 35.3342C45.3828 34.0536 44.7666 33.1633 43.9572 32.3061C42.9216 31.2885 41.875 30.2064 40.7328 29.3398C39.5152 28.4198 38.0019 28.48 36.9651 29.388C38.4388 32.1895 39.1292 35.0588 39.884 37.9172C39.9393 38.2397 40.1987 38.5936 40.3716 38.8295C40.7064 39.2369 41.0301 39.5798 41.3649 39.9871C42.1964 40.9733 42.524 42.1123 42.4123 43.3929C42.3499 43.8019 42.3629 44.2644 42.4292 44.6514C42.6041 45.2854 43.1631 45.4552 43.6981 45.0979C45.4851 43.9286 47.1967 42.7058 48.9948 41.601C49.8938 41.0485 50.7284 40.5072 51.3791 39.6653C51.5501 39.5033 51.7211 39.3412 51.9031 39.2436C52.962 38.4646 53.3482 38.3984 54.3616 39.287C55.7742 40.572 57.1225 41.868 58.4175 43.2395C58.9141 43.8183 59.2931 44.4837 59.6188 45.2246C60.0973 46.4705 59.4687 47.4413 58.1705 47.5973C57.5159 47.6431 56.9146 47.6134 56.2379 47.5302C55.4968 47.458 54.7336 47.2568 54.0348 47.0446C53.5512 46.9283 53.2404 47.0479 52.8985 47.3721C50.6981 49.6081 48.4002 51.6617 45.7785 53.3724C45.2435 53.7297 44.6331 54.0335 44.0227 54.3372C42.1271 55.2596 40.3765 55.0948 38.6532 53.9295C37.2204 52.9136 36.1406 51.638 35.2097 50.0713C34.899 50.1909 34.6526 50.2995 34.4062 50.4082C32.7681 51.2864 31.0656 52.1757 29.4385 53.1184C28.4108 53.6929 27.7068 54.6102 27.1646 55.699C26.2936 57.5745 25.8308 59.5128 25.5188 61.558C25.4142 62.1071 25.2231 62.5382 24.7947 62.7444C24.3663 62.9506 24.3572 63.2841 24.4235 63.6711C24.6003 64.7031 24.4977 65.6502 23.5453 66.2781C23.2236 66.3333 22.9661 66.3774 22.6443 66.4325C22.5689 66.379 22.5046 66.3901 22.4935 66.3256C20.1838 65.991 17.8209 65.732 15.5112 65.3975C14.9632 65.2922 14.4041 65.1225 13.834 64.8882C13.2639 64.6539 12.725 64.2151 12.7965 63.4726C12.8147 62.8055 13.2632 62.3303 13.8846 62.091C14.8701 61.6566 15.9089 61.1466 16.9588 60.7011C17.3338 60.5705 17.4294 60.3549 17.5562 59.9349C17.9546 58.0076 18.342 56.0158 18.8048 54.0775C19.3944 51.7191 20.3921 49.4236 22.1551 47.7272C23.5228 46.4306 25.0413 45.2409 26.4844 43.9977C26.8907 43.6625 27.297 43.3273 27.7676 42.9811C26.2224 40.9222 24.7525 38.9167 23.2827 36.9112C21.0823 39.1473 18.4054 40.5355 15.6088 41.6122C15.1161 41.8294 14.4393 41.7462 13.9336 41.5009C13.1373 41.1063 12.3832 40.5716 11.8111 39.9393C10.0838 37.9779 8.47423 35.93 6.80027 33.8931C6.6384 33.7217 6.51878 33.4102 6.54998 33.2057C6.54802 32.8076 6.39721 32.7007 6.10663 32.5513C5.09512 32.0607 4.20127 31.4836 3.57393 30.5288C3.50762 30.1418 3.4413 29.7548 3.37499 29.3678C3.54203 28.4097 3.84884 27.494 4.53269 26.8457C5.33421 26.1108 6.13572 25.3759 7.03474 24.8235C8.16909 24.098 8.86791 24.3102 9.88138 25.1988C10.2695 25.5307 10.7863 25.8405 11.2699 25.9568C12.0331 26.158 12.5077 26.6078 12.5759 27.3928C12.5779 27.7908 12.6553 28.2423 12.5064 28.5334C11.7511 29.9243 12.4538 30.9325 13.3496 31.9077C13.7598 32.3685 14.1167 32.9049 14.538 33.4303C14.6244 33.5482 14.7752 33.6552 14.9371 33.8266C15.7588 32.8227 16.5161 31.8298 17.3377 30.8259C15.4233 30.0917 14.5606 29.31 13.9736 27.8172C12.3964 23.6392 10.8303 19.5256 9.2532 15.3476C8.3073 12.9204 9.3896 10.3448 11.8111 9.39867C14.6609 8.2464 17.5972 7.21209 20.4581 6.12431C21.9806 5.73064 23.3522 5.23002 24.7128 4.66491C25.1633 4.58772 25.6137 4.51052 26.1286 4.42229ZM35.9926 30.2849C35.704 30.5336 35.5219 30.6311 35.2866 30.8043C34.9336 31.0639 34.5475 31.1301 34.2127 30.7227C33.9423 30.3043 34.1555 30.0022 34.4441 29.7536C34.9148 29.4073 35.3743 28.9966 35.845 28.6504C37.8452 27.179 39.9709 27.2131 41.8782 28.6788C43.3974 29.8127 44.6813 31.1198 45.741 32.6644C46.0004 33.0183 46.2155 33.1142 46.5906 32.9835C47.019 32.7773 47.5118 32.5601 47.8758 32.365C48.2398 32.1698 48.3243 31.8897 48.0539 31.4713C47.7945 31.1174 47.5884 30.688 47.3934 30.3231C46.181 28.2735 44.9796 26.2884 43.2433 24.6605C42.6933 24.1572 42.0367 23.805 41.2534 23.8728C39.4293 24.0526 37.6274 24.3614 35.8787 24.5947C35.2995 24.6939 34.5805 24.7507 34.1099 25.097C32.9333 25.9625 31.6039 26.3231 30.3077 26.8772C29.9326 27.0078 29.7084 27.2455 29.5705 27.601C29.1259 28.8723 28.1847 29.5647 26.8533 29.5273C26.252 29.4975 25.693 29.3278 25.0806 29.2335C24.7478 29.2242 24.4039 29.1503 24.0932 29.27C22.7859 29.7595 21.4897 30.3136 20.1714 30.7387C19.2925 31.0221 18.7152 31.5194 18.1711 32.2101C17.3605 33.2785 16.5389 34.2824 15.6418 35.2329C14.9157 36.0212 14.5718 35.9474 13.9666 35.1216C13.0266 33.8884 12.0333 32.7308 11.0932 31.4976C10.9314 31.3262 10.6941 31.1013 10.5764 31.1878C9.63319 31.4823 8.77642 31.8946 8.20113 32.7899C7.99897 33.1565 7.97883 33.4256 8.23821 33.7795C9.49092 35.291 10.6903 36.8781 12.0184 38.4431C12.6016 39.1399 13.3556 39.6746 14.0564 40.2848C14.5199 40.6701 15.0569 40.7109 15.6029 40.4182C17.1124 39.562 18.6439 38.8348 20.1423 37.9141C20.806 37.5348 21.3722 36.973 21.9494 36.4758C22.3557 36.1406 22.4291 35.796 22.0833 35.3241C21.7374 34.8523 21.3916 34.3804 21.1745 33.8864C21.0659 33.6395 21.1816 33.1549 21.3636 33.0573C21.61 32.9487 21.9649 33.0871 22.2445 33.172C22.3842 33.2144 22.4174 33.4079 22.5038 33.5259C24.5256 36.4326 26.6007 39.2639 28.6868 42.1597C28.8487 42.3311 29.2036 42.4695 29.3967 42.4364C30.7481 42.2048 32.0996 41.9732 33.429 41.6126C35.2622 41.0993 36.9003 40.2211 38.1815 38.8064C38.3525 38.6444 38.4793 38.2243 38.435 37.9663C38.0411 36.4404 37.6471 34.9145 37.1244 33.4106C36.8611 32.2607 36.3625 31.2838 35.9926 30.2849ZM10.4519 14.611C10.5936 15.0515 10.8329 15.6744 11.061 16.2329C12.5075 20.0349 13.8896 23.848 15.3251 27.5856C16.0207 29.3254 17.8175 30.1462 19.5531 29.4504C20.9247 28.9498 22.232 28.4602 23.6036 27.9596C26.4645 26.8718 29.3898 25.773 32.2507 24.6852C33.8687 24.076 34.6864 22.2761 34.0883 20.7187C32.4891 16.4117 30.8898 12.1047 29.2373 7.87315C28.5306 6.06885 26.7559 5.37708 24.9449 6.01938C23.3912 6.61758 21.8376 7.21577 20.284 7.81397C17.6051 8.80417 14.9905 9.78333 12.376 10.7625C10.8978 11.4142 10.1535 12.8696 10.4519 14.611ZM51.6997 41.5358C52.0345 41.9432 52.4336 42.3395 52.7684 42.7469C53.1032 43.1543 53.449 43.6262 53.5374 44.1421C53.8027 45.6901 54.8032 46.1162 56.1345 46.1536C56.403 46.174 56.7469 46.2479 57.0153 46.2683C57.4769 46.2556 57.9274 46.1784 58.4422 46.0902C58.3005 45.6497 58.201 45.0692 57.8883 44.7908C56.8086 43.5152 55.6755 42.3151 54.4247 41.2016C53.0765 39.9056 52.6903 39.9718 51.6997 41.5358ZM14.3098 63.4124C14.3209 63.4769 14.3319 63.5414 14.343 63.6059C14.7623 63.7332 15.2037 63.9896 15.6763 64.0414C17.7929 64.409 19.9628 64.7011 22.0684 65.0042C23.282 65.1282 23.4419 64.9016 23.2319 63.6761C23.2209 63.6116 23.1988 63.4826 23.1234 63.4292C21.5236 63.3713 20.2104 62.6669 18.9395 61.8224C18.7887 61.7154 18.5092 61.6305 18.3272 61.7281C16.9555 62.2287 15.6704 62.8473 14.3098 63.4124ZM8.71262 27.6564C9.12086 27.7193 9.40039 27.8042 9.72217 27.749C10.055 27.7584 10.4522 27.7567 10.4008 28.2303C10.3586 28.3703 9.98351 28.501 9.73714 28.6096C9.49077 28.7182 9.13583 28.5798 8.96487 28.7419C8.61189 29.0016 8.42078 29.4327 8.07885 29.7568C7.90789 29.9189 7.66152 30.0275 7.41515 30.1361C7.28644 30.1582 7.10442 30.2558 6.98676 30.3423C6.40952 30.8396 5.44222 30.607 5.30959 29.833C5.28748 29.704 5.38304 29.4885 5.43634 29.4129C5.48964 29.3374 5.69376 29.3688 5.83353 29.4113C5.97329 29.4537 6.13516 29.6252 6.22162 29.7431C6.21057 29.6786 6.19952 29.6141 6.18847 29.5496C6.56355 29.419 6.93863 29.2883 7.37807 29.1466C7.51588 28.791 7.13688 28.1256 7.93125 28.1223C7.77652 27.2193 7.98973 26.9172 9.05972 26.2027C8.71583 26.1289 8.4142 25.915 8.23219 26.0126C6.82936 26.7177 5.58841 27.5943 5.0593 29.1456C4.82594 29.7167 4.98977 30.2862 5.50657 30.596C5.95902 30.9168 6.47583 31.2266 6.98159 31.4719C7.12135 31.5143 7.37877 31.4702 7.43208 31.3947C8.32914 30.4443 9.43229 29.9233 10.6329 29.5847C11.0724 29.443 11.5593 28.0318 11.2888 27.6133C11.2134 27.5599 11.138 27.5064 10.9982 27.464C10.4281 27.2297 9.85802 26.9954 9.29896 26.8257C9.2034 27.0412 8.97914 27.2788 8.71262 27.6564ZM49.0823 33.2205C48.7183 33.4156 48.494 33.6533 48.2477 33.7619C47.948 33.946 47.7016 34.0546 47.3909 34.1743C46.512 34.4576 46.512 34.4576 46.6667 35.3606C46.6999 35.5541 46.7441 35.8121 46.7773 36.0056C46.9411 36.5751 47.3402 36.9714 47.9526 37.0657C48.6404 37.2134 49.9678 36.4548 50.3188 35.7971C50.7121 34.9994 50.1621 34.4961 49.7409 33.9707C49.5569 33.6703 49.3196 33.4454 49.0823 33.2205Z" fill="black"/>
<path d="M35.9925 30.2849C36.4378 31.3373 36.8611 32.2606 37.1666 33.2705C37.6249 34.7854 38.0833 36.3003 38.4772 37.8262C38.5214 38.0842 38.3836 38.4398 38.2237 38.6664C36.9425 40.081 35.3043 40.9592 33.4712 41.4726C32.1418 41.8331 30.7903 42.0647 29.4389 42.2963C29.2458 42.3294 28.8265 42.2021 28.729 42.0196C26.6539 39.1884 24.6322 36.2816 22.546 33.3858C22.4596 33.2678 22.4264 33.0743 22.2866 33.0319C22.0071 32.947 21.5878 32.8197 21.4058 32.9173C21.2238 33.0149 21.1725 33.4884 21.2167 33.7464C21.4338 34.2403 21.7907 34.7767 22.1255 35.1841C22.4713 35.656 22.3979 36.0005 21.9916 36.3357C21.4144 36.833 20.8482 37.3947 20.1845 37.774C18.675 38.6302 17.1545 39.4219 15.6451 40.2781C15.0991 40.5709 14.5621 40.5301 14.0986 40.1448C13.3978 39.5345 12.6437 38.9998 12.0606 38.303C10.7436 36.8025 9.54416 35.2155 8.2804 33.6394C8.02101 33.2855 8.04116 33.0165 8.24332 32.6499C8.81861 31.7546 9.67538 31.3422 10.6186 31.0478C10.7473 31.0257 11.049 31.2396 11.1354 31.3576C12.1398 32.5797 13.0688 33.7484 14.0088 34.9815C14.6784 35.7963 15.0223 35.8702 15.684 35.0928C16.5811 34.1424 17.4027 33.1385 18.2133 32.0701C18.7574 31.3793 19.3236 30.8175 20.2135 30.5987C21.5319 30.1736 22.8281 29.6195 24.1353 29.1299C24.4461 29.0103 24.79 29.0841 25.1228 29.0935C25.7352 29.1877 26.2942 29.3575 26.8955 29.3872C28.2268 29.4247 29.1681 28.7322 29.6127 27.461C29.7505 27.1054 29.9748 26.8678 30.3499 26.7371C31.6572 26.2475 32.9755 25.8225 34.1521 24.9569C34.6227 24.6107 35.3417 24.5539 35.9209 24.4546C37.7229 24.1458 39.5359 23.9015 41.2956 23.7328C42.0789 23.6649 42.7355 24.0172 43.2855 24.5205C45.0218 26.1483 46.2342 28.1979 47.4356 30.183C47.695 30.5369 47.8367 30.9774 48.0961 31.3313C48.3555 31.6852 48.282 32.0297 47.918 32.2249C47.5007 32.4956 47.0723 32.7018 46.6328 32.8435C46.2688 33.0386 46.0426 32.8782 45.7832 32.5243C44.7235 30.9797 43.4396 29.6727 41.9204 28.5388C39.9487 27.084 37.823 27.0499 35.8872 28.5103C35.4165 28.8566 34.9459 29.2028 34.4863 29.6135C34.1333 29.8732 33.9312 30.2398 34.2549 30.5827C34.5253 31.0011 34.9115 30.9349 35.3288 30.6642C35.4575 30.6421 35.6285 30.4801 35.9925 30.2849Z" fill="white"/>
<path d="M10.4519 14.611C10.1535 12.8695 10.8978 11.4141 12.3871 10.827C14.9906 9.78331 17.6051 8.80414 20.2196 7.82498C21.7733 7.22678 23.3269 6.62858 24.8805 6.03039C26.6806 5.32358 28.4663 6.07986 29.173 7.88415C30.8366 12.1802 32.4358 16.4872 34.024 20.7297C34.6221 22.2871 33.729 24.0335 32.1864 24.6962C29.3365 25.8485 26.4002 26.8828 23.5393 27.9706C22.1677 28.4712 20.8604 28.9608 19.4888 29.4614C17.7421 30.0927 15.9453 29.2719 15.2607 27.5966C13.8143 23.7945 12.3678 19.9925 10.9967 16.2439C10.8218 15.6099 10.5826 14.987 10.4519 14.611ZM19.924 15.378C19.8707 15.4535 19.8928 15.5825 19.8395 15.658C18.9717 16.0059 18.0928 16.2893 17.236 16.7017C16.4326 17.0386 16.1348 17.6207 16.3741 18.2437C16.6777 18.8556 17.2367 19.0253 18.0513 18.753C20.0443 18.0131 22.1018 17.2622 24.0838 16.4578C24.9516 16.1099 25.7148 16.3111 26.3402 16.8678C27.5045 17.8634 28.0583 19.1627 28.0018 20.7658C27.9433 21.9709 27.4857 22.7796 26.2207 23.1292C25.8456 23.2599 25.4062 23.4016 25.0422 23.5967C23.4885 24.1949 21.9882 24.7176 20.4345 25.3158C19.6311 25.6527 19.3756 26.0948 19.6148 26.7177C19.8008 27.4162 20.4242 27.5749 21.3031 27.2915C23.2961 26.5516 25.2138 25.7583 27.2069 25.0184C28.8892 24.3981 29.8065 23.1787 30.045 21.478C30.3771 19.1637 29.6263 17.1014 27.9543 15.4626C26.606 14.1666 25.0042 13.7107 23.1399 14.4286C22.6471 14.6458 22.1433 14.7985 21.5862 15.0268C21.5108 14.9733 21.4354 14.9198 21.4244 14.8553C21.5199 14.6398 21.6044 14.3597 21.7643 14.1331C22.5639 13.0002 22.5781 11.5372 21.6713 10.4975C20.7755 9.52233 19.3356 9.23793 18.2012 9.96345C17.1735 10.5379 16.6424 11.6912 16.8414 12.8522C17.0403 14.0132 17.9251 14.9238 19.0854 15.1233C19.4072 15.0682 19.6978 15.2176 19.924 15.378ZM25.982 18.2571C25.8936 17.7411 25.3657 17.3668 24.8509 17.455C24.336 17.5432 23.9629 18.0719 24.0513 18.5879C24.1398 19.1039 24.6566 19.4137 25.1714 19.3255C25.7617 19.2907 26.0815 18.8375 25.982 18.2571ZM19.4769 20.5005C18.962 20.5887 18.5889 21.1174 18.6773 21.6334C18.7658 22.1493 19.2936 22.5236 19.8085 22.4354C20.3233 22.3472 20.6431 21.894 20.5547 21.378C20.4552 20.7976 19.9917 20.4122 19.4769 20.5005ZM24.628 22.3398C24.617 22.2753 24.6703 22.1998 24.6482 22.0708C24.1424 21.8255 23.6256 21.5157 23.1199 21.2704C23.0445 21.217 22.8624 21.3145 22.8091 21.3901C22.5647 21.8967 22.3957 22.4568 22.1624 23.0279C22.2378 23.0814 22.2488 23.1459 22.3242 23.1994C23.0744 22.938 23.8135 22.6122 24.628 22.3398Z" fill="white"/>
<path d="M51.6997 41.5357C52.7014 40.0362 53.1408 39.8945 54.4137 41.137C55.6001 42.2616 56.7442 43.5262 57.8773 44.7263C58.201 45.0691 58.2251 45.5962 58.4312 46.0256C57.9807 46.1028 57.4659 46.191 57.0043 46.2037C56.7358 46.1833 56.3919 46.1095 56.1235 46.0891C54.7811 45.9872 53.7806 45.5611 53.5264 44.0776C53.438 43.5616 53.0922 43.0897 52.7574 42.6823C52.4226 42.275 52.0345 41.9431 51.6997 41.5357Z" fill="white"/>
<path d="M14.3098 63.4124C15.6704 62.8473 16.9666 62.2932 18.3272 61.7281C18.5092 61.6305 18.7244 61.7264 18.9396 61.8223C20.2104 62.6668 21.5879 63.3603 23.1234 63.4291C23.1455 63.5581 23.2209 63.6116 23.232 63.6761C23.442 64.9015 23.2821 65.1281 22.0684 65.0041C19.8985 64.712 17.7929 64.4089 15.6763 64.0413C15.2037 63.9895 14.8377 63.7867 14.343 63.6059C14.3319 63.5414 14.3209 63.4769 14.3098 63.4124Z" fill="white"/>
<path d="M8.71255 27.6564C8.97907 27.2788 9.20334 27.0412 9.3743 26.8791C9.94441 27.1134 10.5145 27.3477 11.0736 27.5174C11.149 27.5709 11.2777 27.5488 11.3642 27.6668C11.6235 28.0207 11.1477 29.4965 10.7083 29.6382C9.50763 29.9767 8.40449 30.4977 7.50742 31.4482C7.38976 31.5347 7.13234 31.5788 7.05693 31.5254C6.55117 31.2801 6.03437 30.9703 5.58191 30.6494C5.05405 30.2751 4.90128 29.7702 5.13464 29.1991C5.66376 27.6477 6.89365 26.7067 8.30753 26.066C8.48954 25.9684 8.79118 26.1823 9.13506 26.2562C7.98967 26.9172 7.84081 27.2083 7.93119 28.1223C7.07245 28.1367 7.51581 28.791 7.37801 29.1466C6.93857 29.2883 6.56348 29.419 6.1884 29.5496C6.19945 29.6141 6.2105 29.6786 6.22156 29.7431C6.07074 29.6362 5.98428 29.5182 5.83346 29.4113C5.6937 29.3688 5.48958 29.3374 5.43627 29.4129C5.31861 29.4995 5.28741 29.704 5.30952 29.833C5.4311 30.5425 6.40945 30.8396 6.9867 30.3423C7.10435 30.2558 7.29742 30.2227 7.41508 30.1361C7.66145 30.0275 7.90783 29.9189 8.07879 29.7568C8.42072 29.4327 8.61182 29.0016 8.9648 28.7419C9.13577 28.5798 9.4907 28.7182 9.73708 28.6096C9.98345 28.5009 10.3696 28.4348 10.4008 28.2303C10.4521 27.7567 10.1193 27.7473 9.7221 27.749C9.38927 27.7397 9.10974 27.6548 8.71255 27.6564Z" fill="white"/>
<path d="M49.0824 33.2204C49.3196 33.4453 49.5569 33.6702 49.7298 33.9062C50.1511 34.4315 50.701 34.9348 50.3078 35.7325C49.9678 36.4547 48.6293 37.1488 47.9416 37.0011C47.3292 36.9069 46.9411 36.575 46.7662 35.941C46.7331 35.7475 46.6889 35.4896 46.6557 35.2961C46.501 34.3931 46.501 34.3931 47.3799 34.1097C47.6906 33.99 48.0013 33.8704 48.2366 33.6973C48.483 33.5887 48.7183 33.4156 49.0824 33.2204Z" fill="white"/>
<path d="M19.924 15.378C19.6445 15.2931 19.4072 15.0682 19.1387 15.0478C17.9673 14.7838 17.0936 13.9376 16.8946 12.7767C16.6957 11.6157 17.2268 10.4624 18.2545 9.88793C19.4643 9.21587 20.8931 9.43577 21.7246 10.422C22.6314 11.4616 22.6815 12.9137 21.8176 14.0576C21.6577 14.2842 21.5732 14.5642 21.4776 14.7798C21.553 14.8333 21.6285 14.8867 21.6395 14.9512C22.1433 14.7985 22.636 14.5813 23.1931 14.353C25.0465 13.5707 26.6482 14.0266 28.0075 15.387C29.6795 17.0259 30.4194 19.0237 30.0983 21.4025C29.8597 23.1032 28.9425 24.3226 27.2602 24.9429C25.2671 25.6827 23.3494 26.4761 21.3564 27.216C20.4885 27.5639 19.8541 27.3406 19.6681 26.6422C19.4932 26.0082 19.7377 25.5016 20.4878 25.2403C22.0415 24.6421 23.5307 24.0549 25.0954 23.5212C25.4705 23.3905 25.8989 23.1843 26.274 23.0537C27.4746 22.7152 27.9966 21.8954 28.0551 20.6903C28.1227 19.1517 27.6332 17.8413 26.3935 16.7923C25.7681 16.2355 25.0049 16.0344 24.1371 16.3822C22.1551 17.1866 20.0976 17.9376 18.1045 18.6774C17.3011 19.0143 16.742 18.8445 16.4274 18.1681C16.1238 17.5562 16.4859 16.963 17.2893 16.6262C18.1572 16.2783 19.025 15.9304 19.8928 15.5825C19.8817 15.518 19.9351 15.4425 19.924 15.378ZM19.8277 13.2699C20.4069 13.1707 20.7911 12.7065 20.6917 12.126C20.5922 11.5455 20.1287 11.1602 19.5495 11.2594C18.9703 11.3587 18.6615 11.8764 18.6856 12.4034C18.7207 12.9949 19.2485 13.3692 19.8277 13.2699Z" fill="black"/>
<path d="M25.982 18.2571C26.0815 18.8376 25.7616 19.2908 25.1824 19.39C24.6676 19.4783 24.2151 19.1574 24.0624 18.6525C23.9739 18.1365 24.2827 17.6188 24.8619 17.5196C25.4301 17.3558 25.8936 17.7411 25.982 18.2571Z" fill="black"/>
<path d="M19.4768 20.5004C19.9917 20.4122 20.5195 20.7865 20.608 21.3025C20.6964 21.8185 20.3766 22.2716 19.8617 22.3598C19.3469 22.4481 18.83 22.1383 18.7306 21.5578C18.5889 21.1173 18.8976 20.5997 19.4768 20.5004Z" fill="black"/>
<path d="M24.628 22.3398C23.8778 22.6012 23.0743 22.938 22.3242 23.1994C22.2488 23.1459 22.2377 23.0814 22.1623 23.0279C22.3957 22.4568 22.5757 21.9612 22.8091 21.3901C22.8624 21.3145 23.0444 21.217 23.1198 21.2704C23.6256 21.5157 24.1313 21.761 24.6481 22.0708C24.6059 22.2108 24.6169 22.2753 24.628 22.3398Z" fill="black"/>
<path d="M19.8277 13.2699C19.2485 13.3692 18.785 12.9839 18.6856 12.4034C18.5861 11.8229 18.9703 11.3587 19.5495 11.2595C20.1287 11.1602 20.6565 11.5345 20.6917 12.126C20.7268 12.7175 20.4069 13.1707 19.8277 13.2699Z" fill="white"/>
</g>
<defs>
<clipPath id="clip0">
<rect width="52.6923" height="60.5309" fill="white" transform="translate(0 8.89966) rotate(-9.72379)"/>
</clipPath>
</defs>
</svg>
