<svg width="294" height="42" viewBox="0 0 294 42" fill="none" xmlns="http://www.w3.org/2000/svg">
<g clip-path="url(#clip0)">
<path d="M28 42L16 37.81L4.00001 42V16.84C3.99735 16.7323 4.01592 16.6251 4.05469 16.5246C4.09346 16.4241 4.15179 16.3322 4.22608 16.2542C4.30037 16.1762 4.3893 16.1136 4.4878 16.07C4.5863 16.0264 4.69236 16.0026 4.80005 16H27.2C27.3077 16.0026 27.4137 16.0264 27.5122 16.07C27.6107 16.1136 27.6996 16.1762 27.7739 16.2542C27.8482 16.3322 27.9065 16.4241 27.9453 16.5246C27.9841 16.6251 28.0027 16.7323 28 16.84V42Z" fill="#D9A300"/>
<path fill-rule="evenodd" clip-rule="evenodd" d="M13.5901 32.82C14.3401 32.82 14.6599 32.46 14.6599 31.82V28.82H16.96C17.889 28.9085 18.819 28.6601 19.5801 28.12C19.9576 27.8138 20.2589 27.4241 20.4602 26.9816C20.6615 26.539 20.7572 26.0559 20.74 25.57C20.7579 25.0686 20.6619 24.5697 20.4592 24.1107C20.2566 23.6517 19.9527 23.2446 19.5701 22.92C18.8176 22.3756 17.8958 22.1168 16.97 22.19H14.24C12.49 22.19 12.49 23.33 12.49 24V31.86C12.49 32.58 12.9201 32.82 13.5901 32.82ZM18.5901 25.46C18.5901 26.71 17.6399 26.71 16.8799 26.71H14.6899V24.56C14.6899 24.23 14.7901 24.15 15.0901 24.15H16.8799C17.6799 24.15 18.5601 24.15 18.5601 25.46H18.5901Z" fill="white"/>
</g>
<g clip-path="url(#clip1)">
<path d="M52.7166 18C53.153 17.9962 53.5854 18.083 53.9864 18.2548C54.3874 18.4267 54.7484 18.68 55.0463 18.9985C55.3652 19.296 55.6189 19.6564 55.791 20.0569C55.9631 20.4574 56.0499 20.8892 56.0461 21.325C56.0528 21.7419 55.9767 22.1559 55.8222 22.5433C55.6678 22.9306 55.4382 23.2835 55.1463 23.5816C54.5689 24.1845 53.781 24.542 52.9466 24.5801C52.8266 24.5801 52.7767 24.6401 52.7767 24.7798V25.1093C52.2901 29.0168 50.957 32.0123 48.7775 34.0959C46.5979 36.1794 43.4352 37.4475 39.2893 37.9002C39.1138 37.9312 38.9337 37.9241 38.7611 37.8793C38.5886 37.8345 38.4277 37.7531 38.2895 37.6406C38.0126 37.4384 37.8231 37.1385 37.7596 36.8018L37.4796 35.4139C37.4479 35.2607 37.4484 35.1026 37.4811 34.9496C37.5138 34.7966 37.5782 34.6521 37.6698 34.5252C37.7608 34.3935 37.8795 34.2833 38.0176 34.2022C38.1558 34.1212 38.3099 34.0712 38.4694 34.0559C41.5888 33.6665 43.9284 32.7878 45.4681 31.3899C47.1757 29.6896 48.2003 27.4232 48.3476 25.0195C48.3476 25.0195 48.3476 24.9396 48.3476 24.8997C48.3102 24.8705 48.2648 24.8532 48.2175 24.8497H37.3098C37.1449 24.8503 36.9817 24.8168 36.8304 24.7516C36.679 24.6863 36.5425 24.5905 36.4298 24.4703C36.3094 24.3578 36.2137 24.2217 36.1484 24.0705C36.083 23.9193 36.0495 23.7563 36.05 23.5916V22.1438C36.0495 21.9791 36.083 21.8161 36.1484 21.6649C36.2137 21.5137 36.3094 21.3776 36.4298 21.2651C36.543 21.1462 36.6797 21.052 36.8311 20.9884C36.9825 20.9248 37.1455 20.8933 37.3098 20.8957H48.7975H49.2173C49.3273 20.8957 49.4073 20.8957 49.4373 20.7459C49.5452 19.9631 49.9452 19.2499 50.5571 18.7489C51.161 18.2438 51.9293 17.9774 52.7166 18ZM51.7168 22.3036C51.8465 22.4373 52.0019 22.5434 52.1738 22.6155C52.3456 22.6875 52.5303 22.7241 52.7166 22.7229C52.9029 22.7235 53.0875 22.6867 53.2593 22.6146C53.431 22.5426 53.5864 22.4368 53.7164 22.3036C53.8472 22.1722 53.9507 22.0164 54.0211 21.8451C54.0914 21.6737 54.1273 21.4902 54.1265 21.3051C54.129 21.1196 54.0939 20.9356 54.0235 20.7641C53.9531 20.5925 53.8485 20.4369 53.7164 20.3066C53.5864 20.1733 53.431 20.0675 53.2593 19.9955C53.0875 19.9234 52.9029 19.8866 52.7166 19.8872C52.5303 19.886 52.3456 19.9226 52.1738 19.9947C52.0019 20.0667 51.8465 20.1728 51.7168 20.3066C51.5815 20.4349 51.4745 20.59 51.4022 20.7618C51.3299 20.9337 51.2941 21.1187 51.297 21.3051C51.2945 21.4905 51.3296 21.6745 51.4 21.8461C51.4704 22.0176 51.5747 22.1732 51.7068 22.3036H51.7168Z" fill="#252525"/>
<path d="M74.8724 26.3275C75.0272 26.3887 75.1679 26.4803 75.2864 26.5969C75.4049 26.7136 75.4987 26.8529 75.5622 27.0065C75.6335 27.1633 75.6704 27.3335 75.6704 27.5057C75.6704 27.678 75.6335 27.8482 75.5622 28.005C74.1092 31.5197 72.1895 34.016 69.8034 35.4938C67.4172 36.9715 64.1179 37.7404 59.9054 37.8003C59.7405 37.8008 59.5771 37.7674 59.4258 37.7021C59.2744 37.6369 59.1381 37.5411 59.0254 37.4209C58.9051 37.3084 58.8091 37.1722 58.7438 37.0211C58.6784 36.8699 58.6451 36.7069 58.6456 36.5422V21.0355C58.6451 20.8708 58.6784 20.7078 58.7438 20.5566C58.8091 20.4054 58.9051 20.2693 59.0254 20.1568C59.1386 20.0379 59.2753 19.9437 59.4267 19.8801C59.5782 19.8165 59.7412 19.7849 59.9054 19.7873H61.905C62.0692 19.7849 62.232 19.8165 62.3834 19.8801C62.5348 19.9437 62.6715 20.0379 62.7847 20.1568C62.9038 20.2698 62.9981 20.4062 63.0618 20.5574C63.1254 20.7087 63.1572 20.8714 63.1548 21.0355V33.4269C63.1548 33.5534 63.2147 33.6033 63.3347 33.5766C65.2146 33.3675 66.9965 32.63 68.4735 31.4498C69.9447 30.0704 71.0625 28.3582 71.7329 26.4573C71.856 26.1539 72.0929 25.9103 72.3929 25.7783C72.6972 25.6535 73.0384 25.6535 73.3427 25.7783L74.8724 26.3275Z" fill="#252525"/>
<path d="M95.1682 33.6166C95.5 33.6669 95.7984 33.8464 95.9981 34.1158C96.2064 34.3781 96.3033 34.7115 96.2681 35.0444L96.0982 36.652C96.0835 36.8117 96.0347 36.9665 95.9554 37.106C95.8761 37.2454 95.7681 37.3664 95.6383 37.4608C95.5082 37.5619 95.3577 37.6338 95.1973 37.6717C95.0368 37.7096 94.87 37.7126 94.7083 37.6805C89.556 36.9017 84.637 36.3957 79.9512 36.1628C79.7873 36.158 79.6262 36.1191 79.4782 36.0486C79.3301 35.9781 79.1985 35.8776 79.0915 35.7534C78.9799 35.6348 78.8931 35.495 78.8365 35.3424C78.7798 35.1898 78.7543 35.0273 78.7615 34.8647L78.8516 33.307C78.8776 32.9752 79.0274 32.6651 79.2714 32.4384C79.3865 32.3239 79.5242 32.2346 79.6756 32.1761C79.8271 32.1177 79.9892 32.0914 80.1514 32.0989C85.1797 32.3485 90.1917 32.8551 95.1682 33.6166ZM95.3283 23.8412C95.3139 24.0038 95.2655 24.1615 95.1863 24.3043C95.1071 24.447 94.9988 24.5716 94.8685 24.67C94.7377 24.7709 94.5882 24.845 94.4286 24.8878C94.269 24.9307 94.1023 24.9415 93.9385 24.9196C89.3794 24.3605 85.0037 23.9943 80.8112 23.8213C80.6475 23.8153 80.4867 23.7759 80.3388 23.7055C80.191 23.6351 80.059 23.5351 79.9512 23.4119C79.8374 23.2956 79.7507 23.1556 79.6971 23.002C79.6436 22.8485 79.6247 22.685 79.6415 22.5232L79.7313 21.0554C79.7558 20.726 79.9063 20.4186 80.1514 20.1967C80.2654 20.0814 80.403 19.9922 80.5549 19.9353C80.7068 19.8784 80.8693 19.8552 81.0311 19.8672C85.4102 20.0536 89.8595 20.4197 94.3786 20.9656C94.545 20.985 94.7059 21.0374 94.8519 21.1197C94.9978 21.202 95.1256 21.3125 95.2283 21.4448C95.3382 21.5707 95.4194 21.719 95.466 21.8794C95.5126 22.0398 95.5235 22.2084 95.4982 22.3734L95.3283 23.8412ZM82.2408 25.8383C85.5735 26.0246 89.1129 26.4141 92.8588 27.0065C93.0223 27.0334 93.1788 27.0922 93.3194 27.1796C93.4601 27.2669 93.5821 27.3812 93.6785 27.5157C93.8755 27.7789 93.9617 28.1086 93.9184 28.4344L93.7185 30.042C93.7002 30.2029 93.648 30.3582 93.5652 30.4976C93.4825 30.637 93.3713 30.7574 93.2387 30.8507C93.1085 30.9518 92.9583 31.0237 92.7978 31.0616C92.6374 31.0995 92.4706 31.1025 92.3089 31.0704C88.8652 30.5039 85.3947 30.1139 81.911 29.9022C81.7495 29.8997 81.5905 29.8617 81.4453 29.791C81.3002 29.7202 81.1724 29.6184 81.0711 29.4928C80.9654 29.3681 80.8859 29.2233 80.8378 29.0671C80.7897 28.9109 80.7739 28.7466 80.7912 28.5841L80.9012 27.0265C80.9116 26.8608 80.9559 26.6991 81.0316 26.5514C81.1073 26.4036 81.2126 26.273 81.3411 26.1678C81.589 25.951 81.9119 25.8399 82.2408 25.8582V25.8383Z" fill="#252525"/>
<path d="M117.344 20.4164C117.508 20.414 117.671 20.4455 117.823 20.5091C117.974 20.5727 118.111 20.6669 118.224 20.7858C118.343 20.8989 118.437 21.0353 118.501 21.1865C118.564 21.3377 118.596 21.5005 118.594 21.6645V22.7828C118.621 23.6104 118.471 24.4342 118.154 25.1992C117.181 27.2878 115.728 29.118 113.915 30.5412C113.776 30.6529 113.615 30.7352 113.443 30.7833C113.272 30.8314 113.092 30.8441 112.915 30.8208C112.742 30.8043 112.574 30.7534 112.421 30.6711C112.269 30.5888 112.134 30.4767 112.025 30.3415L111.025 29.1533C110.918 29.0357 110.839 28.896 110.792 28.7441C110.745 28.5922 110.733 28.4319 110.755 28.2746C110.798 27.9556 110.962 27.6655 111.215 27.4658C112.364 26.612 113.304 25.5093 113.965 24.2407C113.977 24.2194 113.983 24.1953 113.983 24.1708C113.983 24.1462 113.977 24.1221 113.965 24.1008C113.957 24.0833 113.944 24.0683 113.928 24.0577C113.913 24.0471 113.894 24.0413 113.875 24.0409H101.577C101.412 24.0415 101.249 24.0081 101.098 23.9428C100.946 23.8775 100.81 23.7818 100.697 23.6615C100.577 23.549 100.481 23.4129 100.416 23.2617C100.35 23.1105 100.317 22.9475 100.317 22.7828V21.6645C100.317 21.4998 100.35 21.3368 100.416 21.1856C100.481 21.0345 100.577 20.8984 100.697 20.7858C100.81 20.6669 100.947 20.5727 101.098 20.5091C101.25 20.4455 101.413 20.414 101.577 20.4164H117.344ZM108.216 25.4688C108.379 25.4669 108.541 25.4977 108.692 25.5594C108.843 25.6212 108.981 25.7126 109.096 25.8283C109.216 25.937 109.31 26.0718 109.371 26.2223C109.432 26.3728 109.457 26.5351 109.445 26.697C109.515 29.0243 109.135 31.3432 108.326 33.5267C107.513 35.1656 106.214 36.5148 104.607 37.3909C104.459 37.4819 104.294 37.542 104.122 37.5677C103.95 37.5935 103.775 37.5843 103.607 37.5407C103.272 37.4651 102.979 37.2652 102.787 36.9815L101.927 35.7035C101.835 35.5749 101.772 35.4283 101.741 35.2734C101.71 35.1185 101.712 34.9588 101.747 34.8048C101.817 34.4949 102.008 34.2255 102.277 34.0559C103.296 33.4678 104.099 32.5682 104.567 31.4898C105.062 29.9419 105.292 28.3214 105.246 26.697C105.261 26.3664 105.405 26.0546 105.646 25.8283C105.762 25.7126 105.899 25.6212 106.05 25.5594C106.201 25.4977 106.363 25.4669 106.526 25.4688H108.216Z" fill="#252525"/>
<path d="M135.091 27.1663C136.4 29.982 137.56 32.6181 138.59 35.0744C138.658 35.232 138.693 35.4019 138.693 35.5737C138.693 35.7454 138.658 35.9153 138.59 36.0729C138.531 36.225 138.439 36.3626 138.322 36.4763C138.204 36.59 138.064 36.6772 137.91 36.7319L136.28 37.351C135.96 37.4809 135.601 37.4809 135.28 37.351C135.129 37.2891 134.991 37.197 134.876 37.0803C134.761 36.9635 134.67 36.8246 134.611 36.672C134.576 36.5621 134.533 36.4552 134.481 36.3525C134.42 36.2374 134.37 36.1171 134.331 35.993C134.309 35.9468 134.273 35.9089 134.228 35.8854C134.183 35.8619 134.131 35.8541 134.081 35.8632C129.415 36.5289 124.893 36.9516 120.513 37.1313C120.349 37.1415 120.185 37.1165 120.032 37.0579C119.878 36.9994 119.739 36.9086 119.624 36.7918C119.501 36.6816 119.401 36.548 119.331 36.3988C119.26 36.2496 119.221 36.0879 119.214 35.9231V34.695C119.205 34.5313 119.23 34.3676 119.289 34.2145C119.348 34.0614 119.438 33.9223 119.554 33.8063C119.777 33.5564 120.089 33.4026 120.423 33.377C120.62 33.3895 120.817 33.3895 121.013 33.377C121.079 33.3789 121.144 33.3582 121.197 33.3182C121.25 33.2782 121.287 33.2215 121.303 33.1573C122.763 29.1179 124.012 25.0051 125.043 20.8358C125.124 20.5094 125.328 20.2269 125.612 20.0469C125.757 19.947 125.92 19.8777 126.092 19.8434C126.264 19.809 126.441 19.8103 126.612 19.8472L128.432 20.1768C128.592 20.2006 128.745 20.2595 128.88 20.3492C129.015 20.439 129.128 20.5574 129.212 20.696C129.302 20.8271 129.364 20.9758 129.393 21.1323C129.422 21.2888 129.419 21.4497 129.382 21.6046C128.486 25.4024 127.384 29.149 126.082 32.8278C126.082 32.9276 126.082 32.9776 126.212 32.9776C128.722 32.7479 130.851 32.5083 132.591 32.2786C132.711 32.2786 132.751 32.1887 132.701 32.0789C131.851 30.0819 131.381 29.0834 131.291 28.8937C131.227 28.7456 131.194 28.5858 131.194 28.4244C131.194 28.2629 131.227 28.1032 131.291 27.9551C131.345 27.7997 131.432 27.6578 131.546 27.539C131.66 27.4201 131.798 27.3271 131.951 27.2661L133.511 26.5871C133.669 26.5212 133.839 26.4873 134.011 26.4873C134.182 26.4873 134.352 26.5212 134.511 26.5871C134.764 26.7089 134.969 26.9131 135.091 27.1663Z" fill="#252525"/>
<path d="M159.056 24.171C159.213 24.1704 159.369 24.202 159.513 24.2638C159.658 24.3257 159.788 24.4164 159.896 24.5305C160.01 24.6383 160.101 24.7683 160.163 24.9126C160.225 25.0569 160.256 25.2123 160.256 25.3692V26.0183C160.256 26.1752 160.225 26.3306 160.163 26.4749C160.101 26.6191 160.01 26.7492 159.896 26.857C159.788 26.971 159.658 27.0618 159.513 27.1236C159.369 27.1854 159.213 27.217 159.056 27.2165H158.866C158.84 27.2132 158.814 27.2159 158.79 27.2243C158.765 27.2326 158.743 27.2465 158.724 27.2648C158.706 27.2831 158.692 27.3054 158.684 27.3299C158.675 27.3544 158.673 27.3805 158.676 27.4062V28.0951C158.676 28.205 158.736 28.2649 158.866 28.2649H159.056C159.213 28.2643 159.369 28.2959 159.513 28.3577C159.658 28.4195 159.788 28.5103 159.896 28.6243C160.011 28.731 160.103 28.8609 160.165 29.0054C160.227 29.1499 160.258 29.3059 160.256 29.4631V30.1121C160.256 30.269 160.225 30.4245 160.163 30.5687C160.101 30.713 160.01 30.843 159.896 30.9508C159.786 31.0617 159.655 31.1497 159.511 31.2097C159.367 31.2697 159.212 31.3005 159.056 31.3003H158.866C158.84 31.2971 158.814 31.2997 158.79 31.3081C158.765 31.3165 158.743 31.3304 158.724 31.3487C158.706 31.367 158.692 31.3893 158.684 31.4138C158.675 31.4383 158.673 31.4644 158.676 31.49V33.7167C158.676 34.4223 158.676 34.9815 158.676 35.3942C158.659 35.7782 158.588 36.158 158.466 36.5225C158.386 36.8 158.25 37.0583 158.066 37.2814C157.845 37.4745 157.581 37.6115 157.296 37.6807C156.929 37.7933 156.55 37.8603 156.166 37.8804C155.776 37.8804 155.227 37.8804 154.507 37.8804H153.187C152.854 37.8583 152.539 37.7206 152.297 37.491C152.175 37.3813 152.078 37.2473 152.01 37.0978C151.943 36.9482 151.908 36.7863 151.907 36.6223L151.837 35.6238C151.837 35.6238 151.837 35.6238 151.777 35.544C151.717 35.4641 151.707 35.544 151.697 35.544C151.462 35.7198 151.17 35.8016 150.878 35.7736C150.73 35.7625 150.587 35.7213 150.456 35.6526C150.325 35.5839 150.21 35.4891 150.118 35.3742L148.798 33.8665C148.695 33.7544 148.616 33.6216 148.568 33.4771C148.52 33.3325 148.503 33.1793 148.518 33.0277C148.522 32.8753 148.561 32.7258 148.632 32.5908C148.703 32.4558 148.804 32.3388 148.928 32.2489L149.928 31.4102C149.933 31.3976 149.936 31.384 149.936 31.3702C149.936 31.3565 149.933 31.3429 149.928 31.3303C149.918 31.325 149.908 31.3222 149.898 31.3222C149.887 31.3222 149.877 31.325 149.868 31.3303H149.448C149.225 31.3408 149.004 31.2846 148.814 31.169C148.623 31.0534 148.471 30.8835 148.378 30.6813C148.328 30.5814 148.258 30.5714 148.188 30.6813C148.026 30.8188 147.834 30.9177 147.628 30.9708L147.448 31.0307H147.268C147.216 31.0405 147.17 31.0696 147.138 31.1122C147.107 31.1548 147.092 31.2077 147.098 31.2604V36.7322C147.099 36.8891 147.067 37.0445 147.005 37.1888C146.943 37.333 146.852 37.4631 146.738 37.5709C146.631 37.6864 146.501 37.7781 146.357 37.8401C146.212 37.902 146.056 37.9328 145.899 37.9304H144.779C144.622 37.931 144.466 37.8994 144.321 37.8375C144.177 37.7757 144.047 37.685 143.939 37.5709C143.825 37.4631 143.734 37.333 143.672 37.1888C143.61 37.0445 143.578 36.8891 143.579 36.7322V32.1191C143.579 31.9993 143.519 31.9493 143.409 31.9693L141.819 32.2888C141.668 32.3238 141.51 32.323 141.359 32.2866C141.208 32.2502 141.068 32.1792 140.949 32.0792C140.825 31.9883 140.721 31.8718 140.645 31.7374C140.569 31.6031 140.523 31.454 140.509 31.3003L140.449 30.5015C140.418 30.1875 140.507 29.8732 140.699 29.6228C140.901 29.3732 141.184 29.2033 141.499 29.1436L143.409 28.7641C143.458 28.7567 143.503 28.7311 143.535 28.6923C143.566 28.6535 143.582 28.6043 143.579 28.5544V25.1196C143.582 25.0939 143.58 25.0678 143.571 25.0433C143.563 25.0188 143.549 24.9966 143.53 24.9782C143.512 24.9599 143.49 24.9461 143.465 24.9377C143.441 24.9293 143.415 24.9266 143.389 24.9299H143.179C143.059 24.9299 142.989 24.9299 142.989 25.0996C142.909 25.9783 142.839 26.644 142.779 27.0966C142.763 27.2412 142.715 27.3805 142.639 27.5047C142.563 27.6289 142.461 27.735 142.339 27.8155C142.217 27.8958 142.078 27.9481 141.933 27.9688C141.787 27.9895 141.64 27.9781 141.499 27.9354L141.249 27.8755C140.932 27.7803 140.659 27.5749 140.479 27.2963C140.295 27.0239 140.217 26.6937 140.26 26.3677C140.473 24.6703 140.619 22.7598 140.699 20.6363C140.706 20.4851 140.745 20.337 140.812 20.2012C140.879 20.0655 140.974 19.945 141.089 19.8475C141.206 19.747 141.34 19.6706 141.486 19.6226C141.632 19.5746 141.786 19.556 141.939 19.5679H142.089C142.25 19.5789 142.407 19.6217 142.551 19.6937C142.695 19.7656 142.824 19.8654 142.929 19.9873C143.146 20.2313 143.261 20.5496 143.249 20.876C143.255 20.9924 143.255 21.109 143.249 21.2254C143.249 21.3952 143.249 21.515 143.249 21.5849C143.249 21.6548 143.309 21.7746 143.419 21.7746C143.549 21.7746 143.609 21.7147 143.609 21.6049V19.8275C143.607 19.6703 143.637 19.5143 143.699 19.3698C143.761 19.2253 143.853 19.0955 143.969 18.9888C144.077 18.8747 144.207 18.784 144.352 18.7222C144.496 18.6603 144.652 18.6287 144.809 18.6293H145.978C146.136 18.6269 146.292 18.6577 146.437 18.7196C146.582 18.7816 146.711 18.8733 146.818 18.9888C146.934 19.0955 147.026 19.2253 147.088 19.3698C147.15 19.5143 147.181 19.6703 147.178 19.8275V21.6049C147.175 21.6279 147.177 21.6515 147.184 21.6736C147.192 21.6957 147.204 21.7158 147.221 21.7323C147.237 21.7488 147.257 21.7612 147.279 21.7685C147.302 21.7759 147.325 21.778 147.348 21.7746C147.505 21.774 147.661 21.8056 147.805 21.8674C147.95 21.9293 148.08 22.02 148.188 22.1341C148.304 22.2408 148.396 22.3706 148.458 22.5151C148.52 22.6596 148.55 22.8156 148.548 22.9728V23.7217C148.549 23.8786 148.517 24.034 148.455 24.1783C148.393 24.3226 148.302 24.4526 148.188 24.5604C148.08 24.6745 147.95 24.7652 147.805 24.8271C147.661 24.8889 147.505 24.9205 147.348 24.9199C147.325 24.9165 147.302 24.9186 147.279 24.926C147.257 24.9333 147.237 24.9457 147.221 24.9622C147.204 24.9787 147.192 24.9988 147.184 25.0209C147.177 25.043 147.175 25.0666 147.178 25.0896V27.6857C147.178 27.7956 147.238 27.8355 147.348 27.8155H147.408C147.437 27.8069 147.469 27.8069 147.498 27.8155C147.747 27.7491 148.012 27.7814 148.238 27.9054C148.35 27.9623 148.448 28.0426 148.525 28.1409C148.603 28.2391 148.658 28.3529 148.688 28.4746C148.688 28.5644 148.778 28.5844 148.858 28.5345C149.055 28.3983 149.288 28.3252 149.528 28.3248H154.757C154.887 28.3248 154.947 28.2649 154.947 28.155V27.4661C154.95 27.4404 154.947 27.4143 154.939 27.3898C154.93 27.3653 154.917 27.343 154.898 27.3247C154.88 27.3064 154.858 27.2925 154.833 27.2842C154.809 27.2758 154.782 27.2731 154.757 27.2764H149.528C149.371 27.2769 149.215 27.2454 149.071 27.1835C148.926 27.1217 148.796 27.031 148.688 26.9169C148.575 26.8086 148.486 26.6782 148.425 26.5339C148.365 26.3896 148.336 26.2345 148.338 26.0782V25.4291C148.336 25.2728 148.365 25.1177 148.425 24.9734C148.486 24.8291 148.575 24.6987 148.688 24.5904C148.796 24.4763 148.926 24.3856 149.071 24.3238C149.215 24.2619 149.371 24.2303 149.528 24.2309H152.157C152.267 24.2309 152.327 24.171 152.327 24.0412V23.1725C152.331 23.1494 152.328 23.1259 152.321 23.1038C152.314 23.0817 152.301 23.0616 152.285 23.0451C152.268 23.0286 152.248 23.0162 152.226 23.0088C152.204 23.0015 152.18 22.9994 152.157 23.0028H150.157C150 23.0034 149.845 22.9718 149.7 22.9099C149.556 22.8481 149.426 22.7574 149.318 22.6433C149.205 22.535 149.116 22.4046 149.055 22.2603C148.995 22.116 148.965 21.9609 148.968 21.8046V21.2554C148.964 21.1004 148.994 20.9464 149.054 20.8036C149.114 20.6608 149.204 20.5323 149.318 20.4266C149.426 20.3126 149.556 20.2218 149.7 20.16C149.845 20.0982 150 20.0666 150.157 20.0672H152.157C152.267 20.0672 152.327 20.0073 152.327 19.8775V19.3782C152.325 19.222 152.355 19.067 152.416 18.9228C152.476 18.7786 152.565 18.6481 152.677 18.5395C152.785 18.4254 152.915 18.3347 153.06 18.2728C153.204 18.211 153.36 18.1794 153.517 18.18H155.007C155.164 18.1776 155.32 18.2084 155.465 18.2703C155.61 18.3322 155.74 18.424 155.847 18.5395C155.962 18.6461 156.054 18.776 156.116 18.9205C156.178 19.065 156.209 19.221 156.206 19.3782V19.8775C156.203 19.9031 156.206 19.9292 156.214 19.9537C156.223 19.9782 156.237 20.0005 156.255 20.0188C156.273 20.0371 156.296 20.051 156.32 20.0594C156.345 20.0678 156.371 20.0704 156.396 20.0672H158.476C158.633 20.0666 158.789 20.0982 158.933 20.16C159.078 20.2218 159.208 20.3126 159.316 20.4266C159.431 20.5318 159.522 20.6599 159.584 20.8027C159.646 20.9455 159.677 21.0998 159.676 21.2554V21.8046C159.676 21.9615 159.645 22.1169 159.583 22.2612C159.521 22.4054 159.43 22.5355 159.316 22.6433C159.208 22.7574 159.078 22.8481 158.933 22.9099C158.789 22.9718 158.633 23.0034 158.476 23.0028H156.396C156.267 23.0028 156.206 23.0527 156.206 23.1725V23.9613C156.203 23.987 156.206 24.0131 156.214 24.0376C156.223 24.0621 156.237 24.0844 156.255 24.1027C156.273 24.121 156.296 24.1349 156.32 24.1432C156.345 24.1516 156.371 24.1543 156.396 24.151L159.056 24.171ZM154.897 34.156V31.51C154.9 31.4843 154.897 31.4582 154.889 31.4337C154.881 31.4092 154.867 31.387 154.848 31.3687C154.83 31.3504 154.808 31.3365 154.783 31.3281C154.759 31.3197 154.732 31.317 154.707 31.3203H151.157C151.157 31.3203 151.107 31.3203 151.087 31.3802C151.067 31.4401 151.087 31.4401 151.087 31.4501C151.687 32.1191 152.267 32.7781 152.807 33.4471C152.889 33.5403 152.951 33.65 152.987 33.7688C153.023 33.8877 153.033 34.0129 153.017 34.1361C153.004 34.2614 152.965 34.3827 152.903 34.4926C152.841 34.6024 152.757 34.6986 152.657 34.7751C152.652 34.7981 152.652 34.822 152.657 34.845C152.666 34.8503 152.676 34.853 152.687 34.853C152.698 34.853 152.708 34.8503 152.717 34.845H153.717C154.053 34.8735 154.391 34.8431 154.717 34.7551C154.847 34.7152 154.897 34.4955 154.897 34.156Z" fill="#252525"/>
<path d="M182.481 30.0427C182.602 30.0405 182.723 30.0633 182.834 30.1097C182.946 30.1561 183.047 30.2251 183.131 30.3122C183.216 30.3954 183.282 30.495 183.327 30.6049C183.372 30.7148 183.394 30.8327 183.391 30.9513V31.9997C183.392 32.1567 183.36 32.3121 183.298 32.4563C183.236 32.6006 183.145 32.7306 183.031 32.8384C182.921 32.9493 182.79 33.0373 182.646 33.0973C182.502 33.1573 182.347 33.1881 182.191 33.1879H177.772C177.772 33.1879 177.772 33.1879 177.772 33.2379C179.275 33.7118 180.754 34.2617 182.201 34.8854C182.342 34.9439 182.467 35.0337 182.568 35.1479C182.668 35.2621 182.741 35.3977 182.781 35.5444C182.827 35.6873 182.84 35.8388 182.819 35.9874C182.798 36.1361 182.744 36.2782 182.661 36.4031L182.101 37.3217C181.935 37.5971 181.671 37.8001 181.361 37.8909C181.21 37.9385 181.05 37.9551 180.892 37.9396C180.734 37.9242 180.581 37.877 180.442 37.801C178.982 37.1021 177.399 36.4364 175.692 35.804C175.548 35.7562 175.415 35.678 175.303 35.5747C175.191 35.4713 175.102 35.3453 175.043 35.2049C174.977 35.0695 174.943 34.921 174.943 34.7706C174.943 34.6201 174.977 34.4716 175.043 34.3362L175.483 33.3377C175.543 33.2279 175.483 33.168 175.383 33.168H171.323C171.304 33.1683 171.285 33.1741 171.269 33.1847C171.254 33.1953 171.241 33.2103 171.233 33.2279C171.227 33.2335 171.222 33.2404 171.218 33.2482C171.215 33.2559 171.213 33.2643 171.213 33.2728C171.213 33.2813 171.215 33.2897 171.218 33.2974C171.222 33.3052 171.227 33.3121 171.233 33.3177L171.653 34.1165C171.736 34.2549 171.79 34.4083 171.812 34.5677C171.834 34.7272 171.825 34.8895 171.783 35.0451C171.744 35.2019 171.673 35.3491 171.575 35.4778C171.477 35.6065 171.354 35.714 171.213 35.794C169.596 36.6771 167.886 37.3803 166.114 37.8909C165.951 37.9438 165.778 37.964 165.607 37.9503C165.435 37.9366 165.268 37.8893 165.115 37.811C164.806 37.681 164.559 37.4381 164.425 37.132L164.005 36.2334C163.936 36.1044 163.9 35.9603 163.9 35.814C163.9 35.6677 163.936 35.5236 164.005 35.3946C164.065 35.262 164.154 35.1442 164.264 35.0493C164.375 34.9545 164.505 34.8849 164.645 34.8454C166.161 34.4069 167.647 33.8699 169.094 33.2379H164.595C164.439 33.238 164.284 33.2072 164.14 33.1472C163.996 33.0872 163.865 32.9992 163.755 32.8884C163.644 32.7787 163.556 32.648 163.496 32.5041C163.436 32.3601 163.405 32.2056 163.405 32.0496V31.0012C163.4 30.8823 163.42 30.7637 163.465 30.6534C163.51 30.5431 163.578 30.4438 163.665 30.3622C163.746 30.2748 163.846 30.2056 163.956 30.1591C164.066 30.1127 164.185 30.09 164.305 30.0926C164.405 30.0926 164.455 30.0926 164.455 29.9528V21.6452C164.455 21.4893 164.485 21.3348 164.545 21.1908C164.606 21.0469 164.694 20.9162 164.805 20.8065C164.914 20.6917 165.046 20.6005 165.192 20.5387C165.338 20.4769 165.496 20.4457 165.654 20.447H169.194C169.219 20.4503 169.246 20.4476 169.27 20.4392C169.295 20.4309 169.317 20.417 169.335 20.3987C169.354 20.3804 169.368 20.3581 169.376 20.3336C169.384 20.3091 169.387 20.283 169.384 20.2573V19.6582C169.383 19.4997 169.414 19.3426 169.476 19.1966C169.538 19.0506 169.629 18.9188 169.744 18.8095C169.854 18.6986 169.984 18.6107 170.129 18.5507C170.273 18.4907 170.427 18.4599 170.584 18.46H171.583C171.74 18.4599 171.894 18.4907 172.038 18.5507C172.183 18.6107 172.313 18.6986 172.423 18.8095C172.535 18.9207 172.623 19.053 172.684 19.1988C172.744 19.3445 172.774 19.5006 172.773 19.6582V20.2573C172.773 20.3871 172.833 20.447 172.943 20.447H173.843C173.869 20.4503 173.895 20.4476 173.919 20.4392C173.944 20.4309 173.966 20.417 173.985 20.3987C174.003 20.3804 174.017 20.3581 174.025 20.3336C174.033 20.3091 174.036 20.283 174.033 20.2573V19.6582C174.031 19.4997 174.063 19.3426 174.125 19.1966C174.187 19.0506 174.278 18.9188 174.393 18.8095C174.503 18.6986 174.633 18.6107 174.778 18.5507C174.922 18.4907 175.076 18.4599 175.233 18.46H176.232C176.389 18.4599 176.543 18.4907 176.687 18.5507C176.832 18.6107 176.962 18.6986 177.072 18.8095C177.184 18.9207 177.272 19.053 177.332 19.1988C177.393 19.3445 177.423 19.5006 177.422 19.6582V20.2573C177.422 20.3871 177.482 20.447 177.592 20.447H181.161C181.318 20.4465 181.474 20.4781 181.619 20.5399C181.763 20.6017 181.893 20.6925 182.001 20.8065C182.115 20.9143 182.206 21.0444 182.268 21.1886C182.33 21.3329 182.362 21.4883 182.361 21.6452V29.9528C182.37 29.9783 182.385 30.0006 182.407 30.0167C182.428 30.0328 182.454 30.0419 182.481 30.0427ZM169.424 25.0501V23.6323C169.424 23.5125 169.364 23.4625 169.234 23.4625H168.334C168.311 23.4592 168.287 23.4612 168.265 23.4686C168.243 23.4759 168.223 23.4884 168.206 23.5048C168.19 23.5213 168.177 23.5414 168.17 23.5635C168.163 23.5857 168.161 23.6092 168.164 23.6323V25.0501C168.164 25.1799 168.224 25.2399 168.334 25.2399H169.234C169.261 25.244 169.29 25.2413 169.316 25.2318C169.343 25.2224 169.366 25.2066 169.385 25.1859C169.404 25.1651 169.417 25.14 169.424 25.1129C169.431 25.0857 169.431 25.0573 169.424 25.0302V25.0501ZM169.424 29.8729V28.3652C169.427 28.3395 169.424 28.3134 169.416 28.2889C169.407 28.2644 169.394 28.2421 169.375 28.2238C169.357 28.2055 169.335 28.1916 169.31 28.1832C169.286 28.1749 169.259 28.1722 169.234 28.1754H168.334C168.224 28.1754 168.164 28.2453 168.164 28.3652V29.8729C168.164 30.0027 168.224 30.0626 168.334 30.0626H169.234C169.261 30.0668 169.29 30.064 169.316 30.0546C169.343 30.0452 169.366 30.0294 169.385 30.0086C169.404 29.9879 169.417 29.9628 169.424 29.9356C169.431 29.9085 169.431 29.8801 169.424 29.8529V29.8729ZM174.043 25.0501V23.6323C174.043 23.5125 173.983 23.4625 173.853 23.4625H172.953C172.93 23.4592 172.906 23.4612 172.884 23.4686C172.862 23.4759 172.842 23.4884 172.826 23.5048C172.809 23.5213 172.797 23.5414 172.789 23.5635C172.782 23.5857 172.78 23.6092 172.783 23.6323V25.0501C172.783 25.1799 172.843 25.2399 172.953 25.2399H173.853C173.881 25.244 173.909 25.2413 173.935 25.2318C173.962 25.2224 173.985 25.2066 174.004 25.1859C174.023 25.1651 174.036 25.14 174.043 25.1129C174.05 25.0857 174.05 25.0573 174.043 25.0302V25.0501ZM174.043 29.8729V28.3652C174.046 28.3395 174.043 28.3134 174.035 28.2889C174.027 28.2644 174.013 28.2421 173.994 28.2238C173.976 28.2055 173.954 28.1916 173.929 28.1832C173.905 28.1749 173.879 28.1722 173.853 28.1754H172.953C172.843 28.1754 172.783 28.2453 172.783 28.3652V29.8729C172.783 30.0027 172.843 30.0626 172.953 30.0626H173.853C173.881 30.0668 173.909 30.064 173.935 30.0546C173.962 30.0452 173.985 30.0294 174.004 30.0086C174.023 29.9879 174.036 29.9628 174.043 29.9356C174.05 29.9085 174.05 29.8801 174.043 29.8529V29.8729ZM178.662 25.0501V23.6323C178.662 23.5125 178.602 23.4625 178.472 23.4625H177.572C177.549 23.4592 177.526 23.4612 177.503 23.4686C177.481 23.4759 177.461 23.4884 177.445 23.5048C177.428 23.5213 177.416 23.5414 177.408 23.5635C177.401 23.5857 177.399 23.6092 177.402 23.6323V25.0501C177.402 25.1799 177.462 25.2399 177.572 25.2399H178.472C178.5 25.244 178.528 25.2413 178.554 25.2318C178.581 25.2224 178.604 25.2066 178.623 25.1859C178.642 25.1651 178.655 25.14 178.662 25.1129C178.669 25.0857 178.669 25.0573 178.662 25.0302V25.0501ZM178.662 29.8729V28.3652C178.665 28.3395 178.662 28.3134 178.654 28.2889C178.646 28.2644 178.632 28.2421 178.613 28.2238C178.595 28.2055 178.573 28.1916 178.548 28.1832C178.524 28.1749 178.498 28.1722 178.472 28.1754H177.572C177.462 28.1754 177.402 28.2453 177.402 28.3652V29.8729C177.402 30.0027 177.462 30.0626 177.572 30.0626H178.472C178.5 30.0668 178.528 30.064 178.554 30.0546C178.581 30.0452 178.604 30.0294 178.623 30.0086C178.642 29.9879 178.655 29.9628 178.662 29.9356C178.669 29.9085 178.669 29.8801 178.662 29.8529V29.8729Z" fill="#252525"/>
<path d="M202.417 20.6361C202.581 20.6336 202.744 20.6652 202.896 20.7288C203.047 20.7924 203.184 20.8866 203.297 21.0055C203.415 21.1192 203.509 21.2558 203.572 21.4069C203.636 21.5579 203.668 21.7203 203.667 21.8842V35.6335C203.669 35.7976 203.638 35.9603 203.574 36.1116C203.51 36.2628 203.416 36.3992 203.297 36.5122C203.184 36.6325 203.048 36.7282 202.897 36.7935C202.745 36.8588 202.582 36.8922 202.417 36.8917H188.65C188.485 36.8922 188.322 36.8588 188.17 36.7935C188.019 36.7282 187.883 36.6325 187.77 36.5122C187.65 36.3997 187.554 36.2636 187.488 36.1124C187.423 35.9612 187.39 35.7982 187.39 35.6335V34.4054C187.391 34.2409 187.425 34.0782 187.49 33.9272C187.555 33.7762 187.651 33.64 187.77 33.5267C187.883 33.4078 188.02 33.3136 188.171 33.25C188.323 33.1864 188.486 33.1549 188.65 33.1573H199.298C199.428 33.1573 199.488 33.0974 199.488 32.9775V24.5701C199.488 24.4303 199.428 24.3704 199.298 24.3704H188.65C188.485 24.371 188.322 24.3376 188.17 24.2723C188.019 24.207 187.883 24.1113 187.77 23.991C187.65 23.8785 187.554 23.7424 187.488 23.5912C187.423 23.44 187.39 23.277 187.39 23.1123V21.8842C187.391 21.7197 187.425 21.557 187.49 21.406C187.555 21.255 187.651 21.1188 187.77 21.0055C187.883 20.8866 188.02 20.7924 188.171 20.7288C188.323 20.6652 188.486 20.6336 188.65 20.6361H202.417Z" fill="#252525"/>
<path d="M208.686 23.991C208.539 23.9271 208.408 23.8325 208.301 23.7136C208.194 23.5948 208.114 23.4544 208.066 23.302C208.016 23.1528 207.998 22.9947 208.014 22.8381C208.029 22.6816 208.078 22.53 208.156 22.3934L208.946 20.8557C209.101 20.5519 209.371 20.3221 209.696 20.2167C209.854 20.1507 210.024 20.1168 210.196 20.1168C210.367 20.1168 210.537 20.1507 210.696 20.2167C212.289 20.9356 213.852 21.6845 215.385 22.4633C215.532 22.5245 215.662 22.6198 215.764 22.7414C215.867 22.863 215.939 23.0073 215.975 23.1623C216.019 23.3166 216.032 23.4782 216.013 23.6376C215.994 23.7971 215.944 23.9511 215.865 24.0909L215.005 25.6685C214.93 25.8162 214.825 25.9472 214.698 26.0535C214.571 26.1599 214.424 26.2395 214.265 26.2876C214.101 26.3418 213.928 26.3618 213.756 26.3464C213.584 26.3309 213.417 26.2803 213.265 26.1977C211.565 25.3689 210.036 24.6301 208.686 23.991ZM224.613 22.5631C224.938 22.6356 225.222 22.8329 225.403 23.1123C225.495 23.2501 225.559 23.4052 225.59 23.5682C225.621 23.7313 225.618 23.8988 225.583 24.0609C224.926 27.5803 223.115 30.7809 220.434 33.1573C217.881 35.3074 214.368 36.6553 209.896 37.2012C209.73 37.2242 209.561 37.213 209.399 37.1684C209.237 37.1237 209.087 37.0466 208.956 36.9416C208.69 36.7358 208.515 36.4352 208.466 36.1028L208.206 34.4952C208.175 34.3385 208.179 34.1769 208.217 34.0217C208.255 33.8665 208.326 33.7214 208.426 33.5966C208.519 33.4628 208.639 33.35 208.779 33.2657C208.918 33.1814 209.074 33.1274 209.236 33.1073C212.207 32.8458 215.051 31.7828 217.464 30.0319C219.538 28.2342 220.978 25.8191 221.574 23.1423C221.612 22.9824 221.682 22.8318 221.78 22.6996C221.878 22.5675 222.001 22.4565 222.143 22.3734C222.28 22.287 222.433 22.2284 222.592 22.201C222.752 22.1735 222.915 22.1779 223.073 22.2137L224.613 22.5631Z" fill="#252525"/>
<path d="M246.409 25.9081C246.573 25.9057 246.736 25.9373 246.887 26.0009C247.039 26.0645 247.175 26.1587 247.288 26.2776C247.408 26.3906 247.502 26.527 247.566 26.6782C247.629 26.8295 247.661 26.9922 247.658 27.1563V28.3844C247.661 28.5484 247.629 28.7112 247.566 28.8624C247.502 29.0137 247.408 29.1501 247.288 29.2631C247.176 29.3833 247.04 29.4791 246.888 29.5444C246.737 29.6096 246.573 29.6431 246.409 29.6425H241.04C241.013 29.6393 240.985 29.6423 240.959 29.6512C240.934 29.6601 240.91 29.6747 240.891 29.6939C240.872 29.7131 240.857 29.7365 240.848 29.7622C240.839 29.7879 240.837 29.8152 240.84 29.8422C240.773 34.1557 238.39 36.865 233.691 37.97C233.364 38.0394 233.024 37.9785 232.741 37.8003C232.445 37.6244 232.221 37.348 232.112 37.0215L231.651 35.6635C231.598 35.5178 231.579 35.3616 231.596 35.2074C231.614 35.0531 231.667 34.905 231.751 34.7748C231.829 34.6361 231.933 34.5142 232.059 34.4164C232.184 34.3187 232.328 34.247 232.481 34.2057C233.615 33.9853 234.658 33.4367 235.481 32.628C236.118 31.841 236.454 30.8538 236.43 29.8422C236.43 29.7024 236.371 29.6425 236.241 29.6425H229.552C229.387 29.6431 229.224 29.6096 229.072 29.5444C228.921 29.4791 228.785 29.3833 228.672 29.2631C228.552 29.1506 228.456 29.0145 228.391 28.8633C228.325 28.7121 228.292 28.5491 228.292 28.3844V27.1662C228.292 27.0016 228.325 26.8386 228.391 26.6874C228.456 26.5362 228.552 26.4001 228.672 26.2876C228.785 26.1687 228.922 26.0745 229.073 26.0109C229.225 25.9473 229.388 25.9157 229.552 25.9181L246.409 25.9081ZM232.201 19.977H243.759C243.923 19.9746 244.086 20.0062 244.238 20.0698C244.389 20.1334 244.526 20.2276 244.639 20.3465C244.758 20.4595 244.852 20.5959 244.916 20.7471C244.98 20.8984 245.011 21.0611 245.009 21.2252V22.4533C245.012 22.6174 244.981 22.7804 244.917 22.9317C244.853 23.083 244.758 23.2193 244.639 23.332C244.526 23.4522 244.39 23.548 244.239 23.6133C244.087 23.6785 243.924 23.7119 243.759 23.7114H232.191C232.026 23.7119 231.863 23.6785 231.712 23.6133C231.561 23.548 231.424 23.4522 231.312 23.332C231.191 23.2198 231.095 23.0838 231.029 22.9325C230.964 22.7813 230.93 22.6181 230.932 22.4533V21.2252C230.931 21.0605 230.965 20.8975 231.03 20.7463C231.095 20.5951 231.191 20.459 231.312 20.3465C231.426 20.2263 231.564 20.1314 231.717 20.0677C231.871 20.0041 232.035 19.9732 232.201 19.977Z" fill="#252525"/>
<path d="M251.358 23.991C251.211 23.9271 251.08 23.8325 250.973 23.7136C250.866 23.5948 250.786 23.4544 250.738 23.302C250.688 23.1528 250.67 22.9947 250.686 22.8381C250.701 22.6816 250.75 22.53 250.828 22.3934L251.618 20.8557C251.773 20.5519 252.043 20.3221 252.368 20.2167C252.526 20.1507 252.696 20.1168 252.867 20.1168C253.039 20.1168 253.209 20.1507 253.367 20.2167C254.96 20.9356 256.523 21.6845 258.056 22.4633C258.203 22.5245 258.333 22.6198 258.436 22.7414C258.539 22.863 258.611 23.0073 258.646 23.1623C258.69 23.3166 258.704 23.4782 258.685 23.6376C258.666 23.7971 258.615 23.9511 258.536 24.0909L257.676 25.6685C257.601 25.8162 257.497 25.9472 257.37 26.0535C257.243 26.1599 257.095 26.2395 256.936 26.2876C256.773 26.3424 256.599 26.3628 256.427 26.3473C256.255 26.3318 256.088 26.2809 255.937 26.1977C254.237 25.3689 252.757 24.6301 251.358 23.991ZM267.285 22.5631C267.61 22.6356 267.893 22.8329 268.074 23.1123C268.167 23.2501 268.231 23.4052 268.262 23.5682C268.293 23.7313 268.29 23.8988 268.254 24.0609C267.598 27.5803 265.786 30.7809 263.105 33.1573C260.546 35.3074 257.033 36.6553 252.567 37.2012C252.401 37.2242 252.232 37.213 252.071 37.1684C251.909 37.1237 251.758 37.0466 251.628 36.9416C251.362 36.7358 251.186 36.4352 251.138 36.1028L250.878 34.4952C250.847 34.3391 250.85 34.1784 250.887 34.0235C250.923 33.8686 250.991 33.7232 251.088 33.5966C251.184 33.4633 251.306 33.3511 251.447 33.267C251.588 33.1828 251.745 33.1285 251.907 33.1073C254.879 32.8458 257.723 31.7828 260.136 30.0319C262.209 28.2342 263.65 25.8191 264.245 23.1423C264.283 22.9824 264.353 22.8318 264.451 22.6996C264.549 22.5675 264.673 22.4565 264.815 22.3734C264.952 22.287 265.104 22.2284 265.264 22.201C265.424 22.1735 265.587 22.1779 265.745 22.2137L267.285 22.5631Z" fill="#252525"/>
<path d="M276.753 27.0065C276.796 27.1602 276.807 27.3213 276.785 27.4795C276.762 27.6377 276.707 27.7894 276.623 27.9251C276.54 28.0675 276.428 28.1903 276.293 28.2851C276.158 28.3799 276.005 28.4445 275.843 28.4743L274.303 28.8238C274.144 28.8627 273.978 28.8686 273.817 28.8411C273.655 28.8136 273.501 28.7534 273.363 28.664C273.225 28.5818 273.104 28.472 273.01 28.3415C272.915 28.211 272.848 28.0625 272.814 27.9052C272.304 25.7783 271.884 24.1308 271.554 22.9126C271.504 22.7459 271.491 22.5705 271.515 22.3982C271.54 22.226 271.6 22.0609 271.694 21.9141C271.773 21.7751 271.881 21.6543 272.01 21.5597C272.139 21.4651 272.287 21.3987 272.443 21.365L273.873 21.0554C274.199 20.9831 274.539 21.0404 274.823 21.2152C274.968 21.2931 275.094 21.3997 275.196 21.5285C275.297 21.6574 275.371 21.8056 275.413 21.9641C275.823 23.5816 276.273 25.2292 276.753 27.0065ZM288.75 20.4563C289.089 20.4803 289.406 20.6299 289.64 20.8757C289.758 20.9925 289.849 21.1331 289.908 21.2882C289.966 21.4432 289.991 21.609 289.98 21.7743C289.96 24.0652 289.661 26.3452 289.09 28.5642C288.643 30.2865 287.82 31.8889 286.681 33.2571C285.592 34.5283 284.223 35.5298 282.681 36.1827C280.79 36.9444 278.801 37.4352 276.773 37.6405C276.597 37.6672 276.418 37.658 276.246 37.6133C276.074 37.5687 275.913 37.4896 275.773 37.3809C275.633 37.2838 275.513 37.1596 275.422 37.0154C275.331 36.8713 275.27 36.7104 275.243 36.5422L274.963 35.1543C274.933 34.9982 274.936 34.8374 274.972 34.6825C275.008 34.5277 275.076 34.3822 275.173 34.2556C275.263 34.1212 275.381 34.0078 275.519 33.9233C275.657 33.8388 275.812 33.7853 275.973 33.7664C277.532 33.579 279.061 33.1931 280.522 32.6181C281.687 32.1417 282.716 31.3874 283.521 30.4214C284.36 29.3801 284.948 28.1606 285.241 26.8567C285.632 25.1096 285.83 23.3249 285.831 21.5347C285.837 21.3736 285.876 21.2155 285.944 21.0696C286.013 20.9238 286.11 20.7933 286.231 20.686C286.47 20.4678 286.787 20.353 287.111 20.3665L288.75 20.4563ZM279.752 20.4563C279.921 20.4133 280.098 20.4061 280.27 20.4354C280.442 20.4646 280.606 20.5296 280.752 20.6261C280.897 20.7088 281.024 20.8207 281.124 20.9548C281.223 21.0888 281.294 21.2421 281.332 21.4049C281.822 23.1722 282.272 24.8697 282.681 26.4773C282.726 26.6298 282.736 26.7901 282.712 26.9471C282.688 27.1041 282.63 27.2538 282.542 27.3859C282.461 27.525 282.351 27.6452 282.22 27.7382C282.089 27.8313 281.94 27.895 281.782 27.9251L280.242 28.2746C280.081 28.3147 279.913 28.3204 279.749 28.2911C279.585 28.2619 279.43 28.1984 279.292 28.1048C279.01 27.9226 278.806 27.6411 278.722 27.316C278.542 26.6071 278.093 24.9296 277.373 22.2636C277.331 22.1097 277.321 21.9489 277.343 21.791C277.365 21.6331 277.42 21.4813 277.503 21.345C277.584 21.2086 277.692 21.0903 277.821 20.9976C277.95 20.9048 278.097 20.8396 278.252 20.8058L279.752 20.4563Z" fill="#252525"/>
</g>
<g clip-path="url(#clip2)">
<path d="M2.01 2.17999C1.81648 1.88538 1.48214 1.71441 1.13 1.72999H0.400002C0.28785 1.72147 0.182938 1.78604 0.140002 1.88999C0.0749962 1.97573 0.0749962 2.09425 0.140002 2.17999L4.85 8.76999C5.04166 9.06147 5.37136 9.23201 5.72 9.21999H6.46C6.5714 9.22548 6.6747 9.16191 6.72 9.05999C6.77892 8.9723 6.77892 8.85768 6.72 8.76999L2.01 2.17999ZM16.39 0.709992C16.0223 0.693881 15.6631 0.823211 15.39 1.06999C15.1248 1.30079 14.9539 1.62119 14.91 1.96999C14.9 2.01582 14.8565 2.04628 14.81 2.03999H9.64C9.49433 2.04153 9.35478 2.09878 9.25 2.19999C9.14504 2.30228 9.08712 2.44346 9.09 2.58999V2.97999C9.08712 3.12652 9.14504 3.26771 9.25 3.36999C9.35229 3.47495 9.49347 3.53288 9.64 3.52999H14.74C14.8 3.52999 14.82 3.52999 14.81 3.61999C14.756 4.76059 14.2989 5.845 13.52 6.67999C12.6072 7.44933 11.4714 7.90505 10.28 7.97999C10.1396 7.99936 10.0132 8.07522 9.93 8.18999C9.8417 8.30316 9.80868 8.44991 9.84 8.58999L9.9 8.95999C9.93245 9.10566 10.018 9.23402 10.14 9.31999C10.2595 9.41165 10.4109 9.4513 10.56 9.42999C12.0837 9.32234 13.532 8.72617 14.69 7.72999C15.7267 6.67288 16.3479 5.27773 16.44 3.79999C16.44 3.73999 16.44 3.70999 16.52 3.70999C16.9019 3.69847 17.2628 3.53248 17.52 3.24999C17.7833 2.9846 17.9276 2.62374 17.92 2.24999C17.9197 1.87182 17.7643 1.51033 17.49 1.24999C17.2258 0.91056 16.8202 0.711443 16.39 0.709992ZM16.84 2.61999C16.7194 2.73666 16.5578 2.8013 16.39 2.79999C16.2216 2.80471 16.0587 2.73956 15.94 2.61999C15.8224 2.5 15.7576 2.33799 15.76 2.16999C15.7576 2.00199 15.8224 1.83999 15.94 1.71999C16.0587 1.60042 16.2216 1.53527 16.39 1.53999C16.5578 1.53868 16.7194 1.60332 16.84 1.71999C16.9576 1.83999 17.0224 2.00199 17.02 2.16999C17.0224 2.33799 16.9576 2.5 16.84 2.61999ZM26.3 4.45999L25.87 4.29999C25.7344 4.25028 25.5856 4.25028 25.45 4.29999C25.3215 4.36012 25.2211 4.46761 25.17 4.59999C24.8438 5.47842 24.3043 6.26194 23.6 6.87999C22.8725 7.43344 22.0085 7.77906 21.1 7.87999C21.1 7.87999 21.1 7.87999 21.04 7.87999C21.031 7.86101 21.031 7.83898 21.04 7.81999V2.06999C21.0413 1.92464 20.9792 1.78593 20.87 1.68999C20.7677 1.58503 20.6265 1.52711 20.48 1.52999H19.89C19.746 1.52484 19.607 1.58337 19.51 1.68999C19.4034 1.78696 19.3449 1.92596 19.35 2.06999V8.82999C19.3467 8.97954 19.4045 9.12396 19.51 9.22999C19.6085 9.33956 19.7535 9.39533 19.9 9.37999C21.374 9.43077 22.8347 9.08545 24.13 8.37999C25.2815 7.60097 26.1567 6.47723 26.63 5.16999C26.6903 5.03649 26.6903 4.88349 26.63 4.74999C26.5651 4.61168 26.4455 4.50662 26.3 4.45999ZM35.46 7.81999C33.3108 7.47786 31.144 7.25751 28.97 7.15999C28.8228 7.14774 28.6774 7.19865 28.57 7.29999C28.4548 7.39224 28.3884 7.53239 28.39 7.67999V8.12999C28.3712 8.27306 28.4191 8.41684 28.52 8.51999C28.6132 8.63405 28.7527 8.70015 28.9 8.69999C31.0464 8.81254 33.1857 9.03282 35.31 9.35999C35.4533 9.39023 35.6026 9.35745 35.72 9.26999C35.8385 9.18714 35.9123 9.05437 35.92 8.90999L35.97 8.45999C35.9805 8.31025 35.938 8.16159 35.85 8.03999C35.754 7.91826 35.6139 7.83923 35.46 7.81999ZM34.5 4.79999C32.9661 4.55526 31.4208 4.38838 29.87 4.29999C29.723 4.289 29.5781 4.33973 29.47 4.43999C29.3563 4.53574 29.2846 4.6721 29.27 4.81999V5.25999C29.2575 5.40542 29.3044 5.54971 29.4 5.65999C29.4923 5.77523 29.6324 5.84161 29.78 5.83999C31.2667 5.93333 32.7867 6.10332 34.34 6.34999C34.4816 6.37854 34.6285 6.34181 34.74 6.24999C34.8571 6.16452 34.9333 6.03402 34.95 5.88999L35.01 5.44999C35.0291 5.30103 34.9897 5.15047 34.9 5.02999C34.8042 4.90131 34.6594 4.81804 34.5 4.79999ZM29.29 3.06999C31.07 3.14999 32.96 3.31333 34.96 3.55999C35.1058 3.57855 35.2531 3.53904 35.37 3.44999C35.4868 3.36117 35.5597 3.22635 35.57 3.07999V2.66999C35.5801 2.52649 35.5374 2.38424 35.45 2.26999C35.3645 2.15286 35.234 2.07674 35.09 2.05999C33.15 1.81999 31.22 1.64999 29.32 1.56999C29.176 1.55936 29.0343 1.61024 28.93 1.70999C28.8238 1.80909 28.7594 1.94501 28.75 2.08999V2.49999C28.7394 2.64395 28.7902 2.78566 28.89 2.88999C28.9875 3.00965 29.1358 3.07635 29.29 3.06999ZM41.25 3.91999H40.77C40.6252 3.92127 40.4875 3.98288 40.39 4.08999C40.2839 4.18817 40.2225 4.32544 40.22 4.46999C40.2329 5.23697 40.118 6.00075 39.88 6.72999C39.6643 7.25028 39.2806 7.68332 38.79 7.95999C38.664 8.03472 38.5738 8.15744 38.54 8.29999C38.5074 8.43405 38.5328 8.57564 38.61 8.68999L38.84 9.02999C38.9245 9.15748 39.0524 9.24989 39.2 9.28999C39.3487 9.33148 39.5079 9.30977 39.64 9.22999C40.3483 8.83605 40.9202 8.23623 41.28 7.50999C41.6461 6.55338 41.8194 5.53383 41.79 4.50999C41.7991 4.36731 41.7441 4.228 41.64 4.12999C41.546 4.00744 41.404 3.931 41.25 3.91999Z" fill="#252525"/>
<path d="M45.29 1.85H38.42C38.2735 1.84712 38.1323 1.90504 38.03 2.01C37.9256 2.1085 37.8675 2.24646 37.87 2.39V2.67C37.8675 2.81354 37.9256 2.9515 38.03 3.05C38.1313 3.15765 38.2722 3.21909 38.42 3.22H44.07C44.13 3.22 44.14 3.22 44.07 3.3C43.7718 3.95591 43.3019 4.51907 42.71 4.93C42.5929 5.01547 42.5168 5.14597 42.5 5.29C42.4804 5.42659 42.5204 5.56503 42.61 5.67L42.87 5.99C42.9643 6.10871 43.1001 6.18731 43.25 6.21C43.3996 6.24229 43.5559 6.20958 43.68 6.12C44.5157 5.50927 45.1747 4.68809 45.59 3.74C45.7271 3.40015 45.795 3.03641 45.79 2.67V2.39C45.7887 2.24519 45.7271 2.10747 45.62 2.01C45.5331 1.91836 45.4158 1.86149 45.29 1.85ZM53.3 4.88C53.2358 4.7508 53.1251 4.65074 52.99 4.6C52.8565 4.53968 52.7035 4.53968 52.57 4.6L52.13 4.79C51.9937 4.84738 51.8882 4.96012 51.84 5.1C51.7801 5.2301 51.7801 5.3799 51.84 5.51L52.54 7.05C52.54 7.05 52.54 7.13 52.49 7.15C51.49 7.28 50.37 7.41 49.15 7.52C49.15 7.52 49.09 7.52 49.15 7.45C49.7508 5.75055 50.2648 4.02165 50.69 2.27C50.7224 2.12947 50.6972 1.98184 50.62 1.86C50.539 1.73937 50.4129 1.65646 50.27 1.63L49.75 1.54C49.6036 1.50938 49.451 1.54207 49.33 1.63C49.2025 1.70994 49.1097 1.83486 49.07 1.98C48.6005 3.87041 48.0364 5.73608 47.38 7.57C47.3608 7.62071 47.3141 7.65577 47.26 7.66H46.96C46.8088 7.67538 46.6675 7.74249 46.56 7.85C46.4601 7.95885 46.4063 8.10226 46.41 8.25V8.55C46.4194 8.69498 46.4838 8.8309 46.59 8.93C46.6903 9.03693 46.8339 9.09218 46.98 9.08C48.98 8.98667 51.03 8.79 53.13 8.49C53.18 8.49 53.21 8.49 53.24 8.56C53.2584 8.61216 53.2819 8.6624 53.31 8.71C53.3343 8.76508 53.3543 8.82191 53.37 8.88C53.4272 9.01872 53.5395 9.12741 53.68 9.18C53.8135 9.24032 53.9665 9.24032 54.1 9.18L54.57 8.99C54.7062 8.94505 54.8158 8.84273 54.87 8.71C54.9245 8.5753 54.9245 8.4247 54.87 8.29C54.35 7.15 53.83 6.01 53.3 4.88ZM64.64 3.48C63.605 2.93347 62.6411 2.26177 61.77 1.48C61.5149 1.2345 61.1741 1.09818 60.82 1.1H59.95C59.597 1.09335 59.2556 1.22631 59 1.47C58.1325 2.25165 57.1719 2.92338 56.14 3.47C56.0024 3.53591 55.8977 3.65509 55.85 3.8C55.7953 3.94156 55.7953 4.09844 55.85 4.24L55.97 4.49C56.0274 4.62051 56.1359 4.72174 56.27 4.77C56.4011 4.825 56.5489 4.825 56.68 4.77C57.04 4.58 57.33 4.42 57.55 4.28H57.6C57.5987 4.42536 57.6608 4.56407 57.77 4.66C57.8723 4.76496 58.0135 4.82288 58.16 4.82H62.64C62.7865 4.82288 62.9277 4.76496 63.03 4.66C63.1392 4.56407 63.2013 4.42536 63.2 4.28C63.2 4.22 63.2 4.2 63.2 4.28C63.46 4.44 63.75 4.6 64.09 4.78C64.2178 4.83447 64.3622 4.83447 64.49 4.78C64.6273 4.73304 64.7394 4.63184 64.8 4.5L64.92 4.25C64.9751 4.11196 64.9751 3.95804 64.92 3.82C64.8792 3.67202 64.7774 3.54839 64.64 3.48ZM62.19 3.65H58.64C58.64 3.65 58.59 3.65 58.64 3.65C59.2694 3.18744 59.8613 2.67585 60.41 2.12C60.41 2.12 60.48 2.12 60.52 2.12C61.0704 2.67489 61.6658 3.18329 62.3 3.64C62.3 3.64 62.27 3.65 62.22 3.65H62.19ZM64.09 5.52H56.74C56.5922 5.52091 56.4513 5.58235 56.35 5.69C56.2424 5.79126 56.1809 5.93221 56.18 6.08V6.23C56.1809 6.37779 56.2424 6.51874 56.35 6.62C56.4513 6.72765 56.5922 6.78909 56.74 6.79H58.58C58.63 6.79 58.64 6.79 58.58 6.87C58.38 7.32 58.13 7.8 57.85 8.31C57.8235 8.35614 57.7731 8.38327 57.72 8.38H57.34H56.97C56.8275 8.38772 56.6941 8.45262 56.6 8.56C56.5 8.66774 56.4524 8.81404 56.47 8.96V9.11C56.4653 9.26109 56.532 9.4056 56.65 9.5C56.7635 9.59887 56.9095 9.65229 57.06 9.65C58.81 9.58 60.75 9.43 62.86 9.2C62.9149 9.18647 62.9711 9.21673 62.99 9.27L63.11 9.53C63.1672 9.66873 63.2795 9.77741 63.42 9.83C63.5547 9.88449 63.7053 9.88449 63.84 9.83L64.18 9.72C64.3135 9.67615 64.4224 9.57816 64.48 9.45C64.535 9.31887 64.535 9.17113 64.48 9.04C64.04 8.04 63.68 7.33 63.41 6.79H63.46H64.06C64.2078 6.78909 64.3488 6.72765 64.45 6.62C64.555 6.51771 64.6129 6.37653 64.61 6.23V6.07C64.6129 5.92347 64.555 5.78229 64.45 5.68C64.3544 5.58323 64.2259 5.5261 64.09 5.52ZM63.02 6.82L62.55 6.97C62.4139 7.01495 62.3042 7.11727 62.25 7.25C62.1904 7.37668 62.1904 7.52332 62.25 7.65C62.2705 7.70622 62.2973 7.75991 62.33 7.81C62.33 7.87 62.39 7.93 62.41 7.96C62.4147 7.97973 62.4147 8.00027 62.41 8.02C62.41 8.02 62.41 8.02 62.36 8.02C61.36 8.12 60.45 8.19 59.67 8.25C59.93 7.76333 60.15 7.31333 60.33 6.9C60.3436 6.85667 60.3847 6.82792 60.43 6.83H63.08L63.02 6.82ZM67.37 3.44H73.31C73.4536 3.44253 73.5915 3.38444 73.69 3.28C73.8019 3.18179 73.8642 3.03883 73.86 2.89V1.71C73.8641 1.56407 73.8015 1.42423 73.69 1.33C73.5915 1.22556 73.4536 1.16747 73.31 1.17H67.37C67.2267 1.16869 67.0892 1.22658 66.99 1.33C66.8829 1.42747 66.8213 1.56519 66.82 1.71V2.89C66.8209 3.03779 66.8824 3.17874 66.99 3.28C67.0892 3.38342 67.2267 3.44131 67.37 3.44ZM68.37 2.34C68.3667 2.31525 68.3751 2.29037 68.3927 2.27271C68.4104 2.25505 68.4353 2.24665 68.46 2.25H72.29C72.34 2.25 72.37 2.25 72.37 2.34V2.56C72.3735 2.5821 72.3662 2.60452 72.3504 2.62034C72.3345 2.63616 72.3121 2.64347 72.29 2.64H68.46C68.4 2.64 68.37 2.64 68.37 2.56V2.34ZM74.4 8.78C74.07 8.64 73.63 8.48 73.08 8.31H73.68C73.8278 8.30909 73.9688 8.24765 74.07 8.14C74.1777 8.03874 74.2391 7.89779 74.24 7.75V4.28C74.2391 4.13221 74.1777 3.99126 74.07 3.89C73.9677 3.78504 73.8265 3.72712 73.68 3.73H66.98C66.8335 3.72712 66.6923 3.78504 66.59 3.89C66.4824 3.99126 66.4209 4.13221 66.42 4.28V7.75C66.4209 7.89779 66.4824 8.03874 66.59 8.14C66.6913 8.24765 66.8322 8.30909 66.98 8.31H67.76C67.2819 8.48913 66.7945 8.64268 66.3 8.77C66.1679 8.7984 66.0567 8.88729 66 9.01C65.9453 9.13075 65.9453 9.26925 66 9.39L66.07 9.53C66.1395 9.67174 66.2562 9.78487 66.4 9.85C66.5484 9.90516 66.7116 9.90516 66.86 9.85C67.6455 9.64024 68.4089 9.3556 69.14 9C69.2623 8.94245 69.3561 8.83784 69.4 8.71C69.45 8.58827 69.45 8.45173 69.4 8.33C69.4 8.33 69.4 8.26 69.45 8.26H71.25H71.3C71.2404 8.38668 71.2404 8.53332 71.3 8.66C71.3457 8.7964 71.4596 8.89886 71.6 8.93C72.39 9.2 73.1 9.47 73.74 9.75C73.8808 9.80889 74.0393 9.80889 74.18 9.75C74.3217 9.70344 74.4445 9.61222 74.53 9.49L74.64 9.33C74.7156 9.21454 74.734 9.07079 74.69 8.94C74.6202 8.84826 74.5149 8.79018 74.4 8.78ZM72.69 7.31C72.69 7.37 72.69 7.4 72.61 7.4H68.07C68.02 7.4 67.99 7.4 67.99 7.31V7.11C67.99 7.05 67.99 7.02 68.07 7.02H72.64C72.69 7.02 72.72 7.02 72.72 7.11L72.69 7.31ZM72.69 6.14C72.69 6.2 72.69 6.22 72.61 6.22H68.07C68.02 6.22 67.99 6.22 67.99 6.14V5.93C67.99 5.87 67.99 5.84 68.07 5.84H72.64C72.69 5.84 72.72 5.84 72.72 5.93L72.69 6.14ZM72.69 4.96C72.69 5.02 72.69 5.05 72.61 5.05H68.07C68.02 5.05 67.99 5.05 67.99 4.96V4.77C67.99 4.71 67.99 4.68 68.07 4.68H72.64C72.69 4.68 72.72 4.68 72.72 4.77L72.69 4.96ZM78.64 3.66H79.87C80.0157 3.65846 80.1552 3.60121 80.26 3.5C80.365 3.39771 80.4229 3.25653 80.42 3.11V2.88C80.4252 2.73597 80.3666 2.59697 80.26 2.5C80.1577 2.39504 80.0165 2.33712 79.87 2.34H78.98C78.93 2.34 78.9 2.34 78.92 2.26C78.94 2.18 78.92 2.11 78.98 1.99C79.04 1.87 78.98 1.78 78.98 1.72C79.0183 1.58617 78.9924 1.44218 78.91 1.33C78.8269 1.21522 78.7004 1.13937 78.56 1.12H78.24C78.0911 1.10091 77.9405 1.14034 77.82 1.23C77.695 1.31488 77.6059 1.44317 77.57 1.59C77.57 1.75 77.48 1.99 77.4 2.3C77.3904 2.34731 77.3483 2.38097 77.3 2.38H76.3C76.1535 2.37712 76.0123 2.43504 75.91 2.54C75.8008 2.63593 75.7387 2.77464 75.74 2.92V3.15C75.7409 3.29779 75.8024 3.43874 75.91 3.54C76.0148 3.64121 76.1544 3.69846 76.3 3.7H76.9C76.95 3.7 76.97 3.7 76.96 3.78C76.57 5.13 76.16 6.39 75.72 7.57C75.6601 7.7001 75.6601 7.8499 75.72 7.98C75.7786 8.11331 75.8914 8.21521 76.03 8.26L76.35 8.36C76.4872 8.41953 76.6429 8.41953 76.78 8.36C76.9149 8.2955 77.0191 8.18057 77.07 8.04C77.61 6.61 78.07 5.2 78.45 3.8C78.51 3.70667 78.5733 3.66 78.64 3.66ZM83.85 2.46C83.27 2.4 82.58 2.35 81.78 2.34C81.6339 2.32782 81.4903 2.38307 81.39 2.49C81.2824 2.59126 81.2209 2.73221 81.22 2.88V5.77C81.22 5.82 81.22 5.84 81.14 5.83C80.8876 5.7515 80.6242 5.71436 80.36 5.72C79.7239 5.67775 79.0934 5.86196 78.58 6.24C78.1618 6.58186 77.9285 7.1003 77.95 7.64C77.9348 8.2003 78.1919 8.73326 78.64 9.07C79.1497 9.44855 79.7761 9.63613 80.41 9.6C81.6 9.6 82.34 9.17 82.62 8.32C82.62 8.32 82.62 8.32 82.67 8.32L83.14 8.72C83.246 8.82366 83.3925 8.87494 83.54 8.86C83.6911 8.86476 83.8356 8.79806 83.93 8.68L84.11 8.49C84.2098 8.38567 84.2606 8.24395 84.25 8.1C84.2516 7.95171 84.1897 7.80981 84.08 7.71C83.6722 7.34896 83.2413 7.01492 82.79 6.71C82.7455 6.68687 82.7182 6.64016 82.72 6.59V3.85C82.72 3.8 82.72 3.78 82.79 3.78C83.13 3.78 83.43 3.8 83.69 3.84C83.8314 3.86321 83.9762 3.82703 84.09 3.74C84.2071 3.65453 84.2833 3.52403 84.3 3.38V3.14C84.3181 2.99734 84.2785 2.85337 84.19 2.74C84.1287 2.59711 84.002 2.49276 83.85 2.46ZM81.04 8.13C80.8524 8.29152 80.606 8.36762 80.36 8.34C80.1185 8.35464 79.879 8.28773 79.68 8.15C79.5202 8.03049 79.4302 7.83933 79.44 7.64C79.4361 7.44973 79.5211 7.26851 79.67 7.15C79.8746 7.0171 80.1166 6.95395 80.36 6.97C80.6332 6.97592 80.9008 7.04798 81.14 7.18C81.1904 7.19773 81.223 7.24665 81.22 7.3C81.2509 7.58883 81.1877 7.8799 81.04 8.13ZM90.24 4.38C89.267 4.40236 88.3217 4.7082 87.52 5.26C87.57 4.93 87.62 4.57 87.68 4.16C87.7017 4.01544 87.6577 3.86876 87.56 3.76C87.4724 3.64847 87.3415 3.57941 87.2 3.57H86.76C86.6115 3.55703 86.4639 3.60382 86.35 3.7C86.2385 3.79885 86.1644 3.93301 86.14 4.08C86.05 4.72 85.95 5.36 85.83 6.01C85.7994 6.15643 85.8321 6.30898 85.92 6.43C85.9963 6.55705 86.124 6.64464 86.27 6.67L86.6 6.74C86.9416 6.81332 87.2983 6.75625 87.6 6.58C88.3272 6.1106 89.1578 5.8257 90.02 5.75C90.91 5.75 91.35 6.1 91.35 6.75C91.3461 7.19383 91.0955 7.59861 90.7 7.8C90.1321 8.09076 89.4971 8.22535 88.86 8.19C88.42 8.19 87.86 8.19 87.17 8.1C87.0246 8.08749 86.8803 8.13439 86.77 8.23C86.6511 8.31699 86.5777 8.45287 86.57 8.6V8.83C86.559 8.97361 86.6017 9.11619 86.69 9.23C86.7828 9.34729 86.9208 9.41993 87.07 9.43C87.67 9.49 88.28 9.52 88.88 9.52C89.9861 9.58614 91.0875 9.32902 92.05 8.78C92.7405 8.35088 93.1574 7.59291 93.15 6.78C93.2075 6.10898 92.953 5.44883 92.46 4.99C91.8127 4.53621 91.0283 4.32066 90.24 4.38ZM87.53 2.93C88.77 3.06 90.05 3.13 91.37 3.15C91.514 3.15515 91.653 3.09662 91.75 2.99C91.8571 2.89253 91.9187 2.75481 91.92 2.61V2.38C91.9191 2.23221 91.8577 2.09126 91.75 1.99C91.6447 1.88964 91.5055 1.83253 91.36 1.83C90.21 1.83 88.99 1.73 87.7 1.6C87.5525 1.57942 87.4032 1.62312 87.29 1.72C87.1672 1.80167 87.0867 1.93342 87.07 2.08V2.32C87.0498 2.46445 87.0936 2.61055 87.19 2.72C87.2684 2.83513 87.392 2.9115 87.53 2.93Z" fill="#252525"/>
<path d="M103.02 7.82C102.998 7.66734 102.905 7.53397 102.77 7.46C102.639 7.36932 102.475 7.34013 102.32 7.38C101.336 7.61132 100.331 7.73868 99.32 7.76C98.79 7.785 98.2602 7.70689 97.76 7.53C97.41 7.37 97.24 7.16 97.24 6.91C97.24 6.66 97.49 6.26 97.99 5.73C98.0898 5.61765 98.1402 5.46992 98.13 5.32C98.1215 5.17069 98.0438 5.03389 97.92 4.95L97.41 4.58C97.2701 4.48183 97.1003 4.43582 96.93 4.45C96.7636 4.4596 96.6067 4.53092 96.49 4.65C96.0974 5.0455 95.7609 5.493 95.49 5.98C95.2979 6.32962 95.1949 6.72114 95.19 7.12C95.1923 7.87312 95.6174 8.5611 96.29 8.9C97.233 9.40021 98.294 9.63522 99.36 9.58C100.494 9.56712 101.624 9.43303 102.73 9.18C102.894 9.15357 103.037 9.05432 103.12 8.91C103.21 8.77465 103.239 8.60777 103.2 8.45L103.02 7.82ZM96.73 2.79H102.03C102.192 2.79041 102.347 2.72551 102.46 2.61C102.575 2.49615 102.639 2.34151 102.64 2.18V1.63C102.639 1.46849 102.575 1.31385 102.46 1.2C102.347 1.0845 102.192 1.0196 102.03 1.02H96.73C96.5678 1.01723 96.4119 1.08251 96.3 1.2C96.1854 1.31385 96.1207 1.46849 96.12 1.63V2.18C96.1207 2.34151 96.1854 2.49615 96.3 2.61C96.4119 2.7275 96.5678 2.79278 96.73 2.79ZM110.02 0.810003C108.627 0.742235 107.263 1.22332 106.22 2.15C105.259 3.04295 104.734 4.30919 104.78 5.62C104.754 6.54335 105.039 7.4487 105.59 8.19C105.968 8.81124 106.624 9.21021 107.35 9.26C107.728 9.26831 108.101 9.17506 108.43 8.99C108.801 8.73092 109.106 8.3884 109.32 7.99C109.682 7.36549 109.951 6.69182 110.12 5.99C110.395 4.92646 110.609 3.84802 110.76 2.76C110.76 2.7 110.81 2.67 110.86 2.7C111.338 2.84683 111.754 3.14959 112.04 3.56C112.337 3.99177 112.491 4.506 112.48 5.03C112.609 6.1036 111.959 7.118 110.93 7.45C110.779 7.50574 110.65 7.60713 110.56 7.74C110.471 7.86822 110.442 8.02867 110.48 8.18L110.63 8.82C110.659 8.98845 110.757 9.13718 110.9 9.23C111.032 9.32686 111.199 9.36319 111.36 9.33C112.258 9.1541 113.055 8.64278 113.59 7.9C114.16 7.05479 114.444 6.04874 114.4 5.03C114.441 3.8742 113.99 2.75518 113.16 1.95C112.307 1.16724 111.177 0.756953 110.02 0.810003ZM108.22 5.49C108.105 5.98516 107.941 6.46757 107.73 6.93C107.59 7.2 107.46 7.33 107.35 7.33C107.24 7.33 107.1 7.15 106.94 6.78C106.78 6.41423 106.698 6.01915 106.7 5.62C106.687 4.99681 106.869 4.38515 107.22 3.87C107.579 3.38903 108.084 3.03798 108.66 2.87C108.66 2.87 108.66 2.87 108.72 2.87C108.78 2.87 108.72 2.87 108.72 2.92C108.57 3.93 108.4 4.79 108.22 5.49ZM123.64 3.59C124.095 3.59615 124.532 3.4154 124.85 3.09C125.18 2.7746 125.365 2.33652 125.36 1.88C125.367 1.42301 125.182 0.983996 124.85 0.670003C124.535 0.34052 124.096 0.159007 123.64 0.170003C123.187 0.159337 122.751 0.341024 122.44 0.670003C122.108 0.983996 121.923 1.42301 121.93 1.88C121.925 2.33652 122.11 2.7746 122.44 3.09C122.754 3.41486 123.188 3.59576 123.64 3.59ZM123.12 1.35C123.254 1.20586 123.443 1.12582 123.64 1.13C123.84 1.12291 124.034 1.2032 124.17 1.35C124.317 1.48635 124.397 1.67977 124.39 1.88C124.392 2.07929 124.313 2.27078 124.17 2.41C124.031 2.55261 123.839 2.63209 123.64 2.63C123.444 2.62938 123.257 2.55011 123.12 2.41C122.977 2.27078 122.898 2.07929 122.9 1.88C122.893 1.67977 122.973 1.48635 123.12 1.35ZM122.39 3.85C121.898 3.27021 121.36 2.73174 120.78 2.24C120.429 2.04716 120.029 1.96032 119.63 1.99H119.21C118.876 2.01767 118.565 2.1714 118.34 2.42C117.791 3.08392 117.28 3.77836 116.81 4.5L115.64 6.18C115.552 6.31215 115.519 6.474 115.55 6.63C115.575 6.78681 115.666 6.92534 115.8 7.01L116.51 7.47C116.642 7.56846 116.811 7.60158 116.97 7.56C117.132 7.53591 117.277 7.44533 117.37 7.31C117.46 7.18 117.88 6.56 118.63 5.43C118.95 4.94 119.18 4.6 119.31 4.43C119.44 4.26 119.55 4.17 119.63 4.17C119.782 4.19483 119.92 4.27279 120.02 4.39C120.18 4.54 120.46 4.85 120.87 5.32C122.06 6.64 123.05 7.72 123.87 8.55C123.98 8.66227 124.133 8.72381 124.29 8.72C124.449 8.72 124.601 8.65495 124.71 8.54L125.38 7.87C125.498 7.75438 125.563 7.5952 125.56 7.43C125.56 7.26827 125.496 7.11322 125.38 7C124.453 6.06 123.457 5.01 122.39 3.85ZM134.15 4.07H127.15C127 4.06966 126.857 4.13552 126.76 4.25C126.654 4.3676 126.596 4.52148 126.6 4.68V5.49C126.594 5.64887 126.652 5.80353 126.76 5.92C126.857 6.03449 127 6.10034 127.15 6.1H134.15C134.3 6.10034 134.443 6.03449 134.54 5.92C134.648 5.80353 134.706 5.64887 134.7 5.49V4.68C134.704 4.52148 134.646 4.3676 134.54 4.25C134.443 4.13552 134.3 4.06966 134.15 4.07ZM137.52 2.47L139.95 2.93C140.108 2.9654 140.273 2.93662 140.41 2.85C140.552 2.76963 140.651 2.63043 140.68 2.47L140.8 1.88C140.837 1.72086 140.805 1.55334 140.71 1.42C140.623 1.28625 140.486 1.19269 140.33 1.16L137.88 0.690003C137.719 0.661566 137.554 0.697492 137.42 0.790003C137.291 0.886262 137.199 1.02399 137.16 1.18L137.05 1.77C137.009 1.92584 137.042 2.09207 137.14 2.22C137.225 2.35426 137.363 2.44541 137.52 2.47ZM139.38 5.44C139.535 5.47988 139.699 5.45068 139.83 5.36C139.966 5.27553 140.061 5.1376 140.09 4.98L140.21 4.44C140.248 4.28867 140.219 4.12822 140.13 4C140.052 3.85614 139.912 3.75648 139.75 3.73C138.75 3.53 137.98 3.38 137.36 3.27C137.201 3.23865 137.036 3.27097 136.9 3.36C136.759 3.44651 136.661 3.58796 136.63 3.75L136.51 4.28C136.469 4.43584 136.502 4.60207 136.6 4.73C136.685 4.86426 136.823 4.95541 136.98 4.98C137.64 5.07 138.4 5.24 139.38 5.44ZM143.07 1.39C143.113 1.48696 143.163 1.58055 143.22 1.67C143.285 1.80246 143.4 1.90334 143.54 1.95C143.673 2.01033 143.827 2.01033 143.96 1.95C144.099 1.89608 144.205 1.78202 144.25 1.64C144.31 1.49948 144.31 1.34053 144.25 1.2C144.25 1.14 144.17 1.04 144.1 0.920003C144.055 0.824152 144.005 0.730694 143.95 0.640003C143.881 0.501088 143.758 0.396362 143.61 0.350003C143.473 0.290474 143.317 0.290474 143.18 0.350003C143.05 0.420097 142.953 0.538704 142.91 0.680003C142.851 0.813776 142.851 0.966231 142.91 1.1C142.95 1.17 143 1.27 143.07 1.39ZM144.8 2.68L144.07 2.55C143.913 2.52319 143.751 2.55909 143.62 2.65C143.485 2.74273 143.389 2.88143 143.35 3.04C143.109 4.30208 142.446 5.44469 141.47 6.28C140.253 7.06085 138.854 7.51225 137.41 7.59C137.25 7.59921 137.103 7.68006 137.01 7.81C136.915 7.93562 136.879 8.09578 136.91 8.25L137.04 8.98C137.057 9.14508 137.144 9.29478 137.28 9.39C137.41 9.49274 137.577 9.53628 137.74 9.51C139.573 9.40706 141.339 8.78256 142.83 7.71C144.103 6.57087 144.962 5.04055 145.27 3.36C145.311 3.21055 145.278 3.05039 145.18 2.93C145.095 2.79574 144.957 2.7046 144.8 2.68ZM145.71 0.770003C145.65 0.630003 145.59 0.530003 145.56 0.460003C145.49 0.324147 145.367 0.222978 145.22 0.180003C145.076 0.119442 144.914 0.119442 144.77 0.180003C144.63 0.242875 144.524 0.363232 144.48 0.510003C144.426 0.648233 144.426 0.801773 144.48 0.940003C144.62 1.2 144.73 1.39 144.79 1.52C144.863 1.6562 144.984 1.75982 145.13 1.81C145.267 1.86953 145.423 1.86953 145.56 1.81C145.697 1.74832 145.802 1.63236 145.85 1.49C145.91 1.35285 145.91 1.19716 145.85 1.06L145.71 0.770003ZM151.42 1.59C150.156 1.52892 148.919 1.963 147.97 2.8C147.091 3.61113 146.609 4.76479 146.65 5.96C146.626 6.80104 146.887 7.62544 147.39 8.3C147.723 8.87977 148.323 9.255 148.99 9.3C149.34 9.31254 149.687 9.22588 149.99 9.05C150.328 8.8285 150.609 8.53043 150.81 8.18C151.129 7.61494 151.372 7.00953 151.53 6.38C151.776 5.41116 151.97 4.42973 152.11 3.44C152.11 3.39 152.11 3.37 152.21 3.39C152.64 3.53096 153.014 3.80391 153.28 4.17C153.546 4.5655 153.682 5.03372 153.67 5.51C153.785 6.48574 153.194 7.40673 152.26 7.71C152.122 7.75891 152.005 7.85438 151.93 7.98C151.848 8.09218 151.822 8.23617 151.86 8.37L151.99 8.96C152.022 9.11133 152.111 9.24419 152.24 9.33C152.357 9.41928 152.508 9.44887 152.65 9.41C153.457 9.25119 154.173 8.78964 154.65 8.12C155.172 7.35295 155.432 6.43715 155.39 5.51C155.429 4.45845 155.018 3.44019 154.26 2.71C153.504 1.96823 152.479 1.56422 151.42 1.59ZM149.78 5.84C149.676 6.28997 149.529 6.72873 149.34 7.15C149.21 7.4 149.09 7.52 148.99 7.52C148.89 7.52 148.76 7.35 148.62 7.02C148.477 6.68466 148.403 6.3244 148.4 5.96C148.385 5.39374 148.55 4.8373 148.87 4.37C149.184 3.90138 149.645 3.54982 150.18 3.37C150.199 3.361 150.221 3.361 150.24 3.37C150.131 4.20092 149.977 5.02542 149.78 5.84ZM164.28 1.13H157.64C157.478 1.1296 157.323 1.1945 157.21 1.31C157.095 1.42322 157.03 1.57827 157.03 1.74V2.34C157.031 2.50151 157.095 2.65615 157.21 2.77C157.323 2.88551 157.478 2.95041 157.64 2.95H162.82C162.845 2.94666 162.87 2.95506 162.887 2.97271C162.905 2.99037 162.913 3.01526 162.91 3.04V7.14C162.913 7.16475 162.905 7.18964 162.887 7.20729C162.87 7.22495 162.845 7.23335 162.82 7.23H157.64C157.478 7.2296 157.323 7.2945 157.21 7.41C157.093 7.52186 157.027 7.6778 157.03 7.84V8.43C157.027 8.5922 157.093 8.74815 157.21 8.86C157.323 8.97551 157.478 9.04041 157.64 9.04H164.33C164.492 9.04278 164.648 8.9775 164.76 8.86C164.877 8.74815 164.943 8.5922 164.94 8.43V1.74C164.94 1.57827 164.875 1.42322 164.76 1.31C164.637 1.17871 164.459 1.1122 164.28 1.13ZM175.29 2.07L174.54 1.9C174.387 1.86217 174.225 1.88739 174.09 1.97C173.952 2.05637 173.852 2.19229 173.81 2.35C173.52 3.65509 172.819 4.83274 171.81 5.71C170.636 6.55978 169.254 7.07478 167.81 7.2C167.653 7.22312 167.512 7.3099 167.42 7.44C167.322 7.56402 167.282 7.72434 167.31 7.88L167.44 8.66C167.464 8.8224 167.55 8.96919 167.68 9.07C167.805 9.17344 167.97 9.21723 168.13 9.19C169.999 9.03912 171.782 8.34379 173.26 7.19C174.561 6.03078 175.44 4.47269 175.76 2.76C175.797 2.60086 175.765 2.43334 175.67 2.3C175.576 2.17904 175.441 2.09711 175.29 2.07ZM167.55 2.77C168.2 3.07 168.95 3.44 169.78 3.86C169.93 3.9251 170.1 3.9251 170.25 3.86C170.41 3.81645 170.544 3.70756 170.62 3.56L171.03 2.79C171.109 2.65401 171.131 2.492 171.09 2.34C171.049 2.18879 170.943 2.0639 170.8 2C170.05 1.62 169.29 1.26 168.52 0.910003C168.366 0.845556 168.194 0.845556 168.04 0.910003C167.88 0.954793 167.748 1.06837 167.68 1.22L167.29 1.97C167.225 2.10944 167.225 2.27056 167.29 2.41C167.326 2.55928 167.42 2.68844 167.55 2.77ZM178.98 2.63H184.64C184.802 2.63278 184.958 2.5675 185.07 2.45C185.185 2.33615 185.249 2.18151 185.25 2.02V1.42C185.253 1.2578 185.188 1.10186 185.07 0.990003C184.958 0.872509 184.802 0.807229 184.64 0.810003H179.02C178.858 0.807229 178.702 0.872509 178.59 0.990003C178.473 1.10186 178.407 1.2578 178.41 1.42V2.02C178.411 2.18151 178.475 2.33615 178.59 2.45C178.692 2.5577 178.832 2.62213 178.98 2.63ZM185.89 3.7H177.7C177.538 3.69723 177.382 3.76251 177.27 3.88C177.153 3.99186 177.087 4.1478 177.09 4.31V4.9C177.087 5.0622 177.153 5.21815 177.27 5.33C177.382 5.4475 177.538 5.51278 177.7 5.51H180.95C181.01 5.51 181.04 5.51 181.04 5.61C181.053 6.10356 180.89 6.58563 180.58 6.97C180.175 7.35814 179.669 7.6249 179.12 7.74C178.967 7.77455 178.836 7.87278 178.76 8.01C178.68 8.14235 178.662 8.30307 178.71 8.45L178.94 9.11C178.992 9.26791 179.099 9.4024 179.24 9.49C179.381 9.57524 179.549 9.60383 179.71 9.57C181.99 9.03 183.147 7.69667 183.18 5.57C183.177 5.54261 183.186 5.51524 183.206 5.49573C183.225 5.47623 183.253 5.46674 183.28 5.47H185.89C186.052 5.4693 186.206 5.40456 186.32 5.29C186.438 5.17815 186.503 5.0222 186.5 4.86V4.27C186.503 4.1078 186.438 3.95186 186.32 3.84C186.2 3.73997 186.046 3.68986 185.89 3.7ZM188.72 2.77C189.38 3.07 190.12 3.44 190.96 3.86C191.11 3.9251 191.28 3.9251 191.43 3.86C191.586 3.81294 191.716 3.70467 191.79 3.56L192.21 2.79C192.292 2.65457 192.31 2.49009 192.26 2.34C192.222 2.18737 192.115 2.06143 191.97 2C191.22 1.62 190.47 1.26 189.7 0.910003C189.546 0.845556 189.374 0.845556 189.22 0.910003C189.059 0.956981 188.924 1.06943 188.85 1.22L188.47 1.97C188.39 2.10235 188.372 2.26307 188.42 2.41C188.466 2.56627 188.575 2.69657 188.72 2.77ZM196.47 2.07L195.72 1.9C195.567 1.86217 195.405 1.88739 195.27 1.97C195.126 2.05026 195.024 2.18883 194.99 2.35C194.695 3.65326 193.995 4.82958 192.99 5.71C191.814 6.55624 190.433 7.07087 188.99 7.2C188.83 7.22278 188.686 7.30933 188.59 7.44C188.494 7.56505 188.458 7.72577 188.49 7.88L188.61 8.66C188.634 8.8251 188.724 8.97326 188.86 9.07C188.985 9.17344 189.15 9.21723 189.31 9.19C191.176 9.03952 192.956 8.34404 194.43 7.19C195.734 6.03178 196.617 4.47374 196.94 2.76C196.971 2.6008 196.939 2.43565 196.85 2.3C196.756 2.17904 196.621 2.09711 196.47 2.07ZM201.81 4.38C201.854 4.53895 201.954 4.67708 202.09 4.77C202.225 4.85993 202.392 4.88896 202.55 4.85L203.3 4.68C203.454 4.6492 203.589 4.55483 203.67 4.42C203.757 4.28716 203.783 4.12307 203.74 3.97C203.54 3.19 203.32 2.37 203.09 1.5C203.045 1.3411 202.941 1.20524 202.8 1.12C202.661 1.03904 202.498 1.01065 202.34 1.04L201.59 1.22C201.433 1.24426 201.296 1.34041 201.22 1.48C201.14 1.61213 201.119 1.77134 201.16 1.92C201.51 3.22 201.73 4.07 201.81 4.38ZM200.79 4.68C200.869 4.54401 200.891 4.382 200.85 4.23L200.2 1.81C200.155 1.65609 200.051 1.52645 199.91 1.45C199.774 1.3623 199.606 1.33684 199.45 1.38L198.75 1.53C198.599 1.56222 198.468 1.65659 198.39 1.79C198.307 1.92831 198.285 2.095 198.33 2.25C198.48 2.83 198.69 3.64 198.94 4.67C198.97 4.82491 199.064 4.95965 199.2 5.04C199.337 5.1246 199.502 5.15324 199.66 5.12L200.41 4.95C200.568 4.91598 200.706 4.81835 200.79 4.68Z" fill="#EE4949"/>
<path d="M206.7 1.06999H205.89C205.73 1.05947 205.574 1.1177 205.46 1.22999C205.339 1.33146 205.269 1.48182 205.27 1.63999C205.268 2.51129 205.17 3.37975 204.98 4.22999C204.838 4.86411 204.551 5.45645 204.14 5.95999C203.758 6.43278 203.263 6.80094 202.7 7.02999C201.991 7.3149 201.248 7.50651 200.49 7.59999C200.332 7.61448 200.189 7.69886 200.1 7.82999C200.004 7.95504 199.968 8.11576 200 8.26999L200.13 8.93999C200.158 9.1059 200.252 9.25355 200.39 9.34999C200.522 9.4557 200.692 9.50267 200.86 9.47999C201.845 9.38027 202.812 9.14122 203.73 8.76999C204.5 8.45835 205.186 7.96824 205.73 7.33999C206.28 6.67312 206.679 5.89538 206.9 5.05999C207.172 3.9806 207.316 2.87302 207.33 1.75999C207.342 1.59524 207.28 1.43368 207.16 1.31999C207.046 1.17861 206.881 1.08859 206.7 1.06999ZM218.29 2.82999C217.199 2.23798 216.19 1.50503 215.29 0.649992C215.025 0.382231 214.667 0.22802 214.29 0.219992H212.94C212.563 0.22802 212.205 0.382231 211.94 0.649992C211.042 1.50721 210.033 2.24038 208.94 2.82999C208.792 2.90317 208.68 3.03303 208.63 3.18999C208.565 3.3399 208.565 3.51009 208.63 3.65999L208.83 4.15999C208.888 4.30747 209.009 4.42121 209.16 4.46999C209.303 4.53547 209.467 4.53547 209.61 4.46999L210.61 3.91999V4.12999C210.61 4.28872 210.675 4.44052 210.79 4.54999C210.899 4.67224 211.056 4.74147 211.22 4.73999H212.49C212.56 4.73999 212.59 4.73999 212.59 4.82999V5.55999C212.59 5.61999 212.59 5.63999 212.49 5.63999H210.42C210.257 5.64102 210.101 5.70982 209.99 5.82999C209.875 5.93946 209.81 6.09126 209.81 6.24999V6.58999C209.81 6.74872 209.875 6.90052 209.99 7.00999C210.099 7.13333 210.256 7.2028 210.42 7.19999H212.49C212.56 7.19999 212.59 7.19999 212.59 7.28999V8.12999C212.59 8.12999 212.59 8.20999 212.49 8.20999H209.49C209.328 8.20722 209.172 8.2725 209.06 8.38999C208.944 8.50321 208.88 8.65826 208.88 8.81999V9.20999C208.88 9.36872 208.945 9.52052 209.06 9.62999C209.169 9.75333 209.326 9.8228 209.49 9.82007H217.79C217.951 9.82121 218.105 9.75177 218.21 9.62999C218.325 9.52052 218.39 9.36872 218.39 9.20999V8.81999C218.39 8.65826 218.326 8.50321 218.21 8.38999C218.101 8.27505 217.949 8.20999 217.79 8.20999H214.64C214.58 8.20999 214.55 8.20999 214.55 8.12999V7.28999C214.547 7.26525 214.555 7.24036 214.573 7.2227C214.59 7.20504 214.615 7.19664 214.64 7.19999H216.72C216.884 7.2028 217.041 7.13333 217.15 7.00999C217.265 6.90052 217.33 6.74872 217.33 6.58999V6.24999C217.33 6.09126 217.265 5.93946 217.15 5.82999C217.039 5.70982 216.883 5.64102 216.72 5.63999H214.64C214.58 5.63999 214.55 5.63999 214.55 5.55999V4.82999C214.547 4.80525 214.555 4.78036 214.573 4.7627C214.59 4.74504 214.615 4.73664 214.64 4.73999H215.97C216.134 4.7428 216.291 4.67333 216.4 4.54999C216.515 4.44052 216.58 4.28872 216.58 4.12999V3.95999H216.63C216.98 4.15999 217.29 4.32999 217.56 4.45999C217.707 4.52461 217.873 4.52461 218.02 4.45999C218.171 4.40661 218.292 4.28972 218.35 4.13999L218.55 3.63999C218.615 3.49009 218.615 3.3199 218.55 3.16999C218.507 3.02897 218.415 2.9082 218.29 2.82999ZM215.46 3.21999H211.64C211.64 3.21999 211.59 3.21999 211.64 3.16999C212.313 2.67858 212.942 2.12987 213.52 1.52999C213.52 1.47999 213.61 1.46999 213.65 1.52999C214.225 2.13948 214.854 2.69513 215.53 3.18999C215.53 3.18999 215.5 3.21999 215.46 3.21999ZM224.64 3.74999C224.58 3.74999 224.55 3.74999 224.57 3.65999C224.67 3.26999 224.76 2.84999 224.86 2.39999C224.931 2.3975 224.999 2.36903 225.05 2.31999C225.109 2.27074 225.142 2.19696 225.14 2.11999V1.45999C225.143 1.29573 225.073 1.13852 224.95 1.02999C224.841 0.915047 224.689 0.849992 224.53 0.849992H223.53C223.47 0.849992 223.44 0.849992 223.44 0.749992V0.659992C223.443 0.497793 223.377 0.341845 223.26 0.229992C223.147 0.114489 222.992 0.0495839 222.83 0.0499897H222.07C221.908 0.0495839 221.753 0.114489 221.64 0.229992C221.522 0.341845 221.457 0.497793 221.46 0.659992V0.749992C221.46 0.819992 221.46 0.849992 221.37 0.849992H220.47C220.308 0.847217 220.152 0.912498 220.04 1.02999C219.922 1.14185 219.857 1.29779 219.86 1.45999V2.06999C219.858 2.15561 219.89 2.23846 219.95 2.29999C220.011 2.36688 220.099 2.40344 220.19 2.39999C220.31 2.88666 220.41 3.30666 220.49 3.65999C220.49 3.71999 220.47 3.74999 220.43 3.74999H220.31C220.148 3.74722 219.992 3.8125 219.88 3.92999C219.764 4.04321 219.7 4.19826 219.7 4.35999V4.73999C219.697 4.90219 219.763 5.05814 219.88 5.16999C219.992 5.28749 220.148 5.35277 220.31 5.34999H224.64C224.802 5.35277 224.958 5.28749 225.07 5.16999C225.187 5.05814 225.253 4.90219 225.25 4.73999V4.35999C225.25 4.19826 225.186 4.04321 225.07 3.92999C224.958 3.8125 224.802 3.74722 224.64 3.74999ZM222.85 3.66999C222.84 3.72133 222.792 3.75621 222.74 3.74999H222.42C222.36 3.74999 222.33 3.74999 222.31 3.65999C222.2 3.14999 222.12 2.73999 222.04 2.44999C222.04 2.38999 222.04 2.35999 222.11 2.35999H223.04C223.1 2.35999 223.13 2.35999 223.11 2.44999C223.01 2.79999 222.92 3.20999 222.81 3.66999H222.85ZM224.44 5.77999H220.64C220.478 5.77722 220.322 5.8425 220.21 5.95999C220.095 6.07384 220.031 6.22848 220.03 6.38999V9.38999C220.03 9.54872 220.095 9.70052 220.21 9.80999C220.319 9.93333 220.476 10.0028 220.64 9.99999H221.64C221.717 10.0024 221.791 9.96919 221.84 9.90999C221.889 9.85859 221.917 9.79099 221.92 9.71999H223.12H223.17C223.169 9.78984 223.194 9.85761 223.24 9.90999C223.291 9.96694 223.364 9.99964 223.44 9.99999H224.37C224.534 10.0028 224.691 9.93333 224.8 9.80999C224.915 9.70052 224.98 9.54872 224.98 9.38999V6.38999C224.979 6.22848 224.915 6.07384 224.8 5.95999C224.705 5.85894 224.578 5.7951 224.44 5.77999ZM223.24 8.08999C223.243 8.11738 223.234 8.14476 223.214 8.16426C223.195 8.18377 223.167 8.19325 223.14 8.18999H222.05C221.98 8.18999 221.95 8.18999 221.95 8.08999V7.41999C221.95 7.35999 221.95 7.32999 222.05 7.32999H223.14C223.2 7.32999 223.24 7.32999 223.24 7.41999V8.08999ZM229.01 4.55999C228.981 4.51421 228.981 4.45577 229.01 4.40999C229.282 3.75756 229.516 3.08975 229.71 2.40999C229.831 2.02503 229.892 1.62358 229.89 1.21999V0.939992C229.891 0.775999 229.822 0.619318 229.7 0.509992C229.591 0.395047 229.439 0.32999 229.28 0.32999H226.11C225.948 0.329584 225.793 0.394489 225.68 0.509992C225.564 0.623206 225.5 0.778256 225.5 0.939992V9.34999C225.5 9.50872 225.565 9.66052 225.68 9.76999C225.789 9.89224 225.946 9.96147 226.11 9.96007H226.76C226.924 9.9628 227.081 9.89333 227.19 9.76999C227.305 9.66052 227.37 9.50872 227.37 9.34999V7.59999L227.53 8.29999C227.576 8.46624 227.674 8.61339 227.81 8.71999C227.942 8.8302 228.108 8.89039 228.28 8.88999H228.37C228.825 8.92918 229.274 8.76004 229.59 8.42999C229.89 7.96435 230.024 7.41118 229.97 6.85999C229.969 6.43651 229.88 6.01784 229.71 5.62999C229.539 5.23625 229.302 4.87444 229.01 4.55999ZM227.35 1.96999C227.35 1.90999 227.35 1.87999 227.45 1.87999H227.89C227.94 1.87999 227.97 1.87999 227.95 1.96999C227.809 2.61692 227.618 3.2521 227.38 3.86999L227.35 1.96999ZM227.98 7.20999C227.819 7.31133 227.628 7.35375 227.44 7.32999C227.415 7.33334 227.39 7.32494 227.373 7.30728C227.355 7.28962 227.347 7.26474 227.35 7.23999V4.99999C227.744 5.48533 227.984 6.07727 228.04 6.69999C228.077 6.87193 228.056 7.05142 227.98 7.20999Z" fill="#EE4949"/>
<path d="M240.07 7.57H239.87C239.73 7.54999 239.589 7.58994 239.48 7.68C239.373 7.77406 239.308 7.90746 239.3 8.05C239.3 8.19 239.3 8.29 239.3 8.36C239.31 8.40953 239.31 8.46047 239.3 8.51C239.3 8.51 239.3 8.57 239.3 8.58H238.95C238.9 8.58 238.86 8.58 238.85 8.53C238.841 8.44691 238.841 8.3631 238.85 8.28V7.28C238.85 7.23 238.85 7.21 238.93 7.21H239.7C239.848 7.20909 239.989 7.14765 240.09 7.04C240.198 6.93874 240.259 6.79779 240.26 6.65V1.79C240.261 1.64465 240.199 1.50594 240.09 1.41C239.988 1.30504 239.847 1.24712 239.7 1.25H235.7C235.554 1.24712 235.412 1.30504 235.31 1.41C235.201 1.50594 235.139 1.64465 235.14 1.79V6.19C234.9 5.86 234.63 5.52 234.34 5.19C234.315 5.14669 234.315 5.09332 234.34 5.05C234.455 4.822 234.558 4.58838 234.65 4.35C234.782 4.00896 234.846 3.6456 234.84 3.28V3.04C234.843 2.89347 234.785 2.75229 234.68 2.65C234.575 2.54879 234.436 2.49154 234.29 2.49H234.04C233.98 2.49 233.95 2.49 233.95 2.41V1.65C233.948 1.50433 233.891 1.36478 233.79 1.26C233.687 1.15424 233.547 1.09316 233.4 1.09H233.07C232.922 1.09091 232.781 1.15236 232.68 1.26C232.575 1.36229 232.517 1.50347 232.52 1.65V2.41C232.52 2.46 232.52 2.49 232.43 2.49H232.14C231.997 2.49204 231.861 2.54941 231.76 2.65C231.655 2.75229 231.597 2.89347 231.6 3.04V3.28C231.597 3.42653 231.655 3.56772 231.76 3.67C231.859 3.77444 231.996 3.83253 232.14 3.83H233.28H233.33C233.335 3.84634 233.335 3.86367 233.33 3.88C232.993 4.68761 232.46 5.39886 231.78 5.95C231.509 6.15096 231.377 6.48882 231.44 6.82L231.54 7.31C231.558 7.43358 231.643 7.53725 231.76 7.58C231.86 7.64594 231.99 7.64594 232.09 7.58L232.44 7.27V9.41C232.437 9.55653 232.495 9.69772 232.6 9.8C232.701 9.90765 232.842 9.96909 232.99 9.97H233.32C233.467 9.96685 233.607 9.90577 233.71 9.8C233.811 9.69523 233.868 9.55567 233.87 9.41V6.78L234.08 7.07C234.157 7.18544 234.282 7.25921 234.42 7.27C234.559 7.29294 234.7 7.24836 234.8 7.15L234.93 7.03C234.975 6.98772 235.015 6.94079 235.05 6.89C235.128 7.10765 235.339 7.24932 235.57 7.24H235.73C235.78 7.24 235.81 7.24 235.79 7.31C235.633 7.9356 235.152 8.42841 234.53 8.6C234.393 8.64696 234.281 8.74817 234.22 8.88C234.16 9.00668 234.16 9.15332 234.22 9.28L234.31 9.48C234.358 9.62491 234.462 9.74409 234.6 9.81C234.737 9.86953 234.893 9.86953 235.03 9.81C236.176 9.4676 237.009 8.47745 237.15 7.29C237.163 7.24468 237.203 7.21252 237.25 7.21H237.34C237.39 7.21 237.42 7.21 237.42 7.28V9.01C237.42 9.36 237.48 9.59 237.6 9.68C237.901 9.80313 238.227 9.85118 238.55 9.82H239.13H239.67C239.795 9.81387 239.919 9.79374 240.04 9.76C240.142 9.7363 240.236 9.68432 240.31 9.61C240.377 9.5306 240.428 9.43889 240.46 9.34C240.514 9.19828 240.551 9.05055 240.57 8.9C240.57 8.74 240.57 8.52 240.62 8.24C240.63 8.09009 240.58 7.94235 240.48 7.83C240.39 7.68552 240.239 7.58984 240.07 7.57ZM238.64 5.91C238.64 5.97 238.64 5.99 238.55 5.99H236.55C236.5 5.99 236.47 5.99 236.47 5.91V5.57C236.47 5.52 236.47 5.5 236.55 5.5H238.55C238.61 5.5 238.64 5.5 238.64 5.57V5.91ZM238.64 4.39C238.64 4.44 238.64 4.47 238.55 4.47H236.55C236.528 4.47347 236.506 4.46616 236.49 4.45035C236.474 4.43453 236.467 4.4121 236.47 4.39V4.07C236.47 4.01 236.47 3.98 236.55 3.98H238.55C238.575 3.97666 238.6 3.98506 238.617 4.00271C238.635 4.02037 238.643 4.04526 238.64 4.07V4.39ZM238.64 2.87C238.64 2.87 238.64 2.95 238.55 2.95H236.55C236.528 2.95347 236.506 2.94616 236.49 2.93035C236.474 2.91453 236.467 2.8921 236.47 2.87V2.53C236.47 2.47 236.47 2.44 236.55 2.44H238.55C238.575 2.43666 238.6 2.44506 238.617 2.46271C238.635 2.48037 238.643 2.50526 238.64 2.53V2.87ZM250.06 7.25C250.007 7.10948 249.899 6.99717 249.76 6.94C249.621 6.88957 249.469 6.88957 249.33 6.94L248.75 7.18C248.774 7.12249 248.774 7.05751 248.75 7C248.744 6.93385 248.707 6.87452 248.65 6.84C248.478 6.70271 248.297 6.57582 248.11 6.46H249.78C249.927 6.46289 250.068 6.40497 250.17 6.3C250.278 6.19874 250.339 6.05779 250.34 5.91V3.78C250.339 3.63222 250.278 3.49126 250.17 3.39C250.069 3.28236 249.928 3.22091 249.78 3.22H248.24C248.215 3.22335 248.19 3.21495 248.173 3.19729C248.155 3.17964 248.147 3.15475 248.15 3.13V2.87C248.15 2.87 248.15 2.79 248.24 2.79H249.99C250.137 2.79289 250.278 2.73497 250.38 2.63C250.485 2.52772 250.543 2.38653 250.54 2.24V2.07C250.543 1.92347 250.485 1.78229 250.38 1.68C250.278 1.57504 250.137 1.51712 249.99 1.52H248.23C248.17 1.52 248.15 1.52 248.15 1.44C248.149 1.30789 248.095 1.18168 248 1.09C247.909 0.994365 247.782 0.943201 247.65 0.950003H247.1C246.969 0.944529 246.841 0.995481 246.75 1.09C246.655 1.18168 246.601 1.30789 246.6 1.44C246.6 1.49 246.6 1.52 246.53 1.52H245.03C244.87 1.51198 244.715 1.57841 244.61 1.7C244.589 1.58141 244.52 1.47659 244.42 1.41C244.324 1.33353 244.203 1.29446 244.08 1.3H241.99C241.844 1.29712 241.702 1.35504 241.6 1.46C241.491 1.55594 241.429 1.69465 241.43 1.84V2.3C241.431 2.36842 241.46 2.43348 241.51 2.48C241.56 2.53171 241.628 2.56066 241.7 2.56V7.56C241.709 7.57547 241.709 7.59453 241.7 7.61C241.604 7.62724 241.518 7.68097 241.46 7.76C241.405 7.8354 241.377 7.92686 241.38 8.02V8.39C241.393 8.53278 241.466 8.66345 241.58 8.75C241.697 8.8387 241.847 8.8716 241.99 8.84L243.11 8.61C243.17 8.61 243.19 8.61 243.19 8.67V9.35C243.191 9.49779 243.252 9.63874 243.36 9.74C243.461 9.84765 243.602 9.90909 243.75 9.91C243.888 9.91014 244.021 9.85632 244.12 9.76C244.227 9.66594 244.292 9.53254 244.3 9.39C244.3 9.34 244.3 9.33 244.37 9.39L244.51 9.5C244.625 9.58559 244.773 9.61158 244.91 9.57C245.044 9.54312 245.154 9.44832 245.2 9.32C245.397 8.88591 245.551 8.4338 245.66 7.97V8.44C245.66 8.7 245.66 8.9 245.66 9.03C245.666 9.16662 245.693 9.30149 245.74 9.43C245.775 9.5298 245.829 9.62161 245.9 9.7C246 9.76504 246.112 9.80925 246.23 9.83C246.391 9.86869 246.555 9.89213 246.72 9.9H247.46C247.927 9.93254 248.395 9.87482 248.84 9.73C249.07 9.62 249.21 9.35 249.27 8.91C249.278 8.95944 249.295 9.00697 249.32 9.05C249.325 9.09653 249.325 9.14348 249.32 9.19C249.364 9.3235 249.462 9.43238 249.59 9.49C249.718 9.54447 249.862 9.54447 249.99 9.49L250.13 9.43C250.268 9.36787 250.378 9.25764 250.44 9.12C250.495 8.98196 250.495 8.82804 250.44 8.69C250.41 8.16 250.24 7.68 250.06 7.25ZM248.67 4.25C248.67 4.19 248.67 4.16 248.74 4.16H249.03C249.03 4.16 249.11 4.16 249.11 4.25V5.25C249.11 5.31 249.11 5.34 249.03 5.34H248.74C248.69 5.34 248.67 5.34 248.67 5.25V4.25ZM243.2 7.25C243.2 7.30155 243.161 7.34485 243.11 7.35H242.99H242.86C242.81 7.35 242.78 7.35 242.78 7.28V6.5C242.78 6.44 242.78 6.42 242.86 6.42H243.11C243.17 6.42 243.2 6.42 243.2 6.5V7.25ZM243.2 5.32C243.203 5.34475 243.195 5.36964 243.177 5.38729C243.16 5.40495 243.135 5.41335 243.11 5.41H242.86C242.81 5.41 242.78 5.41 242.78 5.32V4.58C242.777 4.5579 242.784 4.53548 242.8 4.51966C242.816 4.50384 242.838 4.49654 242.86 4.5H243.11C243.17 4.5 243.2 4.5 243.2 4.58V5.32ZM243.2 3.32C243.2 3.38 243.2 3.4 243.11 3.4H242.86C242.81 3.4 242.78 3.4 242.78 3.32V2.6C242.777 2.5779 242.784 2.55548 242.8 2.53966C242.816 2.52384 242.838 2.51654 242.86 2.52H243.11C243.17 2.52 243.2 2.52 243.2 2.6V3.32ZM247.2 4.22C247.2 4.16 247.2 4.13 247.28 4.13H247.56C247.62 4.13 247.64 4.13 247.64 4.22V5.22C247.64 5.28 247.64 5.31 247.56 5.31H247.28C247.23 5.31 247.2 5.31 247.2 5.22V4.22ZM246.98 6.45L246.81 6.7C246.78 6.74777 246.726 6.7748 246.67 6.77H245.98C245.892 6.76675 245.808 6.80353 245.75 6.87C245.685 6.93295 245.649 7.01969 245.65 7.11C245.65 7.11 245.65 7.11 245.6 7.11L245.15 6.96C245.022 6.90553 244.878 6.90553 244.75 6.96C244.623 7.02629 244.529 7.14207 244.49 7.28C244.49 7.46 244.38 7.66 244.3 7.9V2.49C244.364 2.49132 244.426 2.46595 244.47 2.42C244.47 2.42 244.54 2.42 244.56 2.42C244.659 2.58329 244.839 2.67926 245.03 2.67H246.52C246.542 2.66654 246.565 2.67384 246.58 2.68966C246.596 2.70548 246.604 2.7279 246.6 2.75V3.01C246.6 3.07 246.6 3.1 246.52 3.1H245.1C244.952 3.10091 244.811 3.16236 244.71 3.27C244.602 3.37126 244.541 3.51222 244.54 3.66V5.79C244.541 5.93779 244.602 6.07874 244.71 6.18C244.812 6.28497 244.954 6.34289 245.1 6.34H246.94C247.05 6.39 247.06 6.41 247.02 6.46L246.98 6.45ZM246.21 4.22V5.22C246.21 5.28 246.21 5.31 246.14 5.31H245.85C245.8 5.31 245.77 5.31 245.77 5.22V4.22C245.77 4.16 245.77 4.13 245.85 4.13H246.14C246.23 4.14 246.25 4.17 246.25 4.23L246.21 4.22ZM247.93 8.6C247.87 8.67 247.72 8.7 247.47 8.7C247.22 8.7 247.13 8.7 247.09 8.7C247.034 8.58874 247.013 8.46331 247.03 8.34V7.26C247.021 7.24453 247.021 7.22547 247.03 7.21C247.327 7.38973 247.611 7.59023 247.88 7.81C247.921 7.8446 247.943 7.89649 247.94 7.95C247.992 8.16603 248.003 8.39012 247.97 8.61L247.93 8.6ZM248.93 7.9L248.39 7.79C248.34 7.79 248.33 7.79 248.39 7.71L248.7 7.29C248.7 7.29 248.75 7.29 248.77 7.29C248.88 7.53 248.96 7.7 249.01 7.83C249.021 7.85295 249.016 7.88031 248.998 7.89829C248.98 7.91627 248.953 7.92096 248.93 7.91V7.9ZM258.7 8.23C258.586 8.14297 258.441 8.10679 258.3 8.13C258.094 8.14524 257.886 8.14524 257.68 8.13C257.092 8.16127 256.516 7.9642 256.07 7.58C255.655 7.1944 255.432 6.64549 255.46 6.08C255.462 5.32927 255.837 4.62855 256.46 4.21C257.351 3.61081 258.388 3.26515 259.46 3.21C259.606 3.19073 259.741 3.11981 259.84 3.01C259.94 2.90194 259.991 2.757 259.98 2.61V2.29C259.978 2.14814 259.917 2.01363 259.81 1.92C259.71 1.81307 259.566 1.75783 259.42 1.77C257.107 1.87 254.773 1.92667 252.42 1.94C252.275 1.93874 252.136 2.00079 252.04 2.11C251.931 2.20594 251.869 2.34465 251.87 2.49V2.8C251.867 2.94856 251.929 3.09097 252.04 3.19C252.149 3.28997 252.292 3.34375 252.44 3.34C253.58 3.34 254.62 3.34 255.57 3.28C255.034 3.60406 254.582 4.04934 254.25 4.58C253.948 5.05954 253.786 5.61344 253.78 6.18C253.731 7.11242 254.119 8.01438 254.83 8.62C255.614 9.2606 256.609 9.58515 257.62 9.53C257.914 9.53158 258.208 9.51488 258.5 9.48C258.649 9.46356 258.784 9.38334 258.87 9.26C258.96 9.13952 258.999 8.98897 258.98 8.84V8.5C258.925 8.37717 258.825 8.28039 258.7 8.23Z" fill="#252525"/>
<path d="M258.7 4.75001C258.634 4.61475 258.514 4.51325 258.37 4.47C258.232 4.41491 258.078 4.41491 257.94 4.47C257.808 4.53204 257.709 4.64898 257.67 4.79C257.61 4.9201 257.61 5.06991 257.67 5.2C257.84 5.53 257.95 5.72001 257.98 5.78C258.048 5.90987 258.162 6.00969 258.3 6.06C258.438 6.1151 258.592 6.1151 258.73 6.06C258.859 5.99583 258.959 5.88505 259.01 5.75C259.066 5.61552 259.066 5.46449 259.01 5.33L258.7 4.75001ZM260.25 4.40001C260.186 4.26526 260.065 4.16624 259.92 4.13001C259.785 4.07552 259.635 4.07552 259.5 4.13001C259.366 4.18973 259.266 4.30764 259.23 4.45C259.174 4.58449 259.174 4.73552 259.23 4.87L259.4 5.17001L259.55 5.47C259.619 5.60309 259.737 5.70368 259.88 5.75C260.014 5.80556 260.165 5.80556 260.3 5.75C260.432 5.68936 260.533 5.57731 260.58 5.44C260.64 5.3065 260.64 5.15351 260.58 5.02L260.25 4.40001ZM269.18 3.8L267.59 3.86C267.53 3.86 267.49 3.86 267.49 3.79C267.49 3.72001 267.41 3.54 267.36 3.34C267.31 3.14 267.36 3.25001 267.42 3.25001H268.2H268.96C269.105 3.24062 269.241 3.17624 269.34 3.07C269.44 2.96567 269.491 2.82396 269.48 2.68001V2.53C269.473 2.3845 269.408 2.24783 269.3 2.15001C269.196 2.04382 269.048 1.9921 268.9 2.01L267.21 2.08C267.15 2.08 267.12 2.08 267.11 2.00001V1.71001C267.102 1.55976 267.033 1.4192 266.92 1.32001C266.816 1.22025 266.674 1.16938 266.53 1.18H266.14C265.991 1.18466 265.85 1.24962 265.75 1.36001C265.653 1.46158 265.606 1.60043 265.62 1.74001C265.627 1.78643 265.627 1.83358 265.62 1.88001C265.62 1.94001 265.62 1.99001 265.62 2.02C265.62 2.05 265.62 2.1 265.54 2.1C264.34 2.1 263.44 2.1 262.85 2.1C262.701 2.10101 262.558 2.15816 262.45 2.26C262.343 2.36537 262.286 2.51025 262.29 2.66001V2.8C262.287 2.94654 262.345 3.08772 262.45 3.19001C262.551 3.29765 262.692 3.35909 262.84 3.36C263.7 3.36 264.68 3.36 265.77 3.36C265.83 3.36 265.86 3.36001 265.86 3.43001C265.86 3.50001 265.96 3.79001 265.98 3.88001C266 3.97001 265.98 3.96001 265.92 3.96001C264.34 3.96001 263.17 4.02 262.39 4.02C262.244 4.02051 262.104 4.07791 262 4.18C261.899 4.28478 261.842 4.42434 261.84 4.57001V4.72C261.835 4.86404 261.893 5.00303 262 5.1C262.098 5.20445 262.236 5.26253 262.38 5.26C264.15 5.26 265.48 5.26 266.38 5.2C266.427 5.19965 266.47 5.22705 266.49 5.27C266.59 5.52 266.67 5.70001 266.73 5.82C266.283 5.70002 265.823 5.6395 265.36 5.64C264.595 5.58908 263.831 5.75917 263.16 6.13C262.688 6.4001 262.4 6.90608 262.41 7.45C262.41 8.86 263.68 9.56001 266.23 9.56001C266.875 9.55726 267.52 9.51384 268.16 9.43001C268.306 9.4114 268.439 9.33595 268.53 9.22001C268.62 9.10357 268.66 8.95589 268.64 8.81001V8.62C268.621 8.47385 268.546 8.34091 268.43 8.25C268.317 8.16154 268.173 8.12195 268.03 8.14001C267.443 8.2133 266.852 8.25669 266.26 8.27001C265.673 8.30048 265.085 8.23289 264.52 8.07C264.237 7.99476 264.038 7.74242 264.03 7.45C264.03 7.04 264.48 6.83 265.39 6.83C265.884 6.83625 266.374 6.9241 266.84 7.09C267.16 7.22224 267.52 7.22224 267.84 7.09L268.38 6.84C268.506 6.77792 268.601 6.66535 268.64 6.53C268.681 6.3977 268.659 6.25384 268.58 6.14C268.38 5.8 268.22 5.5 268.09 5.24V5.17001H268.68H269.26C269.405 5.16062 269.541 5.09624 269.64 4.99C269.738 4.88073 269.789 4.73669 269.78 4.59001V4.45C269.782 4.3024 269.715 4.16226 269.6 4.07001C269.51 3.91912 269.355 3.81916 269.18 3.8ZM276.26 4.43C275.952 4.42823 275.644 4.45502 275.34 4.51001L277.76 3.23001C278.067 3.08048 278.252 2.76039 278.23 2.42001V2.20001C278.233 2.05347 278.175 1.91229 278.07 1.81C277.968 1.70504 277.827 1.64712 277.68 1.65H272.43C272.286 1.64486 272.147 1.70338 272.05 1.81C271.942 1.91126 271.881 2.05222 271.88 2.20001V2.38001C271.881 2.52779 271.942 2.66875 272.05 2.77C272.146 2.87922 272.285 2.94127 272.43 2.94001H275.43L271.73 5.12C271.599 5.19175 271.505 5.31516 271.47 5.46C271.409 5.5969 271.409 5.75311 271.47 5.89V5.98C271.532 6.11468 271.648 6.21654 271.79 6.26C271.927 6.31953 272.083 6.31953 272.22 6.26C272.748 6.02887 273.297 5.85131 273.86 5.73C274.41 5.62141 274.969 5.56781 275.53 5.57C276.75 5.57 277.37 5.98 277.37 6.78C277.399 7.30779 277.118 7.80414 276.65 8.05C276.658 7.94348 276.658 7.83653 276.65 7.73C276.676 7.30591 276.488 6.89682 276.15 6.64C275.659 6.35849 275.095 6.22968 274.53 6.27C273.92 6.24371 273.316 6.40419 272.8 6.73C272.413 6.97627 272.176 7.40118 272.17 7.86C272.17 9.05 273.17 9.64001 275.11 9.64001C276.134 9.70197 277.151 9.43194 278.01 8.87C278.681 8.36042 279.056 7.5513 279.01 6.71C279.039 6.08387 278.772 5.4805 278.29 5.08C277.709 4.63402 276.992 4.40419 276.26 4.43ZM275.26 8.29C275.243 8.3349 275.198 8.36326 275.15 8.36C274.15 8.36 273.64 8.17 273.64 7.8C273.642 7.65669 273.723 7.52614 273.85 7.46C274.046 7.36417 274.262 7.31944 274.48 7.33C274.726 7.31011 274.974 7.35133 275.2 7.45C275.326 7.53435 275.398 7.67871 275.39 7.83C275.37 7.99018 275.322 8.14574 275.25 8.29H275.26ZM283.36 1.51995H282.36C282.204 1.51785 282.054 1.5835 281.95 1.70001C281.834 1.81163 281.775 1.96982 281.79 2.13001L282 6.26C282.009 6.42366 282.081 6.57757 282.2 6.69C282.312 6.8075 282.468 6.87278 282.63 6.87H283.06C283.225 6.87315 283.384 6.80803 283.5 6.69C283.623 6.58022 283.695 6.42472 283.7 6.26L283.9 2.13001C283.924 1.97073 283.868 1.80998 283.75 1.70001C283.648 1.5923 283.508 1.52788 283.36 1.51995ZM283.2 7.72H282.55C282.391 7.72 282.239 7.78506 282.13 7.9C282.012 8.0122 281.943 8.16704 281.94 8.33V8.72001C281.944 8.87998 282.012 9.03156 282.13 9.14001C282.235 9.26178 282.389 9.33123 282.55 9.33002H283.2C283.361 9.33123 283.515 9.26178 283.62 9.14001C283.738 9.03156 283.806 8.87998 283.81 8.72001V8.33C283.807 8.16704 283.738 8.0122 283.62 7.9C283.511 7.78506 283.359 7.72 283.2 7.72ZM293.64 1.89C293.595 1.78809 293.491 1.72452 293.38 1.73001H292.64C292.291 1.71799 291.962 1.88852 291.77 2.18001L287.06 8.77001C286.995 8.85574 286.995 8.97427 287.06 9.06001C287.102 9.16034 287.201 9.22415 287.31 9.22001H288.05C288.402 9.23558 288.736 9.06462 288.93 8.77001L293.63 2.18001C293.698 2.09653 293.702 1.97797 293.64 1.89Z" fill="#252525"/>
</g>
<defs>
<clipPath id="clip0">
<rect width="24" height="26" fill="white" transform="translate(4 16)"/>
</clipPath>
<clipPath id="clip1">
<rect width="254" height="20" fill="white" transform="translate(36 18)"/>
</clipPath>
<clipPath id="clip2">
<rect width="294" height="10" fill="white"/>
</clipPath>
</defs>
</svg>
