<svg width="294" height="39" viewBox="0 0 294 39" fill="none" xmlns="http://www.w3.org/2000/svg">
<g clip-path="url(#clip0)">
<path d="M20.2201 16C20.7189 15.9926 21.2138 16.0873 21.6747 16.2782C22.1356 16.4691 22.5526 16.7521 22.9 17.11C23.2579 17.4575 23.541 17.8745 23.7318 18.3353C23.9227 18.7962 24.0175 19.2912 24.0102 19.79C24.0251 20.2682 23.9443 20.7445 23.7726 21.191C23.6009 21.6374 23.3417 22.0451 23.0102 22.39C22.3567 23.0991 21.4529 23.5259 20.4901 23.58C20.3501 23.58 20.2799 23.66 20.2799 23.81V24.19C19.7266 28.6767 18.18 32.1033 15.64 34.47C13.1 36.8367 9.43671 38.2933 4.65005 38.84C4.29476 38.8772 3.93835 38.7809 3.65005 38.57C3.32454 38.3286 3.10566 37.9699 3.03994 37.57L2.71011 35.97C2.67799 35.7965 2.68177 35.6182 2.72134 35.4462C2.7609 35.2741 2.83538 35.1121 2.94009 34.97C3.04354 34.8194 3.17846 34.6931 3.33559 34.5999C3.49273 34.5066 3.66823 34.4487 3.85 34.43C7.44333 33.99 10.1301 32.97 11.9101 31.37C13.6901 29.77 14.7968 27.3267 15.2301 24.04C15.2364 24.0158 15.2347 23.9903 15.2257 23.967C15.2168 23.9437 15.2009 23.9238 15.1801 23.91C15.1369 23.8682 15.0802 23.8434 15.0202 23.84H2.48012C2.29291 23.8405 2.10744 23.8026 1.93545 23.7286C1.76345 23.6546 1.60858 23.5462 1.48012 23.41C1.34297 23.2823 1.23384 23.1274 1.15981 22.9553C1.08578 22.7831 1.04829 22.5974 1.04995 22.41V20.75C1.04829 20.5626 1.08578 20.3769 1.15981 20.2047C1.23384 20.0326 1.34297 19.8777 1.48012 19.75C1.60858 19.6138 1.76345 19.5054 1.93545 19.4314C2.10744 19.3575 2.29291 19.3196 2.48012 19.32H15.7799C15.9397 19.3072 16.1004 19.3072 16.2602 19.32C16.4002 19.32 16.4802 19.32 16.5202 19.14C16.6631 18.264 17.1218 17.4706 17.81 16.91C18.476 16.3238 19.3329 16.0003 20.2201 16ZM19.06 20.95C19.2091 21.1065 19.3895 21.23 19.5893 21.3127C19.789 21.3954 20.004 21.4353 20.2201 21.43C20.4359 21.4329 20.6501 21.3919 20.8495 21.3093C21.0489 21.2268 21.2294 21.1046 21.38 20.95C21.5355 20.8001 21.6585 20.6197 21.7411 20.4201C21.8237 20.2205 21.8641 20.006 21.86 19.79C21.8629 19.5742 21.8219 19.3601 21.7394 19.1606C21.6569 18.9612 21.5346 18.7807 21.38 18.63C21.2294 18.4755 21.0489 18.3532 20.8495 18.2707C20.6501 18.1882 20.4359 18.1471 20.2201 18.15C20.004 18.1447 19.789 18.1847 19.5893 18.2673C19.3895 18.35 19.2091 18.4735 19.06 18.63C18.9041 18.7802 18.7804 18.9604 18.6962 19.1598C18.612 19.3592 18.5689 19.5736 18.57 19.79C18.5678 20.0066 18.6102 20.2214 18.6945 20.4209C18.7788 20.6205 18.9031 20.8006 19.06 20.95Z" fill="#252525"/>
<path d="M45.65 25.57C45.8289 25.6397 45.9918 25.7446 46.1292 25.8787C46.2667 26.0127 46.3759 26.173 46.45 26.35C46.5269 26.525 46.5665 26.714 46.5665 26.905C46.5665 27.0961 46.5269 27.2851 46.45 27.46C44.7767 31.5 42.5699 34.3734 39.8299 36.08C37.0899 37.7867 33.2967 38.67 28.45 38.73C28.263 38.7293 28.0779 38.6909 27.9061 38.617C27.7343 38.5431 27.5792 38.4353 27.45 38.3C27.3148 38.1708 27.207 38.0157 27.1332 37.8439C27.0593 37.672 27.0208 37.4871 27.0201 37.3V19.46C27.0197 19.2728 27.0575 19.0875 27.1314 18.9155C27.2054 18.7435 27.3138 18.5885 27.45 18.46C27.5792 18.3248 27.7343 18.217 27.9061 18.1431C28.0779 18.0692 28.263 18.0307 28.45 18.03H30.7501C30.937 18.0319 31.1214 18.0708 31.2931 18.1446C31.4647 18.2185 31.6202 18.3257 31.7501 18.46C31.8863 18.5885 31.9947 18.7435 32.0687 18.9155C32.1427 19.0875 32.1805 19.2728 32.18 19.46V33.71C32.18 33.86 32.25 33.92 32.38 33.89C34.5411 33.6451 36.5893 32.7959 38.2899 31.44C39.9778 29.8436 41.263 27.8695 42.0399 25.68C42.1792 25.3268 42.4523 25.0429 42.7999 24.89C42.9726 24.8182 43.158 24.7813 43.3451 24.7813C43.5321 24.7813 43.7173 24.8182 43.89 24.89L45.65 25.57Z" fill="#252525"/>
<path d="M69.0202 33.96C69.2162 33.9845 69.4053 34.0474 69.5769 34.1453C69.7485 34.2431 69.8993 34.3738 70.0202 34.53C70.2603 34.8362 70.3746 35.2224 70.34 35.61L70.1301 37.45C70.1182 37.6351 70.0645 37.8151 69.9726 37.9762C69.8808 38.1374 69.7533 38.2755 69.6001 38.38C69.4512 38.4947 69.2801 38.5771 69.0976 38.6219C68.9151 38.6667 68.725 38.6728 68.54 38.64C62.9064 37.7707 57.2325 37.1866 51.54 36.89C51.3505 36.8872 51.1636 36.8449 50.9914 36.7657C50.8192 36.6865 50.6654 36.5721 50.54 36.43C50.4133 36.297 50.3145 36.14 50.2492 35.9683C50.184 35.7966 50.1537 35.6136 50.1601 35.43L50.2602 33.64C50.2875 33.2578 50.4591 32.9004 50.7402 32.64C50.8695 32.5075 51.0255 32.4042 51.198 32.337C51.3704 32.2697 51.5553 32.2401 51.7402 32.25C57.5256 32.5249 63.2932 33.0956 69.0202 33.96ZM69.2002 22.72C69.1844 22.9069 69.1289 23.0883 69.0376 23.2521C68.9462 23.4159 68.8209 23.5584 68.6701 23.67C68.5201 23.7871 68.348 23.8731 68.1643 23.9229C67.9805 23.9727 67.7887 23.9853 67.6001 23.96C62.3601 23.2933 57.3302 22.8733 52.5102 22.7C52.3205 22.693 52.134 22.6478 51.9621 22.567C51.7903 22.4863 51.6367 22.3716 51.5102 22.23C51.3855 22.0969 51.2897 21.9392 51.2294 21.767C51.1692 21.5948 51.1456 21.4119 51.1601 21.23L51.2602 19.53C51.2824 19.1465 51.4549 18.7872 51.7402 18.53C51.8711 18.4004 52.0277 18.2996 52.1999 18.2342C52.3721 18.1687 52.5562 18.14 52.7402 18.15C57.7802 18.37 62.8967 18.79 68.09 19.41C68.2859 19.4311 68.4756 19.4915 68.6474 19.5878C68.8193 19.684 68.9698 19.814 69.09 19.97C69.2175 20.1126 69.3123 20.2814 69.3676 20.4645C69.4229 20.6477 69.4374 20.8407 69.4101 21.03L69.2002 22.72ZM54.1501 25.05C57.9768 25.2633 62.0501 25.7067 66.3701 26.38C66.746 26.4457 67.0804 26.6579 67.3 26.97C67.4156 27.1188 67.5002 27.2893 67.5483 27.4714C67.5964 27.6536 67.6071 27.8436 67.58 28.03L67.3501 29.87C67.3293 30.0565 67.2697 30.2365 67.175 30.3984C67.0803 30.5603 66.9524 30.7005 66.8 30.81C66.6489 30.9238 66.4757 31.0048 66.2915 31.0479C66.1072 31.0909 65.9161 31.095 65.7302 31.06C61.7566 30.4021 57.751 29.9549 53.7302 29.72C53.5387 29.7173 53.3499 29.673 53.1772 29.5901C53.0045 29.5073 52.8521 29.3878 52.7302 29.24C52.4942 28.9623 52.3758 28.6036 52.4001 28.24L52.53 26.45C52.5426 26.2574 52.5944 26.0694 52.6821 25.8975C52.7698 25.7255 52.8915 25.5733 53.04 25.45C53.1859 25.3082 53.3605 25.1992 53.552 25.1302C53.7434 25.0612 53.9473 25.0339 54.1501 25.05Z" fill="#252525"/>
<path d="M94.5101 18.78C94.6973 18.7796 94.8825 18.8175 95.0545 18.8915C95.2265 18.9654 95.3816 19.0738 95.5101 19.21C95.6463 19.3385 95.7545 19.4935 95.8285 19.6655C95.9024 19.8375 95.9405 20.0228 95.94 20.21V21.5C95.9666 22.4522 95.7929 23.3993 95.43 24.28C94.3096 26.6825 92.6374 28.7862 90.5499 30.42C90.3962 30.542 90.2199 30.6323 90.0311 30.6855C89.8423 30.7387 89.6448 30.7538 89.45 30.73C89.256 30.7104 89.0677 30.6525 88.8961 30.5598C88.7245 30.4672 88.5729 30.3415 88.45 30.19L87.2899 28.82C87.1654 28.688 87.0729 28.5293 87.0191 28.3559C86.9654 28.1826 86.9521 27.9993 86.9801 27.82C87.0026 27.6377 87.061 27.4616 87.1519 27.302C87.2429 27.1423 87.3647 27.0023 87.5101 26.89C88.8289 25.9038 89.9116 24.6365 90.68 23.18C90.6992 23.1284 90.6992 23.0716 90.68 23.02C90.6715 22.9982 90.6564 22.9796 90.6366 22.967C90.6168 22.9544 90.5933 22.9484 90.5699 22.95H76.43C76.243 22.9493 76.0579 22.9109 75.8861 22.837C75.7142 22.7631 75.5592 22.6553 75.43 22.52C75.2957 22.3902 75.1884 22.2349 75.1146 22.0632C75.0408 21.8915 75.0019 21.7069 75.0001 21.52V20.23C75.0019 20.0432 75.0408 19.8585 75.1146 19.6869C75.1884 19.5152 75.2957 19.3599 75.43 19.23C75.5592 19.0948 75.7142 18.9869 75.8861 18.9131C76.0579 18.8392 76.243 18.8007 76.43 18.8L94.5101 18.78ZM84.0101 24.59C84.3859 24.5922 84.7455 24.7432 85.0101 25.01C85.146 25.1372 85.252 25.2927 85.3211 25.4655C85.3903 25.6383 85.4207 25.8242 85.41 26.01C85.4878 28.6852 85.0498 31.3504 84.12 33.86C83.1878 35.7469 81.6968 37.3007 79.8499 38.31C79.5077 38.5061 79.1033 38.5634 78.7201 38.47C78.337 38.3835 78.0008 38.1548 77.7799 37.83L76.7799 36.36C76.677 36.2173 76.6059 36.0542 76.5714 35.8817C76.5369 35.7092 76.5398 35.5313 76.5799 35.36C76.6147 35.1829 76.6861 35.0149 76.7894 34.8668C76.8927 34.7188 77.0258 34.5939 77.18 34.5C78.3549 33.8069 79.2765 32.7555 79.8099 31.5C80.3863 29.7255 80.6535 27.8651 80.5999 26C80.6055 25.8119 80.6482 25.6268 80.7254 25.4552C80.8027 25.2836 80.9128 25.1289 81.0499 25C81.3145 24.7332 81.6741 24.5822 82.0499 24.58L84.0101 24.59Z" fill="#252525"/>
<path d="M114.91 26.57C116.417 29.7967 117.75 32.8267 118.91 35.66C118.984 35.8357 119.022 36.0244 119.022 36.215C119.022 36.4056 118.984 36.5943 118.91 36.77C118.84 36.9459 118.734 37.1048 118.597 37.2359C118.461 37.367 118.298 37.4673 118.12 37.53L116.25 38.24C115.886 38.3802 115.484 38.3802 115.12 38.24C114.946 38.1685 114.788 38.0625 114.656 37.9285C114.523 37.7945 114.419 37.6351 114.35 37.46C114.316 37.3306 114.266 37.2062 114.2 37.09C114.134 36.9573 114.077 36.8203 114.03 36.68C114.005 36.6277 113.965 36.5843 113.915 36.5556C113.865 36.527 113.808 36.5145 113.75 36.52C108.39 37.27 103.19 37.75 98.1499 37.99C97.9654 37.9968 97.7814 37.9657 97.6094 37.8987C97.4374 37.8316 97.2811 37.7299 97.1499 37.6C96.8674 37.3418 96.6985 36.9823 96.68 36.6V35.19C96.6731 35.0055 96.7042 34.8216 96.7713 34.6496C96.8384 34.4776 96.9399 34.3212 97.0699 34.19C97.3292 33.906 97.6865 33.7309 98.0699 33.7C98.2963 33.7136 98.5236 33.7136 98.75 33.7C98.8249 33.7005 98.8976 33.6762 98.9573 33.631C99.017 33.5858 99.0601 33.5222 99.0799 33.45C100.762 28.8058 102.198 24.0759 103.38 19.28C103.473 18.9021 103.709 18.5755 104.04 18.37C104.357 18.1569 104.744 18.0745 105.12 18.14L107.22 18.52C107.405 18.5489 107.58 18.6175 107.736 18.7211C107.891 18.8247 108.022 18.9608 108.12 19.12C108.216 19.2658 108.283 19.4293 108.315 19.6009C108.348 19.7726 108.346 19.949 108.31 20.12C107.275 24.4872 106.01 28.7965 104.52 33.03C104.48 33.15 104.53 33.21 104.67 33.21C107.55 32.94 110 32.67 112 32.4C112.14 32.4 112.18 32.29 112.13 32.17C111.15 29.93 110.61 28.71 110.51 28.51C110.425 28.3422 110.377 28.1582 110.368 27.9704C110.359 27.7825 110.391 27.5949 110.46 27.42C110.522 27.2421 110.622 27.08 110.753 26.9451C110.884 26.8103 111.044 26.7061 111.22 26.64L113.01 25.86C113.187 25.7857 113.378 25.7475 113.57 25.7475C113.762 25.7475 113.953 25.7857 114.13 25.86C114.474 25.984 114.754 26.2394 114.91 26.57Z" fill="#252525"/>
<path d="M142.46 23.1C142.646 23.0964 142.831 23.1309 143.003 23.2014C143.175 23.2719 143.33 23.377 143.46 23.51C143.593 23.6398 143.698 23.7955 143.769 23.9675C143.839 24.1395 143.874 24.3242 143.87 24.51V25.26C143.876 25.4462 143.843 25.6315 143.772 25.8039C143.701 25.9762 143.595 26.1317 143.46 26.26C143.33 26.3931 143.175 26.4981 143.003 26.5686C142.831 26.6391 142.646 26.6736 142.46 26.67H142.24C142.1 26.67 142.03 26.74 142.03 26.89V27.68C142.026 27.708 142.03 27.7365 142.039 27.763C142.048 27.7896 142.064 27.8137 142.084 27.8331C142.105 27.8526 142.13 27.867 142.157 27.8751C142.184 27.8833 142.212 27.8849 142.24 27.88H142.46C142.646 27.8739 142.832 27.9073 143.004 27.978C143.176 28.0486 143.332 28.155 143.46 28.29C143.595 28.4183 143.701 28.5738 143.772 28.7461C143.843 28.9185 143.876 29.1038 143.87 29.29V30.04C143.876 30.2262 143.843 30.4115 143.772 30.5839C143.701 30.7562 143.595 30.9117 143.46 31.04C143.332 31.175 143.176 31.2814 143.004 31.352C142.832 31.4227 142.646 31.4561 142.46 31.45H142.24C142.1 31.45 142.03 31.52 142.03 31.67V34.23C142.03 35.05 142.03 35.69 142.03 36.16C142.013 36.6026 141.932 37.0404 141.79 37.46C141.697 37.7779 141.54 38.0738 141.33 38.33C141.075 38.546 140.774 38.7 140.45 38.78C140.028 38.9122 139.591 38.9895 139.15 39.01C138.7 39.01 138.06 39.01 137.24 39.01H135.72C135.345 38.9808 134.991 38.8217 134.72 38.56C134.581 38.4332 134.47 38.2787 134.394 38.1065C134.319 37.9343 134.28 37.7481 134.28 37.56L134.2 36.41C134.2 36.41 134.2 36.35 134.13 36.32C134.06 36.29 134.05 36.32 134.03 36.32C133.764 36.5289 133.427 36.6258 133.09 36.59C132.921 36.5762 132.757 36.5283 132.608 36.4492C132.458 36.3702 132.326 36.2616 132.22 36.13L130.7 34.39C130.577 34.2569 130.484 34.0983 130.429 33.9255C130.374 33.7528 130.357 33.5699 130.38 33.39C130.386 33.2157 130.431 33.045 130.513 32.8909C130.594 32.7367 130.709 32.603 130.85 32.5L132.03 31.5C132.03 31.5 132.08 31.44 132.03 31.42C132.021 31.4135 132.011 31.41 132 31.41C131.989 31.41 131.979 31.4135 131.97 31.42H131.48C131.225 31.431 130.972 31.3668 130.754 31.2352C130.535 31.1036 130.36 30.9105 130.25 30.68C130.19 30.56 130.12 30.55 130.04 30.68C129.847 30.837 129.622 30.9497 129.38 31.01L129.18 31.07L128.97 31.13C128.912 31.146 128.861 31.1817 128.827 31.231C128.792 31.2802 128.775 31.34 128.78 31.4V37.57C128.785 37.756 128.751 37.941 128.68 38.1132C128.61 38.2853 128.504 38.4409 128.37 38.57C128.242 38.705 128.086 38.8114 127.914 38.882C127.742 38.9527 127.556 38.9861 127.37 38.98H126.01C125.824 38.9861 125.639 38.9527 125.466 38.882C125.294 38.8114 125.139 38.705 125.01 38.57C124.874 38.4425 124.767 38.2872 124.696 38.1146C124.625 37.9421 124.593 37.7563 124.6 37.57V32.27C124.6 32.12 124.53 32.07 124.41 32.1L122.57 32.46C122.396 32.4966 122.216 32.4941 122.043 32.4526C121.87 32.411 121.708 32.3316 121.57 32.22C121.427 32.117 121.308 31.984 121.222 31.8303C121.135 31.6766 121.083 31.5058 121.07 31.33L121 30.41C120.969 30.0522 121.072 29.6955 121.29 29.41C121.521 29.1207 121.847 28.9223 122.21 28.85L124.41 28.42C124.466 28.4103 124.516 28.3805 124.551 28.3362C124.586 28.2919 124.603 28.2364 124.6 28.18V24.18C124.6 24.04 124.53 23.97 124.38 23.97H124.14C123.99 23.97 123.92 24.03 123.92 24.16C123.83 25.16 123.75 25.94 123.68 26.48C123.66 26.6455 123.603 26.8045 123.515 26.9461C123.427 27.0877 123.309 27.2085 123.17 27.3C123.026 27.4 122.86 27.4648 122.687 27.4891C122.513 27.5134 122.336 27.4966 122.17 27.44L121.88 27.37C121.514 27.2625 121.201 27.024 121 26.7C120.785 26.3872 120.693 26.0065 120.74 25.63C120.99 23.69 121.16 21.49 121.25 19.05C121.257 18.8737 121.3 18.7007 121.377 18.5422C121.455 18.3837 121.565 18.2433 121.7 18.13C121.835 18.0102 121.994 17.9206 122.167 17.8672C122.339 17.8137 122.521 17.7976 122.7 17.82H122.87C123.061 17.8277 123.248 17.8742 123.42 17.9567C123.592 18.0393 123.745 18.1561 123.87 18.3C123.994 18.434 124.09 18.5916 124.152 18.7634C124.214 18.9352 124.24 19.1177 124.23 19.3C124.23 19.38 124.23 19.52 124.23 19.71C124.23 19.9 124.23 20.04 124.23 20.12C124.23 20.2 124.3 20.34 124.43 20.34C124.58 20.34 124.65 20.28 124.65 20.15V18.15C124.644 17.9638 124.677 17.7785 124.748 17.6061C124.819 17.4338 124.925 17.2783 125.06 17.15C125.188 17.015 125.344 16.9086 125.516 16.838C125.689 16.7673 125.874 16.7339 126.06 16.74H127.42C127.606 16.7339 127.792 16.7673 127.964 16.838C128.136 16.9086 128.292 17.015 128.42 17.15C128.553 17.2798 128.658 17.4355 128.729 17.6075C128.799 17.7795 128.834 17.9641 128.83 18.15V20.15C128.827 20.1757 128.829 20.2019 128.838 20.2264C128.846 20.2509 128.86 20.2732 128.879 20.2916C128.897 20.3099 128.919 20.3238 128.944 20.3322C128.968 20.3406 128.994 20.3433 129.02 20.34C129.206 20.3352 129.391 20.3691 129.563 20.4397C129.735 20.5103 129.891 20.616 130.02 20.75C130.154 20.8791 130.26 21.0347 130.33 21.2068C130.401 21.379 130.435 21.564 130.43 21.75V22.61C130.434 22.7959 130.399 22.9805 130.329 23.1525C130.258 23.3245 130.153 23.4802 130.02 23.61C129.891 23.744 129.735 23.8497 129.563 23.9203C129.391 23.9909 129.206 24.0248 129.02 24.02C128.994 24.0167 128.968 24.0194 128.944 24.0278C128.919 24.0362 128.897 24.0501 128.879 24.0684C128.86 24.0868 128.846 24.1091 128.838 24.1336C128.829 24.1582 128.827 24.1843 128.83 24.21V27.21C128.83 27.34 128.9 27.39 129.02 27.36H129.1H129.19C129.478 27.278 129.786 27.3103 130.05 27.45C130.178 27.5146 130.291 27.6062 130.381 27.7183C130.471 27.8305 130.535 27.9607 130.57 28.1C130.57 28.22 130.67 28.24 130.76 28.18C130.987 28.0246 131.255 27.9409 131.53 27.94H137.53C137.68 27.94 137.75 27.87 137.75 27.74V26.95C137.755 26.9199 137.753 26.889 137.744 26.8599C137.735 26.8308 137.719 26.8044 137.697 26.7828C137.676 26.7612 137.649 26.7451 137.62 26.7359C137.591 26.7268 137.56 26.7247 137.53 26.73H131.53C131.344 26.7361 131.159 26.7027 130.986 26.632C130.814 26.5614 130.658 26.455 130.53 26.32C130.395 26.1917 130.289 26.0362 130.218 25.8639C130.147 25.6915 130.114 25.5062 130.12 25.32V24.57C130.116 24.3841 130.151 24.1995 130.221 24.0275C130.292 23.8555 130.397 23.6998 130.53 23.57C130.658 23.435 130.814 23.3286 130.986 23.258C131.159 23.1873 131.344 23.1539 131.53 23.16H134.53C134.66 23.16 134.72 23.09 134.72 22.95V22.03C134.723 22.0043 134.721 21.9781 134.712 21.9536C134.704 21.9291 134.69 21.9068 134.672 21.8885C134.653 21.8701 134.631 21.8562 134.606 21.8478C134.582 21.8394 134.556 21.8368 134.53 21.84H132.24C132.054 21.8436 131.87 21.8091 131.698 21.7386C131.526 21.6681 131.37 21.5631 131.24 21.43C131.107 21.3002 131.002 21.1445 130.932 20.9725C130.861 20.8005 130.826 20.6159 130.83 20.43V19.81C130.825 19.624 130.859 19.439 130.93 19.2668C131 19.0947 131.106 18.9391 131.24 18.81C131.37 18.677 131.526 18.5719 131.698 18.5014C131.87 18.4309 132.054 18.3964 132.24 18.4H134.53C134.66 18.4 134.72 18.33 134.72 18.18V17.57C134.715 17.384 134.749 17.199 134.82 17.0268C134.89 16.8547 134.996 16.6991 135.13 16.57C135.26 16.4369 135.416 16.3319 135.588 16.2614C135.76 16.1909 135.944 16.1564 136.13 16.16H137.84C138.026 16.1552 138.211 16.1891 138.383 16.2597C138.555 16.3303 138.711 16.436 138.84 16.57C138.974 16.6991 139.08 16.8547 139.15 17.0268C139.221 17.199 139.255 17.384 139.25 17.57V18.14C139.245 18.1701 139.247 18.201 139.256 18.2301C139.265 18.2592 139.281 18.2856 139.303 18.3072C139.324 18.3288 139.351 18.3449 139.38 18.3541C139.409 18.3632 139.44 18.3653 139.47 18.36H141.86C142.046 18.3539 142.232 18.3873 142.404 18.458C142.576 18.5286 142.732 18.635 142.86 18.77C142.996 18.8975 143.103 19.0528 143.174 19.2254C143.245 19.3979 143.278 19.5837 143.27 19.77V20.39C143.276 20.5762 143.243 20.7615 143.172 20.9339C143.101 21.1062 142.995 21.2617 142.86 21.39C142.732 21.525 142.576 21.6314 142.404 21.702C142.232 21.7727 142.046 21.8061 141.86 21.8H139.47C139.32 21.8 139.25 21.86 139.25 21.99V22.91C139.25 23.05 139.32 23.12 139.47 23.12L142.46 23.1ZM137.65 34.57V31.57C137.655 31.5399 137.653 31.5091 137.644 31.4799C137.635 31.4508 137.619 31.4244 137.597 31.4028C137.576 31.3812 137.549 31.3651 137.52 31.356C137.491 31.3468 137.46 31.3447 137.43 31.35H133.36C133.341 31.3503 133.322 31.3561 133.306 31.3668C133.29 31.3774 133.278 31.3924 133.27 31.41C133.27 31.41 133.27 31.48 133.27 31.5C133.96 32.27 134.62 33.03 135.27 33.76C135.364 33.867 135.434 33.9928 135.476 34.1291C135.517 34.2653 135.529 34.4088 135.51 34.55C135.499 34.6941 135.456 34.834 135.385 34.96C135.314 35.086 135.217 35.1952 135.1 35.28C135.1 35.28 135.1 35.34 135.1 35.37C135.109 35.3753 135.12 35.378 135.13 35.378C135.141 35.378 135.151 35.3753 135.16 35.37H136.34C136.73 35.408 137.124 35.3706 137.5 35.26C137.65 35.22 137.65 34.98 137.65 34.57Z" fill="#252525"/>
<path d="M169.4 29.86C169.536 29.8579 169.67 29.8834 169.796 29.9349C169.921 29.9865 170.035 30.0631 170.13 30.16C170.227 30.255 170.303 30.3687 170.355 30.4942C170.407 30.6197 170.432 30.7543 170.43 30.89V32.1C170.438 32.2855 170.406 32.4706 170.337 32.643C170.268 32.8154 170.164 32.9712 170.03 33.1C169.901 33.235 169.746 33.3414 169.574 33.412C169.401 33.4827 169.216 33.5161 169.03 33.51H164.03C165.83 34.09 167.527 34.7267 169.12 35.42C169.281 35.4831 169.426 35.5828 169.542 35.7112C169.658 35.8396 169.743 35.9932 169.79 36.16C169.844 36.3264 169.86 36.5029 169.835 36.6762C169.811 36.8495 169.748 37.015 169.65 37.16L169 38.22C168.91 38.3785 168.789 38.5175 168.645 38.6291C168.501 38.7406 168.336 38.8225 168.16 38.87C167.986 38.9276 167.803 38.9493 167.621 38.9338C167.438 38.9184 167.261 38.866 167.1 38.78C165.42 37.9733 163.6 37.2 161.64 36.46C161.475 36.4047 161.323 36.3157 161.194 36.1986C161.065 36.0816 160.961 35.9391 160.89 35.78C160.817 35.6233 160.78 35.4527 160.78 35.28C160.78 35.1073 160.817 34.9367 160.89 34.78L161.39 33.68C161.46 33.55 161.39 33.48 161.27 33.48H156.65C156.628 33.4776 156.605 33.4821 156.585 33.4928C156.566 33.5035 156.55 33.52 156.54 33.54C156.526 33.5549 156.518 33.5745 156.518 33.595C156.518 33.6155 156.526 33.6352 156.54 33.65L157.02 34.57C157.208 34.8933 157.262 35.2774 157.17 35.64C157.125 35.8209 157.043 35.9907 156.929 36.1386C156.816 36.2866 156.673 36.4096 156.51 36.5C154.649 37.512 152.684 38.32 150.65 38.91C150.282 39.0205 149.885 38.9884 149.54 38.82C149.184 38.6702 148.899 38.3916 148.74 38.04L148.26 37.04C148.172 36.888 148.126 36.7155 148.126 36.54C148.126 36.3645 148.172 36.192 148.26 36.04C148.328 35.888 148.429 35.7529 148.555 35.644C148.681 35.5352 148.83 35.4553 148.99 35.41C150.736 34.9087 152.447 34.2906 154.11 33.56H148.94C148.753 33.5687 148.567 33.5366 148.395 33.4657C148.222 33.3949 148.067 33.2871 147.94 33.15C147.803 33.0233 147.695 32.8682 147.624 32.6954C147.553 32.5227 147.521 32.3365 147.53 32.15V30.94C147.528 30.8043 147.553 30.6697 147.605 30.5442C147.656 30.4187 147.733 30.305 147.83 30.21C147.925 30.1131 148.039 30.0365 148.164 29.9849C148.29 29.9334 148.424 29.9079 148.56 29.91C148.583 29.9134 148.607 29.9113 148.629 29.9039C148.651 29.8966 148.671 29.8841 148.688 29.8676C148.704 29.8511 148.717 29.831 148.724 29.8088C148.731 29.7867 148.733 29.7631 148.73 29.74V20.19C148.726 20.0041 148.761 19.8195 148.831 19.6475C148.902 19.4755 149.007 19.3198 149.14 19.19C149.27 19.0569 149.425 18.9519 149.597 18.8814C149.769 18.8109 149.954 18.7764 150.14 18.78H154.22C154.248 18.7832 154.277 18.7799 154.304 18.7705C154.331 18.7611 154.355 18.7457 154.376 18.7255C154.396 18.7054 154.411 18.6809 154.42 18.654C154.43 18.6271 154.433 18.5984 154.43 18.57V17.87C154.426 17.6842 154.461 17.4995 154.531 17.3275C154.602 17.1555 154.707 16.9998 154.84 16.87C154.97 16.737 155.125 16.6319 155.297 16.5614C155.469 16.4909 155.654 16.4564 155.84 16.46H156.95C157.136 16.4564 157.32 16.4909 157.492 16.5614C157.664 16.6319 157.82 16.737 157.95 16.87C158.083 16.9998 158.188 17.1555 158.259 17.3275C158.329 17.4995 158.364 17.6842 158.36 17.87V18.57C158.36 18.71 158.42 18.78 158.55 18.78H159.55C159.578 18.7832 159.607 18.7799 159.634 18.7705C159.661 18.7611 159.685 18.7457 159.705 18.7255C159.726 18.7054 159.741 18.6809 159.751 18.654C159.76 18.6271 159.763 18.5984 159.76 18.57V17.87C159.756 17.6842 159.791 17.4995 159.861 17.3275C159.932 17.1555 160.037 16.9998 160.17 16.87C160.3 16.737 160.455 16.6319 160.627 16.5614C160.799 16.4909 160.984 16.4564 161.17 16.46H162.28C162.466 16.4564 162.65 16.4909 162.822 16.5614C162.994 16.6319 163.15 16.737 163.28 16.87C163.413 16.9998 163.518 17.1555 163.589 17.3275C163.659 17.4995 163.694 17.6842 163.69 17.87V18.57C163.69 18.71 163.75 18.78 163.88 18.78H167.98C168.166 18.7764 168.35 18.8109 168.522 18.8814C168.694 18.9519 168.85 19.0569 168.98 19.19C169.113 19.3198 169.218 19.4755 169.289 19.6475C169.359 19.8195 169.394 20.0041 169.39 20.19V29.74C169.383 29.7596 169.381 29.7804 169.382 29.8011C169.384 29.8217 169.39 29.8418 169.4 29.86ZM154.4 24.09V22.45C154.4 22.32 154.33 22.26 154.19 22.26H153.19C153.164 22.2568 153.138 22.2594 153.114 22.2678C153.089 22.2762 153.067 22.2901 153.048 22.3085C153.03 22.3268 153.016 22.3491 153.008 22.3736C152.999 22.3981 152.997 22.4243 153 22.45V24.09C153 24.24 153.06 24.31 153.19 24.31H154.19C154.31 24.31 154.38 24.24 154.38 24.09H154.4ZM154.4 29.64V27.9C154.403 27.8717 154.4 27.843 154.39 27.816C154.381 27.7891 154.366 27.7646 154.345 27.7445C154.325 27.7243 154.301 27.7089 154.274 27.6995C154.247 27.6901 154.218 27.6868 154.19 27.69H153.19C153.06 27.69 153 27.76 153 27.9V29.64C153 29.78 153.06 29.86 153.19 29.86H154.19C154.218 29.8604 154.245 29.8546 154.27 29.8433C154.296 29.8319 154.318 29.8152 154.336 29.7942C154.354 29.7733 154.367 29.7486 154.375 29.722C154.383 29.6953 154.384 29.6674 154.38 29.64H154.4ZM159.71 24.09V22.45C159.71 22.32 159.64 22.26 159.5 22.26H158.5C158.474 22.2568 158.448 22.2594 158.424 22.2678C158.399 22.2762 158.377 22.2901 158.358 22.3085C158.34 22.3268 158.326 22.3491 158.318 22.3736C158.309 22.3981 158.307 22.4243 158.31 22.45V24.09C158.31 24.24 158.37 24.31 158.5 24.31H159.5C159.65 24.31 159.65 24.24 159.65 24.09H159.71ZM159.71 29.64V27.9C159.713 27.8717 159.71 27.843 159.7 27.816C159.691 27.7891 159.676 27.7646 159.656 27.7445C159.635 27.7243 159.611 27.7089 159.584 27.6995C159.557 27.6901 159.528 27.6868 159.5 27.69H158.5C158.37 27.69 158.31 27.76 158.31 27.9V29.64C158.31 29.78 158.37 29.86 158.5 29.86H159.5C159.549 29.8503 159.592 29.8218 159.62 29.7807C159.648 29.7395 159.659 29.689 159.65 29.64H159.71ZM165.02 24.09V22.45C165.02 22.32 164.95 22.26 164.81 22.26H163.81C163.784 22.2568 163.758 22.2594 163.733 22.2678C163.709 22.2762 163.687 22.2901 163.668 22.3085C163.65 22.3268 163.636 22.3491 163.628 22.3736C163.619 22.3981 163.617 22.4243 163.62 22.45V24.09C163.62 24.24 163.68 24.31 163.81 24.31H164.81C164.93 24.31 165 24.24 165 24.09H165.02ZM165.02 29.64V27.9C165.023 27.8717 165.02 27.843 165.011 27.816C165.001 27.7891 164.986 27.7646 164.965 27.7445C164.945 27.7243 164.921 27.7089 164.894 27.6995C164.867 27.6901 164.838 27.6868 164.81 27.69H163.81C163.68 27.69 163.62 27.76 163.62 27.9V29.64C163.62 29.78 163.68 29.86 163.81 29.86H164.81C164.838 29.8604 164.865 29.8546 164.89 29.8433C164.916 29.8319 164.938 29.8152 164.956 29.7942C164.974 29.7733 164.988 29.7486 164.995 29.722C165.003 29.6953 165.004 29.6674 165 29.64H165.02Z" fill="#252525"/>
<path d="M192.31 19.03C192.497 19.0319 192.681 19.0708 192.853 19.1446C193.025 19.2185 193.18 19.3257 193.31 19.46C193.445 19.5892 193.553 19.7444 193.627 19.9162C193.701 20.088 193.739 20.273 193.74 20.46V36.28C193.741 36.4672 193.702 36.6526 193.629 36.8246C193.555 36.9966 193.446 37.1516 193.31 37.28C193.18 37.4144 193.025 37.5216 192.853 37.5954C192.681 37.6692 192.497 37.7082 192.31 37.71H176.48C176.293 37.7082 176.109 37.6692 175.937 37.5954C175.765 37.5216 175.61 37.4144 175.48 37.28C175.344 37.1516 175.235 36.9966 175.161 36.8246C175.088 36.6526 175.049 36.4672 175.05 36.28V34.86C175.051 34.673 175.089 34.488 175.163 34.3162C175.237 34.1443 175.345 33.9892 175.48 33.86C175.61 33.7257 175.765 33.6185 175.937 33.5446C176.109 33.4708 176.293 33.4319 176.48 33.43H188.72C188.87 33.43 188.95 33.37 188.95 33.23V23.57C188.95 23.42 188.87 23.35 188.72 23.35H176.48C176.293 23.3482 176.109 23.3092 175.937 23.2354C175.765 23.1616 175.61 23.0544 175.48 22.92C175.344 22.7916 175.235 22.6366 175.161 22.4646C175.088 22.2926 175.049 22.1072 175.05 21.92V20.5C175.051 20.313 175.089 20.128 175.163 19.9562C175.237 19.7843 175.345 19.6292 175.48 19.5C175.61 19.3657 175.765 19.2585 175.937 19.1846C176.109 19.1108 176.293 19.0719 176.48 19.07L192.31 19.03Z" fill="#252525"/>
<path d="M199.52 22.9C199.352 22.8246 199.201 22.7143 199.079 22.5764C198.957 22.4385 198.865 22.2761 198.81 22.1C198.749 21.9283 198.726 21.7453 198.744 21.5639C198.761 21.3826 198.818 21.2071 198.91 21.05L199.82 19.29C199.999 18.9403 200.308 18.6746 200.68 18.55C201.053 18.4211 201.46 18.439 201.82 18.6C203.64 19.4333 205.433 20.2933 207.2 21.18C207.368 21.2553 207.517 21.3671 207.636 21.5072C207.756 21.6473 207.842 21.8122 207.89 21.99C207.941 22.1663 207.956 22.3511 207.933 22.5333C207.911 22.7155 207.852 22.8912 207.76 23.05L206.76 24.87C206.674 25.0413 206.552 25.1928 206.404 25.315C206.256 25.4372 206.085 25.5274 205.9 25.58C205.717 25.6364 205.524 25.6557 205.334 25.6368C205.143 25.618 204.958 25.5612 204.79 25.47C202.83 24.4833 201.073 23.6267 199.52 22.9ZM217.82 21.26C218.008 21.2948 218.186 21.3689 218.343 21.4775C218.499 21.586 218.632 21.7267 218.73 21.89C218.837 22.046 218.911 22.2224 218.947 22.4082C218.984 22.594 218.981 22.7852 218.94 22.97C218.187 27.0186 216.103 30.6999 213.02 33.43C210.093 35.91 206.057 37.46 200.91 38.08C200.72 38.1073 200.526 38.0956 200.34 38.0458C200.155 37.9959 199.981 37.9089 199.83 37.79C199.516 37.5443 199.312 37.1852 199.26 36.79L198.96 34.94C198.931 34.7651 198.938 34.586 198.981 34.4139C199.024 34.2419 199.102 34.0805 199.21 33.94C199.319 33.7862 199.459 33.6569 199.621 33.5605C199.783 33.4641 199.963 33.4026 200.15 33.38C204.243 32.8067 207.397 31.63 209.61 29.85C211.99 27.7747 213.644 24.9924 214.33 21.91C214.425 21.5409 214.662 21.2244 214.99 21.03C215.306 20.8334 215.687 20.7687 216.05 20.85L217.82 21.26Z" fill="#252525"/>
<path d="M242.88 25.1C243.067 25.0984 243.253 25.1357 243.425 25.2098C243.597 25.2838 243.752 25.3929 243.88 25.53C244.017 25.6577 244.126 25.8126 244.2 25.9848C244.274 26.1569 244.312 26.3426 244.31 26.53V27.94C244.312 28.1274 244.274 28.3131 244.2 28.4853C244.126 28.6574 244.017 28.8123 243.88 28.94C243.752 29.0772 243.597 29.1862 243.425 29.2603C243.253 29.3343 243.067 29.3717 242.88 29.37H236.71C236.56 29.37 236.49 29.45 236.49 29.6C236.397 34.5667 233.657 37.68 228.27 38.94C228.084 38.9858 227.891 38.9934 227.702 38.9625C227.513 38.9315 227.332 38.8627 227.17 38.76C226.829 38.557 226.573 38.2373 226.45 37.86L225.92 36.29C225.862 36.1258 225.842 35.9506 225.861 35.7775C225.88 35.6044 225.938 35.4378 226.03 35.29C226.119 35.1302 226.241 34.9908 226.388 34.8806C226.534 34.7704 226.702 34.6919 226.88 34.65C228.181 34.3873 229.379 33.7554 230.33 32.83C231.066 31.9248 231.457 30.7867 231.43 29.62C231.433 29.5891 231.429 29.5578 231.419 29.5284C231.408 29.4991 231.392 29.4725 231.37 29.4505C231.348 29.4285 231.321 29.4116 231.292 29.4012C231.262 29.3907 231.231 29.3869 231.2 29.39H223.51C223.323 29.3893 223.138 29.3509 222.966 29.277C222.794 29.2031 222.639 29.0953 222.51 28.96C222.373 28.8323 222.264 28.6774 222.19 28.5053C222.116 28.3331 222.078 28.1474 222.08 27.96V26.57C222.078 26.3826 222.116 26.1969 222.19 26.0248C222.264 25.8526 222.373 25.6977 222.51 25.57C222.639 25.4348 222.794 25.327 222.966 25.2531C223.138 25.1792 223.323 25.1407 223.51 25.14L242.88 25.1ZM226.55 18.27H239.85C240.037 18.2719 240.222 18.3108 240.393 18.3846C240.565 18.4584 240.72 18.5657 240.85 18.7C240.985 18.8292 241.093 18.9843 241.167 19.1562C241.241 19.328 241.279 19.513 241.28 19.7V21.11C241.28 21.2972 241.243 21.4826 241.169 21.6546C241.095 21.8265 240.986 21.9816 240.85 22.11C240.722 22.2462 240.567 22.3546 240.395 22.4286C240.223 22.5026 240.037 22.5405 239.85 22.54H226.55C226.363 22.5417 226.177 22.5043 226.005 22.4303C225.833 22.3563 225.678 22.2472 225.55 22.11C225.414 21.9816 225.305 21.8265 225.231 21.6546C225.157 21.4826 225.12 21.2972 225.12 21.11V19.7C225.121 19.513 225.159 19.328 225.233 19.1562C225.307 18.9843 225.415 18.8292 225.55 18.7C225.679 18.5648 225.834 18.4569 226.006 18.3831C226.178 18.3092 226.363 18.2707 226.55 18.27Z" fill="#252525"/>
<path d="M248.57 22.9C248.403 22.8231 248.253 22.7122 248.131 22.5745C248.009 22.4368 247.916 22.2752 247.86 22.1C247.804 21.9274 247.784 21.7452 247.801 21.5647C247.818 21.3841 247.873 21.2089 247.96 21.05L248.88 19.29C249.055 18.9409 249.36 18.6749 249.73 18.55C250.102 18.4211 250.51 18.439 250.87 18.6C252.69 19.4333 254.487 20.2933 256.26 21.18C256.427 21.2553 256.574 21.3673 256.692 21.5075C256.81 21.6477 256.895 21.8126 256.94 21.99C257.041 22.3453 256.998 22.7263 256.82 23.05L255.82 24.87C255.732 25.0403 255.61 25.1909 255.462 25.313C255.315 25.435 255.144 25.5258 254.96 25.58C254.777 25.637 254.584 25.6566 254.394 25.6377C254.203 25.6188 254.018 25.5618 253.85 25.47C251.876 24.4833 250.116 23.6267 248.57 22.9ZM266.88 21.26C267.067 21.2959 267.245 21.3705 267.401 21.479C267.558 21.5875 267.69 21.7275 267.79 21.89C267.898 22.0457 267.971 22.2224 268.006 22.4086C268.04 22.5947 268.035 22.7861 267.99 22.97C267.241 27.0202 265.157 30.7028 262.07 33.43C259.136 35.91 255.1 37.46 249.96 38.08C249.771 38.1065 249.579 38.0944 249.395 38.0446C249.211 37.9947 249.039 37.9081 248.89 37.79C248.576 37.5443 248.371 37.1852 248.32 36.79L248.02 34.94C247.988 34.7651 247.994 34.5855 248.037 34.413C248.08 34.2406 248.16 34.0793 248.27 33.94C248.377 33.7865 248.515 33.6573 248.675 33.5608C248.835 33.4643 249.014 33.4027 249.2 33.38C253.3 32.8067 256.453 31.63 258.66 29.85C261.046 27.7784 262.704 24.995 263.39 21.91C263.435 21.7264 263.516 21.5537 263.63 21.4025C263.743 21.2512 263.886 21.1245 264.05 21.03C264.366 20.8334 264.747 20.7687 265.11 20.85L266.88 21.26Z" fill="#252525"/>
<path d="M277.75 26.36C277.8 26.5374 277.813 26.7233 277.787 26.9059C277.761 27.0885 277.698 27.2636 277.6 27.42C277.507 27.5836 277.379 27.7248 277.225 27.8337C277.071 27.9425 276.895 28.0164 276.71 28.05L274.94 28.46C274.756 28.5015 274.566 28.5061 274.381 28.4735C274.195 28.4408 274.018 28.3717 273.86 28.27C273.7 28.1773 273.561 28.0519 273.452 27.902C273.344 27.7521 273.268 27.5811 273.23 27.4C272.637 24.9533 272.153 23.05 271.78 21.69C271.728 21.5073 271.716 21.3158 271.744 21.1279C271.771 20.9401 271.838 20.7602 271.94 20.6C272.029 20.4385 272.151 20.2984 272.3 20.1896C272.449 20.0807 272.619 20.0058 272.8 19.97L274.44 19.61C274.816 19.5285 275.209 19.5929 275.54 19.79C275.703 19.8813 275.847 20.0044 275.962 20.1521C276.077 20.2998 276.162 20.4691 276.21 20.65C276.703 22.4167 277.217 24.32 277.75 26.36ZM291.58 18.83C291.961 18.8602 292.318 19.0314 292.58 19.31C292.711 19.4405 292.813 19.5967 292.88 19.7689C292.948 19.9411 292.978 20.1254 292.97 20.31C292.95 22.9406 292.614 25.5593 291.97 28.11C291.45 30.0897 290.504 31.9324 289.2 33.51C287.933 34.9748 286.345 36.1279 284.56 36.88C282.386 37.7535 280.101 38.3158 277.77 38.55C277.373 38.6015 276.972 38.4976 276.65 38.26C276.487 38.1435 276.349 37.9946 276.246 37.8225C276.142 37.6505 276.076 37.459 276.05 37.26L275.72 35.67C275.689 35.4958 275.695 35.3171 275.736 35.1451C275.777 34.973 275.854 34.8113 275.96 34.67C276.064 34.5159 276.2 34.3861 276.359 34.2894C276.517 34.1927 276.695 34.1316 276.88 34.11C278.676 33.8925 280.437 33.4456 282.12 32.78C283.444 32.228 284.614 31.3633 285.53 30.26C286.498 29.0622 287.182 27.6604 287.53 26.16C287.981 24.151 288.212 22.099 288.22 20.04C288.217 19.8505 288.256 19.6626 288.333 19.4898C288.411 19.317 288.526 19.1634 288.67 19.04C288.801 18.9117 288.958 18.8124 289.131 18.7487C289.303 18.6849 289.487 18.6581 289.67 18.67L291.58 18.83ZM281.27 18.83C281.647 18.7473 282.042 18.8155 282.37 19.02C282.535 19.1184 282.68 19.2486 282.795 19.4031C282.91 19.5575 282.993 19.7332 283.04 19.92C283.59 21.92 284.11 23.92 284.58 25.75C284.623 25.9183 284.632 26.0934 284.606 26.2652C284.58 26.4369 284.52 26.6018 284.43 26.75C284.334 26.9109 284.206 27.0495 284.052 27.1564C283.899 27.2634 283.724 27.3362 283.54 27.37L281.77 27.77C281.585 27.815 281.391 27.8205 281.204 27.7861C281.016 27.7516 280.837 27.678 280.68 27.57C280.355 27.361 280.122 27.0353 280.03 26.66C279.83 25.85 279.31 23.92 278.48 20.85C278.43 20.6747 278.417 20.4911 278.441 20.3105C278.465 20.1298 278.526 19.9561 278.62 19.8C278.715 19.6421 278.843 19.5061 278.995 19.401C279.146 19.2959 279.319 19.224 279.5 19.19L281.27 18.83Z" fill="#252525"/>
</g>
<g clip-path="url(#clip1)">
<path d="M2.01 2.17999C1.81648 1.88538 1.48214 1.71441 1.13 1.72999H0.400002C0.28785 1.72147 0.182938 1.78604 0.140002 1.88999C0.0749962 1.97573 0.0749962 2.09425 0.140002 2.17999L4.85 8.76999C5.04166 9.06147 5.37136 9.23201 5.72 9.21999H6.46C6.5714 9.22548 6.6747 9.16191 6.72 9.05999C6.77892 8.9723 6.77892 8.85768 6.72 8.76999L2.01 2.17999ZM16.39 0.709992C16.0223 0.693881 15.6631 0.823211 15.39 1.06999C15.1248 1.30079 14.9539 1.62119 14.91 1.96999C14.9 2.01582 14.8565 2.04628 14.81 2.03999H9.64C9.49433 2.04153 9.35478 2.09878 9.25 2.19999C9.14504 2.30228 9.08712 2.44346 9.09 2.58999V2.97999C9.08712 3.12652 9.14504 3.26771 9.25 3.36999C9.35229 3.47495 9.49347 3.53288 9.64 3.52999H14.74C14.8 3.52999 14.82 3.52999 14.81 3.61999C14.756 4.76059 14.2989 5.845 13.52 6.67999C12.6072 7.44933 11.4714 7.90505 10.28 7.97999C10.1396 7.99936 10.0132 8.07522 9.93 8.18999C9.8417 8.30316 9.80868 8.44991 9.84 8.58999L9.9 8.95999C9.93245 9.10566 10.018 9.23402 10.14 9.31999C10.2595 9.41165 10.4109 9.4513 10.56 9.42999C12.0837 9.32234 13.532 8.72617 14.69 7.72999C15.7267 6.67288 16.3479 5.27773 16.44 3.79999C16.44 3.73999 16.44 3.70999 16.52 3.70999C16.9019 3.69847 17.2628 3.53248 17.52 3.24999C17.7833 2.9846 17.9276 2.62374 17.92 2.24999C17.9197 1.87182 17.7643 1.51033 17.49 1.24999C17.2258 0.91056 16.8202 0.711443 16.39 0.709992ZM16.84 2.61999C16.7194 2.73666 16.5578 2.8013 16.39 2.79999C16.2216 2.80471 16.0587 2.73956 15.94 2.61999C15.8224 2.5 15.7576 2.33799 15.76 2.16999C15.7576 2.00199 15.8224 1.83999 15.94 1.71999C16.0587 1.60042 16.2216 1.53527 16.39 1.53999C16.5578 1.53868 16.7194 1.60332 16.84 1.71999C16.9576 1.83999 17.0224 2.00199 17.02 2.16999C17.0224 2.33799 16.9576 2.5 16.84 2.61999ZM26.3 4.45999L25.87 4.29999C25.7344 4.25028 25.5856 4.25028 25.45 4.29999C25.3215 4.36012 25.2211 4.46761 25.17 4.59999C24.8438 5.47842 24.3043 6.26194 23.6 6.87999C22.8725 7.43344 22.0085 7.77906 21.1 7.87999C21.1 7.87999 21.1 7.87999 21.04 7.87999C21.031 7.86101 21.031 7.83898 21.04 7.81999V2.06999C21.0413 1.92464 20.9792 1.78593 20.87 1.68999C20.7677 1.58503 20.6265 1.52711 20.48 1.52999H19.89C19.746 1.52484 19.607 1.58337 19.51 1.68999C19.4034 1.78696 19.3449 1.92596 19.35 2.06999V8.82999C19.3467 8.97954 19.4045 9.12396 19.51 9.22999C19.6085 9.33956 19.7535 9.39533 19.9 9.37999C21.374 9.43077 22.8347 9.08545 24.13 8.37999C25.2815 7.60097 26.1567 6.47723 26.63 5.16999C26.6903 5.03649 26.6903 4.88349 26.63 4.74999C26.5651 4.61168 26.4455 4.50662 26.3 4.45999ZM35.46 7.81999C33.3108 7.47786 31.144 7.25751 28.97 7.15999C28.8228 7.14774 28.6774 7.19865 28.57 7.29999C28.4548 7.39224 28.3884 7.53239 28.39 7.67999V8.12999C28.3712 8.27306 28.4191 8.41684 28.52 8.51999C28.6132 8.63405 28.7527 8.70015 28.9 8.69999C31.0464 8.81254 33.1857 9.03282 35.31 9.35999C35.4533 9.39023 35.6026 9.35745 35.72 9.26999C35.8385 9.18714 35.9123 9.05437 35.92 8.90999L35.97 8.45999C35.9805 8.31025 35.938 8.16159 35.85 8.03999C35.754 7.91826 35.6139 7.83923 35.46 7.81999ZM34.5 4.79999C32.9661 4.55526 31.4208 4.38838 29.87 4.29999C29.723 4.289 29.5781 4.33973 29.47 4.43999C29.3563 4.53574 29.2846 4.6721 29.27 4.81999V5.25999C29.2575 5.40542 29.3044 5.54971 29.4 5.65999C29.4923 5.77523 29.6324 5.84161 29.78 5.83999C31.2667 5.93333 32.7867 6.10332 34.34 6.34999C34.4816 6.37854 34.6285 6.34181 34.74 6.24999C34.8571 6.16452 34.9333 6.03402 34.95 5.88999L35.01 5.44999C35.0291 5.30103 34.9897 5.15047 34.9 5.02999C34.8042 4.90131 34.6594 4.81804 34.5 4.79999ZM29.29 3.06999C31.07 3.14999 32.96 3.31333 34.96 3.55999C35.1058 3.57855 35.2531 3.53904 35.37 3.44999C35.4868 3.36117 35.5597 3.22635 35.57 3.07999V2.66999C35.5801 2.52649 35.5374 2.38424 35.45 2.26999C35.3645 2.15286 35.234 2.07674 35.09 2.05999C33.15 1.81999 31.22 1.64999 29.32 1.56999C29.176 1.55936 29.0343 1.61024 28.93 1.70999C28.8238 1.80909 28.7594 1.94501 28.75 2.08999V2.49999C28.7394 2.64395 28.7902 2.78566 28.89 2.88999C28.9875 3.00965 29.1358 3.07635 29.29 3.06999ZM41.25 3.91999H40.77C40.6252 3.92127 40.4875 3.98288 40.39 4.08999C40.2839 4.18817 40.2225 4.32544 40.22 4.46999C40.2329 5.23697 40.118 6.00075 39.88 6.72999C39.6643 7.25028 39.2806 7.68332 38.79 7.95999C38.664 8.03472 38.5738 8.15744 38.54 8.29999C38.5074 8.43405 38.5328 8.57564 38.61 8.68999L38.84 9.02999C38.9245 9.15748 39.0524 9.24989 39.2 9.28999C39.3487 9.33148 39.5079 9.30977 39.64 9.22999C40.3483 8.83605 40.9202 8.23623 41.28 7.50999C41.6461 6.55338 41.8194 5.53383 41.79 4.50999C41.7991 4.36731 41.7441 4.228 41.64 4.12999C41.546 4.00744 41.404 3.931 41.25 3.91999Z" fill="#252525"/>
<path d="M45.29 1.85H38.42C38.2735 1.84712 38.1323 1.90504 38.03 2.01C37.9256 2.1085 37.8675 2.24646 37.87 2.39V2.67C37.8675 2.81354 37.9256 2.9515 38.03 3.05C38.1313 3.15765 38.2722 3.21909 38.42 3.22H44.07C44.13 3.22 44.14 3.22 44.07 3.3C43.7717 3.95591 43.3019 4.51907 42.71 4.93C42.5929 5.01547 42.5167 5.14597 42.5 5.29C42.4803 5.42659 42.5204 5.56503 42.61 5.67L42.87 5.99C42.9643 6.10871 43.1001 6.18731 43.25 6.21C43.3996 6.24229 43.5559 6.20958 43.68 6.12C44.5157 5.50927 45.1747 4.68809 45.59 3.74C45.727 3.40015 45.795 3.03641 45.79 2.67V2.39C45.7887 2.24519 45.7271 2.10747 45.62 2.01C45.5331 1.91836 45.4158 1.86149 45.29 1.85ZM53.3 4.88C53.2358 4.7508 53.125 4.65074 52.99 4.6C52.8565 4.53968 52.7035 4.53968 52.57 4.6L52.13 4.79C51.9936 4.84738 51.8882 4.96012 51.84 5.1C51.7801 5.2301 51.7801 5.3799 51.84 5.51L52.54 7.05C52.54 7.05 52.54 7.13 52.49 7.15C51.49 7.28 50.37 7.41 49.15 7.52C49.15 7.52 49.09 7.52 49.15 7.45C49.7508 5.75055 50.2648 4.02165 50.69 2.27C50.7223 2.12947 50.6971 1.98184 50.62 1.86C50.539 1.73937 50.4129 1.65646 50.27 1.63L49.75 1.54C49.6036 1.50938 49.451 1.54207 49.33 1.63C49.2025 1.70994 49.1097 1.83486 49.07 1.98C48.6005 3.87041 48.0364 5.73608 47.38 7.57C47.3608 7.62071 47.314 7.65577 47.26 7.66H46.96C46.8088 7.67538 46.6675 7.74249 46.56 7.85C46.46 7.95885 46.4063 8.10226 46.41 8.25V8.55C46.4194 8.69498 46.4838 8.8309 46.59 8.93C46.6903 9.03693 46.8339 9.09218 46.98 9.08C48.98 8.98667 51.03 8.79 53.13 8.49C53.18 8.49 53.21 8.49 53.24 8.56C53.2584 8.61216 53.2818 8.6624 53.31 8.71C53.3342 8.76508 53.3543 8.82191 53.37 8.88C53.4272 9.01872 53.5395 9.12741 53.68 9.18C53.8135 9.24032 53.9665 9.24032 54.1 9.18L54.57 8.99C54.7061 8.94505 54.8158 8.84273 54.87 8.71C54.9245 8.5753 54.9245 8.4247 54.87 8.29C54.35 7.15 53.83 6.01 53.3 4.88ZM64.64 3.48C63.605 2.93347 62.6411 2.26177 61.77 1.48C61.5149 1.2345 61.1741 1.09818 60.82 1.1H59.95C59.597 1.09335 59.2555 1.22631 59 1.47C58.1325 2.25165 57.1719 2.92338 56.14 3.47C56.0024 3.53591 55.8977 3.65509 55.85 3.8C55.7953 3.94156 55.7953 4.09844 55.85 4.24L55.97 4.49C56.0274 4.62051 56.1358 4.72174 56.27 4.77C56.4011 4.825 56.5489 4.825 56.68 4.77C57.04 4.58 57.33 4.42 57.55 4.28H57.6C57.5987 4.42536 57.6608 4.56407 57.77 4.66C57.8723 4.76496 58.0135 4.82288 58.16 4.82H62.64C62.7865 4.82288 62.9277 4.76496 63.03 4.66C63.1392 4.56407 63.2013 4.42536 63.2 4.28C63.2 4.22 63.2 4.2 63.2 4.28C63.46 4.44 63.75 4.6 64.09 4.78C64.2178 4.83447 64.3622 4.83447 64.49 4.78C64.6273 4.73304 64.7394 4.63184 64.8 4.5L64.92 4.25C64.9751 4.11196 64.9751 3.95804 64.92 3.82C64.8792 3.67202 64.7774 3.54839 64.64 3.48ZM62.19 3.65H58.64C58.64 3.65 58.59 3.65 58.64 3.65C59.2694 3.18744 59.8612 2.67585 60.41 2.12C60.41 2.12 60.48 2.12 60.52 2.12C61.0704 2.67489 61.6658 3.18329 62.3 3.64C62.3 3.64 62.27 3.65 62.22 3.65H62.19ZM64.09 5.52H56.74C56.5922 5.52091 56.4513 5.58235 56.35 5.69C56.2424 5.79126 56.1809 5.93221 56.18 6.08V6.23C56.1809 6.37779 56.2424 6.51874 56.35 6.62C56.4513 6.72765 56.5922 6.78909 56.74 6.79H58.58C58.63 6.79 58.64 6.79 58.58 6.87C58.38 7.32 58.13 7.8 57.85 8.31C57.8235 8.35614 57.7731 8.38327 57.72 8.38H57.34H56.97C56.8275 8.38772 56.6941 8.45262 56.6 8.56C56.5 8.66774 56.4524 8.81404 56.47 8.96V9.11C56.4652 9.26109 56.5319 9.4056 56.65 9.5C56.7635 9.59887 56.9095 9.65229 57.06 9.65C58.81 9.58 60.75 9.43 62.86 9.2C62.9149 9.18647 62.9711 9.21673 62.99 9.27L63.11 9.53C63.1672 9.66873 63.2795 9.77741 63.42 9.83C63.5547 9.88449 63.7053 9.88449 63.84 9.83L64.18 9.72C64.3135 9.67615 64.4224 9.57816 64.48 9.45C64.535 9.31887 64.535 9.17113 64.48 9.04C64.04 8.04 63.68 7.33 63.41 6.79H63.46H64.06C64.2078 6.78909 64.3487 6.72765 64.45 6.62C64.555 6.51771 64.6129 6.37653 64.61 6.23V6.07C64.6129 5.92347 64.555 5.78229 64.45 5.68C64.3544 5.58323 64.2259 5.5261 64.09 5.52ZM63.02 6.82L62.55 6.97C62.4139 7.01495 62.3042 7.11727 62.25 7.25C62.1904 7.37668 62.1904 7.52332 62.25 7.65C62.2704 7.70622 62.2973 7.75991 62.33 7.81C62.33 7.87 62.39 7.93 62.41 7.96C62.4147 7.97973 62.4147 8.00027 62.41 8.02C62.41 8.02 62.41 8.02 62.36 8.02C61.36 8.12 60.45 8.19 59.67 8.25C59.93 7.76333 60.15 7.31333 60.33 6.9C60.3436 6.85667 60.3846 6.82792 60.43 6.83H63.08L63.02 6.82ZM67.37 3.44H73.31C73.4535 3.44253 73.5915 3.38444 73.69 3.28C73.8019 3.18179 73.8642 3.03883 73.86 2.89V1.71C73.8641 1.56407 73.8015 1.42423 73.69 1.33C73.5915 1.22556 73.4535 1.16747 73.31 1.17H67.37C67.2267 1.16869 67.0892 1.22658 66.99 1.33C66.8829 1.42747 66.8213 1.56519 66.82 1.71V2.89C66.8209 3.03779 66.8824 3.17874 66.99 3.28C67.0892 3.38342 67.2267 3.44131 67.37 3.44ZM68.37 2.34C68.3667 2.31525 68.3751 2.29037 68.3927 2.27271C68.4104 2.25505 68.4353 2.24665 68.46 2.25H72.29C72.34 2.25 72.37 2.25 72.37 2.34V2.56C72.3735 2.5821 72.3662 2.60452 72.3503 2.62034C72.3345 2.63616 72.3121 2.64347 72.29 2.64H68.46C68.4 2.64 68.37 2.64 68.37 2.56V2.34ZM74.4 8.78C74.07 8.64 73.63 8.48 73.08 8.31H73.68C73.8278 8.30909 73.9687 8.24765 74.07 8.14C74.1776 8.03874 74.2391 7.89779 74.24 7.75V4.28C74.2391 4.13221 74.1776 3.99126 74.07 3.89C73.9677 3.78504 73.8265 3.72712 73.68 3.73H66.98C66.8335 3.72712 66.6923 3.78504 66.59 3.89C66.4823 3.99126 66.4209 4.13221 66.42 4.28V7.75C66.4209 7.89779 66.4823 8.03874 66.59 8.14C66.6913 8.24765 66.8322 8.30909 66.98 8.31H67.76C67.2818 8.48913 66.7945 8.64268 66.3 8.77C66.1678 8.7984 66.0567 8.88729 66 9.01C65.9452 9.13075 65.9452 9.26925 66 9.39L66.07 9.53C66.1395 9.67174 66.2562 9.78487 66.4 9.85C66.5484 9.90516 66.7116 9.90516 66.86 9.85C67.6454 9.64024 68.4089 9.3556 69.14 9C69.2623 8.94245 69.3561 8.83784 69.4 8.71C69.45 8.58827 69.45 8.45173 69.4 8.33C69.4 8.33 69.4 8.26 69.45 8.26H71.25H71.3C71.2404 8.38668 71.2404 8.53332 71.3 8.66C71.3457 8.7964 71.4596 8.89886 71.6 8.93C72.39 9.2 73.1 9.47 73.74 9.75C73.8808 9.80889 74.0392 9.80889 74.18 9.75C74.3217 9.70344 74.4445 9.61222 74.53 9.49L74.64 9.33C74.7156 9.21454 74.734 9.07079 74.69 8.94C74.6201 8.84826 74.5149 8.79018 74.4 8.78ZM72.69 7.31C72.69 7.37 72.69 7.4 72.61 7.4H68.07C68.02 7.4 67.99 7.4 67.99 7.31V7.11C67.99 7.05 67.99 7.02 68.07 7.02H72.64C72.69 7.02 72.72 7.02 72.72 7.11L72.69 7.31ZM72.69 6.14C72.69 6.2 72.69 6.22 72.61 6.22H68.07C68.02 6.22 67.99 6.22 67.99 6.14V5.93C67.99 5.87 67.99 5.84 68.07 5.84H72.64C72.69 5.84 72.72 5.84 72.72 5.93L72.69 6.14ZM72.69 4.96C72.69 5.02 72.69 5.05 72.61 5.05H68.07C68.02 5.05 67.99 5.05 67.99 4.96V4.77C67.99 4.71 67.99 4.68 68.07 4.68H72.64C72.69 4.68 72.72 4.68 72.72 4.77L72.69 4.96ZM78.64 3.66H79.87C80.0157 3.65846 80.1552 3.60121 80.26 3.5C80.365 3.39771 80.4229 3.25653 80.42 3.11V2.88C80.4251 2.73597 80.3666 2.59697 80.26 2.5C80.1577 2.39504 80.0165 2.33712 79.87 2.34H78.98C78.93 2.34 78.9 2.34 78.92 2.26C78.94 2.18 78.92 2.11 78.98 1.99C79.04 1.87 78.98 1.78 78.98 1.72C79.0182 1.58617 78.9924 1.44218 78.91 1.33C78.8268 1.21522 78.7004 1.13937 78.56 1.12H78.24C78.091 1.10091 77.9405 1.14034 77.82 1.23C77.6949 1.31488 77.6059 1.44317 77.57 1.59C77.57 1.75 77.48 1.99 77.4 2.3C77.3904 2.34731 77.3483 2.38097 77.3 2.38H76.3C76.1535 2.37712 76.0123 2.43504 75.91 2.54C75.8008 2.63593 75.7387 2.77464 75.74 2.92V3.15C75.7409 3.29779 75.8024 3.43874 75.91 3.54C76.0148 3.64121 76.1543 3.69846 76.3 3.7H76.9C76.95 3.7 76.97 3.7 76.96 3.78C76.57 5.13 76.16 6.39 75.72 7.57C75.6601 7.7001 75.6601 7.8499 75.72 7.98C75.7786 8.11331 75.8914 8.21521 76.03 8.26L76.35 8.36C76.4872 8.41953 76.6428 8.41953 76.78 8.36C76.9149 8.2955 77.019 8.18057 77.07 8.04C77.61 6.61 78.07 5.2 78.45 3.8C78.51 3.70667 78.5733 3.66 78.64 3.66ZM83.85 2.46C83.27 2.4 82.58 2.35 81.78 2.34C81.6339 2.32782 81.4903 2.38307 81.39 2.49C81.2824 2.59126 81.2209 2.73221 81.22 2.88V5.77C81.22 5.82 81.22 5.84 81.14 5.83C80.8876 5.7515 80.6242 5.71436 80.36 5.72C79.7239 5.67775 79.0933 5.86196 78.58 6.24C78.1618 6.58186 77.9285 7.1003 77.95 7.64C77.9348 8.2003 78.1919 8.73326 78.64 9.07C79.1497 9.44855 79.7761 9.63613 80.41 9.6C81.6 9.6 82.34 9.17 82.62 8.32C82.62 8.32 82.62 8.32 82.67 8.32L83.14 8.72C83.246 8.82366 83.3925 8.87494 83.54 8.86C83.6911 8.86476 83.8356 8.79806 83.93 8.68L84.11 8.49C84.2098 8.38567 84.2606 8.24395 84.25 8.1C84.2515 7.95171 84.1897 7.80981 84.08 7.71C83.6722 7.34896 83.2413 7.01492 82.79 6.71C82.7455 6.68687 82.7182 6.64016 82.72 6.59V3.85C82.72 3.8 82.72 3.78 82.79 3.78C83.13 3.78 83.43 3.8 83.69 3.84C83.8314 3.86321 83.9761 3.82703 84.09 3.74C84.2071 3.65453 84.2833 3.52403 84.3 3.38V3.14C84.3181 2.99734 84.2785 2.85337 84.19 2.74C84.1287 2.59711 84.002 2.49276 83.85 2.46ZM81.04 8.13C80.8524 8.29152 80.606 8.36762 80.36 8.34C80.1185 8.35464 79.879 8.28773 79.68 8.15C79.5202 8.03049 79.4302 7.83933 79.44 7.64C79.436 7.44973 79.5211 7.26851 79.67 7.15C79.8745 7.0171 80.1166 6.95395 80.36 6.97C80.6332 6.97592 80.9008 7.04798 81.14 7.18C81.1904 7.19773 81.223 7.24665 81.22 7.3C81.2509 7.58883 81.1877 7.8799 81.04 8.13ZM90.24 4.38C89.267 4.40236 88.3217 4.7082 87.52 5.26C87.57 4.93 87.62 4.57 87.68 4.16C87.7017 4.01544 87.6577 3.86876 87.56 3.76C87.4724 3.64847 87.3415 3.57941 87.2 3.57H86.76C86.6115 3.55703 86.4639 3.60382 86.35 3.7C86.2385 3.79885 86.1644 3.93301 86.14 4.08C86.05 4.72 85.95 5.36 85.83 6.01C85.7994 6.15643 85.8321 6.30898 85.92 6.43C85.9963 6.55705 86.124 6.64464 86.27 6.67L86.6 6.74C86.9416 6.81332 87.2983 6.75625 87.6 6.58C88.3271 6.1106 89.1578 5.8257 90.02 5.75C90.91 5.75 91.35 6.1 91.35 6.75C91.3461 7.19383 91.0955 7.59861 90.7 7.8C90.1321 8.09076 89.4971 8.22535 88.86 8.19C88.42 8.19 87.86 8.19 87.17 8.1C87.0246 8.08749 86.8803 8.13439 86.77 8.23C86.6511 8.31699 86.5777 8.45287 86.57 8.6V8.83C86.5589 8.97361 86.6017 9.11619 86.69 9.23C86.7828 9.34729 86.9208 9.41993 87.07 9.43C87.67 9.49 88.28 9.52 88.88 9.52C89.9861 9.58614 91.0875 9.32902 92.05 8.78C92.7405 8.35088 93.1573 7.59291 93.15 6.78C93.2075 6.10898 92.953 5.44883 92.46 4.99C91.8127 4.53621 91.0283 4.32066 90.24 4.38ZM87.53 2.93C88.77 3.06 90.05 3.13 91.37 3.15C91.514 3.15515 91.653 3.09662 91.75 2.99C91.8571 2.89253 91.9187 2.75481 91.92 2.61V2.38C91.9191 2.23221 91.8576 2.09126 91.75 1.99C91.6447 1.88964 91.5055 1.83253 91.36 1.83C90.21 1.83 88.99 1.73 87.7 1.6C87.5525 1.57942 87.4032 1.62312 87.29 1.72C87.1672 1.80167 87.0866 1.93342 87.07 2.08V2.32C87.0497 2.46445 87.0936 2.61055 87.19 2.72C87.2683 2.83513 87.392 2.9115 87.53 2.93Z" fill="#252525"/>
<path d="M103.02 7.82C102.998 7.66734 102.905 7.53397 102.77 7.46C102.639 7.36932 102.475 7.34013 102.32 7.38C101.336 7.61132 100.331 7.73868 99.32 7.76C98.79 7.785 98.2602 7.70689 97.76 7.53C97.41 7.37 97.24 7.16 97.24 6.91C97.24 6.66 97.49 6.26 97.99 5.73C98.0898 5.61765 98.1402 5.46992 98.13 5.32C98.1215 5.17069 98.0438 5.03389 97.92 4.95L97.41 4.58C97.2701 4.48183 97.1003 4.43582 96.93 4.45C96.7636 4.4596 96.6067 4.53092 96.49 4.65C96.0974 5.0455 95.7609 5.493 95.49 5.98C95.2979 6.32962 95.1949 6.72114 95.19 7.12C95.1923 7.87312 95.6174 8.5611 96.29 8.9C97.233 9.40021 98.294 9.63522 99.36 9.58C100.494 9.56712 101.624 9.43303 102.73 9.18C102.894 9.15357 103.037 9.05432 103.12 8.91C103.21 8.77465 103.239 8.60777 103.2 8.45L103.02 7.82ZM96.73 2.79H102.03C102.192 2.79041 102.347 2.72551 102.46 2.61C102.575 2.49615 102.639 2.34151 102.64 2.18V1.63C102.639 1.46849 102.575 1.31385 102.46 1.2C102.347 1.0845 102.192 1.0196 102.03 1.02H96.73C96.5678 1.01723 96.4119 1.08251 96.3 1.2C96.1854 1.31385 96.1207 1.46849 96.12 1.63V2.18C96.1207 2.34151 96.1854 2.49615 96.3 2.61C96.4119 2.7275 96.5678 2.79278 96.73 2.79ZM110.02 0.810003C108.627 0.742235 107.263 1.22332 106.22 2.15C105.259 3.04295 104.734 4.30919 104.78 5.62C104.754 6.54335 105.039 7.4487 105.59 8.19C105.968 8.81124 106.624 9.21021 107.35 9.26C107.728 9.26831 108.101 9.17506 108.43 8.99C108.801 8.73092 109.106 8.3884 109.32 7.99C109.682 7.36549 109.951 6.69182 110.12 5.99C110.395 4.92646 110.609 3.84802 110.76 2.76C110.76 2.7 110.81 2.67 110.86 2.7C111.338 2.84683 111.754 3.14959 112.04 3.56C112.337 3.99177 112.491 4.506 112.48 5.03C112.609 6.1036 111.959 7.118 110.93 7.45C110.779 7.50574 110.65 7.60713 110.56 7.74C110.471 7.86822 110.442 8.02867 110.48 8.18L110.63 8.82C110.659 8.98845 110.757 9.13718 110.9 9.23C111.032 9.32686 111.199 9.36319 111.36 9.33C112.258 9.1541 113.055 8.64278 113.59 7.9C114.16 7.05479 114.444 6.04874 114.4 5.03C114.441 3.8742 113.99 2.75518 113.16 1.95C112.307 1.16724 111.177 0.756953 110.02 0.810003ZM108.22 5.49C108.105 5.98516 107.941 6.46757 107.73 6.93C107.59 7.2 107.46 7.33 107.35 7.33C107.24 7.33 107.1 7.15 106.94 6.78C106.78 6.41423 106.698 6.01915 106.7 5.62C106.687 4.99681 106.869 4.38515 107.22 3.87C107.579 3.38903 108.084 3.03798 108.66 2.87C108.66 2.87 108.66 2.87 108.72 2.87C108.78 2.87 108.72 2.87 108.72 2.92C108.57 3.93 108.4 4.79 108.22 5.49ZM123.64 3.59C124.095 3.59615 124.532 3.4154 124.85 3.09C125.18 2.7746 125.365 2.33652 125.36 1.88C125.367 1.42301 125.182 0.983996 124.85 0.670003C124.535 0.34052 124.096 0.159007 123.64 0.170003C123.187 0.159337 122.751 0.341024 122.44 0.670003C122.108 0.983996 121.923 1.42301 121.93 1.88C121.925 2.33652 122.11 2.7746 122.44 3.09C122.754 3.41486 123.188 3.59576 123.64 3.59ZM123.12 1.35C123.254 1.20586 123.443 1.12582 123.64 1.13C123.84 1.12291 124.034 1.2032 124.17 1.35C124.317 1.48635 124.397 1.67977 124.39 1.88C124.392 2.07929 124.313 2.27078 124.17 2.41C124.031 2.55261 123.839 2.63209 123.64 2.63C123.444 2.62938 123.257 2.55011 123.12 2.41C122.977 2.27078 122.898 2.07929 122.9 1.88C122.893 1.67977 122.973 1.48635 123.12 1.35ZM122.39 3.85C121.898 3.27021 121.36 2.73174 120.78 2.24C120.429 2.04716 120.029 1.96032 119.63 1.99H119.21C118.876 2.01767 118.565 2.1714 118.34 2.42C117.791 3.08392 117.28 3.77836 116.81 4.5L115.64 6.18C115.552 6.31215 115.519 6.474 115.55 6.63C115.575 6.78681 115.666 6.92534 115.8 7.01L116.51 7.47C116.642 7.56846 116.811 7.60158 116.97 7.56C117.132 7.53591 117.277 7.44533 117.37 7.31C117.46 7.18 117.88 6.56 118.63 5.43C118.95 4.94 119.18 4.6 119.31 4.43C119.44 4.26 119.55 4.17 119.63 4.17C119.782 4.19483 119.92 4.27279 120.02 4.39C120.18 4.54 120.46 4.85 120.87 5.32C122.06 6.64 123.05 7.72 123.87 8.55C123.98 8.66227 124.133 8.72381 124.29 8.72C124.449 8.72 124.601 8.65495 124.71 8.54L125.38 7.87C125.498 7.75438 125.563 7.5952 125.56 7.43C125.56 7.26827 125.496 7.11322 125.38 7C124.453 6.06 123.457 5.01 122.39 3.85ZM134.15 4.07H127.15C127 4.06966 126.857 4.13552 126.76 4.25C126.654 4.3676 126.596 4.52148 126.6 4.68V5.49C126.594 5.64887 126.652 5.80353 126.76 5.92C126.857 6.03449 127 6.10034 127.15 6.1H134.15C134.3 6.10034 134.443 6.03449 134.54 5.92C134.648 5.80353 134.706 5.64887 134.7 5.49V4.68C134.704 4.52148 134.646 4.3676 134.54 4.25C134.443 4.13552 134.3 4.06966 134.15 4.07ZM137.52 2.47L139.95 2.93C140.108 2.9654 140.273 2.93662 140.41 2.85C140.552 2.76963 140.651 2.63043 140.68 2.47L140.8 1.88C140.837 1.72086 140.805 1.55334 140.71 1.42C140.623 1.28625 140.486 1.19269 140.33 1.16L137.88 0.690003C137.719 0.661566 137.554 0.697492 137.42 0.790003C137.291 0.886262 137.199 1.02399 137.16 1.18L137.05 1.77C137.009 1.92584 137.042 2.09207 137.14 2.22C137.225 2.35426 137.363 2.44541 137.52 2.47ZM139.38 5.44C139.535 5.47988 139.699 5.45068 139.83 5.36C139.966 5.27553 140.061 5.1376 140.09 4.98L140.21 4.44C140.248 4.28867 140.219 4.12822 140.13 4C140.052 3.85614 139.912 3.75648 139.75 3.73C138.75 3.53 137.98 3.38 137.36 3.27C137.201 3.23865 137.036 3.27097 136.9 3.36C136.759 3.44651 136.661 3.58796 136.63 3.75L136.51 4.28C136.469 4.43584 136.502 4.60207 136.6 4.73C136.685 4.86426 136.823 4.95541 136.98 4.98C137.64 5.07 138.4 5.24 139.38 5.44ZM143.07 1.39C143.113 1.48696 143.163 1.58055 143.22 1.67C143.285 1.80246 143.4 1.90334 143.54 1.95C143.673 2.01033 143.827 2.01033 143.96 1.95C144.099 1.89608 144.205 1.78202 144.25 1.64C144.31 1.49948 144.31 1.34053 144.25 1.2C144.25 1.14 144.17 1.04 144.1 0.920003C144.055 0.824152 144.005 0.730694 143.95 0.640003C143.881 0.501088 143.758 0.396362 143.61 0.350003C143.473 0.290474 143.317 0.290474 143.18 0.350003C143.05 0.420097 142.953 0.538704 142.91 0.680003C142.851 0.813776 142.851 0.966231 142.91 1.1C142.95 1.17 143 1.27 143.07 1.39ZM144.8 2.68L144.07 2.55C143.913 2.52319 143.751 2.55909 143.62 2.65C143.485 2.74273 143.389 2.88143 143.35 3.04C143.109 4.30208 142.446 5.44469 141.47 6.28C140.253 7.06085 138.854 7.51225 137.41 7.59C137.25 7.59921 137.103 7.68006 137.01 7.81C136.915 7.93562 136.879 8.09578 136.91 8.25L137.04 8.98C137.057 9.14508 137.144 9.29478 137.28 9.39C137.41 9.49274 137.577 9.53628 137.74 9.51C139.573 9.40706 141.339 8.78256 142.83 7.71C144.103 6.57087 144.962 5.04055 145.27 3.36C145.311 3.21055 145.278 3.05039 145.18 2.93C145.095 2.79574 144.957 2.7046 144.8 2.68ZM145.71 0.770003C145.65 0.630003 145.59 0.530003 145.56 0.460003C145.49 0.324147 145.367 0.222978 145.22 0.180003C145.076 0.119442 144.914 0.119442 144.77 0.180003C144.63 0.242875 144.524 0.363232 144.48 0.510003C144.426 0.648233 144.426 0.801773 144.48 0.940003C144.62 1.2 144.73 1.39 144.79 1.52C144.863 1.6562 144.984 1.75982 145.13 1.81C145.267 1.86953 145.423 1.86953 145.56 1.81C145.697 1.74832 145.802 1.63236 145.85 1.49C145.91 1.35285 145.91 1.19716 145.85 1.06L145.71 0.770003ZM151.42 1.59C150.156 1.52892 148.919 1.963 147.97 2.8C147.091 3.61113 146.609 4.76479 146.65 5.96C146.626 6.80104 146.887 7.62544 147.39 8.3C147.723 8.87977 148.323 9.255 148.99 9.3C149.34 9.31254 149.687 9.22588 149.99 9.05C150.328 8.8285 150.609 8.53043 150.81 8.18C151.129 7.61494 151.372 7.00953 151.53 6.38C151.776 5.41116 151.97 4.42973 152.11 3.44C152.11 3.39 152.11 3.37 152.21 3.39C152.64 3.53096 153.014 3.80391 153.28 4.17C153.546 4.5655 153.682 5.03372 153.67 5.51C153.785 6.48574 153.194 7.40673 152.26 7.71C152.122 7.75891 152.005 7.85438 151.93 7.98C151.848 8.09218 151.822 8.23617 151.86 8.37L151.99 8.96C152.022 9.11133 152.111 9.24419 152.24 9.33C152.357 9.41928 152.508 9.44887 152.65 9.41C153.457 9.25119 154.173 8.78964 154.65 8.12C155.172 7.35295 155.432 6.43715 155.39 5.51C155.429 4.45845 155.018 3.44019 154.26 2.71C153.504 1.96823 152.479 1.56422 151.42 1.59ZM149.78 5.84C149.676 6.28997 149.529 6.72873 149.34 7.15C149.21 7.4 149.09 7.52 148.99 7.52C148.89 7.52 148.76 7.35 148.62 7.02C148.477 6.68466 148.403 6.3244 148.4 5.96C148.385 5.39374 148.55 4.8373 148.87 4.37C149.184 3.90138 149.645 3.54982 150.18 3.37C150.199 3.361 150.221 3.361 150.24 3.37C150.131 4.20092 149.977 5.02542 149.78 5.84ZM164.28 1.13H157.64C157.478 1.1296 157.323 1.1945 157.21 1.31C157.095 1.42322 157.03 1.57827 157.03 1.74V2.34C157.031 2.50151 157.095 2.65615 157.21 2.77C157.323 2.88551 157.478 2.95041 157.64 2.95H162.82C162.845 2.94666 162.87 2.95506 162.887 2.97271C162.905 2.99037 162.913 3.01526 162.91 3.04V7.14C162.913 7.16475 162.905 7.18964 162.887 7.20729C162.87 7.22495 162.845 7.23335 162.82 7.23H157.64C157.478 7.2296 157.323 7.2945 157.21 7.41C157.093 7.52186 157.027 7.6778 157.03 7.84V8.43C157.027 8.5922 157.093 8.74815 157.21 8.86C157.323 8.97551 157.478 9.04041 157.64 9.04H164.33C164.492 9.04278 164.648 8.9775 164.76 8.86C164.877 8.74815 164.943 8.5922 164.94 8.43V1.74C164.94 1.57827 164.875 1.42322 164.76 1.31C164.637 1.17871 164.459 1.1122 164.28 1.13ZM175.29 2.07L174.54 1.9C174.387 1.86217 174.225 1.88739 174.09 1.97C173.952 2.05637 173.852 2.19229 173.81 2.35C173.52 3.65509 172.819 4.83274 171.81 5.71C170.636 6.55978 169.254 7.07478 167.81 7.2C167.653 7.22312 167.512 7.3099 167.42 7.44C167.322 7.56402 167.282 7.72434 167.31 7.88L167.44 8.66C167.464 8.8224 167.55 8.96919 167.68 9.07C167.805 9.17344 167.97 9.21723 168.13 9.19C169.999 9.03912 171.782 8.34379 173.26 7.19C174.561 6.03078 175.44 4.47269 175.76 2.76C175.797 2.60086 175.765 2.43334 175.67 2.3C175.576 2.17904 175.441 2.09711 175.29 2.07ZM167.55 2.77C168.2 3.07 168.95 3.44 169.78 3.86C169.93 3.9251 170.1 3.9251 170.25 3.86C170.41 3.81645 170.544 3.70756 170.62 3.56L171.03 2.79C171.109 2.65401 171.131 2.492 171.09 2.34C171.049 2.18879 170.943 2.0639 170.8 2C170.05 1.62 169.29 1.26 168.52 0.910003C168.366 0.845556 168.194 0.845556 168.04 0.910003C167.88 0.954793 167.748 1.06837 167.68 1.22L167.29 1.97C167.225 2.10944 167.225 2.27056 167.29 2.41C167.326 2.55928 167.42 2.68844 167.55 2.77ZM178.98 2.63H184.64C184.802 2.63278 184.958 2.5675 185.07 2.45C185.185 2.33615 185.249 2.18151 185.25 2.02V1.42C185.253 1.2578 185.188 1.10186 185.07 0.990003C184.958 0.872509 184.802 0.807229 184.64 0.810003H179.02C178.858 0.807229 178.702 0.872509 178.59 0.990003C178.473 1.10186 178.407 1.2578 178.41 1.42V2.02C178.411 2.18151 178.475 2.33615 178.59 2.45C178.692 2.5577 178.832 2.62213 178.98 2.63ZM185.89 3.7H177.7C177.538 3.69723 177.382 3.76251 177.27 3.88C177.153 3.99186 177.087 4.1478 177.09 4.31V4.9C177.087 5.0622 177.153 5.21815 177.27 5.33C177.382 5.4475 177.538 5.51278 177.7 5.51H180.95C181.01 5.51 181.04 5.51 181.04 5.61C181.053 6.10356 180.89 6.58563 180.58 6.97C180.175 7.35814 179.669 7.6249 179.12 7.74C178.967 7.77455 178.836 7.87278 178.76 8.01C178.68 8.14235 178.662 8.30307 178.71 8.45L178.94 9.11C178.992 9.26791 179.099 9.4024 179.24 9.49C179.381 9.57524 179.549 9.60383 179.71 9.57C181.99 9.03 183.147 7.69667 183.18 5.57C183.177 5.54261 183.186 5.51524 183.206 5.49573C183.225 5.47623 183.253 5.46674 183.28 5.47H185.89C186.052 5.4693 186.206 5.40456 186.32 5.29C186.438 5.17815 186.503 5.0222 186.5 4.86V4.27C186.503 4.1078 186.438 3.95186 186.32 3.84C186.2 3.73997 186.046 3.68986 185.89 3.7ZM188.72 2.77C189.38 3.07 190.12 3.44 190.96 3.86C191.11 3.9251 191.28 3.9251 191.43 3.86C191.586 3.81294 191.716 3.70467 191.79 3.56L192.21 2.79C192.292 2.65457 192.31 2.49009 192.26 2.34C192.222 2.18737 192.115 2.06143 191.97 2C191.22 1.62 190.47 1.26 189.7 0.910003C189.546 0.845556 189.374 0.845556 189.22 0.910003C189.059 0.956981 188.924 1.06943 188.85 1.22L188.47 1.97C188.39 2.10235 188.372 2.26307 188.42 2.41C188.466 2.56627 188.575 2.69657 188.72 2.77ZM196.47 2.07L195.72 1.9C195.567 1.86217 195.405 1.88739 195.27 1.97C195.126 2.05026 195.024 2.18883 194.99 2.35C194.695 3.65326 193.995 4.82958 192.99 5.71C191.814 6.55624 190.433 7.07087 188.99 7.2C188.83 7.22278 188.686 7.30933 188.59 7.44C188.494 7.56505 188.458 7.72577 188.49 7.88L188.61 8.66C188.634 8.8251 188.724 8.97326 188.86 9.07C188.985 9.17344 189.15 9.21723 189.31 9.19C191.176 9.03952 192.956 8.34404 194.43 7.19C195.734 6.03178 196.617 4.47374 196.94 2.76C196.971 2.6008 196.939 2.43565 196.85 2.3C196.756 2.17904 196.621 2.09711 196.47 2.07ZM201.81 4.38C201.854 4.53895 201.954 4.67708 202.09 4.77C202.225 4.85993 202.392 4.88896 202.55 4.85L203.3 4.68C203.454 4.6492 203.589 4.55483 203.67 4.42C203.757 4.28716 203.783 4.12307 203.74 3.97C203.54 3.19 203.32 2.37 203.09 1.5C203.045 1.3411 202.941 1.20524 202.8 1.12C202.661 1.03904 202.498 1.01065 202.34 1.04L201.59 1.22C201.433 1.24426 201.296 1.34041 201.22 1.48C201.14 1.61213 201.119 1.77134 201.16 1.92C201.51 3.22 201.73 4.07 201.81 4.38ZM200.79 4.68C200.869 4.54401 200.891 4.382 200.85 4.23L200.2 1.81C200.155 1.65609 200.051 1.52645 199.91 1.45C199.774 1.3623 199.606 1.33684 199.45 1.38L198.75 1.53C198.599 1.56222 198.468 1.65659 198.39 1.79C198.307 1.92831 198.285 2.095 198.33 2.25C198.48 2.83 198.69 3.64 198.94 4.67C198.97 4.82491 199.064 4.95965 199.2 5.04C199.337 5.1246 199.502 5.15324 199.66 5.12L200.41 4.95C200.568 4.91598 200.706 4.81835 200.79 4.68Z" fill="#EE4949"/>
<path d="M206.7 1.06999H205.89C205.73 1.05947 205.574 1.1177 205.46 1.22999C205.339 1.33146 205.269 1.48182 205.27 1.63999C205.268 2.51129 205.17 3.37975 204.98 4.22999C204.838 4.86411 204.551 5.45645 204.14 5.95999C203.758 6.43278 203.263 6.80094 202.7 7.02999C201.991 7.3149 201.248 7.50651 200.49 7.59999C200.332 7.61448 200.189 7.69886 200.1 7.82999C200.004 7.95504 199.968 8.11576 200 8.26999L200.13 8.93999C200.158 9.1059 200.252 9.25355 200.39 9.34999C200.522 9.4557 200.692 9.50267 200.86 9.47999C201.845 9.38027 202.812 9.14122 203.73 8.76999C204.5 8.45835 205.186 7.96824 205.73 7.33999C206.28 6.67312 206.679 5.89538 206.9 5.05999C207.172 3.9806 207.316 2.87302 207.33 1.75999C207.342 1.59524 207.28 1.43368 207.16 1.31999C207.046 1.17861 206.881 1.08859 206.7 1.06999ZM218.29 2.82999C217.199 2.23798 216.19 1.50503 215.29 0.649992C215.025 0.382231 214.667 0.22802 214.29 0.219992H212.94C212.563 0.22802 212.205 0.382231 211.94 0.649992C211.042 1.50721 210.033 2.24038 208.94 2.82999C208.792 2.90317 208.68 3.03303 208.63 3.18999C208.565 3.3399 208.565 3.51009 208.63 3.65999L208.83 4.15999C208.888 4.30747 209.009 4.42121 209.16 4.46999C209.303 4.53547 209.467 4.53547 209.61 4.46999L210.61 3.91999V4.12999C210.61 4.28872 210.675 4.44052 210.79 4.54999C210.899 4.67224 211.056 4.74147 211.22 4.73999H212.49C212.56 4.73999 212.59 4.73999 212.59 4.82999V5.55999C212.59 5.61999 212.59 5.63999 212.49 5.63999H210.42C210.257 5.64102 210.101 5.70982 209.99 5.82999C209.875 5.93946 209.81 6.09126 209.81 6.24999V6.58999C209.81 6.74872 209.875 6.90052 209.99 7.00999C210.099 7.13333 210.256 7.2028 210.42 7.19999H212.49C212.56 7.19999 212.59 7.19999 212.59 7.28999V8.12999C212.59 8.12999 212.59 8.20999 212.49 8.20999H209.49C209.328 8.20722 209.172 8.2725 209.06 8.38999C208.944 8.50321 208.88 8.65826 208.88 8.81999V9.20999C208.88 9.36872 208.945 9.52052 209.06 9.62999C209.169 9.75333 209.326 9.8228 209.49 9.82007H217.79C217.951 9.82121 218.105 9.75177 218.21 9.62999C218.325 9.52052 218.39 9.36872 218.39 9.20999V8.81999C218.39 8.65826 218.326 8.50321 218.21 8.38999C218.101 8.27505 217.949 8.20999 217.79 8.20999H214.64C214.58 8.20999 214.55 8.20999 214.55 8.12999V7.28999C214.547 7.26525 214.555 7.24036 214.573 7.2227C214.59 7.20504 214.615 7.19664 214.64 7.19999H216.72C216.884 7.2028 217.041 7.13333 217.15 7.00999C217.265 6.90052 217.33 6.74872 217.33 6.58999V6.24999C217.33 6.09126 217.265 5.93946 217.15 5.82999C217.039 5.70982 216.883 5.64102 216.72 5.63999H214.64C214.58 5.63999 214.55 5.63999 214.55 5.55999V4.82999C214.547 4.80525 214.555 4.78036 214.573 4.7627C214.59 4.74504 214.615 4.73664 214.64 4.73999H215.97C216.134 4.7428 216.291 4.67333 216.4 4.54999C216.515 4.44052 216.58 4.28872 216.58 4.12999V3.95999H216.63C216.98 4.15999 217.29 4.32999 217.56 4.45999C217.707 4.52461 217.873 4.52461 218.02 4.45999C218.171 4.40661 218.292 4.28972 218.35 4.13999L218.55 3.63999C218.615 3.49009 218.615 3.3199 218.55 3.16999C218.507 3.02897 218.415 2.9082 218.29 2.82999ZM215.46 3.21999H211.64C211.64 3.21999 211.59 3.21999 211.64 3.16999C212.313 2.67858 212.942 2.12987 213.52 1.52999C213.52 1.47999 213.61 1.46999 213.65 1.52999C214.225 2.13948 214.854 2.69513 215.53 3.18999C215.53 3.18999 215.5 3.21999 215.46 3.21999ZM224.64 3.74999C224.58 3.74999 224.55 3.74999 224.57 3.65999C224.67 3.26999 224.76 2.84999 224.86 2.39999C224.931 2.3975 224.999 2.36903 225.05 2.31999C225.109 2.27074 225.142 2.19696 225.14 2.11999V1.45999C225.143 1.29573 225.073 1.13852 224.95 1.02999C224.841 0.915047 224.689 0.849992 224.53 0.849992H223.53C223.47 0.849992 223.44 0.849992 223.44 0.749992V0.659992C223.443 0.497793 223.377 0.341845 223.26 0.229992C223.147 0.114489 222.992 0.0495839 222.83 0.0499897H222.07C221.908 0.0495839 221.753 0.114489 221.64 0.229992C221.522 0.341845 221.457 0.497793 221.46 0.659992V0.749992C221.46 0.819992 221.46 0.849992 221.37 0.849992H220.47C220.308 0.847217 220.152 0.912498 220.04 1.02999C219.922 1.14185 219.857 1.29779 219.86 1.45999V2.06999C219.858 2.15561 219.89 2.23846 219.95 2.29999C220.011 2.36688 220.099 2.40344 220.19 2.39999C220.31 2.88666 220.41 3.30666 220.49 3.65999C220.49 3.71999 220.47 3.74999 220.43 3.74999H220.31C220.148 3.74722 219.992 3.8125 219.88 3.92999C219.764 4.04321 219.7 4.19826 219.7 4.35999V4.73999C219.697 4.90219 219.763 5.05814 219.88 5.16999C219.992 5.28749 220.148 5.35277 220.31 5.34999H224.64C224.802 5.35277 224.958 5.28749 225.07 5.16999C225.187 5.05814 225.253 4.90219 225.25 4.73999V4.35999C225.25 4.19826 225.186 4.04321 225.07 3.92999C224.958 3.8125 224.802 3.74722 224.64 3.74999ZM222.85 3.66999C222.84 3.72133 222.792 3.75621 222.74 3.74999H222.42C222.36 3.74999 222.33 3.74999 222.31 3.65999C222.2 3.14999 222.12 2.73999 222.04 2.44999C222.04 2.38999 222.04 2.35999 222.11 2.35999H223.04C223.1 2.35999 223.13 2.35999 223.11 2.44999C223.01 2.79999 222.92 3.20999 222.81 3.66999H222.85ZM224.44 5.77999H220.64C220.478 5.77722 220.322 5.8425 220.21 5.95999C220.095 6.07384 220.031 6.22848 220.03 6.38999V9.38999C220.03 9.54872 220.095 9.70052 220.21 9.80999C220.319 9.93333 220.476 10.0028 220.64 9.99999H221.64C221.717 10.0024 221.791 9.96919 221.84 9.90999C221.889 9.85859 221.917 9.79099 221.92 9.71999H223.12H223.17C223.169 9.78984 223.194 9.85761 223.24 9.90999C223.291 9.96694 223.364 9.99964 223.44 9.99999H224.37C224.534 10.0028 224.691 9.93333 224.8 9.80999C224.915 9.70052 224.98 9.54872 224.98 9.38999V6.38999C224.979 6.22848 224.915 6.07384 224.8 5.95999C224.705 5.85894 224.578 5.7951 224.44 5.77999ZM223.24 8.08999C223.243 8.11738 223.234 8.14476 223.214 8.16426C223.195 8.18377 223.167 8.19325 223.14 8.18999H222.05C221.98 8.18999 221.95 8.18999 221.95 8.08999V7.41999C221.95 7.35999 221.95 7.32999 222.05 7.32999H223.14C223.2 7.32999 223.24 7.32999 223.24 7.41999V8.08999ZM229.01 4.55999C228.981 4.51421 228.981 4.45577 229.01 4.40999C229.282 3.75756 229.516 3.08975 229.71 2.40999C229.831 2.02503 229.892 1.62358 229.89 1.21999V0.939992C229.891 0.775999 229.822 0.619318 229.7 0.509992C229.591 0.395047 229.439 0.32999 229.28 0.32999H226.11C225.948 0.329584 225.793 0.394489 225.68 0.509992C225.564 0.623206 225.5 0.778256 225.5 0.939992V9.34999C225.5 9.50872 225.565 9.66052 225.68 9.76999C225.789 9.89224 225.946 9.96147 226.11 9.96007H226.76C226.924 9.9628 227.081 9.89333 227.19 9.76999C227.305 9.66052 227.37 9.50872 227.37 9.34999V7.59999L227.53 8.29999C227.576 8.46624 227.674 8.61339 227.81 8.71999C227.942 8.8302 228.108 8.89039 228.28 8.88999H228.37C228.825 8.92918 229.274 8.76004 229.59 8.42999C229.89 7.96435 230.024 7.41118 229.97 6.85999C229.969 6.43651 229.88 6.01784 229.71 5.62999C229.539 5.23625 229.302 4.87444 229.01 4.55999ZM227.35 1.96999C227.35 1.90999 227.35 1.87999 227.45 1.87999H227.89C227.94 1.87999 227.97 1.87999 227.95 1.96999C227.809 2.61692 227.618 3.2521 227.38 3.86999L227.35 1.96999ZM227.98 7.20999C227.819 7.31133 227.628 7.35375 227.44 7.32999C227.415 7.33334 227.39 7.32494 227.373 7.30728C227.355 7.28962 227.347 7.26474 227.35 7.23999V4.99999C227.744 5.48533 227.984 6.07727 228.04 6.69999C228.077 6.87193 228.056 7.05142 227.98 7.20999Z" fill="#EE4949"/>
<path d="M240.07 7.57H239.87C239.73 7.54999 239.589 7.58994 239.48 7.68C239.373 7.77406 239.308 7.90746 239.3 8.05C239.3 8.19 239.3 8.29 239.3 8.36C239.31 8.40953 239.31 8.46047 239.3 8.51C239.3 8.51 239.3 8.57 239.3 8.58H238.95C238.9 8.58 238.86 8.58 238.85 8.53C238.841 8.44691 238.841 8.3631 238.85 8.28V7.28C238.85 7.23 238.85 7.21 238.93 7.21H239.7C239.848 7.20909 239.989 7.14765 240.09 7.04C240.198 6.93874 240.259 6.79779 240.26 6.65V1.79C240.261 1.64465 240.199 1.50594 240.09 1.41C239.988 1.30504 239.847 1.24712 239.7 1.25H235.7C235.553 1.24712 235.412 1.30504 235.31 1.41C235.201 1.50594 235.139 1.64465 235.14 1.79V6.19C234.9 5.86 234.63 5.52 234.34 5.19C234.315 5.14669 234.315 5.09332 234.34 5.05C234.455 4.822 234.558 4.58838 234.65 4.35C234.782 4.00896 234.846 3.6456 234.84 3.28V3.04C234.843 2.89347 234.785 2.75229 234.68 2.65C234.575 2.54879 234.436 2.49154 234.29 2.49H234.04C233.98 2.49 233.95 2.49 233.95 2.41V1.65C233.948 1.50433 233.891 1.36478 233.79 1.26C233.687 1.15424 233.547 1.09316 233.4 1.09H233.07C232.922 1.09091 232.781 1.15236 232.68 1.26C232.575 1.36229 232.517 1.50347 232.52 1.65V2.41C232.52 2.46 232.52 2.49 232.43 2.49H232.14C231.997 2.49204 231.861 2.54941 231.76 2.65C231.655 2.75229 231.597 2.89347 231.6 3.04V3.28C231.597 3.42653 231.655 3.56772 231.76 3.67C231.858 3.77444 231.996 3.83253 232.14 3.83H233.28H233.33C233.335 3.84634 233.335 3.86367 233.33 3.88C232.993 4.68761 232.46 5.39886 231.78 5.95C231.509 6.15096 231.377 6.48882 231.44 6.82L231.54 7.31C231.558 7.43358 231.643 7.53725 231.76 7.58C231.86 7.64594 231.99 7.64594 232.09 7.58L232.44 7.27V9.41C232.437 9.55653 232.495 9.69772 232.6 9.8C232.701 9.90765 232.842 9.96909 232.99 9.97H233.32C233.467 9.96685 233.607 9.90577 233.71 9.8C233.811 9.69523 233.868 9.55567 233.87 9.41V6.78L234.08 7.07C234.157 7.18544 234.282 7.25921 234.42 7.27C234.559 7.29294 234.7 7.24836 234.8 7.15L234.93 7.03C234.975 6.98772 235.015 6.94079 235.05 6.89C235.128 7.10765 235.339 7.24932 235.57 7.24H235.73C235.78 7.24 235.81 7.24 235.79 7.31C235.633 7.9356 235.152 8.42841 234.53 8.6C234.393 8.64696 234.281 8.74817 234.22 8.88C234.16 9.00668 234.16 9.15332 234.22 9.28L234.31 9.48C234.358 9.62491 234.462 9.74409 234.6 9.81C234.737 9.86953 234.893 9.86953 235.03 9.81C236.176 9.4676 237.009 8.47745 237.15 7.29C237.163 7.24468 237.203 7.21252 237.25 7.21H237.34C237.39 7.21 237.42 7.21 237.42 7.28V9.01C237.42 9.36 237.48 9.59 237.6 9.68C237.901 9.80313 238.227 9.85118 238.55 9.82H239.13H239.67C239.795 9.81387 239.919 9.79374 240.04 9.76C240.142 9.7363 240.236 9.68432 240.31 9.61C240.377 9.5306 240.428 9.43889 240.46 9.34C240.514 9.19828 240.551 9.05055 240.57 8.9C240.57 8.74 240.57 8.52 240.62 8.24C240.63 8.09009 240.58 7.94235 240.48 7.83C240.39 7.68552 240.239 7.58984 240.07 7.57ZM238.64 5.91C238.64 5.97 238.64 5.99 238.55 5.99H236.55C236.5 5.99 236.47 5.99 236.47 5.91V5.57C236.47 5.52 236.47 5.5 236.55 5.5H238.55C238.61 5.5 238.64 5.5 238.64 5.57V5.91ZM238.64 4.39C238.64 4.44 238.64 4.47 238.55 4.47H236.55C236.528 4.47347 236.505 4.46616 236.49 4.45035C236.474 4.43453 236.467 4.4121 236.47 4.39V4.07C236.47 4.01 236.47 3.98 236.55 3.98H238.55C238.575 3.97666 238.6 3.98506 238.617 4.00271C238.635 4.02037 238.643 4.04526 238.64 4.07V4.39ZM238.64 2.87C238.64 2.87 238.64 2.95 238.55 2.95H236.55C236.528 2.95347 236.505 2.94616 236.49 2.93035C236.474 2.91453 236.467 2.8921 236.47 2.87V2.53C236.47 2.47 236.47 2.44 236.55 2.44H238.55C238.575 2.43666 238.6 2.44506 238.617 2.46271C238.635 2.48037 238.643 2.50526 238.64 2.53V2.87ZM250.06 7.25C250.007 7.10948 249.899 6.99717 249.76 6.94C249.621 6.88957 249.469 6.88957 249.33 6.94L248.75 7.18C248.774 7.12249 248.774 7.05751 248.75 7C248.744 6.93385 248.707 6.87452 248.65 6.84C248.478 6.70271 248.297 6.57582 248.11 6.46H249.78C249.927 6.46289 250.068 6.40497 250.17 6.3C250.278 6.19874 250.339 6.05779 250.34 5.91V3.78C250.339 3.63222 250.278 3.49126 250.17 3.39C250.069 3.28236 249.928 3.22091 249.78 3.22H248.24C248.215 3.22335 248.19 3.21495 248.173 3.19729C248.155 3.17964 248.147 3.15475 248.15 3.13V2.87C248.15 2.87 248.15 2.79 248.24 2.79H249.99C250.137 2.79289 250.278 2.73497 250.38 2.63C250.485 2.52772 250.543 2.38653 250.54 2.24V2.07C250.543 1.92347 250.485 1.78229 250.38 1.68C250.278 1.57504 250.137 1.51712 249.99 1.52H248.23C248.17 1.52 248.15 1.52 248.15 1.44C248.149 1.30789 248.095 1.18168 248 1.09C247.909 0.994365 247.782 0.943201 247.65 0.950003H247.1C246.969 0.944529 246.841 0.995481 246.75 1.09C246.655 1.18168 246.601 1.30789 246.6 1.44C246.6 1.49 246.6 1.52 246.53 1.52H245.03C244.87 1.51198 244.715 1.57841 244.61 1.7C244.589 1.58141 244.52 1.47659 244.42 1.41C244.324 1.33353 244.203 1.29446 244.08 1.3H241.99C241.843 1.29712 241.702 1.35504 241.6 1.46C241.491 1.55594 241.429 1.69465 241.43 1.84V2.3C241.431 2.36842 241.46 2.43348 241.51 2.48C241.56 2.53171 241.628 2.56066 241.7 2.56V7.56C241.709 7.57547 241.709 7.59453 241.7 7.61C241.604 7.62724 241.518 7.68097 241.46 7.76C241.405 7.8354 241.377 7.92686 241.38 8.02V8.39C241.393 8.53278 241.466 8.66345 241.58 8.75C241.697 8.8387 241.847 8.8716 241.99 8.84L243.11 8.61C243.17 8.61 243.19 8.61 243.19 8.67V9.35C243.191 9.49779 243.252 9.63874 243.36 9.74C243.461 9.84765 243.602 9.90909 243.75 9.91C243.888 9.91014 244.021 9.85632 244.12 9.76C244.227 9.66594 244.292 9.53254 244.3 9.39C244.3 9.34 244.3 9.33 244.37 9.39L244.51 9.5C244.625 9.58559 244.773 9.61158 244.91 9.57C245.044 9.54312 245.154 9.44832 245.2 9.32C245.397 8.88591 245.551 8.4338 245.66 7.97V8.44C245.66 8.7 245.66 8.9 245.66 9.03C245.666 9.16662 245.693 9.30149 245.74 9.43C245.775 9.5298 245.829 9.62161 245.9 9.7C246 9.76504 246.112 9.80925 246.23 9.83C246.391 9.86869 246.555 9.89213 246.72 9.9H247.46C247.927 9.93254 248.395 9.87482 248.84 9.73C249.07 9.62 249.21 9.35 249.27 8.91C249.278 8.95944 249.295 9.00697 249.32 9.05C249.325 9.09653 249.325 9.14348 249.32 9.19C249.364 9.3235 249.462 9.43238 249.59 9.49C249.718 9.54447 249.862 9.54447 249.99 9.49L250.13 9.43C250.268 9.36787 250.378 9.25764 250.44 9.12C250.495 8.98196 250.495 8.82804 250.44 8.69C250.41 8.16 250.24 7.68 250.06 7.25ZM248.67 4.25C248.67 4.19 248.67 4.16 248.74 4.16H249.03C249.03 4.16 249.11 4.16 249.11 4.25V5.25C249.11 5.31 249.11 5.34 249.03 5.34H248.74C248.69 5.34 248.67 5.34 248.67 5.25V4.25ZM243.2 7.25C243.2 7.30155 243.161 7.34485 243.11 7.35H242.99H242.86C242.81 7.35 242.78 7.35 242.78 7.28V6.5C242.78 6.44 242.78 6.42 242.86 6.42H243.11C243.17 6.42 243.2 6.42 243.2 6.5V7.25ZM243.2 5.32C243.203 5.34475 243.195 5.36964 243.177 5.38729C243.16 5.40495 243.135 5.41335 243.11 5.41H242.86C242.81 5.41 242.78 5.41 242.78 5.32V4.58C242.777 4.5579 242.784 4.53548 242.8 4.51966C242.815 4.50384 242.838 4.49654 242.86 4.5H243.11C243.17 4.5 243.2 4.5 243.2 4.58V5.32ZM243.2 3.32C243.2 3.38 243.2 3.4 243.11 3.4H242.86C242.81 3.4 242.78 3.4 242.78 3.32V2.6C242.777 2.5779 242.784 2.55548 242.8 2.53966C242.815 2.52384 242.838 2.51654 242.86 2.52H243.11C243.17 2.52 243.2 2.52 243.2 2.6V3.32ZM247.2 4.22C247.2 4.16 247.2 4.13 247.28 4.13H247.56C247.62 4.13 247.64 4.13 247.64 4.22V5.22C247.64 5.28 247.64 5.31 247.56 5.31H247.28C247.23 5.31 247.2 5.31 247.2 5.22V4.22ZM246.98 6.45L246.81 6.7C246.78 6.74777 246.726 6.7748 246.67 6.77H245.98C245.892 6.76675 245.808 6.80353 245.75 6.87C245.685 6.93295 245.649 7.01969 245.65 7.11C245.65 7.11 245.65 7.11 245.6 7.11L245.15 6.96C245.022 6.90553 244.878 6.90553 244.75 6.96C244.623 7.02629 244.529 7.14207 244.49 7.28C244.49 7.46 244.38 7.66 244.3 7.9V2.49C244.364 2.49132 244.426 2.46595 244.47 2.42C244.47 2.42 244.54 2.42 244.56 2.42C244.659 2.58329 244.839 2.67926 245.03 2.67H246.52C246.542 2.66654 246.565 2.67384 246.58 2.68966C246.596 2.70548 246.603 2.7279 246.6 2.75V3.01C246.6 3.07 246.6 3.1 246.52 3.1H245.1C244.952 3.10091 244.811 3.16236 244.71 3.27C244.602 3.37126 244.541 3.51222 244.54 3.66V5.79C244.541 5.93779 244.602 6.07874 244.71 6.18C244.812 6.28497 244.953 6.34289 245.1 6.34H246.94C247.05 6.39 247.06 6.41 247.02 6.46L246.98 6.45ZM246.21 4.22V5.22C246.21 5.28 246.21 5.31 246.14 5.31H245.85C245.8 5.31 245.77 5.31 245.77 5.22V4.22C245.77 4.16 245.77 4.13 245.85 4.13H246.14C246.23 4.14 246.25 4.17 246.25 4.23L246.21 4.22ZM247.93 8.6C247.87 8.67 247.72 8.7 247.47 8.7C247.22 8.7 247.13 8.7 247.09 8.7C247.034 8.58874 247.013 8.46331 247.03 8.34V7.26C247.021 7.24453 247.021 7.22547 247.03 7.21C247.327 7.38973 247.611 7.59023 247.88 7.81C247.921 7.8446 247.943 7.89649 247.94 7.95C247.992 8.16603 248.002 8.39012 247.97 8.61L247.93 8.6ZM248.93 7.9L248.39 7.79C248.34 7.79 248.33 7.79 248.39 7.71L248.7 7.29C248.7 7.29 248.75 7.29 248.77 7.29C248.88 7.53 248.96 7.7 249.01 7.83C249.021 7.85295 249.016 7.88031 248.998 7.89829C248.98 7.91627 248.953 7.92096 248.93 7.91V7.9ZM258.7 8.23C258.586 8.14297 258.441 8.10679 258.3 8.13C258.094 8.14524 257.886 8.14524 257.68 8.13C257.092 8.16127 256.516 7.9642 256.07 7.58C255.655 7.1944 255.432 6.64549 255.46 6.08C255.462 5.32927 255.837 4.62855 256.46 4.21C257.351 3.61081 258.388 3.26515 259.46 3.21C259.606 3.19073 259.741 3.11981 259.84 3.01C259.94 2.90194 259.991 2.757 259.98 2.61V2.29C259.978 2.14814 259.917 2.01363 259.81 1.92C259.71 1.81307 259.566 1.75783 259.42 1.77C257.107 1.87 254.773 1.92667 252.42 1.94C252.275 1.93874 252.136 2.00079 252.04 2.11C251.931 2.20594 251.869 2.34465 251.87 2.49V2.8C251.867 2.94856 251.929 3.09097 252.04 3.19C252.149 3.28997 252.292 3.34375 252.44 3.34C253.58 3.34 254.62 3.34 255.57 3.28C255.034 3.60406 254.582 4.04934 254.25 4.58C253.948 5.05954 253.786 5.61344 253.78 6.18C253.731 7.11242 254.119 8.01438 254.83 8.62C255.614 9.2606 256.609 9.58515 257.62 9.53C257.914 9.53158 258.208 9.51488 258.5 9.48C258.649 9.46356 258.784 9.38334 258.87 9.26C258.96 9.13952 258.999 8.98897 258.98 8.84V8.5C258.925 8.37717 258.825 8.28039 258.7 8.23Z" fill="#252525"/>
<path d="M258.7 4.75001C258.634 4.61475 258.514 4.51325 258.37 4.47C258.232 4.41491 258.078 4.41491 257.94 4.47C257.808 4.53204 257.709 4.64898 257.67 4.79C257.61 4.9201 257.61 5.06991 257.67 5.2C257.84 5.53 257.95 5.72001 257.98 5.78C258.048 5.90987 258.162 6.00969 258.3 6.06C258.438 6.1151 258.592 6.1151 258.73 6.06C258.859 5.99583 258.959 5.88505 259.01 5.75C259.066 5.61552 259.066 5.46449 259.01 5.33L258.7 4.75001ZM260.25 4.40001C260.186 4.26526 260.065 4.16624 259.92 4.13001C259.785 4.07552 259.635 4.07552 259.5 4.13001C259.366 4.18973 259.266 4.30764 259.23 4.45C259.174 4.58449 259.174 4.73552 259.23 4.87L259.4 5.17001L259.55 5.47C259.619 5.60309 259.737 5.70368 259.88 5.75C260.014 5.80556 260.165 5.80556 260.3 5.75C260.432 5.68936 260.533 5.57731 260.58 5.44C260.64 5.3065 260.64 5.15351 260.58 5.02L260.25 4.40001ZM269.18 3.8L267.59 3.86C267.53 3.86 267.49 3.86 267.49 3.79C267.49 3.72001 267.41 3.54 267.36 3.34C267.31 3.14 267.36 3.25001 267.42 3.25001H268.2H268.96C269.105 3.24062 269.241 3.17624 269.34 3.07C269.44 2.96567 269.491 2.82396 269.48 2.68001V2.53C269.473 2.3845 269.408 2.24783 269.3 2.15001C269.196 2.04382 269.048 1.9921 268.9 2.01L267.21 2.08C267.15 2.08 267.12 2.08 267.11 2.00001V1.71001C267.102 1.55976 267.033 1.4192 266.92 1.32001C266.816 1.22025 266.674 1.16938 266.53 1.18H266.14C265.991 1.18466 265.85 1.24962 265.75 1.36001C265.653 1.46158 265.606 1.60043 265.62 1.74001C265.627 1.78643 265.627 1.83358 265.62 1.88001C265.62 1.94001 265.62 1.99001 265.62 2.02C265.62 2.05 265.62 2.1 265.54 2.1C264.34 2.1 263.44 2.1 262.85 2.1C262.701 2.10101 262.558 2.15816 262.45 2.26C262.343 2.36537 262.286 2.51025 262.29 2.66001V2.8C262.287 2.94654 262.345 3.08772 262.45 3.19001C262.551 3.29765 262.692 3.35909 262.84 3.36C263.7 3.36 264.68 3.36 265.77 3.36C265.83 3.36 265.86 3.36001 265.86 3.43001C265.86 3.50001 265.96 3.79001 265.98 3.88001C266 3.97001 265.98 3.96001 265.92 3.96001C264.34 3.96001 263.17 4.02 262.39 4.02C262.244 4.02051 262.104 4.07791 262 4.18C261.899 4.28478 261.842 4.42434 261.84 4.57001V4.72C261.835 4.86404 261.893 5.00303 262 5.1C262.098 5.20445 262.236 5.26253 262.38 5.26C264.15 5.26 265.48 5.26 266.38 5.2C266.427 5.19965 266.47 5.22705 266.49 5.27C266.59 5.52 266.67 5.70001 266.73 5.82C266.283 5.70002 265.823 5.6395 265.36 5.64C264.595 5.58908 263.831 5.75917 263.16 6.13C262.688 6.4001 262.4 6.90608 262.41 7.45C262.41 8.86 263.68 9.56001 266.23 9.56001C266.875 9.55726 267.52 9.51384 268.16 9.43001C268.306 9.4114 268.439 9.33595 268.53 9.22001C268.62 9.10357 268.66 8.95589 268.64 8.81001V8.62C268.621 8.47385 268.546 8.34091 268.43 8.25C268.317 8.16154 268.173 8.12195 268.03 8.14001C267.443 8.2133 266.852 8.25669 266.26 8.27001C265.673 8.30048 265.085 8.23289 264.52 8.07C264.237 7.99476 264.038 7.74242 264.03 7.45C264.03 7.04 264.48 6.83 265.39 6.83C265.884 6.83625 266.374 6.9241 266.84 7.09C267.16 7.22224 267.52 7.22224 267.84 7.09L268.38 6.84C268.506 6.77792 268.601 6.66535 268.64 6.53C268.681 6.3977 268.659 6.25384 268.58 6.14C268.38 5.8 268.22 5.5 268.09 5.24V5.17001H268.68H269.26C269.405 5.16062 269.541 5.09624 269.64 4.99C269.738 4.88073 269.789 4.73669 269.78 4.59001V4.45C269.782 4.3024 269.715 4.16226 269.6 4.07001C269.51 3.91912 269.355 3.81916 269.18 3.8ZM276.26 4.43C275.952 4.42823 275.644 4.45502 275.34 4.51001L277.76 3.23001C278.067 3.08048 278.252 2.76039 278.23 2.42001V2.20001C278.233 2.05347 278.175 1.91229 278.07 1.81C277.968 1.70504 277.827 1.64712 277.68 1.65H272.43C272.286 1.64486 272.147 1.70338 272.05 1.81C271.942 1.91126 271.881 2.05222 271.88 2.20001V2.38001C271.881 2.52779 271.942 2.66875 272.05 2.77C272.146 2.87922 272.285 2.94127 272.43 2.94001H275.43L271.73 5.12C271.599 5.19175 271.505 5.31516 271.47 5.46C271.409 5.5969 271.409 5.75311 271.47 5.89V5.98C271.532 6.11468 271.648 6.21654 271.79 6.26C271.927 6.31953 272.083 6.31953 272.22 6.26C272.748 6.02887 273.297 5.85131 273.86 5.73C274.41 5.62141 274.969 5.56781 275.53 5.57C276.75 5.57 277.37 5.98 277.37 6.78C277.399 7.30779 277.118 7.80414 276.65 8.05C276.658 7.94348 276.658 7.83653 276.65 7.73C276.676 7.30591 276.488 6.89682 276.15 6.64C275.659 6.35849 275.095 6.22968 274.53 6.27C273.92 6.24371 273.316 6.40419 272.8 6.73C272.413 6.97627 272.176 7.40118 272.17 7.86C272.17 9.05 273.17 9.64001 275.11 9.64001C276.134 9.70197 277.151 9.43194 278.01 8.87C278.681 8.36042 279.056 7.5513 279.01 6.71C279.039 6.08387 278.772 5.4805 278.29 5.08C277.709 4.63402 276.992 4.40419 276.26 4.43ZM275.26 8.29C275.243 8.3349 275.198 8.36326 275.15 8.36C274.15 8.36 273.64 8.17 273.64 7.8C273.642 7.65669 273.723 7.52614 273.85 7.46C274.046 7.36417 274.262 7.31944 274.48 7.33C274.726 7.31011 274.974 7.35133 275.2 7.45C275.326 7.53435 275.398 7.67871 275.39 7.83C275.37 7.99018 275.322 8.14574 275.25 8.29H275.26ZM283.36 1.51995H282.36C282.204 1.51785 282.054 1.5835 281.95 1.70001C281.834 1.81163 281.775 1.96982 281.79 2.13001L282 6.26C282.009 6.42366 282.081 6.57757 282.2 6.69C282.312 6.8075 282.468 6.87278 282.63 6.87H283.06C283.225 6.87315 283.384 6.80803 283.5 6.69C283.623 6.58022 283.695 6.42472 283.7 6.26L283.9 2.13001C283.924 1.97073 283.868 1.80998 283.75 1.70001C283.648 1.5923 283.508 1.52788 283.36 1.51995ZM283.2 7.72H282.55C282.391 7.72 282.239 7.78506 282.13 7.9C282.012 8.0122 281.943 8.16704 281.94 8.33V8.72001C281.944 8.87998 282.012 9.03156 282.13 9.14001C282.235 9.26178 282.389 9.33123 282.55 9.33002H283.2C283.361 9.33123 283.515 9.26178 283.62 9.14001C283.738 9.03156 283.806 8.87998 283.81 8.72001V8.33C283.807 8.16704 283.738 8.0122 283.62 7.9C283.511 7.78506 283.359 7.72 283.2 7.72ZM293.64 1.89C293.595 1.78809 293.491 1.72452 293.38 1.73001H292.64C292.291 1.71799 291.962 1.88852 291.77 2.18001L287.06 8.77001C286.995 8.85574 286.995 8.97427 287.06 9.06001C287.102 9.16034 287.201 9.22415 287.31 9.22001H288.05C288.402 9.23558 288.736 9.06462 288.93 8.77001L293.63 2.18001C293.698 2.09653 293.702 1.97797 293.64 1.89Z" fill="#252525"/>
</g>
<defs>
<clipPath id="clip0">
<rect width="292" height="23" fill="white" transform="translate(1 16)"/>
</clipPath>
<clipPath id="clip1">
<rect width="294" height="10" fill="white"/>
</clipPath>
</defs>
</svg>
