<svg width="388" height="46" viewBox="0 0 388 46" fill="none" xmlns="http://www.w3.org/2000/svg">
<g clip-path="url(#clip0)">
<path d="M42.7139 46L21.3542 38.5836L-0.000398903 46V1.48633C-0.0086372 1.10192 0.136031 0.729888 0.401926 0.451418C0.667821 0.172949 1.03336 0.0106672 1.41883 0H41.2896C41.676 0.00934443 42.0428 0.171048 42.3098 0.449663C42.5768 0.728278 42.7221 1.10106 42.7139 1.48633V46Z" fill="#D9A300"/>
<path fill-rule="evenodd" clip-rule="evenodd" d="M17.0562 29.7521C18.4039 29.7521 18.9706 29.1311 18.9706 27.9298V22.5495H23.0547C24.8312 22.5495 26.2914 22.4121 27.7259 21.3279C29.5229 19.9891 29.7679 17.8411 29.7679 16.8027C29.7993 15.916 29.6291 15.0338 29.2701 14.2219C28.9112 13.4101 28.3728 12.6897 27.6952 12.1146C26.1025 10.8472 24.2799 10.8217 23.0751 10.8217H18.2048C15.0856 10.8217 15.0857 12.8578 15.0857 14.0285V27.9298C15.101 29.3398 15.8769 29.7521 17.0562 29.7521ZM25.9136 16.7314C25.9136 18.9507 24.2289 18.9507 22.8505 18.9507H18.9604V15.1382C18.9604 14.563 19.1442 14.4256 19.6701 14.4256H22.8505C24.3412 14.4408 25.9136 14.4408 25.9136 16.7314Z" fill="white"/>
</g>
<g clip-path="url(#clip1)">
<path d="M78.8125 18.0513C79.3752 18.0429 79.9336 18.1497 80.4536 18.3651C80.9735 18.5804 81.444 18.8998 81.836 19.3036C82.2398 19.6956 82.5591 20.1661 82.7745 20.686C82.9898 21.206 83.0968 21.7644 83.0885 22.3272C83.1053 22.8666 83.0142 23.404 82.8204 23.9077C82.6267 24.4115 82.3343 24.8714 81.9602 25.2605C81.223 26.0605 80.2033 26.542 79.1171 26.6031C78.9592 26.6031 78.88 26.6933 78.88 26.8626V27.2913C78.2557 32.3531 76.5109 36.2191 73.6452 38.8892C70.7796 41.5593 66.6466 43.2027 61.2463 43.8195C60.8454 43.8614 60.4433 43.7528 60.1181 43.5149C59.7508 43.2425 59.5039 42.8378 59.4297 42.3867L59.0576 40.5815C59.0214 40.3857 59.0257 40.1846 59.0703 39.9905C59.1149 39.7965 59.199 39.6136 59.3171 39.4533C59.4338 39.2834 59.586 39.1409 59.7633 39.0357C59.9406 38.9305 60.1386 38.8651 60.3437 38.8441C64.3977 38.3477 67.4289 37.1969 69.4371 35.3918C71.4453 33.5867 72.6939 30.8301 73.1828 27.122C73.1898 27.0948 73.1879 27.066 73.1778 27.0397C73.1677 27.0134 73.1498 26.9909 73.1263 26.9754C73.0776 26.9282 73.0136 26.9002 72.9459 26.8964H58.7982C58.5869 26.8969 58.3777 26.8541 58.1837 26.7707C57.9896 26.6873 57.8149 26.5649 57.67 26.4113C57.5152 26.2672 57.3921 26.0925 57.3086 25.8982C57.2251 25.704 57.1828 25.4945 57.1846 25.2831V23.4102C57.1828 23.1988 57.2251 22.9893 57.3086 22.7951C57.3921 22.6008 57.5152 22.4261 57.67 22.282C57.8149 22.1284 57.9896 22.0061 58.1837 21.9226C58.3777 21.8392 58.5869 21.7964 58.7982 21.7969H73.8031C73.9833 21.7824 74.1646 21.7824 74.3449 21.7969C74.5028 21.7969 74.5931 21.7969 74.6382 21.5938C74.7994 20.6055 75.3169 19.7104 76.0934 19.0779C76.8448 18.4166 77.8115 18.0517 78.8125 18.0513V18.0513ZM77.5036 23.6359C77.6719 23.8124 77.8754 23.9518 78.1008 24.0451C78.3262 24.1383 78.5687 24.1834 78.8125 24.1774C79.056 24.1807 79.2976 24.1344 79.5226 24.0413C79.7476 23.9482 79.9512 23.8103 80.1211 23.6359C80.2966 23.4667 80.4353 23.2632 80.5285 23.038C80.6217 22.8128 80.6673 22.5708 80.6626 22.3272C80.6659 22.0837 80.6197 21.8421 80.5266 21.6171C80.4335 21.3921 80.2955 21.1884 80.1211 21.0184C79.9512 20.8441 79.7476 20.7062 79.5226 20.6131C79.2976 20.5199 79.056 20.4736 78.8125 20.4769C78.5687 20.4709 78.3262 20.516 78.1008 20.6093C77.8754 20.7025 77.6719 20.8419 77.5036 21.0184C77.3277 21.1879 77.1882 21.3912 77.0932 21.6161C76.9982 21.8411 76.9496 22.083 76.9508 22.3272C76.9483 22.5716 76.9962 22.8138 77.0913 23.039C77.1864 23.2641 77.3267 23.4673 77.5036 23.6359V23.6359Z" fill="#252525"/>
<path d="M107.503 28.8482C107.705 28.9268 107.888 29.0452 108.043 29.1964C108.198 29.3476 108.322 29.5284 108.405 29.7282C108.492 29.9255 108.537 30.1388 108.537 30.3543C108.537 30.5699 108.492 30.7831 108.405 30.9805C106.517 35.5384 104.028 38.7801 100.936 40.7056C97.8452 42.6311 93.5657 43.6277 88.0976 43.6954C87.8866 43.6946 87.6778 43.6512 87.484 43.5678C87.2901 43.4845 87.1152 43.3628 86.9694 43.2102C86.8168 43.0645 86.6953 42.8894 86.6119 42.6956C86.5285 42.5017 86.4852 42.293 86.4844 42.082V21.9548C86.4839 21.7436 86.5265 21.5345 86.61 21.3405C86.6934 21.1465 86.8158 20.9716 86.9694 20.8266C87.1152 20.674 87.2901 20.5524 87.484 20.4691C87.6778 20.3857 87.8866 20.3423 88.0976 20.3415H90.6926C90.9034 20.3436 91.1115 20.3875 91.3051 20.4708C91.4988 20.5541 91.6742 20.6751 91.8208 20.8266C91.9744 20.9716 92.0968 21.1465 92.1802 21.3405C92.2637 21.5345 92.3063 21.7436 92.3058 21.9548V38.0318C92.3058 38.201 92.3847 38.2687 92.5314 38.2348C94.9696 37.9585 97.2804 37.0005 99.199 35.4707C101.103 33.6696 102.553 31.4425 103.43 28.9723C103.587 28.5738 103.895 28.2534 104.287 28.081C104.482 28 104.691 27.9583 104.902 27.9583C105.113 27.9583 105.322 28 105.517 28.081L107.503 28.8482Z" fill="#252525"/>
<path d="M133.869 38.3138C134.09 38.3415 134.303 38.4125 134.497 38.5228C134.691 38.6332 134.861 38.7807 134.997 38.9569C135.268 39.3024 135.397 39.7381 135.358 40.1754L135.121 42.2513C135.108 42.4601 135.047 42.6631 134.944 42.845C134.84 43.0268 134.696 43.1826 134.523 43.3005C134.355 43.4299 134.162 43.5229 133.956 43.5734C133.75 43.6239 133.536 43.6309 133.327 43.5938C126.971 42.6131 120.57 41.9541 114.148 41.6195C113.934 41.6164 113.723 41.5686 113.529 41.4792C113.335 41.3899 113.161 41.2608 113.02 41.1005C112.877 40.9504 112.765 40.7734 112.692 40.5796C112.618 40.3859 112.584 40.1794 112.591 39.9723L112.704 37.9528C112.735 37.5216 112.928 37.1183 113.245 36.8246C113.391 36.6752 113.567 36.5586 113.762 36.4827C113.957 36.4068 114.165 36.3734 114.374 36.3846C120.901 36.6947 127.408 37.3386 133.869 38.3138V38.3138ZM134.072 25.6328C134.054 25.8437 133.992 26.0483 133.889 26.2332C133.786 26.418 133.644 26.5787 133.474 26.7046C133.305 26.8367 133.111 26.9337 132.903 26.9899C132.696 27.0461 132.48 27.0603 132.267 27.0318C126.355 26.2796 120.68 25.8058 115.242 25.6102C115.028 25.6024 114.818 25.5514 114.624 25.4602C114.43 25.3691 114.257 25.2398 114.114 25.08C113.973 24.9298 113.865 24.7519 113.797 24.5576C113.729 24.3633 113.703 24.157 113.719 23.9518L113.832 22.0338C113.857 21.6012 114.052 21.1958 114.374 20.9056C114.521 20.7594 114.698 20.6457 114.892 20.5718C115.087 20.498 115.294 20.4657 115.502 20.4769C121.188 20.7251 126.961 21.199 132.82 21.8984C133.041 21.9222 133.255 21.9904 133.449 22.099C133.642 22.2076 133.812 22.3543 133.948 22.5302C134.092 22.6911 134.199 22.8816 134.261 23.0882C134.323 23.2948 134.34 23.5125 134.309 23.7261L134.072 25.6328ZM117.093 28.2615C121.41 28.5022 126.005 29.0024 130.879 29.762C131.303 29.8361 131.681 30.0755 131.928 30.4277C132.059 30.5955 132.154 30.7879 132.208 30.9934C132.263 31.1989 132.275 31.4132 132.244 31.6236L131.985 33.6995C131.961 33.9098 131.894 34.1129 131.787 34.2956C131.68 34.4783 131.536 34.6365 131.364 34.76C131.194 34.8884 130.998 34.9798 130.791 35.0284C130.583 35.0769 130.367 35.0816 130.157 35.042C125.674 34.2998 121.155 33.7952 116.619 33.5302C116.403 33.5272 116.19 33.4772 115.995 33.3837C115.8 33.2902 115.628 33.1554 115.491 32.9887C115.224 32.6754 115.091 32.2707 115.118 31.8605L115.265 29.841C115.279 29.6237 115.337 29.4116 115.436 29.2176C115.535 29.0237 115.673 28.8519 115.84 28.7128C116.005 28.5528 116.202 28.4298 116.418 28.352C116.634 28.2742 116.864 28.2433 117.093 28.2615V28.2615Z" fill="#252525"/>
<path d="M162.627 21.1877C162.838 21.1872 163.047 21.23 163.241 21.3134C163.435 21.3968 163.61 21.5191 163.755 21.6728C163.909 21.8177 164.031 21.9926 164.114 22.1867C164.198 22.3807 164.241 22.5898 164.24 22.801V24.2564C164.27 25.3306 164.074 26.3992 163.665 27.3928C162.401 30.1032 160.514 32.4767 158.159 34.32C157.985 34.4576 157.787 34.5594 157.574 34.6195C157.36 34.6795 157.138 34.6966 156.918 34.6697C156.699 34.6475 156.487 34.5823 156.293 34.4777C156.099 34.3732 155.928 34.2314 155.79 34.0605L154.481 32.5149C154.34 32.3659 154.236 32.1868 154.175 31.9913C154.115 31.7957 154.1 31.5889 154.131 31.3867C154.157 31.1809 154.223 30.9823 154.325 30.8022C154.428 30.6221 154.565 30.4641 154.729 30.3374C156.217 29.2248 157.439 27.795 158.306 26.1518C158.327 26.0936 158.327 26.0295 158.306 25.9713C158.296 25.9466 158.279 25.9256 158.257 25.9114C158.234 25.8972 158.208 25.8905 158.181 25.8923H142.229C142.018 25.8915 141.809 25.8481 141.615 25.7648C141.421 25.6814 141.246 25.5598 141.101 25.4072C140.949 25.2606 140.828 25.0854 140.745 24.8918C140.661 24.6981 140.618 24.4898 140.615 24.279V22.8236C140.618 22.6128 140.661 22.4045 140.745 22.2108C140.828 22.0171 140.949 21.8419 141.101 21.6954C141.246 21.5428 141.421 21.4211 141.615 21.3378C141.809 21.2544 142.018 21.211 142.229 21.2102L162.627 21.1877ZM150.781 27.7426C151.205 27.745 151.61 27.9154 151.909 28.2164C152.062 28.3599 152.182 28.5353 152.26 28.7303C152.338 28.9252 152.372 29.135 152.36 29.3446C152.448 32.3628 151.954 35.3696 150.905 38.201C149.853 40.3298 148.171 42.0828 146.087 43.2215C145.701 43.4428 145.245 43.5074 144.812 43.402C144.38 43.3044 144.001 43.0463 143.752 42.68L142.623 41.0215C142.507 40.8605 142.427 40.6765 142.388 40.4819C142.349 40.2873 142.353 40.0866 142.398 39.8933C142.437 39.6935 142.518 39.504 142.634 39.3369C142.751 39.1699 142.901 39.0289 143.075 38.9231C144.4 38.1411 145.44 36.9548 146.042 35.5385C146.692 33.5364 146.994 31.4375 146.933 29.3333C146.939 29.1211 146.988 28.9122 147.075 28.7186C147.162 28.525 147.286 28.3505 147.441 28.2051C147.739 27.9041 148.145 27.7337 148.569 27.7313L150.781 27.7426Z" fill="#252525"/>
<path d="M185.642 29.9764C187.342 33.6167 188.846 37.0352 190.155 40.2318C190.238 40.43 190.281 40.6429 190.281 40.8579C190.281 41.073 190.238 41.2859 190.155 41.4841C190.077 41.6825 189.956 41.8618 189.802 42.0097C189.649 42.1576 189.465 42.2708 189.264 42.3415L187.154 43.1425C186.744 43.3008 186.289 43.3008 185.879 43.1425C185.682 43.0618 185.504 42.9423 185.355 42.7911C185.206 42.6399 185.088 42.4601 185.01 42.2625C184.972 42.1166 184.916 41.9763 184.841 41.8451C184.767 41.6954 184.703 41.5408 184.649 41.3825C184.622 41.3236 184.577 41.2746 184.52 41.2422C184.463 41.2099 184.398 41.1959 184.334 41.202C178.286 42.0482 172.42 42.5897 166.733 42.8605C166.525 42.8682 166.318 42.8331 166.124 42.7574C165.93 42.6818 165.753 42.5671 165.605 42.4205C165.287 42.1292 165.096 41.7236 165.075 41.2923V39.7015C165.067 39.4934 165.102 39.2859 165.178 39.0918C165.254 38.8978 165.368 38.7213 165.515 38.5733C165.807 38.253 166.211 38.0554 166.643 38.0205C166.899 38.0359 167.155 38.0359 167.41 38.0205C167.495 38.021 167.577 37.9937 167.644 37.9427C167.712 37.8917 167.76 37.8199 167.783 37.7384C169.681 32.4989 171.3 27.1625 172.634 21.7518C172.739 21.3255 173.006 20.957 173.378 20.7251C173.736 20.4847 174.173 20.3917 174.597 20.4656L176.966 20.8943C177.174 20.9269 177.373 21.0044 177.548 21.1212C177.724 21.2381 177.871 21.3917 177.982 21.5713C178.09 21.7358 178.165 21.9202 178.202 22.1139C178.239 22.3075 178.237 22.5066 178.196 22.6995C177.029 27.6265 175.601 32.4884 173.92 37.2646C173.875 37.4 173.931 37.4677 174.089 37.4677C177.339 37.1631 180.103 36.8584 182.359 36.5538C182.517 36.5538 182.562 36.4297 182.506 36.2943C181.4 33.7672 180.791 32.3908 180.678 32.1651C180.582 31.9758 180.528 31.7683 180.518 31.5563C180.508 31.3443 180.544 31.1327 180.622 30.9354C180.691 30.7347 180.804 30.5517 180.952 30.3996C181.1 30.2475 181.28 30.13 181.479 30.0554L183.499 29.1754C183.699 29.0916 183.913 29.0484 184.13 29.0484C184.347 29.0484 184.562 29.0916 184.762 29.1754C185.15 29.3153 185.466 29.6034 185.642 29.9764V29.9764Z" fill="#252525"/>
<path d="M216.724 26.0615C216.934 26.0574 217.142 26.0964 217.336 26.1759C217.53 26.2555 217.706 26.374 217.852 26.5241C218.003 26.6705 218.121 26.8462 218.201 27.0403C218.28 27.2343 218.319 27.4426 218.315 27.6523V28.4984C218.322 28.7085 218.284 28.9176 218.204 29.1121C218.125 29.3065 218.005 29.4819 217.852 29.6267C217.706 29.7768 217.53 29.8953 217.336 29.9748C217.142 30.0544 216.934 30.0933 216.724 30.0892H216.476C216.318 30.0892 216.239 30.1682 216.239 30.3374V31.2287C216.235 31.2603 216.238 31.2924 216.249 31.3224C216.26 31.3524 216.277 31.3795 216.3 31.4014C216.323 31.4234 216.351 31.4396 216.382 31.4488C216.412 31.458 216.445 31.4599 216.476 31.4543H216.724C216.934 31.4475 217.143 31.4851 217.338 31.5649C217.532 31.6446 217.708 31.7646 217.852 31.9169C218.005 32.0617 218.125 32.2371 218.204 32.4315C218.284 32.6259 218.322 32.8351 218.315 33.0451V33.8913C218.322 34.1013 218.284 34.3104 218.204 34.5049C218.125 34.6993 218.005 34.8747 217.852 35.0195C217.708 35.1718 217.532 35.2918 217.338 35.3715C217.143 35.4512 216.934 35.4889 216.724 35.482H216.476C216.318 35.482 216.239 35.561 216.239 35.7302V38.6184C216.239 39.5436 216.239 40.2656 216.239 40.7959C216.22 41.2952 216.128 41.7892 215.968 42.2625C215.863 42.6212 215.686 42.955 215.449 43.2441C215.162 43.4878 214.822 43.6616 214.457 43.7518C213.981 43.901 213.488 43.9882 212.99 44.0113C212.482 44.0113 211.76 44.0113 210.835 44.0113H209.12C208.696 43.9783 208.298 43.7988 207.992 43.5036C207.835 43.3605 207.71 43.1862 207.624 42.9919C207.539 42.7976 207.495 42.5876 207.495 42.3754L207.405 41.0779C207.405 41.0779 207.405 41.0102 207.326 40.9764C207.247 40.9425 207.236 40.9764 207.213 40.9764C206.913 41.2121 206.532 41.3214 206.153 41.281C205.963 41.2654 205.778 41.2114 205.609 41.1222C205.44 41.033 205.291 40.9104 205.171 40.762L203.457 38.799C203.317 38.6488 203.213 38.4699 203.151 38.2749C203.088 38.08 203.069 37.8738 203.095 37.6708C203.102 37.4741 203.153 37.2816 203.245 37.1076C203.337 36.9337 203.467 36.7829 203.626 36.6666L204.957 35.5384C204.957 35.5384 205.013 35.4708 204.957 35.4482C204.947 35.4409 204.935 35.4369 204.923 35.4369C204.911 35.4369 204.899 35.4409 204.889 35.4482H204.337C204.049 35.4606 203.764 35.3881 203.517 35.2396C203.27 35.0912 203.073 34.8733 202.949 34.6133C202.881 34.4779 202.802 34.4667 202.712 34.6133C202.494 34.7904 202.24 34.9175 201.967 34.9856L201.742 35.0533L201.505 35.121C201.439 35.1391 201.382 35.1794 201.343 35.2349C201.304 35.2905 201.285 35.3579 201.29 35.4256V42.3866C201.296 42.5965 201.257 42.8052 201.178 42.9995C201.098 43.1937 200.979 43.3692 200.828 43.5149C200.683 43.6672 200.508 43.7872 200.313 43.8669C200.119 43.9466 199.91 43.9843 199.7 43.9774H198.165C197.955 43.9843 197.746 43.9466 197.552 43.8669C197.357 43.7872 197.182 43.6672 197.037 43.5149C196.884 43.371 196.763 43.1958 196.683 43.0011C196.603 42.8064 196.566 42.5969 196.574 42.3866V36.4072C196.574 36.2379 196.495 36.1815 196.36 36.2154L194.284 36.6215C194.088 36.6628 193.885 36.6599 193.69 36.6131C193.495 36.5663 193.312 36.4767 193.156 36.3508C192.994 36.2346 192.86 36.0845 192.763 35.9111C192.665 35.7377 192.607 35.545 192.592 35.3467L192.513 34.3087C192.478 33.905 192.594 33.5026 192.84 33.1805C193.101 32.8541 193.468 32.6303 193.878 32.5487L196.36 32.0636C196.423 32.0526 196.479 32.019 196.519 31.969C196.558 31.9191 196.578 31.8564 196.574 31.7928V27.28C196.574 27.122 196.495 27.0431 196.326 27.0431H196.055C195.886 27.0431 195.807 27.1107 195.807 27.2574C195.706 28.3856 195.615 29.2656 195.537 29.8749C195.513 30.0616 195.45 30.241 195.351 30.4007C195.251 30.5605 195.118 30.6967 194.961 30.8C194.799 30.9128 194.612 30.9859 194.416 31.0133C194.22 31.0408 194.02 31.0218 193.833 30.9579L193.506 30.879C193.093 30.7577 192.74 30.4885 192.513 30.1231C192.271 29.7701 192.166 29.3406 192.22 28.9159C192.502 26.7272 192.694 24.2451 192.795 21.4923C192.802 21.2934 192.851 21.0982 192.939 20.9194C193.026 20.7406 193.15 20.5822 193.303 20.4543C193.455 20.3192 193.635 20.2181 193.829 20.1578C194.024 20.0975 194.229 20.0794 194.431 20.1046H194.623C194.838 20.1132 195.049 20.1657 195.243 20.2589C195.437 20.352 195.61 20.4838 195.751 20.6461C195.891 20.7973 195.999 20.9751 196.069 21.1689C196.138 21.3628 196.169 21.5686 196.157 21.7743C196.157 21.8646 196.157 22.0225 196.157 22.2369C196.157 22.4513 196.157 22.6092 196.157 22.6995C196.157 22.7897 196.236 22.9477 196.383 22.9477C196.552 22.9477 196.631 22.88 196.631 22.7333V20.4769C196.624 20.2669 196.662 20.0577 196.741 19.8633C196.821 19.6688 196.941 19.4935 197.093 19.3487C197.238 19.1964 197.414 19.0764 197.608 18.9967C197.803 18.9169 198.011 18.8793 198.222 18.8861H199.756C199.966 18.8793 200.175 18.9169 200.37 18.9967C200.564 19.0764 200.739 19.1964 200.884 19.3487C201.034 19.4952 201.153 19.6708 201.232 19.8649C201.312 20.0589 201.351 20.2672 201.347 20.4769V22.7333C201.343 22.7623 201.346 22.7918 201.355 22.8195C201.365 22.8472 201.381 22.8723 201.401 22.893C201.422 22.9137 201.447 22.9294 201.475 22.9389C201.503 22.9483 201.532 22.9514 201.561 22.9477C201.771 22.9422 201.98 22.9805 202.174 23.0602C202.368 23.1398 202.544 23.259 202.689 23.4102C202.841 23.5559 202.96 23.7314 203.039 23.9256C203.119 24.1199 203.157 24.3286 203.152 24.5384V25.5087C203.156 25.7184 203.117 25.9267 203.038 26.1207C202.958 26.3148 202.84 26.4904 202.689 26.6369C202.544 26.7881 202.368 26.9073 202.174 26.987C201.98 27.0666 201.771 27.1049 201.561 27.0995C201.532 27.0958 201.503 27.0988 201.475 27.1083C201.447 27.1178 201.422 27.1334 201.401 27.1541C201.381 27.1748 201.365 27.2 201.355 27.2276C201.346 27.2553 201.343 27.2848 201.347 27.3138V30.6984C201.347 30.8451 201.426 30.9015 201.561 30.8677H201.651H201.753C202.077 30.7752 202.425 30.8116 202.723 30.9692C202.868 31.0421 202.995 31.1454 203.097 31.2719C203.198 31.3985 203.27 31.5453 203.31 31.7025C203.31 31.8379 203.423 31.8605 203.524 31.7928C203.78 31.6174 204.083 31.5231 204.393 31.522H211.162C211.331 31.522 211.41 31.4431 211.41 31.2964V30.4051C211.416 30.3712 211.414 30.3363 211.404 30.3035C211.393 30.2707 211.375 30.2408 211.351 30.2165C211.326 30.1921 211.296 30.174 211.264 30.1636C211.231 30.1532 211.196 30.151 211.162 30.1569H204.393C204.183 30.1638 203.974 30.1261 203.779 30.0464C203.585 29.9667 203.409 29.8467 203.265 29.6943C203.112 29.5496 202.992 29.3742 202.913 29.1797C202.833 28.9853 202.795 28.7762 202.802 28.5661V27.72C202.798 27.5103 202.837 27.302 202.916 27.108C202.996 26.9139 203.114 26.7382 203.265 26.5918C203.409 26.4394 203.585 26.3195 203.779 26.2397C203.974 26.16 204.183 26.1223 204.393 26.1292H207.777C207.924 26.1292 207.992 26.0502 207.992 25.8923V24.8543C207.996 24.8253 207.993 24.7958 207.983 24.7682C207.974 24.7405 207.958 24.7153 207.937 24.6946C207.916 24.674 207.891 24.6583 207.864 24.6488C207.836 24.6393 207.806 24.6363 207.777 24.64H205.194C204.984 24.6441 204.776 24.6051 204.582 24.5256C204.388 24.446 204.212 24.3275 204.066 24.1774C203.916 24.031 203.797 23.8553 203.718 23.6612C203.638 23.4672 203.599 23.2589 203.603 23.0492V22.3497C203.598 22.1399 203.636 21.9312 203.716 21.7369C203.795 21.5427 203.915 21.3672 204.066 21.2215C204.212 21.0714 204.388 20.9529 204.582 20.8734C204.776 20.7938 204.984 20.7549 205.194 20.759H207.777C207.924 20.759 207.992 20.68 207.992 20.5108V19.8225C207.986 19.6127 208.025 19.404 208.104 19.2097C208.184 19.0155 208.303 18.84 208.454 18.6943C208.601 18.5442 208.777 18.4257 208.971 18.3462C209.165 18.2666 209.373 18.2277 209.583 18.2318H211.512C211.722 18.2263 211.93 18.2646 212.125 18.3443C212.319 18.4239 212.494 18.5431 212.64 18.6943C212.791 18.84 212.91 19.0155 212.99 19.2097C213.07 19.404 213.108 19.6127 213.103 19.8225V20.4656C213.097 20.4995 213.099 20.5344 213.109 20.5672C213.12 20.6001 213.138 20.6299 213.162 20.6543C213.187 20.6786 213.216 20.6968 213.249 20.7071C213.282 20.7175 213.317 20.7198 213.351 20.7138H216.047C216.257 20.707 216.466 20.7446 216.661 20.8244C216.855 20.9041 217.031 21.024 217.175 21.1764C217.329 21.3203 217.45 21.4955 217.53 21.6902C217.609 21.8848 217.646 22.0944 217.638 22.3046V23.0041C217.645 23.2141 217.607 23.4233 217.527 23.6177C217.448 23.8122 217.328 23.9875 217.175 24.1323C217.031 24.2846 216.855 24.4046 216.661 24.4843C216.466 24.5641 216.257 24.6017 216.047 24.5948H213.351C213.182 24.5948 213.103 24.6625 213.103 24.8092V25.8472C213.103 26.0051 213.182 26.0841 213.351 26.0841L216.724 26.0615ZM211.297 39.002V35.6174C211.303 35.5835 211.301 35.5487 211.291 35.5158C211.281 35.483 211.262 35.4531 211.238 35.4288C211.214 35.4044 211.184 35.3863 211.151 35.3759C211.118 35.3656 211.083 35.3633 211.049 35.3692H206.457C206.436 35.3696 206.415 35.3761 206.397 35.3881C206.379 35.4002 206.365 35.4171 206.356 35.4369C206.356 35.4369 206.356 35.5159 206.356 35.5384C207.135 36.4072 207.879 37.2646 208.612 38.0882C208.718 38.2089 208.797 38.3509 208.844 38.5046C208.891 38.6583 208.904 38.8202 208.883 38.9795C208.87 39.142 208.822 39.2998 208.742 39.442C208.662 39.5842 208.553 39.7074 208.421 39.8031C208.421 39.8031 208.421 39.8708 208.421 39.9046C208.431 39.9105 208.443 39.9137 208.454 39.9137C208.466 39.9137 208.478 39.9105 208.488 39.9046H209.819C210.26 39.9474 210.704 39.9053 211.128 39.7805C211.298 39.7354 211.297 39.4646 211.297 39.002Z" fill="#252525"/>
<path d="M247.118 33.6882C247.271 33.6858 247.423 33.7145 247.564 33.7727C247.706 33.8309 247.834 33.9173 247.941 34.0266C248.051 34.1338 248.137 34.262 248.195 34.4036C248.254 34.5452 248.282 34.6972 248.28 34.8502V36.2154C248.289 36.4247 248.253 36.6335 248.176 36.828C248.098 37.0225 247.979 37.1982 247.829 37.3436C247.684 37.4959 247.508 37.6159 247.314 37.6956C247.12 37.7753 246.91 37.813 246.7 37.8061H241.059C243.09 38.4605 245.004 39.1788 246.802 39.961C246.984 40.0322 247.147 40.1447 247.278 40.2896C247.409 40.4344 247.505 40.6077 247.558 40.7959C247.619 40.9836 247.637 41.1827 247.609 41.3782C247.582 41.5738 247.51 41.7604 247.4 41.9241L246.667 43.12C246.565 43.2988 246.429 43.4556 246.266 43.5815C246.104 43.7073 245.918 43.7997 245.719 43.8533C245.523 43.9183 245.316 43.9428 245.111 43.9253C244.905 43.9079 244.705 43.8488 244.523 43.7518C242.628 42.8417 240.574 41.9692 238.363 41.1343C238.177 41.0719 238.005 40.9715 237.86 40.8395C237.714 40.7074 237.597 40.5466 237.517 40.3672C237.435 40.1904 237.393 39.9979 237.393 39.8031C237.393 39.6082 237.435 39.4157 237.517 39.239L238.081 37.9979C238.16 37.8513 238.081 37.7723 237.946 37.7723H232.733C232.708 37.7696 232.683 37.7746 232.661 37.7867C232.638 37.7988 232.62 37.8174 232.609 37.84C232.593 37.8567 232.585 37.879 232.585 37.902C232.585 37.9251 232.593 37.9473 232.609 37.9641L233.151 39.002C233.363 39.3668 233.424 39.8002 233.32 40.2092C233.269 40.4133 233.177 40.6048 233.048 40.7717C232.92 40.9387 232.759 41.0774 232.575 41.1795C230.476 42.3212 228.259 43.2328 225.964 43.8984C225.549 44.0231 225.102 43.9869 224.712 43.7969C224.311 43.6278 223.988 43.3135 223.809 42.9169L223.268 41.7887C223.169 41.6172 223.117 41.4226 223.117 41.2246C223.117 41.0266 223.169 40.832 223.268 40.6605C223.345 40.489 223.458 40.3365 223.601 40.2137C223.743 40.0909 223.91 40.0008 224.091 39.9497C226.061 39.3841 227.991 38.6868 229.868 37.8625C229.868 37.8625 229.868 37.8625 229.868 37.8625H224.035C223.824 37.8724 223.614 37.8361 223.42 37.7562C223.225 37.6763 223.05 37.5547 222.907 37.4C222.752 37.257 222.63 37.082 222.551 36.8871C222.471 36.6922 222.434 36.4822 222.444 36.2718V34.9067C222.442 34.7536 222.47 34.6016 222.529 34.4601C222.587 34.3185 222.673 34.1902 222.782 34.0831C222.89 33.9737 223.018 33.8873 223.16 33.8291C223.301 33.7709 223.453 33.7422 223.606 33.7446C223.632 33.7484 223.659 33.746 223.684 33.7377C223.709 33.7294 223.731 33.7154 223.75 33.6968C223.769 33.6782 223.783 33.6554 223.791 33.6304C223.799 33.6055 223.802 33.5789 223.798 33.5528V22.7784C223.794 22.5688 223.833 22.3605 223.912 22.1664C223.992 21.9724 224.11 21.7967 224.26 21.6502C224.407 21.5001 224.583 21.3816 224.777 21.3021C224.971 21.2225 225.179 21.1836 225.389 21.1877H229.992C230.024 21.1913 230.056 21.1876 230.087 21.177C230.117 21.1663 230.145 21.149 230.167 21.1262C230.19 21.1035 230.207 21.0759 230.218 21.0455C230.229 21.0151 230.232 20.9827 230.229 20.9508V20.161C230.225 19.9513 230.263 19.743 230.343 19.549C230.423 19.3549 230.541 19.1793 230.691 19.0328C230.838 18.8827 231.013 18.7642 231.207 18.6846C231.401 18.6051 231.61 18.5661 231.819 18.5702H233.072C233.282 18.5661 233.49 18.6051 233.684 18.6846C233.878 18.7642 234.054 18.8827 234.2 19.0328C234.35 19.1793 234.469 19.3549 234.548 19.549C234.628 19.743 234.667 19.9513 234.663 20.161V20.9508C234.663 21.1087 234.73 21.1877 234.877 21.1877H236.005C236.037 21.1913 236.069 21.1876 236.1 21.177C236.13 21.1663 236.158 21.149 236.18 21.1262C236.203 21.1035 236.221 21.0759 236.231 21.0455C236.242 21.0151 236.246 20.9827 236.242 20.9508V20.161C236.238 19.9513 236.277 19.743 236.356 19.549C236.436 19.3549 236.555 19.1793 236.705 19.0328C236.851 18.8827 237.027 18.7642 237.221 18.6846C237.415 18.6051 237.623 18.5661 237.833 18.5702H239.085C239.295 18.5661 239.503 18.6051 239.697 18.6846C239.891 18.7642 240.067 18.8827 240.213 19.0328C240.363 19.1793 240.482 19.3549 240.562 19.549C240.641 19.743 240.68 19.9513 240.676 20.161V20.9508C240.676 21.1087 240.744 21.1877 240.89 21.1877H245.516C245.726 21.1836 245.934 21.2225 246.128 21.3021C246.322 21.3816 246.498 21.5001 246.644 21.6502C246.794 21.7967 246.913 21.9724 246.992 22.1664C247.072 22.3605 247.111 22.5688 247.107 22.7784V33.5528C247.099 33.5749 247.096 33.5984 247.098 33.6217C247.1 33.645 247.107 33.6676 247.118 33.6882V33.6882ZM230.195 27.1784V25.3282C230.195 25.1815 230.116 25.1138 229.958 25.1138H228.83C228.801 25.1102 228.771 25.1132 228.744 25.1226C228.716 25.1321 228.691 25.1478 228.67 25.1685C228.649 25.1892 228.634 25.2143 228.624 25.242C228.615 25.2697 228.612 25.2992 228.615 25.3282V27.1784C228.615 27.3477 228.683 27.4267 228.83 27.4267H229.958C230.093 27.4267 230.172 27.3477 230.172 27.1784H230.195ZM230.195 33.44V31.4769C230.198 31.4449 230.195 31.4125 230.184 31.3822C230.173 31.3518 230.156 31.3242 230.133 31.3014C230.111 31.2787 230.083 31.2613 230.053 31.2507C230.022 31.2401 229.99 31.2364 229.958 31.24H228.83C228.683 31.24 228.615 31.319 228.615 31.4769V33.44C228.615 33.5979 228.683 33.6882 228.83 33.6882H229.958C229.989 33.6886 230.02 33.6821 230.049 33.6693C230.077 33.6565 230.103 33.6376 230.123 33.614C230.143 33.5903 230.158 33.5625 230.167 33.5324C230.175 33.5024 230.177 33.4708 230.172 33.44H230.195ZM236.186 27.1784V25.3282C236.186 25.1815 236.107 25.1138 235.949 25.1138H234.821C234.792 25.1102 234.762 25.1132 234.734 25.1226C234.707 25.1321 234.682 25.1478 234.661 25.1685C234.64 25.1892 234.624 25.2143 234.615 25.242C234.605 25.2697 234.602 25.2992 234.606 25.3282V27.1784C234.606 27.3477 234.674 27.4267 234.821 27.4267H235.949C236.118 27.4267 236.118 27.3477 236.118 27.1784H236.186ZM236.186 33.44V31.4769C236.189 31.4449 236.186 31.4125 236.175 31.3822C236.164 31.3518 236.147 31.3242 236.124 31.3014C236.102 31.2787 236.074 31.2613 236.044 31.2507C236.013 31.2401 235.981 31.2364 235.949 31.24H234.821C234.674 31.24 234.606 31.319 234.606 31.4769V33.44C234.606 33.5979 234.674 33.6882 234.821 33.6882H235.949C236.004 33.6772 236.052 33.6451 236.084 33.5987C236.116 33.5523 236.128 33.4953 236.118 33.44H236.186ZM242.177 27.1784V25.3282C242.177 25.1815 242.097 25.1138 241.939 25.1138H240.811C240.782 25.1102 240.753 25.1132 240.725 25.1226C240.697 25.1321 240.672 25.1478 240.652 25.1685C240.631 25.1892 240.615 25.2143 240.606 25.242C240.596 25.2697 240.593 25.2992 240.597 25.3282V27.1784C240.597 27.3477 240.664 27.4267 240.811 27.4267H241.939C242.075 27.4267 242.154 27.3477 242.154 27.1784H242.177ZM242.177 33.44V31.4769C242.18 31.4449 242.176 31.4125 242.166 31.3822C242.155 31.3518 242.138 31.3242 242.115 31.3014C242.092 31.2787 242.064 31.2613 242.034 31.2507C242.004 31.2401 241.971 31.2364 241.939 31.24H240.811C240.664 31.24 240.597 31.319 240.597 31.4769V33.44C240.597 33.5979 240.664 33.6882 240.811 33.6882H241.939C241.971 33.6886 242.002 33.6821 242.03 33.6693C242.059 33.6565 242.084 33.6376 242.104 33.614C242.125 33.5903 242.14 33.5625 242.148 33.5324C242.157 33.5024 242.159 33.4708 242.154 33.44H242.177Z" fill="#252525"/>
<path d="M272.965 21.4697C273.176 21.4718 273.384 21.5157 273.578 21.599C273.772 21.6823 273.947 21.8033 274.093 21.9548C274.246 22.1006 274.368 22.2756 274.451 22.4695C274.534 22.6633 274.578 22.872 274.579 23.0831V40.9313C274.579 41.1425 274.536 41.3516 274.453 41.5456C274.369 41.7397 274.247 41.9145 274.093 42.0595C273.947 42.2111 273.772 42.332 273.578 42.4153C273.384 42.4986 273.176 42.5425 272.965 42.5446H255.106C254.895 42.5425 254.687 42.4986 254.493 42.4153C254.299 42.332 254.124 42.2111 253.978 42.0595C253.824 41.9145 253.702 41.7397 253.618 41.5456C253.535 41.3516 253.492 41.1425 253.492 40.9313V39.3292C253.493 39.1182 253.536 38.9095 253.62 38.7156C253.703 38.5218 253.825 38.3467 253.978 38.201C254.124 38.0494 254.299 37.9285 254.493 37.8452C254.687 37.7619 254.895 37.7179 255.106 37.7159H268.915C269.084 37.7159 269.174 37.6482 269.174 37.4902V26.5918C269.174 26.4225 269.084 26.3436 268.915 26.3436H255.106C254.895 26.3415 254.687 26.2975 254.493 26.2143C254.299 26.131 254.124 26.01 253.978 25.8584C253.824 25.7135 253.702 25.5386 253.618 25.3446C253.535 25.1505 253.492 24.9415 253.492 24.7302V23.1282C253.493 22.9172 253.536 22.7085 253.62 22.5146C253.703 22.3208 253.825 22.1457 253.978 22C254.124 21.8484 254.299 21.7274 254.493 21.6441C254.687 21.5609 254.895 21.5169 255.106 21.5148L272.965 21.4697Z" fill="#252525"/>
<path d="M281.1 25.8359C280.91 25.7509 280.74 25.6264 280.602 25.4708C280.464 25.3152 280.36 25.132 280.299 24.9333C280.23 24.7396 280.204 24.5332 280.224 24.3285C280.243 24.1239 280.307 23.926 280.411 23.7487L281.438 21.7631C281.64 21.3685 281.988 21.0687 282.408 20.9282C282.829 20.7828 283.288 20.8029 283.694 20.9846C285.748 21.9248 287.771 22.895 289.764 23.8954C289.954 23.9804 290.122 24.1065 290.257 24.2646C290.391 24.4226 290.489 24.6087 290.543 24.8092C290.6 25.0081 290.617 25.2166 290.592 25.4222C290.567 25.6277 290.5 25.826 290.396 26.0051L289.268 28.0585C289.17 28.2517 289.034 28.4227 288.867 28.5605C288.7 28.6984 288.506 28.8002 288.298 28.8595C288.091 28.9231 287.874 28.9449 287.659 28.9236C287.444 28.9023 287.235 28.8383 287.045 28.7354C284.834 27.6222 282.852 26.6557 281.1 25.8359ZM301.746 23.9856C301.957 24.0248 302.158 24.1085 302.335 24.231C302.512 24.3535 302.661 24.5121 302.773 24.6964C302.894 24.8724 302.977 25.0714 303.018 25.281C303.058 25.4906 303.056 25.7064 303.009 25.9149C302.159 30.4826 299.809 34.6358 296.331 37.7159C293.029 40.5138 288.474 42.2626 282.668 42.962C282.453 42.9928 282.234 42.9797 282.025 42.9235C281.816 42.8672 281.62 42.769 281.449 42.6349C281.095 42.3576 280.865 41.9525 280.806 41.5067L280.468 39.4195C280.435 39.2221 280.443 39.0201 280.491 38.826C280.54 38.6319 280.628 38.4498 280.75 38.2913C280.873 38.1178 281.031 37.9719 281.213 37.8631C281.396 37.7543 281.599 37.6849 281.81 37.6595C286.429 37.0126 289.986 35.6851 292.483 33.6769C295.168 31.3355 297.034 28.1966 297.808 24.719C297.915 24.3025 298.183 23.9455 298.553 23.7262C298.91 23.5043 299.339 23.4314 299.749 23.5231L301.746 23.9856Z" fill="#252525"/>
<path d="M330.019 28.3179C330.23 28.316 330.439 28.3582 330.634 28.4417C330.828 28.5252 331.003 28.6483 331.147 28.8031C331.302 28.9471 331.425 29.1218 331.508 29.3161C331.592 29.5103 331.634 29.7198 331.632 29.9313V31.522C331.634 31.7334 331.592 31.9429 331.508 32.1372C331.425 32.3314 331.302 32.5061 331.147 32.6502C331.003 32.805 330.828 32.928 330.634 33.0115C330.439 33.0951 330.23 33.1372 330.019 33.1354H323.058C322.888 33.1354 322.809 33.2256 322.809 33.3948C322.704 38.9983 319.613 42.5107 313.536 43.9323C313.326 43.9839 313.107 43.9925 312.894 43.9576C312.681 43.9227 312.477 43.845 312.294 43.7292C311.91 43.5002 311.621 43.1394 311.482 42.7138L310.884 40.9425C310.819 40.7572 310.796 40.5596 310.818 40.3643C310.839 40.169 310.904 39.981 311.008 39.8143C311.109 39.634 311.247 39.4767 311.412 39.3524C311.577 39.2281 311.766 39.1395 311.967 39.0923C313.435 38.7958 314.786 38.083 315.86 37.0389C316.69 36.0176 317.131 34.7337 317.101 33.4174C317.104 33.3825 317.1 33.3472 317.088 33.3141C317.076 33.281 317.057 33.251 317.032 33.2261C317.008 33.2013 316.978 33.1823 316.944 33.1705C316.911 33.1587 316.876 33.1544 316.841 33.1579H308.165C307.954 33.1571 307.746 33.1137 307.552 33.0304C307.358 32.947 307.183 32.8254 307.037 32.6728C306.882 32.5287 306.759 32.354 306.676 32.1597C306.592 31.9655 306.55 31.756 306.552 31.5446V29.9764C306.55 29.765 306.592 29.5555 306.676 29.3612C306.759 29.167 306.882 28.9923 307.037 28.8482C307.183 28.6956 307.358 28.5739 307.552 28.4906C307.746 28.4072 307.954 28.3639 308.165 28.3631L330.019 28.3179ZM311.595 20.6123H326.6C326.811 20.6143 327.019 20.6583 327.213 20.7416C327.407 20.8249 327.582 20.9458 327.728 21.0974C327.881 21.2432 328.002 21.4182 328.086 21.612C328.169 21.8059 328.213 22.0146 328.213 22.2256V23.8164C328.214 24.0276 328.171 24.2367 328.088 24.4307C328.004 24.6248 327.882 24.7997 327.728 24.9446C327.583 25.0982 327.409 25.2206 327.215 25.304C327.021 25.3874 326.811 25.4302 326.6 25.4297H311.595C311.383 25.4316 311.174 25.3894 310.98 25.3059C310.786 25.2224 310.611 25.0993 310.467 24.9446C310.313 24.7997 310.191 24.6248 310.107 24.4307C310.024 24.2367 309.981 24.0276 309.982 23.8164V22.2256C309.982 22.0146 310.026 21.8059 310.109 21.612C310.192 21.4182 310.314 21.2432 310.467 21.0974C310.612 20.9448 310.788 20.8232 310.981 20.7398C311.175 20.6564 311.384 20.6131 311.595 20.6123V20.6123Z" fill="#252525"/>
<path d="M336.438 25.8359C336.249 25.7491 336.08 25.624 335.943 25.4687C335.805 25.3133 335.701 25.131 335.637 24.9333C335.574 24.7386 335.551 24.5331 335.571 24.3294C335.59 24.1256 335.651 23.928 335.75 23.7487L336.788 21.7631C336.985 21.3692 337.329 21.0691 337.747 20.9282C338.167 20.7828 338.627 20.8029 339.033 20.9846C341.086 21.9248 343.113 22.895 345.114 23.8954C345.302 23.9804 345.469 24.1067 345.601 24.2649C345.734 24.423 345.83 24.6091 345.881 24.8092C345.995 25.2101 345.947 25.64 345.745 26.0051L344.617 28.0585C344.518 28.2505 344.381 28.4205 344.214 28.5582C344.047 28.6959 343.855 28.7984 343.647 28.8595C343.441 28.9238 343.224 28.9459 343.008 28.9246C342.793 28.9032 342.585 28.8389 342.395 28.7354C340.168 27.6222 338.183 26.6557 336.438 25.8359ZM357.095 23.9856C357.306 24.0262 357.507 24.1103 357.684 24.2327C357.86 24.3551 358.01 24.513 358.122 24.6964C358.243 24.872 358.326 25.0714 358.365 25.2815C358.404 25.4915 358.398 25.7074 358.348 25.9149C357.503 30.4844 355.151 34.6391 351.669 37.7159C348.359 40.5138 343.805 42.2626 338.006 42.9621C337.793 42.9919 337.577 42.9783 337.369 42.9221C337.162 42.8658 336.968 42.7681 336.799 42.6349C336.445 42.3576 336.214 41.9525 336.156 41.5067L335.818 39.4195C335.782 39.2222 335.788 39.0195 335.837 38.825C335.885 38.6304 335.975 38.4485 336.1 38.2913C336.22 38.1181 336.376 37.9723 336.557 37.8635C336.737 37.7546 336.939 37.6851 337.149 37.6595C341.774 37.0126 345.332 35.6851 347.821 33.6769C350.514 31.3397 352.385 28.1995 353.158 24.719C353.209 24.5118 353.301 24.317 353.429 24.1464C353.557 23.9757 353.718 23.8328 353.902 23.7262C354.259 23.5043 354.689 23.4314 355.098 23.5231L357.095 23.9856Z" fill="#252525"/>
<path d="M369.359 29.7395C369.416 29.9396 369.43 30.1494 369.401 30.3554C369.372 30.5613 369.3 30.7589 369.19 30.9354C369.084 31.12 368.94 31.2793 368.767 31.4021C368.593 31.5249 368.395 31.6082 368.186 31.6461L366.189 32.1087C365.981 32.1555 365.767 32.1607 365.558 32.1239C365.349 32.0871 365.149 32.0091 364.97 31.8943C364.789 31.7897 364.633 31.6482 364.51 31.4791C364.388 31.31 364.303 31.1171 364.259 30.9128C363.59 28.1525 363.045 26.0051 362.623 24.4708C362.565 24.2646 362.551 24.0485 362.583 23.8366C362.614 23.6247 362.689 23.4218 362.804 23.241C362.904 23.0588 363.043 22.9008 363.21 22.778C363.378 22.6552 363.57 22.5706 363.774 22.5302L365.625 22.1241C366.049 22.0322 366.492 22.1048 366.865 22.3272C367.05 22.4301 367.212 22.569 367.342 22.7357C367.472 22.9024 367.567 23.0934 367.622 23.2974C368.178 25.2906 368.757 27.4379 369.359 29.7395ZM384.962 21.2441C385.392 21.2782 385.794 21.4712 386.09 21.7856C386.238 21.9328 386.353 22.1091 386.429 22.3034C386.505 22.4976 386.539 22.7055 386.53 22.9138C386.507 25.8817 386.128 28.8361 385.402 31.7138C384.815 33.9474 383.748 36.0263 382.277 37.8061C380.847 39.4587 379.056 40.7597 377.042 41.6082C374.59 42.5937 372.011 43.228 369.382 43.4923C368.934 43.5504 368.481 43.4332 368.118 43.1651C367.934 43.0337 367.778 42.8657 367.662 42.6715C367.545 42.4774 367.47 42.2614 367.441 42.0369L367.069 40.2431C367.034 40.0465 367.04 39.8449 367.087 39.6508C367.133 39.4567 367.219 39.2743 367.339 39.1149C367.457 38.941 367.61 38.7945 367.789 38.6855C367.968 38.5764 368.169 38.5074 368.377 38.4831C370.404 38.2377 372.391 37.7334 374.289 36.9826C375.782 36.3598 377.102 35.3843 378.136 34.1395C379.229 32.7881 380 31.2065 380.393 29.5138C380.901 27.2473 381.163 24.9322 381.171 22.6092C381.168 22.3954 381.211 22.1835 381.299 21.9885C381.387 21.7935 381.517 21.6202 381.679 21.481C381.827 21.3362 382.004 21.2242 382.199 21.1523C382.393 21.0804 382.6 21.0502 382.807 21.0636L384.962 21.2441ZM373.33 21.2441C373.756 21.1508 374.201 21.2277 374.571 21.4584C374.758 21.5695 374.921 21.7164 375.051 21.8906C375.18 22.0649 375.274 22.2631 375.327 22.4738C375.947 24.7303 376.534 26.9867 377.064 29.0513C377.113 29.2411 377.123 29.4387 377.094 29.6325C377.065 29.8263 376.997 30.0123 376.895 30.1795C376.788 30.361 376.642 30.5174 376.469 30.638C376.296 30.7587 376.099 30.8408 375.891 30.879L373.894 31.3302C373.685 31.3811 373.467 31.3872 373.255 31.3484C373.044 31.3095 372.842 31.2264 372.665 31.1046C372.298 30.8688 372.035 30.5014 371.931 30.0779C371.705 29.1641 371.119 26.9867 370.183 23.5231C370.126 23.3253 370.111 23.1181 370.138 22.9144C370.166 22.7106 370.234 22.5145 370.34 22.3384C370.448 22.1603 370.592 22.0069 370.763 21.8883C370.934 21.7697 371.129 21.6886 371.333 21.6502L373.33 21.2441Z" fill="#252525"/>
</g>
<g clip-path="url(#clip2)">
<path d="M58.2678 2.45948C58.0494 2.1271 57.6722 1.93421 57.275 1.95178H56.4514C56.3248 1.94217 56.2065 2.01501 56.158 2.1323C56.0847 2.22903 56.0847 2.36275 56.158 2.45948L61.4719 9.89435C61.6881 10.2232 62.0601 10.4156 62.4534 10.402H63.2883C63.414 10.4082 63.5305 10.3365 63.5816 10.2215C63.6481 10.1226 63.6481 9.99328 63.5816 9.89435L58.2678 2.45948ZM74.4914 0.801015C74.0765 0.782839 73.6712 0.92875 73.3632 1.20717C73.064 1.46756 72.8712 1.82903 72.8216 2.22255C72.8103 2.27426 72.7612 2.30862 72.7088 2.30153H66.876C66.7116 2.30326 66.5542 2.36785 66.436 2.48204C66.3176 2.59744 66.2522 2.75672 66.2555 2.92204V3.36204C66.2522 3.52736 66.3176 3.68664 66.436 3.80204C66.5514 3.92046 66.7107 3.98581 66.876 3.98255H72.6298C72.6975 3.98255 72.7201 3.98255 72.7088 4.08409C72.6479 5.37093 72.1322 6.59435 71.2534 7.5364C70.2236 8.40437 68.9422 8.91852 67.598 9.00307C67.4396 9.02492 67.297 9.1105 67.2032 9.23999C67.1035 9.36767 67.0663 9.53323 67.1016 9.69127L67.1693 10.1087C67.2059 10.2731 67.3025 10.4179 67.4401 10.5149C67.5749 10.6183 67.7457 10.663 67.9139 10.639C69.633 10.5175 71.267 9.84491 72.5734 8.72102C73.743 7.52837 74.4439 5.95437 74.5478 4.28717C74.5478 4.21948 74.5478 4.18563 74.638 4.18563C75.0689 4.17264 75.476 3.98536 75.7662 3.66666C76.0633 3.36724 76.2261 2.96012 76.2175 2.53845C76.2172 2.1118 76.0419 1.70396 75.7324 1.41025C75.4343 1.0273 74.9767 0.802652 74.4914 0.801015ZM74.9991 2.95589C74.863 3.08752 74.6807 3.16045 74.4914 3.15896C74.3014 3.16429 74.1176 3.09079 73.9837 2.95589C73.851 2.82051 73.7779 2.63773 73.7806 2.44819C73.7779 2.25865 73.851 2.07588 73.9837 1.9405C74.1176 1.8056 74.3014 1.7321 74.4914 1.73743C74.6807 1.73594 74.863 1.80887 74.9991 1.9405C75.1317 2.07588 75.2049 2.25865 75.2021 2.44819C75.2049 2.63773 75.1317 2.82051 74.9991 2.95589ZM85.6719 5.03178L85.1868 4.85127C85.0338 4.79518 84.8659 4.79518 84.7129 4.85127C84.5679 4.91911 84.4547 5.04038 84.397 5.18973C84.029 6.18078 83.4203 7.06475 82.6257 7.76204C81.805 8.38644 80.8302 8.77637 79.8052 8.89025C79.8052 8.89025 79.8052 8.89025 79.7375 8.89025C79.7274 8.86883 79.7274 8.84397 79.7375 8.82255V2.33537C79.7389 2.17138 79.6689 2.01489 79.5457 1.90666C79.4303 1.78824 79.271 1.72289 79.1057 1.72614H78.4401C78.2776 1.72034 78.1208 1.78636 78.0114 1.90666C77.8911 2.01606 77.825 2.17288 77.8309 2.33537V9.96204C77.8272 10.1308 77.8923 10.2937 78.0114 10.4133C78.1225 10.5369 78.2861 10.5999 78.4514 10.5826C80.1144 10.6398 81.7624 10.2502 83.2237 9.45435C84.5228 8.57546 85.5102 7.30765 86.0442 5.83281C86.1122 5.68219 86.1122 5.50958 86.0442 5.35896C85.9709 5.20292 85.836 5.08439 85.6719 5.03178ZM96.0062 8.82255C93.5815 8.43656 91.137 8.18796 88.6842 8.07794C88.5182 8.06412 88.3541 8.12155 88.2329 8.23589C88.1029 8.33996 88.028 8.49808 88.0298 8.6646V9.1723C88.0086 9.3337 88.0627 9.49592 88.1765 9.6123C88.2816 9.74098 88.439 9.81555 88.6052 9.81537C91.0268 9.94235 93.4404 10.1909 95.837 10.56C95.9986 10.5941 96.1671 10.5571 96.2996 10.4585C96.4333 10.365 96.5165 10.2152 96.5252 10.0523L96.5816 9.54461C96.5935 9.37567 96.5455 9.20794 96.4462 9.07076C96.3379 8.93342 96.1798 8.84426 96.0062 8.82255ZM94.9232 5.41537C93.1926 5.13927 91.4492 4.95099 89.6996 4.85127C89.5337 4.83887 89.3702 4.8961 89.2483 5.00922C89.1201 5.11725 89.0391 5.27108 89.0226 5.43794V5.93435C89.0085 6.09842 89.0614 6.26121 89.1693 6.38563C89.2734 6.51564 89.4315 6.59054 89.598 6.58871C91.2753 6.69401 92.9902 6.8858 94.7426 7.16409C94.9024 7.1963 95.0681 7.15486 95.1939 7.05127C95.3261 6.95484 95.412 6.80761 95.4309 6.64512L95.4985 6.14871C95.5201 5.98065 95.4756 5.81079 95.3744 5.67486C95.2664 5.52968 95.103 5.43574 94.9232 5.41537ZM89.0452 3.46358C91.0534 3.55384 93.1857 3.73811 95.4421 4.0164C95.6066 4.03734 95.7728 3.99277 95.9047 3.8923C96.0365 3.79209 96.1187 3.63999 96.1303 3.47486V3.0123C96.1417 2.8504 96.0936 2.68991 95.995 2.56102C95.8985 2.42887 95.7513 2.34298 95.5888 2.32409C93.4001 2.05332 91.2226 1.86153 89.0791 1.77127C88.9166 1.75928 88.7568 1.81668 88.6391 1.92922C88.5192 2.04102 88.4466 2.19437 88.436 2.35794V2.8205C88.424 2.98291 88.4814 3.1428 88.5939 3.2605C88.704 3.3955 88.8712 3.47075 89.0452 3.46358ZM102.539 4.42255H101.997C101.834 4.424 101.678 4.49351 101.568 4.61435C101.449 4.72511 101.379 4.87998 101.376 5.04307C101.391 5.90838 101.261 6.77008 100.993 7.59281C100.75 8.1798 100.317 8.66836 99.7632 8.9805C99.621 9.06481 99.5192 9.20326 99.4811 9.36409C99.4443 9.51534 99.473 9.67508 99.5601 9.80409L99.8196 10.1877C99.9149 10.3315 100.059 10.4358 100.226 10.481C100.393 10.5278 100.573 10.5033 100.722 10.4133C101.521 9.96887 102.166 9.29216 102.572 8.47281C102.985 7.39356 103.181 6.2433 103.148 5.08819C103.158 4.92722 103.096 4.77005 102.979 4.65948C102.873 4.52122 102.712 4.43497 102.539 4.42255Z" fill="#252525"/>
<path d="M107.096 2.08718H99.3457C99.1804 2.08392 99.0211 2.14927 98.9057 2.26769C98.7879 2.37882 98.7223 2.53446 98.7252 2.69641V3.0123C98.7223 3.17425 98.7879 3.32989 98.9057 3.44102C99.0199 3.56247 99.179 3.63179 99.3457 3.63282H105.72C105.788 3.63282 105.799 3.63282 105.72 3.72307C105.384 4.46307 104.853 5.09844 104.186 5.56205C104.054 5.65848 103.968 5.80571 103.949 5.9682C103.927 6.1223 103.972 6.2785 104.073 6.39692L104.366 6.75794C104.473 6.89188 104.626 6.98056 104.795 7.00615C104.964 7.04259 105.14 7.00568 105.28 6.90461C106.223 6.21559 106.966 5.28913 107.435 4.21948C107.59 3.83606 107.666 3.42569 107.661 3.0123V2.69641C107.659 2.53303 107.59 2.37765 107.469 2.26769C107.371 2.1643 107.238 2.10013 107.096 2.08718ZM116.133 5.50564C116.061 5.35987 115.936 5.24699 115.784 5.18974C115.633 5.12168 115.46 5.12168 115.31 5.18974L114.813 5.4041C114.66 5.46883 114.541 5.59603 114.486 5.75384C114.419 5.90062 114.419 6.06963 114.486 6.21641L115.276 7.95384C115.276 7.95384 115.276 8.0441 115.22 8.06666C114.091 8.21333 112.828 8.36 111.451 8.4841C111.451 8.4841 111.384 8.4841 111.451 8.40512C112.129 6.48779 112.709 4.53724 113.189 2.56102C113.225 2.40247 113.197 2.23592 113.11 2.09846C113.018 1.96236 112.876 1.86882 112.715 1.83897L112.128 1.73743C111.963 1.70289 111.791 1.73977 111.654 1.83897C111.511 1.92915 111.406 2.07009 111.361 2.23384C110.831 4.36661 110.195 6.47148 109.454 8.54051C109.433 8.59772 109.38 8.63727 109.319 8.64205H108.981C108.81 8.6594 108.651 8.73511 108.529 8.85641C108.417 8.97921 108.356 9.14101 108.36 9.30769V9.64615C108.371 9.80971 108.443 9.96306 108.563 10.0749C108.676 10.1955 108.838 10.2578 109.003 10.2441C111.26 10.1388 113.572 9.91692 115.942 9.57846C115.998 9.57846 116.032 9.57846 116.066 9.65743C116.086 9.71628 116.113 9.77296 116.145 9.82666C116.172 9.88881 116.195 9.95292 116.212 10.0185C116.277 10.175 116.404 10.2976 116.562 10.3569C116.713 10.425 116.885 10.425 117.036 10.3569L117.566 10.1426C117.72 10.0919 117.844 9.97641 117.905 9.82666C117.966 9.6747 117.966 9.50478 117.905 9.35282C117.318 8.06666 116.731 6.78051 116.133 5.50564ZM128.927 3.92615C127.76 3.30955 126.672 2.55173 125.689 1.66974C125.401 1.39277 125.017 1.23896 124.617 1.24102H123.636C123.238 1.23351 122.852 1.38353 122.564 1.65846C121.585 2.54032 120.502 3.29817 119.337 3.91487C119.182 3.98923 119.064 4.12369 119.01 4.28718C118.949 4.44688 118.949 4.62388 119.01 4.78359L119.146 5.06564C119.21 5.21288 119.333 5.32709 119.484 5.38153C119.632 5.44359 119.799 5.44359 119.947 5.38153C120.353 5.16718 120.68 4.98666 120.928 4.82871H120.985C120.983 4.99271 121.053 5.1492 121.176 5.25743C121.292 5.37585 121.451 5.4412 121.616 5.43795H126.671C126.836 5.4412 126.995 5.37585 127.111 5.25743C127.234 5.1492 127.304 4.99271 127.303 4.82871C127.303 4.76102 127.303 4.73846 127.303 4.82871C127.596 5.00923 127.923 5.18974 128.307 5.39282C128.451 5.45427 128.614 5.45427 128.758 5.39282C128.913 5.33984 129.039 5.22566 129.108 5.07692L129.243 4.79487C129.305 4.63913 129.305 4.46548 129.243 4.30974C129.197 4.14279 129.082 4.00331 128.927 3.92615ZM126.163 4.11795H122.158C122.158 4.11795 122.102 4.11795 122.158 4.11795C122.868 3.59608 123.536 3.0189 124.155 2.39179C124.155 2.39179 124.234 2.39179 124.279 2.39179C124.9 3.01782 125.572 3.5914 126.287 4.10666C126.287 4.10666 126.253 4.11795 126.197 4.11795H126.163ZM128.307 6.22769H120.014C119.848 6.22872 119.689 6.29804 119.574 6.41948C119.453 6.53373 119.384 6.69275 119.383 6.85948V7.02871C119.384 7.19545 119.453 7.35447 119.574 7.46871C119.689 7.59016 119.848 7.65948 120.014 7.66051H122.09C122.147 7.66051 122.158 7.66051 122.09 7.75077C121.865 8.25846 121.583 8.8 121.267 9.37538C121.237 9.42744 121.18 9.45805 121.12 9.45436H120.691H120.274C120.113 9.46307 119.963 9.53629 119.856 9.65743C119.744 9.77898 119.69 9.94404 119.71 10.1087V10.2779C119.704 10.4484 119.78 10.6114 119.913 10.7179C120.041 10.8295 120.206 10.8898 120.375 10.8872C122.35 10.8082 124.539 10.639 126.919 10.3795C126.981 10.3642 127.044 10.3984 127.066 10.4585L127.201 10.7518C127.266 10.9083 127.392 11.0309 127.551 11.0903C127.703 11.1517 127.873 11.1517 128.025 11.0903L128.408 10.9662C128.559 10.9167 128.682 10.8061 128.747 10.6615C128.809 10.5136 128.809 10.3469 128.747 10.199C128.25 9.07077 127.844 8.26974 127.54 7.66051H127.596H128.273C128.44 7.65948 128.599 7.59016 128.713 7.46871C128.831 7.35331 128.897 7.19403 128.893 7.02871V6.8482C128.897 6.68289 128.831 6.5236 128.713 6.4082C128.605 6.29903 128.46 6.23457 128.307 6.22769ZM127.1 7.69436L126.569 7.86359C126.416 7.9143 126.292 8.02974 126.231 8.17948C126.164 8.3224 126.164 8.48784 126.231 8.63077C126.254 8.6942 126.284 8.75477 126.321 8.81128C126.321 8.87897 126.389 8.94666 126.411 8.98051C126.417 9.00276 126.417 9.02595 126.411 9.0482C126.411 9.0482 126.411 9.0482 126.355 9.0482C125.227 9.16102 124.2 9.24 123.32 9.30769C123.613 8.75863 123.862 8.25094 124.065 7.78461C124.08 7.73573 124.126 7.70329 124.177 7.70564H127.167L127.1 7.69436ZM132.007 3.88102H138.709C138.871 3.88387 139.026 3.81834 139.137 3.70051C139.264 3.58971 139.334 3.42842 139.329 3.26051V1.92923C139.334 1.76459 139.263 1.60681 139.137 1.50051C139.026 1.38268 138.871 1.31714 138.709 1.32H132.007C131.846 1.31852 131.69 1.38383 131.579 1.50051C131.458 1.61047 131.388 1.76585 131.387 1.92923V3.26051C131.388 3.42724 131.457 3.58627 131.579 3.70051C131.69 3.81719 131.846 3.8825 132.007 3.88102ZM133.135 2.64C133.132 2.61208 133.141 2.584 133.161 2.56408C133.181 2.54416 133.209 2.53468 133.237 2.53846H137.558C137.614 2.53846 137.648 2.53846 137.648 2.64V2.8882C137.652 2.91313 137.644 2.93843 137.626 2.95628C137.608 2.97413 137.583 2.98237 137.558 2.97846H133.237C133.169 2.97846 133.135 2.97846 133.135 2.8882V2.64ZM139.939 9.90564C139.566 9.74769 139.07 9.56718 138.449 9.37538H139.126C139.293 9.37435 139.452 9.30503 139.566 9.18359C139.688 9.06934 139.757 8.91032 139.758 8.74359V4.82871C139.757 4.66198 139.688 4.50296 139.566 4.38871C139.451 4.2703 139.292 4.20495 139.126 4.2082H131.567C131.402 4.20495 131.243 4.2703 131.127 4.38871C131.006 4.50296 130.936 4.66198 130.935 4.82871V8.74359C130.936 8.91032 131.006 9.06934 131.127 9.18359C131.241 9.30503 131.401 9.37435 131.567 9.37538H132.447C131.908 9.57747 131.358 9.75071 130.8 9.89436C130.651 9.92639 130.526 10.0267 130.462 10.1651C130.4 10.3014 130.4 10.4576 130.462 10.5938L130.541 10.7518C130.619 10.9117 130.751 11.0393 130.913 11.1128C131.08 11.1751 131.264 11.1751 131.432 11.1128C132.318 10.8762 133.179 10.555 134.004 10.1538C134.142 10.0889 134.248 9.97089 134.297 9.82666C134.354 9.68933 134.354 9.53528 134.297 9.39795C134.297 9.39795 134.297 9.31897 134.354 9.31897H136.385H136.441C136.374 9.46189 136.374 9.62733 136.441 9.77025C136.493 9.92414 136.621 10.0397 136.78 10.0749C137.671 10.3795 138.472 10.6841 139.194 11C139.353 11.0664 139.532 11.0664 139.69 11C139.85 10.9475 139.989 10.8445 140.085 10.7067L140.209 10.5262C140.295 10.3959 140.315 10.2337 140.266 10.0861C140.187 9.98265 140.068 9.91712 139.939 9.90564ZM138.009 8.24718C138.009 8.31487 138.009 8.34871 137.919 8.34871H132.797C132.741 8.34871 132.707 8.34871 132.707 8.24718V8.02154C132.707 7.95384 132.707 7.92 132.797 7.92H137.953C138.009 7.92 138.043 7.92 138.043 8.02154L138.009 8.24718ZM138.009 6.92718C138.009 6.99487 138.009 7.01743 137.919 7.01743H132.797C132.741 7.01743 132.707 7.01743 132.707 6.92718V6.69025C132.707 6.62256 132.707 6.58871 132.797 6.58871H137.953C138.009 6.58871 138.043 6.58871 138.043 6.69025L138.009 6.92718ZM138.009 5.59589C138.009 5.66359 138.009 5.69743 137.919 5.69743H132.797C132.741 5.69743 132.707 5.69743 132.707 5.59589V5.38153C132.707 5.31384 132.707 5.28 132.797 5.28H137.953C138.009 5.28 138.043 5.28 138.043 5.38153L138.009 5.59589ZM144.722 4.12923H146.11C146.274 4.12749 146.432 4.0629 146.55 3.94871C146.668 3.83331 146.734 3.67403 146.73 3.50871V3.24923C146.736 3.08673 146.67 2.92991 146.55 2.82051C146.434 2.70209 146.275 2.63674 146.11 2.64H145.106C145.049 2.64 145.015 2.64 145.038 2.54974C145.061 2.45948 145.038 2.38051 145.106 2.24512C145.173 2.10974 145.106 2.0082 145.106 1.94051C145.149 1.78952 145.12 1.62707 145.027 1.50051C144.933 1.37102 144.79 1.28544 144.632 1.26359H144.271C144.103 1.24205 143.933 1.28653 143.797 1.38769C143.656 1.48346 143.555 1.62819 143.515 1.79384C143.515 1.97436 143.413 2.24512 143.323 2.59487C143.312 2.64825 143.265 2.68622 143.21 2.68512H142.082C141.917 2.68187 141.758 2.74722 141.642 2.86564C141.519 2.97387 141.449 3.13036 141.45 3.29436V3.55384C141.451 3.72058 141.521 3.8796 141.642 3.99384C141.76 4.10803 141.918 4.17262 142.082 4.17436H142.759C142.815 4.17436 142.838 4.17436 142.827 4.26461C142.387 5.78769 141.924 7.20923 141.428 8.54051C141.36 8.68729 141.36 8.8563 141.428 9.00307C141.494 9.15348 141.621 9.26844 141.777 9.31897L142.139 9.43179C142.293 9.49895 142.469 9.49895 142.624 9.43179C142.776 9.35902 142.893 9.22936 142.951 9.07077C143.56 7.45743 144.079 5.86666 144.508 4.28718C144.575 4.18188 144.647 4.12923 144.722 4.12923ZM150.6 2.77538C149.946 2.70769 149.167 2.65128 148.265 2.64C148.1 2.62626 147.938 2.68859 147.825 2.80923C147.703 2.92347 147.634 3.08249 147.633 3.24923V6.50974C147.633 6.56615 147.633 6.58871 147.543 6.57743C147.258 6.48887 146.961 6.44696 146.663 6.45333C145.945 6.40567 145.234 6.61349 144.654 7.04C144.183 7.42569 143.919 8.01059 143.944 8.61948C143.926 9.25162 144.217 9.8529 144.722 10.2328C145.297 10.6599 146.004 10.8715 146.719 10.8308C148.062 10.8308 148.896 10.3456 149.212 9.38666C149.212 9.38666 149.212 9.38666 149.269 9.38666L149.799 9.83795C149.919 9.95489 150.084 10.0127 150.25 9.99589C150.421 10.0013 150.584 9.92602 150.69 9.79282L150.893 9.57846C151.006 9.46075 151.063 9.30087 151.051 9.13846C151.053 8.97115 150.983 8.81106 150.86 8.69846C150.399 8.29113 149.913 7.91426 149.404 7.57025C149.354 7.54415 149.323 7.49146 149.325 7.43487V4.34359C149.325 4.28718 149.325 4.26461 149.404 4.26461C149.788 4.26461 150.126 4.28718 150.42 4.3323C150.579 4.35849 150.742 4.31767 150.871 4.21948C151.003 4.12305 151.089 3.97583 151.108 3.81333V3.54256C151.128 3.38161 151.083 3.21918 150.984 3.09128C150.914 2.93007 150.772 2.81234 150.6 2.77538ZM147.43 9.1723C147.218 9.35454 146.94 9.44039 146.663 9.40923C146.39 9.42574 146.12 9.35025 145.895 9.19487C145.715 9.06004 145.614 8.84437 145.625 8.61948C145.62 8.40482 145.716 8.20037 145.884 8.06666C146.115 7.91672 146.388 7.84548 146.663 7.86359C146.971 7.87027 147.273 7.95156 147.543 8.10051C147.599 8.12051 147.636 8.1757 147.633 8.23589C147.668 8.56175 147.596 8.89014 147.43 9.1723ZM157.809 4.94154C156.712 4.96676 155.645 5.31181 154.741 5.93436C154.797 5.56205 154.853 5.15589 154.921 4.69333C154.946 4.53024 154.896 4.36475 154.786 4.24205C154.687 4.11622 154.539 4.0383 154.38 4.02769H153.883C153.716 4.01305 153.549 4.06584 153.421 4.17436C153.295 4.28588 153.211 4.43724 153.184 4.60307C153.082 5.32512 152.969 6.04718 152.834 6.78051C152.799 6.94571 152.836 7.11781 152.935 7.25436C153.021 7.39769 153.166 7.49652 153.33 7.52512L153.703 7.6041C154.088 7.68682 154.49 7.62243 154.831 7.42359C155.651 6.89401 156.588 6.57258 157.561 6.48718C158.565 6.48718 159.062 6.88205 159.062 7.61538C159.057 8.11611 158.774 8.57278 158.328 8.8C157.688 9.12803 156.971 9.27988 156.252 9.24C155.756 9.24 155.124 9.24 154.346 9.13846C154.182 9.12435 154.019 9.17725 153.894 9.28512C153.76 9.38327 153.677 9.53657 153.669 9.70256V9.96205C153.656 10.1241 153.705 10.2849 153.804 10.4133C153.909 10.5457 154.065 10.6276 154.233 10.639C154.91 10.7067 155.598 10.7405 156.275 10.7405C157.523 10.8151 158.765 10.525 159.851 9.90564C160.63 9.4215 161.101 8.56636 161.092 7.64923C161.157 6.89218 160.87 6.14739 160.314 5.62974C159.584 5.11778 158.699 4.87459 157.809 4.94154ZM154.752 3.30564C156.151 3.4523 157.595 3.53128 159.084 3.55384C159.247 3.55965 159.403 3.49362 159.513 3.37333C159.634 3.26337 159.703 3.10799 159.705 2.94461V2.68512C159.704 2.51839 159.634 2.35937 159.513 2.24512C159.394 2.1319 159.237 2.06747 159.073 2.06461C157.775 2.06461 156.399 1.95179 154.944 1.80512C154.777 1.78191 154.609 1.8312 154.481 1.94051C154.342 2.03265 154.252 2.18129 154.233 2.34666V2.61743C154.21 2.78041 154.259 2.94524 154.368 3.06871C154.457 3.19861 154.596 3.28476 154.752 3.30564Z" fill="#252525"/>
<path d="M172.228 8.82256C172.203 8.65033 172.099 8.49985 171.946 8.4164C171.798 8.3141 171.612 8.28116 171.438 8.32615C170.328 8.58712 169.194 8.73081 168.054 8.75486C167.456 8.78306 166.858 8.69494 166.294 8.49538C165.899 8.31486 165.707 8.07794 165.707 7.79589C165.707 7.51384 165.989 7.06256 166.553 6.46461C166.666 6.33786 166.723 6.17118 166.711 6.00204C166.701 5.83359 166.614 5.67924 166.474 5.58461L165.899 5.16717C165.741 5.05641 165.549 5.00451 165.357 5.0205C165.169 5.03134 164.992 5.11179 164.861 5.24615C164.418 5.69234 164.038 6.19722 163.732 6.74666C163.516 7.1411 163.4 7.58281 163.394 8.03281C163.397 8.88248 163.876 9.65867 164.635 10.041C165.699 10.6054 166.896 10.8705 168.099 10.8082C169.378 10.7937 170.653 10.6424 171.901 10.3569C172.086 10.3271 172.248 10.2151 172.341 10.0523C172.442 9.89959 172.475 9.71132 172.431 9.53333L172.228 8.82256ZM165.131 3.14768H171.111C171.293 3.14814 171.468 3.07492 171.596 2.94461C171.725 2.81616 171.798 2.6417 171.799 2.45948V1.83897C171.798 1.65675 171.725 1.48229 171.596 1.35384C171.468 1.22353 171.293 1.1503 171.111 1.15076H165.131C164.948 1.14763 164.773 1.22128 164.646 1.35384C164.517 1.48229 164.444 1.65675 164.443 1.83897V2.45948C164.444 2.6417 164.517 2.81616 164.646 2.94461C164.773 3.07716 164.948 3.15081 165.131 3.14768ZM180.125 0.913838C178.553 0.837381 177.014 1.38014 175.838 2.42563C174.754 3.43306 174.161 4.86164 174.214 6.34051C174.184 7.38223 174.506 8.40365 175.127 9.23999C175.554 9.94088 176.294 10.391 177.113 10.4472C177.539 10.4565 177.96 10.3513 178.331 10.1426C178.75 9.85026 179.094 9.46382 179.336 9.01435C179.744 8.30977 180.048 7.54973 180.238 6.75794C180.548 5.55805 180.789 4.34135 180.96 3.11384C180.96 3.04615 181.017 3.0123 181.073 3.04615C181.613 3.2118 182.081 3.55337 182.404 4.0164C182.74 4.50352 182.913 5.08368 182.901 5.67486C183.046 6.8861 182.313 8.03055 181.152 8.40512C180.982 8.468 180.836 8.58239 180.735 8.7323C180.634 8.87695 180.601 9.05797 180.644 9.22871L180.814 9.95076C180.846 10.1408 180.956 10.3086 181.118 10.4133C181.267 10.5226 181.456 10.5636 181.637 10.5261C182.65 10.3277 183.55 9.75082 184.153 8.91281C184.797 7.95924 185.117 6.8242 185.067 5.67486C185.113 4.37088 184.605 3.10839 183.668 2.19999C182.705 1.31688 181.43 0.853986 180.125 0.913838ZM178.095 6.19384C177.965 6.75248 177.78 7.29674 177.542 7.81845C177.384 8.12307 177.237 8.26974 177.113 8.26974C176.989 8.26974 176.831 8.06666 176.65 7.64922C176.47 7.23656 176.378 6.79083 176.38 6.34051C176.365 5.63742 176.57 4.94734 176.966 4.36615C177.371 3.82351 177.941 3.42745 178.591 3.23794C178.591 3.23794 178.591 3.23794 178.659 3.23794C178.726 3.23794 178.659 3.23794 178.659 3.29435C178.489 4.43384 178.298 5.40409 178.095 6.19384ZM195.491 4.05025C196.005 4.05718 196.498 3.85326 196.857 3.48615C197.229 3.1303 197.437 2.63607 197.432 2.12102C197.44 1.60543 197.231 1.11014 196.857 0.755889C196.501 0.384164 196.006 0.179381 195.491 0.191787C194.981 0.179753 194.489 0.384734 194.138 0.755889C193.763 1.11014 193.554 1.60543 193.562 2.12102C193.557 2.63607 193.765 3.1303 194.138 3.48615C194.492 3.85265 194.982 4.05674 195.491 4.05025ZM194.905 1.52307C195.056 1.36045 195.269 1.27014 195.491 1.27486C195.717 1.26686 195.936 1.35745 196.089 1.52307C196.255 1.6769 196.346 1.89512 196.338 2.12102C196.34 2.34586 196.25 2.56189 196.089 2.71897C195.932 2.87986 195.716 2.96953 195.491 2.96717C195.271 2.96647 195.059 2.87704 194.905 2.71897C194.744 2.56189 194.654 2.34586 194.657 2.12102C194.649 1.89512 194.739 1.6769 194.905 1.52307ZM194.081 4.34358C193.526 3.68946 192.919 3.08195 192.265 2.52717C191.869 2.30961 191.418 2.21163 190.967 2.24512H190.494C190.117 2.27633 189.766 2.44977 189.512 2.73025C188.893 3.47928 188.316 4.26275 187.786 5.07692L186.466 6.9723C186.366 7.12139 186.33 7.30399 186.364 7.47999C186.392 7.6569 186.495 7.8132 186.646 7.90871L187.447 8.42768C187.596 8.53876 187.787 8.57613 187.966 8.52922C188.149 8.50204 188.313 8.39985 188.418 8.24717C188.519 8.10051 188.993 7.40102 189.839 6.12615C190.2 5.57333 190.46 5.18974 190.606 4.99794C190.753 4.80615 190.877 4.70461 190.967 4.70461C191.139 4.73262 191.295 4.82058 191.407 4.95281C191.588 5.12204 191.904 5.47179 192.366 6.00204C193.709 7.49127 194.826 8.70974 195.751 9.64615C195.876 9.77281 196.047 9.84223 196.225 9.83794C196.404 9.83794 196.575 9.76454 196.699 9.63486L197.455 8.87897C197.588 8.74852 197.661 8.56893 197.658 8.38256C197.658 8.20009 197.585 8.02516 197.455 7.89743C196.409 6.83692 195.285 5.6523 194.081 4.34358ZM207.349 4.59179H199.451C199.282 4.5914 199.121 4.6657 199.011 4.79486C198.891 4.92754 198.827 5.10115 198.831 5.27999V6.19384C198.824 6.37308 198.889 6.54756 199.011 6.67897C199.121 6.80813 199.282 6.88243 199.451 6.88205H207.349C207.518 6.88243 207.679 6.80813 207.789 6.67897C207.911 6.54756 207.976 6.37308 207.969 6.19384V5.27999C207.973 5.10115 207.909 4.92754 207.789 4.79486C207.679 4.6657 207.518 4.5914 207.349 4.59179ZM211.151 2.78666L213.892 3.30563C214.071 3.34556 214.257 3.3131 214.411 3.21538C214.572 3.12469 214.683 2.96766 214.716 2.78666L214.851 2.12102C214.894 1.94147 214.857 1.75247 214.75 1.60204C214.652 1.45114 214.497 1.34558 214.321 1.30871L211.557 0.778453C211.376 0.746371 211.19 0.786903 211.038 0.891274C210.893 0.999874 210.789 1.15526 210.745 1.33127L210.621 1.99692C210.574 2.17274 210.612 2.36027 210.722 2.50461C210.818 2.65608 210.974 2.75891 211.151 2.78666ZM213.249 6.13743C213.424 6.18241 213.609 6.14948 213.757 6.04717C213.911 5.95187 214.017 5.79625 214.05 5.61845L214.186 5.00922C214.229 4.83849 214.196 4.65746 214.096 4.51281C214.007 4.35051 213.849 4.23807 213.667 4.2082C212.539 3.98256 211.67 3.81333 210.97 3.68922C210.791 3.65385 210.605 3.69031 210.451 3.79076C210.293 3.88836 210.182 4.04794 210.147 4.23076L210.011 4.82871C209.965 5.00453 210.002 5.19207 210.113 5.3364C210.209 5.48788 210.365 5.5907 210.542 5.61845C211.286 5.71999 212.144 5.91179 213.249 6.13743ZM217.413 1.5682C217.461 1.67758 217.517 1.78318 217.582 1.88409C217.655 2.03353 217.785 2.14735 217.943 2.19999C218.093 2.26805 218.266 2.26805 218.417 2.19999C218.573 2.13915 218.693 2.01047 218.744 1.85025C218.812 1.69171 218.812 1.51238 218.744 1.35384C218.744 1.28615 218.654 1.17333 218.575 1.03794C218.524 0.929801 218.467 0.824361 218.405 0.722043C218.327 0.565318 218.189 0.447166 218.022 0.394864C217.867 0.327703 217.691 0.327703 217.537 0.394864C217.39 0.473943 217.28 0.607756 217.232 0.767171C217.165 0.918094 217.165 1.09009 217.232 1.24102C217.277 1.31999 217.334 1.43281 217.413 1.5682ZM219.364 3.02358L218.541 2.87692C218.363 2.84667 218.181 2.88717 218.033 2.98974C217.881 3.09435 217.773 3.25083 217.728 3.42974C217.457 4.85362 216.709 6.14272 215.607 7.08512C214.234 7.96608 212.656 8.47535 211.027 8.56307C210.847 8.57346 210.681 8.66467 210.576 8.81127C210.469 8.95299 210.428 9.13369 210.463 9.30768L210.609 10.1313C210.628 10.3175 210.727 10.4864 210.88 10.5938C211.027 10.7097 211.215 10.7589 211.399 10.7292C213.468 10.6131 215.46 9.90852 217.142 8.69845C218.578 7.41328 219.547 5.68677 219.895 3.79076C219.941 3.62214 219.903 3.44146 219.793 3.30563C219.697 3.15416 219.541 3.05133 219.364 3.02358ZM220.391 0.86871C220.323 0.710761 220.256 0.597941 220.222 0.518966C220.142 0.365693 220.004 0.251553 219.838 0.203069C219.676 0.134744 219.493 0.134744 219.33 0.203069C219.173 0.274001 219.053 0.409789 219.003 0.575377C218.942 0.731328 218.942 0.904553 219.003 1.0605C219.161 1.35384 219.285 1.5682 219.353 1.71486C219.435 1.86852 219.572 1.98543 219.737 2.04204C219.891 2.1092 220.067 2.1092 220.222 2.04204C220.376 1.97245 220.495 1.84163 220.549 1.68102C220.616 1.52628 220.616 1.35063 220.549 1.19589L220.391 0.86871ZM226.833 1.79384C225.407 1.72492 224.011 2.21466 222.941 3.15897C221.949 4.07408 221.406 5.37565 221.451 6.72409C221.425 7.67295 221.719 8.60305 222.286 9.36409C222.662 10.0182 223.339 10.4415 224.091 10.4923C224.487 10.5064 224.878 10.4087 225.22 10.2102C225.601 9.96034 225.918 9.62406 226.145 9.22871C226.505 8.5912 226.778 7.90818 226.957 7.19794C227.235 6.10488 227.453 4.99763 227.611 3.88102C227.611 3.82461 227.611 3.80204 227.724 3.82461C228.209 3.98364 228.632 4.29158 228.931 4.70461C229.231 5.15081 229.385 5.67906 229.371 6.2164C229.501 7.31724 228.835 8.3563 227.781 8.69845C227.625 8.75363 227.493 8.86134 227.408 9.00307C227.315 9.12963 227.286 9.29208 227.329 9.44307L227.476 10.1087C227.512 10.2794 227.613 10.4293 227.758 10.5261C227.89 10.6269 228.061 10.6603 228.221 10.6164C229.131 10.4372 229.938 9.9165 230.477 9.16102C231.067 8.29563 231.36 7.26241 231.312 6.2164C231.356 5.03003 230.892 3.88123 230.037 3.05743C229.184 2.22056 228.028 1.76475 226.833 1.79384ZM224.983 6.58871C224.866 7.09637 224.7 7.59138 224.486 8.06666C224.34 8.34871 224.204 8.48409 224.091 8.48409C223.979 8.48409 223.832 8.2923 223.674 7.91999C223.513 7.54165 223.429 7.1352 223.426 6.72409C223.409 6.08523 223.595 5.45745 223.956 4.93025C224.311 4.40155 224.83 4.00492 225.434 3.80204C225.455 3.79188 225.48 3.79188 225.502 3.80204C225.378 4.73948 225.205 5.66969 224.983 6.58871ZM241.342 1.27486H233.85C233.668 1.2744 233.493 1.34763 233.365 1.47794C233.235 1.60567 233.162 1.7806 233.162 1.96307V2.63999C233.163 2.82221 233.236 2.99667 233.365 3.12512C233.493 3.25543 233.668 3.32866 233.85 3.3282H239.695C239.722 3.32442 239.751 3.3339 239.77 3.35382C239.79 3.37374 239.8 3.40182 239.796 3.42974V8.05538C239.8 8.08329 239.79 8.11137 239.77 8.13129C239.751 8.15121 239.722 8.16069 239.695 8.15692H233.85C233.668 8.15646 233.493 8.22968 233.365 8.35999C233.233 8.48619 233.159 8.66213 233.162 8.84512V9.51076C233.159 9.69375 233.233 9.8697 233.365 9.99589C233.493 10.1262 233.668 10.1994 233.85 10.199H241.398C241.581 10.2021 241.757 10.1284 241.883 9.99589C242.016 9.8697 242.089 9.69375 242.086 9.51076V1.96307C242.087 1.7806 242.014 1.60567 241.883 1.47794C241.744 1.32982 241.544 1.25478 241.342 1.27486ZM253.763 2.33538L252.917 2.14358C252.744 2.1009 252.561 2.12935 252.409 2.22256C252.253 2.31999 252.14 2.47334 252.094 2.65127C251.766 4.12368 250.975 5.45231 249.837 6.44204C248.513 7.40076 246.953 7.98179 245.324 8.12307C245.147 8.14916 244.988 8.24705 244.884 8.39384C244.773 8.53376 244.728 8.71463 244.76 8.89025L244.907 9.77025C244.934 9.95347 245.031 10.1191 245.178 10.2328C245.319 10.3495 245.504 10.3989 245.685 10.3682C247.794 10.198 249.806 9.41349 251.473 8.11179C252.94 6.80395 253.932 5.0461 254.294 3.11384C254.336 2.93429 254.299 2.74529 254.192 2.59486C254.086 2.45839 253.933 2.36596 253.763 2.33538ZM245.031 3.12512C245.764 3.46358 246.61 3.88102 247.547 4.35486C247.716 4.4283 247.908 4.4283 248.077 4.35486C248.258 4.30572 248.409 4.18288 248.495 4.0164L248.957 3.14768C249.046 2.99426 249.071 2.81148 249.025 2.63999C248.979 2.4694 248.859 2.3285 248.698 2.2564C247.851 1.82768 246.994 1.42153 246.125 1.02666C245.952 0.953948 245.757 0.953948 245.584 1.02666C245.403 1.07719 245.254 1.20532 245.178 1.3764L244.738 2.22256C244.664 2.37987 244.664 2.56165 244.738 2.71897C244.779 2.88739 244.884 3.0331 245.031 3.12512ZM257.926 2.96717H264.312C264.495 2.9703 264.671 2.89665 264.797 2.76409C264.926 2.63565 264.999 2.46118 265 2.27897V1.60204C265.003 1.41905 264.93 1.24311 264.797 1.11692C264.671 0.984358 264.495 0.910708 264.312 0.913838H257.971C257.788 0.910708 257.613 0.984358 257.486 1.11692C257.354 1.24311 257.28 1.41905 257.283 1.60204V2.27897C257.284 2.46118 257.357 2.63565 257.486 2.76409C257.602 2.8856 257.759 2.95828 257.926 2.96717ZM265.722 4.17435H256.482C256.299 4.17122 256.123 4.24487 255.997 4.37743C255.865 4.50362 255.791 4.67956 255.794 4.86256V5.5282C255.791 5.71119 255.865 5.88713 255.997 6.01333C256.123 6.14588 256.299 6.21953 256.482 6.2164H260.149C260.217 6.2164 260.25 6.2164 260.25 6.32922C260.265 6.88606 260.081 7.42993 259.731 7.86358C259.274 8.30148 258.704 8.60244 258.084 8.7323C257.912 8.77127 257.764 8.8821 257.678 9.03692C257.588 9.18623 257.567 9.36755 257.622 9.53333L257.881 10.2779C257.94 10.4561 258.06 10.6078 258.22 10.7067C258.379 10.8028 258.568 10.8351 258.75 10.7969C261.322 10.1877 262.627 8.68341 262.665 6.2841C262.661 6.25319 262.672 6.22231 262.694 6.2003C262.716 6.1783 262.747 6.1676 262.778 6.17127H265.722C265.904 6.17048 266.079 6.09745 266.207 5.9682C266.34 5.842 266.414 5.66606 266.411 5.48307V4.81743C266.414 4.63443 266.34 4.45849 266.207 4.3323C266.072 4.21944 265.898 4.1629 265.722 4.17435ZM268.915 3.12512C269.66 3.46358 270.495 3.88102 271.442 4.35486C271.611 4.4283 271.803 4.4283 271.972 4.35486C272.148 4.30176 272.295 4.17961 272.379 4.0164L272.852 3.14768C272.945 2.99489 272.965 2.80932 272.909 2.63999C272.866 2.46779 272.745 2.3257 272.582 2.2564C271.736 1.82768 270.889 1.42153 270.021 1.02666C269.847 0.953948 269.652 0.953948 269.479 1.02666C269.297 1.07966 269.146 1.20652 269.062 1.3764L268.633 2.22256C268.543 2.37187 268.522 2.55319 268.577 2.71897C268.628 2.89527 268.751 3.04227 268.915 3.12512ZM277.659 2.33538L276.812 2.14358C276.64 2.1009 276.457 2.12935 276.305 2.22256C276.142 2.3131 276.027 2.46943 275.989 2.65127C275.656 4.12162 274.866 5.44875 273.732 6.44204C272.406 7.39678 270.847 7.97738 269.22 8.12307C269.039 8.14876 268.876 8.24641 268.768 8.39384C268.66 8.53491 268.619 8.71624 268.656 8.89025L268.791 9.77025C268.818 9.95651 268.92 10.1237 269.073 10.2328C269.215 10.3495 269.4 10.3989 269.581 10.3682C271.686 10.1984 273.694 9.41377 275.357 8.11179C276.828 6.80507 277.824 5.04728 278.189 3.11384C278.224 2.93422 278.188 2.7479 278.087 2.59486C277.981 2.45839 277.829 2.36596 277.659 2.33538ZM283.683 4.94153C283.733 5.12085 283.845 5.27669 283.999 5.38153C284.152 5.48299 284.34 5.51573 284.518 5.47179L285.364 5.27999C285.538 5.24524 285.69 5.13877 285.782 4.98666C285.88 4.83679 285.909 4.65166 285.861 4.47897C285.635 3.59897 285.387 2.67384 285.127 1.6923C285.077 1.51302 284.96 1.35974 284.8 1.26358C284.644 1.17224 284.459 1.14021 284.281 1.17333L283.435 1.3764C283.258 1.40377 283.103 1.51224 283.018 1.66974C282.928 1.81881 282.903 1.99842 282.95 2.16615C283.345 3.63281 283.593 4.59179 283.683 4.94153ZM282.532 5.27999C282.622 5.12656 282.646 4.94379 282.6 4.7723L281.867 2.04204C281.816 1.86839 281.699 1.72214 281.54 1.63589C281.386 1.53694 281.197 1.50822 281.021 1.55692L280.231 1.72615C280.06 1.76249 279.913 1.86896 279.825 2.01948C279.731 2.17552 279.706 2.36358 279.757 2.53845C279.926 3.19281 280.163 4.10666 280.445 5.26871C280.479 5.44348 280.586 5.59549 280.739 5.68615C280.894 5.78159 281.079 5.8139 281.258 5.7764L282.104 5.58461C282.282 5.54622 282.437 5.43607 282.532 5.27999Z" fill="#EE4949"/>
<path d="M289.2 1.20717H288.286C288.106 1.1953 287.93 1.26099 287.801 1.38768C287.664 1.50216 287.586 1.6718 287.587 1.85025C287.584 2.83325 287.474 3.81305 287.259 4.7723C287.1 5.48771 286.775 6.15599 286.312 6.72409C285.881 7.25749 285.322 7.67285 284.687 7.93127C283.887 8.25271 283.049 8.46888 282.194 8.57435C282.016 8.59069 281.854 8.68589 281.754 8.83384C281.646 8.97491 281.604 9.15624 281.641 9.33025L281.788 10.0861C281.82 10.2733 281.925 10.4399 282.081 10.5487C282.23 10.668 282.422 10.721 282.611 10.6954C283.723 10.5829 284.813 10.3132 285.849 9.89435C286.718 9.54275 287.492 8.98981 288.106 8.28102C288.726 7.52865 289.176 6.6512 289.426 5.70871C289.732 4.49093 289.895 3.24136 289.911 1.98563C289.925 1.79975 289.854 1.61749 289.719 1.48922C289.591 1.32971 289.404 1.22816 289.2 1.20717ZM302.276 3.19281C301.045 2.5249 299.907 1.69798 298.891 0.733324C298.592 0.431235 298.188 0.257253 297.763 0.248196H296.24C295.815 0.257253 295.411 0.431235 295.112 0.733324C294.098 1.70044 292.96 2.52761 291.727 3.19281C291.56 3.27537 291.434 3.42188 291.377 3.59896C291.304 3.76809 291.304 3.9601 291.377 4.12922L291.603 4.69332C291.669 4.85971 291.805 4.98803 291.975 5.04307C292.137 5.11694 292.322 5.11694 292.483 5.04307L293.611 4.42255V4.65948C293.611 4.83856 293.685 5.00982 293.814 5.13332C293.938 5.27124 294.114 5.34935 294.299 5.34768H295.732C295.811 5.34768 295.845 5.34768 295.845 5.44922V6.27281C295.845 6.3405 295.845 6.36307 295.732 6.36307H293.397C293.212 6.36423 293.037 6.44185 292.912 6.57743C292.782 6.70093 292.709 6.87219 292.709 7.05127V7.43486C292.709 7.61394 292.782 7.7852 292.912 7.90871C293.034 8.04786 293.212 8.12623 293.397 8.12307H295.732C295.811 8.12307 295.845 8.12307 295.845 8.22461V9.1723C295.845 9.1723 295.845 9.26255 295.732 9.26255H292.348C292.165 9.25942 291.989 9.33307 291.863 9.46563C291.732 9.59336 291.659 9.76829 291.659 9.95076V10.3908C291.659 10.5698 291.733 10.7411 291.863 10.8646C291.985 11.0038 292.162 11.0821 292.348 11.0791H301.712C301.893 11.0803 302.067 11.002 302.186 10.8646C302.315 10.7411 302.389 10.5698 302.389 10.3908V9.95076C302.389 9.76829 302.316 9.59336 302.186 9.46563C302.062 9.33595 301.891 9.26255 301.712 9.26255H298.158C298.09 9.26255 298.056 9.26255 298.056 9.1723V8.22461C298.053 8.19669 298.062 8.16861 298.082 8.14869C298.102 8.12877 298.13 8.11929 298.158 8.12307H300.505C300.69 8.12623 300.867 8.04786 300.99 7.90871C301.119 7.7852 301.193 7.61394 301.193 7.43486V7.05127C301.193 6.87219 301.119 6.70093 300.99 6.57743C300.865 6.44185 300.689 6.36423 300.505 6.36307H298.158C298.09 6.36307 298.056 6.36307 298.056 6.27281V5.44922C298.053 5.4213 298.062 5.39322 298.082 5.3733C298.102 5.35338 298.13 5.34391 298.158 5.34768H299.658C299.844 5.35085 300.021 5.27248 300.144 5.13332C300.273 5.00982 300.347 4.83856 300.347 4.65948V4.46768H300.403C300.798 4.69332 301.148 4.88512 301.452 5.03178C301.618 5.10469 301.806 5.10469 301.971 5.03178C302.142 4.97156 302.278 4.83968 302.344 4.67076L302.569 4.10666C302.643 3.93753 302.643 3.74552 302.569 3.5764C302.521 3.4173 302.417 3.28105 302.276 3.19281ZM299.083 3.63281H294.773C294.773 3.63281 294.717 3.63281 294.773 3.5764C295.532 3.02199 296.242 2.40293 296.894 1.72614C296.894 1.66973 296.996 1.65845 297.041 1.72614C297.689 2.41377 298.399 3.04066 299.162 3.59896C299.162 3.59896 299.128 3.63281 299.083 3.63281ZM309.44 4.23076C309.372 4.23076 309.338 4.23076 309.361 4.12922C309.474 3.68922 309.575 3.21538 309.688 2.70768C309.768 2.70487 309.845 2.67275 309.903 2.61743C309.969 2.56187 310.007 2.47862 310.004 2.39179V1.64717C310.007 1.46185 309.929 1.28448 309.79 1.16204C309.666 1.03236 309.495 0.958965 309.316 0.958965H308.188C308.12 0.958965 308.086 0.958965 308.086 0.846144V0.744606C308.089 0.561613 308.016 0.385672 307.883 0.259478C307.755 0.129167 307.58 0.0559408 307.398 0.0563986H306.541C306.358 0.0559408 306.183 0.129167 306.055 0.259478C305.923 0.385672 305.849 0.561613 305.852 0.744606V0.846144C305.852 0.925119 305.852 0.958965 305.751 0.958965H304.735C304.552 0.955835 304.376 1.02948 304.25 1.16204C304.118 1.28824 304.044 1.46418 304.047 1.64717V2.33537C304.045 2.43197 304.082 2.52544 304.149 2.59486C304.218 2.67033 304.317 2.71157 304.419 2.70768C304.555 3.25674 304.668 3.73059 304.758 4.12922C304.758 4.19691 304.735 4.23076 304.69 4.23076H304.555C304.372 4.22763 304.196 4.30128 304.07 4.43384C303.939 4.56157 303.866 4.73649 303.867 4.91896V5.34768C303.864 5.53068 303.937 5.70662 304.07 5.83281C304.196 5.96537 304.372 6.03902 304.555 6.03589H309.44C309.623 6.03902 309.799 5.96537 309.925 5.83281C310.058 5.70662 310.131 5.53068 310.128 5.34768V4.91896C310.129 4.73649 310.055 4.56157 309.925 4.43384C309.799 4.30128 309.623 4.22763 309.44 4.23076ZM307.421 4.1405C307.409 4.19842 307.355 4.23777 307.296 4.23076H306.935C306.868 4.23076 306.834 4.23076 306.811 4.12922C306.687 3.55384 306.597 3.09127 306.507 2.76409C306.507 2.6964 306.507 2.66255 306.586 2.66255H307.635C307.703 2.66255 307.736 2.66255 307.714 2.76409C307.601 3.15896 307.499 3.62153 307.375 4.1405H307.421ZM309.214 6.52102H304.927C304.744 6.51789 304.568 6.59154 304.442 6.72409C304.313 6.85254 304.24 7.027 304.239 7.20922V10.5938C304.239 10.7729 304.312 10.9442 304.442 11.0677C304.564 11.2068 304.742 11.2852 304.927 11.282H306.055C306.142 11.2848 306.225 11.2473 306.281 11.1805C306.336 11.1225 306.368 11.0462 306.371 10.9661H307.725H307.782C307.78 11.0449 307.808 11.1214 307.861 11.1805C307.918 11.2447 308 11.2816 308.086 11.282H309.135C309.321 11.2852 309.498 11.2068 309.621 11.0677C309.75 10.9442 309.824 10.7729 309.824 10.5938V7.20922C309.823 7.027 309.75 6.85254 309.621 6.72409C309.514 6.61009 309.37 6.53806 309.214 6.52102ZM307.861 9.12717C307.864 9.15807 307.853 9.18895 307.831 9.21096C307.809 9.23297 307.779 9.24367 307.748 9.23999H306.518C306.439 9.23999 306.405 9.23999 306.405 9.12717V8.37127C306.405 8.30358 306.405 8.26973 306.518 8.26973H307.748C307.815 8.26973 307.861 8.26973 307.861 8.37127V9.12717ZM314.37 5.14461C314.337 5.09295 314.337 5.02703 314.37 4.97537C314.677 4.2393 314.941 3.48587 315.16 2.71896C315.297 2.28465 315.365 1.83173 315.363 1.3764V1.0605C315.365 0.875486 315.287 0.698717 315.149 0.575375C315.025 0.445694 314.854 0.372296 314.675 0.372296H311.098C310.916 0.371838 310.741 0.445064 310.613 0.575375C310.483 0.703104 310.41 0.878033 310.41 1.0605V10.5487C310.41 10.7278 310.484 10.899 310.613 11.0226C310.737 11.1605 310.913 11.2386 311.098 11.237H311.832C312.017 11.2401 312.194 11.1617 312.317 11.0226C312.447 10.899 312.52 10.7278 312.52 10.5487V8.57435L312.701 9.36409C312.753 9.55166 312.863 9.71767 313.016 9.83794C313.165 9.96227 313.353 10.0302 313.547 10.0297H313.648C314.162 10.0739 314.668 9.88313 315.025 9.51076C315.363 8.98542 315.514 8.36133 315.453 7.73948C315.452 7.2617 315.352 6.78936 315.16 6.35178C314.967 5.90757 314.7 5.49937 314.37 5.14461ZM312.497 2.22255C312.497 2.15486 312.497 2.12102 312.61 2.12102H313.107C313.163 2.12102 313.197 2.12102 313.174 2.22255C313.015 2.95242 312.8 3.66904 312.531 4.36614L312.497 2.22255ZM313.208 8.13435C313.027 8.24868 312.812 8.29653 312.599 8.26973C312.571 8.27351 312.543 8.26403 312.523 8.24411C312.503 8.22419 312.494 8.19611 312.497 8.16819V5.64102C312.942 6.18858 313.213 6.85641 313.276 7.55896C313.318 7.75295 313.294 7.95544 313.208 8.13435Z" fill="#EE4949"/>
<path d="M326.848 8.5405H326.623C326.465 8.51792 326.305 8.563 326.183 8.66461C326.061 8.77072 325.988 8.92123 325.979 9.08204C325.979 9.23999 325.979 9.35281 325.979 9.43179C325.99 9.48766 325.99 9.54514 325.979 9.60102C325.979 9.60102 325.979 9.66871 325.979 9.67999H325.585C325.528 9.67999 325.483 9.67999 325.472 9.62358C325.462 9.52983 325.462 9.43528 325.472 9.34153V8.21332C325.472 8.15691 325.472 8.13435 325.562 8.13435H326.431C326.598 8.13332 326.757 8.064 326.871 7.94255C326.992 7.82831 327.062 7.66929 327.063 7.50255V2.01948C327.064 1.85549 326.994 1.69899 326.871 1.59076C326.755 1.47234 326.596 1.40699 326.431 1.41025H321.918C321.753 1.40699 321.593 1.47234 321.478 1.59076C321.355 1.69899 321.285 1.85549 321.286 2.01948V6.98358C321.015 6.61127 320.711 6.22768 320.384 5.85538C320.355 5.80651 320.355 5.7463 320.384 5.69743C320.513 5.4402 320.63 5.17662 320.733 4.90768C320.882 4.52292 320.955 4.11297 320.948 3.7005V3.42973C320.951 3.26442 320.886 3.10513 320.767 2.98973C320.649 2.87555 320.492 2.81095 320.327 2.80922H320.045C319.977 2.80922 319.944 2.80922 319.944 2.71896V1.86153C319.942 1.69718 319.877 1.53974 319.763 1.42153C319.647 1.3022 319.489 1.23329 319.323 1.22973H318.951C318.784 1.23076 318.625 1.30008 318.511 1.42153C318.392 1.53693 318.327 1.69621 318.33 1.86153V2.71896C318.33 2.77537 318.33 2.80922 318.229 2.80922H317.902C317.741 2.81152 317.587 2.87625 317.473 2.98973C317.354 3.10513 317.289 3.26442 317.292 3.42973V3.7005C317.289 3.86582 317.354 4.0251 317.473 4.1405C317.584 4.25833 317.74 4.32387 317.902 4.32102H319.188H319.244C319.249 4.33944 319.249 4.359 319.244 4.37743C318.863 5.28857 318.263 6.09101 317.495 6.71281C317.19 6.93953 317.041 7.32071 317.112 7.69435L317.225 8.24717C317.245 8.38659 317.34 8.50355 317.473 8.55179C317.586 8.62617 317.732 8.62617 317.845 8.55179L318.24 8.20204V10.6164C318.237 10.7817 318.302 10.941 318.421 11.0564C318.535 11.1778 318.694 11.2472 318.861 11.2482H319.233C319.399 11.2446 319.557 11.1757 319.673 11.0564C319.787 10.9382 319.852 10.7807 319.853 10.6164V7.64922L320.09 7.9764C320.177 8.10663 320.318 8.18986 320.474 8.20204C320.63 8.22792 320.789 8.17762 320.903 8.06666L321.049 7.93127C321.1 7.88357 321.145 7.83062 321.185 7.77332C321.273 8.01887 321.511 8.17871 321.771 8.1682H321.952C322.008 8.1682 322.042 8.1682 322.019 8.24717C321.842 8.95298 321.299 9.50896 320.598 9.70256C320.443 9.75553 320.317 9.86971 320.248 10.0185C320.181 10.1614 320.181 10.3268 320.248 10.4697L320.35 10.6954C320.404 10.8589 320.522 10.9933 320.677 11.0677C320.832 11.1348 321.007 11.1348 321.162 11.0677C322.455 10.6814 323.394 9.56429 323.554 8.22461C323.568 8.17347 323.614 8.13719 323.667 8.13435H323.768C323.825 8.13435 323.858 8.13435 323.858 8.21332V10.1651C323.858 10.56 323.926 10.8195 324.062 10.921C324.401 11.0599 324.769 11.1141 325.133 11.079H325.788H326.397C326.538 11.072 326.678 11.0493 326.814 11.0113C326.93 10.9845 327.035 10.9259 327.119 10.842C327.195 10.7525 327.252 10.649 327.288 10.5374C327.349 10.3775 327.391 10.2109 327.412 10.041C327.412 9.8605 327.412 9.6123 327.469 9.2964C327.48 9.12727 327.423 8.96059 327.311 8.83384C327.209 8.67083 327.039 8.56289 326.848 8.5405ZM325.235 6.66768C325.235 6.73537 325.235 6.75794 325.133 6.75794H322.877C322.821 6.75794 322.787 6.75794 322.787 6.66768V6.28409C322.787 6.22768 322.787 6.20512 322.877 6.20512H325.133C325.201 6.20512 325.235 6.20512 325.235 6.28409V6.66768ZM325.235 4.95281C325.235 5.00922 325.235 5.04307 325.133 5.04307H322.877C322.852 5.04698 322.827 5.03874 322.809 5.02089C322.791 5.00304 322.783 4.97774 322.787 4.95281V4.59179C322.787 4.52409 322.787 4.49025 322.877 4.49025H325.133C325.161 4.48647 325.189 4.49595 325.209 4.51587C325.229 4.53579 325.239 4.56387 325.235 4.59179V4.95281ZM325.235 3.23794C325.235 3.23794 325.235 3.3282 325.133 3.3282H322.877C322.852 3.33211 322.827 3.32386 322.809 3.30602C322.791 3.28817 322.783 3.26287 322.787 3.23794V2.85435C322.787 2.78666 322.787 2.75281 322.877 2.75281H325.133C325.161 2.74903 325.189 2.75851 325.209 2.77843C325.229 2.79835 325.239 2.82643 325.235 2.85435V3.23794ZM338.119 8.17948C338.06 8.02094 337.937 7.89423 337.781 7.82973C337.624 7.77284 337.452 7.77284 337.295 7.82973L336.641 8.1005C336.669 8.03562 336.669 7.96231 336.641 7.89743C336.634 7.8228 336.592 7.75585 336.528 7.71691C336.334 7.56202 336.13 7.41886 335.919 7.2882H337.803C337.968 7.29145 338.128 7.2261 338.243 7.10768C338.365 6.99344 338.434 6.83442 338.435 6.66768V4.26461C338.434 4.09787 338.365 3.93885 338.243 3.82461C338.129 3.70316 337.97 3.63384 337.803 3.63281H336.066C336.038 3.63659 336.01 3.62711 335.99 3.60719C335.97 3.58727 335.96 3.55919 335.964 3.53127V3.23794C335.964 3.23794 335.964 3.14768 336.066 3.14768H338.04C338.205 3.15094 338.365 3.08559 338.48 2.96717C338.598 2.85177 338.664 2.69249 338.661 2.52717V2.33537C338.664 2.17006 338.598 2.01077 338.48 1.89537C338.365 1.77696 338.205 1.71161 338.04 1.71486H336.054C335.987 1.71486 335.964 1.71486 335.964 1.62461C335.963 1.47555 335.902 1.33316 335.795 1.22973C335.693 1.12183 335.548 1.06411 335.4 1.07178H334.779C334.631 1.06561 334.488 1.12309 334.385 1.22973C334.277 1.33316 334.216 1.47555 334.215 1.62461C334.215 1.68102 334.215 1.71486 334.136 1.71486H332.444C332.263 1.70581 332.088 1.78076 331.97 1.91794C331.947 1.78414 331.869 1.66589 331.756 1.59076C331.647 1.50448 331.511 1.46041 331.372 1.46666H329.014C328.849 1.4634 328.69 1.52875 328.574 1.64717C328.451 1.7554 328.381 1.9119 328.383 2.07589V2.59486C328.384 2.67205 328.416 2.74545 328.473 2.79794C328.529 2.85628 328.606 2.88893 328.687 2.88819V8.52922C328.697 8.54667 328.697 8.56818 328.687 8.58563C328.578 8.60507 328.482 8.66569 328.416 8.75486C328.355 8.83992 328.323 8.94311 328.326 9.0482V9.46563C328.341 9.62672 328.423 9.77414 328.552 9.87179C328.684 9.97185 328.853 10.009 329.014 9.97332L330.278 9.71384C330.346 9.71384 330.368 9.71384 330.368 9.78153V10.5487C330.369 10.7154 330.439 10.8745 330.56 10.9887C330.674 11.1102 330.833 11.1795 331 11.1805C331.156 11.1807 331.306 11.1199 331.417 11.0113C331.539 10.9052 331.612 10.7547 331.621 10.5938C331.621 10.5374 331.621 10.5261 331.699 10.5938L331.857 10.7179C331.987 10.8145 332.154 10.8438 332.309 10.7969C332.46 10.7666 332.584 10.6596 332.636 10.5149C332.858 10.0251 333.031 9.51504 333.155 8.99179V9.52204C333.155 9.81538 333.155 10.041 333.155 10.1877C333.162 10.3418 333.192 10.494 333.245 10.639C333.284 10.7516 333.346 10.8551 333.426 10.9436C333.539 11.017 333.665 11.0668 333.798 11.0902C333.979 11.1339 334.164 11.1603 334.351 11.1692H335.186C335.712 11.2059 336.241 11.1408 336.743 10.9774C337.002 10.8533 337.16 10.5487 337.228 10.0523C337.236 10.1081 337.255 10.1617 337.284 10.2102C337.29 10.2627 337.29 10.3157 337.284 10.3682C337.334 10.5188 337.444 10.6417 337.589 10.7067C337.733 10.7681 337.896 10.7681 338.04 10.7067L338.198 10.639C338.353 10.5689 338.478 10.4445 338.548 10.2892C338.61 10.1335 338.61 9.95983 338.548 9.80409C338.514 9.20614 338.322 8.66461 338.119 8.17948ZM336.551 4.79486C336.551 4.72717 336.551 4.69332 336.63 4.69332H336.957C336.957 4.69332 337.047 4.69332 337.047 4.79486V5.92307C337.047 5.99076 337.047 6.02461 336.957 6.02461H336.63C336.573 6.02461 336.551 6.02461 336.551 5.92307V4.79486ZM330.379 8.17948C330.38 8.23763 330.336 8.28648 330.278 8.2923H330.143H329.996C329.939 8.2923 329.906 8.2923 329.906 8.21332V7.33332C329.906 7.26563 329.906 7.24307 329.996 7.24307H330.278C330.346 7.24307 330.379 7.24307 330.379 7.33332V8.17948ZM330.379 6.00204C330.383 6.02996 330.374 6.05804 330.354 6.07796C330.334 6.09788 330.306 6.10736 330.278 6.10358H329.996C329.939 6.10358 329.906 6.10358 329.906 6.00204V5.16717C329.902 5.14224 329.91 5.11694 329.928 5.09909C329.946 5.08124 329.971 5.073 329.996 5.07691H330.278C330.346 5.07691 330.379 5.07691 330.379 5.16717V6.00204ZM330.379 3.74563C330.379 3.81332 330.379 3.83589 330.278 3.83589H329.996C329.939 3.83589 329.906 3.83589 329.906 3.74563V2.93332C329.902 2.90839 329.91 2.88309 329.928 2.86524C329.946 2.8474 329.971 2.83916 329.996 2.84307H330.278C330.346 2.84307 330.379 2.84307 330.379 2.93332V3.74563ZM334.892 4.76102C334.892 4.69332 334.892 4.65948 334.983 4.65948H335.298C335.366 4.65948 335.389 4.65948 335.389 4.76102V5.88922C335.389 5.95691 335.389 5.99076 335.298 5.99076H334.983C334.926 5.99076 334.892 5.99076 334.892 5.88922V4.76102ZM334.644 7.27691L334.452 7.55896C334.419 7.61285 334.358 7.64335 334.294 7.63794H333.516C333.417 7.63427 333.321 7.67576 333.256 7.75076C333.183 7.82177 333.143 7.91964 333.144 8.02153C333.144 8.02153 333.144 8.02153 333.087 8.02153L332.579 7.8523C332.435 7.79085 332.272 7.79085 332.128 7.8523C331.985 7.92708 331.879 8.0577 331.835 8.21332C331.835 8.4164 331.711 8.64204 331.621 8.91281V2.80922C331.693 2.8107 331.762 2.78209 331.812 2.73025C331.812 2.73025 331.891 2.73025 331.914 2.73025C332.025 2.91447 332.229 3.02274 332.444 3.0123H334.125C334.15 3.00839 334.175 3.01663 334.193 3.03447C334.211 3.05232 334.219 3.07762 334.215 3.10255V3.39589C334.215 3.46358 334.215 3.49743 334.125 3.49743H332.523C332.356 3.49845 332.197 3.56777 332.083 3.68922C331.962 3.80346 331.892 3.96249 331.891 4.12922V6.5323C331.892 6.69903 331.962 6.85806 332.083 6.9723C332.198 7.09072 332.358 7.15606 332.523 7.15281H334.599C334.723 7.20922 334.734 7.23179 334.689 7.2882L334.644 7.27691ZM333.775 4.76102V5.88922C333.775 5.95691 333.775 5.99076 333.696 5.99076H333.369C333.313 5.99076 333.279 5.99076 333.279 5.88922V4.76102C333.279 4.69332 333.279 4.65948 333.369 4.65948H333.696C333.798 4.67076 333.821 4.70461 333.821 4.7723L333.775 4.76102ZM335.716 9.70256C335.648 9.78153 335.479 9.81538 335.197 9.81538C334.915 9.81538 334.813 9.81538 334.768 9.81538C334.705 9.68985 334.682 9.54833 334.701 9.40922V8.19076C334.69 8.17331 334.69 8.1518 334.701 8.13435C335.036 8.33712 335.356 8.56332 335.659 8.81127C335.706 8.8503 335.731 8.90884 335.727 8.96922C335.786 9.21295 335.798 9.46576 335.761 9.71384L335.716 9.70256ZM336.844 8.91281L336.235 8.78871C336.178 8.78871 336.167 8.78871 336.235 8.69845L336.585 8.22461C336.585 8.22461 336.641 8.22461 336.664 8.22461C336.788 8.49538 336.878 8.68717 336.934 8.83384C336.947 8.85972 336.941 8.89059 336.921 8.91088C336.901 8.93116 336.87 8.93646 336.844 8.92409V8.91281ZM347.867 9.28512C347.738 9.18693 347.575 9.14611 347.415 9.1723C347.183 9.18949 346.949 9.18949 346.716 9.1723C346.053 9.20757 345.402 8.98524 344.899 8.55179C344.432 8.11674 344.18 7.49746 344.211 6.85948C344.214 6.01249 344.636 5.22194 345.339 4.74973C346.345 4.07372 347.514 3.68374 348.724 3.62153C348.889 3.59979 349.041 3.51977 349.153 3.39589C349.266 3.27397 349.323 3.11045 349.311 2.94461V2.58358C349.309 2.42352 349.239 2.27178 349.119 2.16614C349.006 2.04551 348.844 1.98318 348.679 1.99691C346.069 2.10973 343.437 2.17367 340.782 2.18871C340.618 2.18728 340.461 2.25729 340.353 2.3805C340.23 2.48873 340.16 2.64523 340.161 2.80922V3.15896C340.158 3.32657 340.228 3.48724 340.353 3.59896C340.476 3.71174 340.637 3.77242 340.804 3.7682C342.09 3.7682 343.264 3.7682 344.335 3.7005C343.731 4.06611 343.221 4.56847 342.846 5.16717C342.506 5.70818 342.322 6.3331 342.316 6.9723C342.261 8.02425 342.699 9.04185 343.501 9.72512C344.385 10.4478 345.508 10.814 346.648 10.7518C346.98 10.7536 347.312 10.7347 347.641 10.6954C347.809 10.6768 347.962 10.5863 348.058 10.4472C348.16 10.3112 348.204 10.1414 348.183 9.97332V9.58973C348.121 9.45115 348.007 9.34197 347.867 9.28512Z" fill="#252525"/>
<path d="M347.867 5.35897C347.792 5.20637 347.657 5.09186 347.494 5.04307C347.339 4.98091 347.165 4.98091 347.009 5.04307C346.86 5.11306 346.749 5.24499 346.705 5.4041C346.637 5.55087 346.637 5.71988 346.705 5.86666C346.897 6.23897 347.021 6.45333 347.054 6.52102C347.131 6.66753 347.26 6.78015 347.415 6.83692C347.571 6.89907 347.745 6.89907 347.901 6.83692C348.046 6.76451 348.159 6.63953 348.217 6.48717C348.279 6.33544 348.279 6.16506 348.217 6.01333L347.867 5.35897ZM349.616 4.9641C349.543 4.81208 349.407 4.70036 349.243 4.65948C349.091 4.59801 348.921 4.59801 348.769 4.65948C348.618 4.72686 348.506 4.85989 348.465 5.02051C348.402 5.17224 348.402 5.34262 348.465 5.49435L348.657 5.83281L348.826 6.17127C348.904 6.32142 349.037 6.43491 349.198 6.48717C349.35 6.54985 349.52 6.54985 349.672 6.48717C349.821 6.41875 349.935 6.29234 349.988 6.13743C350.056 5.98681 350.056 5.8142 349.988 5.66358L349.616 4.9641ZM359.69 4.28717L357.897 4.35486C357.829 4.35486 357.784 4.35487 357.784 4.27589C357.784 4.19692 357.693 3.99384 357.637 3.7682C357.581 3.54256 357.637 3.66666 357.705 3.66666H358.585H359.442C359.606 3.65608 359.759 3.58344 359.871 3.46358C359.983 3.34588 360.041 3.18599 360.029 3.02358V2.85435C360.021 2.69019 359.948 2.536 359.826 2.42563C359.708 2.30583 359.541 2.24748 359.374 2.26769L357.468 2.34666C357.4 2.34666 357.366 2.34666 357.355 2.2564V1.92922C357.346 1.75971 357.268 1.60113 357.141 1.48922C357.023 1.37668 356.863 1.31929 356.701 1.33128H356.261C356.093 1.33653 355.934 1.40982 355.821 1.53435C355.711 1.64895 355.658 1.8056 355.674 1.96307C355.682 2.01545 355.682 2.06864 355.674 2.12102C355.674 2.18871 355.674 2.24512 355.674 2.27897C355.674 2.31281 355.674 2.36922 355.584 2.36922C354.23 2.36922 353.214 2.36922 352.549 2.36922C352.381 2.37036 352.22 2.43483 352.098 2.54974C351.977 2.66861 351.912 2.83206 351.917 3.00102V3.15897C351.914 3.32428 351.979 3.48357 352.098 3.59897C352.212 3.72042 352.371 3.78973 352.538 3.79076C353.508 3.79076 354.613 3.79076 355.843 3.79076C355.911 3.79076 355.945 3.79076 355.945 3.86974C355.945 3.94871 356.058 4.27589 356.08 4.37743C356.103 4.47897 356.08 4.46769 356.012 4.46769C354.23 4.46769 352.91 4.53538 352.03 4.53538C351.865 4.53594 351.707 4.60071 351.59 4.71589C351.476 4.8341 351.411 4.99155 351.409 5.15589V5.32512C351.404 5.48762 351.47 5.64444 351.59 5.75384C351.701 5.87167 351.857 5.9372 352.019 5.93435C354.016 5.93435 355.516 5.93435 356.531 5.86666C356.585 5.86625 356.633 5.89717 356.655 5.94563C356.768 6.22769 356.859 6.43076 356.926 6.56615C356.422 6.43078 355.903 6.3625 355.381 6.36307C354.517 6.30562 353.656 6.49751 352.899 6.91589C352.366 7.22061 352.041 7.79146 352.052 8.40512C352.052 9.99589 353.485 10.7856 356.362 10.7856C357.09 10.7825 357.818 10.7336 358.54 10.639C358.705 10.618 358.854 10.5329 358.957 10.402C359.059 10.2707 359.103 10.1041 359.081 9.93948V9.72512C359.06 9.56023 358.975 9.41025 358.844 9.30769C358.716 9.20788 358.554 9.16321 358.393 9.18358C357.73 9.26627 357.064 9.31523 356.396 9.33025C355.734 9.36464 355.07 9.28838 354.433 9.10461C354.114 9.01972 353.889 8.73503 353.88 8.40512C353.88 7.94256 354.388 7.70563 355.415 7.70563C355.972 7.71268 356.525 7.81179 357.05 7.99897C357.412 8.14815 357.817 8.14815 358.179 7.99897L358.788 7.71692C358.931 7.64687 359.037 7.51987 359.081 7.36717C359.128 7.21791 359.103 7.0556 359.013 6.92717C358.788 6.54358 358.607 6.20512 358.461 5.91179V5.83281H359.126H359.781C359.944 5.82223 360.098 5.74959 360.209 5.62974C360.32 5.50645 360.377 5.34394 360.367 5.17846V5.02051C360.369 4.85398 360.294 4.69587 360.164 4.59179C360.063 4.42156 359.887 4.30878 359.69 4.28717ZM367.678 4.99794C367.33 4.99594 366.983 5.02616 366.64 5.0882L369.37 3.6441C369.716 3.4754 369.926 3.11427 369.901 2.73025V2.48204C369.904 2.31673 369.839 2.15744 369.72 2.04204C369.605 1.92363 369.445 1.85828 369.28 1.86153H363.357C363.195 1.85572 363.038 1.92175 362.928 2.04204C362.807 2.15629 362.738 2.31531 362.737 2.48204V2.68512C362.738 2.85185 362.807 3.01088 362.928 3.12512C363.037 3.24833 363.193 3.31834 363.357 3.31692H366.742L362.567 5.7764C362.42 5.85734 362.313 5.99658 362.274 6.15999C362.205 6.31444 362.205 6.49068 362.274 6.64512V6.74666C362.344 6.8986 362.475 7.01352 362.635 7.06256C362.79 7.12972 362.965 7.12972 363.12 7.06256C363.715 6.80179 364.335 6.60146 364.97 6.46461C365.591 6.34209 366.222 6.28162 366.854 6.2841C368.231 6.2841 368.93 6.74666 368.93 7.64922C368.963 8.24467 368.646 8.80466 368.118 9.08204C368.127 8.96186 368.127 8.8412 368.118 8.72102C368.148 8.24255 367.936 7.78101 367.554 7.49128C367 7.17367 366.363 7.02834 365.726 7.07384C365.038 7.04417 364.357 7.22522 363.774 7.59281C363.338 7.87065 363.07 8.35003 363.064 8.86769C363.064 10.2102 364.192 10.8759 366.381 10.8759C367.536 10.9458 368.684 10.6411 369.652 10.0072C370.409 9.43225 370.832 8.5194 370.781 7.57025C370.813 6.86384 370.512 6.18311 369.968 5.73128C369.313 5.22812 368.504 4.96882 367.678 4.99794ZM366.55 9.35281C366.53 9.40346 366.48 9.43546 366.426 9.43179C365.298 9.43179 364.722 9.21743 364.722 8.79999C364.725 8.63831 364.816 8.49102 364.959 8.4164C365.18 8.30828 365.424 8.25782 365.67 8.26974C365.948 8.24729 366.227 8.2938 366.482 8.40512C366.624 8.50028 366.706 8.66315 366.697 8.83384C366.674 9.01455 366.62 9.19006 366.539 9.35281H366.55ZM375.688 1.71481H374.56C374.384 1.71243 374.215 1.7865 374.098 1.91794C373.967 2.04388 373.9 2.22235 373.917 2.40307L374.154 7.06256C374.164 7.2472 374.245 7.42084 374.38 7.54769C374.506 7.68024 374.682 7.75389 374.865 7.75076H375.35C375.536 7.75431 375.716 7.68084 375.846 7.54769C375.985 7.42382 376.067 7.24839 376.072 7.06256L376.298 2.40307C376.324 2.22338 376.261 2.04202 376.128 1.91794C376.013 1.79643 375.856 1.72375 375.688 1.71481ZM375.508 8.70974H374.774C374.595 8.70974 374.424 8.78313 374.301 8.91281C374.167 9.03939 374.09 9.21409 374.086 9.39794V9.83794C374.091 10.0184 374.168 10.1894 374.301 10.3118C374.42 10.4492 374.593 10.5275 374.774 10.5262H375.508C375.69 10.5275 375.863 10.4492 375.982 10.3118C376.114 10.1894 376.192 10.0184 376.196 9.83794V9.39794C376.192 9.21409 376.115 9.03939 375.982 8.91281C375.858 8.78313 375.687 8.70974 375.508 8.70974ZM387.286 2.1323C387.235 2.01732 387.119 1.9456 386.993 1.95179H386.158C385.765 1.93823 385.393 2.13063 385.177 2.45948L379.863 9.89435C379.789 9.99108 379.789 10.1248 379.863 10.2215C379.91 10.3347 380.022 10.4067 380.145 10.402H380.98C381.377 10.4196 381.754 10.2267 381.972 9.89435L387.275 2.45948C387.352 2.3653 387.356 2.23154 387.286 2.1323Z" fill="#252525"/>
</g>
<defs>
<clipPath id="clip0">
<rect width="42.7143" height="46" fill="white"/>
</clipPath>
<clipPath id="clip1">
<rect width="329.436" height="25.9487" fill="white" transform="translate(57.1282 18.0513)"/>
</clipPath>
<clipPath id="clip2">
<rect width="331.692" height="11.2821" fill="white" transform="translate(56)"/>
</clipPath>
</defs>
</svg>
