<svg width="608" height="79" viewBox="0 0 608 79" fill="none" xmlns="http://www.w3.org/2000/svg">
<path fill-rule="evenodd" clip-rule="evenodd" d="M41.3357 5.33659L49.5647 16.8626C49.6897 17.0216 49.7027 17.1906 49.6067 17.3726C49.5097 17.5536 49.3597 17.6446 49.1557 17.6446H47.8637C47.2187 17.6446 46.7077 17.3836 46.3337 16.8626L38.1067 5.33659C37.9817 5.17759 37.9667 5.00759 38.0637 4.82659C38.1597 4.64559 38.3107 4.55459 38.5137 4.55459H39.8067C40.4517 4.55459 40.9627 4.81559 41.3357 5.33659ZM65.0174 6.10129C65.2324 6.31729 65.4934 6.42429 65.7984 6.42429C66.1054 6.42429 66.3654 6.31729 66.5804 6.10129C66.7964 5.88629 66.9044 5.62529 66.9044 5.31929C66.9044 5.01329 66.7964 4.75229 66.5804 4.53729C66.3654 4.32229 66.1054 4.21429 65.7984 4.21429C65.4934 4.21429 65.2324 4.32229 65.0174 4.53729C64.8014 4.75229 64.6934 5.01329 64.6934 5.31929C64.6934 5.62529 64.8014 5.88629 65.0174 6.10129ZM65.7984 2.76929C66.5014 2.76929 67.1014 3.01829 67.6014 3.51729C68.0994 4.01629 68.3494 4.61729 68.3494 5.31929C68.3494 5.99929 68.1194 6.58329 67.6604 7.07029C67.2014 7.55829 66.6374 7.82429 65.9684 7.86929C65.8784 7.86929 65.8324 7.92029 65.8324 8.02229C65.8324 8.03429 65.8294 8.05629 65.8244 8.09029C65.8184 8.12429 65.8164 8.15329 65.8164 8.17529C65.4644 11.1673 64.4474 13.4563 62.7644 15.0433C61.0814 16.6303 58.6694 17.6223 55.5314 18.0183C55.2594 18.0523 55.0154 17.9873 54.7994 17.8233C54.5834 17.6583 54.4494 17.4463 54.3924 17.1853L54.2734 16.5393C54.2274 16.2903 54.2814 16.0603 54.4344 15.8513C54.5874 15.6413 54.7944 15.5193 55.0544 15.4853C57.5814 15.1573 59.4664 14.3973 60.7064 13.2073C61.9494 12.0173 62.6994 10.2323 62.9594 7.85229C62.9824 7.75029 62.9434 7.69929 62.8404 7.69929H53.9334C53.6714 7.69929 53.4454 7.60329 53.2524 7.41029C53.0604 7.21829 52.9634 6.99129 52.9634 6.73029V6.05029C52.9634 5.78929 53.0604 5.56629 53.2524 5.37929C53.4454 5.19229 53.6714 5.09829 53.9334 5.09829H62.9594H63.1134C63.2034 5.09829 63.2594 5.05329 63.2834 4.96229C63.3724 4.33929 63.6544 3.81829 64.1244 3.39829C64.5944 2.97929 65.1524 2.76929 65.7984 2.76929ZM71.9021 17.9846C71.6311 17.9956 71.4001 17.9046 71.2141 17.7126C71.0271 17.5196 70.9331 17.2876 70.9331 17.0156V5.20059C70.9331 4.93959 71.0271 4.71559 71.2141 4.52859C71.4001 4.34159 71.6251 4.24859 71.8841 4.24859H72.9221C73.1821 4.24859 73.4091 4.34159 73.6011 4.52859C73.7951 4.71559 73.8901 4.93959 73.8901 5.20059V15.0946C73.8901 15.1286 73.9051 15.1626 73.9331 15.1966C73.9621 15.2306 73.9931 15.2416 74.0271 15.2306C75.8401 14.9926 77.2991 14.4316 78.4041 13.5476C79.5091 12.6636 80.4241 11.3376 81.1501 9.56959C81.2521 9.32059 81.4201 9.14759 81.6521 9.05059C81.8831 8.95459 82.1251 8.95159 82.3741 9.04259L83.1221 9.33159C83.3711 9.43359 83.5491 9.60659 83.6581 9.84959C83.7651 10.0936 83.7671 10.3396 83.6661 10.5896C82.5901 13.1846 81.1321 15.0516 79.2971 16.1916C77.4611 17.3296 74.9961 17.9276 71.9021 17.9846ZM96.449 9.92649C96.711 9.97149 96.92 10.1055 97.078 10.3255C97.237 10.5475 97.3 10.7875 97.265 11.0485L97.164 11.8305C97.13 12.0915 97.008 12.3015 96.799 12.4595C96.588 12.6185 96.353 12.6755 96.093 12.6295C93.384 12.1875 90.726 11.8925 88.119 11.7455C87.859 11.7345 87.64 11.6265 87.465 11.4225C87.289 11.2185 87.213 10.9865 87.236 10.7255L87.303 9.96049C87.326 9.68849 87.439 9.46449 87.644 9.28849C87.847 9.11349 88.086 9.03149 88.357 9.04249C90.953 9.18949 93.65 9.48449 96.449 9.92649ZM98.32 6.98549C98.297 7.24649 98.178 7.45849 97.963 7.62249C97.748 7.78749 97.51 7.85249 97.249 7.81849C93.758 7.38749 90.455 7.10449 87.338 6.96849C87.077 6.95749 86.855 6.85249 86.675 6.65449C86.494 6.45549 86.408 6.22649 86.42 5.96549L86.47 5.25149C86.494 4.99049 86.601 4.76949 86.794 4.58849C86.986 4.40749 87.213 4.32249 87.473 4.33349C90.805 4.48049 94.172 4.76949 97.572 5.20049C97.832 5.23449 98.042 5.35649 98.201 5.56649C98.359 5.77549 98.428 6.01049 98.404 6.27149L98.32 6.98549ZM86.624 16.7435C86.363 16.7325 86.142 16.6275 85.961 16.4285C85.779 16.2305 85.7 16.0015 85.722 15.7405L85.757 14.9585C85.767 14.6865 85.873 14.4625 86.071 14.2865C86.269 14.1115 86.505 14.0295 86.777 14.0405C90.619 14.2215 94.404 14.6075 98.133 15.1965C98.393 15.2415 98.605 15.3725 98.77 15.5875C98.934 15.8025 99.006 16.0465 98.982 16.3185L98.898 17.1005C98.875 17.3615 98.756 17.5705 98.541 17.7295C98.325 17.8875 98.088 17.9445 97.826 17.8995C94.064 17.3105 90.33 16.9255 86.624 16.7435ZM107.075 8.37959H107.908C108.169 8.37959 108.395 8.47559 108.588 8.66859C108.781 8.86059 108.871 9.08759 108.86 9.34859C108.814 11.6836 108.513 13.4516 107.959 14.6526C107.404 15.8536 106.446 16.8566 105.086 17.6616C104.847 17.7976 104.596 17.8316 104.33 17.7636C104.063 17.6956 103.85 17.5476 103.692 17.3216L103.284 16.7266C103.148 16.5116 103.111 16.2786 103.174 16.0296C103.236 15.7806 103.381 15.5876 103.607 15.4516C104.525 14.8846 105.16 14.1686 105.512 13.3006C105.862 12.4336 106.06 11.1166 106.105 9.34859C106.117 9.08759 106.217 8.86059 106.404 8.66859C106.591 8.47559 106.814 8.37959 107.075 8.37959ZM102.961 7.15559C102.7 7.15559 102.473 7.05959 102.281 6.86659C102.088 6.67359 101.992 6.44759 101.992 6.18659V5.71059C101.992 5.44959 102.088 5.22559 102.281 5.03859C102.473 4.85159 102.7 4.75859 102.961 4.75859H114.963C115.223 4.75859 115.45 4.85159 115.642 5.03859C115.836 5.22559 115.931 5.44959 115.931 5.71059V6.18659C115.931 6.90059 115.818 7.52359 115.592 8.05659C114.867 9.71159 113.75 11.0996 112.243 12.2216C112.015 12.3796 111.767 12.4366 111.495 12.3916C111.222 12.3466 111.002 12.2156 110.832 12.0006L110.373 11.4396C110.215 11.2466 110.152 11.0236 110.185 10.7676C110.221 10.5126 110.34 10.3066 110.543 10.1476C111.711 9.26359 112.504 8.31159 112.924 7.29159C112.969 7.20059 112.939 7.15559 112.838 7.15559H102.961ZM117.564 17.4406C117.302 17.4516 117.076 17.3636 116.883 17.1766C116.691 16.9896 116.589 16.7666 116.578 16.5056L116.56 15.9786C116.548 15.7066 116.637 15.4746 116.824 15.2816C117.011 15.0886 117.24 14.9816 117.513 14.9586C117.569 14.9476 117.657 14.9416 117.776 14.9416H118.04C118.13 14.9416 118.199 14.8846 118.244 14.7716C119.332 11.7906 120.318 8.53859 121.202 5.01359C121.269 4.75259 121.419 4.54559 121.652 4.39259C121.884 4.23959 122.13 4.18659 122.392 4.23159L123.31 4.40159C123.57 4.44659 123.771 4.57959 123.914 4.80059C124.054 5.02259 124.097 5.25759 124.041 5.50659C123.315 8.50959 122.414 11.5306 121.337 14.5676C121.314 14.6466 121.343 14.6866 121.422 14.6866C123.553 14.4936 125.497 14.2786 127.253 14.0406C127.355 14.0176 127.384 13.9616 127.338 13.8706C127.123 13.3716 126.714 12.4766 126.115 11.1846C126.002 10.9466 125.993 10.7026 126.089 10.4536C126.185 10.2046 126.353 10.0286 126.59 9.92659L127.355 9.58659C127.605 9.47359 127.851 9.46459 128.095 9.56059C128.338 9.65759 128.517 9.82459 128.63 10.0626C129.56 12.0346 130.466 14.0296 131.351 16.0466C131.453 16.2956 131.455 16.5426 131.359 16.7856C131.263 17.0296 131.089 17.1966 130.84 17.2876L130.025 17.6106C129.775 17.7126 129.525 17.7126 129.277 17.6106C129.027 17.5086 128.851 17.3326 128.75 17.0836C128.726 17.0156 128.687 16.9196 128.63 16.7946C128.574 16.6696 128.535 16.5796 128.511 16.5226C128.466 16.4316 128.404 16.3926 128.325 16.4036C124.595 16.9366 121.009 17.2816 117.564 17.4406ZM145.291 13.4455C145.303 13.4345 145.309 13.4235 145.309 13.4115C145.309 13.4005 145.297 13.3945 145.273 13.3945H140.684C140.604 13.3945 140.543 13.4345 140.497 13.5135C140.18 14.2385 139.795 15.0265 139.342 15.8765C139.33 15.8995 139.336 15.9245 139.357 15.9525C139.381 15.9815 139.409 15.9955 139.443 15.9955C140.803 15.9045 142.367 15.7745 144.135 15.6045C144.169 15.6045 144.197 15.5875 144.221 15.5535C144.242 15.5195 144.248 15.4855 144.237 15.4515C144.215 15.3835 144.169 15.2925 144.102 15.1795C144.033 15.0665 143.988 14.9755 143.965 14.9075C143.852 14.6805 143.846 14.4455 143.948 14.2015C144.051 13.9585 144.226 13.7975 144.475 13.7175L145.291 13.4455ZM137.539 7.83549C137.494 7.88149 137.505 7.90349 137.573 7.90349H143.896C143.977 7.90349 143.993 7.88149 143.948 7.83549C142.849 7.04249 141.812 6.15849 140.837 5.18349C140.77 5.11549 140.701 5.11049 140.633 5.16649C139.59 6.20949 138.559 7.09849 137.539 7.83549ZM146.107 13.3945C146.073 13.3945 146.048 13.4085 146.031 13.4365C146.014 13.4655 146.011 13.4905 146.021 13.5135C146.498 14.4655 147.121 15.7805 147.893 17.4575C148.006 17.6955 148.012 17.9305 147.909 18.1625C147.807 18.3955 147.631 18.5565 147.383 18.6475L146.805 18.8345C146.555 18.9135 146.305 18.8995 146.057 18.7915C145.807 18.6845 145.625 18.5055 145.512 18.2565L145.309 17.7975C145.263 17.6955 145.189 17.6555 145.087 17.6785C141.393 18.0865 138.01 18.3465 134.937 18.4605C134.666 18.4715 134.428 18.3865 134.225 18.2055C134.02 18.0245 133.912 17.7975 133.9 17.5255L133.885 17.2535C133.861 16.9925 133.937 16.7635 134.113 16.5655C134.289 16.3665 134.508 16.2615 134.768 16.2505C134.915 16.2395 135.134 16.2275 135.423 16.2165C135.711 16.2055 135.93 16.1945 136.077 16.1825C136.18 16.1825 136.253 16.1425 136.299 16.0635C136.797 15.1685 137.227 14.3235 137.59 13.5305C137.635 13.4395 137.613 13.3945 137.521 13.3945H134.309C134.049 13.3945 133.822 13.2985 133.629 13.1055C133.436 12.9125 133.34 12.6865 133.34 12.4255V12.1535C133.34 11.8925 133.436 11.6665 133.629 11.4735C133.822 11.2805 134.049 11.1845 134.309 11.1845H147.161C147.422 11.1845 147.648 11.2805 147.842 11.4735C148.033 11.6665 148.13 11.8925 148.13 12.1535V12.4255C148.13 12.6865 148.033 12.9125 147.842 13.1055C147.648 13.2985 147.422 13.3945 147.161 13.3945H146.107ZM133.051 9.38249L132.848 8.94049C132.734 8.69149 132.723 8.43649 132.812 8.17549C132.904 7.91449 133.068 7.72249 133.307 7.59749C135.176 6.57749 136.848 5.38749 138.321 4.02749C138.785 3.59649 139.336 3.38149 139.971 3.38149H141.5C142.135 3.38149 142.689 3.60249 143.166 4.04449C144.639 5.40449 146.311 6.59449 148.182 7.61449C148.419 7.73949 148.58 7.92849 148.666 8.18349C148.75 8.43949 148.736 8.69149 148.623 8.94049L148.419 9.38249C148.306 9.62049 148.127 9.78149 147.884 9.86649C147.64 9.95149 147.404 9.93749 147.178 9.82449C146.589 9.51849 146.073 9.22949 145.631 8.95749C145.562 8.91249 145.529 8.94049 145.529 9.04249V9.09349C145.529 9.35449 145.433 9.57749 145.24 9.76449C145.047 9.95149 144.82 10.0455 144.561 10.0455H136.91C136.649 10.0455 136.423 9.95149 136.23 9.76449C136.037 9.57749 135.941 9.35449 135.941 9.09349V9.04249C135.941 9.00849 135.927 8.98349 135.898 8.96649C135.87 8.94849 135.845 8.95149 135.822 8.97449C135.437 9.21249 134.927 9.49549 134.292 9.82449C134.065 9.93749 133.83 9.95149 133.586 9.86649C133.343 9.78149 133.164 9.62049 133.051 9.38249ZM161.593 5.99919V5.60819C161.593 5.50619 161.542 5.45519 161.441 5.45519H154.742C154.64 5.45519 154.589 5.50619 154.589 5.60819V5.99919C154.589 6.09019 154.64 6.13519 154.742 6.13519H161.441C161.542 6.13519 161.593 6.09019 161.593 5.99919ZM153.978 13.9552V14.3122C153.978 14.4142 154.029 14.4652 154.13 14.4652H162.052C162.154 14.4652 162.205 14.4142 162.205 14.3122V13.9552C162.205 13.8532 162.154 13.8022 162.052 13.8022H154.13C154.029 13.8022 153.978 13.8532 153.978 13.9552ZM153.978 11.8982V12.2552C153.978 12.3572 154.029 12.4082 154.13 12.4082H162.052C162.154 12.4082 162.205 12.3572 162.205 12.2552V11.8982C162.205 11.7962 162.154 11.7452 162.052 11.7452H154.13C154.029 11.7452 153.978 11.7962 153.978 11.8982ZM153.978 9.85819V10.1982C153.978 10.3002 154.029 10.3512 154.13 10.3512H162.052C162.154 10.3512 162.205 10.3002 162.205 10.1982V9.85819C162.205 9.75619 162.154 9.70519 162.052 9.70519H154.13C154.029 9.70519 153.978 9.75619 153.978 9.85819ZM163.277 3.56819C163.536 3.56819 163.763 3.66219 163.956 3.84919C164.149 4.03619 164.245 4.26019 164.245 4.52019V6.57719C164.245 6.83819 164.149 7.06419 163.956 7.25719C163.763 7.45019 163.536 7.54619 163.277 7.54619H154.589H152.905C152.646 7.54619 152.419 7.45019 152.226 7.25719C152.033 7.06419 151.937 6.83819 151.937 6.57719V4.52019C151.937 4.26019 152.033 4.03619 152.226 3.84919C152.419 3.66219 152.646 3.56819 152.905 3.56819H163.277ZM150.662 18.1882L150.543 17.9502C150.43 17.7352 150.424 17.5142 150.527 17.2872C150.628 17.0612 150.798 16.9192 151.036 16.8622C151.739 16.6812 152.595 16.4152 153.603 16.0632C153.614 16.0412 153.614 16.0232 153.603 16.0122H152.226C151.966 16.0122 151.739 15.9162 151.546 15.7232C151.353 15.5312 151.257 15.3042 151.257 15.0432V8.97419C151.257 8.71419 151.353 8.48719 151.546 8.29419C151.739 8.10219 151.966 8.00519 152.226 8.00519H163.956C164.217 8.00519 164.444 8.10219 164.636 8.29419C164.829 8.48719 164.925 8.71419 164.925 8.97419V15.0432C164.925 15.3042 164.829 15.5312 164.636 15.7232C164.444 15.9162 164.217 16.0122 163.956 16.0122H162.902C162.891 16.0232 162.885 16.0352 162.885 16.0462C163.837 16.3522 164.608 16.6302 165.197 16.8792C165.435 16.9702 165.591 17.1372 165.665 17.3812C165.739 17.6242 165.707 17.8542 165.572 18.0692L165.384 18.3412C165.226 18.5682 165.021 18.7212 164.773 18.8002C164.523 18.8792 164.268 18.8622 164.007 18.7492C162.885 18.2622 161.632 17.7862 160.25 17.3212C160.001 17.2422 159.827 17.0832 159.732 16.8452C159.636 16.6072 159.644 16.3752 159.757 16.1482C159.781 16.1252 159.782 16.0972 159.766 16.0632C159.749 16.0292 159.724 16.0122 159.689 16.0122H156.527C156.437 16.0122 156.408 16.0582 156.443 16.1482C156.544 16.3642 156.556 16.5842 156.476 16.8112C156.397 17.0382 156.249 17.2082 156.034 17.3212C154.833 17.9102 153.501 18.4032 152.039 18.8002C151.767 18.8792 151.501 18.8602 151.239 18.7412C150.98 18.6222 150.786 18.4372 150.662 18.1882ZM175.959 16.1144C176.525 16.1144 176.916 15.9894 177.132 15.7404C177.348 15.4914 177.455 15.0094 177.455 14.2954C177.455 14.1824 177.409 14.1084 177.318 14.0744C176.843 13.8364 176.389 13.7174 175.959 13.7174C175.426 13.7174 175.023 13.8224 174.752 14.0314C174.48 14.2414 174.344 14.5284 174.344 14.8904C174.344 15.2644 174.485 15.5614 174.77 15.7824C175.052 16.0044 175.449 16.1144 175.959 16.1144ZM180.209 8.00539C180.118 8.00539 180.072 8.05139 180.072 8.14139V12.9184C180.072 13.0094 180.112 13.0824 180.191 13.1394C180.928 13.6494 181.682 14.2564 182.453 14.9584C182.646 15.1394 182.748 15.3644 182.759 15.6304C182.77 15.8964 182.686 16.1254 182.504 16.3184L182.197 16.6584C182.017 16.8514 181.79 16.9554 181.518 16.9724C181.246 16.9894 181.008 16.9074 180.804 16.7264C180.521 16.4664 180.248 16.2274 179.988 16.0124C179.965 15.9894 179.934 15.9844 179.895 15.9954C179.855 16.0074 179.829 16.0294 179.818 16.0634C179.318 17.5484 178.033 18.2904 175.959 18.2904C174.633 18.2904 173.599 17.9844 172.856 17.3724C172.113 16.7604 171.742 15.9334 171.742 14.8904C171.742 13.8594 172.108 13.0404 172.84 12.4334C173.57 11.8274 174.609 11.5244 175.959 11.5244C176.435 11.5244 176.889 11.5864 177.318 11.7114C177.409 11.7344 177.455 11.7004 177.455 11.6094V6.56039C177.455 6.30039 177.554 6.07339 177.752 5.88039C177.951 5.68739 178.18 5.59739 178.441 5.60839C179.835 5.64239 181.042 5.71639 182.063 5.82939C182.322 5.85239 182.535 5.97139 182.699 6.18639C182.863 6.40239 182.929 6.63939 182.895 6.90039L182.844 7.30839C182.81 7.56939 182.688 7.77939 182.479 7.93739C182.269 8.09639 182.033 8.15839 181.773 8.12439C181.319 8.06839 180.798 8.02839 180.209 8.00539ZM168.496 15.8934C168.246 15.8024 168.068 15.6414 167.961 15.4084C167.853 15.1774 167.844 14.9354 167.935 14.6864C168.705 12.6354 169.431 10.4254 170.111 8.05639C170.133 7.96639 170.1 7.92039 170.009 7.92039H168.955C168.693 7.92039 168.467 7.82639 168.275 7.63939C168.082 7.45239 167.986 7.22939 167.986 6.96839V6.56039C167.986 6.30039 168.082 6.07539 168.275 5.88839C168.467 5.70139 168.693 5.60839 168.955 5.60839H170.638C170.729 5.60839 170.785 5.56339 170.808 5.47239C170.943 4.92839 171.046 4.51439 171.113 4.23139C171.17 3.97039 171.313 3.76139 171.539 3.60239C171.766 3.44439 172.015 3.38139 172.287 3.41539L172.83 3.48339C173.092 3.51739 173.295 3.63939 173.443 3.84839C173.59 4.05839 173.635 4.28839 173.578 4.53739C173.557 4.63939 173.521 4.79539 173.477 5.00539C173.432 5.21439 173.397 5.37039 173.375 5.47239C173.352 5.56339 173.392 5.60839 173.494 5.60839H175.041C175.301 5.60839 175.527 5.70139 175.721 5.88839C175.914 6.07539 176.01 6.30039 176.01 6.56039V6.96839C176.01 7.22939 175.914 7.45239 175.721 7.63939C175.527 7.82639 175.301 7.92039 175.041 7.92039H172.898C172.809 7.92039 172.752 7.97139 172.729 8.07339C172.071 10.5214 171.267 12.9974 170.314 15.5024C170.225 15.7514 170.057 15.9334 169.813 16.0464C169.569 16.1594 169.317 16.1714 169.057 16.0804L168.496 15.8934ZM188.777 4.31659C191.043 4.55459 193.179 4.69059 195.185 4.72459C195.458 4.73559 195.687 4.83259 195.875 5.01359C196.061 5.19459 196.155 5.42159 196.155 5.69359V6.08459C196.155 6.34559 196.061 6.56859 195.875 6.75559C195.687 6.94259 195.464 7.03659 195.203 7.03659C192.89 7.00259 190.652 6.87259 188.488 6.64559C188.226 6.62259 188.011 6.50359 187.841 6.28859C187.672 6.07359 187.603 5.83559 187.638 5.57459L187.689 5.16659C187.722 4.90559 187.847 4.69359 188.062 4.52859C188.278 4.36459 188.515 4.29359 188.777 4.31659ZM186.244 13.1056C185.983 13.0486 185.779 12.9076 185.632 12.6806C185.484 12.4536 185.433 12.2106 185.478 11.9496C185.683 10.8166 185.864 9.68859 186.023 8.56659C186.068 8.29459 186.193 8.07359 186.396 7.90359C186.601 7.73359 186.84 7.65959 187.111 7.68259L187.876 7.75059C188.136 7.77359 188.349 7.88659 188.513 8.09059C188.677 8.29459 188.743 8.52659 188.709 8.78759C188.618 9.49059 188.527 10.1306 188.437 10.7086V10.7256H188.47C190.069 9.69359 191.656 9.17859 193.23 9.17859C194.976 9.17859 196.252 9.51259 197.056 10.1816C197.861 10.8506 198.263 11.8926 198.263 13.3096C198.263 14.8166 197.619 16.0016 196.334 16.8626C195.047 17.7236 193.203 18.1546 190.8 18.1546C189.746 18.1546 188.685 18.1036 187.621 18.0016C187.36 17.9786 187.144 17.8626 186.974 17.6526C186.804 17.4426 186.731 17.2086 186.754 16.9476L186.788 16.5396C186.81 16.2786 186.926 16.0636 187.136 15.8936C187.345 15.7236 187.581 15.6496 187.841 15.6726C189.032 15.7746 190.017 15.8256 190.8 15.8256C192.182 15.8256 193.254 15.5986 194.013 15.1456C194.772 14.6916 195.152 14.0806 195.152 13.3096C195.152 12.0966 194.375 11.4906 192.823 11.4906C191.723 11.4906 190.312 11.9726 188.59 12.9356C188.011 13.2646 187.423 13.3606 186.822 13.2246L186.244 13.1056Z" fill="#252525"/>
<path fill-rule="evenodd" clip-rule="evenodd" d="M205.156 1.71939H215.572C215.894 1.71939 216.174 1.83839 216.412 2.07639C216.65 2.31439 216.769 2.59439 216.769 2.91639V3.98739C216.769 4.30939 216.65 4.58939 216.412 4.82739C216.174 5.06539 215.894 5.18439 215.572 5.18439H205.156C204.834 5.18439 204.554 5.06539 204.316 4.82739C204.078 4.58939 203.959 4.30939 203.959 3.98739V2.91639C203.959 2.59439 204.078 2.31439 204.316 2.07639C204.554 1.83839 204.834 1.71939 205.156 1.71939ZM217.799 16.2934C217.868 16.6154 217.812 16.9204 217.631 17.2064C217.448 17.4934 217.196 17.6724 216.875 17.7424C214.438 18.2604 212.233 18.5194 210.26 18.5194C207.683 18.5194 205.674 18.0784 204.232 17.1964C202.79 16.3144 202.069 15.1454 202.069 13.6894C202.069 12.9474 202.265 12.2014 202.657 11.4524C203.049 10.7044 203.728 9.83239 204.694 8.83839C204.931 8.60039 205.222 8.47039 205.566 8.44939C205.908 8.42839 206.22 8.51639 206.5 8.71239L207.508 9.42639C207.76 9.60839 207.896 9.85339 207.918 10.1614C207.939 10.4694 207.844 10.7354 207.635 10.9594C206.654 11.9954 206.164 12.7654 206.164 13.2694C206.164 13.7734 206.504 14.1794 207.182 14.4874C207.861 14.7954 208.886 14.9494 210.26 14.9494C211.926 14.9494 213.885 14.6974 216.138 14.1934C216.461 14.1234 216.759 14.1764 217.031 14.3504C217.304 14.5264 217.469 14.7674 217.525 15.0754L217.799 16.2934ZM224.791 13.028C225.1 13.749 225.365 14.11 225.59 14.11C225.813 14.11 226.065 13.847 226.346 13.322C226.625 12.797 226.943 11.852 227.301 10.487C227.658 9.12199 227.997 7.43099 228.319 5.41499C228.334 5.37299 228.322 5.33499 228.288 5.29999C228.253 5.26499 228.215 5.25499 228.172 5.26799C226.955 5.67399 226.01 6.35399 225.338 7.30499C224.666 8.25699 224.33 9.40499 224.33 10.75C224.33 11.548 224.483 12.307 224.791 13.028ZM230.84 1.29899C233.317 1.29899 235.372 2.08699 237.003 3.66199C238.634 5.23699 239.449 7.24999 239.449 9.69899C239.449 11.996 238.914 13.879 237.843 15.348C236.771 16.819 235.312 17.749 233.465 18.141C233.143 18.211 232.842 18.148 232.562 17.952C232.281 17.756 232.106 17.49 232.037 17.154L231.742 15.894C231.672 15.587 231.725 15.299 231.9 15.033C232.074 14.768 232.316 14.579 232.625 14.466C234.654 13.78 235.67 12.192 235.67 9.69899C235.67 8.59299 235.383 7.63399 234.809 6.82199C234.234 6.00999 233.465 5.44399 232.498 5.12099C232.387 5.07899 232.316 5.12099 232.289 5.24699C231.91 7.79599 231.49 9.90899 231.028 11.59C230.566 13.269 230.049 14.565 229.475 15.474C228.9 16.384 228.312 17.015 227.711 17.364C227.108 17.714 226.401 17.889 225.59 17.889C224.344 17.889 223.191 17.193 222.135 15.8C221.078 14.407 220.549 12.723 220.549 10.75C220.549 7.94899 221.494 5.67399 223.385 3.92399C225.274 2.17399 227.76 1.29899 230.84 1.29899ZM256.554 4.43919C256.839 4.72619 257.187 4.86919 257.593 4.86919C257.999 4.86919 258.345 4.72619 258.632 4.43919C258.919 4.15219 259.062 3.80619 259.062 3.39919C259.062 2.99319 258.919 2.64719 258.632 2.36019C258.345 2.07319 257.999 1.92919 257.593 1.92919C257.187 1.92919 256.839 2.07319 256.554 2.36019C256.267 2.64719 256.122 2.99319 256.122 3.39919C256.122 3.80619 256.267 4.15219 256.554 4.43919ZM255.22 1.02619C255.878 0.368191 256.669 0.0391904 257.593 0.0391904C258.517 0.0391904 259.308 0.368191 259.966 1.02619C260.624 1.68519 260.952 2.47519 260.952 3.39919C260.952 4.32319 260.624 5.11419 259.966 5.77219C259.308 6.43119 258.517 6.75919 257.593 6.75919C256.669 6.75919 255.878 6.43119 255.22 5.77219C254.562 5.11419 254.234 4.32319 254.234 3.39919C254.234 2.47519 254.562 1.68519 255.22 1.02619ZM255.136 7.26319C257.222 9.54519 259.167 11.6182 260.974 13.4802C261.212 13.7172 261.331 14.0012 261.331 14.3302C261.331 14.6592 261.212 14.9422 260.974 15.1802L259.671 16.5032C259.433 16.7422 259.158 16.8602 258.843 16.8602C258.527 16.8602 258.251 16.7492 258.013 16.5242C256.431 14.8862 254.478 12.7722 252.154 10.1822C251.341 9.25819 250.781 8.64919 250.474 8.35619C250.165 8.06119 249.913 7.91419 249.718 7.91419C249.55 7.91419 249.335 8.08619 249.077 8.42919C248.818 8.77219 248.374 9.42619 247.743 10.3922C246.274 12.6052 245.448 13.8362 245.266 14.0882C245.083 14.3552 244.825 14.5192 244.489 14.5822C244.153 14.6452 243.851 14.5852 243.585 14.4032L242.2 13.5012C241.919 13.3182 241.751 13.0702 241.696 12.7552C241.64 12.4402 241.702 12.1432 241.884 11.8622L244.173 8.56519C245.728 6.31219 246.728 4.95319 247.177 4.49119C247.681 3.97419 248.247 3.68719 248.878 3.63019C249.074 3.61719 249.353 3.60919 249.718 3.60919C250.726 3.60919 251.474 3.77719 251.964 4.11319C252.454 4.44919 253.511 5.50019 255.136 7.26319ZM278.23 7.70429C278.52 7.70429 278.772 7.82329 278.986 8.06129C279.201 8.29929 279.307 8.57929 279.307 8.90129V10.4973C279.307 10.8193 279.201 11.1003 278.986 11.3373C278.772 11.5763 278.52 11.6943 278.23 11.6943H264.508C264.218 11.6943 263.967 11.5763 263.752 11.3373C263.539 11.1003 263.431 10.8193 263.431 10.4973V8.90129C263.431 8.57929 263.539 8.29929 263.752 8.06129C263.967 7.82329 264.218 7.70429 264.508 7.70429H278.23ZM300.623 0.60659C300.693 0.74659 300.795 0.94959 300.928 1.21559C301.06 1.48159 301.155 1.67059 301.211 1.78259C301.352 2.06259 301.372 2.34259 301.274 2.62259C301.176 2.90259 300.987 3.11259 300.707 3.25259C300.427 3.39259 300.144 3.41359 299.856 3.31559C299.569 3.21759 299.35 3.02859 299.195 2.74859C299.069 2.49659 298.866 2.11859 298.586 1.61459C298.446 1.33459 298.422 1.05059 298.513 0.76359C298.603 0.47759 298.789 0.26359 299.069 0.12359C299.35 -0.0164096 299.644 -0.0374096 299.951 0.0605904C300.259 0.15859 300.483 0.34059 300.623 0.60659ZM295.898 0.41759C296.178 0.27759 296.462 0.25659 296.749 0.35459C297.035 0.45259 297.256 0.64159 297.41 0.92159C297.48 1.04759 297.578 1.23259 297.704 1.47759C297.83 1.72259 297.928 1.90859 297.998 2.03459C298.138 2.31459 298.159 2.59859 298.061 2.88459C297.963 3.17159 297.774 3.37859 297.494 3.50459C297.228 3.63059 296.951 3.64459 296.665 3.54659C296.378 3.44859 296.164 3.26659 296.024 3.00059C295.954 2.87459 295.856 2.68959 295.73 2.44359C295.604 2.19959 295.506 2.01359 295.436 1.88759C295.296 1.62159 295.271 1.34459 295.363 1.05759C295.454 0.77159 295.632 0.55759 295.898 0.41759ZM285.545 1.06859C286.777 1.29259 288.38 1.60059 290.354 1.99259C290.676 2.06259 290.928 2.23359 291.11 2.50659C291.292 2.77959 291.349 3.07759 291.278 3.39959L291.047 4.55459C290.977 4.87659 290.802 5.12559 290.522 5.29959C290.242 5.47559 289.941 5.52759 289.619 5.45759C288.569 5.24759 286.974 4.94659 284.831 4.55459C284.523 4.49859 284.274 4.33759 284.086 4.07159C283.896 3.80559 283.837 3.51159 283.907 3.18959L284.139 2.03459C284.208 1.71259 284.38 1.45659 284.652 1.26759C284.926 1.07859 285.223 1.01259 285.545 1.06859ZM299.132 4.97459C299.454 5.03059 299.706 5.19159 299.889 5.45759C300.07 5.72359 300.126 6.01059 300.057 6.31859C299.146 10.1406 297.55 12.9826 295.269 14.8446C292.986 16.7066 289.654 17.8896 285.272 18.3936C284.936 18.4356 284.635 18.3546 284.369 18.1516C284.103 17.9486 283.942 17.6796 283.887 17.3436L283.635 15.9156C283.578 15.6076 283.648 15.3206 283.845 15.0546C284.04 14.7886 284.299 14.6416 284.621 14.6136C288.205 14.2076 290.861 13.3506 292.591 12.0416C294.319 10.7316 295.548 8.61459 296.276 5.68859C296.36 5.36659 296.539 5.11059 296.811 4.92159C297.085 4.73259 297.382 4.66659 297.704 4.72259L299.132 4.97459ZM288.485 10.3926C286.567 10.0006 284.999 9.69959 283.781 9.48959C283.459 9.43359 283.207 9.26859 283.025 8.99559C282.843 8.72259 282.787 8.43259 282.857 8.12459L283.088 7.07459C283.158 6.75259 283.333 6.50059 283.613 6.31859C283.894 6.13659 284.194 6.07359 284.517 6.12959C285.734 6.33959 287.302 6.64059 289.221 7.03259C289.542 7.10259 289.791 7.27759 289.966 7.55759C290.141 7.83759 290.193 8.13159 290.123 8.43959L289.893 9.48959C289.822 9.81159 289.65 10.0606 289.378 10.2346C289.104 10.4106 288.808 10.4626 288.485 10.3926ZM306.608 13.7106C306.886 14.3636 307.128 14.6896 307.33 14.6896C307.533 14.6896 307.76 14.4516 308.014 13.9766C308.267 13.5016 308.555 12.6466 308.879 11.4116C309.202 10.1766 309.508 8.64759 309.8 6.82359C309.812 6.78559 309.803 6.75059 309.771 6.71859C309.74 6.68759 309.705 6.67759 309.667 6.68959C308.565 7.05759 307.71 7.67159 307.102 8.53359C306.494 9.39459 306.19 10.4336 306.19 11.6486C306.19 12.3716 306.329 13.0586 306.608 13.7106ZM312.08 3.09959C314.322 3.09959 316.18 3.81159 317.657 5.23659C319.131 6.66159 319.87 8.48259 319.87 10.6996C319.87 12.7766 319.385 14.4806 318.417 15.8106C317.448 17.1406 316.127 17.9826 314.455 18.3366C314.164 18.4006 313.891 18.3436 313.638 18.1666C313.384 17.9886 313.226 17.7486 313.163 17.4436L312.897 16.3046C312.834 16.0256 312.88 15.7656 313.04 15.5246C313.198 15.2846 313.417 15.1136 313.695 15.0126C315.532 14.3916 316.45 12.9536 316.45 10.6996C316.45 9.69859 316.19 8.83159 315.671 8.09659C315.151 7.36159 314.455 6.84859 313.581 6.55759C313.479 6.51959 313.417 6.55759 313.391 6.67059C313.048 8.97659 312.669 10.8896 312.251 12.4096C311.833 13.9296 311.364 15.1006 310.845 15.9236C310.326 16.7476 309.794 17.3176 309.249 17.6346C308.704 17.9506 308.064 18.1086 307.33 18.1086C306.203 18.1086 305.161 17.4796 304.205 16.2186C303.248 14.9586 302.77 13.4356 302.77 11.6486C302.77 9.11559 303.625 7.05759 305.335 5.47459C307.045 3.89059 309.294 3.09959 312.08 3.09959ZM337.303 1.92939C337.624 1.92939 337.905 2.04839 338.143 2.28639C338.38 2.52439 338.499 2.80439 338.499 3.12639V16.2724C338.499 16.5954 338.38 16.8744 338.143 17.1124C337.905 17.3504 337.624 17.4694 337.303 17.4694H324.157C323.834 17.4694 323.555 17.3504 323.317 17.1124C323.078 16.8744 322.959 16.5954 322.959 16.2724V15.0964C322.959 14.7744 323.078 14.4944 323.317 14.2564C323.555 14.0184 323.834 13.8994 324.157 13.8994H334.321C334.447 13.8994 334.51 13.8434 334.51 13.7314V5.68839C334.51 5.56239 334.447 5.49939 334.321 5.49939H324.157C323.834 5.49939 323.555 5.38039 323.317 5.14239C323.078 4.90439 322.959 4.62439 322.959 4.30239V3.12639C322.959 2.80439 323.078 2.52439 323.317 2.28639C323.555 2.04839 323.834 1.92939 324.157 1.92939H337.303ZM358.913 3.77749C359.234 3.84749 359.486 4.02249 359.669 4.30249C359.85 4.58249 359.906 4.88349 359.837 5.20549C358.997 8.94349 357.358 11.8415 354.923 13.8995C352.486 15.9575 349.134 17.2455 344.863 17.7635C344.527 17.8055 344.23 17.7245 343.971 17.5225C343.712 17.3195 343.555 17.0495 343.499 16.7135L343.247 15.1805C343.19 14.8725 343.261 14.5855 343.457 14.3195C343.652 14.0535 343.911 13.8995 344.233 13.8575C347.636 13.3815 350.254 12.4015 352.088 10.9175C353.922 9.43349 355.23 7.23549 356.015 4.32349C356.099 4.00149 356.28 3.75649 356.56 3.58849C356.841 3.42049 357.135 3.37149 357.442 3.44149L358.913 3.77749ZM343.709 5.14249C343.415 5.00249 343.219 4.78249 343.121 4.48149C343.022 4.17949 343.051 3.88949 343.205 3.60949L343.961 2.13949C344.114 1.84549 344.352 1.64249 344.675 1.53049C344.996 1.41849 345.311 1.43249 345.62 1.57249C347.132 2.25849 348.623 2.97249 350.093 3.71449C350.387 3.85449 350.575 4.07849 350.659 4.38649C350.744 4.69449 350.709 4.98849 350.555 5.26849L349.735 6.78049C349.581 7.07449 349.344 7.27049 349.021 7.36849C348.699 7.46649 348.392 7.43849 348.098 7.28449C346.46 6.45849 344.996 5.74449 343.709 5.14249ZM366.157 1.29949H377.204C377.525 1.29949 377.805 1.41849 378.044 1.65649C378.281 1.89449 378.4 2.17449 378.4 2.49649V3.67249C378.4 3.99449 378.281 4.27449 378.044 4.51249C377.805 4.75049 377.525 4.86949 377.204 4.86949H366.157C365.835 4.86949 365.555 4.75049 365.317 4.51249C365.079 4.27449 364.961 3.99449 364.961 3.67249V2.49649C364.961 2.17449 365.079 1.89449 365.317 1.65649C365.555 1.41849 365.835 1.29949 366.157 1.29949ZM379.723 6.96949C380.046 6.96949 380.325 7.08849 380.563 7.32649C380.802 7.56449 380.921 7.84449 380.921 8.16649V9.34249C380.921 9.66449 380.802 9.94449 380.563 10.1825C380.325 10.4205 380.046 10.5395 379.723 10.5395H374.599C374.473 10.5395 374.411 10.6025 374.411 10.7285C374.341 14.8585 372.065 17.4485 367.586 18.4985C367.263 18.5685 366.959 18.5155 366.672 18.3415C366.385 18.1655 366.185 17.9175 366.073 17.5955L365.633 16.2935C365.534 15.9995 365.566 15.7165 365.727 15.4435C365.887 15.1705 366.122 14.9915 366.43 14.9075C367.761 14.5575 368.716 14.0535 369.297 13.3955C369.878 12.7375 370.182 11.8485 370.211 10.7285C370.211 10.6025 370.147 10.5395 370.021 10.5395H363.637C363.315 10.5395 363.035 10.4205 362.798 10.1825C362.559 9.94449 362.44 9.66449 362.44 9.34249V8.16649C362.44 7.84449 362.559 7.56449 362.798 7.32649C363.035 7.08849 363.315 6.96949 363.637 6.96949H379.723ZM400.073 3.77749C400.394 3.84749 400.646 4.02249 400.829 4.30249C401.01 4.58249 401.066 4.88349 400.997 5.20549C400.157 8.94349 398.518 11.8415 396.083 13.8995C393.646 15.9575 390.294 17.2455 386.023 17.7635C385.687 17.8055 385.39 17.7245 385.131 17.5225C384.872 17.3195 384.715 17.0495 384.659 16.7135L384.407 15.1805C384.35 14.8725 384.421 14.5855 384.617 14.3195C384.812 14.0535 385.071 13.8995 385.393 13.8575C388.796 13.3815 391.414 12.4015 393.248 10.9175C395.082 9.43349 396.39 7.23549 397.175 4.32349C397.259 4.00149 397.44 3.75649 397.72 3.58849C398.001 3.42049 398.295 3.37149 398.602 3.44149L400.073 3.77749ZM384.869 5.14249C384.575 5.00249 384.379 4.78249 384.281 4.48149C384.182 4.17949 384.211 3.88949 384.365 3.60949L385.121 2.13949C385.274 1.84549 385.512 1.64249 385.835 1.53049C386.156 1.41849 386.471 1.43249 386.78 1.57249C388.292 2.25849 389.783 2.97249 391.253 3.71449C391.547 3.85449 391.735 4.07849 391.819 4.38649C391.904 4.69449 391.869 4.98849 391.715 5.26849L390.895 6.78049C390.741 7.07449 390.504 7.27049 390.181 7.36849C389.859 7.46649 389.552 7.43849 389.258 7.28449C387.62 6.45849 386.156 5.74449 384.869 5.14249ZM411.601 1.76139C411.923 1.69139 412.228 1.74339 412.515 1.91939C412.801 2.09439 412.988 2.34239 413.072 2.66439C413.534 4.35839 413.96 5.97539 414.352 7.51539C414.436 7.82339 414.394 8.11439 414.226 8.38639C414.058 8.65939 413.813 8.83139 413.492 8.90139L412.021 9.23739C411.699 9.30739 411.398 9.25139 411.119 9.06939C410.838 8.88739 410.657 8.63539 410.573 8.31339C410.405 7.64139 409.977 6.03239 409.291 3.48339C409.207 3.17539 409.246 2.88539 409.407 2.61239C409.568 2.33939 409.809 2.16739 410.131 2.09739L411.601 1.76139ZM420.169 1.76139C420.505 1.78939 420.789 1.92239 421.02 2.16039C421.25 2.39839 421.359 2.68539 421.345 3.02139C421.275 5.56939 420.992 7.73239 420.495 9.51039C419.997 11.2884 419.231 12.7834 418.196 13.9934C417.16 15.2054 415.874 16.1394 414.342 16.7974C412.809 17.4554 410.929 17.9174 408.704 18.1834C408.368 18.2254 408.059 18.1444 407.78 17.9424C407.499 17.7394 407.331 17.4694 407.276 17.1334L407.002 15.8104C406.947 15.5024 407.013 15.2154 407.202 14.9494C407.391 14.6834 407.646 14.5294 407.968 14.4874C409.732 14.2354 411.181 13.8674 412.315 13.3854C413.45 12.9024 414.394 12.2014 415.151 11.2844C415.907 10.3684 416.453 9.23439 416.788 7.88339C417.124 6.53239 417.313 4.83439 417.355 2.79039C417.37 2.46839 417.496 2.19939 417.734 1.98239C417.971 1.76439 418.251 1.66339 418.574 1.67739L420.169 1.76139ZM408.682 8.01939C408.766 8.32739 408.724 8.62139 408.556 8.90139C408.388 9.18139 408.143 9.35639 407.822 9.42639L406.351 9.76239C406.029 9.83239 405.728 9.78039 405.449 9.60539C405.168 9.42939 404.994 9.18839 404.923 8.88039C404.433 6.85039 404.035 5.26839 403.726 4.13439C403.642 3.81239 403.684 3.51139 403.852 3.23139C404.02 2.95139 404.258 2.77639 404.567 2.70639L405.931 2.41239C406.253 2.34239 406.558 2.39139 406.845 2.55939C407.131 2.72739 407.318 2.96539 407.402 3.27339C407.807 4.74339 408.234 6.32539 408.682 8.01939ZM429.48 6.19939H436.68C436.76 6.19939 436.774 6.17339 436.72 6.11939C435.574 5.29339 434.401 4.25939 433.201 3.01939C433.121 2.93939 433.041 2.94639 432.96 3.03939C431.854 4.18639 430.68 5.21339 429.44 6.11939C429.387 6.17339 429.401 6.19939 429.48 6.19939ZM441.98 5.47939C442.26 5.62639 442.454 5.84939 442.56 6.14939C442.667 6.44939 442.654 6.74639 442.52 7.03939L442.14 7.95939C442.02 8.25339 441.814 8.45239 441.52 8.55939C441.227 8.66639 440.94 8.64639 440.661 8.49939C440.154 8.24639 439.574 7.93239 438.92 7.55939C438.893 7.53239 438.864 7.52939 438.831 7.54939C438.797 7.56939 438.781 7.59939 438.781 7.63939V7.95939C438.781 8.26639 438.667 8.53239 438.44 8.75939C438.213 8.98639 437.947 9.09939 437.64 9.09939H435.14C435.034 9.09939 434.98 9.15939 434.98 9.27939V10.6394C434.98 10.7464 435.034 10.7994 435.14 10.7994H439.041C439.347 10.7994 439.614 10.9134 439.84 11.1394C440.067 11.3664 440.18 11.6334 440.18 11.9394V12.5594C440.18 12.8664 440.067 13.1334 439.84 13.3594C439.614 13.5864 439.347 13.6994 439.041 13.6994H435.14C435.034 13.6994 434.98 13.7594 434.98 13.8794V15.4394C434.98 15.5464 435.034 15.5994 435.14 15.5994H440.84C441.147 15.5994 441.414 15.7134 441.64 15.9394C441.867 16.1664 441.98 16.4324 441.98 16.7394V17.4594C441.98 17.7664 441.867 18.0324 441.64 18.2594C441.414 18.4864 441.147 18.5994 440.84 18.5994H425.321C425.013 18.5994 424.747 18.4864 424.52 18.2594C424.293 18.0324 424.18 17.7664 424.18 17.4594V16.7394C424.18 16.4324 424.293 16.1664 424.52 15.9394C424.747 15.7134 425.013 15.5994 425.321 15.5994H431.001C431.121 15.5994 431.18 15.5464 431.18 15.4394V13.8794C431.18 13.7594 431.121 13.6994 431.001 13.6994H427.121C426.814 13.6994 426.547 13.5864 426.321 13.3594C426.093 13.1334 425.98 12.8664 425.98 12.5594V11.9394C425.98 11.6334 426.093 11.3664 426.321 11.1394C426.547 10.9134 426.814 10.7994 427.121 10.7994H431.001C431.121 10.7994 431.18 10.7464 431.18 10.6394V9.27939C431.18 9.15939 431.121 9.09939 431.001 9.09939H428.621C428.314 9.09939 428.047 8.98639 427.821 8.75939C427.593 8.53239 427.48 8.26639 427.48 7.95939V7.57939C427.48 7.53939 427.463 7.50939 427.43 7.48939C427.397 7.46939 427.367 7.47239 427.34 7.49939C426.741 7.85939 426.121 8.19939 425.48 8.51939C425.213 8.65339 424.933 8.66339 424.64 8.54939C424.347 8.43639 424.14 8.23939 424.02 7.95939L423.64 7.03939C423.507 6.74639 423.494 6.44939 423.6 6.14939C423.707 5.84939 423.901 5.62639 424.18 5.47939C426.393 4.27939 428.293 2.91939 429.88 1.39939C430.44 0.86639 431.087 0.59939 431.821 0.59939H434.34C435.074 0.59939 435.72 0.86639 436.281 1.39939C437.867 2.91939 439.767 4.27939 441.98 5.47939ZM459.081 13.8996C459.602 13.8996 459.937 13.8226 460.091 13.6696C460.244 13.5166 460.321 13.1926 460.321 12.6996C460.321 11.8066 459.888 10.7466 459.021 9.51959C459.008 9.49259 458.987 9.48259 458.961 9.48959C458.935 9.49659 458.921 9.51259 458.921 9.53959V13.7196C458.921 13.8396 458.975 13.8996 459.081 13.8996ZM458.921 3.87959V7.39959C458.921 7.42659 458.928 7.43959 458.941 7.43959C458.954 7.43959 458.968 7.43259 458.981 7.41959C459.447 6.19259 459.801 5.01259 460.041 3.87959C460.067 3.75959 460.027 3.69959 459.921 3.69959H459.102C458.981 3.69959 458.921 3.75959 458.921 3.87959ZM461.981 8.43959C461.941 8.53259 461.954 8.62659 462.021 8.71959C462.567 9.31959 463.004 10.0166 463.331 10.8096C463.657 11.6036 463.821 12.3666 463.821 13.0996C463.821 14.4866 463.584 15.4666 463.111 16.0396C462.638 16.6126 461.874 16.8996 460.821 16.8996H460.661C460.328 16.8996 460.031 16.7966 459.771 16.5896C459.511 16.3826 459.341 16.1196 459.261 15.7996L458.961 14.4996C458.961 14.4866 458.954 14.4796 458.941 14.4796C458.928 14.4796 458.921 14.4866 458.921 14.4996V17.7596C458.921 18.0666 458.808 18.3326 458.581 18.5596C458.354 18.7866 458.088 18.8996 457.781 18.8996H456.561C456.254 18.8996 455.987 18.7866 455.761 18.5596C455.534 18.3326 455.421 18.0666 455.421 17.7596V2.03959C455.421 1.73259 455.534 1.46659 455.761 1.23959C455.987 1.01259 456.254 0.89959 456.561 0.89959H462.481C462.788 0.89959 463.055 1.01259 463.281 1.23959C463.508 1.46659 463.621 1.73259 463.621 2.03959V2.55959C463.621 3.34659 463.515 4.08659 463.301 4.77959C462.888 6.13959 462.447 7.35959 461.981 8.43959ZM450.421 7.05959C450.634 6.19259 450.801 5.42659 450.921 4.75959C450.947 4.65259 450.901 4.59959 450.781 4.59959H449.041C448.935 4.59959 448.894 4.65259 448.921 4.75959C449.055 5.31959 449.221 6.07959 449.421 7.03959C449.447 7.14659 449.515 7.19959 449.621 7.19959H450.221C450.341 7.19959 450.407 7.15259 450.421 7.05959ZM451.221 15.3196V14.0596C451.221 13.9526 451.161 13.8996 451.041 13.8996H449.001C448.881 13.8996 448.821 13.9526 448.821 14.0596V15.3196C448.821 15.4396 448.881 15.4996 449.001 15.4996H451.041C451.161 15.4996 451.221 15.4396 451.221 15.3196ZM453.481 10.9996C453.788 10.9996 454.055 11.1126 454.281 11.3396C454.508 11.5666 454.621 11.8336 454.621 12.1396V17.7596C454.621 18.0666 454.508 18.3326 454.281 18.5596C454.055 18.7866 453.788 18.8996 453.481 18.8996H451.741C451.594 18.8996 451.471 18.8466 451.371 18.7396C451.271 18.6326 451.221 18.5126 451.221 18.3796C451.221 18.3266 451.194 18.2996 451.141 18.2996H448.901C448.848 18.2996 448.821 18.3266 448.821 18.3796C448.821 18.5126 448.771 18.6326 448.671 18.7396C448.571 18.8466 448.447 18.8996 448.301 18.8996H446.361C446.055 18.8996 445.788 18.7866 445.561 18.5596C445.334 18.3326 445.221 18.0666 445.221 17.7596V12.1396C445.221 11.8336 445.334 11.5666 445.561 11.3396C445.788 11.1126 446.055 10.9996 446.361 10.9996H453.481ZM453.781 7.19959C454.088 7.19959 454.354 7.31359 454.581 7.53959C454.808 7.76659 454.921 8.03259 454.921 8.33959V9.05959C454.921 9.36659 454.808 9.63259 454.581 9.85959C454.354 10.0866 454.088 10.1996 453.781 10.1996H445.861C445.555 10.1996 445.288 10.0866 445.061 9.85959C444.834 9.63259 444.721 9.36659 444.721 9.05959V8.33959C444.721 8.03259 444.834 7.76659 445.061 7.53959C445.288 7.31359 445.555 7.19959 445.861 7.19959H446.081C446.187 7.19959 446.227 7.14659 446.201 7.03959C446.055 6.38659 445.867 5.59959 445.641 4.67959C445.614 4.62659 445.581 4.59959 445.541 4.59959C445.367 4.59959 445.221 4.53959 445.102 4.41959C444.981 4.29959 444.921 4.15259 444.921 3.97959V2.83959C444.921 2.53259 445.034 2.26659 445.261 2.03959C445.487 1.81359 445.754 1.69959 446.061 1.69959H447.761C447.867 1.69959 447.921 1.63959 447.921 1.51959V1.33959C447.921 1.03259 448.034 0.76659 448.261 0.53959C448.487 0.31359 448.754 0.19959 449.061 0.19959H450.481C450.788 0.19959 451.055 0.31359 451.281 0.53959C451.508 0.76659 451.621 1.03259 451.621 1.33959V1.51959C451.621 1.63959 451.681 1.69959 451.801 1.69959H453.581C453.888 1.69959 454.154 1.81359 454.381 2.03959C454.607 2.26659 454.721 2.53259 454.721 2.83959V4.07959C454.721 4.22659 454.668 4.34959 454.561 4.44959C454.454 4.54959 454.334 4.59959 454.201 4.59959C454.134 4.59959 454.102 4.62659 454.102 4.67959C453.928 5.51959 453.748 6.30659 453.561 7.03959C453.534 7.14659 453.581 7.19959 453.701 7.19959H453.781Z" fill="#EE4949"/>
<path fill-rule="evenodd" clip-rule="evenodd" d="M475.658 11.2692V11.8642C475.658 11.9552 475.703 12.0002 475.794 12.0002H479.346C479.449 12.0002 479.5 11.9552 479.5 11.8642V11.2692C479.5 11.1792 479.449 11.1332 479.346 11.1332H475.794C475.703 11.1332 475.658 11.1792 475.658 11.2692ZM475.658 8.61719V9.19519C475.658 9.29719 475.703 9.34819 475.794 9.34819H479.346C479.449 9.34819 479.5 9.29719 479.5 9.19519V8.61719C479.5 8.51519 479.449 8.46419 479.346 8.46419H475.794C475.703 8.46419 475.658 8.51519 475.658 8.61719ZM475.658 5.94819V6.54319C475.658 6.63419 475.703 6.67919 475.794 6.67919H479.346C479.449 6.67919 479.5 6.63419 479.5 6.54319V5.94819C479.5 5.84619 479.449 5.79519 479.346 5.79519H475.794C475.703 5.79519 475.658 5.84619 475.658 5.94819ZM466.767 14.2442L466.596 13.3772C466.483 12.7992 466.681 12.2952 467.192 11.8642C468.416 10.8442 469.317 9.63719 469.895 8.24319C469.906 8.20919 469.9 8.18119 469.878 8.15819C469.855 8.13619 469.827 8.12419 469.793 8.12419H467.804C467.543 8.12419 467.319 8.02819 467.133 7.83519C466.945 7.64319 466.852 7.41619 466.852 7.15519V6.73019C466.852 6.47019 466.945 6.24619 467.133 6.05919C467.319 5.87219 467.543 5.77819 467.804 5.77819H468.314C468.416 5.77819 468.467 5.72719 468.467 5.62519V4.29919C468.467 4.03919 468.56 3.81219 468.748 3.61919C468.934 3.42719 469.158 3.33019 469.419 3.33019H469.997C470.258 3.33019 470.484 3.42719 470.677 3.61919C470.87 3.81219 470.966 4.03919 470.966 4.29919V5.62519C470.966 5.72719 471.017 5.77819 471.119 5.77819H471.561C471.821 5.77819 472.048 5.87219 472.241 6.05919C472.433 6.24619 472.53 6.47019 472.53 6.73019V7.15519C472.53 7.83519 472.417 8.45819 472.19 9.02519C471.986 9.54719 471.804 9.95519 471.646 10.2492C471.612 10.3402 471.617 10.4192 471.663 10.4872C472.173 11.0992 472.637 11.6942 473.056 12.2722V12.2892L473.074 12.3062C473.085 12.3182 473.099 12.3232 473.116 12.3232C473.134 12.3232 473.142 12.3122 473.142 12.2892V4.60519C473.142 4.34519 473.238 4.12119 473.43 3.93419C473.624 3.74719 473.85 3.65319 474.111 3.65319H481.166C481.427 3.65319 481.653 3.74719 481.845 3.93419C482.039 4.12119 482.135 4.34519 482.135 4.60519V13.1052C482.135 13.3662 482.039 13.5932 481.845 13.7852C481.653 13.9782 481.427 14.0742 481.166 14.0742H479.805C479.715 14.0742 479.67 14.1202 479.67 14.2102V15.9612C479.67 16.2222 479.679 16.3722 479.695 16.4122C479.713 16.4522 479.772 16.4772 479.874 16.4882H480.095H480.316C480.395 16.4882 480.449 16.4822 480.477 16.4712C480.506 16.4602 480.537 16.4232 480.571 16.3612C480.605 16.2982 480.625 16.2072 480.631 16.0892C480.636 15.9702 480.644 15.7912 480.656 15.5532C480.667 15.2922 480.772 15.0772 480.97 14.9072C481.169 14.7372 481.392 14.6692 481.642 14.7032L481.999 14.7542C482.271 14.7882 482.495 14.9102 482.671 15.1202C482.845 15.3302 482.923 15.5702 482.9 15.8422C482.877 16.3302 482.848 16.7152 482.815 16.9982C482.781 17.2812 482.719 17.5372 482.628 17.7632C482.537 17.9902 482.449 18.1512 482.364 18.2482C482.279 18.3442 482.124 18.4262 481.897 18.4942C481.67 18.5622 481.455 18.6022 481.251 18.6132C481.047 18.6242 480.729 18.6362 480.299 18.6472H479.789H479.296C478.4 18.6362 477.846 18.5512 477.63 18.3922C477.415 18.2332 477.306 17.8422 477.306 17.2192V14.2102C477.306 14.1202 477.262 14.0742 477.171 14.0742H477.018C476.928 14.0742 476.871 14.1252 476.847 14.2272C476.508 16.3922 475.272 17.8592 473.142 18.6302C472.881 18.7212 472.629 18.7042 472.386 18.5792C472.141 18.4552 471.969 18.2622 471.867 18.0012L471.714 17.6442C471.623 17.4062 471.637 17.1712 471.757 16.9392C471.876 16.7062 472.054 16.5452 472.292 16.4542C473.539 15.9902 474.275 15.2422 474.502 14.2102C474.524 14.1202 474.485 14.0742 474.383 14.0742H474.111C473.669 14.0742 473.369 13.8702 473.21 13.4622C473.198 13.4392 473.181 13.4282 473.159 13.4282C473.137 13.4282 473.119 13.4392 473.108 13.4622C473.051 13.5642 472.983 13.6492 472.904 13.7172L472.682 13.9212C472.49 14.0912 472.269 14.1622 472.02 14.1342C471.77 14.1052 471.572 13.9892 471.425 13.7852C471.266 13.5592 471.141 13.3892 471.051 13.2752C471.028 13.2522 471.009 13.2442 470.991 13.2492C470.974 13.2552 470.966 13.2692 470.966 13.2922V17.8992C470.966 18.1602 470.87 18.3862 470.677 18.5792C470.484 18.7722 470.258 18.8682 469.997 18.8682H469.419C469.158 18.8682 468.934 18.7722 468.748 18.5792C468.56 18.3862 468.467 18.1602 468.467 17.8992V14.1422C468.467 14.1202 468.45 14.1002 468.416 14.0822C468.382 14.0662 468.359 14.0692 468.347 14.0912C468.076 14.3412 467.872 14.5222 467.736 14.6352C467.554 14.7712 467.359 14.7972 467.149 14.7122C466.939 14.6272 466.812 14.4712 466.767 14.2442ZM497.026 8.92349V10.6235C497.026 10.7255 497.072 10.7765 497.163 10.7765H497.656C497.757 10.7765 497.808 10.7255 497.808 10.6235V8.92349C497.808 8.82149 497.757 8.77049 497.656 8.77049H497.163C497.072 8.77049 497.026 8.82149 497.026 8.92349ZM496.415 15.0605C496.369 15.1285 496.386 15.1735 496.465 15.1965L497.418 15.3835C497.452 15.3945 497.477 15.3865 497.494 15.3585C497.511 15.3295 497.513 15.3045 497.503 15.2815C497.412 15.0665 497.276 14.7545 497.094 14.3465C497.049 14.2675 497.004 14.2615 496.959 14.3295L496.415 15.0605ZM494.527 8.92349V10.6235C494.527 10.7255 494.579 10.7765 494.68 10.7765H495.157C495.258 10.7765 495.309 10.7255 495.309 10.6235V8.92349C495.309 8.82149 495.258 8.77049 495.157 8.77049H494.68C494.579 8.77049 494.527 8.82149 494.527 8.92349ZM494.239 14.1425V16.0295C494.239 16.3925 494.272 16.6045 494.34 16.6665C494.409 16.7295 494.63 16.7605 495.004 16.7605C495.445 16.7605 495.712 16.6985 495.802 16.5735C495.893 16.4485 495.944 16.0405 495.956 15.3495C495.956 15.2475 495.916 15.1685 495.837 15.1115C495.349 14.7155 494.856 14.3635 494.357 14.0575C494.335 14.0465 494.309 14.0485 494.281 14.0665C494.253 14.0825 494.239 14.1085 494.239 14.1425ZM492.81 8.92349C492.81 8.82149 492.765 8.77049 492.674 8.77049H492.181C492.08 8.77049 492.028 8.82149 492.028 8.92349V10.6235C492.028 10.7255 492.08 10.7765 492.181 10.7765H492.674C492.765 10.7765 492.81 10.7255 492.81 10.6235V8.92349ZM489.478 5.94849C489.433 5.94849 489.411 5.97149 489.411 6.01649V15.4855C489.422 15.4965 489.438 15.4965 489.462 15.4855C489.609 15.0665 489.722 14.7035 489.801 14.3975C489.87 14.1485 490.016 13.9615 490.244 13.8365C490.47 13.7115 490.708 13.6895 490.958 13.7685L491.74 14.0235C491.796 14.0465 491.825 14.0295 491.825 13.9725C491.825 13.8135 491.881 13.6745 491.995 13.5555C492.108 13.4365 492.244 13.3775 492.402 13.3775H493.609C493.712 13.3775 493.791 13.3385 493.847 13.2585L494.153 12.8165C494.21 12.7375 494.193 12.6975 494.102 12.6975H492.028H490.873C490.612 12.6975 490.385 12.6035 490.192 12.4165C490 12.2305 489.903 12.0065 489.903 11.7455V8.00549C489.903 7.74449 490 7.51849 490.192 7.32549C490.385 7.13249 490.612 7.03649 490.873 7.03649H493.354C493.457 7.03649 493.507 6.98549 493.507 6.88349V6.42449C493.507 6.33349 493.457 6.28849 493.354 6.28849H490.754C490.39 6.28849 490.119 6.14149 489.937 5.84649C489.903 5.78949 489.852 5.78449 489.785 5.82949C489.682 5.90849 489.581 5.94849 489.478 5.94849ZM486.742 12.9525V14.3295C486.742 14.4315 486.787 14.4715 486.878 14.4485C486.922 14.4375 486.997 14.4205 487.098 14.3975C487.201 14.3745 487.274 14.3575 487.319 14.3465C487.422 14.3235 487.472 14.2615 487.472 14.1595V12.9525C487.472 12.8615 487.422 12.8165 487.319 12.8165H486.878C486.787 12.8165 486.742 12.8615 486.742 12.9525ZM486.742 9.50149V10.7935C486.742 10.8955 486.787 10.9465 486.878 10.9465H487.319C487.422 10.9465 487.472 10.8955 487.472 10.7935V9.50149C487.472 9.41049 487.422 9.36549 487.319 9.36549H486.878C486.787 9.36549 486.742 9.41049 486.742 9.50149ZM486.742 6.08449V7.34249C486.742 7.44449 486.787 7.49549 486.878 7.49549H487.319C487.422 7.49549 487.472 7.44449 487.472 7.34249V6.08449C487.472 5.99349 487.422 5.94849 487.319 5.94849H486.878C486.787 5.94849 486.742 5.99349 486.742 6.08449ZM484.31 16.2335L484.243 15.5875C484.231 15.4175 484.276 15.2645 484.379 15.1285C484.48 14.9925 484.617 14.9075 484.787 14.8735C484.843 14.8505 484.872 14.8175 484.872 14.7715V6.01649C484.872 5.97149 484.848 5.94849 484.803 5.94849C484.678 5.94849 484.571 5.90349 484.48 5.81249C484.389 5.72149 484.344 5.61449 484.344 5.48949V4.69049C484.344 4.42949 484.441 4.20549 484.633 4.01849C484.826 3.83149 485.052 3.73849 485.313 3.73849H488.968C489.195 3.73849 489.396 3.80349 489.572 3.93349C489.748 4.06449 489.858 4.23749 489.903 4.45249C489.915 4.47549 489.934 4.48949 489.963 4.49449C489.991 4.50049 490.011 4.49249 490.022 4.46949C490.204 4.25449 490.448 4.14649 490.754 4.14649H493.372C493.462 4.14649 493.507 4.10149 493.507 4.01049C493.507 3.77249 493.592 3.56849 493.762 3.39849C493.932 3.22849 494.136 3.14349 494.375 3.14349H495.343C495.582 3.14349 495.786 3.22849 495.956 3.39849C496.126 3.56849 496.211 3.77249 496.211 4.01049C496.211 4.10149 496.255 4.14649 496.346 4.14649H499.423C499.684 4.14649 499.911 4.24249 500.103 4.43549C500.296 4.62849 500.392 4.85449 500.392 5.11549V5.31949C500.392 5.58049 500.296 5.80649 500.103 5.99949C499.911 6.19249 499.684 6.28849 499.423 6.28849H496.364C496.261 6.28849 496.211 6.33349 496.211 6.42449V6.88349C496.211 6.98549 496.261 7.03649 496.364 7.03649H499.066C499.327 7.03649 499.553 7.13249 499.747 7.32549C499.939 7.51849 500.036 7.74449 500.036 8.00549V11.7455C500.036 12.0065 499.939 12.2305 499.747 12.4165C499.553 12.6035 499.327 12.6975 499.066 12.6975H496.142C496.12 12.6975 496.108 12.7085 496.108 12.7315C496.108 12.7545 496.114 12.7715 496.126 12.7825C496.261 12.8615 496.579 13.0825 497.078 13.4455C497.168 13.5135 497.222 13.6075 497.239 13.7255C497.255 13.8445 497.23 13.9495 497.163 14.0405C497.139 14.0635 497.145 14.0745 497.179 14.0745L498.182 13.6665C498.431 13.5645 498.681 13.5645 498.93 13.6665C499.179 13.7685 499.355 13.9445 499.458 14.1935C499.775 14.9525 500.081 15.7855 500.376 16.6925C500.455 16.9425 500.44 17.1915 500.333 17.4405C500.225 17.6895 500.047 17.8705 499.797 17.9845L499.559 18.0865C499.322 18.1885 499.087 18.1915 498.854 18.0945C498.622 17.9985 498.465 17.8255 498.386 17.5765C498.375 17.5195 498.346 17.4375 498.301 17.3295C498.256 17.2215 498.227 17.1405 498.216 17.0835C498.205 17.0725 498.191 17.0665 498.173 17.0665C498.157 17.0665 498.148 17.0775 498.148 17.1005C498.047 17.8705 497.799 18.3525 497.409 18.5455C497.018 18.7375 496.211 18.8345 494.986 18.8345C494.42 18.8345 493.989 18.8285 493.694 18.8175C493.4 18.8055 493.114 18.7665 492.836 18.6985C492.558 18.6305 492.369 18.5535 492.266 18.4685C492.165 18.3835 492.071 18.2285 491.986 18.0015C491.901 17.7745 491.852 17.5425 491.841 17.3045C491.83 17.0665 491.825 16.7205 491.825 16.2675V15.4515C491.813 15.4515 491.801 15.4455 491.791 15.4345C491.575 16.2965 491.308 17.0835 490.992 17.7975C490.889 18.0355 490.716 18.1855 490.473 18.2475C490.229 18.3105 490 18.2675 489.785 18.1205L489.529 17.9335C489.45 17.8765 489.411 17.8935 489.411 17.9845C489.387 18.2335 489.283 18.4455 489.096 18.6215C488.909 18.7975 488.691 18.8855 488.441 18.8855C488.18 18.8855 487.954 18.7885 487.761 18.5965C487.569 18.4035 487.472 18.1765 487.472 17.9165V16.7265C487.472 16.6245 487.427 16.5845 487.337 16.6075C486.599 16.7775 485.942 16.9135 485.365 17.0155C485.103 17.0725 484.869 17.0215 484.659 16.8625C484.449 16.7035 484.333 16.4945 484.31 16.2335ZM517.291 9.21259C517.665 9.92659 517.858 10.2946 517.869 10.3176C517.994 10.5556 518.014 10.7996 517.929 11.0486C517.844 11.2976 517.683 11.4796 517.444 11.5926L517.394 11.6266C517.155 11.7396 516.909 11.7546 516.654 11.6696C516.399 11.5836 516.209 11.4226 516.084 11.1846C516.027 11.0716 515.937 10.8956 515.812 10.6576C515.687 10.4196 515.592 10.2436 515.523 10.1306C515.398 9.90359 515.373 9.66059 515.447 9.39959C515.52 9.13859 515.677 8.95159 515.914 8.83859L515.966 8.82159C516.203 8.69659 516.452 8.67159 516.714 8.74459C516.974 8.81859 517.167 8.97459 517.291 9.21259ZM513.245 9.41659C513.483 9.29159 513.732 9.26959 513.993 9.34859C514.254 9.42759 514.446 9.58659 514.571 9.82459C514.696 10.0516 514.883 10.4026 515.133 10.8786C515.245 11.1166 515.257 11.3596 515.166 11.6096C515.075 11.8586 514.911 12.0406 514.674 12.1536C514.424 12.2666 514.175 12.2786 513.926 12.1876C513.676 12.0966 513.489 11.9326 513.364 11.6946C513.308 11.5926 513.126 11.2586 512.82 10.6916C512.695 10.4646 512.673 10.2266 512.753 9.97759C512.832 9.72859 512.99 9.54159 513.229 9.41659H513.245ZM503.59 7.47859C503.317 7.47859 503.085 7.38759 502.893 7.20659C502.699 7.02459 502.603 6.79859 502.603 6.52659V5.98259C502.603 5.72159 502.697 5.49759 502.884 5.31059C503.071 5.12359 503.295 5.03059 503.556 5.03059C507.636 5.00759 511.692 4.90559 515.728 4.72459C515.988 4.71259 516.215 4.79759 516.407 4.97959C516.6 5.16059 516.702 5.38159 516.714 5.64259L516.73 6.18659C516.741 6.45859 516.659 6.69359 516.484 6.89159C516.308 7.09059 516.084 7.20659 515.812 7.24059C513.512 7.50159 511.786 8.07059 510.636 8.94859C509.485 9.82759 508.91 10.9186 508.91 12.2216C508.91 13.3326 509.265 14.2076 509.973 14.8476C510.681 15.4886 511.619 15.8086 512.786 15.8086C513.16 15.8086 513.523 15.7856 513.874 15.7406C514.135 15.7066 514.37 15.7656 514.58 15.9196C514.789 16.0716 514.911 16.2786 514.945 16.5396L515.03 17.1346C515.064 17.4066 514.999 17.6526 514.835 17.8736C514.671 18.0946 514.452 18.2226 514.181 18.2566C513.772 18.3136 513.263 18.3416 512.65 18.3416C510.61 18.3416 508.981 17.8146 507.763 16.7606C506.545 15.7066 505.936 14.2846 505.936 12.4936C505.936 11.5186 506.21 10.5836 506.76 9.68859C507.31 8.79359 508.077 8.03359 509.063 7.41059C509.074 7.41059 509.08 7.39959 509.08 7.37659C509.08 7.36559 509.074 7.35959 509.063 7.35959C507.408 7.41659 505.584 7.45559 503.59 7.47859ZM520.997 10.6403C520.736 10.6403 520.513 10.5473 520.326 10.3603C520.139 10.1733 520.046 9.94929 520.046 9.68829V9.43329C520.046 9.17329 520.142 8.94629 520.334 8.75329C520.527 8.56029 520.754 8.46429 521.015 8.46429C522.363 8.46429 524.42 8.43029 527.185 8.36229C527.276 8.36229 527.309 8.31729 527.287 8.22629C527.242 8.05629 527.174 7.79029 527.083 7.42729C527.072 7.34829 527.016 7.30829 526.913 7.30829C525.01 7.36529 523.304 7.39329 521.797 7.39329C521.535 7.39329 521.309 7.29729 521.116 7.10429C520.924 6.91129 520.827 6.68529 520.827 6.42429V6.16929C520.827 5.89729 520.924 5.66829 521.116 5.48129C521.309 5.29429 521.541 5.20029 521.813 5.20029C522.845 5.20029 524.414 5.17829 526.522 5.13229C526.636 5.13229 526.681 5.08129 526.658 4.97929C526.647 4.93429 526.642 4.85429 526.642 4.74129C526.642 4.62829 526.636 4.54929 526.624 4.50329C526.601 4.24329 526.678 4.01829 526.853 3.83129C527.029 3.64429 527.254 3.54029 527.525 3.51729L528.205 3.46629C528.466 3.45529 528.695 3.53729 528.893 3.71329C529.092 3.88929 529.202 4.11229 529.226 4.38429L529.276 4.89429C529.299 4.99629 529.355 5.04729 529.446 5.04729C530.103 5.02529 531.09 4.97929 532.404 4.91129C532.665 4.88929 532.897 4.97129 533.101 5.15829C533.306 5.34529 533.413 5.56929 533.425 5.82929V6.08429C533.435 6.34529 533.351 6.57529 533.17 6.77329C532.988 6.97129 532.767 7.07629 532.507 7.08729C532.223 7.09829 531.781 7.11929 531.181 7.14729C530.58 7.17529 530.126 7.19529 529.82 7.20629C529.729 7.20629 529.695 7.25729 529.719 7.35929C529.809 7.72229 529.883 7.98829 529.939 8.15829C529.95 8.23829 530.008 8.27729 530.109 8.27729C531.356 8.23229 532.285 8.19829 532.897 8.17529C533.158 8.16429 533.388 8.24929 533.586 8.43029C533.784 8.61229 533.889 8.83229 533.9 9.09329V9.34829C533.911 9.60929 533.826 9.83829 533.645 10.0363C533.464 10.2353 533.243 10.3403 532.982 10.3513C532.756 10.3633 532.416 10.3773 531.963 10.3933C531.509 10.4113 531.169 10.4253 530.942 10.4363C530.851 10.4363 530.829 10.4813 530.874 10.5723C531.09 11.0263 531.373 11.5473 531.725 12.1363C531.86 12.3513 531.894 12.5813 531.826 12.8253C531.759 13.0683 531.611 13.2473 531.385 13.3603L530.433 13.8023C529.865 14.0633 529.276 14.0853 528.664 13.8703C527.792 13.5643 526.947 13.4113 526.132 13.4113C524.545 13.4113 523.751 13.7743 523.751 14.4993C523.751 14.9873 524.037 15.3473 524.61 15.5783C525.182 15.8113 526.193 15.9273 527.644 15.9273C528.437 15.9273 529.469 15.8533 530.738 15.7063C530.999 15.6723 531.234 15.7383 531.444 15.9023C531.653 16.0663 531.775 16.2793 531.81 16.5393L531.86 16.8793C531.894 17.1403 531.829 17.3783 531.665 17.5933C531.501 17.8083 531.288 17.9333 531.027 17.9673C529.792 18.1143 528.664 18.1883 527.644 18.1883C523.201 18.1883 520.98 16.9583 520.98 14.4993C520.98 13.5253 521.414 12.7543 522.281 12.1873C523.147 11.6203 524.432 11.3373 526.132 11.3373C526.947 11.3373 527.746 11.4393 528.528 11.6433H528.562V11.6093C528.46 11.4053 528.318 11.0883 528.138 10.6573C528.103 10.5783 528.041 10.5383 527.95 10.5383C526.409 10.5833 524.092 10.6183 520.997 10.6403ZM543.165 16.0124C543.278 15.7184 543.335 15.4574 543.335 15.2304C543.335 14.9354 543.225 14.7184 543.004 14.5754C542.782 14.4344 542.366 14.3634 541.754 14.3634C541.267 14.3634 540.901 14.4404 540.657 14.5934C540.414 14.7454 540.292 14.9414 540.292 15.1794C540.292 15.8364 541.17 16.1654 542.927 16.1654H542.944L542.978 16.1484C543.068 16.1484 543.131 16.1034 543.165 16.0124ZM536.637 11.9834L536.552 11.8304C536.438 11.5924 536.422 11.3404 536.501 11.0744C536.58 10.8074 536.733 10.6064 536.96 10.4704L543.436 6.66239L543.454 6.64539H543.436H538.218C537.957 6.64539 537.733 6.54939 537.547 6.35639C537.359 6.16339 537.266 5.93739 537.266 5.67639V5.35339C537.266 5.09339 537.359 4.86639 537.547 4.67339C537.733 4.48039 537.957 4.38439 538.218 4.38439H547.397C547.658 4.38439 547.885 4.48039 548.078 4.67339C548.27 4.86639 548.367 5.09339 548.367 5.35339V5.74439C548.367 6.40239 548.089 6.87239 547.534 7.15539L543.301 9.39939V9.41639H543.318C543.885 9.31439 544.423 9.26339 544.933 9.26339C546.474 9.26339 547.667 9.61539 548.512 10.3174C549.355 11.0204 549.778 11.9724 549.778 13.1734C549.778 14.7944 549.183 16.0524 547.993 16.9474C546.803 17.8424 545.114 18.2904 542.927 18.2904C539.493 18.2904 537.776 17.2534 537.776 15.1794C537.776 14.3974 538.147 13.7404 538.89 13.2074C539.632 12.6754 540.638 12.4084 541.907 12.4084C543.21 12.4084 544.153 12.6204 544.737 13.0464C545.321 13.4704 545.613 14.1084 545.613 14.9584C545.613 15.2074 545.602 15.3944 545.579 15.5194C545.579 15.5424 545.59 15.5614 545.613 15.5784C545.636 15.5954 545.658 15.5984 545.681 15.5874C546.519 15.1114 546.938 14.3694 546.938 13.3604C546.938 11.9554 545.868 11.2524 543.726 11.2524C542.649 11.2524 541.675 11.3434 540.802 11.5244C539.929 11.7054 538.978 12.0174 537.946 12.4594C537.696 12.5614 537.444 12.5674 537.189 12.4764C536.935 12.3864 536.75 12.2214 536.637 11.9834ZM556.899 14.8791C557.174 14.8791 557.415 14.9811 557.619 15.1851C557.823 15.3891 557.925 15.6291 557.925 15.9051V16.5531C557.925 16.8291 557.823 17.0691 557.619 17.2731C557.415 17.4771 557.174 17.5791 556.899 17.5791H555.819C555.543 17.5791 555.303 17.4771 555.099 17.2731C554.895 17.0691 554.793 16.8291 554.793 16.5531V15.9051C554.793 15.6291 554.895 15.3891 555.099 15.1851C555.303 14.9811 555.543 14.8791 555.819 14.8791H556.899ZM555.999 13.4391C555.711 13.4391 555.468 13.3401 555.27 13.1421C555.072 12.9441 554.961 12.7011 554.937 12.4131L554.577 5.46509C554.565 5.18909 554.655 4.94909 554.847 4.74509C555.039 4.54109 555.273 4.43909 555.549 4.43909H557.169C557.445 4.43909 557.682 4.54109 557.879 4.74509C558.078 4.94909 558.165 5.18909 558.141 5.46509L557.799 12.4131C557.787 12.7011 557.675 12.9441 557.466 13.1421C557.255 13.3401 557.007 13.4391 556.719 13.4391H555.999ZM572.838 4.55439C573.042 4.55439 573.192 4.64539 573.288 4.82639C573.385 5.00839 573.37 5.17839 573.246 5.33639L565.018 16.8624C564.644 17.3834 564.134 17.6444 563.488 17.6444H562.196C561.992 17.6444 561.842 17.5534 561.745 17.3724C561.65 17.1914 561.663 17.0214 561.788 16.8624L570.016 5.33639C570.39 4.81539 570.9 4.55439 571.546 4.55439H572.838Z" fill="#252525"/>
<g clip-path="url(#clip0)">
<path d="M40.0001 31C41.0393 30.9851 42.0706 31.1833 43.0303 31.5824C43.99 31.9814 44.8578 32.5727 45.5801 33.32C46.3259 34.0451 46.9153 34.915 47.3126 35.8763C47.7098 36.8376 47.9063 37.87 47.89 38.91C47.9066 39.9129 47.7243 40.9092 47.3536 41.8412C46.9828 42.7732 46.431 43.6225 45.73 44.34C44.3666 45.8187 42.4787 46.7053 40.47 46.81C40.19 46.81 40.0501 46.97 40.0501 47.29V48.08C38.8901 57.46 35.67 64.6133 30.39 69.54C25.11 74.4666 17.5366 77.5066 7.66998 78.66C7.27003 78.7164 6.86278 78.6914 6.47272 78.5866C6.08265 78.4817 5.71779 78.2992 5.39996 78.05C4.7509 77.5586 4.30298 76.8476 4.13995 76.05L3.46002 72.73C3.38652 72.3618 3.39034 71.9823 3.47125 71.6156C3.55216 71.2489 3.70836 70.9031 3.92999 70.6C4.14662 70.285 4.42837 70.0203 4.75616 69.8236C5.08395 69.6269 5.45029 69.5029 5.83014 69.46C13.3035 68.5466 18.9002 66.42 22.6202 63.08C26.3402 59.74 28.6401 54.6433 29.5201 47.79C29.5353 47.7362 29.5328 47.679 29.513 47.6268C29.4932 47.5745 29.457 47.5301 29.41 47.5C29.3239 47.4235 29.215 47.3778 29.1002 47.37H3.00006C2.60778 47.373 2.21916 47.2956 1.85797 47.1426C1.49678 46.9895 1.17059 46.764 0.899962 46.48C0.613398 46.2087 0.385836 45.8814 0.231017 45.5185C0.076197 45.1555 -0.00247969 44.7646 5.95625e-05 44.37V40.89C-0.00247969 40.4954 0.076197 40.1045 0.231017 39.7415C0.385836 39.3785 0.613398 39.0513 0.899962 38.78C1.16898 38.4932 1.49461 38.2652 1.85602 38.1103C2.21742 37.9555 2.60687 37.877 3.00006 37.88H30.7C31.033 37.8584 31.367 37.8584 31.7 37.88C31.98 37.95 32.15 37.88 32.22 37.51C32.5193 35.6809 33.4758 34.0239 34.91 32.85C36.3238 31.6325 38.1344 30.9744 40.0001 31ZM37.5701 41.33C37.8854 41.6537 38.2635 41.9095 38.6815 42.0814C39.0994 42.2534 39.5482 42.338 40.0001 42.33C40.4503 42.3372 40.8974 42.2523 41.3135 42.0803C41.7297 41.9083 42.1062 41.653 42.42 41.33C42.742 41.0155 42.9969 40.6388 43.1688 40.2227C43.3407 39.8067 43.4261 39.3601 43.42 38.91C43.4263 38.4584 43.3409 38.0102 43.169 37.5925C42.9971 37.1748 42.7423 36.7964 42.42 36.48C42.1062 36.157 41.7297 35.9017 41.3135 35.7297C40.8974 35.5577 40.4503 35.4727 40.0001 35.48C39.5482 35.472 39.0994 35.5565 38.6815 35.7285C38.2635 35.9005 37.8854 36.1562 37.5701 36.48C37.2478 36.7964 36.993 37.1748 36.8211 37.5925C36.6492 38.0102 36.5639 38.4584 36.5701 38.91C36.5666 39.3615 36.6552 39.809 36.8306 40.2251C37.006 40.6412 37.2645 41.0172 37.5901 41.33H37.5701Z" fill="#252525"/>
<path d="M93.0001 50.98C93.3713 51.1274 93.7094 51.3476 93.9944 51.6275C94.2795 51.9074 94.5057 52.2414 94.66 52.61C94.8208 52.9755 94.9041 53.3706 94.9041 53.77C94.9041 54.1694 94.8208 54.5644 94.66 54.93C91.18 63.37 86.5835 69.37 80.8702 72.93C75.1568 76.49 67.2566 78.3366 57.17 78.47C56.7769 78.4723 56.3875 78.3936 56.0262 78.2388C55.6649 78.0839 55.3395 77.8562 55.0701 77.57C54.7836 77.2987 54.5558 76.9714 54.4009 76.6084C54.2461 76.2455 54.1674 75.8546 54.17 75.46V38.22C54.1674 37.8254 54.2461 37.4345 54.4009 37.0715C54.5558 36.7085 54.7836 36.3813 55.0701 36.11C55.34 35.825 55.6658 35.5989 56.0272 35.4457C56.3885 35.2926 56.7775 35.2157 57.17 35.22H62.0001C62.394 35.2155 62.7848 35.2923 63.1478 35.4454C63.5108 35.5985 63.8384 35.8247 64.1102 36.11C64.3954 36.3817 64.6216 36.7093 64.7747 37.0724C64.9278 37.4354 65.0045 37.826 65.0001 38.22V67.96C65.0001 68.27 65.14 68.4 65.43 68.33C70.55 67.55 74.6467 65.8433 77.72 63.21C80.7934 60.5766 83.4001 56.5766 85.5401 51.21C85.6793 50.8454 85.8911 50.5129 86.1627 50.2327C86.4343 49.9525 86.7601 49.7304 87.1202 49.58C87.8369 49.266 88.6476 49.2445 89.3799 49.52L93.0001 50.98Z" fill="#252525"/>
<path d="M141.63 68.48C142.425 68.6039 143.141 69.0302 143.63 69.67C144.127 70.305 144.36 71.1075 144.28 71.91L143.86 75.76C143.839 76.1547 143.73 76.5397 143.539 76.8861C143.349 77.2324 143.082 77.5312 142.76 77.76C142.449 77.9979 142.092 78.168 141.711 78.2593C141.33 78.3506 140.935 78.361 140.55 78.29C128.842 76.4845 117.05 75.2696 105.22 74.65C104.826 74.633 104.44 74.5355 104.086 74.3635C103.732 74.1915 103.416 73.9487 103.16 73.65C102.89 73.3671 102.682 73.0323 102.546 72.6662C102.41 72.3 102.35 71.91 102.37 71.52L102.58 67.77C102.649 66.9782 103.005 66.2387 103.58 65.69C103.851 65.4113 104.178 65.1946 104.541 65.0548C104.904 64.915 105.292 64.8553 105.68 64.88C117.717 65.4625 129.716 66.6641 141.63 68.48ZM142 45.02C141.973 45.4144 141.86 45.7982 141.668 46.1438C141.476 46.4895 141.21 46.7887 140.89 47.02C140.582 47.266 140.227 47.4469 139.847 47.5518C139.467 47.6567 139.07 47.6833 138.68 47.63C127.773 46.2967 117.296 45.4166 107.25 44.99C106.857 44.9759 106.472 44.8796 106.119 44.7073C105.766 44.5351 105.452 44.2907 105.2 43.99C104.93 43.7096 104.723 43.374 104.596 43.0063C104.468 42.6385 104.422 42.2474 104.46 41.86L104.67 38.33C104.727 37.5406 105.085 36.8032 105.67 36.27C105.948 36.0004 106.279 35.791 106.642 35.6551C107.005 35.5192 107.393 35.4596 107.78 35.48C118.266 35.94 128.933 36.82 139.78 38.12C140.173 38.1702 140.551 38.2977 140.895 38.495C141.238 38.6924 141.539 38.9558 141.78 39.27C142.043 39.5708 142.238 39.9249 142.352 40.308C142.466 40.6911 142.496 41.0943 142.44 41.49L142 45.02ZM110.67 49.87C118.67 50.33 127.146 51.2633 136.1 52.67C136.497 52.7276 136.879 52.8643 137.222 53.0722C137.566 53.28 137.864 53.5547 138.1 53.88C138.339 54.191 138.514 54.5468 138.613 54.9263C138.713 55.3059 138.735 55.7015 138.68 56.09L138.21 59.94C138.169 60.3364 138.044 60.7196 137.844 61.0643C137.644 61.4091 137.373 61.7075 137.05 61.94C136.74 62.1802 136.383 62.3516 136.002 62.443C135.621 62.5344 135.225 62.5436 134.84 62.47C126.591 61.1083 118.276 60.1771 109.93 59.68C109.544 59.6678 109.165 59.5721 108.82 59.3994C108.475 59.2268 108.171 58.9813 107.93 58.68C107.677 58.3843 107.486 58.0405 107.369 57.6694C107.253 57.2982 107.212 56.9073 107.25 56.52L107.51 52.78C107.541 52.3835 107.651 51.9972 107.833 51.6435C108.015 51.2899 108.265 50.9759 108.57 50.72C109.132 50.1731 109.885 49.868 110.67 49.87Z" fill="#252525"/>
<path d="M194.7 36.8C195.094 36.7979 195.484 36.8757 195.846 37.0287C196.209 37.1817 196.537 37.4067 196.81 37.69C197.096 37.9618 197.322 38.2894 197.475 38.6524C197.628 39.0154 197.705 39.406 197.7 39.8V42.49C197.773 44.4718 197.433 46.4471 196.7 48.29C194.357 53.3208 190.859 57.7271 186.49 61.15C186.174 61.4106 185.807 61.6036 185.414 61.7171C185.02 61.8307 184.607 61.8623 184.2 61.81C183.788 61.774 183.386 61.6555 183.021 61.4613C182.655 61.2672 182.332 61.0015 182.07 60.68L179.65 57.83C179.394 57.5478 179.203 57.2121 179.093 56.8471C178.982 56.4822 178.954 56.0971 179.01 55.72C179.048 55.3282 179.166 54.9483 179.357 54.6042C179.548 54.2601 179.808 53.959 180.12 53.72C182.864 51.6598 185.112 49.0118 186.7 45.97C186.722 45.9195 186.734 45.8651 186.734 45.81C186.734 45.7549 186.722 45.7005 186.7 45.65C186.681 45.6053 186.649 45.5672 186.608 45.5406C186.567 45.5139 186.519 45.4998 186.47 45.5H157C156.606 45.5025 156.215 45.424 155.852 45.2691C155.489 45.1143 155.161 44.8866 154.89 44.6C154.604 44.3287 154.376 44.0014 154.221 43.6385C154.066 43.2755 153.988 42.8846 153.99 42.49V39.8C153.988 39.4054 154.066 39.0145 154.221 38.6515C154.376 38.2886 154.604 37.9613 154.89 37.69C155.163 37.4067 155.491 37.1817 155.854 37.0287C156.217 36.8757 156.607 36.7979 157 36.8H194.7ZM172.85 48.92C173.242 48.9165 173.631 48.9917 173.993 49.1411C174.356 49.2905 174.685 49.5112 174.96 49.79C175.247 50.054 175.471 50.3786 175.616 50.7401C175.762 51.1017 175.825 51.4911 175.8 51.88C175.66 59.2133 174.767 64.6767 173.12 68.27C171.474 71.8633 168.507 74.9567 164.22 77.55C163.512 77.9686 162.668 78.0908 161.87 77.89C161.056 77.7177 160.34 77.2377 159.87 76.55L157.82 73.49C157.597 73.1823 157.444 72.8295 157.372 72.4564C157.299 72.0833 157.309 71.6989 157.4 71.33C157.475 70.9608 157.626 70.6112 157.843 70.3032C158.06 69.9951 158.338 69.7353 158.66 69.54C161.093 68.1175 163.009 65.9561 164.13 63.37C165.124 60.9433 165.67 57.1133 165.77 51.88C165.795 51.0864 166.133 50.3348 166.71 49.79C166.986 49.5112 167.315 49.2905 167.677 49.1411C168.039 48.9917 168.428 48.9165 168.82 48.92H172.85Z" fill="#252525"/>
<path d="M237.19 52.98C240.323 59.7333 243.113 66.0666 245.56 71.98C245.718 72.3462 245.8 72.741 245.8 73.14C245.8 73.539 245.718 73.9338 245.56 74.3C245.422 74.6673 245.204 74.9994 244.922 75.2726C244.64 75.5458 244.301 75.7532 243.93 75.88L240.03 77.36C239.278 77.6554 238.442 77.6554 237.69 77.36C237.325 77.2111 236.994 76.9887 236.719 76.7066C236.444 76.4244 236.23 76.0886 236.09 75.72C235.998 75.4606 235.891 75.2068 235.77 74.96C235.629 74.678 235.505 74.3874 235.4 74.09C235.351 73.9809 235.268 73.8906 235.163 73.8329C235.059 73.7751 234.938 73.753 234.82 73.77C223.66 75.3233 212.833 76.3433 202.34 76.83C201.947 76.8512 201.554 76.7891 201.187 76.6477C200.82 76.5064 200.487 76.2891 200.21 76.01C199.914 75.7465 199.673 75.427 199.502 75.07C199.33 74.713 199.231 74.3255 199.21 73.93L199.16 70.93C199.14 70.5367 199.202 70.1437 199.341 69.7754C199.481 69.4072 199.695 69.0717 199.97 68.79C200.517 68.2126 201.257 67.8567 202.05 67.79C202.527 67.7996 203.004 67.7829 203.48 67.74C203.634 67.7391 203.784 67.6878 203.907 67.594C204.03 67.5001 204.118 67.3688 204.16 67.22C207.678 57.5252 210.682 47.6515 213.16 37.64C213.355 36.8541 213.846 36.1737 214.53 35.74C214.857 35.5163 215.225 35.3596 215.613 35.2789C216.001 35.1982 216.401 35.1952 216.79 35.27L221.16 36.06C221.533 36.1163 221.891 36.2515 222.208 36.4567C222.525 36.6619 222.795 36.9323 223 37.25C223.213 37.5662 223.359 37.9231 223.427 38.2982C223.496 38.6733 223.487 39.0586 223.4 39.43C221.247 48.5441 218.611 57.5369 215.5 66.37C215.43 66.62 215.5 66.74 215.82 66.74C221.82 66.18 226.907 65.62 231.08 65.06C231.36 64.9933 231.45 64.8333 231.35 64.58C229.31 59.9133 228.187 57.3666 227.98 56.94C227.807 56.5894 227.708 56.2069 227.689 55.8164C227.67 55.4259 227.732 55.0357 227.87 54.67C227.998 54.2992 228.206 53.9611 228.479 53.6794C228.752 53.3978 229.083 53.1795 229.45 53.04L233.19 51.4C233.933 51.0955 234.767 51.0955 235.51 51.4C235.882 51.536 236.223 51.7462 236.512 52.0177C236.801 52.2893 237.031 52.6167 237.19 52.98Z" fill="#252525"/>
<path d="M295.14 45.82C295.514 45.8203 295.884 45.8966 296.228 46.0445C296.572 46.1923 296.882 46.4085 297.14 46.68C297.408 46.9395 297.622 47.2503 297.768 47.5938C297.914 47.9374 297.989 48.3067 297.99 48.68V50.24C297.989 50.6133 297.914 50.9826 297.768 51.3262C297.622 51.6697 297.408 51.9804 297.14 52.24C296.882 52.5115 296.572 52.7277 296.228 52.8755C295.884 53.0234 295.514 53.0997 295.14 53.1H294.68C294.619 53.0917 294.557 53.0977 294.498 53.1174C294.44 53.1371 294.387 53.17 294.343 53.2135C294.3 53.2571 294.267 53.3101 294.247 53.3685C294.228 53.4268 294.222 53.489 294.23 53.55V55.21C294.23 55.48 294.38 55.61 294.68 55.61H295.14C295.514 55.6103 295.884 55.6866 296.228 55.8345C296.572 55.9823 296.882 56.1985 297.14 56.47C297.408 56.7295 297.622 57.0403 297.768 57.3838C297.914 57.7274 297.989 58.0967 297.99 58.47V60.03C297.989 60.4033 297.914 60.7726 297.768 61.1162C297.622 61.4597 297.408 61.7704 297.14 62.03C296.882 62.3001 296.571 62.5148 296.227 62.6609C295.884 62.8071 295.513 62.8816 295.14 62.88H294.68C294.619 62.8717 294.557 62.8777 294.498 62.8974C294.44 62.9171 294.387 62.95 294.343 62.9935C294.3 63.0371 294.267 63.0901 294.247 63.1485C294.228 63.2068 294.222 63.269 294.23 63.33V68.67C294.23 70.38 294.23 71.67 294.16 72.67C294.119 73.5962 293.948 74.512 293.65 75.39C293.448 76.0574 293.108 76.6743 292.65 77.2C292.128 77.6789 291.496 78.0222 290.81 78.2C289.93 78.472 289.02 78.6332 288.1 78.68C287.16 78.68 285.84 78.75 284.1 78.75C283.73 78.75 282.67 78.75 280.93 78.65C280.131 78.6059 279.375 78.2757 278.8 77.72C278.511 77.4533 278.279 77.1303 278.119 76.7709C277.959 76.4116 277.875 76.0233 277.87 75.63L277.72 73.22C277.72 73.1533 277.67 73.0933 277.57 73.04C277.47 72.9867 277.4 72.9867 277.36 73.04C277.079 73.2585 276.758 73.4196 276.415 73.5139C276.072 73.6083 275.713 73.6341 275.36 73.59C275.005 73.5614 274.659 73.4575 274.347 73.2851C274.035 73.1126 273.763 72.8757 273.55 72.59L270.38 68.97C270.136 68.7004 269.951 68.384 269.834 68.0401C269.717 67.6962 269.671 67.3321 269.7 66.97C269.719 66.6053 269.818 66.2494 269.991 65.9277C270.164 65.6061 270.406 65.3268 270.7 65.11L273.16 63.11C273.23 63.05 273.26 62.99 273.24 62.94C273.229 62.9147 273.211 62.8933 273.188 62.8789C273.165 62.8645 273.137 62.8579 273.11 62.86H272.11C271.576 62.8847 271.048 62.7494 270.591 62.4714C270.135 62.1935 269.773 61.7855 269.55 61.3C269.41 61.07 269.26 61.03 269.09 61.2C268.7 61.5349 268.238 61.7746 267.74 61.9L267.31 62.03L266.88 62.16C266.756 62.1843 266.646 62.2545 266.572 62.3565C266.498 62.4585 266.465 62.5848 266.48 62.71V75.84C266.479 76.2133 266.404 76.5826 266.258 76.9262C266.112 77.2697 265.898 77.5804 265.63 77.84C265.371 78.1096 265.061 78.324 264.717 78.4701C264.373 78.6162 264.003 78.691 263.63 78.69H260.81C260.436 78.6916 260.066 78.6171 259.722 78.4709C259.378 78.3248 259.068 78.1101 258.81 77.84C258.54 77.5819 258.325 77.2714 258.179 76.9275C258.033 76.5837 257.958 76.2136 257.96 75.84V64.84C257.96 64.54 257.82 64.42 257.55 64.49L253.73 65.25C253.367 65.3182 252.993 65.308 252.635 65.2201C252.276 65.1321 251.94 64.9684 251.65 64.74C251.359 64.5208 251.118 64.2409 250.946 63.9198C250.773 63.5987 250.672 63.2439 250.65 62.88L250.5 60.97C250.415 60.2151 250.63 59.4571 251.1 58.86C251.573 58.2522 252.253 57.8394 253.01 57.7L257.58 56.79C257.698 56.7727 257.806 56.7119 257.882 56.6194C257.958 56.5269 257.996 56.4094 257.99 56.29V48.03C257.999 47.968 257.993 47.9048 257.972 47.8456C257.952 47.7864 257.918 47.7327 257.873 47.6889C257.829 47.6452 257.774 47.6125 257.715 47.5936C257.655 47.5747 257.592 47.57 257.53 47.58H257.03C256.73 47.58 256.58 47.72 256.58 47.98C256.38 50.1 256.21 51.71 256.08 52.82C256.039 53.1651 255.923 53.4971 255.739 53.7925C255.556 54.0879 255.311 54.3397 255.02 54.53C254.73 54.7251 254.4 54.8532 254.054 54.9051C253.708 54.957 253.355 54.9313 253.02 54.83L252.42 54.68C251.66 54.4522 251.007 53.9589 250.58 53.29C250.132 52.6347 249.947 51.8354 250.06 51.05C250.56 46.9967 250.893 42.4167 251.06 37.31C251.069 36.9435 251.156 36.5832 251.317 36.2535C251.477 35.9239 251.707 35.6328 251.99 35.4C252.262 35.1614 252.579 34.9807 252.923 34.869C253.267 34.7572 253.63 34.7167 253.99 34.75H254.34C255.113 34.8058 255.832 35.1654 256.34 35.75C256.6 36.0335 256.8 36.3664 256.929 36.7288C257.058 37.0913 257.113 37.476 257.09 37.86C257.09 38.03 257.09 38.31 257.09 38.71C257.09 39.11 257.04 39.4 257.04 39.57C257.04 39.74 257.18 40.02 257.44 40.02H257.49C257.79 40.02 257.95 39.89 257.95 39.62V35.35C257.948 34.9764 258.023 34.6063 258.169 34.2625C258.315 33.9186 258.53 33.6081 258.8 33.35C259.058 33.0785 259.368 32.8623 259.712 32.7145C260.055 32.5666 260.426 32.4903 260.8 32.49H263.62C263.994 32.4908 264.364 32.5675 264.708 32.7153C265.052 32.8631 265.362 33.079 265.62 33.35C265.888 33.6095 266.102 33.9203 266.248 34.2638C266.394 34.6074 266.469 34.9767 266.47 35.35V39.63C266.461 39.6845 266.466 39.7402 266.483 39.7926C266.5 39.8451 266.529 39.8927 266.568 39.9317C266.607 39.9707 266.655 39.9999 266.707 40.017C266.76 40.0341 266.816 40.0385 266.87 40.03C267.244 40.0303 267.615 40.1066 267.958 40.2545C268.302 40.4023 268.612 40.6185 268.87 40.89C269.142 41.1476 269.358 41.4578 269.506 41.8016C269.653 42.1454 269.73 42.5157 269.73 42.89V44.7C269.728 45.0741 269.652 45.444 269.504 45.7877C269.356 46.1313 269.141 46.4416 268.87 46.7C268.612 46.9701 268.301 47.1848 267.957 47.3309C267.614 47.4771 267.244 47.5516 266.87 47.55C266.816 47.5415 266.76 47.5459 266.707 47.563C266.655 47.5801 266.607 47.6093 266.568 47.6483C266.529 47.6873 266.5 47.7349 266.483 47.7874C266.466 47.8398 266.461 47.8955 266.47 47.95V54.19C266.47 54.46 266.6 54.56 266.87 54.5C266.923 54.4943 266.974 54.4773 267.02 54.45C267.085 54.4326 267.154 54.4326 267.22 54.45C267.82 54.2774 268.463 54.3493 269.01 54.65C269.275 54.7886 269.508 54.9813 269.694 55.2155C269.88 55.4498 270.015 55.7204 270.09 56.01C270.15 56.24 270.29 56.29 270.49 56.16C270.962 55.8295 271.524 55.6515 272.1 55.65H284.61C284.91 55.65 285.07 55.52 285.07 55.25V53.59C285.079 53.528 285.072 53.4648 285.052 53.4056C285.032 53.3464 284.998 53.2927 284.954 53.2489C284.909 53.2052 284.854 53.1725 284.795 53.1536C284.735 53.1347 284.672 53.13 284.61 53.14H272.1C271.726 53.1397 271.355 53.0634 271.012 52.9155C270.668 52.7677 270.358 52.5515 270.1 52.28C269.829 52.0224 269.612 51.7122 269.464 51.3684C269.316 51.0246 269.24 50.6543 269.24 50.28V48.72C269.24 48.3457 269.316 47.9754 269.464 47.6316C269.612 47.2878 269.829 46.9776 270.1 46.72C270.358 46.4485 270.668 46.2323 271.012 46.0845C271.355 45.9366 271.726 45.8603 272.1 45.86H278.38C278.65 45.86 278.78 45.71 278.78 45.41V43.45C278.788 43.3955 278.784 43.3398 278.767 43.2874C278.75 43.2349 278.721 43.1873 278.682 43.1483C278.643 43.1093 278.595 43.0801 278.543 43.063C278.49 43.0459 278.434 43.0415 278.38 43.05H273.61C273.236 43.0528 272.866 42.9788 272.522 42.8326C272.178 42.6864 271.867 42.4711 271.61 42.2C271.339 41.9424 271.122 41.6322 270.974 41.2884C270.826 40.9446 270.75 40.5743 270.75 40.2V38.89C270.75 38.5157 270.826 38.1454 270.974 37.8016C271.122 37.4578 271.339 37.1476 271.61 36.89C271.867 36.6189 272.178 36.4036 272.522 36.2574C272.866 36.1112 273.236 36.0372 273.61 36.04H278.38C278.65 36.04 278.78 35.89 278.78 35.58V34.38C278.781 34.0059 278.858 33.636 279.006 33.2923C279.154 32.9486 279.369 32.6384 279.64 32.38C279.898 32.1099 280.209 31.8952 280.552 31.7491C280.896 31.6029 281.266 31.5284 281.64 31.53H285.21C285.584 31.5284 285.954 31.6029 286.298 31.7491C286.641 31.8952 286.952 32.1099 287.21 32.38C287.479 32.6389 287.693 32.9495 287.839 33.2932C287.985 33.6369 288.06 34.0065 288.06 34.38V35.58C288.05 35.6418 288.054 35.7051 288.073 35.7647C288.092 35.8244 288.125 35.8788 288.169 35.9235C288.213 35.9683 288.266 36.0021 288.326 36.0223C288.385 36.0426 288.448 36.0486 288.51 36.04H293.51C293.884 36.0384 294.253 36.1129 294.597 36.2591C294.941 36.4052 295.252 36.6199 295.51 36.89C295.78 37.1481 295.995 37.4586 296.141 37.8025C296.287 38.1463 296.362 38.5164 296.36 38.89V40.15C296.362 40.5236 296.287 40.8937 296.141 41.2375C295.995 41.5814 295.78 41.8919 295.51 42.15C295.252 42.4201 294.941 42.6348 294.597 42.7809C294.253 42.9271 293.884 43.0016 293.51 43H288.51C288.21 43 288.06 43.14 288.06 43.4V45.32C288.052 45.381 288.058 45.4432 288.077 45.5015C288.097 45.5599 288.13 45.6129 288.174 45.6565C288.217 45.7 288.27 45.7329 288.328 45.7526C288.387 45.7723 288.449 45.7783 288.51 45.77L295.14 45.82ZM285.19 69.72V63.38C285.198 63.318 285.193 63.2548 285.172 63.1956C285.152 63.1364 285.118 63.0827 285.073 63.0389C285.029 62.9952 284.974 62.9625 284.915 62.9436C284.855 62.9247 284.792 62.92 284.73 62.93H276.24C276.201 62.9327 276.163 62.9463 276.131 62.9693C276.099 62.9922 276.075 63.0237 276.06 63.06C276.06 63.14 276.06 63.2 276.06 63.23C277.5 64.8367 278.873 66.4133 280.18 67.96C280.375 68.1821 280.521 68.4433 280.607 68.7261C280.693 69.0089 280.718 69.3068 280.68 69.6C280.65 69.8995 280.559 70.1896 280.413 70.4527C280.267 70.7158 280.068 70.9463 279.83 71.13C279.817 71.1581 279.81 71.1889 279.81 71.22C279.81 71.2511 279.817 71.2819 279.83 71.31C279.84 71.3353 279.859 71.3567 279.882 71.3711C279.905 71.3855 279.933 71.3921 279.96 71.39L282.42 71.49C283.23 71.5596 284.047 71.4817 284.83 71.26C285.07 71.15 285.19 70.6 285.19 69.72Z" fill="#252525"/>
<path d="M350.63 59.91C350.916 59.9039 351.2 59.9567 351.465 60.0651C351.73 60.1735 351.97 60.3351 352.17 60.54C352.373 60.7403 352.534 60.9805 352.64 61.2454C352.747 61.5104 352.798 61.7945 352.79 62.08V64.59C352.79 64.9634 352.715 65.3331 352.569 65.6768C352.423 66.0205 352.209 66.3311 351.94 66.59C351.682 66.8601 351.371 67.0748 351.028 67.2209C350.684 67.3671 350.314 67.4416 349.94 67.44H339.44C339.433 67.4557 339.429 67.4727 339.429 67.49C339.429 67.5072 339.433 67.5243 339.44 67.54C343.193 68.7466 346.727 70.08 350.04 71.54C350.375 71.6758 350.674 71.8873 350.913 72.158C351.152 72.4286 351.326 72.751 351.42 73.1C351.531 73.4417 351.565 73.8041 351.518 74.1606C351.472 74.517 351.346 74.8585 351.15 75.16L349.79 77.38C349.397 78.0383 348.768 78.5214 348.03 78.73C347.668 78.8496 347.284 78.8935 346.904 78.8591C346.524 78.8247 346.155 78.7127 345.82 78.53C342.327 76.85 338.54 75.24 334.46 73.7C334.114 73.5843 333.797 73.3972 333.528 73.1509C333.259 72.9045 333.045 72.6044 332.9 72.27C332.744 71.9436 332.664 71.5865 332.664 71.225C332.664 70.8634 332.744 70.5064 332.9 70.18L333.96 67.86C334.09 67.59 334.01 67.46 333.71 67.46H324C323.953 67.458 323.907 67.4691 323.866 67.4921C323.826 67.5151 323.792 67.549 323.77 67.59C323.742 67.6197 323.726 67.6591 323.726 67.7C323.726 67.7409 323.742 67.7803 323.77 67.81L324.77 69.72C324.966 70.0549 325.093 70.4254 325.145 70.8099C325.196 71.1944 325.171 71.5853 325.07 71.96C324.983 72.3362 324.817 72.6899 324.585 72.9982C324.352 73.3066 324.058 73.5627 323.72 73.75C319.84 75.8551 315.743 77.5316 311.5 78.75C310.736 78.9887 309.91 78.928 309.19 78.58C308.452 78.2585 307.86 77.6738 307.53 76.94L306.53 74.78C306.371 74.4706 306.288 74.1278 306.288 73.78C306.288 73.4322 306.371 73.0894 306.53 72.78C306.671 72.4596 306.883 72.1753 307.15 71.9484C307.417 71.7215 307.731 71.558 308.07 71.47C311.704 70.4185 315.262 69.1222 318.72 67.59C318.748 67.5637 318.766 67.5282 318.77 67.49C318.77 67.49 318.77 67.49 318.67 67.49H307.91C307.536 67.4916 307.166 67.4171 306.822 67.2709C306.479 67.1248 306.168 66.9101 305.91 66.64C305.641 66.3811 305.427 66.0705 305.281 65.7268C305.135 65.3831 305.06 65.0134 305.06 64.64V62.13C305.054 61.8438 305.107 61.5595 305.215 61.2946C305.323 61.0297 305.485 60.7899 305.69 60.59C305.888 60.3859 306.126 60.2247 306.39 60.1163C306.653 60.0079 306.935 59.9547 307.22 59.96C307.267 59.9666 307.316 59.9622 307.361 59.9469C307.407 59.9317 307.448 59.9061 307.482 59.8722C307.516 59.8382 307.542 59.7969 307.557 59.7514C307.572 59.7059 307.577 59.6575 307.57 59.61V39.63C307.57 39.2557 307.647 38.8854 307.794 38.5416C307.942 38.1978 308.158 37.8876 308.43 37.63C308.688 37.3585 308.998 37.1423 309.342 36.9945C309.685 36.8466 310.056 36.7702 310.43 36.77H318.92C318.981 36.7782 319.043 36.7723 319.102 36.7526C319.16 36.7329 319.213 36.7 319.256 36.6564C319.3 36.6129 319.333 36.5599 319.353 36.5015C319.372 36.4431 319.378 36.381 319.37 36.32V34.85C319.37 34.4757 319.447 34.1054 319.594 33.7616C319.742 33.4178 319.958 33.1076 320.23 32.85C320.488 32.5785 320.798 32.3623 321.142 32.2145C321.485 32.0666 321.856 31.9902 322.23 31.99H324.54C324.914 31.9902 325.285 32.0666 325.628 32.2145C325.972 32.3623 326.282 32.5785 326.54 32.85C326.811 33.1076 327.028 33.4178 327.176 33.7616C327.323 34.1054 327.4 34.4757 327.4 34.85V36.31C327.4 36.61 327.53 36.76 327.8 36.76H330C330.061 36.7682 330.123 36.7623 330.181 36.7426C330.24 36.7229 330.293 36.69 330.336 36.6464C330.38 36.6029 330.413 36.5498 330.433 36.4915C330.452 36.4331 330.458 36.371 330.45 36.31V34.85C330.45 34.4757 330.527 34.1054 330.675 33.7616C330.822 33.4178 331.039 33.1076 331.31 32.85C331.566 32.5766 331.876 32.3591 332.22 32.2112C332.564 32.0632 332.935 31.9879 333.31 31.99H335.62C335.994 31.9902 336.365 32.0666 336.708 32.2145C337.052 32.3623 337.362 32.5785 337.62 32.85C337.89 33.1081 338.105 33.4186 338.251 33.7625C338.397 34.1063 338.472 34.4763 338.47 34.85V36.31C338.47 36.61 338.61 36.76 338.87 36.76H347.42C347.794 36.7602 348.164 36.8366 348.508 36.9844C348.852 37.1323 349.162 37.3485 349.42 37.62C349.69 37.8781 349.905 38.1886 350.051 38.5325C350.197 38.8763 350.272 39.2464 350.27 39.62V59.55C350.261 59.5992 350.264 59.6498 350.279 59.6976C350.294 59.7453 350.321 59.7887 350.356 59.8241C350.391 59.8594 350.435 59.8857 350.482 59.9007C350.53 59.9156 350.581 59.9188 350.63 59.91ZM319.37 47.91V44.49C319.37 44.22 319.22 44.09 318.92 44.09H316.76C316.706 44.0814 316.65 44.0859 316.597 44.103C316.545 44.12 316.497 44.1493 316.458 44.1883C316.419 44.2273 316.39 44.2749 316.373 44.3273C316.356 44.3798 316.352 44.4355 316.36 44.49V47.91C316.36 48.22 316.49 48.37 316.76 48.37H318.92C318.985 48.3801 319.051 48.374 319.114 48.3522C319.176 48.3305 319.231 48.2937 319.276 48.2453C319.32 48.1968 319.352 48.1381 319.369 48.0744C319.385 48.0107 319.386 47.9439 319.37 47.88V47.91ZM319.37 59.49V55.86C319.378 55.7989 319.372 55.7368 319.353 55.6785C319.333 55.6201 319.3 55.5671 319.256 55.5235C319.213 55.48 319.16 55.4471 319.102 55.4274C319.043 55.4077 318.981 55.4017 318.92 55.41H316.76C316.49 55.41 316.36 55.56 316.36 55.86V59.49C316.36 59.79 316.49 59.94 316.76 59.94H318.92C318.984 59.9495 319.049 59.9434 319.11 59.9221C319.171 59.9009 319.226 59.8651 319.271 59.8179C319.315 59.7707 319.347 59.7135 319.364 59.6512C319.382 59.5888 319.384 59.5232 319.37 59.46V59.49ZM330.43 47.91V44.49C330.43 44.22 330.28 44.09 329.98 44.09H327.82C327.766 44.0814 327.71 44.0859 327.657 44.103C327.605 44.12 327.557 44.1493 327.518 44.1883C327.479 44.2273 327.45 44.2749 327.433 44.3273C327.416 44.3798 327.411 44.4355 327.42 44.49V47.91C327.42 48.22 327.55 48.37 327.82 48.37H330C330.063 48.3765 330.128 48.3677 330.187 48.3444C330.246 48.321 330.299 48.2838 330.341 48.2359C330.383 48.1879 330.414 48.1306 330.429 48.0687C330.444 48.0068 330.445 47.9421 330.43 47.88V47.91ZM330.43 59.49V55.86C330.438 55.7989 330.432 55.7368 330.413 55.6785C330.393 55.6201 330.36 55.5671 330.316 55.5235C330.273 55.48 330.22 55.4471 330.162 55.4274C330.103 55.4077 330.041 55.4017 329.98 55.41H327.82C327.55 55.41 327.42 55.56 327.42 55.86V59.49C327.42 59.79 327.55 59.94 327.82 59.94H330C330.062 59.946 330.125 59.9373 330.184 59.9145C330.242 59.8917 330.295 59.8554 330.336 59.8087C330.378 59.762 330.409 59.7061 330.425 59.6455C330.441 59.5849 330.443 59.5214 330.43 59.46V59.49ZM341.49 47.91V44.49C341.49 44.22 341.34 44.09 341.03 44.09H338.87C338.816 44.0814 338.76 44.0859 338.707 44.103C338.655 44.12 338.607 44.1493 338.568 44.1883C338.529 44.2273 338.5 44.2749 338.483 44.3273C338.466 44.3798 338.461 44.4355 338.47 44.49V47.91C338.47 48.22 338.61 48.37 338.87 48.37H341C341.068 48.3882 341.139 48.3882 341.207 48.37C341.275 48.3519 341.337 48.3162 341.386 48.2665C341.436 48.2168 341.472 48.155 341.49 48.0871C341.508 48.0193 341.508 47.9478 341.49 47.88V47.91ZM341.49 59.49V55.86C341.499 55.798 341.493 55.7348 341.472 55.6756C341.452 55.6164 341.418 55.5627 341.374 55.5189C341.329 55.4751 341.274 55.4425 341.215 55.4236C341.155 55.4046 341.092 55.4 341.03 55.41H338.87C338.61 55.41 338.47 55.56 338.47 55.86V59.49C338.47 59.79 338.61 59.94 338.87 59.94H341C341.067 59.9574 341.137 59.9572 341.204 59.9395C341.271 59.9217 341.332 59.887 341.381 59.8387C341.43 59.7903 341.466 59.7301 341.485 59.6637C341.504 59.5973 341.506 59.5272 341.49 59.46V59.49Z" fill="#252525"/>
<path d="M398.34 37.32C398.735 37.3174 399.126 37.396 399.489 37.5508C399.852 37.7057 400.179 37.9334 400.45 38.22C400.733 38.4932 400.958 38.8211 401.111 39.1838C401.264 39.5464 401.342 39.9364 401.34 40.33V73.33C401.343 73.7237 401.265 74.1138 401.112 74.4765C400.959 74.8393 400.734 75.1671 400.45 75.44C400.179 75.7265 399.852 75.9543 399.489 76.1091C399.126 76.2639 398.735 76.3425 398.34 76.34H365.34C364.947 76.3423 364.558 76.2636 364.196 76.1088C363.835 75.9539 363.509 75.7263 363.24 75.44C362.953 75.1691 362.725 74.8419 362.57 74.4788C362.415 74.1158 362.337 73.7247 362.34 73.33V70.33C362.338 69.9354 362.416 69.5445 362.571 69.1815C362.726 68.8185 362.954 68.4913 363.24 68.22C363.511 67.9369 363.838 67.7121 364.199 67.559C364.56 67.406 364.948 67.3281 365.34 67.33H390.83C391.14 67.33 391.3 67.19 391.3 66.9V46.76C391.308 46.6963 391.302 46.6316 391.281 46.5709C391.26 46.5101 391.226 46.455 391.181 46.4096C391.135 46.3642 391.08 46.3298 391.019 46.3091C390.958 46.2884 390.894 46.2818 390.83 46.29H365.34C364.947 46.2923 364.558 46.2136 364.196 46.0588C363.835 45.9039 363.509 45.6763 363.24 45.39C362.954 45.1187 362.726 44.7914 362.571 44.4285C362.416 44.0655 362.338 43.6746 362.34 43.28V40.33C362.338 39.9354 362.416 39.5445 362.571 39.1815C362.726 38.8185 362.954 38.4913 363.24 38.22C363.509 37.9337 363.835 37.706 364.196 37.5512C364.558 37.3963 364.947 37.3176 365.34 37.32H398.34Z" fill="#252525"/>
<path d="M413.35 45.39C413 45.2343 412.686 45.0057 412.431 44.7194C412.176 44.4332 411.985 44.0959 411.87 43.73C411.75 43.3706 411.706 42.9899 411.743 42.6127C411.779 42.2355 411.894 41.87 412.08 41.54L413.98 37.85C414.351 37.1237 414.995 36.5737 415.77 36.32C416.153 36.1813 416.559 36.1196 416.966 36.1385C417.373 36.1573 417.771 36.2564 418.14 36.43C421.926 38.15 425.663 39.9433 429.35 41.81C429.699 41.9638 430.008 42.1951 430.254 42.4861C430.5 42.7772 430.676 43.1205 430.77 43.49C430.88 43.8582 430.914 44.2451 430.869 44.6268C430.825 45.0086 430.702 45.3772 430.51 45.71L428.46 49.5C428.279 49.8564 428.027 50.1717 427.719 50.4263C427.411 50.6809 427.054 50.8694 426.67 50.98C426.289 51.1055 425.887 51.1516 425.488 51.1155C425.089 51.0793 424.702 50.9618 424.35 50.77C420.25 48.69 416.583 46.8966 413.35 45.39ZM451.47 41.96C451.858 42.0413 452.225 42.2002 452.55 42.427C452.874 42.6538 453.15 42.944 453.36 43.28C453.584 43.6084 453.737 43.9799 453.809 44.3707C453.882 44.7616 453.872 45.1632 453.78 45.55C451.68 54.93 447.573 62.2066 441.46 67.38C435.347 72.5533 426.94 75.7866 416.24 77.08C415.846 77.1361 415.445 77.1109 415.062 77.0059C414.678 76.901 414.32 76.7186 414.01 76.47C413.372 75.9797 412.947 75.2641 412.82 74.47L412.19 70.62C412.12 70.2429 412.132 69.8555 412.223 69.4831C412.314 69.1108 412.484 68.762 412.72 68.46C412.95 68.1344 413.249 67.8624 413.594 67.6622C413.939 67.462 414.323 67.3385 414.72 67.3C423.24 66.1133 429.803 63.6533 434.41 59.92C439.016 56.1866 442.297 50.67 444.25 43.37C444.342 42.9853 444.511 42.6232 444.746 42.3053C444.982 41.9874 445.279 41.7203 445.62 41.52C445.945 41.3143 446.308 41.1756 446.688 41.1121C447.067 41.0485 447.456 41.0614 447.83 41.15L451.47 41.96Z" fill="#252525"/>
<path d="M503.64 49.98C504.034 49.9779 504.424 50.0557 504.786 50.2087C505.149 50.3617 505.477 50.5866 505.75 50.87C506.037 51.1413 506.264 51.4685 506.419 51.8315C506.574 52.1945 506.653 52.5854 506.65 52.98V55.98C506.652 56.3731 506.574 56.7624 506.419 57.1238C506.264 57.4851 506.036 57.8106 505.75 58.08C505.479 58.3666 505.152 58.5943 504.789 58.7491C504.426 58.9039 504.035 58.9825 503.64 58.98H490.8C490.735 58.9697 490.668 58.9751 490.605 58.9956C490.542 59.0161 490.485 59.0511 490.438 59.0979C490.391 59.1447 490.356 59.2019 490.336 59.2648C490.315 59.3277 490.31 59.3946 490.32 59.46C490.147 69.82 484.443 76.32 473.21 78.96C472.822 79.0505 472.419 79.0626 472.026 78.9956C471.632 78.9287 471.257 78.784 470.92 78.57C470.214 78.144 469.683 77.4813 469.42 76.7L468.32 73.43C468.196 73.0788 468.152 72.7042 468.192 72.3339C468.232 71.9635 468.354 71.6068 468.55 71.29C468.741 70.9599 468.996 70.6714 469.3 70.4412C469.604 70.2111 469.951 70.0441 470.32 69.95C473.65 69.07 476.05 67.8 477.5 66.15C479.042 64.2674 479.855 61.8927 479.79 59.46C479.8 59.3956 479.795 59.3297 479.775 59.2677C479.755 59.2057 479.721 59.1491 479.675 59.1025C479.63 59.056 479.574 59.0207 479.512 58.9994C479.45 58.9781 479.385 58.9715 479.32 58.98H463.32C462.927 58.9823 462.538 58.9036 462.176 58.7488C461.815 58.5939 461.489 58.3663 461.22 58.08C460.934 57.8106 460.706 57.4851 460.551 57.1238C460.396 56.7624 460.318 56.3731 460.32 55.98V52.98C460.318 52.5854 460.396 52.1945 460.551 51.8315C460.706 51.4685 460.933 51.1413 461.22 50.87C461.491 50.5869 461.818 50.3621 462.179 50.2091C462.54 50.0561 462.928 49.9781 463.32 49.98H503.64ZM469.64 35.74H497.34C497.733 35.7388 498.122 35.8181 498.483 35.9728C498.844 36.1276 499.17 36.3547 499.44 36.64C499.727 36.9113 499.954 37.2386 500.109 37.6015C500.264 37.9645 500.343 38.3554 500.34 38.75V41.75C500.343 42.1446 500.264 42.5355 500.109 42.8985C499.954 43.2614 499.727 43.5887 499.44 43.86C499.17 44.1453 498.844 44.3724 498.483 44.5271C498.122 44.6819 497.733 44.7612 497.34 44.76H469.64C469.247 44.7629 468.857 44.6845 468.496 44.5296C468.135 44.3747 467.809 44.1467 467.54 43.86C467.254 43.5887 467.026 43.2614 466.871 42.8985C466.716 42.5355 466.637 42.1446 466.64 41.75V38.75C466.637 38.3554 466.716 37.9645 466.871 37.6015C467.026 37.2386 467.254 36.9113 467.54 36.64C467.808 36.3545 468.132 36.1272 468.491 35.9723C468.851 35.8175 469.238 35.7384 469.63 35.74H469.64Z" fill="#252525"/>
<path d="M515.49 45.39C515.14 45.2353 514.828 45.0069 514.574 44.7205C514.32 44.434 514.131 44.0961 514.02 43.73C513.896 43.3713 513.85 42.99 513.886 42.6121C513.922 42.2341 514.04 41.8684 514.23 41.54L516.12 37.85C516.492 37.1237 517.135 36.5737 517.91 36.32C518.293 36.1813 518.699 36.1196 519.106 36.1385C519.513 36.1573 519.912 36.2564 520.28 36.43C524.067 38.15 527.807 39.9433 531.5 41.81C531.848 41.9657 532.156 42.1975 532.401 42.4883C532.647 42.7791 532.824 43.1214 532.92 43.49C533.026 43.8593 533.056 44.246 533.01 44.6274C532.964 45.0087 532.841 45.3768 532.65 45.71L530.6 49.5C530.421 49.8574 530.169 50.1736 529.861 50.4284C529.553 50.6832 529.195 50.8711 528.81 50.98C528.43 51.1055 528.027 51.1516 527.628 51.1155C527.229 51.0793 526.842 50.9618 526.49 50.77C522.39 48.69 518.723 46.8966 515.49 45.39ZM553.61 41.96C553.999 42.0433 554.366 42.2029 554.692 42.4295C555.019 42.6561 555.297 42.9451 555.51 43.28C555.727 43.6119 555.875 43.9834 555.947 44.373C556.019 44.7626 556.013 45.1626 555.93 45.55C553.823 54.93 549.717 62.2066 543.61 67.38C537.504 72.5533 529.097 75.7866 518.39 77.08C517.995 77.1369 517.592 77.1121 517.207 77.0072C516.822 76.9022 516.462 76.7194 516.15 76.47C515.513 75.9797 515.087 75.2641 514.96 74.47L514.33 70.62C514.261 70.2429 514.272 69.8555 514.363 69.4831C514.455 69.1108 514.624 68.762 514.86 68.46C515.085 68.1404 515.375 67.8719 515.711 67.672C516.047 67.4721 516.422 67.3453 516.81 67.3C525.343 66.1133 531.907 63.6533 536.5 59.92C541.093 56.1866 544.374 50.67 546.34 43.37C546.432 42.9853 546.601 42.6232 546.837 42.3053C547.072 41.9874 547.369 41.7203 547.71 41.52C548.035 41.3143 548.398 41.1756 548.778 41.1121C549.157 41.0485 549.546 41.0614 549.92 41.15L553.61 41.96Z" fill="#252525"/>
<path d="M576.25 52.61C576.355 52.9818 576.381 53.3715 576.326 53.754C576.271 54.1364 576.136 54.503 575.93 54.83C575.734 55.168 575.469 55.4606 575.152 55.6882C574.835 55.9158 574.473 56.0732 574.09 56.15L570.4 56.99C570.016 57.08 569.617 57.091 569.229 57.0222C568.84 56.9534 568.47 56.8064 568.14 56.59C567.807 56.3963 567.519 56.1352 567.294 55.8235C567.068 55.5118 566.91 55.1563 566.83 54.78C565.597 49.68 564.597 45.7066 563.83 42.86C563.725 42.4799 563.698 42.0822 563.753 41.6916C563.808 41.3011 563.943 40.9261 564.15 40.59C564.34 40.2574 564.597 39.9682 564.905 39.7409C565.214 39.5136 565.566 39.3532 565.94 39.27L569.36 38.54C569.747 38.4466 570.149 38.4312 570.542 38.4947C570.935 38.5582 571.312 38.6994 571.65 38.91C571.992 39.0987 572.292 39.3546 572.533 39.6621C572.773 39.9697 572.949 40.3227 573.05 40.7C574.05 44.39 575.13 48.36 576.25 52.61ZM605.05 36.9C605.859 36.9584 606.618 37.3147 607.18 37.9C607.461 38.184 607.68 38.5239 607.821 38.8978C607.962 39.2716 608.023 39.671 608 40.07C607.941 45.5654 607.226 51.0342 605.87 56.36C604.794 60.4873 602.824 64.3278 600.1 67.61C597.466 70.6605 594.159 73.0569 590.44 74.61C585.918 76.4523 581.157 77.6442 576.3 78.15C575.477 78.2606 574.643 78.0413 573.98 77.54C573.645 77.3093 573.361 77.0131 573.145 76.6693C572.928 76.3255 572.784 75.9413 572.72 75.54L572 72.15C571.928 71.775 571.935 71.389 572.021 71.0169C572.107 70.6449 572.27 70.295 572.5 69.99C572.719 69.6712 573.004 69.4029 573.335 69.2028C573.666 69.0028 574.036 68.8757 574.42 68.83C578.157 68.3802 581.821 67.4492 585.32 66.06C588.082 64.9058 590.522 63.0972 592.43 60.79C594.42 58.2868 595.821 55.3681 596.53 52.25C597.483 48.0628 597.976 43.7841 598 39.49C598.021 39.1059 598.12 38.7302 598.292 38.3862C598.464 38.0422 598.705 37.7372 599 37.49C599.281 37.2249 599.613 37.0199 599.976 36.8875C600.338 36.7551 600.725 36.6981 601.11 36.72L605.05 36.9ZM583.57 36.9C583.959 36.8109 584.362 36.8005 584.755 36.8691C585.149 36.9378 585.524 37.0843 585.86 37.3C586.205 37.5032 586.505 37.7734 586.744 38.0945C586.983 38.4157 587.155 38.7813 587.25 39.17C588.41 43.4233 589.483 47.4833 590.47 51.35C590.575 51.7168 590.601 52.1018 590.546 52.4794C590.49 52.857 590.355 53.2185 590.15 53.54C589.949 53.8704 589.682 54.1556 589.365 54.3777C589.048 54.5997 588.689 54.7537 588.31 54.83L584.62 55.67C584.235 55.762 583.835 55.7721 583.446 55.6998C583.056 55.6274 582.686 55.4742 582.36 55.25C581.676 54.8163 581.185 54.1359 580.99 53.35C580.57 51.6566 579.5 47.6166 577.78 41.23C577.672 40.865 577.642 40.4814 577.692 40.1041C577.742 39.7268 577.871 39.3642 578.07 39.04C578.259 38.7059 578.519 38.4172 578.832 38.1944C579.145 37.9715 579.502 37.8198 579.88 37.75L583.57 36.9Z" fill="#252525"/>
</g>
<defs>
<clipPath id="clip0">
<rect width="608" height="48" fill="white" transform="translate(0 31)"/>
</clipPath>
</defs>
</svg>
