<svg xmlns="http://www.w3.org/2000/svg" fill="none" class="common-header-17q217y" viewBox="0 0 178 32"><path fill="url(#a)" d="M164.629 5.606c-5.999 1.323-13.073 1.801-25.143 4.906-9.667 2.488-15.633 4.957-21.77 7.315-5.462 2.096-5.056 7.172-2.41 9.313 3.216 2.6 6.575 2.974 13.57.878s33.526-7.656 38.281-8.54c4.755-.885 11.304-2.424 10.662-7.12-.557-4.067-5.672-8.415-13.19-6.752z" opacity=".7"/><path fill="#fff" d="M128.955 3.923c-10.329 9.994-9.215 21.285-6.34 25.496.543.8 1.31 2.064 2.58 1.52 1.12-.478 1.16-1.749.446-2.548-3.995-4.473-2.332-14.212 4.565-22.019.517-.589 2.79-.713 1.584-2.501-.7-1.042-2.246-.518-2.829.052h-.006zm39.911-.196c-1.329-1.33-3.484-.583-3.163 1.152.131.708 1.139.99 1.467.871 3.124 5.403.766 17.657-6.078 22.15-.982.642-1.303 1.971-.661 2.522.393.334 1.048 1.074 2.953-.262 6.235-4.375 11.377-20.54 5.482-26.44v.007zm-10.335 21.291c-1.499-1.041-5.639-2.947-8.514-6.903 2.41-.877 5.39-2.423 6.969-3.982 3.975-3.923.615-7.65-2.594-8.088-3.72-.504-7.394.917-8.134 1.69-.95.989.517 2.574.681 2.213-1.107 2.568-4.925 16.524-5.22 17.677-.294 1.153.59 1.925 1.362 2.017.845.105 1.841-.242 2.083-1.29.38-1.644 1.834-7.846 2.037-8.573 3.393 4.486 8.252 7.204 9.136 7.905.76.609 1.867.288 2.41-.275.767-.793.328-2.037-.209-2.41v.02h-.007zm-9.915-9.922c.923-2.698 1.29-3.864 2.05-6.13 1.912-.393 5.023.17 4.774 1.546-.34 1.886-4.152 3.608-6.824 4.584zm-6.203.347c0-3.15-4.905-5.023-8.691-1.781-6.077 5.2-4.558 14.932 1.409 14.932 2.79 0 5.141-1.44 5.108-2.98-.02-.91-.878-1.742-1.755-1.48-.878.262-2.024 1.48-3.871.655-1.31-.583-1.297-2.816-1.113-3.464 3.766 1.905 8.913-2.738 8.913-5.888v.006zm-8.18 3.111c.681-2.403 3.465-4.368 4.971-3.464.989 1.33-2.233 4.506-4.971 3.464z"/><path fill="#fff" fill-rule="evenodd" d="M22.803 8.449c0-1.487-1.185-2.692-2.652-2.692H3.018C1.55 5.757.365 6.962.365 8.449c0 1.486 1.186 2.691 2.653 2.691H20.15c1.467 0 2.652-1.205 2.652-2.691zm.23 18.233c0-1.487-1.186-2.692-2.653-2.692H2.75c-1.468 0-2.653 1.205-2.653 2.692s1.185 2.692 2.652 2.692h17.63c1.468 0 2.653-1.205 2.653-2.692zm28.725-3.766V11.887c0-3.556-2.856-6.458-6.366-6.458H31.769c-1.467 0-2.652 1.205-2.652 2.692s1.185 2.692 2.652 2.692h12.3c1.421 0 2.384.943 2.384 2.423v8.337c0 1.572-.871 2.424-2.384 2.424h-12.3c-1.467 0-2.652 1.205-2.652 2.691 0 1.487 1.185 2.692 2.652 2.692h13.623c3.51 0 6.366-2.895 6.366-6.457v-.007zM81.059 8.442c0-1.487-1.185-2.692-2.652-2.692H61.274c-1.467 0-2.653 1.205-2.653 2.692s1.186 2.692 2.653 2.692h17.133c1.467 0 2.652-1.205 2.652-2.692zm.25 18.233c0-1.486-1.186-2.691-2.653-2.691H61.025c-1.467 0-2.652 1.205-2.652 2.691 0 1.487 1.185 2.692 2.652 2.692h17.63c1.468 0 2.653-1.205 2.653-2.692zm28.725-3.765V11.887c0-3.556-2.856-6.458-6.366-6.458H90.045c-1.467 0-2.652 1.205-2.652 2.692s1.185 2.692 2.652 2.692h12.3c1.421 0 2.384.943 2.384 2.423v8.337c0 1.572-.871 2.424-2.384 2.424h-12.3c-1.467 0-2.652 1.205-2.652 2.691 0 1.487 1.185 2.692 2.652 2.692h13.623c3.51 0 6.366-2.895 6.366-6.457v-.013z" clip-rule="evenodd"/><defs><linearGradient id="a" x1="117.755" x2="173.28" y1="22.759" y2="10.957" gradientUnits="userSpaceOnUse"><stop stop-color="#FCFF55"/><stop offset=".33" stop-color="#6EFF62"/><stop offset=".67" stop-color="#86A8FF"/><stop offset="1" stop-color="#FF9ABE"/></linearGradient></defs></svg>