<svg width="58" height="58" viewBox="0 0 58 58" fill="none" xmlns="http://www.w3.org/2000/svg">
<g clip-path="url(#clip0)">
<path opacity="0.5" d="M3.8 47.1001C3.8 47.1001 0 49.5001 0 52.5001C0 56.4001 3.8 58.0001 3.8 58.0001V47.1001Z" fill="#252525"/>
<path d="M4 47.1001C4 47.1001 0 49.5001 0 52.5001C0 56.4001 4 58.0001 4 58.0001V47.1001Z" fill="url(#paint0_linear)"/>
<path opacity="0.5" d="M4 47.1001C4 47.1001 0 49.5001 0 52.5001C0 56.4001 4 58.0001 4 58.0001V47.1001Z" fill="#252525"/>
<path d="M0 52.5C0 52.5 0 50.4001 3.1 47.7001C3.3 47.5 3.5 47.3 3.8 47.1C6.8 44.7 12.7 41.4001 15.2 40C19.8 37.6 49.9 22.4 57.4 18.6C58.1 18.2 58.1 17.2 57.4 16.8L47.8 11.7C47.5 11.5 47.3 11.2 47.3 10.8L47.2 1.00005C47.2 0.300048 46.4 -0.199952 45.7 0.100048C38.1 4.00005 3 22.2 2.7 22.4C1.4 23.2 0 24.7 0 26.3C0 27.1 0 27.9 0 28.7C0 30.6 0 46.8 0 52.5Z" fill="#EE4949"/>
<g filter="url(#filter0_d)">
<path d="M15.7 21.4002C15.9 21.3002 16.1 21.3002 16.4 21.4002C16.6 21.5002 16.8 21.6002 16.9 21.8002L21.3 30.3002C21.4 30.5002 21.4 30.7002 21.3 31.0002C21.2 31.2002 21.1 31.4002 20.9 31.5002L19.8 32.0002C19.3 32.3002 18.8 32.2002 18.3 31.9002L13.4 28.3002L15.8 33.0002C15.9 33.2002 15.9 33.4002 15.8 33.7002C15.7 33.9002 15.6 34.1002 15.4 34.2002L14.3 34.7002C14.1 34.8002 13.9 34.8002 13.6 34.7002C13.4 34.6002 13.2 34.5002 13.1 34.3002L8.7 25.8002C8.6 25.6002 8.6 25.4002 8.7 25.1002C8.8 24.9002 8.9 24.7002 9.1 24.6002L10.2 24.1002C10.7 23.8002 11.2 23.9002 11.7 24.2002L16.6 27.8002L14.2 23.1002C14.1 22.9002 14.1 22.7002 14.2 22.4002C14.3 22.2002 14.4 22.0002 14.6 21.9002L15.7 21.4002Z" fill="white"/>
<path d="M24.4 16.9998C24.6 16.8998 24.8 16.8998 25.1 16.9998C25.3 17.0998 25.5 17.1998 25.6 17.3998L26 17.9998C26.1 18.1998 26.1 18.3998 26 18.6998C25.9 18.8998 25.8 19.0998 25.6 19.1998L22.6 20.6998C22.5 20.6998 22.5 20.7998 22.5 20.8998L23.2 22.2998C23.2 22.3998 23.3 22.3998 23.4 22.3998L26.1 20.9998C26.3 20.8998 26.5 20.8998 26.8 20.9998C27 21.0998 27.2 21.1998 27.3 21.3998L27.6 21.8998C27.7 22.0998 27.7 22.2998 27.6 22.5998C27.5 22.7998 27.4 22.9998 27.2 23.0998L24.5 24.4998C24.4 24.4998 24.4 24.5998 24.4 24.6998L25.3 26.3998C25.3 26.4998 25.4 26.4998 25.5 26.4998L28.5 24.9998C28.7 24.8998 28.9 24.8998 29.2 24.9998C29.4 25.0998 29.6 25.1998 29.7 25.3998L30 25.9998C30.1 26.1998 30.1 26.3998 30 26.6998C29.9 26.8998 29.8 27.0998 29.6 27.1998L24.5 29.7998C24.3 29.8998 24.1 29.8998 23.8 29.7998C23.6 29.6998 23.4 29.5998 23.3 29.3998L18.9 20.8998C18.8 20.6998 18.8 20.4998 18.9 20.1998C19 19.9998 19.1 19.7998 19.3 19.6998L24.4 16.9998Z" fill="white"/>
<path d="M37.6998 10.075C37.8998 9.975 38.0998 9.975 38.2998 10.075C38.4998 10.175 38.6998 10.275 38.6998 10.575L41.4998 19.975C41.5998 20.175 41.5998 20.475 41.4998 20.675C41.3998 20.875 41.1998 21.075 40.9998 21.175L39.3998 21.975C39.1998 22.075 38.8998 22.075 38.6998 22.075C38.4998 21.975 38.2998 21.875 38.0998 21.675L33.9998 15.475L36.5998 22.375C36.6998 22.575 36.6998 22.875 36.5998 23.075C36.4998 23.275 36.3998 23.475 36.0998 23.575L34.4998 24.375C34.2998 24.475 33.9998 24.475 33.7998 24.475C33.4998 24.375 33.2998 24.275 33.1998 24.075L27.0998 16.375C26.7998 16.275 26.7998 16.075 26.8998 15.875C26.9998 15.675 27.0998 15.475 27.2998 15.375L28.4998 14.775C28.6998 14.675 28.9998 14.675 29.1998 14.675C29.3998 14.775 29.5998 14.875 29.7998 15.075L33.8998 21.275L31.0998 14.375C30.9998 14.175 30.9998 13.875 31.0998 13.675C31.1998 13.475 31.2998 13.275 31.5998 13.175L33.3998 12.275C33.5998 12.175 33.8998 12.175 34.0998 12.175C34.2998 12.275 34.4998 12.375 34.6998 12.575L38.6998 18.875L35.9998 11.875C35.8998 11.675 35.8998 11.375 35.9998 11.175C36.0998 10.975 36.1998 10.775 36.4998 10.675L37.6998 10.075Z" fill="white"/>
</g>
</g>
<defs>
<filter id="filter0_d" x="6.625" y="10" width="34.9498" height="26.7752" filterUnits="userSpaceOnUse" color-interpolation-filters="sRGB">
<feFlood flood-opacity="0" result="BackgroundImageFix"/>
<feColorMatrix in="SourceAlpha" type="matrix" values="0 0 0 0 0 0 0 0 0 0 0 0 0 0 0 0 0 0 127 0"/>
<feOffset dx="-1" dy="1"/>
<feGaussianBlur stdDeviation="0.5"/>
<feColorMatrix type="matrix" values="0 0 0 0 0 0 0 0 0 0 0 0 0 0 0 0 0 0 0.15 0"/>
<feBlend mode="normal" in2="BackgroundImageFix" result="effect1_dropShadow"/>
<feBlend mode="normal" in="SourceGraphic" in2="effect1_dropShadow" result="shape"/>
</filter>
<linearGradient id="paint0_linear" x1="66.2849" y1="20.0625" x2="-0.133202" y2="54.7081" gradientUnits="userSpaceOnUse">
<stop stop-color="#FC5F00"/>
<stop offset="0.0708857" stop-color="#FC5F00"/>
<stop offset="0.4311" stop-color="#EE4949"/>
</linearGradient>
<clipPath id="clip0">
<rect width="58" height="58" fill="white"/>
</clipPath>
</defs>
</svg>
